<?xml version="1.0" standalone="no"?>
<!DOCTYPE svg PUBLIC "-//W3C//DTD SVG 1.1//EN" "http://www.w3.org/Graphics/SVG/1.1/DTD/svg11.dtd" >
<svg xmlns="http://www.w3.org/2000/svg" xmlns:xlink="http://www.w3.org/1999/xlink" version="1.1">
<metadata>
Created by FontForge 20170731 at Mon Mar 21 12:28:14 2022
 By Aleksey,,,
Copyright (c) Chank Co, 2015. All rights reserved. Do not redistribute or alter this font without permission.
</metadata>
<defs>
<font id="AdriannaCondensed-DemiBold" horiz-adv-x="864" >
  <font-face 
    font-family="Adrianna Condensed Lt"
    font-weight="600"
    font-stretch="condensed"
    units-per-em="2048"
    panose-1="2 0 5 5 4 0 0 2 0 4"
    ascent="1638"
    descent="-410"
    x-height="1032"
    cap-height="1448"
    bbox="-201 -610 1681 2046"
    underline-thickness="40"
    underline-position="-312"
    unicode-range="U+0020-FB02"
  />
<missing-glyph horiz-adv-x="868" 
d="M784 1479v-1479h-710v1479h710zM428 682l-283 -614h566zM150 1411l278 -608l281 608h-559zM401 741l-280 609v-1217zM457 741l276 -604v1206z" />
    <glyph glyph-name="fi" unicode="fi" horiz-adv-x="927" 
d="M545 1495l-25 -217q-57 31 -98 31t-63.5 -39t-22.5 -135v-103h180v-192h-180v-840h-221v840h-95v192h95v146q0 64 19.5 125.5t56.5 113.5t97 83.5t134 31.5q60 0 123 -37zM840 0h-219v1032h219v-1032zM844 1346q0 -55 -34.5 -92t-78.5 -37q-43 0 -76.5 37t-33.5 92
q0 54 33 92.5t77 38.5t78.5 -38.5t34.5 -92.5z" />
    <glyph glyph-name="fl" unicode="fl" horiz-adv-x="993" 
d="M545 1495l-25 -217q-57 31 -98 31t-63.5 -39t-22.5 -135v-103h180v-192h-180v-840h-221v840h-95v192h95v146q0 64 19.5 125.5t56.5 113.5t97 83.5t134 31.5q60 0 123 -37zM881 0h-224v1516h224v-1516z" />
    <glyph glyph-name=".notdef" horiz-adv-x="868" 
d="M784 1479v-1479h-710v1479h710zM428 682l-283 -614h566zM150 1411l278 -608l281 608h-559zM401 741l-280 609v-1217zM457 741l276 -604v1206z" />
    <glyph glyph-name=".null" horiz-adv-x="0" 
 />
    <glyph glyph-name=".null" horiz-adv-x="0" 
 />
    <glyph glyph-name="nonmarkingreturn" horiz-adv-x="682" 
 />
    <glyph glyph-name="space" unicode=" " horiz-adv-x="440" 
 />
    <glyph glyph-name="exclam" unicode="!" horiz-adv-x="350" 
d="M301 1450l-31 -989h-186l-35 989h252zM295 131q0 -64 -35.5 -106.5t-87.5 -42.5q-50 0 -85.5 42.5t-35.5 106.5q0 62 35.5 105t85.5 43q51 0 87 -42.5t36 -105.5z" />
    <glyph glyph-name="quotedbl" unicode="&#x22;" horiz-adv-x="761" 
d="M274 1450l2 -313l-20 -318h-172l-16 318v313h206zM641 1450l2 -313l-20 -318h-172l-17 318v313h207z" />
    <glyph glyph-name="numbersign" unicode="#" horiz-adv-x="1036" 
d="M936 1108l-8 -170h-178l-15 -315h178l-10 -170h-178l-12 -324l-144 -2l13 326h-193l-12 -324l-146 -2l15 326h-191l11 170h188l14 315h-188l8 170h191l12 299l145 2l-14 -301h194l13 299l143 2l-14 -301h178zM604 938h-190l-17 -315h193z" />
    <glyph glyph-name="dollar" unicode="$" horiz-adv-x="927" 
d="M885 442q0 -99 -29 -176t-74 -122.5t-104.5 -75t-113.5 -40t-109 -10.5q-13 0 -21 2l-18 -206l-150 2l27 225q-104 34 -254 152l74 202q15 -11 51.5 -37t50 -35l37.5 -25t40 -24t32 -14q5 59 21.5 176.5t21.5 177.5q-53 13 -95.5 30t-88.5 48.5t-77 72.5t-51 104.5
t-20 142.5q0 94 29.5 168t74 117.5t103.5 71.5t111.5 38t103.5 10q18 0 28 -2l21 180h151l-28 -209q158 -66 235 -147l-71 -186q-110 96 -205 123q-6 -64 -20 -179.5t-19 -160.5q37 -7 66 -15t65.5 -22.5t64 -33.5t55 -49t45.5 -67.5t29 -90.5t11 -116zM664 442
q0 62 -26.5 94t-72.5 48l-53 10q-6 -61 -22.5 -177.5t-22.5 -176.5l39 2q68 8 113 57.5t45 142.5zM406 854q4 63 18 177.5t18 164.5q-36 3 -65 0q-123 -13 -123 -178q0 -114 152 -164z" />
    <glyph glyph-name="percent" unicode="%" horiz-adv-x="1099" 
d="M1034 350q0 -133 -68 -228t-163 -95t-163.5 95t-68.5 228t68.5 228.5t163.5 95.5t163 -95t68 -229zM485 1092q0 -134 -67.5 -229t-163.5 -95q-95 0 -162 95t-67 229t67 228.5t162 94.5q96 0 163.5 -94.5t67.5 -228.5zM1001 1440l-792 -1428h-150l787 1428h155zM330 1094
q0 66 -22.5 112.5t-53.5 46.5q-30 0 -52 -47t-22 -112q0 -68 22 -115t52 -47q31 0 53.5 47t22.5 115zM877 350q0 67 -22 113.5t-52 46.5t-53 -47t-23 -113t23 -114t53 -48t52 47.5t22 114.5z" />
    <glyph glyph-name="ampersand" unicode="&#x26;" horiz-adv-x="1099" 
d="M1038 0h-213l-98 178q-54 -91 -128 -144.5t-161 -53.5q-52 0 -100.5 9.5t-103 37.5t-94.5 72.5t-66.5 122t-26.5 177.5q0 149 67.5 265.5t161.5 187.5q-48 60 -73 144t-25 165q0 150 88 232t230 82q143 0 214.5 -85.5t71.5 -236.5q0 -104 -60.5 -202t-141.5 -165
l151 -268q48 79 70 213l155 -65q0 -49 -29.5 -141t-76.5 -177q37 -54 100 -160.5t88 -144.5v-43zM604 328l-201 340q-135 -97 -135 -250q0 -121 51.5 -175.5t129.5 -54.5q32 0 75.5 38.5t79.5 101.5zM580 1153q0 67 -17.5 101t-62.5 34q-50 0 -78.5 -34t-28.5 -103
q0 -78 64 -182l16 -27q41 39 74 99t33 112z" />
    <glyph glyph-name="quotesingle" unicode="'" horiz-adv-x="313" 
d="M250 1450q2 -61 2 -309l-12 -322h-183l-12 322v309h205z" />
    <glyph glyph-name="parenleft" unicode="(" horiz-adv-x="563" 
d="M520 1493q-101 -134 -149 -226t-72.5 -216.5t-24.5 -313.5q0 -238 51 -400.5t193 -340.5l-133 -66q-174 169 -266 360t-92 449q0 147 29 273.5t83 224.5t111.5 169.5t134.5 143.5z" />
    <glyph glyph-name="parenright" unicode=")" horiz-adv-x="501" 
d="M518 739q0 -258 -91 -449t-265 -360l-131 68q141 177 192 340t51 399q0 191 -25 315t-75 215.5t-154 221.5l144 61q60 -56 106.5 -110.5t95 -130.5t80.5 -157t52 -187.5t20 -225.5z" />
    <glyph glyph-name="asterisk" unicode="*" horiz-adv-x="792" 
d="M754 928l-242 -72q30 -51 92 -148.5t72 -113.5l-164 -135l-121 321l-131 -313l-164 133l174 260l-237 80l63 213l230 -147l-27 378h201l-39 -380q158 92 229 135z" />
    <glyph glyph-name="plus" unicode="+" horiz-adv-x="739" 
d="M688 561h-237v-356h-168v356h-238v191h238v360h168v-360h237v-191z" />
    <glyph glyph-name="comma" unicode="," horiz-adv-x="337" 
d="M297 70q0 -106 -66.5 -219t-152.5 -166l-45 118q24 27 58.5 85.5t47.5 97.5l-6 2q-44 0 -65 39t-21 92q0 60 39.5 98.5t83.5 38.5q55 0 91 -53t36 -133z" />
    <glyph glyph-name="hyphen" unicode="-" horiz-adv-x="641" 
d="M557 502h-508v192h508v-192z" />
    <glyph glyph-name="period" unicode="." horiz-adv-x="372" 
d="M307 131q0 -63 -36.5 -106t-86.5 -43t-85.5 42.5t-35.5 106.5q0 65 35.5 108.5t85.5 43.5t86.5 -43.5t36.5 -108.5z" />
    <glyph glyph-name="slash" unicode="/" horiz-adv-x="782" 
d="M748 1450l-525 -1450h-196l526 1450h195z" />
    <glyph glyph-name="zero" unicode="0" horiz-adv-x="1161" 
d="M1098 709q0 -169 -46 -309.5t-120.5 -230t-167 -138.5t-189.5 -49q-98 0 -191.5 49t-169 138.5t-121.5 230t-46 309.5q0 183 46 331.5t121.5 240t168.5 140.5t192 49q98 0 190 -49t167 -140.5t120.5 -240t45.5 -331.5zM862 709q0 241 -78 383.5t-209 142.5
q-132 0 -210 -141.5t-78 -384.5q0 -226 78 -359t210 -133q131 0 209 136t78 356z" />
    <glyph glyph-name="one" unicode="1" horiz-adv-x="724" 
d="M571 0h-229v1020l-137 -266l-154 112l326 584h194v-1450z" />
    <glyph glyph-name="two" unicode="2" horiz-adv-x="1009" 
d="M926 997q0 -86 -22.5 -158.5t-54 -121t-85.5 -95t-94.5 -72.5t-104.5 -61l-47 -24q-59 -42 -103.5 -97t-72.5 -143h576v-227h-836q-6 31 -25 192q15 52 33 97.5t34 80.5t41 69.5t41.5 57t48.5 50t49 42t57.5 40t58 36.5t65.5 39q108 55 162.5 110.5t54.5 121.5
q0 63 -14 104q-34 203 -188 203q-171 0 -369 -158l-72 205q114 99 220 143t221 44q53 0 108.5 -15t113 -51t102.5 -89t73.5 -137t28.5 -186z" />
    <glyph glyph-name="three" unicode="3" horiz-adv-x="980" 
d="M911 424q0 -81 -21.5 -149.5t-58.5 -115.5t-82.5 -82.5t-97.5 -55.5t-99 -29.5t-91 -9.5q-207 0 -404 168l52 219q184 -156 352 -156q203 0 203 203q0 80 -51 136.5t-150 65.5h-215q0 22 3 104.5t3 106.5l211 -2q26 0 57.5 11.5t64.5 34t55 65.5t22 98q0 40 -8 72
t-28.5 62.5t-62.5 47.5t-104 17q-165 0 -352 -156l-50 217q190 170 402 170q54 0 110.5 -12.5t118.5 -44.5t109.5 -79.5t78.5 -126t31 -175.5q0 -48 -12.5 -91.5t-39.5 -83t-43 -59t-48 -53.5q145 -136 145 -317z" />
    <glyph glyph-name="four" unicode="4" horiz-adv-x="1017" 
d="M954 346h-137v-346h-225v346h-520v162l592 950l153 -2v-903h137v-207zM592 553v426l-250 -426h250z" />
    <glyph glyph-name="five" unicode="5" horiz-adv-x="1017" 
d="M952 475q0 -110 -32 -198.5t-80.5 -141.5t-111.5 -88.5t-120.5 -49t-111.5 -13.5q-215 0 -433 188l74 205q195 -162 359 -162q121 0 173 64.5t52 181.5q0 123 -42.5 192.5t-148.5 69.5q-199 0 -262 -121l-176 64l49 784h764v-229h-561l-31 -369q74 82 224 82
q58 0 111.5 -11.5t110.5 -43t98.5 -80.5t68 -132.5t26.5 -191.5z" />
    <glyph glyph-name="six" unicode="6" horiz-adv-x="1067" 
d="M1006 467q0 -101 -31.5 -185t-81.5 -138t-113.5 -92t-125.5 -54t-119 -16q-98 0 -185.5 49.5t-155 141.5t-106.5 236.5t-39 321.5q0 173 43.5 315.5t117 233t166 139.5t193.5 49q114 0 211 -38.5t158 -110.5l-72 -186q-117 112 -286 112q-103 0 -182.5 -96.5
t-121.5 -278.5q-7 -30 -8 -82t-2 -59q120 213 326 213q84 0 158 -31.5t131.5 -89.5t91 -149.5t33.5 -204.5zM803 485q0 108 -69.5 176.5t-143.5 61.5q-50 -5 -103.5 -27.5t-111.5 -79t-84 -135.5q19 -118 90.5 -194t146.5 -76q55 0 101.5 14t87 44t63.5 85.5t23 130.5z" />
    <glyph glyph-name="seven" unicode="7" horiz-adv-x="966" 
d="M907 1241l-553 -1241h-256l533 1225h-553v231h823z" />
    <glyph glyph-name="eight" unicode="8" horiz-adv-x="987" 
d="M936 399q0 -97 -35.5 -176t-95 -129.5t-136 -78t-161.5 -27.5q-94 0 -177 26.5t-146.5 75.5t-100.5 126.5t-37 172.5q0 128 39.5 225.5t101.5 141.5q-62 46 -98.5 126t-36.5 185q0 197 115.5 300t318.5 103q202 0 319.5 -105t117.5 -300q0 -202 -140 -301
q68 -53 110 -149.5t42 -215.5zM686 403q0 94 -68.5 169.5t-168.5 84.5q-61 -8 -103.5 -47t-61 -94.5t-18.5 -124.5q0 -87 51 -139.5t156 -52.5t159 57t54 147zM707 1067q0 90 -53.5 145.5t-159.5 55.5q-108 0 -160.5 -52t-52.5 -143q0 -80 68 -139.5t175 -83.5
q99 31 141 80.5t42 136.5z" />
    <glyph glyph-name="nine" unicode="9" horiz-adv-x="1060" 
d="M1006 721q0 -174 -42.5 -316.5t-115 -233.5t-165.5 -140t-196 -49q-232 0 -362 149l61 188q68 -65 129 -89.5t177 -24.5q119 0 199.5 139.5t94.5 366.5q-121 -230 -331 -230q-170 0 -288 134t-118 356q0 104 27.5 189.5t73.5 141.5t108 94.5t127.5 55t134.5 16.5
q223 0 354.5 -199.5t131.5 -547.5zM764 963q-22 121 -94.5 204.5t-143.5 83.5q-268 0 -268 -290q0 -120 67.5 -193.5t143.5 -73.5q83 0 174 73.5t121 195.5z" />
    <glyph glyph-name="colon" unicode=":" horiz-adv-x="395" 
d="M301 139q0 -67 -36.5 -112t-88.5 -45q-50 0 -86.5 45t-36.5 112q0 65 36.5 110.5t86.5 45.5q51 0 88 -45.5t37 -110.5zM301 891q0 -67 -36.5 -111.5t-88.5 -44.5q-50 0 -86.5 45t-36.5 111q0 65 36.5 111.5t86.5 46.5q51 0 88 -46t37 -112z" />
    <glyph glyph-name="semicolon" unicode=";" horiz-adv-x="374" 
d="M297 94q0 -109 -66 -224.5t-151 -170.5l-45 123q24 31 58 90t46 98q-1 0 -3 1t-3 1q-43 1 -64.5 40.5t-21.5 94.5q0 61 39.5 99.5t83.5 38.5q55 0 91 -54.5t36 -136.5zM299 889q0 -66 -36 -112t-87 -46q-50 0 -86.5 46.5t-36.5 111.5q0 67 36.5 112.5t86.5 45.5
q51 0 87 -45.5t36 -112.5z" />
    <glyph glyph-name="less" unicode="&#x3c;" horiz-adv-x="942" 
d="M846 -53l-805 592v190l805 569v-260l-518 -407l518 -422v-262z" />
    <glyph glyph-name="equal" unicode="=" horiz-adv-x="667" 
d="M614 786h-563v199h563v-199zM614 322h-563v198h563v-198z" />
    <glyph glyph-name="greater" unicode="&#x3e;" horiz-adv-x="980" 
d="M874 559l-802 -592v262l518 422q-55 43 -236.5 187t-281.5 221v260l802 -569v-191z" />
    <glyph glyph-name="question" unicode="?" horiz-adv-x="862" 
d="M819 1061q0 -148 -64 -230.5t-216 -142.5q-77 -36 -100 -57q-43 -37 -44 -99q1 -11 2 -39.5t4 -51t9 -38.5h-189q-16 55 -16 125q0 129 54.5 201.5t182.5 128.5q28 13 41.5 20t36.5 20.5t34.5 27t24 32.5t18 43t5.5 54q0 60 -23 103t-59 63t-67.5 28t-61.5 8
q-86 0 -146 -39t-151 -139l-80 187q90 102 180 149t195 47q53 0 106.5 -10t113.5 -38t105 -70.5t75 -116t30 -166.5zM451 129q0 -62 -36.5 -103.5t-82.5 -41.5t-82.5 42t-36.5 103t36.5 103t82.5 42t82.5 -42t36.5 -103z" />
    <glyph glyph-name="at" unicode="@" horiz-adv-x="1212" 
d="M1135 682q0 -152 -41 -281t-112 -204.5t-155 -75.5q-54 0 -103.5 47.5t-76.5 118.5q-33 -52 -77.5 -86.5t-82.5 -34.5q-81 0 -136.5 61.5t-77 154.5t-15.5 204q0 5 1 15t1 15q6 112 45.5 209.5t112.5 161.5t166 64q39 0 73 -39.5t60 -100.5q1 16 7 47t7 35l174 -10
l-57 -213q-5 -25 -19 -87t-22 -100.5t-15.5 -83t-7.5 -67.5q0 -60 21 -97.5t47 -37.5q54 0 99.5 110t45.5 273q0 124 -31 226.5t-84 168.5t-121.5 101.5t-144.5 35.5q-88 0 -167 -35t-142.5 -103.5t-101 -181.5t-37.5 -257q0 -182 57.5 -329t160 -231.5t230.5 -84.5
q86 0 166 53l33 -149q-101 -58 -199 -58q-126 0 -234 57.5t-184.5 160.5t-119.5 252t-43 327q0 151 32 274.5t86.5 207.5t129 141.5t158 83.5t175.5 26q103 0 196.5 -48t165.5 -134.5t114.5 -216.5t42.5 -285zM670 692q-11 96 -38.5 146.5t-58.5 50.5q-30 0 -63.5 -48.5
t-57.5 -131.5t-24 -170q0 -95 22.5 -139t53.5 -44t72 34.5t61 90.5h2q3 20 12.5 86.5t14.5 96.5z" />
    <glyph glyph-name="A" unicode="A" horiz-adv-x="1138" 
d="M1090 0h-244l-74 307h-434l-82 -307h-238l445 1456h201zM690 532l-133 566l-135 -566h268z" />
    <glyph glyph-name="B" unicode="B" horiz-adv-x="989" 
d="M897 403q0 -97 -27.5 -175.5t-75 -127t-108 -74.5t-129.5 -26h-496v1450h480q161 0 252.5 -109t91.5 -297q0 -205 -117 -307v-4q55 -41 92 -132t37 -198zM676 1028q0 92 -43 147.5t-121 55.5h-215v-402h203q79 0 127.5 55.5t48.5 143.5zM672 412q0 89 -43.5 146.5
t-118.5 57.5h-213v-397h203q79 0 125.5 52.5t46.5 140.5z" />
    <glyph glyph-name="C" unicode="C" horiz-adv-x="1060" 
d="M1006 231q-32 -38 -59 -67t-71.5 -66.5t-88.5 -62t-104.5 -41.5t-123.5 -17q-103 0 -194.5 49t-162.5 141t-113 237t-42 325q0 166 44.5 309.5t117 237.5t163 147.5t183.5 53.5q263 0 438 -226l-104 -213q-41 49 -74 82t-73 62t-85 43t-96 14q-116 0 -196 -142t-80 -372
q0 -232 80.5 -374t195.5 -142q41 0 80.5 12.5t69.5 30t65.5 50t59 57.5t59.5 67z" />
    <glyph glyph-name="D" unicode="D" horiz-adv-x="1101" 
d="M1032 723q0 -333 -147.5 -528t-395.5 -195h-401v1450h444q228 0 364 -200t136 -527zM809 719q0 247 -78.5 378.5t-255.5 131.5h-145v-1006h141q157 0 247.5 134t90.5 362z" />
    <glyph glyph-name="E" unicode="E" horiz-adv-x="952" 
d="M858 0h-784l4 1450h764v-225h-523q0 -65 -1 -195t-1 -194h443v-222h-441v-385h539v-229z" />
    <glyph glyph-name="F" unicode="F" horiz-adv-x="882" 
d="M817 1225h-506v-418h410v-229h-410q0 -72 -1 -288.5t-1 -289.5h-239v1450h747v-225z" />
    <glyph glyph-name="G" unicode="G" horiz-adv-x="1144" 
d="M1042 811v-594q-29 -40 -71.5 -79t-102 -76t-139 -59.5t-164.5 -22.5q-94 0 -185.5 50t-166.5 141t-121.5 237.5t-46.5 322.5q0 141 31 263t83 209t119.5 149.5t140.5 92.5t146 30q135 0 242 -45q67 -30 141 -88.5t101 -100.5l-109 -184q-89 94 -175.5 138t-199.5 44
q-129 0 -211 -138t-82 -364q0 -234 83.5 -375t209.5 -141q68 0 138.5 35.5t121.5 91.5v244h-299v219h516z" />
    <glyph glyph-name="H" unicode="H" horiz-adv-x="1052" 
d="M950 0h-243v592h-385v-592h-244v1450h244v-621h385v621h243v-1450z" />
    <glyph glyph-name="I" unicode="I" horiz-adv-x="448" 
d="M336 0h-244v1450h244v-1450z" />
    <glyph glyph-name="J" unicode="J" horiz-adv-x="471" 
d="M383 117q0 -123 -47 -234.5t-128.5 -183t-176.5 -80.5q-39 -5 -84 4q-43 9 -88 35l41 205q66 -25 114 -2q125 30 125 307v1282h244v-1333z" />
    <glyph glyph-name="K" unicode="K" horiz-adv-x="1009" 
d="M967 0h-267l-276 686l-107 -201v-485h-243l2 1450h241v-635l381 635h248v-31l-362 -545q43 -94 121.5 -264.5t142.5 -311.5t119 -265v-33z" />
    <glyph glyph-name="L" unicode="L" horiz-adv-x="956" 
d="M883 0h-811v1450h241v-1212h570v-238z" />
    <glyph glyph-name="M" unicode="M" horiz-adv-x="1411" 
d="M1358 0h-228l-49 891l-325 -877h-129l-310 889l-38 -903h-230l78 1450h186l377 -1030l408 1030h180z" />
    <glyph glyph-name="N" unicode="N" horiz-adv-x="1083" 
d="M981 0h-143l-525 891q0 -161 -1 -446.5t-1 -444.5h-233v1450h155l517 -862v862h231v-1450z" />
    <glyph glyph-name="O" unicode="O" horiz-adv-x="1200" 
d="M1141 721q0 -174 -43 -318t-117.5 -238.5t-173.5 -146t-211 -51.5t-210.5 52t-173 147.5t-118 240t-43.5 318.5q0 355 153 557.5t392 202.5q111 0 210.5 -53.5t173.5 -150.5t117.5 -242t43.5 -318zM911 721q0 150 -31.5 265t-104.5 187t-179 72q-83 0 -145 -40.5
t-98.5 -113t-54 -165t-17.5 -205.5q0 -147 31 -259.5t104 -183.5t180 -71q108 0 180 70t103.5 182.5t31.5 261.5z" />
    <glyph glyph-name="P" unicode="P" horiz-adv-x="978" 
d="M903 958q0 -224 -112.5 -354.5t-270.5 -130.5h-205v-473h-243l2 1450h452q169 0 273 -126t104 -366zM670 954q0 122 -42.5 186t-119.5 64h-193v-499h181q78 0 126 68.5t48 180.5z" />
    <glyph glyph-name="Q" unicode="Q" horiz-adv-x="1218" 
d="M1141 721q0 -291 -113 -484t-295 -249q43 -93 150 -158.5t188 -67.5l-63 -231q-187 27 -320.5 147.5t-185.5 298.5q-198 40 -324.5 239t-126.5 509q0 355 153 557.5t392 202.5q111 0 210.5 -53.5t173.5 -150.5t117.5 -242t43.5 -318zM911 721q0 150 -31.5 265t-104.5 187
t-179 72q-83 0 -145 -40.5t-98.5 -113t-54 -165t-17.5 -205.5q0 -147 31 -259.5t104 -183.5t180 -71q108 0 180 70t103.5 182.5t31.5 261.5z" />
    <glyph glyph-name="R" unicode="R" horiz-adv-x="1015" 
d="M940 0h-242l-313 578h-74v-578h-237q0 242 -1 725t-1 725h495q162 0 256.5 -114.5t94.5 -313.5q0 -161 -83.5 -282.5t-193.5 -145.5l299 -563v-31zM684 1020q0 93 -39 148t-115 55h-219v-412h217q75 0 115.5 59t40.5 150z" />
    <glyph glyph-name="S" unicode="S" horiz-adv-x="983" 
d="M915 432q0 -105 -30.5 -187.5t-76.5 -131.5t-107.5 -81t-117.5 -43.5t-112 -11.5q-111 0 -199 43t-217 148l76 213q126 -91 198.5 -130.5t127.5 -39.5q42 0 82 12.5t75 37.5t56.5 69.5t21.5 101.5q0 38 -13 68t-31 48t-47 33t-49.5 21.5t-50.5 15t-40 11.5q-47 10 -79 18
t-78.5 25t-78.5 36t-67.5 50.5t-57 69.5t-35.5 92.5t-14 119.5q0 101 30 180t75 126t104.5 78t113 42t105.5 11q204 0 418 -193l-72 -197q-187 158 -346 158q-207 0 -207 -196q0 -110 148 -160q21 -5 64.5 -12.5t77.5 -13.5t80.5 -20t82.5 -32.5t73 -52t61.5 -76.5t40 -107
t15.5 -143z" />
    <glyph glyph-name="T" unicode="T" horiz-adv-x="1017" 
d="M983 1223h-352v-1223h-246v1223h-352v227h950v-227z" />
    <glyph glyph-name="U" unicode="U" horiz-adv-x="1120" 
d="M1034 690q0 -356 -116 -532t-361 -176q-488 0 -485 694q0 121 1 387t1 387h235l2 -717q0 -265 59.5 -385.5t186.5 -120.5q238 0 238 512v711h239v-760z" />
    <glyph glyph-name="V" unicode="V" horiz-adv-x="1146" 
d="M1083 1415l-411 -1419h-211l-428 1419v35h237l295 -1098l285 1098h233v-35z" />
    <glyph glyph-name="W" unicode="W" horiz-adv-x="1523" 
d="M369 -2l-328 1415v37h248l182 -981l178 977h230l213 -977l163 981h222v-37l-316 -1415h-170l-227 1032l-209 -1032h-186z" />
    <glyph glyph-name="X" unicode="X" horiz-adv-x="1064" 
d="M987 0h-244l-237 528l-246 -528h-225v33l340 688l-340 692v37h244l235 -518l229 518h230v-37l-332 -678l346 -700v-35z" />
    <glyph glyph-name="Y" unicode="Y" horiz-adv-x="1034" 
d="M995 1413l-354 -864v-549h-246v561q-252 603 -354 852v37h238l256 -662l239 662h221v-37z" />
    <glyph glyph-name="Z" unicode="Z" horiz-adv-x="974" 
d="M911 1286l-534 -1063h514v-223h-840l2 162l541 1067h-528v221h845v-164z" />
    <glyph glyph-name="bracketleft" unicode="[" horiz-adv-x="524" 
d="M449 -135h-377l-2 1716h362v-197h-129q0 -234 -1 -661t-1 -662h148v-196z" />
    <glyph glyph-name="backslash" unicode="\" horiz-adv-x="722" 
d="M723 0h-178l-545 1450h176z" />
    <glyph glyph-name="bracketright" unicode="]" horiz-adv-x="526" 
d="M459 -135h-379v196h147v1323h-131v197h363v-1716z" />
    <glyph glyph-name="asciicircum" unicode="^" horiz-adv-x="825" 
d="M752 965h-207l-144 301l-145 -301h-209l289 555h135z" />
    <glyph glyph-name="underscore" unicode="_" horiz-adv-x="518" 
d="M555 -295h-567v148h567v-148z" />
    <glyph glyph-name="grave" unicode="`" horiz-adv-x="688" 
d="M563 1116h-190l-301 309l6 25h246z" />
    <glyph glyph-name="a" unicode="a" horiz-adv-x="913" 
d="M860 8q0 -9 -76 -16q-56 0 -109 21.5t-81 72.5q-45 -56 -92 -78t-109 -22q-48 0 -95.5 13t-92 41t-79 68t-55 98.5t-20.5 127.5q0 73 20 132.5t53 99.5t78 67.5t94 40t101 12.5q36 0 82 -10t76 -25q0 -2 8 -2q0 113 -43.5 168t-116.5 55q-52 0 -121.5 -31.5t-129.5 -78.5
l-29 174q37 40 128.5 78.5t160.5 38.5q67 0 132 -26t119 -73.5t87.5 -123t33.5 -166.5v-388q0 -51 6 -70.5t23 -27.5q19 -6 47 8v-178zM563 227v256q-93 33 -149 33q-71 0 -107.5 -49t-36.5 -125q0 -75 33.5 -122.5t97.5 -47.5q110 0 162 55z" />
    <glyph glyph-name="b" unicode="b" horiz-adv-x="892" 
d="M842 537q0 -253 -103.5 -403t-249.5 -150q-42 0 -97 29t-97 71v-84h-225v1516h225v-537q38 35 89.5 55.5t96.5 20.5q152 0 256.5 -138.5t104.5 -379.5zM618 526q0 143 -39.5 225.5t-115.5 82.5q-45 0 -92.5 -31t-75.5 -76v-397h-2q33 -48 81 -83.5t89 -35.5q75 0 115 87
t40 228z" />
    <glyph glyph-name="c" unicode="c" horiz-adv-x="847" 
d="M776 911l-51 -194q-117 117 -268 117q-83 0 -134 -90.5t-51 -231.5q0 -130 51.5 -214.5t133.5 -84.5q70 0 128.5 25t121.5 79l59 -190q-140 -147 -309 -147q-84 0 -158 34.5t-131.5 99.5t-91 167t-33.5 229q0 133 33.5 238.5t91 171t131.5 99.5t158 34q171 0 319 -142z
" />
    <glyph glyph-name="d" unicode="d" horiz-adv-x="913" 
d="M838 0h-220v84q-36 -44 -82 -72t-90 -28q-74 0 -143 34t-125.5 97.5t-90.5 165t-34 225.5q0 136 31.5 243t85.5 173t123 100.5t147 34.5q85 0 174 -86v545h224v-1516zM614 326v405q-29 47 -71 77t-84 30q-77 0 -130 -92t-53 -232q0 -132 53 -218.5t130 -86.5q43 0 84 33
t71 84z" />
    <glyph glyph-name="e" unicode="e" 
d="M817 455h-553q14 -107 68 -184.5t119 -77.5q148 0 249 96l66 -174q-56 -57 -143 -95t-181 -38q-173 0 -288 139.5t-115 388.5q0 262 110.5 402.5t286.5 140.5q182 0 282 -155.5t99 -442.5zM436 862q-58 0 -106 -65.5t-58 -169.5h328q-3 42 -11.5 79.5t-25.5 74.5t-50 59
t-77 22z" />
    <glyph glyph-name="f" unicode="f" horiz-adv-x="555" 
d="M545 1495l-25 -217q-57 31 -98 31t-63.5 -39t-22.5 -135v-103h180v-192h-180v-840h-221v840h-95v192h95v146q0 64 19.5 125.5t56.5 113.5t97 83.5t134 31.5q60 0 123 -37z" />
    <glyph glyph-name="g" unicode="g" horiz-adv-x="899" 
d="M819 1032v-991q0 -96 -24.5 -175.5t-64.5 -131.5t-92 -88t-106 -52t-108 -16q-78 0 -154 36t-127 85l43 174q47 -39 109 -66.5t108 -27.5q62 0 126.5 68.5t64.5 179.5v61q-33 -44 -78 -70t-90 -26q-73 0 -140.5 35t-121 98.5t-85.5 162.5t-32 218q0 125 33.5 231t87 173
t116.5 104t124 37q45 0 100.5 -30t85.5 -73v84h225zM594 719q-11 7 -40.5 36t-58.5 48.5t-55 19.5q-77 0 -122.5 -85t-45.5 -222t46 -224t122 -87q44 0 84.5 32.5t69.5 84.5v397z" />
    <glyph glyph-name="h" unicode="h" horiz-adv-x="856" 
d="M780 0h-223v616q0 46 -5 81t-18.5 65.5t-39.5 46.5t-64 16q-80 0 -139 -147v-678h-223v1516h223v-607q91 140 190 140q134 0 216.5 -105t82.5 -293v-651z" />
    <glyph glyph-name="i" unicode="i" horiz-adv-x="393" 
d="M305 0h-219v1032h219v-1032zM309 1346q0 -55 -34 -92t-78 -37q-43 0 -77 37t-34 92q0 54 33.5 92.5t77.5 38.5t78 -38.5t34 -92.5z" />
    <glyph glyph-name="j" unicode="j" horiz-adv-x="391" 
d="M311 1032v-1050q0 -96 -30.5 -183t-95.5 -148t-152 -67q-53 -3 -131 21l22 223q52 -11 76 -8q28 2 46.5 18t27 44.5t11.5 56.5t3 67v1026h223zM311 1346q0 -56 -34 -94t-78 -38q-43 0 -76 38.5t-33 93.5t32.5 93t76.5 38t78 -38.5t34 -92.5z" />
    <glyph glyph-name="k" unicode="k" horiz-adv-x="813" 
d="M778 0h-229l-207 465l-53 -74v-391h-221q0 252 -1 757.5t-1 758.5h223v-844l241 360h238l-2 -31l-266 -346q36 -82 132.5 -298.5t145.5 -329.5v-27z" />
    <glyph glyph-name="l" unicode="l" horiz-adv-x="450" 
d="M338 0h-223v1516h223v-1516z" />
    <glyph glyph-name="m" unicode="m" horiz-adv-x="1331" 
d="M1243 0h-219v555q0 139 -18.5 211t-75.5 72q-62 0 -146 -136q0 -15 -1 -48.5t-1 -51.5v-602h-221v618q0 116 -19 168t-75 52q-71 0 -174 -154v-684h-221v1032h221v-119q90 138 192 138q78 0 142.5 -44t103.5 -128q47 70 105.5 121t113.5 51q133 0 213 -103.5t80 -294.5
v-653z" />
    <glyph glyph-name="n" unicode="n" horiz-adv-x="886" 
d="M805 0h-223v618q0 117 -18.5 168.5t-74.5 51.5q-40 0 -86.5 -45.5t-87.5 -112.5v-680h-225v1032h225v-121q90 140 191 140q136 0 217.5 -102.5t81.5 -295.5v-653z" />
    <glyph glyph-name="o" unicode="o" horiz-adv-x="921" 
d="M850 512q0 -133 -32 -236.5t-87.5 -167t-127 -96t-154.5 -32.5q-80 0 -151.5 34t-128.5 98.5t-90.5 168t-33.5 231.5q0 132 33.5 237.5t90.5 170.5t128.5 99t151.5 34t151.5 -35t127.5 -101t89 -171t33 -234zM633 514q0 134 -49.5 224.5t-134.5 90.5t-135 -90t-50 -225
q0 -130 50 -218.5t135 -88.5t134.5 88t49.5 219z" />
    <glyph glyph-name="p" unicode="p" horiz-adv-x="894" 
d="M850 528q0 -260 -105 -403t-266 -143q-44 0 -96 27t-92 71v-490h-225v1442h225v-74q33 39 82.5 66t91.5 27q78 0 147 -34.5t122.5 -99t84.5 -165t31 -224.5zM627 516q0 144 -51.5 226.5t-131.5 82.5q-42 0 -83.5 -28.5t-69.5 -73.5v-395q28 -48 77 -84.5t89 -36.5
q78 0 124 85t46 224z" />
    <glyph glyph-name="q" unicode="q" horiz-adv-x="892" 
d="M819 -410h-225v478q-81 -84 -168 -84q-73 0 -140.5 34t-120.5 97t-84.5 162t-31.5 219q0 253 113 404t270 151q44 0 90.5 -30t81.5 -77v88h215v-1442zM594 326v391q-29 48 -71 79t-83 31q-77 0 -122.5 -90.5t-45.5 -232.5q0 -138 45 -218.5t123 -80.5q42 0 83 34t71 87z
" />
    <glyph glyph-name="r" unicode="r" horiz-adv-x="630" 
d="M567 1026l-4 -272h-33q-1 1 -5.5 6.5t-7.5 8.5t-8.5 9.5t-10 10t-10.5 8.5t-11.5 7.5t-11.5 4t-12 0.5q-94 -22 -160 -180v-629h-225v1032h225v-137q30 63 77.5 109.5t100.5 46.5q68 0 96 -25z" />
    <glyph glyph-name="s" unicode="s" horiz-adv-x="776" 
d="M721 309q0 -82 -24 -143.5t-59.5 -95t-84.5 -54t-89 -26.5t-83 -6q-90 0 -163.5 35.5t-172.5 115.5l61 176q134 -137 275 -137q46 0 87.5 30.5t41.5 94.5q0 30 -15.5 52.5t-38 33.5t-40.5 16t-29 5q-34 0 -64.5 3.5t-73 12.5t-76.5 30t-65 52.5t-48 83t-17 117.5
q0 84 23 148t57.5 100.5t82.5 59.5t90.5 30.5t88.5 7.5q102 0 169.5 -32.5t135.5 -109.5l-63 -172q-59 65 -115 95t-127 30q-15 0 -36 -6.5t-46.5 -21t-43 -43.5t-17.5 -68q0 -28 18.5 -49t45 -30.5t47.5 -14t34 -4.5q27 0 53.5 -2.5t61 -11.5t64 -22.5t59 -38t50 -56.5
t33.5 -79.5t13 -105.5z" />
    <glyph glyph-name="t" unicode="t" horiz-adv-x="708" 
d="M594 324l61 -195q-44 -58 -115 -95.5t-126 -37.5q-90 0 -168 78q-47 48 -79 136t-32 173v457h-104v192h104v211l223 121v-332h250v-192h-250v-422q0 -101 31 -152q21 -35 57 -35q18 0 65.5 26t82.5 67z" />
    <glyph glyph-name="u" unicode="u" 
d="M780 0h-215v119q-100 -135 -192 -135q-127 0 -216 108.5t-89 261.5v678h221v-645q0 -40 4 -70.5t13.5 -57t29 -40.5t47.5 -14q73 0 174 149v678h223v-1032z" />
    <glyph glyph-name="v" unicode="v" horiz-adv-x="899" 
d="M844 1032l-2 -33l-312 -1001h-184l-297 1001v33h215l180 -686l183 686h217z" />
    <glyph glyph-name="w" unicode="w" horiz-adv-x="1288" 
d="M1245 1032v-33l-254 -1001h-168l-174 692l-168 -692h-164l-270 1001v33h207l147 -645l162 643h168l168 -659l141 661h205z" />
    <glyph glyph-name="x" unicode="x" horiz-adv-x="870" 
d="M817 1032v-41l-266 -471l266 -481v-39h-221l-174 344l-170 -344h-213v37l266 473l-266 479v43h227l170 -346l170 346h211z" />
    <glyph glyph-name="y" unicode="y" horiz-adv-x="894" 
d="M860 1032v-51l-350 -1202q-23 -73 -71.5 -118.5t-98 -60t-107.5 -14.5q-8 0 -143 6v218l141 -9q46 0 68.5 26t36.5 87l29 154q-61 157 -175 474t-161 443v47h229l213 -674l162 674h227z" />
    <glyph glyph-name="z" unicode="z" horiz-adv-x="817" 
d="M745 926l-385 -715h385v-211h-692v94l404 727h-404v211h692v-106z" />
    <glyph glyph-name="braceleft" unicode="{" horiz-adv-x="548" 
d="M516 -84q-84 -63 -178 -72q-213 0 -213 336q0 46 8 139t8 140q5 70 -26 123.5t-92 70.5v131q1 0 14.5 2.5t17 3.5t16.5 5t18 9t15 12.5t14.5 18.5t10 25t8 33.5t2.5 42.5q0 55 -7 164.5t-7 165.5q0 159 49.5 244t165.5 85q88 0 170 -51l-14 -125q-59 17 -88 17
q-39 4 -50.5 -27t-11.5 -115q0 -54 8 -166t8 -170q0 -67 -22.5 -134t-56.5 -107q77 -69 77 -260q0 -49 -5 -147t-5 -146q0 -53 18.5 -100.5t49.5 -47.5q34 0 80 15z" />
    <glyph glyph-name="bar" unicode="|" horiz-adv-x="348" 
d="M272 -96h-194v1648h194v-1648z" />
    <glyph glyph-name="braceright" unicode="}" horiz-adv-x="548" 
d="M518 784v-131q-58 -10 -90 -76.5t-27 -142.5q0 -43 6.5 -127.5t6.5 -126.5q0 -336 -213 -336q-87 0 -178 66l22 121q56 -22 86 -8q21 4 34 14.5t18 32t6 39t1 55.5q0 43 -4 138t-4 155q0 187 76 260q-37 39 -58.5 105.5t-21.5 135.5q0 58 7.5 170t7.5 166q0 86 -11 116
t-51 26q-25 0 -88 -17l-16 125q82 51 174 51q116 0 165.5 -85.5t49.5 -243.5q0 -57 -7.5 -166t-7.5 -164q0 -48 11 -80t32 -46t36.5 -19t37.5 -7z" />
    <glyph glyph-name="asciitilde" unicode="~" horiz-adv-x="854" 
d="M647 1450h137q4 -52 -8.5 -108t-39 -106.5t-74 -83t-105.5 -32.5q-35 0 -77 17.5t-73 39t-63 39t-51 17.5q-92 0 -100 -109h-138q-2 50 8.5 105.5t33 109t65.5 88.5t100 35q31 0 71 -19t72 -41.5t69 -41.5t61 -19q96 0 112 109z" />
    <glyph glyph-name="uni00A0" unicode="&#xa0;" horiz-adv-x="534" 
 />
    <glyph glyph-name="exclamdown" unicode="&#xa1;" horiz-adv-x="350" 
d="M303 -111h-254l35 1022h186zM301 1210q0 -61 -36 -102t-85 -41q-52 0 -87.5 40.5t-35.5 102.5q0 65 35.5 105.5t87.5 40.5q49 0 85 -41t36 -105z" />
    <glyph glyph-name="cent" unicode="&#xa2;" horiz-adv-x="718" 
d="M666 1040l-84 -149q-30 34 -42 47.5t-33 31t-38 25.5q-3 -39 -12.5 -107.5t-12.5 -90.5l-51 -351q52 -3 93 28.5t98 100.5l102 -120q-126 -187 -317 -187q-7 0 -13 2q-8 -45 -20 -135l-19 -139l-118 8l45 299q-87 48 -142 157.5t-55 274.5q0 211 96.5 338t225.5 127h26
l35 227l121 -8l-43 -245q83 -37 158 -134zM354 1020q-60 -3 -97.5 -80t-37.5 -209q0 -166 64 -244z" />
    <glyph glyph-name="sterling" unicode="&#xa3;" horiz-adv-x="1054" 
d="M965 0h-836v590h-115v221h115q-2 175 27.5 303.5t86.5 204.5t132.5 112.5t171.5 36.5q118 0 206.5 -68t137.5 -202l-156 -137q-35 96 -78.5 138t-105.5 42q-41 0 -70.5 -17t-55.5 -61.5t-39 -132.5t-13 -219h192v-221h-194v-365h594v-225z" />
    <glyph glyph-name="currency" unicode="&#xa4;" horiz-adv-x="1146" 
d="M926 49l-158 203q-90 -72 -209 -72q-99 0 -188 58l-160 -205l-113 114l150 195q-66 142 -66 309q0 162 51 283l-145 194q73 79 121 134l151 -197q88 61 199 61q126 0 229 -98l154 203q27 -30 109 -117l-162 -209q41 -115 41 -254q0 -143 -41 -264l158 -207zM741 651
q0 123 -50 206t-134 83q-85 0 -135.5 -82.5t-50.5 -206.5q0 -118 50.5 -199t135.5 -81q84 0 134 80t50 200z" />
    <glyph glyph-name="yen" unicode="&#xa5;" horiz-adv-x="999" 
d="M991 1450l-293 -727h133v-176h-217l2 -45v-66h215v-174h-215v-262h-239v262h-211v174h211v76l-2 35h-209v176h135l-278 727h227l256 -721q212 582 264 721h221z" />
    <glyph glyph-name="brokenbar" unicode="&#xa6;" horiz-adv-x="313" 
d="M233 813h-153v719h153v-719zM233 -94h-153v727h153v-727z" />
    <glyph glyph-name="section" unicode="&#xa7;" horiz-adv-x="888" 
d="M786 1364l-53 -166q-105 74 -207 84q-18 3 -61 0t-85.5 -19.5t-76 -54t-33.5 -86.5q0 -53 101 -75q27 -5 102.5 -1.5t106.5 1.5q30 -3 58.5 -10t66.5 -26.5t65 -48.5t46.5 -81t19.5 -119q0 -141 -82 -230q51 -66 51 -198q0 -70 -22.5 -127.5t-58 -94t-83.5 -63.5t-93 -40
t-93 -19q-75 -9 -119 -6q-102 13 -254 108l53 178q53 -29 83 -44t74.5 -30t82.5 -18q19 -6 55 0q30 3 58.5 12t56 25t44.5 43.5t17 63.5q0 56 -65 79q-59 12 -117 9q-59 -3 -111 10q-26 6 -41.5 9.5t-47 14.5t-52.5 22.5t-48 32t-42.5 44.5t-27 59t-11.5 76q0 149 86 246
q-53 59 -53 184q0 78 28.5 142t71.5 103t99.5 67t105.5 40t96 15h60q124 -10 249 -111zM641 752q-33 76 -147 96h-31q-32 0 -68.5 -9t-73 -26.5t-60 -49.5t-23.5 -73q0 -16 11.5 -29.5t28 -22t38.5 -16t39 -11t33.5 -6.5t17.5 -3h28q31 3 63.5 11.5t66.5 25.5t55.5 46.5
t21.5 66.5z" />
    <glyph glyph-name="dieresis" unicode="&#xa8;" horiz-adv-x="1036" 
d="M784 1317q0 -50 -29 -84.5t-69 -34.5t-69 34.5t-29 84.5q0 52 28 86.5t70 34.5q40 0 69 -34.5t29 -86.5zM444 1317q0 -50 -29 -84.5t-69 -34.5q-42 0 -71 34t-29 85q0 52 29 86.5t71 34.5q40 0 69 -34.5t29 -86.5z" />
    <glyph glyph-name="copyright" unicode="&#xa9;" horiz-adv-x="1253" 
d="M1171 743q0 -206 -75 -381t-203 -276.5t-277 -101.5q-148 0 -274.5 101t-201 276t-74.5 382q0 154 44 294t118 241t175.5 161t212.5 60q149 0 277 -101t203 -275.5t75 -379.5zM1075 743q0 170 -60.5 315t-166.5 230.5t-232 85.5t-231.5 -85.5t-166 -230.5t-60.5 -315
t60.5 -315t166.5 -231t231 -86q126 0 232 86t166.5 231t60.5 315zM864 1044l-59 -118q-44 58 -89.5 88t-105.5 30q-67 0 -113 -83t-46 -224q0 -136 46 -219.5t113 -83.5q100 0 199 123l65 -106q0 -51 -89.5 -104.5t-176.5 -53.5q-51 0 -100.5 30t-91 84t-67 141t-25.5 191
q0 202 84.5 325.5t199.5 123.5q69 0 137 -35.5t119 -108.5z" />
    <glyph glyph-name="ordfeminine" unicode="&#xaa;" horiz-adv-x="780" 
d="M512 711v53q-61 -58 -135 -64q-27 0 -41 2q-91 8 -158.5 83.5t-91.5 215.5q-10 49 -10 115q0 162 86.5 251t208.5 89q71 0 147 -59l168 59v-745h-174zM512 979v235q-49 52 -125 52q-65 0 -101 -49t-36 -146q0 -86 36 -133t101 -47q81 0 125 88z" />
    <glyph glyph-name="guillemotleft" unicode="&#xab;" horiz-adv-x="1112" 
d="M526 16l-479 412v174l479 412v-246l-260 -256l260 -250v-246zM1049 16l-480 412v174l480 412v-246l-263 -256l263 -250v-246z" />
    <glyph glyph-name="logicalnot" unicode="&#xac;" horiz-adv-x="948" 
d="M70 932h784l2 -674h-201v465h-585v209z" />
    <glyph glyph-name="registered" unicode="&#xae;" horiz-adv-x="1253" 
d="M1171 743q0 -206 -75 -381t-203 -276.5t-277 -101.5q-148 0 -274.5 101t-201 276t-74.5 382q0 154 44 294t118 241t175.5 161t212.5 60q149 0 277 -101t203 -275.5t75 -379.5zM1075 743q0 170 -60.5 315t-166.5 230.5t-232 85.5t-231.5 -85.5t-166 -230.5t-60.5 -315
t60.5 -315t166.5 -231t231 -86q126 0 232 86t166.5 231t60.5 315zM891 358v-24q-41 4 -125 4q-17 43 -45 99t-67.5 129.5t-53.5 101.5h-51v-326h-137v848h262q95 0 147.5 -64.5t52.5 -187.5q0 -94 -38 -167t-101 -93zM758 934q0 117 -82 117h-127v-246h121q41 0 64.5 38
t23.5 91z" />
    <glyph glyph-name="macron" unicode="&#xaf;" horiz-adv-x="749" 
d="M670 1251h-615v158h615v-158z" />
    <glyph glyph-name="degree" unicode="&#xb0;" horiz-adv-x="626" 
d="M549 1090q0 -138 -75 -238t-179 -100t-179 100t-75 238t75 239t179 101t179 -101t75 -239zM391 1090q0 71 -28.5 122.5t-67.5 51.5q-40 0 -70 -51.5t-30 -122.5q0 -70 30 -122.5t70 -52.5q38 0 67 52.5t29 122.5z" />
    <glyph glyph-name="plusminus" unicode="&#xb1;" horiz-adv-x="608" 
d="M559 705h-184v-316h-139v316h-185v176h185v315h139v-315h184v-176zM557 135h-502v178h502v-178z" />
    <glyph glyph-name="twosuperior" unicode="&#xb2;" horiz-adv-x="739" 
d="M590 1176q0 -63 -15.5 -111.5t-47.5 -84t-60 -56t-74 -47.5q-101 -68 -112 -119h307v-156h-471q-2 38 -11 135q6 26 14 49t13.5 40.5t17 35.5t16.5 28.5t20 26t19 21t23.5 20.5t22.5 17.5t26.5 19.5t26.5 19q78 39 116 74.5t38 87.5q0 131 -105 131q-106 0 -204 -90
l-46 137q121 110 250 110q38 0 77.5 -16.5t76 -48.5t59.5 -90.5t23 -132.5z" />
    <glyph glyph-name="threesuperior" unicode="&#xb3;" horiz-adv-x="737" 
d="M571 856q0 -67 -25 -120t-64 -82.5t-80 -44.5t-80 -15q-126 0 -244 104l45 142q104 -88 199 -88q104 0 104 102q0 80 -111 104v3q-44 0 -67 -9q-21 70 -4 160h4q5 -1 12.5 -2t16 -2t19 -1.5t19.5 -0.5v-2q25 0 55 22.5t46 61.5q12 24 12 43q-4 78 -106 78q-88 0 -199 -90
l-45 141q120 106 244 106q39 0 80 -14t80 -43t64 -82t25 -121q0 -109 -51 -170q51 -63 51 -180z" />
    <glyph glyph-name="acute" unicode="&#xb4;" horiz-adv-x="780" 
d="M659 1436l-311 -297h-170l248 311h219z" />
    <glyph glyph-name="mu" unicode="&#xb5;" horiz-adv-x="1030" 
d="M901 246l80 -154q-120 -124 -266 -106q-125 0 -142 114q-85 -129 -174 -129q-26 0 -66 18t-57 46v-455h-213v1454h213v-608q0 -42 5.5 -79t19.5 -73.5t42 -57.5t67 -21q56 0 157 155v684h215v-712v-24v-26.5t0.5 -24.5t2 -24.5t3.5 -19t6 -16.5t9 -9q19 -6 57 22t41 46z
" />
    <glyph glyph-name="mu" unicode="&#x3bc;" horiz-adv-x="1030" 
d="M901 246l80 -154q-120 -124 -266 -106q-125 0 -142 114q-85 -129 -174 -129q-26 0 -66 18t-57 46v-455h-213v1454h213v-608q0 -42 5.5 -79t19.5 -73.5t42 -57.5t67 -21q56 0 157 155v684h215v-712v-24v-26.5t0.5 -24.5t2 -24.5t3.5 -19t6 -16.5t9 -9q19 -6 57 22t41 46z
" />
    <glyph glyph-name="paragraph" unicode="&#xb6;" horiz-adv-x="1093" 
d="M1020 0h-158v1223h-106v-1223h-170v430h-140q-172 0 -286.5 138t-114.5 370q0 235 118 373.5t292 138.5h565v-1450zM586 653v570h-158q-75 0 -116.5 -80t-41.5 -203q0 -120 55 -203.5t134 -83.5h127z" />
    <glyph glyph-name="periodcentered" unicode="&#xb7;" horiz-adv-x="389" 
d="M311 596q0 -65 -35 -109.5t-86 -44.5q-49 0 -83.5 44.5t-34.5 109.5q0 64 34 108t84 44q51 0 86 -44t35 -108z" />
    <glyph glyph-name="cedilla" unicode="&#xb8;" horiz-adv-x="1007" 
d="M713 -270q0 -51 -20.5 -89.5t-53 -59t-67 -30.5t-68.5 -10q-82 0 -158 64l33 116q61 -55 123 -55q29 0 46.5 13t22 26.5t4.5 28.5q0 26 -8.5 46.5t-23.5 24.5q-18 8 -56.5 0t-42.5 -30l-104 61l57 213h121l-43 -149q35 14 62 14q22 0 44 -5t46.5 -18t43 -33t30.5 -53
t12 -75z" />
    <glyph glyph-name="onesuperior" unicode="&#xb9;" horiz-adv-x="456" 
d="M303 600h-139l2 850h137v-850z" />
    <glyph glyph-name="ordmasculine" unicode="&#xba;" horiz-adv-x="778" 
d="M731 1040q0 -103 -29 -183t-77.5 -127t-106.5 -71t-121 -24q-62 0 -119.5 24t-105.5 71t-77 127t-29 183q0 104 29 185t77 128t105.5 71t119.5 24q63 0 121 -25t106.5 -73.5t77.5 -128.5t29 -181zM545 1040q0 101 -40 155t-110 54q-68 0 -106.5 -54t-38.5 -155
q0 -100 38 -152t107 -52q70 0 110 52.5t40 151.5z" />
    <glyph glyph-name="guillemotright" unicode="&#xbb;" horiz-adv-x="1126" 
d="M545 416l-482 -400v246l263 244l-263 260v248l482 -424v-174zM1059 416l-479 -400v246l262 244l-262 260v248l479 -424v-174z" />
    <glyph glyph-name="onequarter" unicode="&#xbc;" horiz-adv-x="1212" 
d="M1143 195h-96v-195h-138v195h-282v116l327 551h93v-526h96v-141zM872 1450l-526 -1450h-156l527 1450h155zM264 621h-137l2 829h135v-829zM909 336v250q-13 -28 -127 -250h127z" />
    <glyph glyph-name="onehalf" unicode="&#xbd;" horiz-adv-x="1339" 
d="M1212 571q0 -50 -12 -92.5t-29 -70.5t-46.5 -55t-53 -42.5t-59.5 -36.5l-21 -4q-4 -4 -17 -15.5t-18.5 -17t-16.5 -17t-17 -20t-12.5 -20.5t-10.5 -24h307v-156h-467q-3 22 -7 67.5t-7 67.5q8 33 18 60.5t18 47t22.5 39.5t22 30.5t27 27t26.5 22.5t32 24t33 24
q42 22 63.5 35.5t45 33.5t33 42t9.5 50q0 64 -21.5 99t-78.5 35q-109 0 -203 -91l-45 136q115 110 248 110q38 0 77 -16t76 -48.5t60.5 -91t23.5 -133.5zM901 1450l-612 -1450h-152l613 1450h151zM223 600h-139l2 850h137v-850z" />
    <glyph glyph-name="threequarters" unicode="&#xbe;" horiz-adv-x="1382" 
d="M551 852q0 -67 -25 -120t-64.5 -82.5t-80.5 -44.5t-80 -15q-126 0 -244 104l45 142q104 -88 199 -88q105 0 105 102q0 80 -111 104v2q-10 0 -20.5 -1t-19 -2t-15 -2t-10.5 -2l-5 -1q-16 75 0 160q37 -6 70 -6v-2q35 0 73 26.5t38 77.5q0 101 -105 101q-87 0 -199 -91
l-45 142q123 106 244 106q39 0 80 -14t80.5 -43t64.5 -82t25 -121q0 -109 -51 -170q51 -63 51 -180zM1319 195h-74v-195h-137v195h-283v116l328 551h92v-526h74v-141zM1106 1450l-569 -1450h-156l569 1450h156zM1108 336v250q-13 -28 -127 -250h127z" />
    <glyph glyph-name="questiondown" unicode="&#xbf;" horiz-adv-x="884" 
d="M838 84q0 -1 -1 -4t-1 -4q-91 -101 -182.5 -148t-200.5 -47q-54 0 -108.5 10t-115 38.5t-106.5 72t-76.5 117t-30.5 166.5q0 77 17.5 138t43 97.5t66 66t73 44.5t76.5 32l9 3q70 28 103.5 58t33.5 87q0 35 -6 84q0 5 -12 63h203q20 -72 20 -131q0 -89 -22.5 -152.5
t-59 -98t-80 -58t-87 -40.5t-80 -37.5t-59 -58t-22.5 -93.5q0 -60 24.5 -103t63 -62.5t71 -27.5t63.5 -8q89 0 151 39t152 137zM635 1214q0 -60 -37 -101.5t-86 -41.5q-48 0 -85.5 41t-37.5 102q0 63 37.5 104.5t85.5 41.5q49 0 86 -41.5t37 -104.5z" />
    <glyph glyph-name="Agrave" unicode="&#xc0;" horiz-adv-x="1138" 
d="M1090 0h-244l-74 307h-434l-82 -307h-238l445 1456h201zM666 1538h-191l-301 309l6 25h246zM690 532l-133 566l-135 -566h268z" />
    <glyph glyph-name="Aacute" unicode="&#xc1;" horiz-adv-x="1138" 
d="M1090 0h-244l-74 307h-434l-82 -307h-238l445 1456h201zM690 532l-133 566l-135 -566h268zM913 1829l-311 -297h-170l248 311h219z" />
    <glyph glyph-name="Acircumflex" unicode="&#xc2;" horiz-adv-x="1138" 
d="M1090 0h-244l-74 307h-434l-82 -307h-238l445 1456h201zM846 1571h-170l-107 139l-108 -139h-170l219 301h123zM690 532l-133 566l-135 -566h268z" />
    <glyph glyph-name="Atilde" unicode="&#xc3;" horiz-adv-x="1138" 
d="M1090 0h-244l-74 307h-434l-82 -307h-238l445 1456h201zM754 1808h98q6 -40 -11 -98.5t-60 -108t-99 -49.5q-42 0 -89.5 25t-88 49.5t-64.5 24.5q-34 0 -46 -21.5t-17 -73.5h-105q-9 27 -1 72t23.5 87.5t53 74t86.5 31.5q35 0 72.5 -15.5t64 -34t56 -34t51.5 -15.5
q33 0 50.5 21t25.5 65zM690 532l-133 566l-135 -566h268z" />
    <glyph glyph-name="Adieresis" unicode="&#xc4;" horiz-adv-x="1138" 
d="M1090 0h-244l-74 307h-434l-82 -307h-238l445 1456h201zM690 532l-133 566l-135 -566h268zM492 1700q0 -50 -29.5 -84.5t-69.5 -34.5q-42 0 -71 34t-29 85q0 52 29 86.5t71 34.5q41 0 70 -34.5t29 -86.5zM831 1700q0 -50 -29 -84.5t-69 -34.5t-69 34.5t-29 84.5
q0 52 28 86.5t70 34.5q40 0 69 -34.5t29 -86.5z" />
    <glyph glyph-name="Aring" unicode="&#xc5;" horiz-adv-x="1138" 
d="M1090 0h-244l-74 307h-434l-82 -307h-238l445 1456h201zM772 1782q0 -112 -53.5 -188t-151.5 -76t-150 75.5t-52 188.5q0 112 51.5 188t150.5 76q98 0 151.5 -76.5t53.5 -187.5zM690 532l-133 566l-135 -566h268zM653 1782q0 57 -23.5 97t-64.5 40q-40 0 -63 -40t-23 -97
q0 -56 24.5 -96.5t61.5 -40.5q43 0 65.5 39.5t22.5 97.5z" />
    <glyph glyph-name="AE" unicode="&#xc6;" horiz-adv-x="1712" 
d="M842 532v545l-301 -545h301zM1626 0h-784v307h-430l-156 -307h-258l809 1448h803v-225h-523q0 -64 -1 -193.5t-1 -193.5h443v-222h-441v-385h539v-229z" />
    <glyph glyph-name="Ccedilla" unicode="&#xc7;" horiz-adv-x="1060" 
d="M784 -272q0 -51 -20.5 -89.5t-53 -59t-67 -30.5t-68.5 -10q-81 0 -157 64l33 116q61 -55 122 -55q42 0 58 21.5t16 46.5t-9 46t-24 25q-18 8 -56 0t-42 -30l-104 61l41 158q-177 45 -291.5 237.5t-114.5 499.5q0 166 44.5 309.5t117 237.5t163 147.5t183.5 53.5
q263 0 438 -226l-104 -213q-41 49 -74 82t-73 62t-85 43t-96 14q-116 0 -196 -142t-80 -372q0 -232 80.5 -374t195.5 -142q41 0 80.5 12.5t69.5 30t65.5 50t59 57.5t59.5 67l111 -195q-42 -49 -77 -84t-91 -78t-124.5 -67t-144.5 -25l-22 -79q35 14 61 14q22 0 44 -5
t46.5 -18t43 -33t30.5 -53t12 -75z" />
    <glyph glyph-name="Egrave" unicode="&#xc8;" horiz-adv-x="952" 
d="M858 0h-784l4 1450h764v-225h-523q0 -65 -1 -195t-1 -194h443v-222h-441v-385h539v-229zM637 1509h-191l-301 310l7 24h245z" />
    <glyph glyph-name="Eacute" unicode="&#xc9;" horiz-adv-x="952" 
d="M858 0h-784l4 1450h764v-225h-523q0 -65 -1 -195t-1 -194h443v-222h-441v-385h539v-229zM780 1810l-311 -297h-170l248 312h219z" />
    <glyph glyph-name="Ecircumflex" unicode="&#xca;" horiz-adv-x="952" 
d="M858 0h-784l4 1450h764v-225h-523q0 -65 -1 -195t-1 -194h443v-222h-441v-385h539v-229zM729 1546h-170l-106 140l-109 -140h-170l219 301h123z" />
    <glyph glyph-name="Edieresis" unicode="&#xcb;" horiz-adv-x="952" 
d="M858 0h-784l4 1450h764v-225h-523q0 -65 -1 -195t-1 -194h443v-222h-441v-385h539v-229zM727 1655q0 -50 -29 -84.5t-69 -34.5t-69.5 34.5t-29.5 84.5q0 52 28.5 86.5t70.5 34.5q40 0 69 -34.5t29 -86.5zM387 1655q0 -50 -29 -84.5t-69 -34.5q-42 0 -71.5 34.5
t-29.5 84.5q0 52 29.5 86.5t71.5 34.5q40 0 69 -34.5t29 -86.5z" />
    <glyph glyph-name="Igrave" unicode="&#xcc;" horiz-adv-x="448" 
d="M336 0h-244v1450h244v-1450zM354 1516h-190l-301 309l6 24h246z" />
    <glyph glyph-name="Iacute" unicode="&#xcd;" horiz-adv-x="448" 
d="M336 0h-244v1450h244v-1450zM559 1817l-311 -297h-170l248 311h219z" />
    <glyph glyph-name="Icircumflex" unicode="&#xce;" horiz-adv-x="448" 
d="M336 0h-244v1450h244v-1450zM489 1538h-170l-106 139l-109 -139h-170l220 301h122z" />
    <glyph glyph-name="Idieresis" unicode="&#xcf;" horiz-adv-x="448" 
d="M336 0h-244v1450h244v-1450zM479 1642q0 -50 -29 -84t-69 -34t-69 34t-29 84q0 52 28 86.5t70 34.5q40 0 69 -34.5t29 -86.5zM139 1642q0 -50 -29 -84t-69 -34q-42 0 -71 34t-29 84q0 52 29 86.5t71 34.5q40 0 69 -34.5t29 -86.5z" />
    <glyph glyph-name="Eth" unicode="&#xd0;" horiz-adv-x="1144" 
d="M1104 723q0 -338 -147.5 -530.5t-397.5 -192.5h-418v592h-121v180h121v678h463q227 0 363.5 -198t136.5 -529zM879 719q0 247 -78.5 378.5t-255.5 131.5h-162v-457h137v-180h-137v-369h156q158 0 249 134t91 362z" />
    <glyph glyph-name="Ntilde" unicode="&#xd1;" horiz-adv-x="1083" 
d="M981 0h-143l-525 891q0 -161 -1 -446.5t-1 -444.5h-233v1450h155l517 -862v862h231v-1450zM702 1761h99q6 -40 -11 -98.5t-60 -108t-99 -49.5q-33 0 -70.5 15.5t-64.5 34t-57 34t-50 15.5q-34 0 -46 -21.5t-17 -73.5h-105q-9 27 -1 72t23.5 87.5t53 74t86.5 31.5
q44 0 91 -25t87 -49.5t66 -24.5q33 0 50 21t25 65z" />
    <glyph glyph-name="Ograve" unicode="&#xd2;" horiz-adv-x="1200" 
d="M1141 721q0 -174 -43 -318t-117.5 -238.5t-173.5 -146t-211 -51.5t-210.5 52t-173 147.5t-118 240t-43.5 318.5q0 355 153 557.5t392 202.5q111 0 210.5 -53.5t173.5 -150.5t117.5 -242t43.5 -318zM911 721q0 150 -31.5 265t-104.5 187t-179 72q-83 0 -145 -40.5
t-98.5 -113t-54 -165t-17.5 -205.5q0 -147 31 -259.5t104 -183.5t180 -71q108 0 180 70t103.5 182.5t31.5 261.5zM696 1552h-190l-301 310l6 24h246z" />
    <glyph glyph-name="Oacute" unicode="&#xd3;" horiz-adv-x="1200" 
d="M1141 721q0 -174 -43 -318t-117.5 -238.5t-173.5 -146t-211 -51.5t-210.5 52t-173 147.5t-118 240t-43.5 318.5q0 355 153 557.5t392 202.5q111 0 210.5 -53.5t173.5 -150.5t117.5 -242t43.5 -318zM911 721q0 150 -31.5 265t-104.5 187t-179 72q-83 0 -145 -40.5
t-98.5 -113t-54 -165t-17.5 -205.5q0 -147 31 -259.5t104 -183.5t180 -71q108 0 180 70t103.5 182.5t31.5 261.5zM934 1858l-311 -297h-170l247 311h220z" />
    <glyph glyph-name="Ocircumflex" unicode="&#xd4;" horiz-adv-x="1200" 
d="M1141 721q0 -174 -43 -318t-117.5 -238.5t-173.5 -146t-211 -51.5t-210.5 52t-173 147.5t-118 240t-43.5 318.5q0 355 153 557.5t392 202.5q111 0 210.5 -53.5t173.5 -150.5t117.5 -242t43.5 -318zM911 721q0 150 -31.5 265t-104.5 187t-179 72q-83 0 -145 -40.5
t-98.5 -113t-54 -165t-17.5 -205.5q0 -147 31 -259.5t104 -183.5t180 -71q108 0 180 70t103.5 182.5t31.5 261.5zM872 1559h-170l-106 139l-109 -139h-170l220 301h122z" />
    <glyph glyph-name="Otilde" unicode="&#xd5;" horiz-adv-x="1200" 
d="M1141 721q0 -174 -43 -318t-117.5 -238.5t-173.5 -146t-211 -51.5t-210.5 52t-173 147.5t-118 240t-43.5 318.5q0 355 153 557.5t392 202.5q111 0 210.5 -53.5t173.5 -150.5t117.5 -242t43.5 -318zM911 721q0 150 -31.5 265t-104.5 187t-179 72q-83 0 -145 -40.5
t-98.5 -113t-54 -165t-17.5 -205.5q0 -147 31 -259.5t104 -183.5t180 -71q108 0 180 70t103.5 182.5t31.5 261.5zM782 1827h99q6 -40 -11 -98.5t-60 -108t-99 -49.5q-42 0 -89.5 24.5t-88 49t-64.5 24.5q-34 0 -46 -21.5t-17 -72.5h-105q-3 23 -2.5 55t13 69t30 68
t49.5 51.5t72 20.5q44 0 91 -24.5t87 -49t66 -24.5q33 0 50 21t25 65z" />
    <glyph glyph-name="Odieresis" unicode="&#xd6;" horiz-adv-x="1200" 
d="M1141 721q0 -174 -43 -318t-117.5 -238.5t-173.5 -146t-211 -51.5t-210.5 52t-173 147.5t-118 240t-43.5 318.5q0 355 153 557.5t392 202.5q111 0 210.5 -53.5t173.5 -150.5t117.5 -242t43.5 -318zM911 721q0 150 -31.5 265t-104.5 187t-179 72q-83 0 -145 -40.5
t-98.5 -113t-54 -165t-17.5 -205.5q0 -147 31 -259.5t104 -183.5t180 -71q108 0 180 70t103.5 182.5t31.5 261.5zM866 1683q0 -50 -29 -84t-69 -34t-69 34t-29 84q0 52 28 86.5t70 34.5q40 0 69 -34.5t29 -86.5zM526 1683q0 -50 -29 -84t-69 -34q-42 0 -71 34t-29 84
q0 52 29 86.5t71 34.5q40 0 69 -34.5t29 -86.5z" />
    <glyph glyph-name="multiply" unicode="&#xd7;" horiz-adv-x="667" 
d="M606 969l-164 -260q119 -182 166 -258l-102 -144l-168 256l-164 -262l-111 145l166 263l-163 258l104 141l164 -256q27 42 81.5 129t82.5 129z" />
    <glyph glyph-name="Oslash" unicode="&#xd8;" horiz-adv-x="1200" 
d="M1141 721q0 -174 -43 -318t-117.5 -238.5t-173.5 -146t-211 -51.5q-136 0 -254 76l-57 -113h-197l121 240q-158 211 -158 555q0 355 153 557.5t392 202.5q129 0 242 -72l61 123h195l-123 -246q170 -214 170 -569zM911 721q0 206 -59 336l-406 -805q64 -45 150 -45
q108 0 180 70t103.5 182.5t31.5 261.5zM281 721q0 -181 49 -309l403 794q-61 39 -137 39q-83 0 -145 -40.5t-98.5 -113t-54 -165t-17.5 -205.5z" />
    <glyph glyph-name="Ugrave" unicode="&#xd9;" horiz-adv-x="1120" 
d="M1034 690q0 -356 -116 -532t-361 -176q-488 0 -485 694q0 121 1 387t1 387h235l2 -717q0 -265 59.5 -385.5t186.5 -120.5q238 0 238 512v711h239v-760zM688 1505h-190l-301 310l6 24h246z" />
    <glyph glyph-name="Uacute" unicode="&#xda;" horiz-adv-x="1120" 
d="M1034 690q0 -356 -116 -532t-361 -176q-488 0 -485 694q0 121 1 387t1 387h235l2 -717q0 -265 59.5 -385.5t186.5 -120.5q238 0 238 512v711h239v-760zM928 1812l-312 -296h-170l248 311h219z" />
    <glyph glyph-name="Ucircumflex" unicode="&#xdb;" horiz-adv-x="1120" 
d="M1034 690q0 -356 -116 -532t-361 -176q-488 0 -485 694q0 121 1 387t1 387h235l2 -717q0 -265 59.5 -385.5t186.5 -120.5q238 0 238 512v711h239v-760zM819 1522h-170l-106 139l-109 -139h-170l219 301h123z" />
    <glyph glyph-name="Udieresis" unicode="&#xdc;" horiz-adv-x="1120" 
d="M1034 690q0 -356 -116 -532t-361 -176q-488 0 -485 694q0 121 1 387t1 387h235l2 -717q0 -265 59.5 -385.5t186.5 -120.5q238 0 238 512v711h239v-760zM823 1657q0 -50 -29 -84.5t-69 -34.5t-69 34.5t-29 84.5q0 52 28 86.5t70 34.5q40 0 69 -34.5t29 -86.5zM483 1657
q0 -50 -29 -84.5t-69 -34.5q-42 0 -71 34t-29 85q0 52 29 86.5t71 34.5q40 0 69 -34.5t29 -86.5z" />
    <glyph glyph-name="Yacute" unicode="&#xdd;" horiz-adv-x="1034" 
d="M995 1413l-354 -864v-549h-246v561q-252 603 -354 852v37h238l256 -662l239 662h221v-37zM887 1823l-312 -297h-169l247 311h219z" />
    <glyph glyph-name="Thorn" unicode="&#xde;" horiz-adv-x="968" 
d="M889 737q0 -225 -111.5 -352t-281.5 -127h-183q0 -35 1 -129.5t1 -128.5h-243v1450h243v-242h172q84 0 155 -28t127 -83.5t88 -147.5t32 -212zM668 727q0 120 -40 187.5t-114 66.5h-201q0 -88 1 -252t1 -252q26 0 83 -1t85 -1q80 0 132.5 71t52.5 181z" />
    <glyph glyph-name="germandbls" unicode="&#xdf;" horiz-adv-x="933" 
d="M874 475q0 -239 -115.5 -365t-303.5 -126q-34 0 -64 16.5t-78 56.5l23 189q11 -6 34.5 -24t43 -29t35.5 -11q61 0 105.5 24.5t68 67t34.5 90.5t11 105q0 126 -41.5 189.5t-96.5 78.5q-7 3 -16 4.5t-27 2t-34 0.5t-53 -0.5t-70 -0.5v199q125 3 177 48.5t52 164.5
q0 83 -30.5 130.5t-108.5 47.5q-135 0 -135 -186v-1147h-205v1139q0 178 92 282.5t236 104.5q126 0 214 -81.5t117 -234.5q11 -82 11 -125q0 -132 -62 -202q100 -44 143 -133.5t43 -274.5z" />
    <glyph glyph-name="agrave" unicode="&#xe0;" horiz-adv-x="913" 
d="M860 8q0 -9 -76 -16q-56 0 -109 21.5t-81 72.5q-45 -56 -92 -78t-109 -22q-48 0 -95.5 13t-92 41t-79 68t-55 98.5t-20.5 127.5q0 73 20 132.5t53 99.5t78 67.5t94 40t101 12.5q36 0 82 -10t76 -25q0 -2 8 -2q0 113 -43.5 168t-116.5 55q-52 0 -121.5 -31.5t-129.5 -78.5
l-29 174q37 40 128.5 78.5t160.5 38.5q67 0 132 -26t119 -73.5t87.5 -123t33.5 -166.5v-388q0 -51 6 -70.5t23 -27.5q19 -6 47 8v-178zM563 227v256q-93 33 -149 33q-71 0 -107.5 -49t-36.5 -125q0 -75 33.5 -122.5t97.5 -47.5q110 0 162 55zM559 1116h-190l-301 309l6 25
h245z" />
    <glyph glyph-name="aacute" unicode="&#xe1;" horiz-adv-x="913" 
d="M860 8q0 -9 -76 -16q-56 0 -109 21.5t-81 72.5q-45 -56 -92 -78t-109 -22q-48 0 -95.5 13t-92 41t-79 68t-55 98.5t-20.5 127.5q0 73 20 132.5t53 99.5t78 67.5t94 40t101 12.5q36 0 82 -10t76 -25q0 -2 8 -2q0 113 -43.5 168t-116.5 55q-52 0 -121.5 -31.5t-129.5 -78.5
l-29 174q37 40 128.5 78.5t160.5 38.5q67 0 132 -26t119 -73.5t87.5 -123t33.5 -166.5v-388q0 -51 6 -70.5t23 -27.5q19 -6 47 8v-178zM563 227v256q-93 33 -149 33q-71 0 -107.5 -49t-36.5 -125q0 -75 33.5 -122.5t97.5 -47.5q110 0 162 55zM758 1436l-312 -297h-170
l248 311h219z" />
    <glyph glyph-name="acircumflex" unicode="&#xe2;" horiz-adv-x="913" 
d="M860 8q0 -9 -76 -16q-56 0 -109 21.5t-81 72.5q-45 -56 -92 -78t-109 -22q-48 0 -95.5 13t-92 41t-79 68t-55 98.5t-20.5 127.5q0 73 20 132.5t53 99.5t78 67.5t94 40t101 12.5q36 0 82 -10t76 -25q0 -2 8 -2q0 113 -43.5 168t-116.5 55q-52 0 -121.5 -31.5t-129.5 -78.5
l-29 174q37 40 128.5 78.5t160.5 38.5q67 0 132 -26t119 -73.5t87.5 -123t33.5 -166.5v-388q0 -51 6 -70.5t23 -27.5q19 -6 47 8v-178zM563 227v256q-93 33 -149 33q-71 0 -107.5 -49t-36.5 -125q0 -75 33.5 -122.5t97.5 -47.5q110 0 162 55zM711 1153h-170l-107 139
l-108 -139h-170l219 301h123z" />
    <glyph glyph-name="atilde" unicode="&#xe3;" horiz-adv-x="913" 
d="M860 8q0 -9 -76 -16q-56 0 -109 21.5t-81 72.5q-45 -56 -92 -78t-109 -22q-48 0 -95.5 13t-92 41t-79 68t-55 98.5t-20.5 127.5q0 73 20 132.5t53 99.5t78 67.5t94 40t101 12.5q36 0 82 -10t76 -25q0 -2 8 -2q0 113 -43.5 168t-116.5 55q-52 0 -121.5 -31.5t-129.5 -78.5
l-29 174q37 40 128.5 78.5t160.5 38.5q67 0 132 -26t119 -73.5t87.5 -123t33.5 -166.5v-388q0 -51 6 -70.5t23 -27.5q19 -6 47 8v-178zM563 227v256q-93 33 -149 33q-71 0 -107.5 -49t-36.5 -125q0 -75 33.5 -122.5t97.5 -47.5q110 0 162 55zM637 1419h98q6 -40 -11 -98.5
t-60 -108t-99 -49.5q-42 0 -89 24.5t-87.5 49.5t-64.5 25q-34 0 -46.5 -22t-17.5 -73h-104q-9 27 -1 72t23.5 87.5t52.5 74t86 31.5q44 0 91 -25t87 -49.5t66 -24.5q33 0 50.5 21t25.5 65z" />
    <glyph glyph-name="adieresis" unicode="&#xe4;" horiz-adv-x="913" 
d="M860 8q0 -9 -76 -16q-56 0 -109 21.5t-81 72.5q-45 -56 -92 -78t-109 -22q-48 0 -95.5 13t-92 41t-79 68t-55 98.5t-20.5 127.5q0 73 20 132.5t53 99.5t78 67.5t94 40t101 12.5q36 0 82 -10t76 -25q0 -2 8 -2q0 113 -43.5 168t-116.5 55q-52 0 -121.5 -31.5t-129.5 -78.5
l-29 174q37 40 128.5 78.5t160.5 38.5q67 0 132 -26t119 -73.5t87.5 -123t33.5 -166.5v-388q0 -51 6 -70.5t23 -27.5q19 -6 47 8v-178zM563 227v256q-93 33 -149 33q-71 0 -107.5 -49t-36.5 -125q0 -75 33.5 -122.5t97.5 -47.5q110 0 162 55zM682 1317q0 -50 -29 -84.5
t-69 -34.5t-69.5 34.5t-29.5 84.5q0 52 28.5 86.5t70.5 34.5q40 0 69 -34.5t29 -86.5zM342 1317q0 -50 -29 -84.5t-69 -34.5q-42 0 -71.5 34.5t-29.5 84.5q0 52 29.5 86.5t71.5 34.5q40 0 69 -34.5t29 -86.5z" />
    <glyph glyph-name="aring" unicode="&#xe5;" horiz-adv-x="913" 
d="M860 8q0 -9 -76 -16q-56 0 -109 21.5t-81 72.5q-45 -56 -92 -78t-109 -22q-48 0 -95.5 13t-92 41t-79 68t-55 98.5t-20.5 127.5q0 73 20 132.5t53 99.5t78 67.5t94 40t101 12.5q36 0 82 -10t76 -25q0 -2 8 -2q0 113 -43.5 168t-116.5 55q-52 0 -121.5 -31.5t-129.5 -78.5
l-29 174q37 40 128.5 78.5t160.5 38.5q67 0 132 -26t119 -73.5t87.5 -123t33.5 -166.5v-388q0 -51 6 -70.5t23 -27.5q19 -6 47 8v-178zM563 227v256q-93 33 -149 33q-71 0 -107.5 -49t-36.5 -125q0 -75 33.5 -122.5t97.5 -47.5q110 0 162 55zM627 1368q0 -112 -53.5 -188
t-151.5 -76t-150.5 75.5t-52.5 188.5q0 112 52 188t151 76q98 0 151.5 -76.5t53.5 -187.5zM508 1368q0 57 -23.5 97t-64.5 40q-40 0 -63 -40t-23 -97q0 -56 24.5 -96.5t61.5 -40.5q43 0 65.5 39.5t22.5 97.5z" />
    <glyph glyph-name="ae" unicode="&#xe6;" horiz-adv-x="1386" 
d="M1337 506v-57q-138 -27 -313 -27q-160 0 -260 20q15 -103 70 -172t127 -69q46 0 124.5 34.5t145.5 88.5l61 -189q-71 -63 -166 -106t-165 -43q-87 0 -161.5 41.5t-123.5 117.5q-40 -50 -47 -57q-90 -100 -230 -100q-41 0 -86.5 11.5t-93 39.5t-85.5 68t-62.5 102.5
t-24.5 138.5q0 102 27 178t74.5 119.5t105.5 64.5t127 21q58 0 184 -37q-10 74 -33 113q-43 61 -108 61q-121 0 -295 -147l-61 192q161 158 358 158q75 0 145.5 -40.5t114.5 -108.5q102 147 272 147q136 0 231 -106.5t132 -278.5q16 -71 16 -178zM403 193q108 0 189 143
q-12 50 -12 102l-5 56q-129 47 -186 47q-71 0 -109 -47t-38 -138q0 -78 49 -120.5t112 -42.5zM1040 612q50 0 99 9q-20 104 -66 171.5t-112 67.5q-65 0 -116 -62.5t-73 -164.5q78 -13 238 -21h30z" />
    <glyph glyph-name="ccedilla" unicode="&#xe7;" horiz-adv-x="847" 
d="M666 -272q0 -51 -20.5 -89.5t-53 -59t-67 -30.5t-68.5 -10q-82 0 -158 64l33 116q61 -55 123 -55q29 0 46.5 13t22 26.5t4.5 28.5q0 26 -8.5 46.5t-23.5 24.5q-18 8 -56.5 0t-42.5 -30l-104 61l43 164q-131 43 -212 175t-81 337q0 133 33.5 238.5t91 171t131.5 99.5
t158 34q171 0 319 -142l-51 -194q-117 117 -268 117q-83 0 -134 -90.5t-51 -231.5q0 -130 51.5 -214.5t133.5 -84.5q70 0 128.5 25t121.5 79l59 -190q-140 -147 -309 -147h-6l-23 -82q35 14 61 14q28 0 56 -9t56.5 -28t46.5 -57.5t18 -89.5z" />
    <glyph glyph-name="egrave" unicode="&#xe8;" 
d="M817 455h-553q14 -107 68 -184.5t119 -77.5q148 0 249 96l66 -174q-56 -57 -143 -95t-181 -38q-173 0 -288 139.5t-115 388.5q0 262 110.5 402.5t286.5 140.5q182 0 282 -155.5t99 -442.5zM436 862q-58 0 -106 -65.5t-58 -169.5h328q-3 42 -11.5 79.5t-25.5 74.5t-50 59
t-77 22zM575 1116h-190l-301 309l6 25h246z" />
    <glyph glyph-name="eacute" unicode="&#xe9;" 
d="M817 455h-553q14 -107 68 -184.5t119 -77.5q148 0 249 96l66 -174q-56 -57 -143 -95t-181 -38q-173 0 -288 139.5t-115 388.5q0 262 110.5 402.5t286.5 140.5q182 0 282 -155.5t99 -442.5zM436 862q-58 0 -106 -65.5t-58 -169.5h328q-3 42 -11.5 79.5t-25.5 74.5t-50 59
t-77 22zM764 1436l-311 -297h-170l247 311h220z" />
    <glyph glyph-name="ecircumflex" unicode="&#xea;" 
d="M817 455h-553q14 -107 68 -184.5t119 -77.5q148 0 249 96l66 -174q-56 -57 -143 -95t-181 -38q-173 0 -288 139.5t-115 388.5q0 262 110.5 402.5t286.5 140.5q182 0 282 -155.5t99 -442.5zM436 862q-58 0 -106 -65.5t-58 -169.5h328q-3 42 -11.5 79.5t-25.5 74.5t-50 59
t-77 22zM711 1153h-170l-107 139l-108 -139h-170l219 301h123z" />
    <glyph glyph-name="edieresis" unicode="&#xeb;" 
d="M817 455h-553q14 -107 68 -184.5t119 -77.5q148 0 249 96l66 -174q-56 -57 -143 -95t-181 -38q-173 0 -288 139.5t-115 388.5q0 262 110.5 402.5t286.5 140.5q182 0 282 -155.5t99 -442.5zM436 862q-58 0 -106 -65.5t-58 -169.5h328q-3 42 -11.5 79.5t-25.5 74.5t-50 59
t-77 22zM702 1317q0 -50 -29 -84.5t-69 -34.5t-69 34.5t-29 84.5q0 52 28 86.5t70 34.5q40 0 69 -34.5t29 -86.5zM362 1317q0 -50 -29 -84.5t-69 -34.5q-42 0 -71 34t-29 85q0 52 29 86.5t71 34.5q40 0 69 -34.5t29 -86.5z" />
    <glyph glyph-name="igrave" unicode="&#xec;" horiz-adv-x="374" 
d="M279 0h-220v1032h220v-1032zM291 1116h-191l-301 309l6 25h246z" />
    <glyph glyph-name="iacute" unicode="&#xed;" horiz-adv-x="374" 
d="M279 0h-220v1032h220v-1032zM530 1436l-311 -297h-170l248 311h219z" />
    <glyph glyph-name="icircumflex" unicode="&#xee;" horiz-adv-x="374" 
d="M279 0h-220v1032h220v-1032zM444 1153h-170l-106 139l-109 -139h-170l220 301h122z" />
    <glyph glyph-name="idieresis" unicode="&#xef;" horiz-adv-x="374" 
d="M279 0h-220v1032h220v-1032zM442 1317q0 -50 -29 -84.5t-69 -34.5t-69 34.5t-29 84.5q0 52 28 86.5t70 34.5q40 0 69 -34.5t29 -86.5zM102 1317q0 -50 -29 -84.5t-69 -34.5q-42 0 -71 34t-29 85q0 52 29 86.5t71 34.5q40 0 69 -34.5t29 -86.5z" />
    <glyph glyph-name="eth" unicode="&#xf0;" horiz-adv-x="905" 
d="M850 629q0 -191 -43 -333.5t-135.5 -227t-225.5 -84.5q-79 0 -151 35t-129 100t-91 168.5t-34 230.5q0 129 33.5 233.5t90 170t129.5 100.5t155 35q40 0 87 -31t87 -82q-11 90 -48 169t-83 132q-9 -27 -20 -67t-15 -54l-105 78l31 113q-24 21 -49 24q-44 8 -111 -12
l49 205q37 25 72 22q66 -6 129 -38q19 73 45 155l98 -82l-41 -145q133 -127 204 -334t71 -481zM633 526q0 144 -53.5 229t-133.5 85q-79 0 -132.5 -86t-53.5 -234q0 -144 53 -226.5t133 -82.5t133.5 84t53.5 231z" />
    <glyph glyph-name="ntilde" unicode="&#xf1;" horiz-adv-x="854" 
d="M780 0h-223v618q0 118 -18 169t-74 51q-40 0 -86.5 -45.5t-87.5 -112.5v-680h-225v1032h225v-121q90 140 190 140q136 0 217.5 -102.5t81.5 -295.5v-653zM621 1450h98q6 -40 -11 -98.5t-60 -108t-99 -49.5q-42 0 -89.5 24.5t-88 49t-64.5 24.5q-34 0 -46 -21.5t-17 -72.5
h-105q-3 23 -2.5 55t13 69t30 68t49.5 51.5t72 20.5q44 0 91 -24.5t87 -49t66 -24.5q33 0 50.5 21t25.5 65z" />
    <glyph glyph-name="ograve" unicode="&#xf2;" horiz-adv-x="921" 
d="M850 512q0 -133 -32 -236.5t-87.5 -167t-127 -96t-154.5 -32.5q-80 0 -151.5 34t-128.5 98.5t-90.5 168t-33.5 231.5q0 132 33.5 237.5t90.5 170.5t128.5 99t151.5 34t151.5 -35t127.5 -101t89 -171t33 -234zM633 514q0 134 -49.5 224.5t-134.5 90.5t-135 -90t-50 -225
q0 -130 50 -218.5t135 -88.5t134.5 88t49.5 219zM563 1116h-190l-301 309l6 25h246z" />
    <glyph glyph-name="oacute" unicode="&#xf3;" horiz-adv-x="921" 
d="M850 512q0 -133 -32 -236.5t-87.5 -167t-127 -96t-154.5 -32.5q-80 0 -151.5 34t-128.5 98.5t-90.5 168t-33.5 231.5q0 132 33.5 237.5t90.5 170.5t128.5 99t151.5 34t151.5 -35t127.5 -101t89 -171t33 -234zM633 514q0 134 -49.5 224.5t-134.5 90.5t-135 -90t-50 -225
q0 -130 50 -218.5t135 -88.5t134.5 88t49.5 219zM762 1436l-311 -297h-170l247 311h220z" />
    <glyph glyph-name="ocircumflex" unicode="&#xf4;" horiz-adv-x="921" 
d="M850 512q0 -133 -32 -236.5t-87.5 -167t-127 -96t-154.5 -32.5q-80 0 -151.5 34t-128.5 98.5t-90.5 168t-33.5 231.5q0 132 33.5 237.5t90.5 170.5t128.5 99t151.5 34t151.5 -35t127.5 -101t89 -171t33 -234zM633 514q0 134 -49.5 224.5t-134.5 90.5t-135 -90t-50 -225
q0 -130 50 -218.5t135 -88.5t134.5 88t49.5 219zM729 1153h-170l-106 139l-109 -139h-170l219 301h123z" />
    <glyph glyph-name="otilde" unicode="&#xf5;" horiz-adv-x="921" 
d="M850 512q0 -133 -32 -236.5t-87.5 -167t-127 -96t-154.5 -32.5q-80 0 -151.5 34t-128.5 98.5t-90.5 168t-33.5 231.5q0 132 33.5 237.5t90.5 170.5t128.5 99t151.5 34t151.5 -35t127.5 -101t89 -171t33 -234zM633 514q0 134 -49.5 224.5t-134.5 90.5t-135 -90t-50 -225
q0 -130 50 -218.5t135 -88.5t134.5 88t49.5 219zM651 1450h99q6 -40 -11 -98.5t-60 -108t-99 -49.5q-42 0 -89.5 24.5t-88 49t-64.5 24.5q-34 0 -46.5 -21.5t-17.5 -72.5h-104q-3 23 -2.5 55t13 69t30 68t49.5 51.5t72 20.5q44 0 91 -24.5t86.5 -49t65.5 -24.5q33 0 50.5 21
t25.5 65z" />
    <glyph glyph-name="odieresis" unicode="&#xf6;" horiz-adv-x="921" 
d="M850 512q0 -133 -32 -236.5t-87.5 -167t-127 -96t-154.5 -32.5q-80 0 -151.5 34t-128.5 98.5t-90.5 168t-33.5 231.5q0 132 33.5 237.5t90.5 170.5t128.5 99t151.5 34t151.5 -35t127.5 -101t89 -171t33 -234zM633 514q0 134 -49.5 224.5t-134.5 90.5t-135 -90t-50 -225
q0 -130 50 -218.5t135 -88.5t134.5 88t49.5 219zM719 1317q0 -50 -29 -84.5t-69 -34.5t-69.5 34.5t-29.5 84.5q0 52 28.5 86.5t70.5 34.5q40 0 69 -34.5t29 -86.5zM379 1317q0 -50 -29 -84.5t-69 -34.5q-42 0 -71.5 34.5t-29.5 84.5q0 52 29.5 86.5t71.5 34.5q40 0 69 -34.5
t29 -86.5z" />
    <glyph glyph-name="divide" unicode="&#xf7;" horiz-adv-x="866" 
d="M776 600h-688v197h688v-197zM555 272q0 -60 -34 -103.5t-81 -43.5q-49 0 -82.5 43t-33.5 104q0 59 33.5 101.5t82.5 42.5q47 0 81 -42.5t34 -101.5zM543 1133q0 -59 -34 -101.5t-81 -42.5t-81 42.5t-34 101.5t34 102t81 43t81 -43t34 -102z" />
    <glyph glyph-name="oslash" unicode="&#xf8;" horiz-adv-x="921" 
d="M805 1255l-111 -305q72 -69 114 -180.5t42 -257.5q0 -133 -32 -236.5t-87.5 -167t-127 -96t-154.5 -32.5q-43 0 -101 14l-67 -189h-197l104 287q-143 146 -143 420q0 132 33.5 237.5t90.5 170.5t128.5 99t151.5 34q33 0 83 -11l78 213h195zM633 514q0 100 -31 182
l-176 -487q8 -2 23 -2q85 0 134.5 88t49.5 219zM264 514q0 -86 21 -154l170 469h-6q-85 0 -135 -90t-50 -225z" />
    <glyph glyph-name="ugrave" unicode="&#xf9;" 
d="M780 0h-215v119q-100 -135 -192 -135q-127 0 -216 108.5t-89 261.5v678h221v-645q0 -40 4 -70.5t13.5 -57t29 -40.5t47.5 -14q73 0 174 149v678h223v-1032zM575 1116h-190l-301 309l6 25h246z" />
    <glyph glyph-name="uacute" unicode="&#xfa;" 
d="M780 0h-215v119q-100 -135 -192 -135q-127 0 -216 108.5t-89 261.5v678h221v-645q0 -40 4 -70.5t13.5 -57t29 -40.5t47.5 -14q73 0 174 149v678h223v-1032zM774 1436l-311 -297h-170l248 311h219z" />
    <glyph glyph-name="ucircumflex" unicode="&#xfb;" 
d="M780 0h-215v119q-100 -135 -192 -135q-127 0 -216 108.5t-89 261.5v678h221v-645q0 -40 4 -70.5t13.5 -57t29 -40.5t47.5 -14q73 0 174 149v678h223v-1032zM711 1153h-170l-107 139l-108 -139h-170l219 301h123z" />
    <glyph glyph-name="udieresis" unicode="&#xfc;" 
d="M780 0h-215v119q-100 -135 -192 -135q-127 0 -216 108.5t-89 261.5v678h221v-645q0 -40 4 -70.5t13.5 -57t29 -40.5t47.5 -14q73 0 174 149v678h223v-1032zM702 1317q0 -50 -29 -84.5t-69 -34.5t-69 34.5t-29 84.5q0 52 28 86.5t70 34.5q40 0 69 -34.5t29 -86.5z
M362 1317q0 -50 -29 -84.5t-69 -34.5q-42 0 -71 34t-29 85q0 52 29 86.5t71 34.5q40 0 69 -34.5t29 -86.5z" />
    <glyph glyph-name="yacute" unicode="&#xfd;" horiz-adv-x="894" 
d="M860 1032v-51l-350 -1202q-23 -73 -71.5 -118.5t-98 -60t-107.5 -14.5q-8 0 -143 6v218l141 -9q46 0 68.5 26t36.5 87l29 154q-61 157 -175 474t-161 443v47h229l213 -674l162 674h227zM813 1436l-311 -297h-170l248 311h219z" />
    <glyph glyph-name="thorn" unicode="&#xfe;" horiz-adv-x="907" 
d="M842 532q0 -251 -109 -401.5t-258 -150.5q-88 0 -178 100v-488h-225v1924h225v-539q35 35 80 55.5t86 20.5q73 0 141 -36t121 -101.5t85 -165.5t32 -218zM618 522q0 141 -45 223t-122 82q-43 0 -84 -28.5t-70 -73.5v-399l-2 2q32 -51 75 -86t83 -35q76 0 120.5 88.5
t44.5 226.5z" />
    <glyph glyph-name="ydieresis" unicode="&#xff;" horiz-adv-x="894" 
d="M860 1032v-51l-350 -1202q-23 -73 -71.5 -118.5t-98 -60t-107.5 -14.5q-8 0 -143 6v218l141 -9q46 0 68.5 26t36.5 87l29 154q-61 157 -175 474t-161 443v47h229l213 -674l162 674h227zM377 1317q0 -50 -29 -84.5t-69 -34.5q-42 0 -71.5 34.5t-29.5 84.5q0 52 29.5 86.5
t71.5 34.5q40 0 69 -34.5t29 -86.5zM717 1317q0 -50 -29.5 -84.5t-69.5 -34.5t-69 34.5t-29 84.5q0 52 28 86.5t70 34.5q41 0 70 -34.5t29 -86.5z" />
    <glyph glyph-name="Amacron" unicode="&#x100;" horiz-adv-x="1138" 
d="M1090 0h-244l-74 307h-434l-82 -307h-238l445 1456h201zM866 1616h-614v158h614v-158zM690 532l-133 566l-135 -566h268z" />
    <glyph glyph-name="amacron" unicode="&#x101;" horiz-adv-x="913" 
d="M860 8q0 -9 -76 -16q-56 0 -109 21.5t-81 72.5q-45 -56 -92 -78t-109 -22q-48 0 -95.5 13t-92 41t-79 68t-55 98.5t-20.5 127.5q0 73 20 132.5t53 99.5t78 67.5t94 40t101 12.5q36 0 82 -10t76 -25q0 -2 8 -2q0 113 -43.5 168t-116.5 55q-52 0 -121.5 -31.5t-129.5 -78.5
l-29 174q37 40 128.5 78.5t160.5 38.5q67 0 132 -26t119 -73.5t87.5 -123t33.5 -166.5v-388q0 -51 6 -70.5t23 -27.5q19 -6 47 8v-178zM563 227v256q-93 33 -149 33q-71 0 -107.5 -49t-36.5 -125q0 -75 33.5 -122.5t97.5 -47.5q110 0 162 55zM764 1251h-614v158h614v-158z
" />
    <glyph glyph-name="Aogonek" unicode="&#x104;" horiz-adv-x="1138" 
d="M1090 0h-109q-48 -23 -75 -73t-17 -97q9 -55 41 -55q20 0 65 19.5t92 53.5l3 -176q-60 -55 -177 -55q-76 0 -123 55.5t-47 137.5q0 68 28 123.5t73 82.5l-72 291h-434l-82 -307h-238l453 1454h186zM690 532l-133 570l-135 -570h268z" />
    <glyph glyph-name="aogonek" unicode="&#x105;" horiz-adv-x="913" 
d="M860 8q0 -9 -76 -16q-13 0 -41 4q-43 -23 -66.5 -60.5t-25.5 -80.5q-4 -78 49 -78q19 0 65 20t91 53l4 -176q-63 -55 -178 -55q-75 0 -122.5 56t-45.5 137q-1 74 38.5 134t102.5 85q-31 35 -43 65q-89 -110 -219 -110q-48 0 -95.5 13t-92 41t-79 68t-55 98.5t-20.5 127.5
q0 73 20 132.5t53 99.5t78 67.5t94 40t101 12.5q36 0 82 -10t76 -25q0 -2 8 -2q0 113 -43.5 168t-116.5 55q-52 0 -121.5 -31.5t-129.5 -78.5l-29 174q37 40 128.5 78.5t160.5 38.5q67 0 132 -26t119 -73.5t87.5 -123t33.5 -166.5v-357q0 -106 29 -119q17 -6 47 9v-189z
M563 227v256q-93 33 -149 33q-71 0 -107.5 -49t-36.5 -125q0 -75 33.5 -122.5t97.5 -47.5q110 0 162 55z" />
    <glyph glyph-name="Cacute" unicode="&#x106;" horiz-adv-x="1060" 
d="M1006 231q-32 -38 -59 -67t-71.5 -66.5t-88.5 -62t-104.5 -41.5t-123.5 -17q-103 0 -194.5 49t-162.5 141t-113 237t-42 325q0 166 44.5 309.5t117 237.5t163 147.5t183.5 53.5q263 0 438 -226l-104 -213q-41 49 -74 82t-73 62t-85 43t-96 14q-116 0 -196 -142t-80 -372
q0 -232 80.5 -374t195.5 -142q41 0 80.5 12.5t69.5 30t65.5 50t59 57.5t59.5 67zM922 1847l-312 -297h-170l248 312h219z" />
    <glyph glyph-name="cacute" unicode="&#x107;" horiz-adv-x="847" 
d="M776 911l-51 -194q-117 117 -268 117q-83 0 -134 -90.5t-51 -231.5q0 -130 51.5 -214.5t133.5 -84.5q70 0 128.5 25t121.5 79l59 -190q-140 -147 -309 -147q-84 0 -158 34.5t-131.5 99.5t-91 167t-33.5 229q0 133 33.5 238.5t91 171t131.5 99.5t158 34q171 0 319 -142z
M762 1436l-311 -297h-170l247 311h220z" />
    <glyph glyph-name="Ccaron" unicode="&#x10c;" horiz-adv-x="1060" 
d="M1006 231q-32 -38 -59 -67t-71.5 -66.5t-88.5 -62t-104.5 -41.5t-123.5 -17q-103 0 -194.5 49t-162.5 141t-113 237t-42 325q0 166 44.5 309.5t117 237.5t163 147.5t183.5 53.5q263 0 438 -226l-104 -213q-41 49 -74 82t-73 62t-85 43t-96 14q-116 0 -196 -142t-80 -372
q0 -232 80.5 -374t195.5 -142q41 0 80.5 12.5t69.5 30t65.5 50t59 57.5t59.5 67zM256 1849h170l106 -139l109 139h170l-219 -301h-123z" />
    <glyph glyph-name="ccaron" unicode="&#x10d;" horiz-adv-x="847" 
d="M776 911l-51 -194q-117 117 -268 117q-83 0 -134 -90.5t-51 -231.5q0 -130 51.5 -214.5t133.5 -84.5q70 0 128.5 25t121.5 79l59 -190q-140 -147 -309 -147q-84 0 -158 34.5t-131.5 99.5t-91 167t-33.5 229q0 133 33.5 238.5t91 171t131.5 99.5t158 34q171 0 319 -142z
M147 1450h170l107 -139l108 139h170l-219 -301h-123z" />
    <glyph glyph-name="Dcaron" unicode="&#x10e;" horiz-adv-x="1101" 
d="M1032 723q0 -333 -147.5 -528t-395.5 -195h-401v1450h444q228 0 364 -200t136 -527zM809 719q0 247 -78.5 378.5t-255.5 131.5h-145v-1006h141q157 0 247.5 134t90.5 362zM242 1837h170l106 -139l109 139h170l-219 -301h-123z" />
    <glyph glyph-name="dcaron" unicode="&#x10f;" horiz-adv-x="1138" 
d="M817 0h-219v84q-36 -44 -82 -72t-90 -28q-74 0 -143 34t-125.5 97.5t-90.5 165t-34 225.5q0 136 31.5 243t85.5 173t123 100.5t147 34.5q85 0 174 -86v545h223v-1516zM438 209q43 0 84.5 34t71.5 85v403q-29 46 -71 76.5t-85 30.5q-77 0 -129.5 -92t-52.5 -232
q0 -132 52.5 -218.5t129.5 -86.5zM1120 1513l-96 -444q-26 0 -76.5 1t-75.5 1l62 442h186z" />
    <glyph glyph-name="Dcroat" unicode="&#x110;" horiz-adv-x="1140" 
d="M1079 723q0 -333 -147 -528t-395 -195h-402v633h-151v192h151v623h445q151 0 264.5 -91t174 -255t60.5 -379zM604 633h-229v-410h143q156 0 247 134t91 362q0 246 -79 377t-255 131h-145v-402h227v-192z" />
    <glyph glyph-name="dcroat" unicode="&#x111;" horiz-adv-x="960" 
d="M817 0h-219v84q-36 -44 -82 -72t-90 -28q-74 0 -143 34t-125.5 97.5t-90.5 165t-34 225.5q0 136 31.5 243t85.5 173t123 100.5t147 34.5q85 0 174 -86v211h-162v186h162v148h223v-148h162v-186h-162v-1182zM594 326v405q-29 46 -71 76.5t-85 30.5q-77 0 -129.5 -92
t-52.5 -232q0 -132 52.5 -218.5t129.5 -86.5q43 0 84.5 33t71.5 84z" />
    <glyph glyph-name="Emacron" unicode="&#x112;" horiz-adv-x="952" 
d="M858 0h-784l4 1450h764v-225h-523q0 -65 -1 -195t-1 -194h443v-222h-441v-385h539v-229zM788 1622h-614v158h614v-158z" />
    <glyph glyph-name="emacron" unicode="&#x113;" 
d="M817 455h-553q14 -107 68 -184.5t119 -77.5q148 0 249 96l66 -174q-56 -57 -143 -95t-181 -38q-173 0 -288 139.5t-115 388.5q0 262 110.5 402.5t286.5 140.5q182 0 282 -155.5t99 -442.5zM436 862q-58 0 -106 -65.5t-58 -169.5h328q-3 42 -11.5 79.5t-25.5 74.5t-50 59
t-77 22zM739 1251h-614v158h614v-158z" />
    <glyph glyph-name="Edotaccent" unicode="&#x116;" horiz-adv-x="952" 
d="M858 0h-784l4 1450h764v-225h-523q0 -65 -1 -195t-1 -194h443v-222h-441v-385h539v-229zM582 1702q0 -55 -32 -92t-75 -37q-44 0 -75 36.5t-31 92.5t31 93.5t75 37.5q42 0 74.5 -37.5t32.5 -93.5z" />
    <glyph glyph-name="edotaccent" unicode="&#x117;" 
d="M817 455h-553q14 -107 68 -184.5t119 -77.5q148 0 249 96l66 -174q-56 -57 -143 -95t-181 -38q-173 0 -288 139.5t-115 388.5q0 262 110.5 402.5t286.5 140.5q182 0 282 -155.5t99 -442.5zM436 862q-58 0 -106 -65.5t-58 -169.5h328q-3 42 -11.5 79.5t-25.5 74.5t-50 59
t-77 22zM551 1284q0 -55 -32 -92t-75 -37q-44 0 -75 36.5t-31 92.5t31 93.5t75 37.5q42 0 74.5 -37.5t32.5 -93.5z" />
    <glyph glyph-name="Eogonek" unicode="&#x118;" horiz-adv-x="952" 
d="M854 0h-113q-46 -25 -72 -74t-16 -96q2 -20 12.5 -36.5t28.5 -16.5q19 0 65.5 19t92.5 52l2 -174q-65 -57 -178 -57q-76 0 -122 56t-48 137q3 120 86 190h-522l4 1448h764v-225h-523q0 -64 -1 -193.5t-1 -193.5h443v-222h-441v-385h539v-229z" />
    <glyph glyph-name="eogonek" unicode="&#x119;" 
d="M817 455h-545q14 -109 64.5 -185.5t114.5 -76.5q148 0 249 96l66 -174q-45 -51 -94 -82q-44 -27 -73 -74t-19 -90q9 -53 41 -53q19 0 65 19t92 52l2 -174q-65 -57 -176 -57q-76 0 -123 56t-47 136q0 78 41 134h-33q-173 0 -288 139.5t-115 388.5q0 262 110.5 402.5
t286.5 140.5q182 0 282 -155.5t99 -442.5zM436 858q-106 0 -151 -231h309q-14 231 -158 231z" />
    <glyph glyph-name="Ecaron" unicode="&#x11a;" horiz-adv-x="952" 
d="M858 0h-784l4 1450h764v-225h-523q0 -65 -1 -195t-1 -194h443v-222h-441v-385h539v-229zM203 1849h170l106 -139l109 139h170l-219 -301h-123z" />
    <glyph glyph-name="ecaron" unicode="&#x11b;" 
d="M817 455h-553q14 -107 68 -184.5t119 -77.5q148 0 249 96l66 -174q-56 -57 -143 -95t-181 -38q-173 0 -288 139.5t-115 388.5q0 262 110.5 402.5t286.5 140.5q182 0 282 -155.5t99 -442.5zM436 862q-58 0 -106 -65.5t-58 -169.5h328q-3 42 -11.5 79.5t-25.5 74.5t-50 59
t-77 22zM156 1450h170l106 -139l109 139h170l-219 -301h-123z" />
    <glyph glyph-name="Gcommaaccent" unicode="&#x122;" horiz-adv-x="1144" 
d="M1042 811v-594q-28 -40 -70.5 -79t-102 -76t-139.5 -59.5t-165 -22.5q-75 0 -148.5 30.5t-140 93.5t-118 150.5t-81.5 211t-30 265.5q0 141 31 263t82.5 209t118.5 149.5t140 92.5t146 30q135 0 242 -45q67 -30 141 -88t103 -101l-109 -184q-91 94 -178 138t-199 44
q-129 0 -211 -138t-82 -364q0 -233 84 -374.5t209 -141.5q68 0 138.5 35.5t121.5 91.5q0 41 1 122t1 122h-301v219h516zM745 -293q0 -55 -19.5 -97.5t-50 -66t-63.5 -34.5t-65 -11q-76 0 -150 58l31 120q59 -45 117 -45q39 0 54 25.5t15 54.5q0 35 -17.5 63t-45.5 25
q-25 -3 -43.5 -15.5t-18.5 -21.5l-40 91q4 3 13.5 11t13 11t12 10t12.5 9.5t11.5 7.5t12.5 7l12.5 5t13.5 4.5t13 2.5t15 1q58 0 112.5 -54.5t54.5 -160.5z" />
    <glyph glyph-name="gcommaaccent" unicode="&#x123;" horiz-adv-x="899" 
d="M819 1032v-991q0 -96 -24.5 -175.5t-64.5 -131.5t-92 -88t-106 -52t-108 -16q-78 0 -154 36t-127 85l43 174q47 -39 109 -66.5t108 -27.5q62 0 126.5 68.5t64.5 179.5v61q-33 -44 -78 -70t-90 -26q-73 0 -140.5 35t-121 98.5t-85.5 162.5t-32 218q0 125 33.5 231t87 173
t116.5 104t124 37q45 0 100.5 -30t85.5 -73v84h225zM594 319v400q-11 7 -40.5 36t-58.5 48.5t-55 19.5q-77 0 -122.5 -85t-45.5 -222t46 -224t122 -87q42 0 83.5 32t70.5 82zM227 1321q0 55 19.5 98t50 66t63 34t64.5 11q80 0 149 -57l-30 -121q-59 45 -115 45
q-39 0 -55.5 -26t-16.5 -54q0 -35 19 -63t47 -25q25 3 42 15.5t17 21.5l41 -90q-3 -3 -18.5 -16t-19 -15.5t-16 -12t-18.5 -12t-16 -7t-19.5 -6t-19.5 -1.5q-26 0 -53.5 12t-54 36t-43.5 67.5t-17 99.5z" />
    <glyph glyph-name="Imacron" unicode="&#x12a;" horiz-adv-x="448" 
d="M336 0h-244v1450h244v-1450zM535 1593h-635v168h635v-168z" />
    <glyph glyph-name="imacron" unicode="&#x12b;" horiz-adv-x="374" 
d="M279 0h-220v1032h220v-1032zM487 1237h-634v168h634v-168z" />
    <glyph glyph-name="Iogonek" unicode="&#x12e;" horiz-adv-x="446" 
d="M336 0h-119q-43 -24 -67.5 -73.5t-14.5 -96.5q2 -22 12 -38.5t29 -16.5q20 0 65.5 19.5t90.5 53.5l4 -176q-63 -55 -178 -55q-76 0 -123 56t-45 137q-1 61 27 113.5t75 84.5v1442h244v-1450z" />
    <glyph glyph-name="iogonek" unicode="&#x12f;" horiz-adv-x="337" 
d="M272 0q-82 -10 -142 -61t-60 -109q0 -20 11 -38.5t30 -18.5t65 19t92 52l2 -174q-65 -57 -178 -57q-76 0 -122 55.5t-48 136.5q1 66 37.5 121.5t93.5 85.5v1020h219v-1032zM276 1346q0 -55 -34 -92t-78 -37q-43 0 -77 37t-34 92q0 54 33.5 92.5t77.5 38.5t78 -38.5
t34 -92.5z" />
    <glyph glyph-name="dotlessi" unicode="&#x131;" horiz-adv-x="374" 
d="M279 0h-220v1032h220v-1032z" />
    <glyph glyph-name="Kcommaaccent" unicode="&#x136;" horiz-adv-x="1005" 
d="M965 0h-267l-276 686l-107 -201v-485h-243v1450h243v-635q75 127 381 635h246v-31l-362 -545q43 -95 178.5 -388.5t206.5 -452.5v-33zM674 -233q0 -55 -19.5 -97.5t-50.5 -66t-64 -34.5t-65 -11q-78 0 -147 57l28 121q59 -45 117 -45q39 0 54.5 25.5t15.5 54.5
q0 35 -18 63t-46 25q-25 -3 -43 -15.5t-18 -21.5l-41 90q3 2 13.5 11t13.5 11.5l12 10t12.5 9.5t12 7.5t13 7.5t12 5.5t13 4.5t13 2t14.5 1q58 0 113 -54.5t55 -160.5z" />
    <glyph glyph-name="kcommaaccent" unicode="&#x137;" horiz-adv-x="813" 
d="M778 0h-229l-215 492l-25 -58q-18 -54 -20 -59v-375h-221q0 252 -1 757.5t-1 758.5h223v-865l241 381h238l-2 -31l-266 -346q36 -82 132.5 -298.5t145.5 -329.5v-27zM580 -262q0 -55 -19.5 -97.5t-50 -65.5t-63 -34.5t-64.5 -11.5q-77 0 -150 57l29 123q59 -45 117 -45
q39 0 54.5 24.5t15.5 53.5q0 35 -18 63t-46 25q-26 -3 -43.5 -15t-17.5 -22l-39 90q25 22 33.5 28.5t27 20t33.5 17.5t33 4q26 0 53.5 -12t54 -36t43.5 -67.5t17 -99.5z" />
    <glyph glyph-name="Lacute" unicode="&#x139;" horiz-adv-x="956" 
d="M883 0h-811v1450h241v-1212h570v-238zM573 1874l-333 -338h-148l248 352h219z" />
    <glyph glyph-name="lacute" unicode="&#x13a;" horiz-adv-x="391" 
d="M297 0h-223v1516h223v-1516zM553 1933l-332 -338h-149l250 353h217z" />
    <glyph glyph-name="Lcommaaccent" unicode="&#x13b;" horiz-adv-x="956" 
d="M883 0h-811v1450h241v-1212h570v-238zM604 -256q0 -97 -66.5 -202t-152.5 -152l-45 108q24 26 58.5 79t47.5 89l-6 2q-44 0 -65 36t-21 85q0 56 39.5 91.5t83.5 35.5q55 0 91 -49t36 -123z" />
    <glyph glyph-name="lcommaaccent" unicode="&#x13c;" horiz-adv-x="391" 
d="M297 0h-223v1516h223v-1516zM322 -240q0 -97 -67 -202t-153 -152l-45 109q25 26 60 79.5t47 88.5l-6 2q-44 0 -65 35.5t-21 84.5q0 56 39.5 91.5t83.5 35.5q55 0 91 -49t36 -123z" />
    <glyph glyph-name="Lcaron" unicode="&#x13d;" horiz-adv-x="956" 
d="M883 0h-811v1450h241v-1212h570v-238zM635 1448l-96 -444l-152 2l62 442h186z" />
    <glyph glyph-name="lcaron" unicode="&#x13e;" horiz-adv-x="655" 
d="M297 0h-225v1516h225v-1516zM625 1513l-99 -444l-151 2l61 442h189z" />
    <glyph glyph-name="Lslash" unicode="&#x141;" horiz-adv-x="995" 
d="M942 0h-829v586q-12 -9 -47.5 -39.5t-51.5 -40.5v190l99 82v672h241v-545q24 22 73.5 63t57.5 48v-193l-131 -114v-471h588v-238z" />
    <glyph glyph-name="lslash" unicode="&#x142;" horiz-adv-x="448" 
d="M459 1012v-187l-121 -98v-727h-225v610q-20 -10 -60.5 -41.5t-60.5 -42.5v191l121 88v711h225v-594q17 15 37.5 30t45.5 32.5t38 27.5z" />
    <glyph glyph-name="Nacute" unicode="&#x143;" horiz-adv-x="1083" 
d="M981 0h-143l-525 891q0 -161 -1 -446.5t-1 -444.5h-233v1450h155l517 -862v862h231v-1450zM848 1810l-311 -297h-170l247 312h220z" />
    <glyph glyph-name="nacute" unicode="&#x144;" horiz-adv-x="868" 
d="M780 0h-223v618q0 118 -18 169t-74 51q-40 0 -86.5 -45.5t-87.5 -112.5v-680h-225v1032h225v-121q90 140 190 140q136 0 217.5 -102.5t81.5 -295.5v-653zM786 1436l-311 -297h-170l248 311h219z" />
    <glyph glyph-name="Ncommaaccent" unicode="&#x145;" horiz-adv-x="1083" 
d="M981 0h-143l-525 891q0 -161 -1 -446.5t-1 -444.5h-233v1450h155l517 -862v862h231v-1450zM686 -197q0 -97 -66.5 -202t-152.5 -152l-45 109q24 26 58.5 79t47.5 89l-6 2q-44 0 -65 35.5t-21 84.5q0 56 39.5 91.5t83.5 35.5q55 0 91 -49t36 -123z" />
    <glyph glyph-name="ncommaaccent" unicode="&#x146;" horiz-adv-x="868" 
d="M780 0h-223v618q0 118 -18 169t-74 51q-40 0 -86.5 -45.5t-87.5 -112.5v-680h-225v1032h225v-121q90 140 190 140q136 0 217.5 -102.5t81.5 -295.5v-653zM565 -240q0 -97 -66.5 -202t-152.5 -152l-45 109q25 26 60 79.5t47 88.5l-7 2q-44 0 -65 35.5t-21 84.5
q0 56 39.5 91.5t83.5 35.5q55 0 91 -49t36 -123z" />
    <glyph glyph-name="Ncaron" unicode="&#x147;" horiz-adv-x="1083" 
d="M981 0h-143l-525 891q0 -161 -1 -446.5t-1 -444.5h-233v1450h155l517 -862v862h231v-1450zM236 1819h170l106 -140l109 140h170l-220 -301h-122z" />
    <glyph glyph-name="ncaron" unicode="&#x148;" horiz-adv-x="868" 
d="M780 0h-223v618q0 118 -18 169t-74 51q-40 0 -86.5 -45.5t-87.5 -112.5v-680h-225v1032h225v-121q90 140 190 140q136 0 217.5 -102.5t81.5 -295.5v-653zM158 1450h170l106 -139l109 139h170l-219 -301h-123z" />
    <glyph glyph-name="Omacron" unicode="&#x14c;" horiz-adv-x="1200" 
d="M1141 721q0 -174 -43 -318t-117.5 -238.5t-173.5 -146t-211 -51.5t-210.5 52t-173 147.5t-118 240t-43.5 318.5q0 355 153 557.5t392 202.5q111 0 210.5 -53.5t173.5 -150.5t117.5 -242t43.5 -318zM911 721q0 150 -31.5 265t-104.5 187t-179 72q-83 0 -145 -40.5
t-98.5 -113t-54 -165t-17.5 -205.5q0 -147 31 -259.5t104 -183.5t180 -71q108 0 180 70t103.5 182.5t31.5 261.5zM899 1606h-614v157h614v-157z" />
    <glyph glyph-name="omacron" unicode="&#x14d;" horiz-adv-x="921" 
d="M850 512q0 -133 -32 -236.5t-87.5 -167t-127 -96t-154.5 -32.5q-80 0 -151.5 34t-128.5 98.5t-90.5 168t-33.5 231.5q0 132 33.5 237.5t90.5 170.5t128.5 99t151.5 34t151.5 -35t127.5 -101t89 -171t33 -234zM633 514q0 134 -49.5 224.5t-134.5 90.5t-135 -90t-50 -225
q0 -130 50 -218.5t135 -88.5t134.5 88t49.5 219zM768 1251h-614v158h614v-158z" />
    <glyph glyph-name="Ohungarumlaut" unicode="&#x150;" horiz-adv-x="1200" 
d="M1141 721q0 -174 -43 -318t-117.5 -238.5t-173.5 -146t-211 -51.5t-210.5 52t-173 147.5t-118 240t-43.5 318.5q0 355 153 557.5t392 202.5q111 0 210.5 -53.5t173.5 -150.5t117.5 -242t43.5 -318zM911 721q0 150 -31.5 265t-104.5 187t-179 72q-83 0 -145 -40.5
t-98.5 -113t-54 -165t-17.5 -205.5q0 -147 31 -259.5t104 -183.5t180 -71q108 0 180 70t103.5 182.5t31.5 261.5zM1067 1868l-276 -312h-168l225 312h219zM745 1868l-264 -312h-164l209 312h219z" />
    <glyph glyph-name="ohungarumlaut" unicode="&#x151;" horiz-adv-x="921" 
d="M850 512q0 -133 -32 -236.5t-87.5 -167t-127 -96t-154.5 -32.5q-80 0 -151.5 34t-128.5 98.5t-90.5 168t-33.5 231.5q0 132 33.5 237.5t90.5 170.5t128.5 99t151.5 34t151.5 -35t127.5 -101t89 -171t33 -234zM633 514q0 134 -49.5 224.5t-134.5 90.5t-135 -90t-50 -225
q0 -130 50 -218.5t135 -88.5t134.5 88t49.5 219zM913 1450l-276 -311h-168l225 311h219zM592 1450l-264 -311h-164l209 311h219z" />
    <glyph glyph-name="OE" unicode="&#x152;" horiz-adv-x="1728" 
d="M1661 -2h-891q-94 -33 -190 -33q-102 0 -200 52.5t-177 146.5t-127.5 239.5t-48.5 317.5q0 142 31.5 266t85.5 214.5t124.5 155.5t150.5 97.5t161 32.5q96 0 188 -37h879v-227h-603q67 -167 82 -402h439v-223h-441q-22 -228 -73 -371h610v-229zM913 721q0 145 -40 263
t-116.5 188.5t-176.5 70.5q-149 0 -240.5 -149.5t-91.5 -372.5q0 -142 40 -258t116.5 -185t175.5 -69q100 0 176.5 68.5t116.5 184t40 259.5z" />
    <glyph glyph-name="oe" unicode="&#x153;" horiz-adv-x="1456" 
d="M1403 436h-531q19 -106 68 -174.5t111 -68.5q154 0 266 106l72 -168q-66 -61 -158.5 -104t-181.5 -43q-79 0 -155.5 35t-133.5 102q-116 -137 -301 -137q-80 0 -155.5 36.5t-136 102t-97.5 167t-37 222.5q0 125 36.5 228.5t97 169.5t136 102.5t156.5 36.5q179 0 293 -136
q56 67 130.5 102.5t153.5 35.5q367 0 367 -615zM670 367q0 88 -6 178q-12 126 -50 209q-59 84 -155 84q-94 0 -151.5 -93.5t-57.5 -230.5q0 -133 57.5 -224t151.5 -91q96 0 153.5 47t57.5 121zM1036 852q-53 0 -91.5 -61t-59.5 -170h313q-18 231 -162 231z" />
    <glyph glyph-name="Racute" unicode="&#x154;" horiz-adv-x="1015" 
d="M940 0h-242l-313 578h-74v-578h-237q0 242 -1 725t-1 725h495q162 0 256.5 -114.5t94.5 -313.5q0 -161 -83.5 -282.5t-193.5 -145.5l299 -563v-31zM684 1020q0 93 -39 148t-115 55h-219v-412h217q75 0 115.5 59t40.5 150zM817 1823l-311 -297h-170l248 311h219z" />
    <glyph glyph-name="racute" unicode="&#x155;" horiz-adv-x="630" 
d="M567 1026l-4 -272h-33q-1 1 -5.5 6.5t-7.5 8.5t-8.5 9.5t-10 10t-10.5 8.5t-11.5 7.5t-11.5 4t-12 0.5q-94 -22 -160 -180v-629h-225v1032h225v-137q30 63 77.5 109.5t100.5 46.5q68 0 96 -25zM557 1436l-311 -297h-170l248 311h219z" />
    <glyph glyph-name="Rcommaaccent" unicode="&#x156;" horiz-adv-x="1015" 
d="M940 0h-242l-313 578h-74v-578h-237q0 242 -1 725t-1 725h495q162 0 256.5 -114.5t94.5 -313.5q0 -161 -83.5 -282.5t-193.5 -145.5l299 -563v-31zM684 1020q0 93 -39 148t-115 55h-219v-412h217q75 0 115.5 59t40.5 150zM643 -203q0 -97 -66.5 -202t-152.5 -152l-45 108
q24 26 58.5 79t47.5 89l-6 2q-44 0 -65 36t-21 85q0 56 39.5 91.5t83.5 35.5q55 0 91 -49t36 -123z" />
    <glyph glyph-name="rcommaaccent" unicode="&#x157;" horiz-adv-x="630" 
d="M567 1026l-4 -272h-33q-1 1 -5.5 6.5t-7.5 8.5t-8.5 9.5t-10 10t-10.5 8.5t-11.5 7.5t-11.5 4t-12 0.5q-94 -22 -160 -180v-629h-225v1032h225v-137q30 63 77.5 109.5t100.5 46.5q68 0 96 -25zM444 -227q0 -97 -66.5 -202.5t-152.5 -152.5l-45 109q25 26 60 79.5t47 88.5
l-6 2q-44 0 -65 36t-21 85q0 56 39 91.5t83 35.5q55 0 91 -49t36 -123z" />
    <glyph glyph-name="Rcaron" unicode="&#x158;" horiz-adv-x="1015" 
d="M940 0h-242l-313 578h-74v-578h-237q0 242 -1 725t-1 725h495q162 0 256.5 -114.5t94.5 -313.5q0 -161 -83.5 -282.5t-193.5 -145.5l299 -563v-31zM684 1020q0 93 -39 148t-115 55h-219v-412h217q75 0 115.5 59t40.5 150zM190 1829h170l107 -139l108 139h170l-219 -301
h-123z" />
    <glyph glyph-name="rcaron" unicode="&#x159;" horiz-adv-x="630" 
d="M567 1026l-4 -272h-33q-1 1 -5.5 6.5t-7.5 8.5t-8.5 9.5t-10 10t-10.5 8.5t-11.5 7.5t-11.5 4t-12 0.5q-94 -22 -160 -180v-629h-225v1032h225v-137q30 63 77.5 109.5t100.5 46.5q68 0 96 -25zM39 1450h170l106 -139l109 139h170l-219 -301h-123z" />
    <glyph glyph-name="Sacute" unicode="&#x15a;" horiz-adv-x="983" 
d="M915 432q0 -105 -30.5 -187.5t-76.5 -131.5t-107.5 -81t-117.5 -43.5t-112 -11.5q-111 0 -199 43t-217 148l76 213q126 -91 198.5 -130.5t127.5 -39.5q42 0 82 12.5t75 37.5t56.5 69.5t21.5 101.5q0 38 -13 68t-31 48t-47 33t-49.5 21.5t-50.5 15t-40 11.5q-47 10 -79 18
t-78.5 25t-78.5 36t-67.5 50.5t-57 69.5t-35.5 92.5t-14 119.5q0 101 30 180t75 126t104.5 78t113 42t105.5 11q204 0 418 -193l-72 -197q-187 158 -346 158q-207 0 -207 -196q0 -110 148 -160q21 -5 64.5 -12.5t77.5 -13.5t80.5 -20t82.5 -32.5t73 -52t61.5 -76.5t40 -107
t15.5 -143zM811 1847l-311 -297h-170l248 312h219z" />
    <glyph glyph-name="sacute" unicode="&#x15b;" horiz-adv-x="776" 
d="M721 309q0 -82 -24 -143.5t-59.5 -95t-84.5 -54t-89 -26.5t-83 -6q-90 0 -163.5 35.5t-172.5 115.5l61 176q134 -137 275 -137q46 0 87.5 30.5t41.5 94.5q0 30 -15.5 52.5t-38 33.5t-40.5 16t-29 5q-34 0 -64.5 3.5t-73 12.5t-76.5 30t-65 52.5t-48 83t-17 117.5
q0 84 23 148t57.5 100.5t82.5 59.5t90.5 30.5t88.5 7.5q102 0 169.5 -32.5t135.5 -109.5l-63 -172q-59 65 -115 95t-127 30q-15 0 -36 -6.5t-46.5 -21t-43 -43.5t-17.5 -68q0 -28 18.5 -49t45 -30.5t47.5 -14t34 -4.5q27 0 53.5 -2.5t61 -11.5t64 -22.5t59 -38t50 -56.5
t33.5 -79.5t13 -105.5zM709 1436l-312 -297h-170l248 311h219z" />
    <glyph glyph-name="Scaron" unicode="&#x160;" horiz-adv-x="983" 
d="M915 432q0 -105 -30.5 -187.5t-76.5 -131.5t-107.5 -81t-117.5 -43.5t-112 -11.5q-111 0 -199 43t-217 148l76 213q126 -91 198.5 -130.5t127.5 -39.5q42 0 82 12.5t75 37.5t56.5 69.5t21.5 101.5q0 38 -13 68t-31 48t-47 33t-49.5 21.5t-50.5 15t-40 11.5q-47 10 -79 18
t-78.5 25t-78.5 36t-67.5 50.5t-57 69.5t-35.5 92.5t-14 119.5q0 101 30 180t75 126t104.5 78t113 42t105.5 11q204 0 418 -193l-72 -197q-187 158 -346 158q-207 0 -207 -196q0 -110 148 -160q21 -5 64.5 -12.5t77.5 -13.5t80.5 -20t82.5 -32.5t73 -52t61.5 -76.5t40 -107
t15.5 -143zM217 1860h170l107 -140l108 140h170l-219 -301h-123z" />
    <glyph glyph-name="scaron" unicode="&#x161;" horiz-adv-x="827" 
d="M721 309q0 -82 -24 -143.5t-59.5 -95t-84.5 -54t-89 -26.5t-83 -6q-90 0 -163.5 35.5t-172.5 115.5l61 176q134 -137 275 -137q46 0 87.5 30.5t41.5 94.5q0 30 -15.5 52.5t-38 33.5t-40.5 16t-29 5q-34 0 -64.5 3.5t-73 12.5t-76.5 30t-65 52.5t-48 83t-17 117.5
q0 84 23 148t57.5 100.5t82.5 59.5t90.5 30.5t88.5 7.5q102 0 169.5 -32.5t135.5 -109.5l-63 -172q-59 65 -115 95t-127 30q-15 0 -36 -6.5t-46.5 -21t-43 -43.5t-17.5 -68q0 -28 18.5 -49t45 -30.5t47.5 -14t34 -4.5q27 0 53.5 -2.5t61 -11.5t64 -22.5t59 -38t50 -56.5
t33.5 -79.5t13 -105.5zM125 1450h170l106 -139l109 139h170l-219 -301h-123z" />
    <glyph glyph-name="Tcaron" unicode="&#x164;" horiz-adv-x="1017" 
d="M983 1223h-352v-1223h-246v1223h-352v227h950v-227zM780 1858l-213 -299h-123l-219 299h172l109 -150l108 150h166z" />
    <glyph glyph-name="tcaron" unicode="&#x165;" horiz-adv-x="700" 
d="M594 324l61 -195q-44 -58 -115 -95.5t-126 -37.5q-90 0 -168 78q-47 48 -79 136t-32 173v457h-104v192h104v211l223 121v-332h250v-192h-250v-422q0 -101 31 -152q21 -35 57 -35q18 0 65.5 26t82.5 67zM717 1513l-117 -397l-151 2l81 395h187z" />
    <glyph glyph-name="Umacron" unicode="&#x16a;" horiz-adv-x="1120" 
d="M1034 690q0 -356 -116 -532t-361 -176q-488 0 -485 694q0 121 1 387t1 387h235l2 -717q0 -265 59.5 -385.5t186.5 -120.5q238 0 238 512v711h239v-760zM860 1593h-614v158h614v-158z" />
    <glyph glyph-name="umacron" unicode="&#x16b;" 
d="M780 0h-215v119q-100 -135 -192 -135q-127 0 -216 108.5t-89 261.5v678h221v-645q0 -40 4 -70.5t13.5 -57t29 -40.5t47.5 -14q73 0 174 149v678h223v-1032zM739 1251h-614v158h614v-158z" />
    <glyph glyph-name="Uring" unicode="&#x16e;" horiz-adv-x="1120" 
d="M1034 690q0 -356 -116 -532t-361 -176q-488 0 -485 694q0 121 1 387t1 387h235l2 -717q0 -265 59.5 -385.5t186.5 -120.5q238 0 238 512v711h239v-760zM764 1782q0 -112 -53.5 -188t-151.5 -76t-150.5 75.5t-52.5 188.5q0 112 52 188t151 76q98 0 151.5 -76.5
t53.5 -187.5zM645 1782q0 57 -23.5 97t-64.5 40q-40 0 -63 -40t-23 -97q0 -56 24.5 -96.5t61.5 -40.5q43 0 65.5 39.5t22.5 97.5z" />
    <glyph glyph-name="uring" unicode="&#x16f;" 
d="M780 0h-215v119q-100 -135 -192 -135q-127 0 -216 108.5t-89 261.5v678h221v-645q0 -40 4 -70.5t13.5 -57t29 -40.5t47.5 -14q73 0 174 149v678h223v-1032zM637 1364q0 -112 -53.5 -188t-151.5 -76t-150.5 75.5t-52.5 188.5q0 112 52 188t151 76q98 0 151.5 -76.5
t53.5 -187.5zM518 1364q0 57 -23.5 97t-64.5 40q-40 0 -63 -40t-23 -97q0 -56 24.5 -96.5t61.5 -40.5q43 0 65.5 39.5t22.5 97.5z" />
    <glyph glyph-name="Uhungarumlaut" unicode="&#x170;" horiz-adv-x="1120" 
d="M1034 690q0 -356 -116 -532t-361 -176q-488 0 -485 694q0 121 1 387t1 387h235l2 -717q0 -265 59.5 -385.5t186.5 -120.5q238 0 238 512v711h239v-760zM1065 1845l-277 -311h-167l225 311h219zM743 1845l-264 -311h-164l209 311h219z" />
    <glyph glyph-name="uhungarumlaut" unicode="&#x171;" 
d="M780 0h-215v119q-100 -135 -192 -135q-127 0 -216 108.5t-89 261.5v678h221v-645q0 -40 4 -70.5t13.5 -57t29 -40.5t47.5 -14q73 0 174 149v678h223v-1032zM848 1450l-277 -311h-168l226 311h219zM526 1450l-264 -311h-164l209 311h219z" />
    <glyph glyph-name="Uogonek" unicode="&#x172;" horiz-adv-x="1120" 
d="M1034 731q0 -246 -70.5 -420t-199.5 -258l2 -2q-50 -10 -77.5 -68t-20.5 -104q9 -55 41 -55q20 0 65 20t92 54l4 -177q-66 -55 -178 -55q-76 0 -123 55.5t-47 137.5q0 64 41 125q-1 0 -3 -1t-3 -1q-227 0 -357 198t-128 537q0 121 1 366.5t1 366.5h235q0 -120 1 -358.5
t1 -358.5q0 -257 66 -381.5t180 -124.5q105 0 171.5 132t66.5 380v711h239v-719z" />
    <glyph glyph-name="uogonek" unicode="&#x173;" 
d="M776 0h-104q-50 -24 -78.5 -73.5t-18.5 -98.5q9 -53 41 -53q19 0 65.5 19t90.5 52l4 -174q-41 -46 -112 -53q-29 -2 -66 4q-75 9 -121.5 62t-46.5 122q-1 66 35.5 122t95.5 85v105q-44 -60 -89 -97.5t-99 -37.5q-128 0 -216.5 108.5t-88.5 261.5v678h221v-645
q0 -182 94 -182q69 0 170 149v678h223v-1032z" />
    <glyph glyph-name="Ydieresis" unicode="&#x178;" horiz-adv-x="1034" 
d="M995 1413l-354 -864v-549h-246v561q-252 603 -354 852v37h238l256 -662l239 662h221v-37zM446 1647q0 -50 -29 -84.5t-69 -34.5q-42 0 -71 34t-29 85q0 52 29 86t71 34q40 0 69 -34t29 -86zM786 1647q0 -50 -29 -84.5t-69 -34.5t-69 34.5t-29 84.5q0 52 28 86t70 34
q40 0 69 -34t29 -86z" />
    <glyph glyph-name="Zacute" unicode="&#x179;" horiz-adv-x="974" 
d="M911 1286l-534 -1063h514v-223h-840l2 162l541 1067h-528v221h845v-164zM836 1817l-312 -297h-170l248 311h219z" />
    <glyph glyph-name="zacute" unicode="&#x17a;" horiz-adv-x="817" 
d="M745 926l-385 -715h385v-211h-692v94l404 727h-404v211h692v-106zM731 1436l-311 -297h-170l248 311h219z" />
    <glyph glyph-name="Zdotaccent" unicode="&#x17b;" horiz-adv-x="974" 
d="M911 1286l-534 -1063h514v-223h-840l2 162l541 1067h-528v221h845v-164zM594 1702q0 -55 -32 -92t-75 -37q-44 0 -75 36.5t-31 92.5t31 93.5t75 37.5q42 0 74.5 -37.5t32.5 -93.5z" />
    <glyph glyph-name="zdotaccent" unicode="&#x17c;" horiz-adv-x="817" 
d="M745 926l-385 -715h385v-211h-692v94l404 727h-404v211h692v-106zM514 1284q0 -55 -31.5 -92t-74.5 -37q-44 0 -75.5 36.5t-31.5 92.5t31.5 93.5t75.5 37.5q42 0 74 -37.5t32 -93.5z" />
    <glyph glyph-name="Zcaron" unicode="&#x17d;" horiz-adv-x="974" 
d="M911 1286l-534 -1063h514v-223h-840l2 162l541 1067h-528v221h845v-164zM207 1835h170l106 -139l109 139h170l-219 -301h-123z" />
    <glyph glyph-name="zcaron" unicode="&#x17e;" horiz-adv-x="817" 
d="M745 926l-385 -715h385v-211h-692v94l404 727h-404v211h692v-106zM123 1450h170l106 -139l109 139h170l-219 -301h-123z" />
    <glyph glyph-name="florin" unicode="&#x192;" horiz-adv-x="542" 
d="M524 1495l-24 -217q-57 31 -99 31q-41 0 -63.5 -39t-22.5 -135v-103h181v-192h-179v-858q0 -96 -30.5 -183t-95.5 -148t-152 -67q-53 -3 -131 21l22 223q52 -11 76 -8q28 2 46.5 18t27 44.5t11.5 56.5t3 67v834h-94v192h94v146q0 64 19.5 125.5t56.5 113.5t97 83.5
t134 31.5q60 0 123 -37z" />
    <glyph glyph-name="circumflex" unicode="&#x2c6;" horiz-adv-x="1142" 
d="M831 1153h-169l-107 139l-109 -139h-170l220 301h122z" />
    <glyph glyph-name="caron" unicode="&#x2c7;" horiz-adv-x="1140" 
d="M283 1450h170l106 -139l109 139h170l-220 -301h-122z" />
    <glyph glyph-name="breve" unicode="&#x2d8;" horiz-adv-x="833" 
d="M551 1450h111q-9 -100 -83 -182t-165 -82q-96 0 -169 79t-79 185h110q25 -115 138 -115q93 0 137 115z" />
    <glyph glyph-name="dotaccent" unicode="&#x2d9;" horiz-adv-x="339" 
d="M272 1284q0 -55 -31.5 -92t-74.5 -37q-44 0 -75.5 36.5t-31.5 92.5t31.5 93.5t75.5 37.5q42 0 74 -37.5t32 -93.5z" />
    <glyph glyph-name="ring" unicode="&#x2da;" horiz-adv-x="1058" 
d="M743 1364q0 -113 -53 -188.5t-151 -75.5t-150.5 75.5t-52.5 188.5q0 112 52 188t151 76q98 0 151 -76.5t53 -187.5zM625 1364q0 57 -23.5 97t-64.5 40q-40 0 -63 -40t-23 -97q0 -56 24.5 -96.5t61.5 -40.5q43 0 65.5 39.5t22.5 97.5z" />
    <glyph glyph-name="ogonek" unicode="&#x2db;" horiz-adv-x="653" 
d="M319 41l93 -31q-50 -22 -79 -73.5t-20 -100.5q9 -53 41 -53q20 0 65.5 19t92.5 53l2 -174q-64 -58 -176 -58q-76 0 -123 56t-47 137q0 76 43 138.5t108 86.5z" />
    <glyph glyph-name="tilde" unicode="&#x2dc;" horiz-adv-x="874" 
d="M627 1419h98q6 -40 -11 -98.5t-60 -108t-99 -49.5q-33 0 -70.5 15.5t-64.5 34t-57 34t-50 15.5q-34 0 -46 -21.5t-17 -73.5h-105q-9 27 -1 72t23.5 87.5t53 74t86.5 31.5q44 0 91 -25t87 -49.5t66 -24.5q33 0 50.5 21t25.5 65z" />
    <glyph glyph-name="hungarumlaut" unicode="&#x2dd;" horiz-adv-x="991" 
d="M864 1450l-276 -311h-168l225 311h219zM543 1450l-264 -311h-164l209 311h219z" />
    <glyph glyph-name="Delta" unicode="&#x394;" horiz-adv-x="1071" 
d="M33 0l430 1454h162l411 -1454h-1003zM535 1135l-250 -938h491q-27 106 -75 295.5t-88.5 347t-77.5 295.5z" />
    <glyph glyph-name="Delta" unicode="&#x2206;" horiz-adv-x="1071" 
d="M33 0l430 1454h162l411 -1454h-1003zM535 1135l-250 -938h491q-27 106 -75 295.5t-88.5 347t-77.5 295.5z" />
    <glyph glyph-name="Omega" unicode="&#x3a9;" horiz-adv-x="1290" 
d="M1171 727q0 -313 -112 -526h166v-203h-480v133q121 150 164 284t43 312q0 139 -37 257t-108.5 191.5t-163.5 73.5t-163.5 -73.5t-108.5 -192t-37 -256.5q0 -171 44 -309t159 -283v-135h-471v201h165q-114 211 -114 526q0 192 67 358t189 267.5t270 101.5
q149 0 271.5 -101.5t189.5 -267.5t67 -358z" />
    <glyph glyph-name="Omega" unicode="&#x2126;" horiz-adv-x="1290" 
d="M1171 727q0 -313 -112 -526h166v-203h-480v133q121 150 164 284t43 312q0 139 -37 257t-108.5 191.5t-163.5 73.5t-163.5 -73.5t-108.5 -192t-37 -256.5q0 -171 44 -309t159 -283v-135h-471v201h165q-114 211 -114 526q0 192 67 358t189 267.5t270 101.5
q149 0 271.5 -101.5t189.5 -267.5t67 -358z" />
    <glyph glyph-name="pi" unicode="&#x3c0;" horiz-adv-x="980" 
d="M793 0h-175l-2 870h-266v-870h-172v870h-151v162h911v-162h-147z" />
    <glyph glyph-name="afii10023" unicode="&#x401;" horiz-adv-x="952" 
d="M854 0h-784l4 1448h764v-225h-523q0 -64 -1 -193.5t-1 -193.5h443v-222h-441v-385h539v-229zM705 1690q0 -50 -29.5 -84.5t-71.5 -34.5q-40 0 -69 34.5t-29 84.5q0 52 29 86t69 34q42 0 71.5 -34t29.5 -86zM406 1690q0 -50 -29.5 -84.5t-69.5 -34.5q-42 0 -71 34t-29 85
q0 52 29 86t71 34q41 0 70 -34t29 -86z" />
    <glyph glyph-name="afii10051" unicode="&#x402;" horiz-adv-x="1134" 
d="M909 1235h-374v-338q39 48 93.5 83.5t98.5 35.5q161 0 241 -100.5t79 -321.5q0 -107 1 -311.5t1 -309.5q0 -173 -91 -278t-223 -105q-58 0 -170 37l29 207q54 -18 90 -22q29 -6 41 16q38 11 60 56t24 100v520q0 17 0.5 49t0.5 48.5t-1 43t-3.5 41t-7 34t-12 29.5
t-18.5 20.5t-26.5 14.5t-34.5 4q-36 0 -83 -43.5t-89 -107.5v-637h-240v1235h-279v215h893v-215z" />
    <glyph glyph-name="afii10052" unicode="&#x403;" horiz-adv-x="899" 
d="M78 1448h799v-231h-553v-1215h-246v1446zM782 1870l-331 -338h-150l250 352h219z" />
    <glyph glyph-name="afii10053" unicode="&#x404;" horiz-adv-x="1048" 
d="M915 371l109 -195q-218 -201 -438 -201q-112 0 -210.5 49.5t-173.5 142.5t-118 237.5t-43 322.5q0 166 44 308.5t118.5 238t172 149.5t204.5 54q204 0 421 -183l-104 -202q-77 69 -158 108t-153 39q-46 0 -93 -27t-88 -76t-70.5 -125.5t-37.5 -166.5h469v-230h-469
q20 -183 108.5 -294t182.5 -111q74 0 163 47t164 115z" />
    <glyph glyph-name="afii10054" unicode="&#x405;" horiz-adv-x="983" 
d="M915 436q0 -105 -30.5 -187.5t-76.5 -131.5t-107.5 -80.5t-117.5 -43t-112 -11.5q-111 0 -199.5 42.5t-216.5 147.5l76 213q126 -91 198.5 -130.5t127.5 -39.5q42 0 82 12.5t75 37.5t56.5 69.5t21.5 101.5q0 38 -13 68t-31 48t-47 33t-49.5 21.5t-50.5 15t-40 11.5
q-47 10 -79 18t-78.5 25t-78.5 36t-67.5 50.5t-57 69.5t-35.5 92.5t-14 119.5q0 101 30 180t75 126t104.5 78t113 42t105.5 11q204 0 418 -193l-72 -196q-186 157 -346 157q-207 0 -207 -196q0 -110 148 -160q21 -5 64.5 -12.5t77.5 -13.5t80.5 -20t82.5 -32.5t73 -52
t61.5 -76.5t40 -107t15.5 -143z" />
    <glyph glyph-name="afii10055" unicode="&#x406;" horiz-adv-x="448" 
d="M336 0h-244v1450h244v-1450z" />
    <glyph glyph-name="afii10056" unicode="&#x407;" horiz-adv-x="514" 
d="M483 1677q0 -50 -29 -84t-69 -34t-69 34t-29 84q0 52 28 86.5t70 34.5q40 0 69 -34.5t29 -86.5zM184 1677q0 -50 -29 -84t-69 -34q-42 0 -71 34t-29 84q0 52 29 86.5t71 34.5q40 0 69 -34.5t29 -86.5zM356 0h-243v1450h243v-1450z" />
    <glyph glyph-name="afii10057" unicode="&#x408;" horiz-adv-x="471" 
d="M383 117q0 -123 -47 -234.5t-128.5 -183t-176.5 -80.5q-39 -5 -84 4q-43 9 -88 35l41 205q66 -25 114 -2q125 30 125 307v1282h244v-1333z" />
    <glyph glyph-name="afii10058" unicode="&#x409;" horiz-adv-x="1583" 
d="M1536 463q0 -99 -21 -178.5t-56.5 -131.5t-83.5 -87.5t-99.5 -50.5t-106.5 -15h-421v1212h-195q-20 -370 -49 -563q-95 -653 -361 -653q-47 0 -98 12v232q100 -16 100 -13q-2 2 2 2q42 0 75 120.5t51 310.5t27 348t13 307l9 133h669v-528h180q69 0 132.5 -28.5t116.5 -83
t84.5 -144.5t31.5 -201zM1296 465q0 116 -52 172.5t-120 56.5h-133v-458h139q71 0 118.5 52.5t47.5 176.5z" />
    <glyph glyph-name="afii10059" unicode="&#x40a;" horiz-adv-x="1501" 
d="M1456 444q0 -99 -21 -176.5t-55.5 -127t-82.5 -82t-98.5 -45.5t-106.5 -13h-424v649h-326v-649h-244v1448h244v-563h326v563h243v-565h183q69 0 132 -26t115.5 -77t83.5 -138t31 -198zM1217 446q0 105 -37.5 157t-92.5 52h-176v-422h187q53 0 86 50t33 163z" />
    <glyph glyph-name="afii10060" unicode="&#x40b;" horiz-adv-x="1118" 
d="M1030 0h-235v580q0 229 -107 229q-34 0 -82.5 -45t-89.5 -107v-657h-240v1229h-276v219h893v-219h-377v-303q93 108 178 108q339 0 336 -420v-614z" />
    <glyph glyph-name="afii10061" unicode="&#x40c;" horiz-adv-x="1024" 
d="M979 1405l-324 -606q-48 -56 -65 -68q25 -20 63 -67l322 -621v-43h-246l-356 586q-16 28 -29 28h-29v-614h-239v1448h239v-602h62q27 24 57 76l291 526h254v-43zM881 1853l-332 -337h-150l248 352h219z" />
    <glyph glyph-name="afii10062" unicode="&#x40e;" horiz-adv-x="1071" 
d="M1038 1409l-422 -1212q-37 -93 -116 -145t-168 -52h-158v227h143q29 -2 54.5 18t31.5 62l-38 76q-45 141 -162 492t-172 532v41h245l259 -838l253 838h250v-39zM805 1835q0 -138 -76.5 -236t-189.5 -98q-120 0 -199.5 100t-79.5 234h143q9 -78 45 -128t91 -50
q51 0 85.5 50.5t39.5 127.5h141z" />
    <glyph glyph-name="afii10145" unicode="&#x40f;" horiz-adv-x="1034" 
d="M78 1450h246v-1214h362v1214h248v-1450h-305v-410h-246v410h-305v1450z" />
    <glyph glyph-name="afii10017" unicode="&#x410;" horiz-adv-x="1138" 
d="M1090 0h-244l-74 307h-434l-82 -307h-238l453 1454h186zM690 532l-133 570l-135 -570h268z" />
    <glyph glyph-name="afii10018" unicode="&#x411;" horiz-adv-x="954" 
d="M897 461q0 -98 -23.5 -178t-62 -131.5t-90 -86.5t-104.5 -50t-109 -15h-428v1448h737v-223h-500v-312h195q68 0 134.5 -28t123.5 -81.5t92 -142.5t35 -200zM655 463q0 105 -43 166t-98 61h-197v-459h199q57 0 98 59.5t41 172.5z" />
    <glyph glyph-name="afii10019" unicode="&#x412;" horiz-adv-x="968" 
d="M895 403q0 -97 -30.5 -175.5t-81.5 -127t-114 -74.5t-132 -26h-457v1448h442q162 0 261.5 -109.5t99.5 -294.5q0 -180 -133 -307q57 -30 101 -128t44 -206zM670 412q0 89 -42 146.5t-116 57.5h-199v-397h187q81 0 125.5 52t44.5 141zM655 1028q0 93 -38 147t-113 54h-191
v-400h179q77 0 120 54.5t43 144.5z" />
    <glyph glyph-name="afii10020" unicode="&#x413;" horiz-adv-x="897" 
d="M78 1448h799v-231h-553v-1215h-246v1446z" />
    <glyph glyph-name="afii10021" unicode="&#x414;" horiz-adv-x="1185" 
d="M51 233h109q133 351 143 1215h701v-1215h122l2 -561h-243v328h-590v-328h-244v561zM539 1212q-25 -664 -117 -979h334v979h-217z" />
    <glyph glyph-name="afii10022" unicode="&#x415;" horiz-adv-x="958" 
d="M862 0h-784l2 1448h764v-225h-522v-387h442v-222h-442v-385h540v-229z" />
    <glyph glyph-name="afii10024" unicode="&#x416;" horiz-adv-x="1632" 
d="M1190 737l352 -694v-43h-252l-293 616h-71v-616h-240v616h-72l-295 -616h-251v43l352 694l-350 668v45h252l299 -602h65v602h240v-602h63l299 602h254v-45z" />
    <glyph glyph-name="afii10025" unicode="&#x417;" horiz-adv-x="915" 
d="M307 831h156q60 0 92.5 54t32.5 145q0 92 -32.5 147.5t-92.5 55.5q-138 0 -332 -148l-90 203q179 176 422 176q163 0 267 -106.5t104 -298.5q0 -120 -35.5 -198t-124.5 -128v-4q91 -38 137.5 -121t46.5 -198q0 -107 -30.5 -190t-84.5 -134.5t-124 -77.5t-152 -26
q-59 0 -111.5 10t-90.5 23.5t-84.5 42t-75.5 50.5t-82 64l79 203q167 -147 306 -160q37 -3 59 4q69 10 108 61t39 126q0 90 -40.5 148t-110.5 58h-156v219z" />
    <glyph glyph-name="afii10026" unicode="&#x418;" horiz-adv-x="1079" 
d="M246 -2h-168v1450h244v-940q46 91 149 293.5t180 355.5t144 291h184v-1448h-246v963q-38 -75 -217 -427.5t-270 -537.5z" />
    <glyph glyph-name="afii10027" unicode="&#x419;" horiz-adv-x="1079" 
d="M842 1817q0 -138 -81 -236t-198 -98q-83 0 -150.5 47.5t-104 123.5t-36.5 163h177q6 -72 36 -118t76 -46q42 0 71.5 46t35.5 118h174zM246 -2h-168v1450h241v-940q26 52 206.5 404.5t269.5 535.5h184v-1448h-246v963q-38 -75 -217 -427.5t-270 -537.5z" />
    <glyph glyph-name="afii10028" unicode="&#x41a;" horiz-adv-x="1007" 
d="M979 1405l-389 -674l385 -688v-43h-246l-356 614h-58v-614h-239v1448h239v-602h62l348 602h254v-43z" />
    <glyph glyph-name="afii10029" unicode="&#x41b;" horiz-adv-x="1079" 
d="M985 0h-248v1217h-229q-3 -83 -9 -169.5t-20 -212t-34 -235.5t-53.5 -225t-75 -197t-102 -134t-132.5 -52q-21 0 -82 12v236q41 -11 84 -11q71 0 137 422q58 350 76 797h688v-1448z" />
    <glyph glyph-name="afii10030" unicode="&#x41c;" horiz-adv-x="1411" 
d="M1327 0h-227l-56 926l-333 -912h-99l-282 922q-2 -12 -13 -96l-38 -840h-230l78 1450q33 0 96 1t96 1l363 -1036l412 1036q26 0 77 -1t76 -1z" />
    <glyph glyph-name="afii10031" unicode="&#x41d;" horiz-adv-x="1052" 
d="M950 0h-243v592h-385v-592h-244v1450h244v-621h385v621h243v-1450z" />
    <glyph glyph-name="afii10032" unicode="&#x41e;" horiz-adv-x="1200" 
d="M1141 721q0 -139 -31 -261t-84 -211t-122.5 -153.5t-148 -96.5t-159.5 -32t-159.5 32.5t-148 97.5t-122.5 154.5t-84 212t-31 261.5q0 142 31 265.5t84 213t122.5 154t148 96t159.5 31.5t160 -33.5t148.5 -100t122.5 -157t83.5 -213t30.5 -260.5zM909 721
q0 147 -34.5 264t-107 188.5t-171.5 71.5q-100 0 -172.5 -71t-107.5 -188t-35 -265q0 -222 83 -368t232 -146q100 0 172 69.5t106.5 184t34.5 260.5z" />
    <glyph glyph-name="afii10033" unicode="&#x41f;" horiz-adv-x="1048" 
d="M946 0h-246v1212h-372v-1212h-248v1448h866v-1448z" />
    <glyph glyph-name="afii10034" unicode="&#x420;" horiz-adv-x="987" 
d="M911 958q0 -114 -32 -207.5t-86 -153t-122 -92t-143 -32.5h-206v-473h-242v1450h452q170 0 274.5 -126t104.5 -366zM678 954q0 121 -43 185.5t-119 64.5h-194v-499h182q78 0 126 68.5t48 180.5z" />
    <glyph glyph-name="afii10035" unicode="&#x421;" horiz-adv-x="1060" 
d="M1006 231l-70 -45q-78 -93 -168 -151t-209 -58q-103 0 -194.5 49t-162.5 141t-113 237t-42 325q0 166 44.5 309.5t117 237.5t163 147.5t183.5 53.5q263 0 438 -226l-104 -213q-41 49 -74 82t-73 62t-85 43t-96 14q-116 0 -196 -142t-80 -372q0 -232 80.5 -374t195.5 -142
q41 0 80.5 12.5t69.5 30t65.5 50t59 57.5t59.5 67z" />
    <glyph glyph-name="afii10036" unicode="&#x422;" horiz-adv-x="1017" 
d="M983 1223h-352v-1223h-246v1223h-352v227h950v-227z" />
    <glyph glyph-name="afii10037" unicode="&#x423;" horiz-adv-x="1071" 
d="M1038 1409l-424 -1212q-35 -93 -114 -145t-168 -52h-156v227h143q28 -2 53.5 18t28.5 62l-36 76q-48 154 -164 501t-170 523v41h248l256 -838l253 838h250v-39z" />
    <glyph glyph-name="afii10038" unicode="&#x424;" horiz-adv-x="1185" 
d="M700 0h-235v180q-191 9 -311.5 156t-120.5 395q0 123 34.5 226t94 172t137.5 109.5t166 45.5v201h235v-199q92 -2 172 -41t140 -108.5t94.5 -174t34.5 -231.5q0 -259 -124 -403.5t-317 -149.5v-178zM903 731q0 152 -53.5 242.5t-149.5 93.5v-672q97 1 150 90t53 246z
M272 731q0 -145 53.5 -235.5t139.5 -98.5v666q-93 -1 -143 -92t-50 -240z" />
    <glyph glyph-name="afii10039" unicode="&#x425;" horiz-adv-x="1052" 
d="M987 0h-250l-231 528l-240 -528h-231v33l340 688l-340 692v37h250l229 -518q72 163 223 518h236v-37l-332 -678q179 -359 344 -700q0 -4 1 -17.5t1 -17.5z" />
    <glyph glyph-name="afii10040" unicode="&#x426;" horiz-adv-x="1140" 
d="M78 1448h244v-1215h374v1215h246v-1215h172l-2 -561h-235v328h-799v1448z" />
    <glyph glyph-name="afii10041" unicode="&#x427;" horiz-adv-x="991" 
d="M49 1448h248v-563q0 -104 40.5 -162t102.5 -64q59 -6 117.5 18t93.5 71v700h244v-1448h-244v510q-47 -34 -129 -54.5t-166 -13.5q-61 5 -114 29.5t-97.5 71.5t-70 127t-25.5 184v594z" />
    <glyph glyph-name="afii10042" unicode="&#x428;" horiz-adv-x="1474" 
d="M80 1448h246v-1212h280v1212h242v-1212h280v1212h246v-1448h-1294v1448z" />
    <glyph glyph-name="afii10043" unicode="&#x429;" horiz-adv-x="1574" 
d="M78 0v1448h244v-1215h270v1215h237v-1215h273v1215h244v-1215h194l2 -561h-239v328h-1225z" />
    <glyph glyph-name="afii10044" unicode="&#x42a;" horiz-adv-x="1183" 
d="M1120 463q0 -99 -21 -178.5t-56.5 -131.5t-83 -87.5t-99 -50.5t-106.5 -15h-439v1219h-290v229h536v-528h197q68 0 131 -28.5t115.5 -83t84 -144.5t31.5 -201zM881 465q0 107 -38 168t-91 61h-191v-458h201q51 0 85 57t34 172z" />
    <glyph glyph-name="afii10045" unicode="&#x42b;" horiz-adv-x="1316" 
d="M864 463q0 -123 -31.5 -215.5t-85 -145t-116 -77.5t-133.5 -25h-422v1448h246v-535h180q69 0 132 -28t115.5 -81.5t83.5 -141.5t31 -199zM625 465q0 107 -38 166t-91 59h-174v-457h184q53 0 86 58t33 174zM1217 0h-240v1448h240v-1448z" />
    <glyph glyph-name="afii10046" unicode="&#x42c;" horiz-adv-x="917" 
d="M881 461q0 -99 -21 -179t-56 -131.5t-83 -86.5t-98.5 -49.5t-106.5 -14.5h-438v1448h244v-535h196q69 0 132.5 -28t115.5 -82t83.5 -142.5t31.5 -199.5zM643 463q0 107 -38 166t-93 59h-190v-452h202q52 0 85.5 56.5t33.5 170.5z" />
    <glyph glyph-name="afii10047" unicode="&#x42d;" horiz-adv-x="1048" 
d="M23 176l127 193q179 -160 303 -160q44 0 91.5 28.5t89 78.5t70.5 128.5t33 169.5h-463v230h463q-18 178 -102 286.5t-178 108.5q-130 0 -301 -154l-115 209q195 183 420 183q110 0 208.5 -54t171.5 -150t115.5 -237.5t42.5 -308.5q0 -179 -42.5 -323t-116.5 -237
t-172.5 -142.5t-212.5 -49.5q-123 0 -235.5 56t-196.5 145z" />
    <glyph glyph-name="afii10048" unicode="&#x42e;" horiz-adv-x="1515" 
d="M324 0h-240v1448h240v-633h135q13 156 57.5 282t110.5 206.5t148.5 123.5t174.5 43q223 0 361.5 -199t138.5 -560q0 -336 -141 -532.5t-359 -196.5q-187 0 -322.5 161t-168.5 441h-135v-584zM1200 711q0 247 -69.5 386.5t-180.5 139.5t-182.5 -140t-71.5 -386
q0 -230 70 -363t184 -133q113 0 181.5 134.5t68.5 361.5z" />
    <glyph glyph-name="afii10049" unicode="&#x42f;" horiz-adv-x="954" 
d="M270 0h-262v43l193 412l63 65q-77 16 -147 141.5t-70 317.5q0 206 111.5 337.5t287.5 131.5h431q0 -240 -1.5 -724t-1.5 -724h-241v481h-125zM291 967q0 -104 43 -181t106 -77h193v512h-191q-69 0 -110 -71t-41 -183z" />
    <glyph glyph-name="afii10065" unicode="&#x430;" horiz-adv-x="913" 
d="M860 8q0 -9 -76 -16q-49 0 -96 25.5t-76 78.5q-89 -110 -219 -110q-48 0 -95.5 13t-92 41t-79 68t-55 98.5t-20.5 127.5q0 73 20 132.5t53 99.5t78 67.5t94 40t101 12.5q36 0 82 -10t76 -25q0 -2 8 -2q0 113 -43.5 168t-116.5 55q-52 0 -121.5 -31.5t-129.5 -78.5
l-29 174q37 40 128.5 78.5t160.5 38.5q67 0 132 -26t119 -73.5t87.5 -123t33.5 -166.5v-357q0 -106 29 -119q17 -6 47 9v-189zM563 227v256q-93 33 -149 33q-71 0 -107.5 -49t-36.5 -125q0 -75 33.5 -122.5t97.5 -47.5q110 0 162 55z" />
    <glyph glyph-name="afii10066" unicode="&#x431;" horiz-adv-x="907" 
d="M850 520q0 -245 -111.5 -395t-283.5 -150q-208 0 -314 165t-106 481q0 178 19.5 309t63.5 232t118 160.5t180 80.5l364 110v-225l-358 -102q-85 -30 -133.5 -109.5t-69.5 -212.5q59 91 118.5 128.5t147.5 37.5q154 0 259.5 -145.5t105.5 -364.5zM631 522
q0 122 -49.5 209.5t-122.5 87.5q-89 0 -148 -84t-59 -215q0 -139 56 -228t143 -89q81 0 130.5 88.5t49.5 230.5z" />
    <glyph glyph-name="afii10067" unicode="&#x432;" horiz-adv-x="849" 
d="M782 297q0 -149 -91.5 -223t-225.5 -74h-404v1032h377q73 0 128 -13t102.5 -44t72.5 -90.5t25 -145.5q0 -67 -29.5 -123.5t-74.5 -80.5q0 -1 -1.5 -2.5t-1.5 -2.5q45 -26 84 -87t39 -146zM557 311q0 74 -30 99.5t-107 25.5h-133v-241h159q61 0 86 24.5t25 91.5zM547 721
q0 69 -24.5 95t-82.5 26h-153q0 -34 -1 -115t-1 -123h161q52 0 76.5 27t24.5 90z" />
    <glyph glyph-name="afii10068" unicode="&#x433;" horiz-adv-x="727" 
d="M63 1032h599v-213h-377v-817h-222v1030z" />
    <glyph glyph-name="afii10069" unicode="&#x434;" horiz-adv-x="999" 
d="M37 211h98q121 283 146 821h565v-821h131v-498h-217v287h-504v-287h-219v498zM621 815h-136q-26 -407 -96 -604h232v604z" />
    <glyph glyph-name="afii10070" unicode="&#x435;" 
d="M817 455h-545q14 -109 64.5 -185.5t114.5 -76.5q148 0 249 96l66 -174q-56 -57 -143 -95t-181 -38q-173 0 -288 139.5t-115 388.5q0 262 110.5 402.5t286.5 140.5q182 0 282 -155.5t99 -442.5zM436 858q-106 0 -151 -231h309q-14 231 -158 231z" />
    <glyph glyph-name="afii10072" unicode="&#x436;" horiz-adv-x="1292" 
d="M1182 1010l-250 -486l260 -497v-27h-244l-190 418h-49v-418h-213v418h-47l-191 -418h-244v27l258 497v2l-247 484v22h247l172 -403h52v403h213v-403h51l174 403h246z" />
    <glyph glyph-name="afii10073" unicode="&#x437;" horiz-adv-x="790" 
d="M741 311q0 -89 -29.5 -154.5t-80.5 -102t-110.5 -53.5t-127.5 -17q-174 0 -362 137l73 176q64 -53 130.5 -83.5t117.5 -35.5q18 -2 43 6q59 8 92 46.5t33 80.5q0 54 -16.5 90.5t-44.5 40.5q-31 0 -95 1t-94 1v164h160q38 2 61.5 38.5t20.5 90.5q-2 56 -35 92.5t-98 36.5
q-50 0 -120 -31.5t-136 -91.5l-82 170q126 138 352 138q91 0 164.5 -30.5t120.5 -97.5t47 -163q0 -78 -25.5 -139t-66.5 -86q108 -57 108 -224z" />
    <glyph glyph-name="afii10074" unicode="&#x438;" horiz-adv-x="929" 
d="M301 0h-242v1032h226v-692l319 692h242v-1032h-228v705z" />
    <glyph glyph-name="afii10075" unicode="&#x439;" horiz-adv-x="876" 
d="M301 0h-242v1032h226v-692l319 692h242v-1032h-228v705zM737 1454q0 -138 -80.5 -236t-197.5 -98q-83 0 -150.5 47.5t-104 123.5t-36.5 163h174q8 -72 38.5 -118t76.5 -46q42 0 71 46t35 118h174z" />
    <glyph glyph-name="afii10076" unicode="&#x43a;" horiz-adv-x="835" 
d="M774 1012l-242 -445q-18 -27 -38 -47l41 -45l251 -452l-2 -23h-241q-51 87 -199 358q-24 45 -39 58h-49v-416h-213v1032h213v-401h51q18 15 37 55l182 346h248v-20z" />
    <glyph glyph-name="afii10077" unicode="&#x43b;" horiz-adv-x="954" 
d="M33 6v219q14 -8 61 -8q26 1 54.5 89t56 277.5t45.5 448.5h598v-1032h-223v815h-172q-27 -246 -72.5 -427.5t-112 -286.5t-145.5 -105q-35 0 -90 10z" />
    <glyph glyph-name="afii10078" unicode="&#x43c;" horiz-adv-x="1144" 
d="M1081 0h-217l-57 588l-186 -590h-119l-191 612q-3 -9 -5.5 -20t-5 -24t-3.5 -19l-43 -547h-213l113 1036h178l235 -678l234 678h168z" />
    <glyph glyph-name="afii10079" unicode="&#x43d;" horiz-adv-x="907" 
d="M817 0h-227v426h-301v-426h-226v1032h226v-391h301v391h227v-1032z" />
    <glyph glyph-name="afii10080" unicode="&#x43e;" horiz-adv-x="921" 
d="M850 512q0 -133 -32 -236.5t-87.5 -167t-127 -96t-154.5 -32.5q-80 0 -151.5 34t-128.5 98.5t-90.5 168t-33.5 231.5q0 132 33.5 237.5t90.5 170.5t128.5 99t151.5 34t151.5 -35t127.5 -101t89 -171t33 -234zM633 514q0 134 -49.5 224.5t-134.5 90.5t-135 -90t-50 -225
q0 -130 50 -218.5t135 -88.5t134.5 88t49.5 219z" />
    <glyph glyph-name="afii10081" unicode="&#x43f;" horiz-adv-x="899" 
d="M817 0h-225v819h-303v-819h-228v1032h756v-1032z" />
    <glyph glyph-name="afii10082" unicode="&#x440;" horiz-adv-x="894" 
d="M850 528q0 -260 -105 -403t-266 -143q-44 0 -96 27t-92 71v-490h-225v1442h225v-74q33 39 82.5 66t91.5 27q78 0 147 -34.5t122.5 -99t84.5 -165t31 -224.5zM627 516q0 144 -51.5 226.5t-131.5 82.5q-42 0 -83.5 -28.5t-69.5 -73.5v-395q28 -48 77 -84.5t89 -36.5
q78 0 124 85t46 224z" />
    <glyph glyph-name="afii10083" unicode="&#x441;" horiz-adv-x="847" 
d="M776 911l-51 -194q-117 117 -268 117q-83 0 -134 -90.5t-51 -231.5q0 -130 51.5 -214.5t133.5 -84.5q70 0 128.5 25t121.5 79l59 -190q-140 -147 -309 -147q-84 0 -158 34.5t-131.5 99.5t-91 167t-33.5 229q0 133 33.5 238.5t91 171t131.5 99.5t158 34q171 0 319 -142z
" />
    <glyph glyph-name="afii10084" unicode="&#x442;" horiz-adv-x="825" 
d="M799 823h-271v-823h-221v823h-274v209h766v-209z" />
    <glyph glyph-name="afii10085" unicode="&#x443;" horiz-adv-x="894" 
d="M852 1032v-100l-358 -1153q-61 -193 -261 -193q-8 0 -143 6v218l47 -3q5 0 39.5 -3t54.5 -3q45 0 66 25.5t35 87.5l28 154q-185 480 -329 868q-2 33 -2 96h225l213 -674q35 102 55 169t51 203t58 302h221z" />
    <glyph glyph-name="afii10086" unicode="&#x444;" horiz-adv-x="1396" 
d="M1358 528q0 -260 -104 -402t-265 -142q-42 0 -91.5 28.5t-92.5 71.5v-494h-227v496q-38 -49 -87.5 -75.5t-95.5 -26.5q-162 0 -265 136t-103 390q0 250 111 396.5t272 146.5q45 0 95.5 -27t72.5 -68v555h227v-561q32 45 79 72t91 27q78 0 146.5 -34.5t121.5 -99t84 -165
t31 -224.5zM1135 516q0 145 -50.5 228t-130.5 83q-42 0 -81 -27t-68 -73v-401l-2 2q30 -51 77 -87t87 -36q77 0 122.5 85.5t45.5 225.5zM578 326q0 65 1 197.5t1 199.5q-31 47 -71 76.5t-81 29.5q-79 0 -128.5 -88.5t-49.5 -234.5q0 -138 44.5 -219.5t123.5 -81.5
q39 0 84 35.5t76 85.5z" />
    <glyph glyph-name="afii10087" unicode="&#x445;" horiz-adv-x="862" 
d="M809 1032v-92l-264 -420q28 -44 264 -428l2 -92h-225l-170 344l-170 -344h-213v90l266 420l-266 428v94h231l166 -346l168 346h211z" />
    <glyph glyph-name="afii10088" unicode="&#x446;" horiz-adv-x="960" 
d="M63 1032h224v-819h297v819h225v-821h131v-498h-217v287h-657z" />
    <glyph glyph-name="afii10089" unicode="&#x447;" horiz-adv-x="876" 
d="M43 1032h221v-323q0 -63 9.5 -103t29.5 -58.5t41 -24t55 -5.5q97 0 176 49v465h222v-1032h-222v340q-87 -41 -178 -41q-59 0 -105.5 7.5t-95 31.5t-80.5 64t-52.5 109t-20.5 163v358z" />
    <glyph glyph-name="afii10090" unicode="&#x448;" horiz-adv-x="1173" 
d="M72 1032h223v-819h176v819h219v-819h178v819h219v-1032h-1013z" />
    <glyph glyph-name="afii10091" unicode="&#x449;" horiz-adv-x="1232" 
d="M61 0v1032h213v-827h179v827h213v-827h176v827h219v-827h133v-492h-213v287h-920z" />
    <glyph glyph-name="afii10092" unicode="&#x44a;" horiz-adv-x="935" 
d="M16 1032h418v-393h166q57 0 107 -16.5t93.5 -51t69 -97.5t25.5 -148q0 -74 -17.5 -132t-46 -93.5t-68.5 -59t-80.5 -32.5t-86.5 -9h-383v842h-197v190zM672 326q0 127 -88 127h-150v-256h152q38 0 62 32t24 97z" />
    <glyph glyph-name="afii10093" unicode="&#x44b;" horiz-adv-x="1130" 
d="M743 326q0 -74 -17.5 -132t-46 -93.5t-68.5 -59t-80.5 -32.5t-86.5 -9h-383v1032h220v-393h165q45 0 86 -9.5t80 -33t67.5 -58.5t46 -89.5t17.5 -122.5zM518 326q0 127 -86 127h-151v-258h153q36 0 60 33t24 98zM1040 0h-219v1032h219v-1032z" />
    <glyph glyph-name="afii10094" unicode="&#x44c;" horiz-adv-x="802" 
d="M745 326q0 -74 -17.5 -132t-46 -93.5t-68.5 -59t-80.5 -32.5t-86.5 -9h-387v1032h224v-393h166q57 0 107 -16.5t94 -51t69.5 -97.5t25.5 -148zM522 326q0 63 -24 95t-64 32h-151v-256h151q38 0 63 32t25 97z" />
    <glyph glyph-name="afii10095" unicode="&#x44d;" horiz-adv-x="851" 
d="M569 442h-313v195h293q-16 98 -76 152.5t-119 54.5q-51 0 -110 -31t-113 -84l-88 189q64 59 162 97t176 38q80 0 155 -34.5t136 -100t98 -172.5t37 -240q0 -126 -37 -229.5t-98 -168t-136 -99t-155 -34.5q-88 0 -178 38.5t-166 107.5l100 188q45 -53 110 -83.5t122 -30.5
q68 0 129.5 69.5t70.5 177.5z" />
    <glyph glyph-name="afii10096" unicode="&#x44e;" horiz-adv-x="1153" 
d="M272 0h-211v1032h211v-428h52q20 205 124.5 328t251.5 123q175 0 282.5 -143.5t107.5 -403.5q0 -247 -107 -386.5t-283 -139.5q-144 0 -247.5 118t-128.5 299h-52v-399zM874 508q0 166 -46.5 258t-122.5 92q-77 0 -126 -92t-49 -258q0 -155 48 -240.5t127 -85.5
q77 0 123 86.5t46 239.5z" />
    <glyph glyph-name="afii10097" unicode="&#x44f;" horiz-adv-x="858" 
d="M285 0h-236v31q24 51 66.5 147.5t60.5 134.5l43 45q-91 19 -136.5 107.5t-45.5 218.5q0 159 89.5 253.5t225.5 94.5h420v-1032h-221v324h-131zM276 676q0 -65 30.5 -108.5t72.5 -43.5h172v307h-172q-43 0 -73 -43t-30 -112z" />
    <glyph glyph-name="afii10071" unicode="&#x451;" 
d="M817 455h-545q14 -109 64.5 -185.5t114.5 -76.5q148 0 249 96l66 -174q-56 -57 -143 -95t-181 -38q-173 0 -288 139.5t-115 388.5q0 262 110.5 402.5t286.5 140.5q182 0 282 -155.5t99 -442.5zM436 858q-106 0 -151 -231h309q-14 231 -158 231zM688 1311q0 -50 -29 -84.5
t-69 -34.5t-69 34.5t-29 84.5q0 52 28 86.5t70 34.5q40 0 69 -34.5t29 -86.5zM389 1311q0 -50 -29 -84.5t-69 -34.5q-42 0 -71.5 34.5t-29.5 84.5q0 52 29.5 86.5t71.5 34.5q40 0 69 -34.5t29 -86.5z" />
    <glyph glyph-name="afii10099" unicode="&#x452;" horiz-adv-x="978" 
d="M-4 1374h154v142h219v-142h247v-194h-247v-273q111 123 196 123q325 0 334 -432v-610q0 -203 -90 -314q-62 -79 -162 -96q-61 -7 -160 12l11 215q90 -7 112 -2q30 3 41 35q27 46 27 150v575q-2 130 -28.5 190t-90.5 60q-40 0 -85 -43t-105 -121v-649h-219v1180h-154v194z
" />
    <glyph glyph-name="afii10100" unicode="&#x453;" horiz-adv-x="729" 
d="M61 1032h629v-215h-407v-815h-222v1030zM606 1477l-334 -338h-149l250 352h219z" />
    <glyph glyph-name="afii10101" unicode="&#x454;" horiz-adv-x="833" 
d="M578 442h-312q9 -108 70.5 -177.5t130.5 -69.5q56 0 121 30.5t110 83.5l99 -188q-74 -68 -165 -107t-179 -39q-79 0 -154 34.5t-136.5 99t-98.5 168t-37 229.5q0 133 37 240t98.5 172.5t136 100t154.5 34.5q79 0 176.5 -37.5t161.5 -97.5l-89 -189q-52 52 -111 83.5
t-110 31.5q-60 0 -119.5 -54t-76.5 -153h293v-195z" />
    <glyph glyph-name="afii10102" unicode="&#x455;" horiz-adv-x="829" 
d="M772 309q0 -82 -26.5 -143.5t-65 -95t-92 -54t-97 -26.5t-90.5 -6q-97 0 -177 35.5t-187 115.5l67 176q143 -137 297 -137q50 0 96 30.5t46 94.5q0 30 -17 52.5t-41.5 33.5t-43.5 16t-31 5q-46 0 -86.5 4t-96.5 22t-95.5 48t-68 88t-28.5 137q0 84 25 148t62.5 100.5
t90 59.5t98.5 30.5t97 7.5q110 0 183.5 -32.5t145.5 -109.5l-67 -172q-66 66 -125.5 95.5t-136.5 29.5q-16 0 -40 -6.5t-52 -21t-47 -43.5t-19 -68q0 -28 20.5 -49t50 -30.5t52.5 -14t37 -4.5q29 0 58 -2.5t66 -11.5t69 -22.5t64 -38t54.5 -56.5t36.5 -79.5t14 -105.5z" />
    <glyph glyph-name="afii10103" unicode="&#x456;" horiz-adv-x="337" 
d="M272 0h-219v1032h219v-1032zM276 1346q0 -55 -34 -92t-78 -37q-43 0 -77 37t-34 92q0 54 33.5 92.5t77.5 38.5t78 -38.5t34 -92.5z" />
    <glyph glyph-name="afii10104" unicode="&#x457;" horiz-adv-x="411" 
d="M457 1354q0 -50 -29.5 -84.5t-69.5 -34.5t-69 34.5t-29 84.5q0 52 28 86.5t70 34.5q41 0 70 -34.5t29 -86.5zM156 1354q0 -51 -28.5 -85t-70.5 -34q-40 0 -69 34.5t-29 84.5q0 52 29 86.5t69 34.5q42 0 70.5 -34.5t28.5 -86.5zM319 0h-221v1032h221v-1032z" />
    <glyph glyph-name="afii10105" unicode="&#x458;" horiz-adv-x="352" 
d="M283 1032v-1050q0 -92 -30.5 -178.5t-80.5 -137.5q-79 -76 -168 -82q-53 -3 -131 21l23 223q52 -11 75 -8q44 3 58 35q30 54 30 151v1026h224zM283 1346q0 -56 -34 -94t-79 -38q-43 0 -77 38.5t-34 93.5q0 54 33.5 92.5t77.5 38.5q45 0 79 -38t34 -93z" />
    <glyph glyph-name="afii10106" unicode="&#x459;" horiz-adv-x="1384" 
d="M47 6v223q34 -8 54 -12t24 -4t6.5 1t3.5 1q60 0 109 251.5t53 588.5h563v-393h144q45 0 87.5 -9.5t85 -33t73 -59t50 -92t19.5 -128.5q0 -78 -20 -139t-51.5 -98t-74.5 -61t-85.5 -33t-88.5 -9h-358v836h-135q-8 -116 -23 -223.5t-44 -223t-67 -200t-96.5 -139
t-128.5 -54.5q-43 0 -100 10zM1096 340q0 60 -30 86.5t-77 26.5h-129v-234h139q41 0 69 29t28 92z" />
    <glyph glyph-name="afii10107" unicode="&#x45a;" horiz-adv-x="1273" 
d="M1217 340q0 -78 -19 -139t-50 -98t-73 -61t-84 -33t-88 -9h-358v444h-234v-444h-225v1032h225v-383h234v383h219v-370h143q45 0 87 -9.5t83.5 -33t72 -59t49 -92t18.5 -128.5zM991 340q0 60 -27 88.5t-69 28.5h-131v-244h139q37 0 62.5 31.5t25.5 95.5z" />
    <glyph glyph-name="afii10108" unicode="&#x45b;" horiz-adv-x="958" 
d="M-8 1374h139v142h215v-142h248v-194h-248v-271q113 125 197 125q159 0 244.5 -108.5t89.5 -323.5v-602h-224v567q-2 129 -27.5 188.5t-88.5 59.5q-40 0 -86.5 -43.5t-104.5 -118.5v-653h-215v1180h-139v194z" />
    <glyph glyph-name="afii10109" unicode="&#x45c;" horiz-adv-x="835" 
d="M774 1012l-242 -445q-18 -27 -38 -47l41 -45l251 -452l-2 -23h-241q-51 87 -199 358q-24 45 -39 58h-49v-416h-213v1032h213v-401h51q18 15 37 55l182 346h248v-20zM733 1466l-332 -338h-149l248 353h219z" />
    <glyph glyph-name="afii10110" unicode="&#x45e;" horiz-adv-x="897" 
d="M852 1032v-100l-358 -1153q-61 -193 -261 -193q-8 0 -143 6v218l47 -3q5 0 39.5 -3t54.5 -3q45 0 66 25.5t35 87.5l28 154q-185 480 -329 868q-2 33 -2 96h225l213 -674q35 102 55 169t51 203t58 302h221zM737 1460q0 -137 -76.5 -235.5t-187.5 -98.5q-121 0 -199.5 99.5
t-78.5 234.5h143q8 -77 44 -127.5t91 -50.5q52 0 86 51t37 127h141z" />
    <glyph glyph-name="afii10193" unicode="&#x45f;" horiz-adv-x="888" 
d="M59 1032h224v-819h295v819h225v-1032h-264v-410h-217v410h-263v1032z" />
    <glyph glyph-name="afii10050" unicode="&#x490;" horiz-adv-x="897" 
d="M877 1767v-553h-553v-1212h-246v1448h563v317h236z" />
    <glyph glyph-name="afii10098" unicode="&#x491;" horiz-adv-x="727" 
d="M61 1032h375v291h223v-506h-376v-815h-222v1030z" />
    <glyph glyph-name="endash" unicode="&#x2013;" horiz-adv-x="839" 
d="M772 516h-713v201h713v-201z" />
    <glyph glyph-name="emdash" unicode="&#x2014;" horiz-adv-x="1454" 
d="M1384 516h-1327v201h1327v-201z" />
    <glyph glyph-name="quoteleft" unicode="&#x2018;" horiz-adv-x="356" 
d="M330 1384q-95 -95 -111 -198q48 -3 73 -35.5t25 -79.5q0 -65 -42 -109t-89 -44q-61 0 -96 45.5t-35 119.5q0 101 62.5 217.5t140.5 163.5z" />
    <glyph glyph-name="quoteright" unicode="&#x2019;" horiz-adv-x="335" 
d="M27 995q39 31 71 88.5t39 110.5q-48 3 -73 35.5t-25 79.5q0 65 42 109t89 44q61 0 96 -45.5t35 -120.5q0 -101 -62.5 -217.5t-140.5 -163.5z" />
    <glyph glyph-name="quotesinglbase" unicode="&#x201a;" horiz-adv-x="333" 
d="M291 346q0 -105 -57 -212t-138 -154l-49 98q30 30 52 81t30 101q-26 4 -35 8q-25 10 -39 42.5t-14 78.5q0 64 38.5 105t90.5 41q61 0 91 -54t30 -135z" />
    <glyph glyph-name="quotedblleft" unicode="&#x201c;" horiz-adv-x="731" 
d="M330 1391q-95 -95 -111 -199q48 -3 73 -35.5t25 -79.5q0 -65 -42 -109t-89 -44q-61 0 -96 45.5t-35 120.5q0 101 62.5 216.5t140.5 163.5zM666 1391q-39 -31 -71.5 -88.5t-39.5 -110.5q48 -3 73 -35.5t25 -79.5q0 -65 -42 -109t-89 -44q-61 0 -96 45.5t-35 120.5
q0 101 62.5 216.5t140.5 163.5z" />
    <glyph glyph-name="quotedblright" unicode="&#x201d;" horiz-adv-x="710" 
d="M383 995q95 95 111 199q-49 3 -74 35.5t-25 79.5q0 65 42 109t89 44q61 0 96 -45.5t35 -120.5q0 -101 -62 -217.5t-140 -163.5zM47 995q39 31 71.5 88.5t39.5 110.5q-49 3 -74 35.5t-25 79.5q0 65 42 109t89 44q61 0 96.5 -46t35.5 -120q0 -101 -62.5 -217.5
t-140.5 -163.5z" />
    <glyph glyph-name="quotedblbase" unicode="&#x201e;" horiz-adv-x="712" 
d="M315 344q0 -105 -57.5 -212.5t-138.5 -154.5l-51 99q63 61 84 182q-23 3 -35 8q-25 11 -39.5 43t-14.5 78q0 65 38 105t92 40q60 0 91 -54.5t31 -133.5zM639 344q0 -104 -57.5 -212t-139.5 -155l-51 99q63 61 84 182q-23 3 -35 8q-25 10 -39 42.5t-14 78.5q0 66 37 105.5
t92 39.5q60 0 91.5 -54.5t31.5 -133.5z" />
    <glyph glyph-name="dagger" unicode="&#x2020;" horiz-adv-x="712" 
d="M637 1012h-168l-74 -803h-47l-90 803h-176v188h192v316h179v-316h184v-188z" />
    <glyph glyph-name="daggerdbl" unicode="&#x2021;" horiz-adv-x="686" 
d="M82 453q30 0 92 1t92 1l25 276q-12 141 -27 285h-182v186h197v86q-25 66 -25 121q0 48 28 87.5t70 59.5q41 0 70 -22.5t31 -54.5q0 -59 -27 -121v-154h182v-188h-174l-20 -277l20 -286h174v-187h-182v-82q27 -75 27 -123q0 -49 -28.5 -88t-72.5 -59q-41 0 -70.5 22.5
t-29.5 55.5q0 48 27 119v153h-197v189z" />
    <glyph glyph-name="bullet" unicode="&#x2022;" horiz-adv-x="614" 
d="M555 598q0 -119 -75 -200t-179 -81q-103 0 -177.5 81.5t-74.5 199.5q0 116 74.5 196t177.5 80q104 0 179 -80t75 -196z" />
    <glyph glyph-name="ellipsis" unicode="&#x2026;" horiz-adv-x="1159" 
d="M1071 121q0 -57 -34.5 -96t-84.5 -39q-51 0 -84.5 39t-33.5 96q0 58 33.5 96.5t84.5 38.5q50 0 84.5 -38.5t34.5 -96.5zM315 121q0 -57 -33.5 -96t-84.5 -39q-50 0 -84.5 39t-34.5 96q0 58 34.5 96.5t84.5 38.5q51 0 84.5 -38.5t33.5 -96.5zM694 121q0 -57 -35 -96
t-86 -39q-50 0 -84 39t-34 96q0 58 34 96.5t84 38.5q51 0 86 -38.5t35 -96.5z" />
    <glyph glyph-name="perthousand" unicode="&#x2030;" horiz-adv-x="1505" 
d="M1440 369q0 -132 -67 -228t-161 -96q-91 0 -157 96t-66 228q0 133 66.5 229t158.5 96t159 -96t67 -229zM467 1059q0 -134 -65.5 -229t-159.5 -95q-92 0 -158 95.5t-66 228.5t66 228t158 95q94 0 159.5 -94.5t65.5 -228.5zM936 369q0 -133 -65 -228.5t-158 -95.5
q-92 0 -159 96t-67 228q0 133 67 229t159 96q93 0 158 -95.5t65 -229.5zM938 1450l-780 -1450h-125l776 1450h129zM801 369q0 73 -26.5 123.5t-61.5 50.5t-60.5 -50.5t-25.5 -123.5q0 -71 26 -121.5t60 -50.5t61 50.5t27 121.5zM1298 369q0 74 -25 124t-59 50q-36 0 -61 -50
t-25 -124q0 -72 25.5 -122t60.5 -50q34 0 59 50.5t25 121.5zM328 1061q0 72 -25.5 122t-60.5 50t-60.5 -50t-25.5 -122q0 -73 25 -123.5t61 -50.5t61 50.5t25 123.5z" />
    <glyph glyph-name="guilsinglleft" unicode="&#x2039;" horiz-adv-x="598" 
d="M524 16l-479 412v174l479 412v-246l-262 -256q254 -242 262 -250v-246z" />
    <glyph glyph-name="guilsinglright" unicode="&#x203a;" horiz-adv-x="585" 
d="M524 416l-479 -400v246l260 244q-28 28 -81 81.5t-97 97.5t-82 81v248l479 -424v-174z" />
    <glyph glyph-name="fraction" unicode="&#x2044;" horiz-adv-x="817" 
d="M782 1450l-589 -1450h-160l592 1450h157z" />
    <glyph glyph-name="swungdash" unicode="&#x2053;" horiz-adv-x="999" 
d="M784 766l117 -33q-3 -23 -12 -66.5t-30.5 -117.5t-61.5 -125t-90 -51q-54 0 -122 30.5t-122.5 67.5t-119 67.5t-112.5 30.5q-52 0 -69 -174l-115 25q0 17 2.5 49t14 88t30 102.5t55 81.5t84.5 35q57 0 122.5 -30t115.5 -66t113 -66t116 -30q25 0 48 57.5t36 124.5z" />
    <glyph glyph-name="zerosuperior" unicode="&#x2070;" horiz-adv-x="706" 
d="M674 1006q0 -102 -28.5 -186.5t-74.5 -138t-103.5 -83t-117.5 -29.5t-117.5 29.5t-104 83t-75 138t-28.5 186.5q0 109 28.5 198t75 144t103.5 84.5t118 29.5t117.5 -29.5t103.5 -84.5t75 -144t28 -198zM518 1006q0 137 -46.5 219t-121.5 82q-76 0 -123 -82t-47 -219
q0 -128 46.5 -204.5t123.5 -76.5q75 0 121.5 78t46.5 203z" />
    <glyph glyph-name="foursuperior" unicode="&#x2074;" horiz-adv-x="620" 
d="M584 782h-84v-202h-146v202h-313v111l360 563q15 0 48.5 -1t50.5 -1v-530h84v-142zM354 924v276q-6 -11 -18 -31t-17 -30l-34 -66q-32 -79 -68 -149h137z" />
    <glyph glyph-name="fivesuperior" unicode="&#x2075;" horiz-adv-x="620" 
d="M584 856q0 -67 -20 -119t-50 -83t-69.5 -51t-74.5 -27t-69 -7q-134 0 -266 117l47 135q124 -98 219 -98q129 0 129 137q0 69 -23 106.5t-83 37.5q-118 0 -156 -70h-121l23 516h481v-154h-348q-8 -132 -8 -194q50 47 131 47q45 0 87 -14.5t82 -46t64.5 -91.5t24.5 -141z
" />
    <glyph glyph-name="sixsuperior" unicode="&#x2076;" horiz-adv-x="649" 
d="M616 864q0 -76 -29 -135.5t-74 -93.5t-93.5 -51t-93.5 -17q-127 0 -214 120.5t-87 330.5q0 105 26.5 191t71.5 140t102 83.5t119 29.5q72 0 132.5 -24.5t96.5 -69.5l-41 -131q-47 44 -85.5 60t-108.5 16q-65 0 -112 -75.5t-56 -193.5q71 109 188 109q108 0 183 -77.5
t75 -211.5zM481 872q0 60 -40 98.5t-81 33.5q-47 -4 -100.5 -38t-75.5 -94q12 -66 53.5 -108.5t86.5 -42.5q67 0 112 35t45 116z" />
    <glyph glyph-name="sevensuperior" unicode="&#x2077;" horiz-adv-x="587" 
d="M555 1311l-336 -731h-168l322 716h-330v154h508z" />
    <glyph glyph-name="eightsuperior" unicode="&#x2078;" horiz-adv-x="600" 
d="M573 819q0 -115 -78.5 -182.5t-185.5 -67.5q-121 0 -203.5 65t-82.5 179q0 148 83 217q-77 61 -77 182q0 122 71.5 185t196.5 63t196.5 -64t71.5 -184q0 -115 -78 -178q36 -36 61 -93.5t25 -121.5zM412 823q0 51 -41 92.5t-99 47.5q-49 -6 -76.5 -47.5t-27.5 -100.5
q0 -48 29.5 -76t91.5 -28q60 0 91.5 31t31.5 81zM420 1214q0 50 -30 80.5t-91 30.5t-92 -28.5t-31 -77.5q0 -42 40 -75.5t103 -47.5q101 37 101 118z" />
    <glyph glyph-name="ninesuperior" unicode="&#x2079;" horiz-adv-x="647" 
d="M616 1012q0 -205 -93 -325t-226 -120q-146 0 -227 97l39 127q49 -43 86 -58.5t104 -15.5q66 0 111 70.5t59 189.5q-74 -115 -193 -115q-107 0 -179 81t-72 218q0 78 25.5 138t68.5 94.5t93 51.5t105 17q136 0 217.5 -120.5t81.5 -329.5zM285 1006q46 0 99 41.5t75 107.5
q-13 63 -57 112.5t-83 49.5q-70 0 -112.5 -38t-42.5 -124q0 -68 38.5 -108.5t82.5 -40.5z" />
    <glyph glyph-name="zeroinferior" unicode="&#x2080;" horiz-adv-x="706" 
d="M674 426q0 -101 -28.5 -185.5t-74.5 -138t-103.5 -83t-117.5 -29.5t-117.5 29.5t-104 83t-75 138t-28.5 185.5q0 109 28.5 198.5t75 145t104 85.5t117.5 30t117 -30t104 -85.5t75 -145t28 -198.5zM518 426q0 137 -46.5 220t-121.5 83q-76 0 -123 -82t-47 -221
q0 -128 46.5 -203.5t123.5 -75.5q75 0 121.5 77t46.5 202z" />
    <glyph glyph-name="oneinferior" unicode="&#x2081;" horiz-adv-x="477" 
d="M315 -8h-145v704l96 185h49v-889z" />
    <glyph glyph-name="twoinferior" unicode="&#x2082;" horiz-adv-x="765" 
d="M614 596q0 -61 -16.5 -111.5t-48 -88t-63.5 -63.5t-76 -52l-27 -9q-24 -20 -37 -31.5t-31 -37.5t-24 -53h319v-158h-489q0 9 -1 20t-2.5 25t-2.5 22l-4 60q27 107 70.5 168.5t109.5 105.5q6 4 20.5 11.5t25.5 14.5t19 13q121 67 121 162q0 67 -23.5 103t-84.5 36
q-45 0 -101.5 -26.5t-111.5 -75.5l-47 143q135 117 260 117q40 0 81 -16.5t78.5 -49t61.5 -92.5t24 -137z" />
    <glyph glyph-name="threeinferior" unicode="&#x2083;" horiz-adv-x="765" 
d="M592 256q0 -59 -17.5 -107t-44.5 -78t-62 -50t-68.5 -28.5t-65.5 -8.5q-126 0 -252 114l45 144q110 -101 207 -101q110 0 110 111v67q0 50 -116 50v2q-15 0 -32.5 -2.5t-27.5 -4.5l-10 -2q-10 24 -11 71.5t7 78.5l4 -1q5 -1 12.5 -2t16 -2t20 -2t21.5 -1q38 0 77 28
t39 86q0 111 -110 111q-87 0 -207 -102l-45 139q130 121 252 121q32 0 65.5 -8t68.5 -28.5t62 -50.5t44.5 -77.5t17.5 -106.5q0 -118 -51 -178q51 -54 51 -182z" />
    <glyph glyph-name="fourinferior" unicode="&#x2084;" horiz-adv-x="620" 
d="M584 203h-84v-203h-146v203h-313v110l360 564q15 0 48.5 -1.5t50.5 -1.5v-530h84v-141zM354 344v277q-30 -50 -35 -60l-34 -67q-34 -84 -68 -150h137z" />
    <glyph glyph-name="fiveinferior" unicode="&#x2085;" horiz-adv-x="620" 
d="M584 276q0 -67 -20 -119t-50 -82.5t-69.5 -50.5t-74.5 -27t-69 -7q-132 0 -266 116l47 138q120 -99 219 -99q129 0 129 136q0 70 -23 106.5t-83 36.5q-118 0 -156 -70h-121l23 516h481v-153h-348q-8 -132 -8 -195q50 47 131 47q45 0 87 -14.5t82 -46t64.5 -91.5
t24.5 -141z" />
    <glyph glyph-name="sixinferior" unicode="&#x2086;" horiz-adv-x="649" 
d="M616 285q0 -76 -29 -135.5t-74 -93.5t-93.5 -51t-93.5 -17q-128 0 -214.5 120t-86.5 330q0 207 94 327t225 120q71 0 131.5 -25.5t97.5 -71.5l-41 -131q-47 44 -85.5 60t-108.5 16q-65 0 -112 -74.5t-56 -193.5q70 108 188 108q108 0 183 -77t75 -211zM481 297
q0 58 -40.5 95t-80.5 32q-47 -4 -100.5 -37.5t-75.5 -91.5q12 -66 53.5 -109t86.5 -43q68 0 112.5 35.5t44.5 118.5z" />
    <glyph glyph-name="seveninferior" unicode="&#x2087;" horiz-adv-x="587" 
d="M555 731l-336 -731h-168l322 717h-330v153h508z" />
    <glyph glyph-name="eightinferior" unicode="&#x2088;" horiz-adv-x="600" 
d="M573 242q0 -115 -78.5 -183.5t-185.5 -68.5q-121 0 -203.5 64.5t-82.5 178.5q0 149 83 218q-77 61 -77 184q0 120 72 184t196 64q125 0 196.5 -64.5t71.5 -183.5q0 -118 -78 -178q36 -38 61 -95t25 -120zM412 246q0 50 -41 91.5t-99 45.5q-49 -4 -76.5 -45.5
t-27.5 -101.5q0 -48 29.5 -76.5t91.5 -28.5q61 0 92 31.5t31 83.5zM420 637q0 49 -30 78.5t-91 29.5t-92 -28.5t-31 -77.5q0 -42 40 -75.5t103 -47.5q101 37 101 121z" />
    <glyph glyph-name="nineinferior" unicode="&#x2089;" horiz-adv-x="647" 
d="M616 432q0 -205 -93 -324.5t-226 -119.5q-148 0 -227 98l39 125q50 -41 86.5 -56.5t103.5 -15.5q65 0 110.5 70t59.5 188q-72 -112 -193 -112q-106 0 -178.5 81t-72.5 216q0 78 25.5 138.5t68.5 95t93.5 52t104.5 17.5q136 0 217.5 -121.5t81.5 -331.5zM285 426
q46 0 99 41.5t75 107.5q-13 64 -57 113t-83 49q-70 0 -112.5 -38t-42.5 -124q0 -68 38.5 -108.5t82.5 -40.5z" />
    <glyph glyph-name="Euro" unicode="&#x20ac;" horiz-adv-x="1144" 
d="M989 393l96 -192q-69 -98 -180.5 -162t-214.5 -64q-109 0 -200.5 47.5t-151.5 124.5t-97.5 165t-50.5 180h-149l55 131h76q0 11 -1 33.5t-1 35.5v94h-129l55 136h88q39 250 164.5 399t292.5 149q126 0 238.5 -49.5t191.5 -160.5l-90 -187q-72 90 -153 128t-183 38
q-94 0 -149.5 -75t-89.5 -242h335l-55 -136h-303q0 -12 -1 -37t-1 -38q0 -34 4 -88h356l-53 -131h-272q17 -121 86 -205t143 -84q196 0 344 190z" />
    <glyph glyph-name="afii61352" unicode="&#x2116;" horiz-adv-x="1765" 
d="M924 -2h-154l-457 825v-823h-227v1432h172l440 -824v824h226v-1434zM1681 719q0 -199 -86.5 -303.5t-246.5 -104.5t-248 105t-88 303t88.5 306t247.5 108t246 -107.5t87 -306.5zM1470 721q0 209 -122 209q-129 0 -129 -209q0 -203 129 -203q122 0 122 203zM1634 0h-555
v203h555v-203z" />
    <glyph glyph-name="trademark" unicode="&#x2122;" horiz-adv-x="1402" 
d="M1323 651l-143 -4l-2 436l-170 -432h-52l-161 428q0 -72 -1 -217t-1 -215l-144 4v799h113l227 -528q153 340 240 528h92zM608 1278h-213v-629h-143v629h-213v172h569v-172z" />
    <glyph glyph-name="estimated" unicode="&#x212e;" horiz-adv-x="1863" 
d="M1491 217q-2 0 10 -16.5l24 -33t11 -17.5q-124 -80 -264 -126.5t-348 -46.5q-118 0 -233.5 30.5t-220 94t-184 152.5t-126.5 215t-47 272q0 153 45.5 283.5t122.5 221t178.5 154.5t214 94t229.5 30q149 -2 271 -44t205 -112.5t140.5 -167t84.5 -205.5t30 -231v-37h-1175
v-504q54 -39 90 -61.5t94 -48.5t128 -38t157 -12q338 0 563 154zM453 803h884q-4 469 -6 471q-52 55 -100.5 88.5t-105.5 49.5t-100 20.5t-122 7.5q-74 0 -127.5 -6t-113.5 -23.5t-111.5 -54.5t-97.5 -94v-459z" />
    <glyph glyph-name="onethird" unicode="&#x2153;" horiz-adv-x="1294" 
d="M1225 242q0 -67 -25 -120t-64.5 -82.5t-80.5 -44.5t-80 -15q-123 0 -244 104l45 139q106 -86 199 -86q104 0 104 101q0 33 -11.5 56t-30 33.5t-35 14.5t-33.5 4q-16 0 -32.5 -1.5t-26 -3.5t-9.5 -3q-18 71 -2 160q0 -1 10 -3.5t27 -5t33 -2.5q36 0 73 28.5t37 76.5
q0 100 -104 100q-91 0 -199 -88l-43 139q121 109 242 109q40 0 81 -14.5t80 -43.5t64 -82t25 -120q0 -112 -51 -172q51 -60 51 -178zM944 1450l-692 -1450h-154l690 1450h156zM213 600h-135l-2 850h137v-850z" />
    <glyph glyph-name="twothirds" unicode="&#x2154;" horiz-adv-x="1536" 
d="M555 1182q0 -62 -16 -111t-48 -85t-62.5 -59t-74.5 -48q-37 -14 -68.5 -48t-43.5 -75h307v-156h-471q-1 23 -5 65.5t-5 61.5q12 50 27 88.5t28.5 62t37.5 48t39 36t48 35.5q12 9 18 13q74 36 112 77t38 95q0 61 -35 94t-96 24q-40 -5 -87.5 -29.5t-84.5 -64.5l-47 140
q134 116 249 116q39 0 78.5 -15t77 -46t61 -88t23.5 -131zM1458 248q0 -67 -25 -120t-64.5 -82.5t-80.5 -44.5t-80 -15q-122 0 -243 104l45 139q109 -86 198 -86q105 0 105 101q0 33 -11.5 56t-30.5 33.5t-36 14.5t-35 4q-15 0 -31 -1.5t-25 -3.5t-9 -3q-18 70 -2 158
q0 -1 9.5 -3t26 -3.5t31.5 -1.5q37 0 75 28t38 76q0 100 -105 100q-90 0 -198 -88l-45 140q123 108 243 108q40 0 81 -14.5t80 -43.5t64 -82t25 -120q0 -108 -51 -172q51 -63 51 -178zM1149 1450l-612 -1450h-156l614 1450h154z" />
    <glyph glyph-name="partialdiff" unicode="&#x2202;" horiz-adv-x="905" 
d="M850 629q0 -190 -43.5 -333t-136 -227.5t-224.5 -84.5q-79 0 -151 35t-129.5 100t-92 168.5t-34.5 230.5q0 129 33.5 233.5t90.5 170t129.5 100.5t153.5 35q42 0 90 -31t87 -86q-21 121 -63 206t-83 109q-37 22 -50 28.5t-41.5 16.5t-56 8t-65.5 -12l12 209
q123 16 214 -12.5t169 -93.5q83 -65 136.5 -277.5t54.5 -492.5zM623 520q0 146 -50.5 232t-126.5 86q-75 0 -125.5 -86t-50.5 -232q0 -143 50.5 -225t125.5 -82q77 0 127 81.5t50 225.5z" />
    <glyph glyph-name="product" unicode="&#x220f;" horiz-adv-x="1251" 
d="M1157 715q0 -190 -72 -349t-193.5 -250t-264.5 -91q-108 0 -206.5 54t-170 145.5t-114 220t-42.5 270.5q0 191 72 350t194 249.5t267 90.5q143 0 264.5 -90.5t193.5 -249.5t72 -350zM1040 719q0 148 -54.5 274.5t-150 201.5t-208.5 75q-114 0 -210 -75t-151 -201.5
t-55 -274.5q0 -147 55 -273.5t151 -202t210 -75.5q113 0 208.5 75.5t150 202t54.5 273.5zM885 829q0 -124 -58 -195t-147 -71h-92v-217h-127v758h217q88 0 147.5 -73.5t59.5 -201.5zM774 823q0 48 -21 82.5t-59 34.5h-106v-229q14 0 45 -1t45 -1q39 0 67.5 34t28.5 80z" />
    <glyph glyph-name="summation" unicode="&#x2211;" horiz-adv-x="942" 
d="M881 0h-824v162l342 540l-340 592v156h809v-289h-196v82h-318l301 -549l-290 -489h323v90h193v-295z" />
    <glyph glyph-name="minus" unicode="&#x2212;" horiz-adv-x="657" 
d="M604 608h-581v195h581v-195z" />
    <glyph glyph-name="radical" unicode="&#x221a;" horiz-adv-x="890" 
d="M860 1450l-342 -1452h-112l-144 645h-2l-57 -225h-164l162 504h121l143 -555l207 1083h188z" />
    <glyph glyph-name="infinity" unicode="&#x221e;" horiz-adv-x="1234" 
d="M1157 629q0 -88 -19 -176t-55.5 -165t-98.5 -125t-140 -48q-41 0 -76.5 19.5t-63.5 56t-49 77.5t-41 94q-101 -249 -217 -249q-69 0 -125.5 32.5t-93 85t-61 123t-35 142t-10.5 145.5q0 89 17.5 172.5t53 155.5t97.5 115.5t143 43.5q72 0 132 -72t103 -177
q112 247 236 247q77 0 137.5 -46t95.5 -120.5t52.5 -159t17.5 -171.5zM512 629q-20 113 -56.5 199.5t-72.5 86.5q-61 0 -93 -77t-32 -197q0 -134 35.5 -223.5t103.5 -89.5q31 0 62 90.5t53 210.5zM969 629q0 120 -30 201t-85 81q-33 0 -71 -86.5t-64 -197.5q39 -175 62 -229
q30 -69 63 -70q57 0 91 88.5t34 212.5z" />
    <glyph glyph-name="integral" unicode="&#x222b;" horiz-adv-x="618" 
d="M592 1526l-23 -219q-50 18 -73 18q-45 0 -58 -33q-30 -45 -30 -151v-1231q0 -84 -32.5 -173t-78.5 -134q-73 -76 -168 -76q-64 0 -129 33l20 219q51 -21 76 -21q42 0 60 33q28 47 28 150v1233q0 86 31 175.5t80 135.5q74 74 168 74q59 0 129 -33z" />
    <glyph glyph-name="approxequal" unicode="&#x2248;" horiz-adv-x="862" 
d="M723 903l72 -39q0 -20 -17.5 -65.5t-45.5 -96.5t-72 -89t-89 -38q-46 0 -91 27.5t-74 60t-62 60t-57 27.5q-98 0 -144 -158l-77 33q0 23 14 70t39 101t68 94t92 40q46 0 91 -27t73.5 -59t62 -59t59.5 -27q50 0 91.5 41t66.5 104zM733 489l72 -38q0 -20 -17.5 -65.5
t-45.5 -96.5t-72 -89t-90 -38q-37 0 -73.5 18t-64.5 43.5t-52.5 51t-49 43.5t-43.5 18q-99 0 -145 -158l-76 33q0 23 14 70t39 101t68 94t92 40q46 0 90.5 -27t73 -59t61.5 -59t59 -27q50 0 91.5 41t68.5 104z" />
    <glyph glyph-name="notequal" unicode="&#x2260;" horiz-adv-x="684" 
d="M651 1440l-143 -447h119v-192h-197l-84 -273h281v-194h-361l-135 -393h-129l137 393h-84v194h164l82 273h-246v192h326l141 447h129z" />
    <glyph glyph-name="lessequal" unicode="&#x2264;" horiz-adv-x="608" 
d="M559 393l-504 332v154l504 356v-205l-293 -225l293 -211v-201zM557 135h-502v178h502v-178z" />
    <glyph glyph-name="greaterequal" unicode="&#x2265;" horiz-adv-x="608" 
d="M559 725l-504 -332v201l291 211l-291 225v205l504 -356v-154zM557 135h-502v178h502v-178z" />
    <glyph glyph-name="lozenge" unicode="&#x25ca;" horiz-adv-x="1116" 
d="M1061 0h-230l-104 172q-122 -190 -281 -190q-51 0 -101 12t-103 44t-93 80.5t-66 128.5t-26 181q0 246 230 432l-27 45q-41 73 -60.5 158t-4.5 149q22 131 111.5 202.5t207.5 51.5q121 -13 215 -110l-94 -162q-19 30 -45 47.5t-49 20.5q-51 8 -84 -30.5t-33 -88.5
q0 -49 80 -201l227 -401q44 89 67 158.5t23 93.5l150 -109q0 -22 -37 -132.5t-80 -207.5l209 -317q0 -8 -1 -14t-1 -13zM457 195q33 0 73.5 39.5t75.5 107.5l-190 334q-70 -65 -103.5 -120.5t-33.5 -133.5q0 -118 51 -172.5t127 -54.5z" />
    <glyph glyph-name="I.alt01" horiz-adv-x="688" 
d="M604 1448v-227h-135v-994h135v-227h-534v229h153v992h-153v227h534z" />
    <glyph glyph-name="caron.alt" horiz-adv-x="319" 
d="M291 1513l-96 -444l-154 2l61 442h189z" />
    <glyph glyph-name="commaaccent" horiz-adv-x="573" 
d="M465 -240q0 -97 -66.5 -202t-152.5 -152l-45 109q24 26 58.5 79t47.5 89l-6 2q-44 0 -65 35.5t-21 84.5q0 56 39.5 91.5t83.5 35.5q55 0 91 -49t36 -123z" />
    <glyph glyph-name="A.alt01" horiz-adv-x="1138" 
d="M444 371q0 58 33 98.5t78 40.5q46 0 78.5 -40.5t32.5 -98.5t-32.5 -99t-78.5 -41q-45 0 -78 41t-33 99zM557 1102l-301 -1102h-238l453 1454h186l433 -1454h-244z" />
    <glyph glyph-name="A.alt02" horiz-adv-x="1138" 
d="M557 1102l-301 -1102h-238l453 1454h186l433 -1454h-244z" />
    <glyph glyph-name="exclam.sc" horiz-adv-x="296" 
d="M260 1178l-27 -789h-165l-29 789h221zM252 111q0 -54 -31 -88.5t-76 -34.5q-43 0 -73.5 34.5t-30.5 88.5t31 89.5t73 35.5q45 0 76 -35t31 -90z" />
    <glyph glyph-name="dollar.sc" horiz-adv-x="811" 
d="M774 367q0 -83 -26.5 -147.5t-67 -102.5t-94 -62.5t-101 -33.5t-94.5 -9h-14l-27 -166q-22 0 -67 1t-68 1l31 185q-47 14 -80.5 34t-108.5 76l39 199q12 -8 38 -26.5t37 -26t31 -20.5t31.5 -19.5t25.5 -13.5t26 -11q5 46 13 137.5t13 137.5q-45 10 -81.5 24t-76 39.5
t-66 59t-43.5 86t-17 118.5q0 79 26 140.5t65.5 97.5t91.5 59t97 31t90 8q15 0 23 -2q15 72 24 148l138 -4l-31 -168q28 -10 51.5 -23.5t63 -39.5t61.5 -40l-33 -186q-92 77 -180 106l-27 -264q46 -8 80 -18t75.5 -33.5t68 -56t45 -88t18.5 -127.5zM575 365q0 29 -9.5 49
t-34.5 34t-35 17.5t-43 12.5l-9 3q-29 -264 -30 -274q74 0 117.5 38.5t43.5 119.5zM354 707q5 54 29 266h-43q-65 -6 -90 -43t-25 -99q0 -82 129 -124z" />
    <glyph glyph-name="percent.sc" horiz-adv-x="991" 
d="M391 881q0 -110 -55 -189.5t-131 -79.5q-75 0 -130 79.5t-55 189.5q0 113 54.5 191.5t130.5 78.5q77 0 131.5 -78.5t54.5 -191.5zM928 293q0 -112 -56 -191t-133 -79q-75 0 -129.5 79t-54.5 191t54 190t130 78q77 0 133 -78t56 -190zM874 1161l-673 -1167l-127 16
l667 1168zM264 883q0 52 -18 87.5t-43 35.5q-24 0 -42 -36t-18 -87q0 -50 18 -86.5t42 -36.5q25 0 43 35.5t18 87.5zM799 293q0 50 -18 86.5t-42 36.5t-42.5 -36.5t-18.5 -86.5q0 -51 18.5 -87t42.5 -36t42 36t18 87z" />
    <glyph glyph-name="ampersand.sc" horiz-adv-x="960" 
d="M909 14l-190 -20l-47 82l-47 69q-106 -161 -242 -161q-46 0 -88 7.5t-90.5 31t-83.5 61.5t-58.5 106t-23.5 158q0 211 194 344q-81 129 -81 248q0 123 77 190.5t203 67.5q127 0 190.5 -70t63.5 -196q0 -178 -160 -297q54 -120 95 -203q98 155 100 215l117 -104
q-1 -37 -30.5 -108t-70.5 -140q26 -36 84 -120.5t88 -125.5v-35zM391 168q46 0 117 117q-27 43 -72 131l-71 131q-127 -79 -127 -203q0 -99 41.5 -137.5t111.5 -38.5zM502 934q0 98 -68 98q-78 0 -78 -100q0 -9 1 -18.5t4 -20t5 -18.5t7 -19.5t7 -17.5t8.5 -18.5t8.5 -16
t9 -17t8 -14.5l20 14q29 31 48.5 72t19.5 76z" />
    <glyph glyph-name="question.sc" horiz-adv-x="751" 
d="M717 862q0 -129 -44 -193.5t-120 -97.5q-2 -6 -36 -19t-72 -28t-69.5 -47.5t-31.5 -73.5q0 -44 12 -69h-168q-14 68 -14 108q0 34 6.5 63.5t14.5 51t25.5 42t28 32t35 26.5t34 20t36.5 17.5t31 14.5q33 10 53 19.5t42.5 26t33 42.5t10.5 61q0 37 -12.5 65.5t-31.5 45
t-43 27.5t-45 14.5t-40 3.5q-82 0 -149.5 -36t-134.5 -112l-37 170q137 146 309 154q14 2 45 2q45 -2 87.5 -12t88 -34t79.5 -59.5t55.5 -93.5t21.5 -131zM397 111q0 -53 -33 -88t-75 -35q-41 0 -74 35.5t-33 87.5q0 53 32.5 89t74.5 36t75 -36t33 -89z" />
    <glyph glyph-name="space.sc" horiz-adv-x="712" 
 />
    <glyph glyph-name="one.osf" horiz-adv-x="720" 
d="M629 -2h-520v180h170v500q-54 -71 -115 -156l-90 131l245 344h136v-819h174v-180z" />
    <glyph glyph-name="two.osf" horiz-adv-x="737" 
d="M670 672q0 -190 -60 -297q-31 -22 -74.5 -40t-116.5 -41t-81 -26q-72 -51 -98 -88h424v-180h-617l-18 137q18 51 46 94.5t54 72t69 59.5t68 46t74 42q82 48 115.5 99t33.5 118q0 89 -25.5 130.5t-107.5 41.5q-117 0 -272 -125l-55 155q90 74 167 108t160 34q36 0 76 -10
t83 -35.5t77 -63t56 -97.5t22 -134z" />
    <glyph glyph-name="three.osf" horiz-adv-x="755" 
d="M707 203q0 -114 -33.5 -206t-89.5 -148t-124 -85.5t-141 -29.5q-75 0 -134.5 21t-137.5 69l25 194q13 -8 38.5 -25t35.5 -23t31 -17t36.5 -14.5t39.5 -7t52 -3.5q95 0 152 67.5t57 197.5q0 200 -158 200q-80 0 -168 -61l-57 117l262 354q-20 -2 -63 -2h-252v194h586v-159
l-213 -285q7 -1 29.5 -1.5t33.5 -2.5q86 -21 139.5 -105.5t53.5 -238.5z" />
    <glyph glyph-name="four.osf" horiz-adv-x="876" 
d="M819 53h-112v-286h-203v286h-438l-3 154l506 792h138v-753h112v-193zM504 244v446l-217 -446h217z" />
    <glyph glyph-name="five.osf" horiz-adv-x="847" 
d="M778 201q0 -115 -36 -204.5t-95.5 -140.5t-128 -76.5t-141.5 -25.5q-177 0 -318 113l50 188q112 -98 278 -98q50 0 87 19.5t58 54t31 77.5t10 95q0 48 -5.5 81.5t-20.5 62t-44.5 42.5t-74.5 14q-92 0 -154 -31t-86 -85l-129 41l23 669h651v-204h-475l-6 -291
q75 86 180 86q46 0 90.5 -10.5t92 -38.5t83 -70t58 -111t22.5 -157z" />
    <glyph glyph-name="six.osf" horiz-adv-x="878" 
d="M825 418q0 -106 -35 -191t-92.5 -135.5t-126 -77t-141.5 -26.5q-58 0 -116 29t-109.5 86t-91 133t-63 178t-23.5 213q0 142 38 261.5t99.5 197t139.5 120.5t159 43q97 0 163.5 -23t131.5 -73l-84 -166q-48 35 -73 48t-56 16q-28 3 -80 -9q-95 -29 -166 -142.5t-80 -266.5
q51 98 119 158.5t147 60.5q154 0 247 -110t93 -324zM643 426q0 114 -47 172.5t-121 58.5q-61 0 -126 -68t-101 -173q26 -106 74 -166t104 -60q98 0 157.5 55.5t59.5 180.5z" />
    <glyph glyph-name="seven.osf" horiz-adv-x="804" 
d="M743 811l-450 -1044h-209l432 1028q-62 -4 -92 -4q-62 0 -186.5 1t-184.5 1v204h690v-186z" />
    <glyph glyph-name="eight.osf" horiz-adv-x="843" 
d="M797 340q0 -89 -30 -159t-80.5 -112t-113.5 -63.5t-133 -21.5q-78 0 -145 20.5t-121.5 60.5t-85.5 108.5t-31 156.5q0 100 34.5 180.5t86.5 122.5q-117 88 -117 262q0 344 363 344q356 0 356 -346q0 -167 -112 -252q56 -46 92.5 -125t36.5 -176zM575 340q0 86 -47.5 142
t-134.5 63q-77 -7 -108 -63.5t-31 -153.5q0 -78 34.5 -114t125.5 -36q87 0 124 38t37 124zM588 899q0 86 -33.5 120t-124.5 34q-94 0 -131 -35.5t-37 -114.5q0 -81 50.5 -127.5t140.5 -54.5q83 10 109 50.5t26 127.5z" />
    <glyph glyph-name="nine.osf" horiz-adv-x="886" 
d="M827 379q0 -139 -34.5 -258.5t-91 -198.5t-128 -123.5t-147.5 -44.5q-92 0 -182 33l39 170q3 -6 53 -13t92 -7q66 0 121 94.5t84 242.5q18 34 24 76q-128 -225 -270 -225q-153 0 -240.5 109.5t-87.5 328.5q0 93 24 170.5t62 127.5t88.5 84.5t101 49.5t101.5 15
q72 0 141.5 -45.5t125 -125t90 -200.5t34.5 -260zM627 557q-58 262 -187 262q-202 0 -202 -260q0 -248 151 -248q66 0 136 71t102 175z" />
    <glyph glyph-name="zero.osf" horiz-adv-x="823" 
d="M772 487q0 -114 -33 -211.5t-86 -159.5t-118 -97t-132 -35q-68 0 -133.5 34.5t-118.5 97t-85.5 159.5t-32.5 212q0 121 32.5 223t85.5 167t118.5 101t133.5 36t133 -36t118 -101t85.5 -167t32.5 -223zM590 487q0 149 -51.5 245.5t-135.5 96.5q-85 0 -136.5 -96
t-51.5 -246q0 -143 50.5 -230t137.5 -87q86 0 136.5 89t50.5 228z" />
    <glyph glyph-name="one.sc" horiz-adv-x="526" 
d="M377 0h-240v717q0 9 1 28.5t1 28.5l-2 -26v235l180 207h60v-1190z" />
    <glyph glyph-name="two.sc" horiz-adv-x="880" 
d="M805 809q0 -67 -17 -124t-41.5 -96t-65.5 -76t-74.5 -59.5t-82.5 -50.5q-9 -9 -54 -47t-71.5 -70t-48.5 -77h449v-211h-713q-1 17 -5 55.5t-5 55.5l-8 57q28 111 69 189.5t87 123.5t110 82q46 27 77 47.5t73 54.5t64.5 70.5t22.5 73.5q0 89 -26.5 135.5t-100.5 46.5
q-128 0 -307 -137l-67 192q99 84 188 122t186 38q45 0 92.5 -12.5t96.5 -42t86.5 -73.5t61.5 -113t24 -154z" />
    <glyph glyph-name="three.sc" horiz-adv-x="868" 
d="M786 354q0 -82 -26 -147.5t-66.5 -105.5t-93 -67t-100.5 -37.5t-94 -10.5q-86 0 -166 38t-170 111l39 205q177 -139 297 -139q137 0 141 88q0 34 -15 92q-17 101 -38 117h2q-40 6 -76 6q-21 0 -56.5 -3.5t-59 -6.5t-23.5 -2q-24 53 -21 116q3 44 16 76q101 -12 138 -12
q22 0 43 7t42.5 24t34.5 52.5t13 84.5q0 62 -33 103.5t-108 41.5q-118 0 -297 -141l-43 205q100 81 175.5 115t164.5 34q46 0 94.5 -10.5t101 -37t92.5 -66t66 -104.5t26 -146q0 -139 -86 -232q86 -90 86 -248z" />
    <glyph glyph-name="four.sc" horiz-adv-x="897" 
d="M827 276h-108v-276h-240v276h-422v144l494 772h168v-729h108v-187zM479 463v356l-143 -356h143z" />
    <glyph glyph-name="five.sc" horiz-adv-x="888" 
d="M811 377q0 -91 -27 -161.5t-67.5 -112t-94.5 -68t-101.5 -36t-94.5 -9.5q-96 0 -186 38t-156 111l43 191q68 -59 151.5 -94t145.5 -35q79 0 111 47t32 135q0 90 -24.5 138.5t-89.5 56.5q-83 10 -140 -16.5t-80 -69.5l-161 45l24 651h672v-211h-455l-4 -105
q-4 -98 -4 -157q57 57 152 57q48 0 94.5 -11t94.5 -39t84 -71t58.5 -114t22.5 -160z" />
    <glyph glyph-name="six.sc" horiz-adv-x="919" 
d="M840 387q0 -83 -27 -153t-70 -114.5t-97 -75.5t-106.5 -44.5t-101.5 -13.5q-74 0 -142.5 42.5t-123 119t-87 193.5t-32.5 255q0 142 34 258.5t91.5 191t132 114.5t158.5 40q111 0 189 -36t149 -107l-72 -166q-85 113 -207 113q-107 0 -186.5 -88t-79.5 -228q0 -17 4 -57
q94 143 221 143q150 0 251.5 -102t101.5 -285zM631 393q0 98 -36.5 143t-113.5 50q-57 -3 -111 -50.5t-85 -140.5q23 -92 63.5 -145t85.5 -53q81 0 139 46t58 150z" />
    <glyph glyph-name="seven.sc" horiz-adv-x="862" 
d="M780 1001l-442 -1001h-242l414 975h-442v211h708z" />
    <glyph glyph-name="eight.sc" horiz-adv-x="888" 
d="M817 330q0 -159 -104 -251.5t-254 -92.5q-165 0 -276 89.5t-111 246.5q0 95 32.5 171.5t83.5 120.5q-110 85 -110 248q0 165 95.5 250.5t268.5 85.5q172 0 267.5 -87.5t95.5 -248.5q0 -160 -113 -244q57 -47 91 -121t34 -167zM561 330q0 71 -39.5 125.5t-107.5 60.5
q-109 -11 -109 -197q0 -62 30.5 -100.5t94.5 -38.5q67 0 99 42t32 108zM575 866q0 66 -31 106t-95 40q-69 0 -102.5 -38.5t-33.5 -103.5q0 -56 43.5 -100t112.5 -63q60 21 83 57.5t23 101.5z" />
    <glyph glyph-name="nine.sc" horiz-adv-x="929" 
d="M860 590q0 -142 -35 -258.5t-93 -190t-130.5 -113.5t-150.5 -40q-108 0 -208 42.5t-151 110.5l80 148q70 -65 129.5 -90t149.5 -25q67 0 122.5 106.5t65.5 262.5q-98 -146 -225 -146q-159 0 -250.5 101.5t-91.5 292.5q0 105 36 186.5t94.5 127.5t124.5 68.5t134 22.5
q75 0 146 -41.5t127.5 -117t91 -192t34.5 -255.5zM414 586q60 0 118 50t89 142q-62 217 -154 217q-37 0 -68.5 -10.5t-59.5 -33.5t-44 -66t-16 -101q0 -95 37 -146.5t98 -51.5z" />
    <glyph glyph-name="zero.sc" horiz-adv-x="1003" 
d="M932 580q0 -138 -38.5 -253t-102 -188t-141.5 -113t-161 -40t-161.5 40t-141.5 113t-101 188t-38 253q0 149 38 270t101 195.5t141 114.5t162 40q83 0 161 -40t141.5 -114.5t102 -195.5t38.5 -270zM686 580q0 187 -53.5 297t-143.5 110q-88 0 -141 -110t-53 -297
q0 -173 53 -276t141 -103q89 0 143 105.5t54 273.5z" />
    <glyph glyph-name="eth.001" horiz-adv-x="995" 
d="M961 588q0 -273 -132 -430.5t-352 -157.5h-373v508h-92v164h92v504h410q203 0 325 -161.5t122 -426.5zM748 584q0 190 -66.5 291.5t-216.5 101.5h-129v-305h115v-164h-115v-307h125q135 0 211 104.5t76 278.5z" />
    <glyph glyph-name="lslash.001" horiz-adv-x="921" 
d="M868 -2h-729v465l-98 -86v209l98 84v508h230v-357l123 107v-207l-123 -107v-399h499v-217z" />
    <glyph glyph-name="scaron.001" horiz-adv-x="899" 
d="M862 358q0 -88 -29.5 -156t-73.5 -108t-102.5 -65t-110 -34t-102.5 -9q-102 0 -174 30t-196 117l47 207q206 -145 315 -145q86 0 144.5 38.5t58.5 124.5q0 42 -25 70t-65.5 40.5t-93 24.5t-106.5 21t-106.5 32.5t-93 56.5t-65.5 94t-25 145q0 85 30 151t74.5 103.5
t103 61.5t107.5 32t97 8q113 0 190 -30t170 -105l-38 -199q-166 133 -318 133q-111 0 -151.5 -33.5t-40.5 -111.5q0 -18 6.5 -33t21 -27.5t25.5 -21t34.5 -17.5t32.5 -12.5t34 -10.5t26 -7q130 -21 192 -46q207 -84 207 -319zM709 1620l-215 -336h-121l-221 336l174 20
l108 -194l109 194z" />
    <glyph glyph-name="yacute.001" horiz-adv-x="935" 
d="M903 1178v-84l-336 -650v-444h-231v459q-34 71 -119.5 223t-138.5 259.5t-53 152.5v84h223l219 -516l215 516h221zM731 1597l-287 -348q-26 0 -75.5 1t-73.5 1l201 361h221z" />
    <glyph glyph-name="thorn.001" horiz-adv-x="854" 
d="M805 588q0 -186 -93.5 -290.5t-230.5 -104.5h-196v-193h-234l4 1178h232v-187h198q148 0 234 -101.5t86 -301.5zM590 584q0 95 -28.5 140.5t-92.5 45.5h-184v-373h176q63 0 96 51t33 136z" />
    <glyph glyph-name="zcaron.001" horiz-adv-x="880" 
d="M852 1028l-465 -827h447v-201h-764l2 147l469 830h-457v201h768v-150zM717 1610l-215 -336h-121l-221 336l172 18l108 -192l111 192z" />
    <glyph glyph-name="ccedilla.sc" horiz-adv-x="899" 
d="M856 182q-6 -5 -18.5 -12t-16.5 -10q-63 -82 -138.5 -130t-190.5 -48q-24 0 -52 4l-30 -103q38 15 61 15q27 0 54 -9.5t53.5 -29.5t42.5 -58.5t16 -89.5q0 -43 -15.5 -76.5t-38 -52.5t-51.5 -31.5t-52.5 -17t-43.5 -4.5q-89 0 -160 63l31 115q61 -49 129 -49q76 0 76 59
q0 76 -70 76q-23 0 -39 -7t-21 -14.5t-5 -13.5l-107 64l56 188q-124 55 -206.5 206t-82.5 374q0 136 39.5 253.5t104 194t144.5 119.5t162 43q121 0 200.5 -47t150.5 -139l-54 -193q-78 86 -141 125t-147 39q-100 0 -168 -109.5t-68 -287.5t68.5 -288t165.5 -110
q81 0 148.5 44.5t150.5 130.5z" />
    <glyph glyph-name="eacute.sc" horiz-adv-x="886" 
d="M811 0h-729v1176h715v-203h-486v-289h412v-201h-410v-276h498v-207zM657 1612l-286 -367h-148l201 381h219z" />
    <glyph glyph-name="egrave.sc" horiz-adv-x="884" 
d="M811 0h-729v1176h715v-203h-486v-289h412v-201h-410v-276h498v-207zM653 1272q-25 0 -77.5 -1t-79.5 -1l-297 299l14 67h225z" />
    <glyph glyph-name="ecircumflex.sc" horiz-adv-x="886" 
d="M811 0h-729v1176h715v-203h-486v-289h412v-201h-410v-276h498v-207zM713 1274h-168l-111 180l-108 -180h-168l217 362h123z" />
    <glyph glyph-name="edieresis.sc" horiz-adv-x="862" 
d="M811 0h-729v1176h715v-203h-486v-289h412v-201h-410v-276h498v-207zM369 1440q0 -52 -29 -87.5t-70 -35.5q-40 0 -69 35.5t-29 87.5q0 53 29 90t69 37q41 0 70 -36.5t29 -90.5zM698 1440q0 -52 -28 -87.5t-68 -35.5t-69 35.5t-29 87.5q0 54 28.5 90.5t69.5 36.5
q40 0 68 -36.5t28 -90.5z" />
    <glyph glyph-name="iacute.sc" horiz-adv-x="350" 
d="M270 0h-215v1176h215v-1176zM451 1591l-283 -327h-141l196 338h217z" />
    <glyph glyph-name="igrave.sc" horiz-adv-x="346" 
d="M270 0h-215v1176h215v-1176zM295 1278h-158l-321 360l20 21h223z" />
    <glyph glyph-name="icircumflex.sc" horiz-adv-x="428" 
d="M319 0h-215v1176h215v-1176zM477 1278h-170l-106 180l-111 -180h-168l219 362h123z" />
    <glyph glyph-name="idieresis.sc" horiz-adv-x="507" 
d="M365 0h-213v1176h213v-1176zM180 1423q0 -53 -28 -88t-70 -35q-38 0 -66 35t-28 88q0 52 28 87.5t66 35.5q41 0 69.5 -35.5t28.5 -87.5zM512 1423q0 -53 -27.5 -88t-66.5 -35t-67.5 35t-28.5 88q0 52 28 87.5t68 35.5q39 0 66.5 -35.5t27.5 -87.5z" />
    <glyph glyph-name="ntilde.sc" horiz-adv-x="1003" 
d="M924 0h-115l-508 762v-762h-223v1178h137l487 -740v740h222v-1178zM715 1530l71 -27q0 -25 -23 -80.5t-68 -109t-91 -53.5q-36 0 -68.5 17.5t-53 39.5t-45.5 44t-44 28q-37 6 -61 -9q-27 -15 -43 -110l-76 33q1 19 12.5 58t32 85t54.5 79.5t73 33.5q38 0 71 -21.5
t52.5 -47.5t44 -47.5t47.5 -21.5v62q65 -3 115 47z" />
    <glyph glyph-name="oacute.sc" horiz-adv-x="1079" 
d="M1026 586q0 -141 -42 -259.5t-111 -194.5t-154.5 -117.5t-175.5 -41.5t-176 42t-155 118.5t-111 195t-42 259.5q0 145 42 265t111 195.5t154.5 116.5t176.5 41q90 0 176 -43.5t154.5 -121t110.5 -196.5t42 -259zM807 586q0 113 -28.5 203t-89.5 146t-146 56
q-127 0 -197 -115t-70 -290q0 -110 29 -198.5t90.5 -144t147.5 -55.5q85 0 146 54.5t89.5 143t28.5 200.5zM776 1634l-287 -340h-149l203 355h219z" />
    <glyph glyph-name="ograve.sc" horiz-adv-x="1081" 
d="M1026 586q0 -141 -42 -259.5t-111 -194.5t-154.5 -117.5t-175.5 -41.5t-176 42t-155 118.5t-111 195t-42 259.5q0 145 42 265t111 195.5t154.5 116.5t176.5 41q90 0 176 -43.5t154.5 -121t110.5 -196.5t42 -259zM807 586q0 113 -28.5 203t-89.5 146t-146 56
q-127 0 -197 -115t-70 -290q0 -110 29 -198.5t90.5 -144t147.5 -55.5q85 0 146 54.5t89.5 143t28.5 200.5zM526 1642l217 -350h-159l-297 326l14 24h225z" />
    <glyph glyph-name="ocircumflex.sc" horiz-adv-x="1062" 
d="M1026 586q0 -141 -42 -259.5t-111 -194.5t-154.5 -117.5t-175.5 -41.5t-176 42t-155 118.5t-111 195t-42 259.5q0 145 42 265t111 195.5t154.5 116.5t176.5 41q90 0 176 -43.5t154.5 -121t110.5 -196.5t42 -259zM807 586q0 113 -28.5 203t-89.5 146t-146 56
q-127 0 -197 -115t-70 -290q0 -110 29 -198.5t90.5 -144t147.5 -55.5q85 0 146 54.5t89.5 143t28.5 200.5zM815 1305h-170l-106 159l-111 -159h-170l221 342h121z" />
    <glyph glyph-name="odieresis.sc" horiz-adv-x="1067" 
d="M1026 586q0 -141 -42 -259.5t-111 -194.5t-154.5 -117.5t-175.5 -41.5t-176 42t-155 118.5t-111 195t-42 259.5q0 145 42 265t111 195.5t154.5 116.5t176.5 41q90 0 176 -43.5t154.5 -121t110.5 -196.5t42 -259zM807 586q0 113 -28.5 203t-89.5 146t-146 56
q-127 0 -197 -115t-70 -290q0 -110 29 -198.5t90.5 -144t147.5 -55.5q85 0 146 54.5t89.5 143t28.5 200.5zM463 1438q0 -54 -28 -89.5t-70 -35.5q-39 0 -68 36t-29 89t29 90t68 37q41 0 69.5 -36.5t28.5 -90.5zM795 1438q0 -53 -29.5 -89t-69.5 -36t-69 36t-29 89
q0 54 28.5 90.5t69.5 36.5q40 0 69.5 -37t29.5 -90z" />
    <glyph glyph-name="otilde.sc" horiz-adv-x="1079" 
d="M1026 586q0 -141 -42 -259.5t-111 -194.5t-154.5 -117.5t-175.5 -41.5t-176 42t-155 118.5t-111 195t-42 259.5q0 145 42 265t111 195.5t154.5 116.5t176.5 41q90 0 176 -43.5t154.5 -121t110.5 -196.5t42 -259zM807 586q0 113 -28.5 203t-89.5 146t-146 56
q-127 0 -197 -115t-70 -290q0 -110 29 -198.5t90.5 -144t147.5 -55.5q85 0 146 54.5t89.5 143t28.5 200.5zM756 1579l73 -29q0 -16 -14.5 -54.5t-38 -81.5t-59.5 -75t-72 -32q-35 0 -67.5 17.5t-53 39.5t-45.5 44t-45 28q-37 9 -61 -6q-21 -13 -41 -113l-76 35q0 18 12 57.5
t32 85t54.5 79.5t73.5 34q37 0 70 -21.5t53 -47.5t44.5 -47.5t47.5 -21.5v62q64 -6 113 47z" />
    <glyph glyph-name="uacute.sc" horiz-adv-x="974" 
d="M922 555q0 -273 -113 -421t-311 -148q-204 0 -318.5 144t-113.5 409q0 107 -1.5 320t-1.5 319h228v-625q1 -187 55 -267.5t152 -80.5q89 0 142.5 87.5t53.5 270.5v615h228v-623zM707 1606l-289 -369h-148l201 383h221z" />
    <glyph glyph-name="ugrave.sc" horiz-adv-x="968" 
d="M922 555q0 -273 -113 -421t-311 -148q-204 0 -318.5 144t-113.5 409q0 107 -1.5 320t-1.5 319h228v-625q1 -187 55 -267.5t152 -80.5q89 0 142.5 87.5t53.5 270.5v615h228v-623zM686 1260q-26 0 -80 -1.5t-80 -1.5l-297 299l15 68h225z" />
    <glyph glyph-name="ucircumflex.sc" horiz-adv-x="968" 
d="M922 555q0 -273 -113 -421t-311 -148q-204 0 -318.5 144t-113.5 409l-3 639h228v-625q1 -187 55 -267.5t152 -80.5q89 0 142.5 87.5t53.5 270.5v615h228v-623zM758 1270h-168l-109 178l-108 -178h-170l219 362h123z" />
    <glyph glyph-name="udieresis.sc" horiz-adv-x="974" 
d="M922 555q0 -273 -113 -421t-311 -148q-204 0 -318.5 144t-113.5 409l-3 639h228v-625q1 -187 55 -267.5t152 -80.5q89 0 142.5 87.5t53.5 270.5v615h228v-623zM408 1427q0 -53 -28 -87.5t-69 -34.5t-69.5 34.5t-28.5 87.5t29 90t69 37t68.5 -36.5t28.5 -90.5zM739 1427
q0 -53 -28.5 -87.5t-67.5 -34.5q-42 0 -70 34.5t-28 87.5q0 54 28.5 90.5t69.5 36.5q39 0 67.5 -37t28.5 -90z" />
    <glyph glyph-name="ae.001" horiz-adv-x="1456" 
d="M1352 0h-727v240h-271q-49 -132 -92 -240h-256q4 54 4 78l541 1100h786v-205h-485l2 -115v-182h412v-201h-412q2 -90 2 -268h496v-207zM618 440v467q-26 -45 -84.5 -238.5t-89.5 -228.5h174z" />
    <glyph glyph-name="oslash.sc" horiz-adv-x="1046" 
d="M1004 586q0 -141 -42 -259.5t-111.5 -194.5t-155 -117.5t-175.5 -41.5q-63 0 -117 29l-84 -238h-163l106 297q-104 79 -166.5 215t-62.5 312q0 145 42.5 265t112 195.5t155.5 116.5t177 41q56 0 123 -28l90 247q27 0 82 1t82 1l-117 -313q102 -81 163 -216.5t61 -311.5z
M555 979q-20 12 -35 12q-85 0 -146.5 -55.5t-90.5 -145.5t-29 -204q0 -219 96 -324q50 172 205 717zM784 586q0 217 -90 327q-162 -568 -202 -710q7 -5 26 -10q50 -3 82 2q89 13 136.5 121.5t47.5 269.5z" />
    <glyph glyph-name="oe.001" horiz-adv-x="1505" 
d="M1425 0h-723q-96 -29 -159 -29q-90 0 -176 42.5t-155 119t-111 195.5t-42 260q0 144 42 264t111 195.5t154.5 117t176.5 41.5q66 0 159 -28h711v-205h-452q38 -110 57 -289h323v-203h-325q-12 -167 -49 -276h458v-205zM807 586q0 113 -28.5 203t-89.5 146t-146 56
q-127 0 -197 -115t-70 -290q0 -110 29 -198.5t90.5 -144t147.5 -55.5q85 0 146 54.5t89.5 143t28.5 200.5z" />
    <glyph glyph-name="ydieresis.sc" horiz-adv-x="935" 
d="M903 1178v-84l-336 -650v-444h-231v459q-34 71 -119.5 223t-138.5 259.5t-53 152.5v84h223l219 -516l215 516h221zM393 1386q0 -54 -28 -89t-70 -35q-41 0 -70.5 35.5t-29.5 88.5t30 90t70 37q41 0 69.5 -36.5t28.5 -90.5zM723 1386q0 -53 -29 -88.5t-69 -35.5
q-41 0 -70 35.5t-29 88.5t29.5 90t69.5 37t69 -37t29 -90z" />
    <glyph glyph-name="emacron.001" horiz-adv-x="870" 
d="M811 0h-729v1176h715v-203h-486v-289h412v-201h-410v-276h498v-207zM684 1331h-498v187h498v-187z" />
    <glyph glyph-name="questiondown.sc" horiz-adv-x="749" 
d="M31 317q0 66 10.5 115.5t31 81t42.5 51t53 35.5q8 9 48 23.5t80 30t73.5 48t33.5 74.5q0 36 -14 70h166q16 -52 16 -109q0 -58 -21 -103t-56 -72.5t-67.5 -45t-69.5 -32t-48 -21.5q-43 -23 -64.5 -51.5t-21.5 -89.5q0 -45 18 -78t46.5 -49t55 -22.5t52.5 -6.5
q156 0 285 147l37 -168q-135 -147 -309 -155h-50q-57 2 -110 18.5t-104 51.5t-82 101t-31 156zM350 1069q0 53 33 88t74 35q43 0 75.5 -34.5t32.5 -88.5q0 -52 -32.5 -87.5t-75.5 -35.5q-41 0 -74 35t-33 88z" />
    <glyph glyph-name="exclamdown.sc" horiz-adv-x="299" 
d="M39 -14l29 788h165l27 -788h-221zM47 1053q0 54 30.5 88.5t74.5 34.5t76 -34.5t32 -88.5t-32 -88.5t-76 -34.5t-74.5 34.5t-30.5 88.5z" />
    <glyph glyph-name="numbersign.001" horiz-adv-x="892" 
d="M815 885l-10 -154h-152q-10 -210 -10 -248h152l-9 -151h-153q-7 -161 -10 -269l-125 3l10 266h-164l-12 -269l-123 3l10 266h-162l6 151h164l13 248h-162l6 154h164q1 27 3 76.5t4 90.5t5 76h123l-12 -243h168l12 243h123l-15 -243h156zM528 731h-163q-6 -129 -15 -248
h168z" />
    <glyph glyph-name="euro.001" horiz-adv-x="1019" 
d="M944 178l-41 -28q-164 -175 -311 -175q-133 0 -244 109.5t-153 298.5h-138l56 123h63q-2 18 -2 61v49h-117l58 127h73q34 194 149.5 312.5t252.5 118.5q104 0 193.5 -48.5t152.5 -144.5l-47 -174q-76 83 -145.5 124.5t-149.5 41.5q-65 0 -118 -61.5t-81 -168.5h293
l-55 -127h-262v-51q0 -41 2 -59h315l-51 -123h-229q28 -95 78.5 -150t107.5 -55q139 0 301 184z" />
    <glyph glyph-name="kratka" horiz-adv-x="862" 
d="M698 1452q0 -137 -76 -235.5t-188 -98.5q-121 0 -199.5 99.5t-78.5 234.5h143q8 -77 44 -127.5t91 -50.5q50 0 84.5 50t40.5 128h139z" />
    <glyph glyph-name="B.001" horiz-adv-x="974" 
d="M897 403q0 -97 -27.5 -175.5t-75 -127t-108 -74.5t-129.5 -26h-496v1448h480q161 0 252.5 -108t91.5 -296q0 -187 -137 -307v-4q58 -44 103.5 -135.5t45.5 -194.5zM297 1229v-1010h203q79 0 125.5 52.5t46.5 140.5q0 92 -34.5 148t-107.5 56h-141l-2 213h133
q77 0 116.5 54t39.5 145t-43 146t-121 55h-215z" />
    <glyph glyph-name="D.001" horiz-adv-x="1103" 
d="M475 1227h-387v221h444q151 0 265 -91t174.5 -255t60.5 -379q0 -333 -147.5 -528t-395.5 -195h-401v1071h242v-848h141q157 0 247.5 134t90.5 362q0 247 -78.5 377.5t-255.5 130.5z" />
    <glyph glyph-name="E.001" horiz-adv-x="966" 
d="M694 737q0 -57 -36.5 -97t-86.5 -40t-86 40t-36 97q0 56 36 95.5t86 39.5t86.5 -39.5t36.5 -95.5zM854 0h-784l4 1448h764v-225h-523q0 -21 -0.5 -133.5t-0.5 -323t1 -537.5h539v-229z" />
    <glyph glyph-name="F.001" horiz-adv-x="913" 
d="M817 1223h-506v-400h506v-227h-506q0 -70 -1 -298t-1 -298h-239v1448h747v-225z" />
    <glyph glyph-name="O.001" horiz-adv-x="1200" 
d="M1141 721q0 -139 -31 -261t-84 -211t-122.5 -153.5t-148 -96.5t-159.5 -32t-159.5 32.5t-148 97.5t-122.5 154.5t-84 212t-31 261.5q0 142 31 265.5t84 213t122.5 154t148 96t159.5 31.5t160 -33.5t148.5 -100t122.5 -157t83.5 -213t30.5 -260.5zM909 721
q0 147 -34.5 264t-107 188.5t-171.5 71.5q-100 0 -172.5 -71t-107.5 -188t-35 -265q0 -222 83 -368t232 -146q100 0 172 69.5t106.5 184t34.5 260.5zM489 721q0 58 33 98.5t78 40.5q46 0 78.5 -40.5t32.5 -98.5t-32.5 -98.5t-78.5 -40.5q-45 0 -78 40.5t-33 98.5z" />
    <glyph glyph-name="P.001" horiz-adv-x="962" 
d="M72 1204l2 246h467q167 0 261.5 -124.5t94.5 -367.5q0 -227 -103 -356t-257 -129h-222v-473h-243v705h424q78 0 126 68.5t48 180.5q0 122 -42.5 186t-119.5 64h-436z" />
    <glyph glyph-name="Q.001" horiz-adv-x="1220" 
d="M1171 715q0 -282 -124.5 -483t-311.5 -250q28 -63 90.5 -116t128.5 -81t117 -29l-63 -231q-188 28 -323 149t-183 299q-69 12 -135 51t-123.5 104.5t-101 151t-68.5 198t-25 237.5q0 167 49.5 312.5t129.5 242t180 152t202 55.5q105 0 205.5 -55.5t179.5 -152.5
t127.5 -242t48.5 -312zM946 715q0 146 -40.5 264t-118 188t-177.5 70t-177.5 -70t-118 -188t-40.5 -264q0 -143 40.5 -259t118 -184.5t177.5 -68.5q151 0 243.5 145.5t92.5 366.5zM502 713q0 59 32.5 100t77.5 41q46 0 78.5 -40.5t32.5 -100.5q0 -58 -32.5 -99t-78.5 -41
q-45 0 -77.5 41t-32.5 99z" />
    <glyph glyph-name="R.001" horiz-adv-x="1024" 
d="M72 1223v227h532q159 0 244.5 -113t85.5 -315q0 -162 -79.5 -283t-188.5 -145l59 -57l231 -492v-45h-231q-35 30 -79 111.5t-80 165.5t-81 172.5t-79 128.5h-95v-578h-237q0 135 -1 405.5t-1 405.5h440q186 0 186 209q0 109 -49 156t-182 47h-395z" />
    <glyph glyph-name="A.001" horiz-adv-x="1138" 
d="M446 371q0 58 33 98.5t78 40.5q46 0 79.5 -40.5t33.5 -98.5t-33.5 -99t-79.5 -41q-45 0 -78 41t-33 99zM557 1102l-301 -1102h-238l453 1454h186l433 -1454h-244z" />
    <glyph glyph-name="I.001" horiz-adv-x="688" 
d="M604 0h-532v221h151v1010h-151v219h532v-219h-135v-1012h135v-219z" />
    <glyph glyph-name="A.002" horiz-adv-x="1138" 
d="M557 1061l-301 -1061h-238l453 1434h186l433 -1434h-244z" />
    <glyph glyph-name="E.002" horiz-adv-x="911" 
d="M72 1223l2 225h751v-225h-753zM72 0v229h751v-229h-751zM72 614v222h751v-222h-751z" />
    <glyph glyph-name="G.001" horiz-adv-x="1144" 
d="M1042 780v-563q-28 -40 -70.5 -79t-102 -76t-139.5 -59.5t-165 -22.5q-75 0 -148.5 30.5t-140 93.5t-118 150.5t-81.5 211t-30 265.5q0 141 31 263t82.5 209t118.5 149.5t140 92.5t146 30q135 0 242 -45q67 -30 141 -88t103 -101l-109 -184q-91 94 -178 138t-199 44
q-129 0 -211 -138t-82 -364q0 -233 84 -374.5t209 -141.5q68 0 138.5 35.5t121.5 91.5v432h217z" />
    <glyph glyph-name="afii10019.salt" horiz-adv-x="974" 
d="M897 403q0 -97 -27.5 -175.5t-75 -127t-108 -74.5t-129.5 -26h-496v1448h480q161 0 252.5 -108t91.5 -296q0 -187 -137 -307v-4q58 -44 103.5 -135.5t45.5 -194.5zM297 1229v-1010h203q79 0 125.5 52.5t46.5 140.5q0 92 -34.5 148t-107.5 56h-141l-2 213h133
q77 0 116.5 54t39.5 145t-43 146t-121 55h-215z" />
    <glyph glyph-name="afii10022.salt" horiz-adv-x="995" 
d="M715 737q0 -57 -36.5 -97t-86.5 -40t-86.5 40t-36.5 97q0 56 36.5 95.5t86.5 39.5t86.5 -39.5t36.5 -95.5zM874 0h-784l4 1448h764v-225h-522q0 -21 -0.5 -133.5t-0.5 -323t1 -537.5h538v-229z" />
    <glyph glyph-name="afii10032.salt" horiz-adv-x="1200" 
d="M1141 721q0 -139 -31 -261t-84 -211t-122.5 -153.5t-148 -96.5t-159.5 -32t-159.5 32.5t-148 97.5t-122.5 154.5t-84 212t-31 261.5q0 142 31 265.5t84 213t122.5 154t148 96t159.5 31.5t160 -33.5t148.5 -100t122.5 -157t83.5 -213t30.5 -260.5zM909 721
q0 147 -34.5 264t-107 188.5t-171.5 71.5q-100 0 -172.5 -71t-107.5 -188t-35 -265q0 -222 83 -368t232 -146q100 0 172 69.5t106.5 184t34.5 260.5zM489 721q0 58 33 98.5t78 40.5q46 0 78.5 -40.5t32.5 -98.5t-32.5 -98.5t-78.5 -40.5q-45 0 -78 40.5t-33 98.5z" />
    <glyph glyph-name="afii10034.salt" horiz-adv-x="962" 
d="M72 1204l2 246h467q167 0 261.5 -124.5t94.5 -367.5q0 -227 -103 -356t-257 -129h-222v-473h-243v705h424q78 0 126 68.5t48 180.5q0 122 -42.5 186t-119.5 64h-436z" />
    <glyph glyph-name="afii10049.salt" horiz-adv-x="1026" 
d="M954 1450v-227h-397q-133 0 -182 -47t-49 -156q0 -209 186 -209h442q0 -135 -1 -405.5t-1 -405.5h-239v578h-95l-319 -578h-231v45l233 492l57 57q-109 24 -188.5 145t-79.5 283q0 221 105.5 324.5t314.5 103.5h444z" />
    <glyph glyph-name="afii10055.salt2" horiz-adv-x="688" 
d="M604 1450v-229h-135v-994h135v-227h-534v229h153v992h-153v229h534z" />
    <glyph glyph-name="afii10056.salt2" horiz-adv-x="688" 
d="M604 1450v-229h-135v-994h135v-227h-532v229h151v992h-151v229h532zM594 1671q0 -51 -29 -85t-71 -34q-39 0 -68 34.5t-29 84.5q0 52 28.5 86.5t68.5 34.5q42 0 71 -34.5t29 -86.5zM293 1671q0 -51 -28 -85t-68 -34q-42 0 -71.5 34.5t-29.5 84.5q0 52 29.5 86.5
t71.5 34.5q40 0 68 -34.5t28 -86.5z" />
    <glyph glyph-name="afii10017.salt" horiz-adv-x="1138" 
d="M444 371q0 58 33 98.5t78 40.5q46 0 78.5 -40.5t32.5 -98.5t-32.5 -99t-78.5 -41q-45 0 -78 41t-33 99zM557 1102l-301 -1102h-238l453 1454h186l433 -1454h-244z" />
    <glyph glyph-name="afii10028.salt2" horiz-adv-x="1007" 
d="M979 1405l-389 -674l385 -688v-43h-246l-356 614h-58v-614h-239v1448h239v-602h62l348 602h254v-43z" />
    <glyph glyph-name="afii10076.salt2" horiz-adv-x="835" 
d="M774 1012l-242 -445q-18 -27 -38 -47l41 -45l251 -452l-2 -23h-241q-51 87 -199 358q-24 45 -39 58h-49v-416h-213v1032h213v-401h51q18 15 37 55l182 346h248v-20z" />
    <glyph glyph-name="afii10024.salt2" horiz-adv-x="1632" 
d="M1190 737l352 -700v-37h-252l-293 616h-71v-616h-240v616h-72l-295 -616h-251v37l352 700l-350 674v39h252l299 -602h65v602h240v-602h63l299 602h254v-39z" />
    <glyph glyph-name="afii10072.salt2" horiz-adv-x="1280" 
d="M1202 1010l-250 -486l260 -497v-27h-243l-191 418h-49v-418h-213v418h-47l-190 -418h-244v27l258 497v2l-248 484v22h248l172 -403h51v403h213v-403h51l174 403h246z" />
    <glyph glyph-name="aacute.sc" horiz-adv-x="1042" 
d="M993 0h-227l-59 240h-377l-66 -240h-219q0 13 -1 39.5t-1 40.5l397 1100h172q62 -184 189 -550.5t190 -549.5q0 -14 1 -40.5t1 -39.5zM748 1634l-287 -368q-24 0 -74 1t-76 1l203 381h221zM625 440l-107 424l-106 -424h213z" />
    <glyph glyph-name="agrave.sc" horiz-adv-x="1040" 
d="M993 0h-227l-59 240h-377l-66 -240h-219q0 13 -1 39.5t-1 40.5l397 1100h172q62 -184 189 -550.5t190 -549.5q0 -14 1 -40.5t1 -39.5zM702 1278q-26 0 -79 -1t-80 -1l-297 299l14 67h227zM625 440l-107 424l-106 -424h213z" />
    <glyph glyph-name="acircumflex.sc" horiz-adv-x="1030" 
d="M993 0h-227l-59 240h-377l-66 -240h-219q0 13 -1 39.5t-1 40.5l397 1100h172q62 -184 189 -550.5t190 -549.5q0 -14 1 -40.5t1 -39.5zM805 1260h-170l-109 180l-108 -180h-170l221 362h121zM625 440l-107 424l-106 -424h213z" />
    <glyph glyph-name="adieresis.sc" horiz-adv-x="1032" 
d="M993 0h-227l-59 240h-377l-66 -240h-219q0 13 -1 39.5t-1 40.5l397 1100h172q62 -184 189 -550.5t190 -549.5q0 -14 1 -40.5t1 -39.5zM625 440l-107 424l-106 -424h213zM444 1452q0 -53 -28.5 -88t-71.5 -35q-40 0 -69 35.5t-29 87.5q0 53 29 90t69 37q43 0 71.5 -36.5
t28.5 -90.5zM774 1452q0 -52 -29 -87.5t-69 -35.5t-69 35.5t-29 87.5q0 54 28.5 90.5t69.5 36.5q40 0 69 -37t29 -90z" />
    <glyph glyph-name="atilde.sc" horiz-adv-x="1030" 
d="M993 0h-227l-59 240h-377l-66 -240h-219q0 13 -1 39.5t-1 40.5l397 1100h172q62 -184 189 -550.5t190 -549.5q0 -14 1 -40.5t1 -39.5zM688 1530h98q6 -40 -11 -98.5t-60 -108t-99 -49.5q-42 0 -89 24.5t-87.5 49t-64.5 24.5q-34 0 -46.5 -21.5t-17.5 -72.5h-104
q-3 23 -2.5 55t13 69t30 68t49.5 51.5t72 20.5q44 0 91 -24.5t86.5 -49t65.5 -24.5q33 0 50.5 21t25.5 65zM625 440l-107 424l-106 -424h213z" />
    <glyph glyph-name="aring.sc" horiz-adv-x="1021" 
d="M987 0h-221l-53 182h-389l-60 -182h-213l381 1180h189zM631 389l-113 475l-129 -475h242zM743 1548q0 -106 -60.5 -185t-143.5 -79q-82 0 -142.5 79t-60.5 185q0 105 61 184.5t142 79.5q83 0 143.5 -79.5t60.5 -184.5zM625 1548q0 55 -25.5 96.5t-62.5 41.5
q-35 0 -60.5 -41.5t-25.5 -96.5q0 -54 25.5 -95.5t60.5 -41.5q37 0 62.5 41t25.5 96z" />
    <glyph glyph-name="A.salt" horiz-adv-x="1058" 
d="M1047 0h-220l-297 909l-301 -909h-215l529 1528zM627 332q0 -48 -29 -82.5t-70 -34.5q-42 0 -70 34.5t-28 82.5q0 51 28 86t70 35q41 0 70 -35t29 -86z" />
    <glyph glyph-name="B.salt" horiz-adv-x="868" 
d="M94 1221v229h377q149 0 235.5 -118t86.5 -290q0 -216 -140 -311q2 0 0 -2q61 -23 104.5 -120.5t43.5 -213.5q0 -180 -90 -287.5t-224 -107.5h-393v227h330q83 0 128.5 48t45.5 131q0 86 -42 146t-122 60h-340v217l330 -2q83 -1 130.5 53t47.5 140q0 84 -41.5 142.5
t-120.5 58.5h-346z" />
    <glyph glyph-name="C.salt" horiz-adv-x="993" 
d="M961 240q-28 -46 -65 -88t-93 -88.5t-133.5 -74.5t-163.5 -28q-100 0 -185 50t-148 144.5t-98.5 240.5t-35.5 329q0 146 28 272t75 214t108.5 151t128.5 93t135 30q42 0 104 -14t117 -44q79 -43 126.5 -102t47.5 -147q0 -77 -24.5 -124.5t-75.5 -47.5q-38 0 -66 46
t-34 107q-98 62 -195 62q-127 0 -191.5 -134t-64.5 -368q0 -233 67 -363.5t189 -130.5q56 0 104.5 16t90 48t71 63t66.5 78z" />
    <glyph glyph-name="D.salt" horiz-adv-x="1060" 
d="M954 737q0 -334 -145.5 -535.5t-370.5 -201.5h-344v240h297q149 0 244.5 134.5t95.5 334.5q0 106 -19.5 196t-59 161.5t-105.5 112t-152 40.5h-73v-828h-228v1059h387q214 0 343.5 -195.5t129.5 -517.5z" />
    <glyph glyph-name="E.salt" horiz-adv-x="940" 
d="M662 705q0 -56 -36.5 -97t-80.5 -41q-46 0 -83.5 41t-37.5 97q0 54 38 95.5t83 41.5q44 0 80.5 -41.5t36.5 -95.5zM854 0h-760v1450h744v-238h-516v-972h532v-240z" />
    <glyph glyph-name="F.salt" horiz-adv-x="929" 
d="M764 1208h-451v-389h392q38 0 63.5 -26t31.5 -63t0 -74t-32 -63t-63 -26h-394v-567h-217v1450h670q44 0 68 -38t23 -83t-25 -83t-66 -38z" />
    <glyph glyph-name="G.salt" horiz-adv-x="1114" 
d="M997 238q-49 -77 -157 -152q-142 -102 -293 -102q-89 0 -175 49t-157 139.5t-114.5 235.5t-43.5 321q0 143 29 265.5t77.5 207.5t112.5 145t133 88.5t140 28.5q125 0 233 -49q59 -29 126.5 -93t88.5 -99l-82 -191q-21 24 -78.5 67.5t-91.5 63.5q-77 49 -198 49
q-134 0 -210.5 -127.5t-76.5 -351.5t79.5 -358.5t207.5 -134.5q76 0 148.5 36.5t123.5 100.5v430h178v-569z" />
    <glyph glyph-name="H.salt" horiz-adv-x="1030" 
d="M915 0h-221v569h-383v-569h-217v1307q0 46 12 82t31.5 55t42.5 28t46.5 0.5t43 -27t31.5 -55t12 -83.5v-492h381v492q0 49 12 87.5t31.5 58.5t43 29t47.5 0t43.5 -29t31.5 -58.5t12 -87.5v-1307z" />
    <glyph glyph-name="I.salt" horiz-adv-x="671" 
d="M578 0h-515v240h142v972h-142v238h515v-238h-146v-972h146v-240z" />
    <glyph glyph-name="J.salt" horiz-adv-x="436" 
d="M326 983v-862q0 -140 -43.5 -260.5t-119 -191t-163.5 -70.5q-77 0 -145 59l30 209q56 -29 99 -29q143 0 143 357v788h199zM344 1266q0 -56 -36.5 -97t-80.5 -41q-46 0 -83.5 41t-37.5 97q0 53 38 94t83 41q44 0 80.5 -41t36.5 -94z" />
    <glyph glyph-name="K.salt" horiz-adv-x="993" 
d="M944 1427l-391 -665l389 -737v-25h-227l-389 750h-4v-750h-228v1450h228v-678h4l403 678h215v-23z" />
    <glyph glyph-name="L.salt" horiz-adv-x="960" 
d="M813 0h-719v1450h230l-2 -1210h491q33 0 56 -24.5t28 -60t-0.5 -71t-28 -60t-55.5 -24.5z" />
    <glyph glyph-name="M.salt" horiz-adv-x="1314" 
d="M1229 1450v-1450h-211v803l-326 -672h-61l-309 672v-803h-228v1450h172l406 -899l434 899h123z" />
    <glyph glyph-name="N.salt" horiz-adv-x="1101" 
d="M1004 -78l-697 932v-854h-213v1528l694 -924l3 846h213v-1528z" />
    <glyph glyph-name="O.salt" horiz-adv-x="1126" 
d="M1085 717q0 -145 -30.5 -269t-82 -210.5t-119.5 -147.5t-143.5 -90t-154.5 -29q-100 0 -191.5 47.5t-165 137.5t-117.5 235.5t-44 325.5q0 151 30 278t80.5 215.5t118.5 150.5t143.5 91t155.5 29q99 0 191 -51t166 -144.5t118.5 -241.5t44.5 -327zM911 717
q0 143 -43 258.5t-123.5 182.5t-183.5 67q-156 0 -253 -144t-97 -364q0 -138 43 -249.5t123.5 -177t183.5 -65.5q104 0 184 64t123 175.5t43 252.5zM680 705q0 -56 -36.5 -97t-80.5 -41q-46 0 -83.5 41t-37.5 97q0 53 38 94t83 41q44 0 80.5 -41t36.5 -94z" />
    <glyph glyph-name="P.salt" horiz-adv-x="917" 
d="M838 936q0 -231 -103.5 -366.5t-261.5 -135.5h-151v-434h-228v1450h373q159 0 265 -138.5t106 -375.5zM610 920q0 111 -45.5 187.5t-126.5 76.5h-116v-522h86q84 -1 143 75t59 183z" />
    <glyph glyph-name="Q.salt" horiz-adv-x="1128" 
d="M1176 -266l-93 -199q-88 111 -219 237.5t-246 207.5q-50 -5 -57 -5q-101 0 -201 50q-116 -70 -210 -181l-119 158q78 87 168 158q-162 208 -162 553q0 187 45 336.5t120 241t167 139t192 47.5q79 0 154.5 -31.5t142.5 -96t117.5 -154t80 -214t29.5 -268.5
q0 -234 -70.5 -397t-189.5 -250q206 -168 351 -332zM911 713q0 143 -43 258.5t-123.5 182.5t-183.5 67q-156 0 -253 -144t-97 -364q0 -138 43 -249.5t123.5 -177t183.5 -65.5q104 0 184 64t123 175.5t43 252.5zM682 700q0 -55 -36.5 -96t-80.5 -41q-46 0 -83.5 41t-37.5 96
q0 53 38 94.5t83 41.5q44 0 80.5 -41.5t36.5 -94.5z" />
    <glyph glyph-name="R.salt" horiz-adv-x="884" 
d="M834 0h-193q-16 35 -110 268t-142 324v227h66q80 -1 121.5 60.5t41.5 152.5q0 176 -157 176h-139v-1208h-228v1450h432q135 0 223.5 -112t88.5 -306q0 -164 -77.5 -295t-172.5 -133l12 -6l234 -573v-25z" />
    <glyph glyph-name="S.salt" horiz-adv-x="983" 
d="M926 436q0 -104 -29.5 -185.5t-74.5 -130.5t-106 -80.5t-117 -43.5t-114 -12q-45 0 -117.5 17t-136.5 50q-161 86 -161 223q0 72 31 122t77 50q40 0 72 -42t39 -105q108 -59 176 -66q91 -10 159 40.5t68 162.5q0 22 -2.5 39.5t-10.5 31.5t-13.5 23.5t-22 18t-25.5 13.5
t-33.5 11t-36 8t-44 8t-47.5 9q-46 9 -80.5 17.5t-77 25.5t-74 37.5t-63 53t-51.5 73.5t-32.5 98.5t-12.5 126.5q0 104 29 184t73 127t104 76.5t113.5 40t108.5 10.5q67 0 166.5 -34.5t152.5 -69.5q82 -59 82 -170q0 -70 -33.5 -119t-79.5 -49q-38 0 -68.5 38.5t-37.5 98.5
q-96 56 -182 56q-52 0 -89.5 -10.5t-58.5 -26.5t-33 -41t-15 -47t-3 -52q0 -26 7.5 -48.5t17 -37.5t28.5 -28.5t31 -20.5t37.5 -14.5t34.5 -9.5t34.5 -6.5t26.5 -4.5q143 -23 207 -52q173 -75 201 -290q6 -44 6 -94z" />
    <glyph glyph-name="T.salt" horiz-adv-x="1040" 
d="M1026 1323q0 -52 -31.5 -86.5t-68.5 -34.5h-308v-1202h-198v1202h-307q-38 0 -68.5 34t-30.5 87q0 56 31 91.5t70 35.5h811q36 0 68 -36.5t32 -90.5z" />
    <glyph glyph-name="U.salt" horiz-adv-x="1120" 
d="M1032 649q1 -156 -23 -274t-65.5 -193t-105 -121.5t-134.5 -65t-161 -18.5q-109 0 -190 36.5t-140 117t-89 215t-30 322.5v782h197l-2 -791q-3 -489 254 -489q51 0 90.5 9.5t79.5 39.5t66 81t42.5 139.5t16.5 209.5v801h192z" />
    <glyph glyph-name="V.salt" horiz-adv-x="1058" 
d="M1047 1450l-504 -1546l-529 1546h181l335 -977l330 977h187z" />
    <glyph glyph-name="W.salt" horiz-adv-x="1497" 
d="M1479 1450l-504 -1546l-221 671l-211 -671l-529 1546h181l335 -977l123 367l-207 610h183l116 -367l115 367h187l-203 -627l121 -350l327 977h187z" />
    <glyph glyph-name="X.salt" horiz-adv-x="929" 
d="M903 1427l-334 -692v-2l334 -708v-25h-188l-246 524l-252 -524h-172v25l332 690v2l-334 710v23h188l244 -524h2l252 524h174v-23z" />
    <glyph glyph-name="Y.salt" horiz-adv-x="1075" 
d="M1044 1450l-409 -866v-484q0 -66 -31 -104.5t-68.5 -39.5t-68.5 37t-31 107l-2 496l-407 854h200l318 -631l309 631h190z" />
    <glyph glyph-name="Z.salt" horiz-adv-x="960" 
d="M950 1450l-614 -1210h559v-240h-893l627 1212h-531v238h852z" />
    <glyph glyph-name="Aring.salt" horiz-adv-x="1058" 
d="M678 553l-150 537h-2l-151 -537h303zM672 1571q0 84 -41 145.5t-99 61.5q-57 0 -97 -61.5t-40 -145.5q0 -86 40 -145.5t97 -59.5q59 0 99.5 59.5t40.5 145.5zM805 1571q0 -98 -37.5 -182t-99.5 -132l354 -1257h-195l-88 322l-428 -3l-90 -319h-188l368 1255
q-62 48 -99.5 132.5t-37.5 183.5q0 150 78 255t190 105q114 0 193.5 -105.5t79.5 -254.5z" />
    <glyph glyph-name="Ccedilla.salt" horiz-adv-x="1052" 
d="M551 -35q-68 0 -138.5 30.5t-137 94t-118 151.5t-83 214t-31.5 270q0 136 29 257.5t79 211t114 155.5t136.5 99t145.5 33q245 0 432 -252l-86 -215q-78 99 -157 156t-181 57q-128 0 -221.5 -140.5t-93.5 -367.5q0 -222 94 -364t219 -142q103 0 186 59t160 158l96 -186
q-23 -45 -62.5 -90.5t-94.5 -89.5t-130.5 -71.5t-156.5 -27.5zM649 -293q0 -64 -28.5 -107.5t-67.5 -43.5t-67.5 43.5t-28.5 107.5t28.5 108t67.5 44t67.5 -44t28.5 -108z" />
    <glyph glyph-name="a.sc" horiz-adv-x="1040" 
d="M987 0h-221l-53 182h-389l-60 -182h-213l381 1180h189zM631 389l-113 475l-129 -475h242z" />
    <glyph glyph-name="b.sc" horiz-adv-x="917" 
d="M850 334q0 -161 -88 -247.5t-217 -86.5h-467v1176h452q144 0 229 -89t85 -245q0 -137 -113 -246q48 -41 83.5 -111t35.5 -151zM623 340q0 64 -39 108t-101 44h-180v-293h170q68 0 109 39.5t41 101.5zM625 829q0 66 -37.5 108t-102.5 42h-182v-295h172q67 0 108.5 40.5
t41.5 104.5z" />
    <glyph glyph-name="c.sc" horiz-adv-x="935" 
d="M893 156q-175 -181 -381 -181q-69 0 -136.5 25t-127 76t-105 122.5t-72 172t-26.5 217.5q0 138 40.5 255t107 194t151 120t174.5 43q243 0 363 -158l-58 -211q-75 77 -147 115.5t-160 38.5q-101 0 -170.5 -110.5t-69.5 -288.5q0 -177 71.5 -285t170.5 -108q90 0 161 39.5
t150 119.5z" />
    <glyph glyph-name="d.sc" horiz-adv-x="966" 
d="M915 588q0 -273 -131.5 -430.5t-351.5 -157.5h-371v1176h410q202 0 323 -161.5t121 -426.5zM702 584q0 191 -65 292t-215 101h-131v-776h127q133 0 208.5 104.5t75.5 278.5z" />
    <glyph glyph-name="e.sc" horiz-adv-x="870" 
d="M788 0h-727v1176h715v-203h-485v-289h414v-201h-412v-276h495v-207z" />
    <glyph glyph-name="f.sc" horiz-adv-x="796" 
d="M762 973h-481v-307h397v-207h-397v-459h-228v1176h709v-203z" />
    <glyph glyph-name="g.sc" horiz-adv-x="999" 
d="M934 670v-494q-61 -81 -166 -137.5t-254 -56.5q-83 0 -164 40.5t-149 114.5t-110 193.5t-42 263.5q0 143 45 262t116 192.5t154.5 113.5t165.5 40q108 0 213 -46.5t181 -125.5l-52 -176q-53 61 -159.5 100t-184.5 39q-111 0 -185.5 -110.5t-74.5 -284.5
q0 -180 70.5 -289.5t175.5 -109.5q60 0 119.5 26.5t103.5 69.5h-2v186h-264l12 189h451z" />
    <glyph glyph-name="h.sc" horiz-adv-x="960" 
d="M887 0h-234v469h-344v-469h-231v1178h231v-492h344v492h234v-1178z" />
    <glyph glyph-name="i.sc" horiz-adv-x="413" 
d="M328 0h-232v1178h232v-1178z" />
    <glyph glyph-name="j.sc" horiz-adv-x="468" 
d="M377 100q0 -156 -93 -275.5t-223 -133.5q-39 -3 -73 2q-47 11 -86 33l39 186q60 -21 106 -4q98 37 98 293v977h232v-1078z" />
    <glyph glyph-name="k.sc" horiz-adv-x="927" 
d="M887 0h-240l-258 510l-82 -127v-383h-231q0 195 1 588t1 590h229v-471q46 70 153.5 226t164.5 245h254v-41l-336 -432q52 -94 165.5 -317.5t178.5 -338.5v-49z" />
    <glyph glyph-name="l.sc" horiz-adv-x="866" 
d="M805 0h-739v1178h229v-963h510v-215z" />
    <glyph glyph-name="m.sc" horiz-adv-x="1253" 
d="M1192 0h-219l-49 674q-40 -103 -123.5 -323t-134.5 -349h-121l-230 680q-44 -670 -45 -682h-213l82 1178h168l309 -803q283 651 347 803h153z" />
    <glyph glyph-name="n.sc" horiz-adv-x="999" 
d="M924 0h-133l-490 700v-700h-223v1178h158l466 -678v678h222v-1178z" />
    <glyph glyph-name="o.sc" horiz-adv-x="1091" 
d="M1026 586q0 -143 -38.5 -260t-104.5 -193.5t-153.5 -118t-186.5 -41.5q-100 0 -188 42t-154 119t-104 194.5t-38 259.5q0 146 38.5 265t105.5 195t154 117t186 41q98 0 186 -43t154 -121t104.5 -196.5t38.5 -259.5zM807 586q0 113 -28.5 203t-89.5 146t-146 56
q-127 0 -197 -115t-70 -290q0 -110 29 -198.5t90.5 -144t147.5 -55.5q85 0 146 54.5t89.5 143t28.5 200.5z" />
    <glyph glyph-name="p.sc" horiz-adv-x="854" 
d="M817 766q0 -94 -29 -172.5t-77.5 -128.5t-110 -77.5t-127.5 -27.5h-178v-360h-232v1178h414q148 0 244 -107t96 -305zM600 764q0 88 -46.5 141t-113.5 53h-145v-391h135q67 0 118.5 57.5t51.5 139.5z" />
    <glyph glyph-name="q.sc" horiz-adv-x="1060" 
d="M1030 578q0 -227 -99.5 -392t-246.5 -196q51 -70 140 -117t180 -53l-121 -207q-143 29 -267.5 123.5t-183.5 234.5q-168 24 -282.5 188.5t-114.5 418.5q0 139 40.5 257.5t109 197.5t158.5 123t189 44q137 0 250 -75.5t180.5 -218.5t67.5 -328zM817 578q0 112 -34.5 203.5
t-100 146.5t-150.5 55q-127 0 -205.5 -116.5t-78.5 -288.5q0 -168 78.5 -283t205.5 -115q85 0 150.5 54t100 144t34.5 200z" />
    <glyph glyph-name="r.sc" horiz-adv-x="917" 
d="M846 815q0 -130 -65.5 -227t-157.5 -125l266 -418v-45h-240l-276 446h-68v-446h-227q0 195 -1 588t-1 590h454q142 0 229 -98.5t87 -264.5zM623 817q0 66 -40.5 111t-105.5 45h-172v-316h160q65 1 111.5 50t46.5 110z" />
    <glyph glyph-name="s.sc" horiz-adv-x="886" 
d="M825 358q0 -88 -28.5 -156t-70.5 -108t-98.5 -65t-105.5 -34t-98 -9q-98 0 -167.5 30t-190.5 117l49 207q92 -68 173 -106.5t128 -38.5q83 0 138.5 38.5t55.5 124.5q0 30 -12.5 51.5t-31 34t-49.5 23t-59.5 16t-68.5 15t-70 18.5q-40 13 -70 25.5t-69 39t-64 59t-43 85
t-18 117.5q0 85 28.5 151t71 103.5t99 61.5t104 32t93.5 8q110 0 183 -30t163 -105l-39 -197q-155 131 -303 131q-108 0 -147.5 -33.5t-39.5 -111.5q0 -30 19 -55.5t48.5 -41.5t56 -26t50.5 -14q10 -2 38 -7.5t46.5 -9t49 -12t51.5 -17.5t49 -24.5t47.5 -33t40 -43t33 -55.5
t20.5 -69.5t8 -85.5z" />
    <glyph glyph-name="t.sc" horiz-adv-x="921" 
d="M895 973h-315v-973h-234v973h-315v205h864v-205z" />
    <glyph glyph-name="u.sc" horiz-adv-x="1007" 
d="M930 555q0 -273 -113 -421t-311 -148q-203 0 -318.5 143.5t-115.5 409.5l2 639h225v-625q1 -187 55 -267.5t152 -80.5q89 0 144 88t55 270v615h225v-623z" />
    <glyph glyph-name="v.sc" horiz-adv-x="1040" 
d="M1004 1178v-52l-365 -1130h-217l-383 1130v52h225l266 -856l256 856h218z" />
    <glyph glyph-name="w.sc" horiz-adv-x="1359" 
d="M1323 1178v-52q-52 -173 -146.5 -563t-146.5 -563h-166l-188 752q-29 -140 -84 -381.5t-82 -370.5h-180l-283 1126l-2 52h229l158 -703q23 129 77 352t77 347h192l172 -709q27 124 82.5 351.5t83.5 361.5h207z" />
    <glyph glyph-name="x.sc" horiz-adv-x="960" 
d="M928 0h-238l-209 412l-211 -412h-221v31l303 555l-303 551v41h234l204 -406l201 406h225v-41l-295 -541l308 -567z" />
    <glyph glyph-name="y.sc" horiz-adv-x="937" 
d="M903 1178v-41l-336 -734v-403h-231v416l-311 721v41h223l219 -516l215 516h221z" />
    <glyph glyph-name="z.sc" horiz-adv-x="876" 
d="M811 1028l-477 -827h459v-201h-721v147l481 830h-469v201h727v-150z" />
    </font>
</defs>
</svg>
