<?xml version="1.0" standalone="no"?>
<!DOCTYPE svg PUBLIC "-//W3C//DTD SVG 1.1//EN" "http://www.w3.org/Graphics/SVG/1.1/DTD/svg11.dtd" >
<svg xmlns="http://www.w3.org/2000/svg" xmlns:xlink="http://www.w3.org/1999/xlink" version="1.1">
<metadata>
Created by FontForge 20170731 at Sat Jan 17 03:08:44 2015
 By Aleksey,,,
Copyright (c) Chank Co, 2015. All rights reserved. Do not redistribute or alter this font without permission.
</metadata>
<defs>
<font id="AdriannaCondensed-ExtraBold" horiz-adv-x="503" >
  <font-face 
    font-family="Adrianna Condensed Xb"
    font-weight="800"
    font-stretch="condensed"
    units-per-em="1000"
    panose-1="2 0 0 0 0 0 0 0 0 0"
    ascent="750"
    descent="-250"
    x-height="542"
    cap-height="701"
    bbox="-75 -367 950 971"
    underline-thickness="50"
    underline-position="-150"
    unicode-range="U+0020-FB02"
  />
<missing-glyph horiz-adv-x="419" 
d="M378 0h-342v722h342v-722zM71 33h272l-136 300zM207 392l135 297h-270zM59 659v-594l135 297zM354 67v589l-133 -294z" />
    <glyph glyph-name="fi" unicode="fi" horiz-adv-x="599" 
d="M315 598q-10 11 -25 15t-28 2q-4 -1 -10.5 -4t-12 -9.5t-9.5 -17t-3 -25.5v-17h87v-154h-87v-388h-173v388h-54v154h54v31q0 36 10.5 73t31.5 67t52 49t73 19q9 0 22.5 -1.5t28 -5t28.5 -9t24 -12.5zM546 682q0 -20 -7 -37t-19 -29t-27 -19t-31 -7q-32 0 -57 25.5
t-25 66.5q0 19 6.5 35.5t17.5 28.5t26 19t32 7q16 0 31 -7t27 -19t19 -28.5t7 -35.5zM373 0v542h176v-542h-176z" />
    <glyph glyph-name="fl" unicode="fl" horiz-adv-x="597" 
d="M315 598q-10 11 -25 15t-28 2q-4 -1 -10.5 -4t-12 -9.5t-9.5 -17t-3 -25.5v-17h87v-154h-87v-388h-173v388h-54v154h54v31q0 36 10.5 73t31.5 67t52 49t73 19q9 0 22.5 -1.5t28 -5t28.5 -9t24 -12.5zM373 0v759h174v-759h-174z" />
    <glyph glyph-name=".notdef" horiz-adv-x="419" 
d="M378 0h-342v722h342v-722zM71 33h272l-136 300zM207 392l135 297h-270zM59 659v-594l135 297zM354 67v589l-133 -294z" />
    <glyph glyph-name=".null" horiz-adv-x="0" 
 />
    <glyph glyph-name="nonmarkingreturn" horiz-adv-x="281" 
 />
    <glyph glyph-name="space" unicode=" " horiz-adv-x="281" 
 />
    <glyph glyph-name="exclam" unicode="!" horiz-adv-x="216" 
d="M166 248h-128l-18 453h169zM181 85q0 -20 -6.5 -38t-17 -31t-25 -20.5t-30.5 -7.5q-17 0 -31.5 7.5t-25 20.5t-17 31t-6.5 38t6.5 38t17 31.5t25 21t31.5 7.5q16 0 30.5 -7.5t25 -21t17 -31.5t6.5 -38z" />
    <glyph glyph-name="quotedbl" unicode="&#x22;" horiz-adv-x="393" 
d="M348 359h-122l-9 172l-2 170h144v-170zM155 359h-124l-8 172v170h140l1 -170z" />
    <glyph glyph-name="numbersign" unicode="#" horiz-adv-x="552" 
d="M487 402h-84l-8 -69h84l-21 -153h-83l-15 -138h-113l15 138h-44l-18 -138h-113l16 138h-89l20 153h89l10 69h-89l20 152h90l14 128h114l-17 -128h47l16 128h112l-16 -128h83zM248 402l-9 -69h43l8 69h-42z" />
    <glyph glyph-name="dollar" unicode="$" horiz-adv-x="540" 
d="M124 -79l18 115q-29 11 -59 30.5t-66 50.5l43 157q58 -42 97 -63.5t62 -21.5q14 0 28 2.5t25 8.5t18 15t7 21q0 10 -10 17t-25 11t-32 6.5t-30 3.5l-23 3q-29 6 -57.5 17.5t-51 33t-37 55.5t-14.5 86q0 66 21.5 106.5t53.5 63.5t67.5 31t64.5 8q5 0 10.5 -0.5t10.5 -0.5
l16 97l80 1l-19 -119q26 -11 51.5 -29t54.5 -42l-39 -140q-48 38 -90.5 52t-74.5 14q-22 0 -36 -4t-22 -9.5t-11 -12t-3 -11.5q0 -8 9.5 -13t23 -8t27 -4t21.5 -1q30 -4 64.5 -12.5t64.5 -30t50 -62t20 -107.5q0 -66 -18.5 -107.5t-48.5 -65.5t-67 -33t-73 -9h-6l-16 -100
h-79z" />
    <glyph glyph-name="percent" unicode="%" horiz-adv-x="586" 
d="M555 194q0 -35 -8.5 -65t-22.5 -52.5t-33.5 -35.5t-41.5 -13t-41 13t-33.5 35.5t-23 52.5t-8.5 65t8.5 65.5t23 53t33.5 35.5t41 13t41.5 -13t33.5 -35.5t22.5 -53t8.5 -65.5zM183 16h-129l348 668l132 1zM236 505q0 -35 -8.5 -65.5t-23 -53t-34 -35.5t-41.5 -13
t-41.5 13t-34 35.5t-23 53t-8.5 65.5q0 34 8.5 64.5t23 53t34 35.5t41.5 13t41.5 -13t34 -35.5t23 -53t8.5 -64.5zM470 194q0 23 -6.5 39t-14.5 16t-14.5 -16t-6.5 -39t6.5 -39t14.5 -16t14.5 16t6.5 39zM151 505q0 22 -6.5 37.5t-15.5 15.5q-8 0 -15 -15.5t-7 -37.5
q0 -23 7 -38t15 -15q9 0 15.5 15t6.5 38z" />
    <glyph glyph-name="ampersand" unicode="&#x26;" horiz-adv-x="596" 
d="M417 0l-39 61q-24 -28 -61.5 -51t-79.5 -23q-32 0 -69.5 6t-69.5 27.5t-53.5 63t-21.5 113.5q0 34 11.5 67.5t28.5 62t36 50t35 32.5l-15 19q-6 7 -14 18t-15 26.5t-11.5 35.5t-3.5 46q1 36 15 65.5t38 50.5t57 33t72 12q42 0 77 -12.5t60.5 -33.5t40 -49.5t14.5 -60.5
q0 -30 -11 -57t-27.5 -50.5t-35 -44t-32.5 -36.5l42 -57q10 17 17.5 32.5t12.5 29.5q6 15 10 30l104 -83q-4 -12 -13 -31t-19 -38t-19.5 -34.5t-14.5 -21.5l115 -168l-2 -30h-159zM222 282q-17 -14 -27 -31.5t-11 -33.5q0 -18 8.5 -29t19 -17t20.5 -8t15 -2t20.5 7t20.5 19z
M297 520q7 10 7.5 21t-4 19t-13 13.5t-17.5 5.5q-11 0 -19 -6t-11.5 -15t-2.5 -19.5t7 -19.5l23 -32z" />
    <glyph glyph-name="quotesingle" unicode="'" horiz-adv-x="194" 
d="M156 359h-123l-8 172l-1 170h141l1 -170z" />
    <glyph glyph-name="parenleft" unicode="(" horiz-adv-x="350" 
d="M324 716q-42 -54 -68.5 -98.5t-41.5 -86.5t-21 -85t-6 -94q0 -41 6 -81t20.5 -83t39.5 -91t64 -104l-101 -73q-43 44 -78.5 91t-61 100t-40 113t-14.5 129q0 81 16.5 146.5t43.5 119t61.5 94.5t70.5 72l110 -69v0z" />
    <glyph glyph-name="parenright" unicode=")" horiz-adv-x="356" 
d="M315 353q0 -69 -14.5 -129t-40 -113t-61 -100t-78.5 -91l-102 73q39 56 64.5 104t40 91t20.5 83t6 81q0 53 -6.5 98t-22 87.5t-41.5 85.5t-65 93l107 69q37 -31 71.5 -72t61.5 -94.5t43.5 -119t16.5 -146.5z" />
    <glyph glyph-name="asterisk" unicode="*" horiz-adv-x="481" 
d="M342 463l84 -141l-121 -101l-69 185l-74 -188l-119 100l88 150l-124 58l55 149l121 -91l-12 178h140l-18 -180l121 84l58 -148z" />
    <glyph glyph-name="plus" unicode="+" horiz-adv-x="466" 
d="M300 252v-186h-145v186h-133v165h133v188h145v-188h134v-165h-134z" />
    <glyph glyph-name="comma" unicode="," horiz-adv-x="207" 
d="M189 63q0 -30 -11 -62.5t-30 -62t-44 -53.5t-53 -37l-58 86q6 6 14 14.5t15 18.5t13 19.5t9 17.5q-14 11 -20.5 33.5t-6.5 44.5q0 21 8.5 36.5t21 26.5t27.5 16.5t28 5.5q38 0 62.5 -28.5t24.5 -75.5z" />
    <glyph glyph-name="hyphen" unicode="-" horiz-adv-x="359" 
d="M22 218v144h312v-144h-312z" />
    <glyph glyph-name="period" unicode="." horiz-adv-x="211" 
d="M177 87q0 -40 -21.5 -67.5t-53.5 -27.5q-31 0 -53.5 27.5t-22.5 67.5q0 42 22.5 69.5t53.5 27.5q32 0 53.5 -27.5t21.5 -69.5z" />
    <glyph glyph-name="slash" unicode="/" horiz-adv-x="402" 
d="M158 0h-146l230 701h144z" />
    <glyph glyph-name="zero" unicode="0" horiz-adv-x="598" 
d="M569 343q0 -86 -21.5 -152t-59 -110t-87.5 -66.5t-106 -22.5q-55 0 -105 22.5t-87.5 66.5t-60 110t-22.5 152q0 93 22 161.5t59.5 114.5t87.5 68.5t106 22.5q55 0 105 -22.5t87.5 -68.5t59.5 -114.5t22 -161.5zM405 343q0 37 -7.5 68.5t-21.5 55t-34.5 36.5t-46.5 13
t-46.5 -13t-35 -36t-22.5 -55t-8 -69q0 -70 30 -114.5t82 -44.5q53 0 81.5 43.5t28.5 115.5z" />
    <glyph glyph-name="one" unicode="1" horiz-adv-x="391" 
d="M153 0v366l-31 -54l-107 88l170 300h145v-700h-177z" />
    <glyph glyph-name="two" unicode="2" horiz-adv-x="531" 
d="M507 480q0 -42 -13 -77t-34.5 -63t-48 -49t-53.5 -34q-34 -14 -63.5 -33t-41.5 -36h252v-188h-480v132q11 45 26.5 78.5t33 58.5t35.5 43.5t34 32.5q16 15 45 32.5t57.5 35.5t49.5 35.5t21 32.5q0 7 -2 15.5t-8 15.5t-17 11.5t-29 4.5q-39 0 -88 -24.5t-106 -62.5
l-40 167q57 52 116.5 77.5t117.5 25.5q34 0 75.5 -10t77 -36.5t59.5 -71t24 -113.5z" />
    <glyph glyph-name="three" unicode="3" horiz-adv-x="555" 
d="M512 228q0 -74 -26 -120.5t-63.5 -72.5t-79 -35.5t-73.5 -9.5q-54 0 -121.5 23t-129.5 67l36 168q107 -79 186 -79q24 0 38 6.5t21.5 15.5t9.5 18t2 15q0 14 -6.5 24.5t-16.5 17t-22 10t-22 3.5h-100l-3 149h106q10 0 21.5 4t21.5 11t16 17t6 22v16t-5.5 19t-18 16
t-36.5 7q-41 0 -93 -19.5t-107 -58.5l-33 163q61 45 127 67.5t123 22.5q21 0 47 -3.5t52.5 -13t51.5 -26.5t44.5 -43t31.5 -62.5t12 -86.5q0 -18 -6.5 -36t-15.5 -33.5t-19.5 -27.5t-18.5 -18q8 -6 19 -20t20.5 -32.5t16.5 -40.5t7 -44z" />
    <glyph glyph-name="four" unicode="4" horiz-adv-x="555" 
d="M436 150v-150h-156v150h-251v134l263 417l144 -1v-389h90v-161h-90zM280 435l-73 -124h73v124z" />
    <glyph glyph-name="five" unicode="5" horiz-adv-x="559" 
d="M523 234q0 -73 -27 -120t-66 -74.5t-83.5 -38t-79.5 -10.5q-60 0 -121 25.5t-128 76.5l55 158q115 -82 194 -82q27 0 42.5 8t23.5 20t10.5 26t2.5 25q0 12 -1 24t-7 21t-18 14.5t-34 5.5q-27 0 -48 -5.5t-36.5 -13.5t-25.5 -17t-16 -16l-123 37l18 403h443v-178h-312
l-3 -71q21 10 50.5 17.5t55.5 7.5q37 0 78 -10.5t75.5 -37.5t57.5 -74.5t23 -120.5z" />
    <glyph glyph-name="six" unicode="6" horiz-adv-x="618" 
d="M584 239q0 -68 -28 -115.5t-70 -77.5t-90 -43.5t-88 -13.5q-57 0 -108.5 21t-90.5 65t-62 113t-23 165q0 91 25.5 158.5t67.5 112.5t96.5 67t112.5 22q66 0 126 -24t102 -66l-41 -142q-23 18 -43 30t-40 19.5t-42.5 11t-50.5 3.5q-15 0 -39 -9t-45.5 -26.5t-37 -44
t-14.5 -61.5q25 24 61 42.5t70 18.5q48 0 93.5 -12.5t81 -40t56.5 -70.5t21 -103zM413 248q0 20 -18 33.5t-70 15.5q-24 1 -53.5 -16.5t-52.5 -55.5q14 -23 39 -40.5t47 -17.5q20 0 39.5 5t34.5 14.5t24.5 25t9.5 36.5z" />
    <glyph glyph-name="seven" unicode="7" horiz-adv-x="562" 
d="M255 0h-209l246 526h-267v174h497l4 -149z" />
    <glyph glyph-name="eight" unicode="8" horiz-adv-x="573" 
d="M546 208q0 -51 -21 -91t-56.5 -68t-81.5 -43t-96 -15q-55 0 -104.5 14.5t-86.5 41.5t-58.5 67t-21.5 91q0 50 14.5 90.5t40.5 67.5q-25 26 -39 60.5t-14 76.5q0 51 18.5 90.5t52 67t81 41.5t106.5 14t106.5 -15t81.5 -42.5t52 -68t18 -91.5q0 -43 -14.5 -74.5
t-37.5 -53.5q29 -29 44.5 -70.5t15.5 -89.5zM347 497q0 10 -4.5 21t-13.5 21t-23 16.5t-33 6.5q-20 0 -34.5 -6t-23.5 -14.5t-13 -18.5t-4 -19q0 -20 25.5 -38t63.5 -28q34 13 47 26t13 33zM349 211q0 22 -24 44t-64 30q-32 -10 -46 -32.5t-14 -45.5q0 -9 4 -19.5
t12.5 -19.5t22 -15t33.5 -6q19 0 33.5 6.5t24 16t14 21t4.5 20.5z" />
    <glyph glyph-name="nine" unicode="9" horiz-adv-x="612" 
d="M584 350q0 -91 -26.5 -158.5t-69.5 -112t-97.5 -66.5t-110.5 -22q-63 0 -126.5 23.5t-105.5 65.5l43 146q24 -18 44 -30.5t40 -20t42.5 -10.5t51.5 -3q16 0 40 9t46 26.5t37 43.5t13 61q-26 -24 -62 -42.5t-65 -18.5q-50 0 -96.5 12.5t-83 40t-58.5 70t-22 102.5
q0 68 29 115t71 76t88 42t80 13q52 0 105 -20.5t96 -64.5t70 -112.5t27 -164.5zM385 481q-11 23 -35 40t-59 17q-19 0 -37 -5t-32.5 -14.5t-23 -25t-8.5 -36.5q0 -20 18.5 -33t71.5 -15q10 0 27 2.5t33.5 10.5t29.5 22t15 37z" />
    <glyph glyph-name="colon" unicode=":" horiz-adv-x="210" 
d="M190 444q0 -22 -7 -41t-19 -33t-28 -22t-34 -8t-33.5 8t-27.5 22t-19 33t-7 41q0 21 7 40t19 33t27.5 22.5t33.5 8.5t34 -8.5t28 -22.5t19 -33t7 -40zM190 98q0 -22 -7 -41t-19 -33t-28 -22t-34 -8t-33.5 8t-27.5 22t-19 33t-7 41t7 40.5t19 32.5t27.5 22t33.5 8t34 -8
t28 -22t19 -32.5t7 -40.5z" />
    <glyph glyph-name="semicolon" unicode=";" horiz-adv-x="220" 
d="M199 442q0 -22 -7.5 -41t-19.5 -33t-28 -22t-34 -8t-33.5 8t-27.5 22t-19 33t-7 41q0 21 7 40t19 33t27.5 22.5t33.5 8.5t34 -8.5t28 -22.5t19.5 -33t7.5 -40zM201 62q0 -34 -12 -69t-32 -66.5t-46 -56t-54 -37.5l-42 106q8 8 20 22t22 33q-14 11 -20.5 37.5t-6.5 51.5
q0 23 8.5 41t21 30t27.5 18.5t28 6.5q38 0 62 -32.5t24 -84.5z" />
    <glyph glyph-name="less" unicode="&#x3c;" horiz-adv-x="414" 
d="M21 248v106l350 235v-156l-174 -134l174 -138v-156z" />
    <glyph glyph-name="equal" unicode="=" horiz-adv-x="406" 
d="M14 327v157h365v-157h-365zM14 84v157h365v-157h-365z" />
    <glyph glyph-name="greater" unicode="&#x3e;" horiz-adv-x="415" 
d="M31 5v156l174 138l-174 134v156l350 -235v-106z" />
    <glyph glyph-name="question" unicode="?" horiz-adv-x="462" 
d="M453 498q0 -57 -15.5 -92t-38.5 -56t-49.5 -31t-49.5 -16.5t-38.5 -13t-15.5 -20.5q0 -10 1 -15l-161 -2q2 3 1.5 16.5t-0.5 26.5q0 41 15 66t37 41t48 25t48 18t37 20.5t15 32.5q0 19 -6 30t-14.5 17t-18 7.5t-16.5 1.5q-18 0 -40 -5.5t-45 -16t-46 -27t-44 -37.5
l-39 144q42 46 91 70.5t108 24.5q22 0 48 -3t52 -11t50.5 -22.5t43.5 -38t30.5 -56.5t11.5 -78zM253 85q0 -42 -24 -68.5t-54 -26.5q-15 0 -29 7t-25 19.5t-18 30t-7 38.5q0 20 7 37t18 29.5t25 19.5t29 7t29 -7t25 -19.5t17.5 -29.5t6.5 -37z" />
    <glyph glyph-name="at" unicode="@" horiz-adv-x="631" 
d="M604 348q0 -62 -13.5 -111t-35.5 -83t-50 -52t-57 -18q-12 0 -24.5 6t-23 16.5t-18.5 24.5t-11 29q-17 -24 -46.5 -42.5t-56.5 -18.5q-35 0 -58.5 22.5t-38 56.5t-19 72.5t-1.5 71.5q0 37 10 72.5t28 63t42.5 44t54.5 16.5q17 0 37 -18t30 -40l6 46h94l-33 -189
q-5 -28 -5 -47q0 -31 8 -50.5t22 -19.5q64 0 64 147q0 59 -14 108t-39 84.5t-58 55.5t-72 20q-37 0 -75.5 -21t-69.5 -59.5t-51 -92t-20 -119.5q0 -85 20 -143.5t52 -94t72 -49.5t80 -9q14 2 26.5 12t16.5 21l49 -96q-9 -17 -37 -33t-62 -14q-63 4 -119 31.5t-98 77.5
t-66.5 123t-24.5 169q0 98 26.5 171.5t69.5 123t98.5 74t113.5 24.5q63 0 114 -25.5t87 -73t56 -114.5t20 -150zM340 372q-1 22 -12 31t-14 9q-8 0 -16.5 -8t-15 -21.5t-11 -31t-4.5 -36.5q0 -41 7.5 -65.5t19.5 -24.5q6 0 15 2.5t18 20.5z" />
    <glyph glyph-name="A" unicode="A" horiz-adv-x="664" 
d="M254 704h142l251 -674v-30h-203l-25 89h-195l-23 -89h-188v30zM267 247h108l-55 195z" />
    <glyph glyph-name="B" unicode="B" horiz-adv-x="506" 
d="M483 209q0 -49 -19 -88t-49.5 -66t-69 -41t-77.5 -14h-242v701h229q47 0 86.5 -16t68 -44t44 -66.5t15.5 -82.5q0 -22 -8 -42t-19.5 -37t-25.5 -30.5t-26 -22.5q13 -7 29 -22t30 -35.5t24 -44.5t10 -49zM299 478q0 10 -3.5 20t-9.5 18t-14 13t-17 5h-59v-111h53q9 0 18 5
t16 13.5t11.5 18t4.5 18.5zM299 218q0 10 -4 20t-10 18.5t-14 14t-17 5.5h-58v-111h51q10 0 19.5 5t16.5 13t11.5 17t4.5 18z" />
    <glyph glyph-name="C" unicode="C" horiz-adv-x="579" 
d="M540 72q-17 -18 -43.5 -34t-56.5 -28t-60.5 -19t-55.5 -7q-68 0 -125.5 23.5t-98.5 69.5t-64 115t-23 161q0 85 19.5 153t58.5 115.5t96.5 73t133.5 25.5q30 0 61 -5t59 -14t52.5 -21.5t42.5 -26.5l-80 -170q-12 12 -28.5 21t-34.5 15.5t-36 9.5t-32 3q-22 0 -42 -10.5
t-35 -32t-24 -53.5t-9 -75q0 -42 9 -74.5t24 -54t35 -32.5t41 -11q35 0 69 10.5t66 33.5z" />
    <glyph glyph-name="D" unicode="D" horiz-adv-x="594" 
d="M558 351q0 -75 -18.5 -139t-55.5 -111.5t-91.5 -74t-127.5 -26.5h-240v701h264q68 0 118.5 -29t84 -77t50 -111.5t16.5 -132.5zM364 347q0 37 -4.5 69t-17 55t-36 36.5t-61.5 13.5h-26v-340h24q32 0 55 13t37.5 35.5t21.5 52.5t7 65z" />
    <glyph glyph-name="E" unicode="E" horiz-adv-x="506" 
d="M22 0l1 701h433v-172h-240v-99h197v-164h-197v-93h247v-173h-441z" />
    <glyph glyph-name="F" unicode="F" horiz-adv-x="477" 
d="M214 524v-99h180v-184h-180v-241h-191v701h422v-177h-231z" />
    <glyph glyph-name="G" unicode="G" horiz-adv-x="650" 
d="M537 446q-13 15 -30 26t-33 19.5t-29.5 14.5t-19.5 10q-17 8 -45 15t-57 7q-52 0 -84.5 -49t-32.5 -131q0 -43 9.5 -78t25 -59.5t37 -37.5t45.5 -13q27 0 53.5 12.5t49.5 32.5q0 5 0.5 14.5t0.5 24.5h-123v152h301v-286q-20 -21 -48.5 -45t-62.5 -43q-31 -20 -74 -33.5
t-97 -13.5q-67 0 -122.5 23.5t-95 70t-61.5 115.5t-22 160q0 92 27.5 161t71 114.5t97.5 68t107 22.5q20 0 58 -4t77 -19q19 -9 42 -23.5t45 -31t39.5 -32.5t26.5 -28z" />
    <glyph glyph-name="H" unicode="H" horiz-adv-x="591" 
d="M347 0v241h-125v-241h-194v701h195v-260h124v260h196v-701h-196z" />
    <glyph glyph-name="I" unicode="I" horiz-adv-x="269" 
d="M35 0v701h194v-701h-194z" />
    <glyph glyph-name="J" unicode="J" horiz-adv-x="414" 
d="M378 253q0 -55 -17 -103t-46.5 -84t-68.5 -57t-83 -21q-27 0 -63 11t-74 32l32 176q18 -6 30 -10.5t22 -7t20 -4t24 -1.5q9 0 15 10.5t9.5 27.5t5 39t1.5 45v395h193v-448v0z" />
    <glyph glyph-name="K" unicode="K" horiz-adv-x="619" 
d="M377 0l-129 271l-15 -23v-248h-195v701h195v-208q31 52 63 104t63 104h223l1 -30l-206 -257l204 -384v-30h-204z" />
    <glyph glyph-name="L" unicode="L" horiz-adv-x="524" 
d="M30 0l-1 701h195v-500h280v-201h-474z" />
    <glyph glyph-name="M" unicode="M" horiz-adv-x="755" 
d="M559 0l-20 271l-129 -271h-78l-105 259l-21 -259h-178l42 701l145 1l162 -369l181 369l136 -1l43 -701h-178z" />
    <glyph glyph-name="N" unicode="N" horiz-adv-x="631" 
d="M467 0l-246 319v-319h-190v701h124l233 -300l1 300h187v-701h-109z" />
    <glyph glyph-name="O" unicode="O" horiz-adv-x="655" 
d="M626 347q0 -92 -21.5 -160t-61 -114t-96.5 -68.5t-128 -22.5q-69 0 -125 23t-96 69.5t-62 115t-22 160.5q0 190 76.5 280t228.5 90q153 0 230 -95t77 -278zM440 347q0 39 -7 74t-22 61t-38 41t-54 15t-53.5 -15t-37 -40.5t-21.5 -60.5t-7 -75q0 -38 7 -70t21.5 -55.5
t37 -37t53.5 -13.5q32 0 55 13t37.5 36.5t21.5 55.5t7 71z" />
    <glyph glyph-name="P" unicode="P" horiz-adv-x="511" 
d="M493 443q0 -61 -16.5 -109t-45 -81t-67.5 -50.5t-85 -17.5h-54v-185h-194v701h250q101 0 156.5 -66.5t55.5 -191.5zM319 441q0 70 -46 70h-48v-145h42q23 0 37.5 21.5t14.5 53.5z" />
    <glyph glyph-name="Q" unicode="Q" horiz-adv-x="716" 
d="M683 342q0 -65 -13 -124.5t-39.5 -107t-66.5 -80t-94 -42.5q-4 -19 3 -32.5t18.5 -21.5t24.5 -12t21 -4l-14 -165q-46 1 -87.5 17t-75 45.5t-57.5 72.5t-34 98q-126 18 -187 109t-61 247q0 89 23.5 158.5t67 117.5t105 73.5t137.5 25.5q74 0 135 -25.5t104 -74t66.5 -118
t23.5 -157.5zM502 342q0 40 -10.5 73.5t-29.5 58t-46.5 38t-61.5 13.5q-35 0 -63 -13.5t-47.5 -37.5t-30.5 -58t-11 -74q0 -38 11 -70t31.5 -55t48.5 -36t61 -13t60 12.5t46.5 35t30.5 55t11 71.5z" />
    <glyph glyph-name="R" unicode="R" horiz-adv-x="558" 
d="M344 0l-120 254l-6 17v-271h-192l-1 701h283q51 0 90.5 -15.5t67.5 -44.5t42.5 -69.5t14.5 -90.5q0 -76 -35.5 -129.5t-91.5 -78.5l135 -243v-30h-187zM322 480q0 18 -10 38t-30 20h-64v-114h62q18 1 30 19t12 37z" />
    <glyph glyph-name="S" unicode="S" horiz-adv-x="570" 
d="M529 224q0 -73 -20.5 -119.5t-54.5 -73.5t-79 -37.5t-93 -10.5q-33 0 -63.5 6t-61.5 18.5t-64 33t-72 49.5l58 169q54 -50 104.5 -69t89.5 -19q29 0 53 12t24 40q0 12 -11.5 20t-28.5 12.5t-37.5 7t-38.5 4.5q-35 3 -71.5 16t-66.5 38.5t-49.5 65t-19.5 97.5
q0 73 26 118.5t64.5 71t81.5 34.5t77 9q59 0 118.5 -22t129.5 -76l-47 -159q-58 41 -111 55.5t-90 14.5q-23 0 -36.5 -4t-21 -10t-10 -13t-2.5 -13q0 -10 8.5 -15.5t21 -9t26.5 -4.5t24 -2q36 -3 78 -13.5t79 -36.5t61.5 -70.5t24.5 -114.5z" />
    <glyph glyph-name="T" unicode="T" horiz-adv-x="582" 
d="M388 514v-514h-195l-1 514h-178v187h552v-187h-178z" />
    <glyph glyph-name="U" unicode="U" horiz-adv-x="629" 
d="M598 357q0 -86 -17 -155t-51.5 -117t-87 -74t-124.5 -26q-73 0 -127 25.5t-90 72.5t-53 114.5t-17 150.5v353h193v-327q0 -51 7 -86t19 -56.5t29.5 -31t38.5 -9.5q38 0 63.5 45.5t25.5 140.5v324h191v-344v0z" />
    <glyph glyph-name="V" unicode="V" horiz-adv-x="670" 
d="M410 0h-148l-249 671v30h204l124 -409l119 409h188v-30z" />
    <glyph glyph-name="W" unicode="W" horiz-adv-x="866" 
d="M651 0h-135l-83 362l-79 -362h-142l-194 671v30h209l65 -312l57 312h171l76 -321l56 321h185v-30z" />
    <glyph glyph-name="X" unicode="X" horiz-adv-x="646" 
d="M409 0l-97 195l-102 -195h-200v30l183 318l-181 324v29h212l95 -191q23 48 46 95.5t46 95.5h211v-30l-185 -314l193 -327v-30h-221z" />
    <glyph glyph-name="Y" unicode="Y" horiz-adv-x="586" 
d="M388 266v-266h-195v271l-178 400v30h199l94 -232l82 232h181v-30z" />
    <glyph glyph-name="Z" unicode="Z" horiz-adv-x="564" 
d="M292 184h227v-184h-497l1 110l240 407h-233v184h500v-108z" />
    <glyph glyph-name="bracketleft" unicode="[" horiz-adv-x="348" 
d="M30 -86v872h269v-163h-87q0 -69 0.5 -136t0.5 -136v-273h93v-164h-276z" />
    <glyph glyph-name="backslash" unicode="\" horiz-adv-x="447" 
d="M271 0l-264 701h169l263 -701h-168z" />
    <glyph glyph-name="bracketright" unicode="]" horiz-adv-x="346" 
d="M31 -86v164h94q0 38 -0.5 71.5t-0.5 65.5t-0.5 65t-0.5 71v272h-85v163h270q0 -220 -1 -436t-1 -436h-275z" />
    <glyph glyph-name="asciicircum" unicode="^" horiz-adv-x="498" 
d="M294 380l-51 113l-55 -113h-176l177 321h108l174 -321h-177z" />
    <glyph glyph-name="underscore" unicode="_" horiz-adv-x="316" 
d="M-19 -221v123h350v-123h-350z" />
    <glyph glyph-name="grave" unicode="`" horiz-adv-x="409" 
d="M185 602l-151 138v20h160l129 -158h-138z" />
    <glyph glyph-name="a" unicode="a" horiz-adv-x="497" 
d="M474 0q-13 -2 -25 -3q-11 -2 -23.5 -2.5t-22.5 -0.5q-11 0 -24.5 2t-26.5 7t-24 14.5t-16 24.5q-14 -25 -42 -40t-57 -15q-35 0 -70.5 9t-64.5 31.5t-47.5 60t-18.5 94.5q0 62 24 99.5t56.5 57.5t66.5 26t55 6q17 0 34 -6t28 -17q3 22 -4.5 37t-19 24.5t-24 13.5t-19.5 4
q-20 0 -58.5 -9t-86.5 -41l-22 119q13 11 35.5 22.5t48 21t50.5 15.5t45 6q38 0 74.5 -8t68.5 -36q35 -32 53.5 -76.5t18.5 -86.5v-173q0 -17 9.5 -21.5t28.5 -2.5v-157zM282 220q-6 11 -20.5 15.5t-22.5 4.5q-19 0 -30 -18t-11 -37q0 -21 10 -36.5t25 -15.5q12 0 26 6
t23 20v61z" />
    <glyph glyph-name="b" unicode="b" horiz-adv-x="528" 
d="M510 292q0 -71 -12.5 -127t-37.5 -96t-61 -61t-83 -21q-20 0 -38 6t-33 16t-25.5 21t-15.5 22v-52h-179v759h179v-249q8 10 22 18.5t30.5 14t34.5 8.5t34 3q36 0 69 -17t59 -50t41.5 -82t15.5 -113zM318 274q0 42 -15.5 71.5t-35.5 29.5q-14 0 -32.5 -9.5t-30.5 -25.5
v-139q13 -13 33 -22t30 -9t19 8.5t16 23t11.5 33t4.5 39.5z" />
    <glyph glyph-name="c" unicode="c" horiz-adv-x="464" 
d="M403 324q-35 27 -59 42t-54 15t-49 -9.5t-29.5 -25t-14 -35.5t-3.5 -40q0 -39 22.5 -69.5t66.5 -30.5q15 0 27 4t25.5 11.5t30 19t39.5 27.5l45 -150q-38 -40 -90.5 -68t-109.5 -28q-54 0 -97 17.5t-74 53t-47.5 89t-16.5 125.5q0 73 19 126.5t52.5 88t78.5 51.5t98 17
q48 0 93 -19t78 -57z" />
    <glyph glyph-name="d" unicode="d" horiz-adv-x="518" 
d="M319 0v39q-6 -9 -20 -18t-30.5 -16t-32.5 -11.5t-25 -4.5q-41 0 -76 17.5t-61 52.5t-41 87.5t-15 121.5q0 73 15 127t42 89t64 52.5t80 17.5q6 0 21 -2.5t31 -7.5t29.5 -11.5t17.5 -15.5v242h175v-759h-174zM318 344q-5 6 -14.5 11.5t-19 9.5t-18.5 6t-13 2
q-25 0 -45 -28t-20 -69q0 -20 5.5 -38t14.5 -31.5t21 -21.5t24 -8q4 0 13 3t18.5 8t19 11.5t14.5 14.5v130z" />
    <glyph glyph-name="e" unicode="e" horiz-adv-x="472" 
d="M197 225q-1 -19 6 -33t17.5 -23t21.5 -13.5t17 -4.5q21 0 49.5 8.5t60.5 28.5l49 -133q-15 -18 -35.5 -31.5t-43 -22t-46 -13t-44.5 -4.5q-51 0 -94 17.5t-74 53t-48 90.5t-17 130q0 74 18.5 128t49 89t71 52t84.5 17q49 0 87 -19t64.5 -59.5t40.5 -104t14 -153.5h-248z
M281 330q-1 30 -10.5 53.5t-31.5 23.5q-21 0 -35 -23.5t-10 -53.5h87z" />
    <glyph glyph-name="f" unicode="f" horiz-adv-x="344" 
d="M315 598q-10 11 -25 15t-28 2q-4 -1 -10.5 -4t-12 -9.5t-9.5 -17t-3 -25.5v-17h87v-154h-87v-388h-173v388h-54v154h54v31q0 36 10.5 73t31.5 67t52 49t73 19q9 0 22.5 -1.5t28 -5t28.5 -9t24 -12.5z" />
    <glyph glyph-name="g" unicode="g" horiz-adv-x="511" 
d="M490 37q0 -65 -17.5 -116.5t-46.5 -87.5t-68 -55.5t-81 -19.5q-24 0 -50.5 3.5t-51 9.5t-44.5 14.5t-31 18.5l28 153q18 -10 37 -15t36.5 -6.5t31.5 -1.5h23q16 0 30.5 9.5t25.5 25.5t16.5 38t4.5 47q-6 -9 -17 -20.5t-26 -21.5t-34.5 -16.5t-42.5 -6.5q-42 0 -79 19
t-64.5 54t-44 86t-16.5 116q0 69 14.5 123.5t40 91.5t61.5 56.5t79 19.5q19 0 37.5 -5.5t33.5 -15t25.5 -22t14.5 -25.5v55h175v-505zM315 342q-6 6 -15 11.5t-19.5 9.5t-20 6t-15.5 2q-13 0 -25 -7t-21 -20t-14.5 -30t-5.5 -37q0 -21 5.5 -40t14.5 -33.5t21 -22.5t25 -8
q4 0 13.5 4t20 11t20.5 15t16 17v122z" />
    <glyph glyph-name="h" unicode="h" horiz-adv-x="495" 
d="M296 0v310q0 15 -3 29.5t-8.5 26t-12.5 18.5t-16 7q-16 0 -29.5 -15.5t-24.5 -32.5v-343h-180v759h180v-269q9 12 22.5 24t30 21t34.5 15t36 6q39 0 66.5 -15.5t44.5 -43t24.5 -65t7.5 -82.5v-350h-172z" />
    <glyph glyph-name="i" unicode="i" horiz-adv-x="269" 
d="M217 682q0 -20 -7 -37t-19 -29t-27 -19t-31 -7q-32 0 -57 25.5t-25 66.5q0 19 6.5 35.5t17.5 28.5t26 19t32 7q16 0 31 -7t27 -19t19 -28.5t7 -35.5zM44 0v542h176v-542h-176z" />
    <glyph glyph-name="j" unicode="j" horiz-adv-x="262" 
d="M220 -28q0 -43 -8.5 -83.5t-27.5 -72t-49 -51t-73 -19.5q-10 0 -24 3t-29 8t-27.5 10.5t-19.5 10.5l20 178q2 -5 18 -10t28 -5q8 0 13.5 11.5t5.5 36.5v553h173v-570zM220 681q0 -21 -7.5 -38t-19.5 -29.5t-27.5 -19.5t-31.5 -7q-17 0 -32.5 7t-27.5 19.5t-19 29.5t-7 38
q0 20 7 37t18.5 29.5t27 19.5t33.5 7q16 0 31.5 -7t27.5 -19.5t19.5 -29.5t7.5 -37z" />
    <glyph glyph-name="k" unicode="k" horiz-adv-x="473" 
d="M273 0q-8 19 -20 48t-23 57q-13 33 -27 67v-172h-173v759h173v-343l70 126h178l-1 -20l-133 -193l140 -309v-20h-184z" />
    <glyph glyph-name="l" unicode="l" horiz-adv-x="277" 
d="M52 0v759h174v-759h-174z" />
    <glyph glyph-name="m" unicode="m" horiz-adv-x="762" 
d="M555 0v310q0 15 -2 29.5t-6 26t-10.5 18.5t-15.5 7q-17 0 -30.5 -12.5t-26.5 -29.5v-349h-174v310q0 15 -2 29.5t-5.5 26t-9.5 18.5t-15 7q-15 0 -26.5 -13.5t-24.5 -30.5v-347h-179v542h179v-54q19 24 48 46t66 22q49 0 79 -23t45 -64q11 16 26 32t32 28t36 19.5t38 7.5
q39 0 67.5 -15.5t47 -43t27.5 -65t9 -82.5v-350h-173z" />
    <glyph glyph-name="n" unicode="n" horiz-adv-x="500" 
d="M301 0v308q0 15 -2.5 29.5t-6.5 26t-10.5 18.5t-13.5 7q-15 0 -32 -14.5t-29 -31.5v-343h-179v542h179v-54q9 12 22.5 24t30 21t34.5 15t36 6q39 0 66.5 -15.5t45 -43t25 -65t7.5 -82.5v-348h-173z" />
    <glyph glyph-name="o" unicode="o" horiz-adv-x="512" 
d="M477 273q0 -76 -16 -130.5t-45.5 -89t-71.5 -50.5t-93 -16q-47 0 -88 17t-71.5 52.5t-48 89t-17.5 127.5q0 77 17.5 131t48 88.5t71.5 50t88 15.5q104 0 165 -69t61 -216zM307 274q0 42 -14.5 69.5t-41.5 27.5q-25 0 -39.5 -27t-14.5 -70q0 -39 14.5 -68.5t39.5 -29.5
q27 0 41.5 28.5t14.5 69.5z" />
    <glyph glyph-name="p" unicode="p" horiz-adv-x="519" 
d="M499 292q0 -71 -12.5 -127t-36.5 -96t-58.5 -61t-78.5 -21q-19 0 -37.5 6t-33.5 16t-26.5 21t-16.5 22v-275h-178v765h178v-34q9 10 24 18.5t32.5 14.5t35.5 9.5t34 3.5q34 0 65.5 -17t55.5 -50t38.5 -82t14.5 -113zM309 274q0 42 -10.5 71.5t-30.5 29.5q-14 0 -35 -9.5
t-34 -25.5v-138q14 -13 34 -22t30 -9q9 0 17.5 8.5t15 22.5t10 32.5t3.5 39.5z" />
    <glyph glyph-name="q" unicode="q" horiz-adv-x="526" 
d="M328 -223v254q-6 -7 -20 -14.5t-30.5 -13.5t-32 -10t-25.5 -4q-41 0 -77.5 17.5t-63.5 52.5t-43 87.5t-16 121.5q0 73 15 127t42 89t64 52.5t81 17.5q18 0 34 -5.5t29.5 -14t23 -19.5t13.5 -22v49h179v-765h-173zM326 344q-5 6 -14 11.5t-19 9.5t-19.5 6t-13.5 2
q-12 0 -24.5 -7.5t-22.5 -20.5t-16.5 -31t-6.5 -38t6.5 -38t16.5 -31.5t22.5 -21.5t24.5 -8q4 0 13.5 3t19.5 8t19 11.5t14 14.5v130z" />
    <glyph glyph-name="r" unicode="r" horiz-adv-x="396" 
d="M369 321h-20q-8 15 -30 23t-42 8q-19 0 -37.5 -12t-33.5 -37v-303h-180v542h180v-62q7 13 18 26t24.5 23.5t30 17t34.5 6.5q3 0 10.5 -1t16.5 -3t17 -5.5t12 -8.5v-214z" />
    <glyph glyph-name="s" unicode="s" horiz-adv-x="443" 
d="M414 175q0 -59 -18 -95t-46.5 -56t-64 -27t-71.5 -7q-51 0 -96 17.5t-87 55.5l20 134q22 -18 46 -30.5t47.5 -20.5t43.5 -11.5t34 -3.5q9 0 17.5 6t8.5 20q0 11 -4.5 15.5t-20.5 4.5q-24 0 -58.5 10t-67 32t-55.5 56t-23 82q0 63 20 101.5t50 59t65 27t65 6.5
q57 0 100 -19.5t78 -56.5l-43 -129q-79 63 -140 63q-20 0 -27.5 -8t-7.5 -22q0 -6 5.5 -10.5t12.5 -7.5t13.5 -5t9.5 -2q24 0 57 -9.5t63.5 -31t52 -55.5t21.5 -83z" />
    <glyph glyph-name="t" unicode="t" horiz-adv-x="407" 
d="M366 82q-57 -82 -127 -82q-25 0 -53 10t-52 30q-15 15 -28.5 36t-23.5 45t-15.5 48.5t-5.5 47.5v171h-54v154h54v128l185 87v-215h131v-154h-131v-148q0 -15 0.5 -24.5t1.5 -14.5q4 -7 10 -7q1 0 8 2t16 8t19.5 17t19.5 30l45 -169v0z" />
    <glyph glyph-name="u" unicode="u" 
d="M287 0v54q-9 -12 -22.5 -24t-30.5 -21.5t-35.5 -15.5t-36.5 -6q-39 0 -66 15.5t-43.5 43.5t-23.5 65.5t-7 82.5v348h174v-308q0 -15 2.5 -29.5t6.5 -26t10 -18.5t13 -7q17 0 34 14.5t29 33.5v341h178v-542h-182z" />
    <glyph glyph-name="v" unicode="v" horiz-adv-x="562" 
d="M336 0h-136l-190 522v20h184l85 -256l86 256h184l-1 -20z" />
    <glyph glyph-name="w" unicode="w" horiz-adv-x="738" 
d="M568 0h-137l-67 249l-63 -249h-128l-163 522v20h189l53 -209l64 209h125l62 -219l47 219h169v-20z" />
    <glyph glyph-name="x" unicode="x" horiz-adv-x="561" 
d="M335 0l-73 128q-18 -32 -38.5 -65.5t-36.5 -62.5h-177v20l150 251q-17 27 -36.5 59.5t-39.5 66.5t-39 66t-35 59v20h207l75 -127q19 34 37.5 64t36.5 63h176v-20l-148 -251l149 -251v-20h-208z" />
    <glyph glyph-name="y" unicode="y" horiz-adv-x="545" 
d="M303 -140q-21 -63 -56 -87.5t-86 -24.5q-24 0 -52.5 12.5t-52.5 25.5l39 169q12 -11 26 -15t21 -4q9 0 18.5 14t14.5 34l25 75l-187 463v20h172l95 -256l73 256h174v-20z" />
    <glyph glyph-name="z" unicode="z" horiz-adv-x="491" 
d="M24 0v67l171 299h-171v176h429v-70l-163 -294h163v-178h-429z" />
    <glyph glyph-name="braceleft" unicode="{" horiz-adv-x="352" 
d="M330 -2q0 -8 -10.5 -20.5t-28 -24t-40.5 -19.5t-50 -8q-39 0 -66.5 15.5t-45.5 39t-26 51.5t-8 54q0 15 4 32.5t9 37t9 39.5t4 40q0 29 -3 43.5t0 16.5h-18.5t-14.5 0.5t-14.5 0.5h-19.5v114l72 2q-2 2 -3 8t-1 23t-6 38t-13 42t-13 41.5t-6 37.5q0 35 10.5 65.5t30.5 53
t50.5 35.5t69.5 13q24 0 56.5 -12t61.5 -35l-10 -109q-12 12 -28 20.5t-36 4.5q-5 -3 -15 -13t-10 -29q0 -18 6.5 -36.5t14.5 -36.5t14.5 -36t6.5 -36q0 -28 -9.5 -56.5t-36.5 -42.5q25 -12 35 -40t10 -63q0 -16 -6 -33t-13.5 -34t-13.5 -34t-6 -32q0 -27 9 -41.5t13 -14.5
q18 0 29.5 5.5t31.5 17.5l24 -85v0z" />
    <glyph glyph-name="bar" unicode="|" horiz-adv-x="231" 
d="M25 -66v829h166v-829h-166z" />
    <glyph glyph-name="braceright" unicode="}" horiz-adv-x="342" 
d="M319 296q-17 0 -35 -0.5t-35 -0.5q5 -2 2.5 -16.5t-2.5 -43.5q0 -19 4 -39.5t9.5 -40t9.5 -37t4 -32.5q0 -26 -8.5 -54t-26 -51.5t-45 -39t-66.5 -15.5q-27 0 -50.5 8t-41 19.5t-27.5 24t-10 20.5l22 85q22 -12 33.5 -17.5t28.5 -5.5q3 0 13 14.5t10 41.5q0 15 -6.5 32
t-14 34t-13.5 34t-6 33q0 35 10.5 63t34.5 40q-26 14 -36 42.5t-10 56.5q0 18 6.5 36t15 36t15 36.5t6.5 36.5q0 19 -10 29t-15 13q-19 4 -36 -4.5t-28 -20.5l-10 109q31 23 62.5 35t54.5 12q39 0 69.5 -13t50.5 -35.5t30.5 -53t10.5 -65.5q0 -16 -6 -36.5t-13 -41.5
t-13 -42t-6 -39q0 -17 -1 -23t-5 -8l74 -2v-114v0z" />
    <glyph glyph-name="asciitilde" unicode="~" horiz-adv-x="453" 
d="M431 701q-2 -48 -12.5 -89t-29 -70.5t-44 -46.5t-56.5 -17q-28 0 -45.5 10t-31.5 22t-26.5 22t-30.5 10q-17 0 -24.5 -18t-11.5 -41h-104q0 29 5 66.5t18.5 71.5t39 57t66.5 23q27 0 45.5 -10t33 -21.5t28 -21.5t31.5 -10q4 0 12 4t15.5 12.5t14 20t8.5 26.5h99z" />
    <glyph glyph-name="uni00A0" unicode="&#xa0;" horiz-adv-x="163" 
 />
    <glyph glyph-name="exclamdown" unicode="&#xa1;" horiz-adv-x="214" 
d="M180 613q0 -41 -23 -69t-55 -28q-34 0 -57 28t-23 69q0 40 23 68t57 28q32 0 55 -28t23 -68zM15 0l22 453h126l20 -453h-168z" />
    <glyph glyph-name="cent" unicode="&#xa2;" horiz-adv-x="385" 
d="M121 0l22 127q-54 24 -89 82.5t-35 152.5q0 57 14 102.5t39.5 78t61 49.5t78.5 17q5 0 6 0.5t6 -0.5q5 23 8.5 47t6.5 44h69l-21 -114q9 -4 20.5 -9t22 -11.5t19.5 -13t13 -13.5l-42 -126q-9 12 -25.5 18t-30.5 9q-6 -37 -13.5 -81t-15.5 -85q20 3 45.5 16t43.5 36
l33 -124q-8 -14 -24 -29t-36 -27.5t-43 -21.5t-46 -11l-19 -113h-68zM144 365q0 -19 7.5 -40t18.5 -34l27 155q-22 -3 -37.5 -27.5t-15.5 -53.5z" />
    <glyph glyph-name="sterling" unicode="&#xa3;" 
d="M79 0v271h-70v139h70q1 79 17.5 136.5t43.5 95t63 55.5t77 18q18 0 37.5 -5.5t37.5 -14.5t32 -20t20 -21l-55 -119q-8 13 -23 17.5t-34 4.5q-10 0 -20 -5t-17.5 -20.5t-11.5 -44.5t-2 -77h99v-139h-102v-107h244v-164h-406z" />
    <glyph glyph-name="currency" unicode="&#xa4;" horiz-adv-x="575" 
d="M346 316q0 49 -19 84t-53 35t-53.5 -34.5t-19.5 -84.5q0 -23 5 -43.5t14.5 -36.5t23 -25t30.5 -9q34 0 53 33t19 81zM373 116q-20 -16 -45 -23.5t-54 -7.5q-49 0 -88 25l-78 -99q-21 21 -36 36.5t-31 32.5l73 92q-14 28 -21.5 63.5t-7.5 80.5q0 41 5.5 73t16.5 58l-71 92
q21 24 36.5 40.5t34.5 36.5l74 -94q39 27 93 27q32 0 60 -11t49 -32l75 96q20 -23 33.5 -37.5t30.5 -31.5l-80 -100q19 -52 19 -117q0 -38 -5 -68t-13 -54l78 -99l-72 -76z" />
    <glyph glyph-name="yen" unicode="&#xa5;" horiz-adv-x="545" 
d="M400 381h32v-108h-89v-43h89v-107h-89v-123h-171v123h-85v107h86v43h-86v108h35q-33 81 -64 159.5t-64 160.5h180l89 -263q24 67 46.5 132t45.5 131h176z" />
    <glyph glyph-name="brokenbar" unicode="&#xa6;" horiz-adv-x="197" 
d="M37 403v361h115v-361h-115zM37 -64v368h115v-368h-115z" />
    <glyph glyph-name="section" unicode="&#xa7;" horiz-adv-x="493" 
d="M467 377q0 -41 -17 -71.5t-34 -50.5q10 -8 23 -34.5t13 -59.5q0 -62 -21 -97.5t-54.5 -53.5t-75.5 -22.5t-83 -4.5q-14 0 -33 3q-15 3 -31.5 7.5t-30.5 10t-23.5 11.5t-10.5 11l40 130q6 -8 20.5 -15t32 -12t35.5 -8.5t31 -3.5q5 0 15 4t19.5 12t16.5 19.5t7 26.5
q0 5 -5 8t-12 3q-27 0 -55.5 -6t-53.5 -6q-18 0 -45 3.5t-53 17.5t-44.5 43.5t-18.5 80.5q0 31 4.5 53.5t11.5 38t15 25t16 14.5q-11 11 -20.5 34.5t-9.5 50.5q0 62 21.5 98t54.5 55t73.5 24t79.5 5q5 0 11.5 -0.5t14.5 -1.5q23 -3 49 -12t61 -26l-40 -125q-17 13 -43 20.5
t-40 10.5q-5 0 -8 0.5t-5 0.5q-3 0 -4 1q-4 0 -17 -3t-27 -9.5t-25 -17.5t-11 -27q0 -5 10.5 -9.5t16.5 -4.5q15 0 24 2t19.5 4t25 4t40.5 2q18 0 44 -4.5t49.5 -20.5t40 -46t16.5 -82zM302 379q-6 14 -13 16t-24 2q-6 0 -19.5 -2.5t-27 -9.5t-23.5 -20t-10 -34
q0 -8 6.5 -12.5t14.5 -7t16 -3t10 -0.5q5 0 15.5 4t21.5 12t20.5 21.5t12.5 33.5z" />
    <glyph glyph-name="dieresis" unicode="&#xa8;" horiz-adv-x="498" 
d="M224 681q0 -20 -7 -37t-19 -29t-27 -19t-31 -7q-32 0 -57 25.5t-25 66.5q0 19 6.5 35.5t17.5 28.5t26 19t32 7q16 0 31 -7t27 -19t19 -28.5t7 -35.5zM439 681q0 -20 -7 -37t-19 -29t-27 -19t-31 -7q-32 0 -57 25.5t-25 66.5q0 19 6.5 35.5t17.5 28.5t26 19t32 7
q16 0 31 -7t27 -19t19 -28.5t7 -35.5z" />
    <glyph glyph-name="copyright" unicode="&#xa9;" horiz-adv-x="583" 
d="M538 359q0 -78 -20.5 -146.5t-55 -119t-80.5 -79.5t-98 -29q-51 0 -97.5 29t-81 79.5t-55 119t-20.5 146.5t20.5 146t55 119t81 80t97.5 29q52 0 98 -29t80.5 -80t55 -119t20.5 -146zM475 359q0 59 -15 111.5t-40.5 92t-60.5 62.5t-75 23t-75 -23t-60.5 -62.5t-40.5 -92
t-15 -111.5t15 -111t40.5 -91.5t60.5 -62.5t75 -23t75 23t60.5 62.5t40.5 91.5t15 111zM403 221q-6 -12 -17.5 -27t-27 -28t-35 -21.5t-43.5 -8.5t-48 14.5t-43.5 42.5t-32 70t-12.5 96q0 51 11.5 92t30.5 70t43 44.5t50 15.5q32 0 65.5 -18.5t61.5 -65.5l-36 -80
q-20 27 -41.5 45.5t-47.5 18.5q-24 0 -41.5 -33t-17.5 -90q0 -56 17.5 -89.5t41.5 -33.5q26 0 47.5 20t41.5 46l36 -68v-7z" />
    <glyph glyph-name="ordfeminine" unicode="&#xaa;" horiz-adv-x="367" 
d="M208 248v11q-8 -8 -17 -12.5t-18 -4.5q-27 0 -53.5 16t-46.5 45t-32.5 70.5t-12.5 91.5q0 57 12.5 101t32.5 74t45.5 45.5t51.5 15.5q24 0 49 -27q1 5 1 11t-2 8h103v-445h-113zM208 525q-13 26 -30 26t-26.5 -23.5t-9.5 -55.5t9.5 -55.5t26.5 -23.5t30 27v105z" />
    <glyph glyph-name="guillemotleft" unicode="&#xab;" horiz-adv-x="544" 
d="M259 212v117l224 215v-183l-99 -94q20 -20 46 -45.5t53 -49.5v-186zM27 212v117l222 215v-183l-97 -94q21 -16 41 -35l56 -60v-186z" />
    <glyph glyph-name="logicalnot" unicode="&#xac;" horiz-adv-x="556" 
d="M521 518v-518h-212v317h-302v201h514z" />
    <glyph glyph-name="registered" unicode="&#xae;" horiz-adv-x="583" 
d="M538 349q0 -78 -20.5 -146.5t-55 -119t-80.5 -79.5t-98 -29q-51 0 -97.5 29t-81 79.5t-55 119t-20.5 146.5t20.5 146t55 119t81 80t97.5 29q52 0 98 -29t80.5 -80t55 -119t20.5 -146zM475 349q0 59 -15 111.5t-40.5 92t-60.5 62.5t-75 23t-75 -23t-60.5 -62.5t-40.5 -92
t-15 -111.5t15 -111t40.5 -91.5t60.5 -62.5t75 -23t75 23t60.5 62.5t40.5 91.5t15 111zM332 139q-7 15 -16 35.5t-19 42t-20 42t-18 34.5h-5v-154h-82v424h125q47 0 73 -32.5t26 -96.5q0 -44 -14 -78t-40 -51q19 -35 35 -72t32 -72l-17 -22h-60zM326 432q0 14 -6 23.5
t-20 9.5h-46v-76h41q14 0 22.5 14t8.5 29z" />
    <glyph glyph-name="macron" unicode="&#xaf;" horiz-adv-x="463" 
d="M51 591v109h365v-109h-365z" />
    <glyph glyph-name="degree" unicode="&#xb0;" horiz-adv-x="339" 
d="M314 547q0 -37 -9 -69t-27.5 -55.5t-46.5 -37t-65 -13.5q-40 0 -67.5 13.5t-44.5 37t-24.5 55.5t-7.5 69t8.5 69t26 56t44.5 37.5t65 13.5q39 0 67 -13.5t46 -37.5t26.5 -56t8.5 -69zM196 547q0 31 -4 52.5t-26 21.5q-20 0 -23.5 -21.5t-3.5 -52.5t3.5 -52t23.5 -21
q22 0 26 21t4 52z" />
    <glyph glyph-name="plusminus" unicode="&#xb1;" horiz-adv-x="366" 
d="M232 357v-131h-130v131h-91v137h91v130h130v-130h92v-137h-92zM13 54v139h310v-139h-310z" />
    <glyph glyph-name="twosuperior" unicode="&#xb2;" horiz-adv-x="379" 
d="M316 568q0 -29 -7 -50t-19 -37t-28 -28t-35 -24q-13 -9 -17 -14.5t-9 -13.5h112v-110h-270l-5 77q5 28 15 47.5t22.5 33.5t27 24.5t29.5 20.5q68 49 68 74q0 14 -5.5 27t-20.5 13q-16 0 -47 -11t-62 -40l-24 93q9 14 25 25.5t35.5 19.5t39.5 12t37 4q21 0 45 -6.5
t44.5 -23t34.5 -44t14 -69.5z" />
    <glyph glyph-name="threesuperior" unicode="&#xb3;" horiz-adv-x="341" 
d="M305 415q0 -42 -14.5 -67.5t-35.5 -39t-45.5 -17.5t-45.5 -4q-35 0 -65.5 10t-68.5 42l25 92q34 -26 58.5 -33t41.5 -7q15 0 23.5 11t8.5 20q0 23 -10 27.5t-19 4.5h-68l-4 92h72q9 0 19.5 7.5t10.5 24.5q0 4 -1.5 10.5t-5 12.5t-8.5 10.5t-12 4.5q-8 0 -17 -1
t-20.5 -4.5t-25 -11.5t-31.5 -21l-33 87q26 28 60 37t70 9q21 0 45.5 -4.5t45.5 -18t35.5 -39t14.5 -67.5q0 -11 -4 -23t-11 -23.5t-16 -21t-18 -14.5q9 -4 18 -13t15.5 -21t11 -25t4.5 -26z" />
    <glyph glyph-name="acute" unicode="&#xb4;" horiz-adv-x="491" 
d="M161 602l129 158h160v-20l-151 -138h-138z" />
    <glyph glyph-name="mu" unicode="&#xb5;" horiz-adv-x="534" 
d="M303 1l-5 22q-17 -14 -37.5 -24t-43.5 -10q-3 0 -4 0.5l-5 2.5q0 -17 -0.5 -41t-0.5 -41v-114h-182v722h182v-307q0 -16 3.5 -29.5t14.5 -13.5q8 0 23.5 15t30.5 32v303h183v-360q0 -26 7 -53.5t16 -50.5q10 -27 23 -53h-205z" />
    <glyph glyph-name="paragraph" unicode="&#xb6;" horiz-adv-x="623" 
d="M464 0v538h-65v-538h-129l-1 189h-45q-60 0 -100.5 17t-65 49.5t-35 79.5t-10.5 108t10.5 109t35.5 81t66.5 50.5t103.5 17.5h359v-701h-124zM269 537h-32q-11 0 -19 -8.5t-14 -22t-9 -30t-3 -31.5q0 -17 2.5 -34t7.5 -31t12 -22.5t16 -8.5h40z" />
    <glyph glyph-name="periodcentered" unicode="&#xb7;" horiz-adv-x="185" 
d="M169 318q0 -23 -6.5 -42.5t-18 -34t-26 -23t-30.5 -8.5q-17 0 -31.5 8.5t-25 23t-17 34t-6.5 42.5q0 22 6.5 41.5t17 34t25 23t31.5 8.5q16 0 30.5 -8.5t26 -23t18 -34t6.5 -41.5z" />
    <glyph glyph-name="cedilla" unicode="&#xb8;" horiz-adv-x="515" 
d="M374 -127q0 -26 -12.5 -43.5t-30 -28.5t-36.5 -16t-31 -5q-51 0 -96 28l10 60q18 -10 39.5 -14.5t31.5 -4.5q9 0 19 6t10 17q0 8 -7.5 18t-23.5 10q-8 0 -14 -8q-3 -4 -5 -7l-66 19l39 103h88l-23 -52q21 1 40.5 -3t34.5 -14.5t24 -26.5t9 -38z" />
    <glyph glyph-name="onesuperior" unicode="&#xb9;" horiz-adv-x="238" 
d="M60 288v413h114v-413h-114z" />
    <glyph glyph-name="ordmasculine" unicode="&#xba;" horiz-adv-x="365" 
d="M340 476q0 -57 -14 -100.5t-36 -72t-50 -43t-56 -14.5q-29 0 -57.5 14.5t-51 43.5t-36 72t-13.5 100q0 59 13.5 102.5t36 72.5t51 43.5t57.5 14.5q28 0 56 -15.5t50 -45t36 -73t14 -99.5zM223 477q0 32 -10 54.5t-30 22.5q-19 0 -30 -22.5t-11 -54.5t11 -53.5t30 -21.5
q20 0 30 21.5t10 53.5z" />
    <glyph glyph-name="guillemotright" unicode="&#xbb;" horiz-adv-x="521" 
d="M256 -14v186l56 60l20 18t21 17q-25 23 -48.5 47t-48.5 47v183l222 -215v-117zM21 -14v186l56 60l20 18t21 17q-25 23 -48.5 47t-48.5 47v183l222 -215v-117z" />
    <glyph glyph-name="onequarter" unicode="&#xbc;" horiz-adv-x="617" 
d="M538 68v-68h-110v68h-152v66l203 269l59 -1v-241h40v-93h-40zM160 0h-92l297 700h92zM38 290v411h109v-411h-109zM428 228l-48 -67h48v67z" />
    <glyph glyph-name="onehalf" unicode="&#xbd;" horiz-adv-x="661" 
d="M616 284q0 -29 -9 -50.5t-24 -39t-34.5 -31.5t-40.5 -27q-14 -8 -16.5 -15.5t-1.5 -15.5h125v-105h-268l-4 74q4 25 12.5 43.5t19 32.5t21.5 24t22 19q50 34 71 50.5t21 33.5q0 14 -7 28.5t-24 14.5q-16 0 -35 -11.5t-55 -37.5l-23 89q17 27 48.5 42.5t66.5 15.5
q20 0 43.5 -6t44 -21.5t34 -41.5t13.5 -65zM175 0h-93l292 700h94zM51 290v411h108v-411h-108z" />
    <glyph glyph-name="threequarters" unicode="&#xbe;" horiz-adv-x="756" 
d="M305 415q0 -42 -14.5 -67.5t-35.5 -39t-45.5 -17.5t-45.5 -4q-35 0 -65.5 10t-68.5 42l25 92q34 -26 58.5 -33t41.5 -7q15 0 23.5 11t8.5 20q0 23 -10 27.5t-19 4.5h-68l-4 92h72q9 0 19.5 7.5t10.5 24.5q0 4 -1.5 10.5t-5 12.5t-8.5 10.5t-12 4.5q-8 0 -17 -1
t-20.5 -4.5t-25 -11.5t-31.5 -21l-33 87q26 28 60 37t70 9q21 0 45.5 -4.5t45.5 -18t35.5 -39t14.5 -67.5q0 -11 -4 -23t-11 -23.5t-16 -21t-18 -14.5q9 -4 18 -13t15.5 -21t11 -25t4.5 -26zM680 68v-68h-113v68h-140v66l193 269q14 0 29.5 -0.5t30.5 -0.5v-241h40v-93h-40z
M296 0h-92l298 700h91zM567 228l-47 -67h47v67z" />
    <glyph glyph-name="questiondown" unicode="&#xbf;" horiz-adv-x="453" 
d="M346 552q0 -23 -7.5 -41.5t-20.5 -32.5t-29 -21.5t-32 -7.5q-17 0 -32.5 7.5t-27.5 21.5t-19.5 32.5t-7.5 41.5t7.5 42t19.5 33t27.5 21.5t32.5 7.5q16 0 32 -7.5t29 -21.5t20.5 -33t7.5 -42zM426 36q-12 -15 -33.5 -31.5t-48 -30.5t-56 -23.5t-57.5 -9.5q-33 0 -73.5 7
t-76 29.5t-60 63.5t-24.5 109q0 57 15.5 92.5t38.5 56t50 30.5t50 16.5t38.5 13t15.5 20.5q0 4 0.5 7.5t-0.5 7.5l156 2q-3 -3 -3 -16.5v-26.5q0 -41 -14.5 -66t-36 -40.5t-47 -25t-47 -18.5t-36 -21t-14.5 -32q0 -19 5.5 -30t13.5 -17t17 -7.5t16 -1.5q35 0 82.5 21.5
t88.5 64.5z" />
    <glyph glyph-name="Agrave" unicode="&#xc0;" horiz-adv-x="664" 
d="M254 704h142l251 -674v-30h-203l-25 89h-195l-23 -89h-188v30zM267 247h108l-55 195zM262 760l-151 138v20h160l129 -158h-138z" />
    <glyph glyph-name="Aacute" unicode="&#xc1;" horiz-adv-x="664" 
d="M254 704h142l251 -674v-30h-203l-25 89h-195l-23 -89h-188v30zM267 247h108l-55 195zM242 760l129 158h160v-20l-151 -138h-138z" />
    <glyph glyph-name="Acircumflex" unicode="&#xc2;" horiz-adv-x="664" 
d="M254 704h142l251 -674v-30h-203l-25 89h-195l-23 -89h-188v30zM267 247h108l-55 195zM369 750l-36 63l-39 -63h-132l121 168h101l117 -168h-132z" />
    <glyph glyph-name="Atilde" unicode="&#xc3;" horiz-adv-x="664" 
d="M254 704h142l251 -674v-30h-203l-25 89h-195l-23 -89h-188v30zM267 247h108l-55 195zM506 914q-2 -34 -11 -63t-25.5 -50t-39 -33t-50.5 -12q-25 0 -40.5 7t-28 16t-23.5 16t-27 7q-14 0 -21 -13t-11 -30h-92q0 21 4.5 47.5t16.5 50.5t34.5 40.5t58.5 16.5q24 0 40.5 -7
t29.5 -15.5t25 -15.5t28 -7q4 0 10.5 3t13.5 9t12.5 14t7.5 19h88z" />
    <glyph glyph-name="Adieresis" unicode="&#xc4;" horiz-adv-x="664" 
d="M254 704h142l251 -674v-30h-203l-25 89h-195l-23 -89h-188v30zM267 247h108l-55 195zM307 839q0 -20 -7 -37t-19 -29t-27 -19t-31 -7q-32 0 -57 25.5t-25 66.5q0 19 6.5 35.5t17.5 28.5t26 19t32 7q16 0 31 -7t27 -19t19 -28.5t7 -35.5zM522 839q0 -20 -7 -37t-19 -29
t-27 -19t-31 -7q-32 0 -57 25.5t-25 66.5q0 19 6.5 35.5t17.5 28.5t26 19t32 7q16 0 31 -7t27 -19t19 -28.5t7 -35.5z" />
    <glyph glyph-name="Aring" unicode="&#xc5;" horiz-adv-x="664" 
d="M254 704h142l251 -674v-30h-203l-25 89h-195l-23 -89h-188v30zM267 247h108l-55 195zM451 852q0 -48 -30 -80.5t-87 -32.5q-60 0 -91 32.5t-31 80.5q0 49 29.5 81.5t89.5 32.5q58 0 89 -32.5t31 -81.5zM365 852q0 17 -7.5 28.5t-23.5 11.5q-15 0 -22.5 -11.5t-7.5 -28.5
t7.5 -28t22.5 -11q16 0 23.5 11t7.5 28z" />
    <glyph glyph-name="AE" unicode="&#xc6;" horiz-adv-x="933" 
d="M350 246h109v192zM459 0v88h-200l-49 -88h-191v23l428 677h446v-165h-255v-109h212v-156h-212v-103h262v-167h-441z" />
    <glyph glyph-name="Ccedilla" unicode="&#xc7;" horiz-adv-x="579" 
d="M423 -138q0 -26 -12.5 -43.5t-30 -28.5t-36.5 -16t-31 -5q-51 0 -96 28l10 60q18 -10 39.5 -14.5t31.5 -4.5q9 0 19 6t10 17q0 8 -7.5 18t-23.5 10q-8 0 -14 -8q-3 -4 -5 -7l-66 19l37 99q-53 12 -96.5 40.5t-74 73.5t-47.5 107t-17 140q0 85 19.5 153t58.5 115.5
t96.5 73t133.5 25.5q30 0 61 -5t59 -14t52.5 -21.5t42.5 -26.5l-80 -170q-12 12 -28.5 21t-34.5 15.5t-36 9.5t-32 3q-22 0 -42 -10.5t-35 -32t-24 -53.5t-9 -75q0 -42 9 -74.5t24 -54t35 -32.5t41 -11q35 0 69 10.5t66 33.5l81 -161q-17 -17 -41.5 -32t-53 -27t-58 -20
t-54.5 -9l-18 -40q21 1 40.5 -3t34.5 -14.5t24 -26.5t9 -38z" />
    <glyph glyph-name="Egrave" unicode="&#xc8;" horiz-adv-x="506" 
d="M22 0l1 701h433v-172h-240v-99h197v-164h-197v-93h247v-173h-441zM199 760l-151 138v20h160l129 -158h-138z" />
    <glyph glyph-name="Eacute" unicode="&#xc9;" horiz-adv-x="506" 
d="M22 0l1 701h433v-172h-240v-99h197v-164h-197v-93h247v-173h-441zM149 752l129 158h160v-20l-151 -138h-138z" />
    <glyph glyph-name="Ecircumflex" unicode="&#xca;" horiz-adv-x="506" 
d="M22 0l1 701h433v-172h-240v-99h197v-164h-197v-93h247v-173h-441zM281 750l-36 63l-39 -63h-132l121 168h101l117 -168h-132z" />
    <glyph glyph-name="Edieresis" unicode="&#xcb;" horiz-adv-x="506" 
d="M22 0l1 701h433v-172h-240v-99h197v-164h-197v-93h247v-173h-441zM228 839q0 -20 -7 -37t-19 -29t-27 -19t-31 -7q-32 0 -57 25.5t-25 66.5q0 19 6.5 35.5t17.5 28.5t26 19t32 7q16 0 31 -7t27 -19t19 -28.5t7 -35.5zM443 839q0 -20 -7 -37t-19 -29t-27 -19t-31 -7
q-32 0 -57 25.5t-25 66.5q0 19 6.5 35.5t17.5 28.5t26 19t32 7q16 0 31 -7t27 -19t19 -28.5t7 -35.5z" />
    <glyph glyph-name="Igrave" unicode="&#xcc;" horiz-adv-x="269" 
d="M35 0v701h194v-701h-194zM101 760l-151 138v20h160l129 -158h-138z" />
    <glyph glyph-name="Iacute" unicode="&#xcd;" horiz-adv-x="269" 
d="M35 0v701h194v-701h-194zM35 760l129 158h160v-20l-151 -138h-138z" />
    <glyph glyph-name="Icircumflex" unicode="&#xce;" horiz-adv-x="269" 
d="M35 0v701h194v-701h-194zM172 750l-36 63l-39 -63h-132l121 168h101l117 -168h-132z" />
    <glyph glyph-name="Idieresis" unicode="&#xcf;" horiz-adv-x="269" 
d="M35 0v701h194v-701h-194zM110 839q0 -20 -7 -37t-19 -29t-27 -19t-31 -7q-32 0 -57 25.5t-25 66.5q0 19 6.5 35.5t17.5 28.5t26 19t32 7q16 0 31 -7t27 -19t19 -28.5t7 -35.5zM325 839q0 -20 -7 -37t-19 -29t-27 -19t-31 -7q-32 0 -57 25.5t-25 66.5q0 19 6.5 35.5
t17.5 28.5t26 19t32 7q16 0 31 -7t27 -19t19 -28.5t7 -35.5z" />
    <glyph glyph-name="Eth" unicode="&#xd0;" horiz-adv-x="612" 
d="M581 351q0 -75 -15 -139t-48 -111.5t-84.5 -74t-124.5 -26.5h-253v306h-46v107h46v288h277q67 0 114.5 -29t77 -77t43 -111.5t13.5 -132.5zM386 347q0 37 -4.5 69t-17 55t-35.5 36.5t-60 13.5h-20v-108h68v-107h-67v-125h17q32 0 54.5 13t37 35.5t21 52.5t6.5 65z" />
    <glyph glyph-name="Ntilde" unicode="&#xd1;" horiz-adv-x="631" 
d="M467 0l-246 319v-319h-190v701h124l233 -300l1 300h187v-701h-109zM485 918q-2 -34 -11 -63t-25.5 -50t-39 -33t-50.5 -12q-25 0 -40.5 7t-28 16t-23.5 16t-27 7q-14 0 -21 -13t-11 -30h-92q0 21 4.5 47.5t16.5 50.5t34.5 40.5t58.5 16.5q24 0 40.5 -7t29.5 -15.5
t25 -15.5t28 -7q4 0 10.5 3t13.5 9t12.5 14t7.5 19h88z" />
    <glyph glyph-name="Ograve" unicode="&#xd2;" horiz-adv-x="655" 
d="M626 347q0 -92 -21.5 -160t-61 -114t-96.5 -68.5t-128 -22.5q-69 0 -125 23t-96 69.5t-62 115t-22 160.5q0 190 76.5 280t228.5 90q153 0 230 -95t77 -278zM440 347q0 39 -7 74t-22 61t-38 41t-54 15t-53.5 -15t-37 -40.5t-21.5 -60.5t-7 -75q0 -38 7 -70t21.5 -55.5
t37 -37t53.5 -13.5q32 0 55 13t37.5 36.5t21.5 55.5t7 71zM264 760l-151 138v20h160l129 -158h-138z" />
    <glyph glyph-name="Oacute" unicode="&#xd3;" horiz-adv-x="655" 
d="M626 347q0 -92 -21.5 -160t-61 -114t-96.5 -68.5t-128 -22.5q-69 0 -125 23t-96 69.5t-62 115t-22 160.5q0 190 76.5 280t228.5 90q153 0 230 -95t77 -278zM440 347q0 39 -7 74t-22 61t-38 41t-54 15t-53.5 -15t-37 -40.5t-21.5 -60.5t-7 -75q0 -38 7 -70t21.5 -55.5
t37 -37t53.5 -13.5q32 0 55 13t37.5 36.5t21.5 55.5t7 71zM213 760l129 158h160v-20l-151 -138h-138z" />
    <glyph glyph-name="Ocircumflex" unicode="&#xd4;" horiz-adv-x="655" 
d="M626 347q0 -92 -21.5 -160t-61 -114t-96.5 -68.5t-128 -22.5q-69 0 -125 23t-96 69.5t-62 115t-22 160.5q0 190 76.5 280t228.5 90q153 0 230 -95t77 -278zM440 347q0 39 -7 74t-22 61t-38 41t-54 15t-53.5 -15t-37 -40.5t-21.5 -60.5t-7 -75q0 -38 7 -70t21.5 -55.5
t37 -37t53.5 -13.5q32 0 55 13t37.5 36.5t21.5 55.5t7 71zM361 761l-36 63l-39 -63h-132l121 168h101l117 -168h-132z" />
    <glyph glyph-name="Otilde" unicode="&#xd5;" horiz-adv-x="655" 
d="M626 347q0 -92 -21.5 -160t-61 -114t-96.5 -68.5t-128 -22.5q-69 0 -125 23t-96 69.5t-62 115t-22 160.5q0 190 76.5 280t228.5 90q153 0 230 -95t77 -278zM440 347q0 39 -7 74t-22 61t-38 41t-54 15t-53.5 -15t-37 -40.5t-21.5 -60.5t-7 -75q0 -38 7 -70t21.5 -55.5
t37 -37t53.5 -13.5q32 0 55 13t37.5 36.5t21.5 55.5t7 71zM495 918q-2 -34 -11 -63t-25.5 -50t-39 -33t-50.5 -12q-25 0 -40.5 7t-28 16t-23.5 16t-27 7q-14 0 -21 -13t-11 -30h-92q0 21 4.5 47.5t16.5 50.5t34.5 40.5t58.5 16.5q24 0 40.5 -7t29.5 -15.5t25 -15.5t28 -7
q4 0 10.5 3t13.5 9t12.5 14t7.5 19h88z" />
    <glyph glyph-name="Odieresis" unicode="&#xd6;" horiz-adv-x="655" 
d="M626 347q0 -92 -21.5 -160t-61 -114t-96.5 -68.5t-128 -22.5q-69 0 -125 23t-96 69.5t-62 115t-22 160.5q0 190 76.5 280t228.5 90q153 0 230 -95t77 -278zM440 347q0 39 -7 74t-22 61t-38 41t-54 15t-53.5 -15t-37 -40.5t-21.5 -60.5t-7 -75q0 -38 7 -70t21.5 -55.5
t37 -37t53.5 -13.5q32 0 55 13t37.5 36.5t21.5 55.5t7 71zM303 839q0 -20 -7 -37t-19 -29t-27 -19t-31 -7q-32 0 -57 25.5t-25 66.5q0 19 6.5 35.5t17.5 28.5t26 19t32 7q16 0 31 -7t27 -19t19 -28.5t7 -35.5zM518 839q0 -20 -7 -37t-19 -29t-27 -19t-31 -7q-32 0 -57 25.5
t-25 66.5q0 19 6.5 35.5t17.5 28.5t26 19t32 7q16 0 31 -7t27 -19t19 -28.5t7 -35.5z" />
    <glyph glyph-name="multiply" unicode="&#xd7;" horiz-adv-x="387" 
d="M268 95l-74 125q-8 -14 -19.5 -32l-23 -36t-20 -33.5t-11.5 -24.5l-89 117l75 126l-74 125l86 112l73 -125q18 29 39.5 62.5t35.5 59.5l87 -115l-74 -122q18 -30 39.5 -63.5t36.5 -62.5z" />
    <glyph glyph-name="Oslash" unicode="&#xd8;" horiz-adv-x="655" 
d="M502 668q124 -89 124 -321q0 -92 -21.5 -160t-61 -114t-96.5 -68.5t-128 -22.5q-25 0 -49 3l-16 -49h-146l33 98q-60 44 -93.5 122.5t-33.5 193.5q0 190 76.5 280t228.5 90q14 0 28 -1t27 -3l16 46h144zM200 347q0 -56 15 -98l98 289q-30 -2 -51 -17t-35 -41t-20.5 -60
t-6.5 -73zM440 347q0 53 -14 98l-92 -274q56 6 81 54.5t25 121.5z" />
    <glyph glyph-name="Ugrave" unicode="&#xd9;" horiz-adv-x="629" 
d="M598 357q0 -86 -17 -155t-51.5 -117t-87 -74t-124.5 -26q-73 0 -127 25.5t-90 72.5t-53 114.5t-17 150.5v353h193v-327q0 -51 7 -86t19 -56.5t29.5 -31t38.5 -9.5q38 0 63.5 45.5t25.5 140.5v324h191v-344zM251 760l-151 138v20h160l129 -158h-138z" />
    <glyph glyph-name="Uacute" unicode="&#xda;" horiz-adv-x="629" 
d="M598 357q0 -86 -17 -155t-51.5 -117t-87 -74t-124.5 -26q-73 0 -127 25.5t-90 72.5t-53 114.5t-17 150.5v353h193v-327q0 -51 7 -86t19 -56.5t29.5 -31t38.5 -9.5q38 0 63.5 45.5t25.5 140.5v324h191v-344zM240 760l129 158h160v-20l-151 -138h-138z" />
    <glyph glyph-name="Ucircumflex" unicode="&#xdb;" horiz-adv-x="629" 
d="M598 357q0 -86 -17 -155t-51.5 -117t-87 -74t-124.5 -26q-73 0 -127 25.5t-90 72.5t-53 114.5t-17 150.5v353h193v-327q0 -51 7 -86t19 -56.5t29.5 -31t38.5 -9.5q38 0 63.5 45.5t25.5 140.5v324h191v-344zM360 760l-36 63l-39 -63h-132l121 168h101l117 -168h-132z" />
    <glyph glyph-name="Udieresis" unicode="&#xdc;" horiz-adv-x="629" 
d="M598 357q0 -86 -17 -155t-51.5 -117t-87 -74t-124.5 -26q-73 0 -127 25.5t-90 72.5t-53 114.5t-17 150.5v353h193v-327q0 -51 7 -86t19 -56.5t29.5 -31t38.5 -9.5q38 0 63.5 45.5t25.5 140.5v324h191v-344zM293 839q0 -20 -7 -37t-19 -29t-27 -19t-31 -7q-32 0 -57 25.5
t-25 66.5q0 19 6.5 35.5t17.5 28.5t26 19t32 7q16 0 31 -7t27 -19t19 -28.5t7 -35.5zM508 839q0 -20 -7 -37t-19 -29t-27 -19t-31 -7q-32 0 -57 25.5t-25 66.5q0 19 6.5 35.5t17.5 28.5t26 19t32 7q16 0 31 -7t27 -19t19 -28.5t7 -35.5z" />
    <glyph glyph-name="Yacute" unicode="&#xdd;" horiz-adv-x="586" 
d="M388 266v-266h-195v271l-178 400v30h199l94 -232l82 232h181v-30zM216 746l129 158h160v-20l-151 -138h-138z" />
    <glyph glyph-name="Thorn" unicode="&#xde;" horiz-adv-x="511" 
d="M493 353q0 -61 -16.5 -105.5t-45 -74t-67.5 -44t-85 -14.5h-54v-115h-194v701h194v-110h56q100 0 156 -57t56 -181zM319 351q0 35 -12 47.5t-34 12.5h-48v-125h42q23 0 37.5 16.5t14.5 48.5z" />
    <glyph glyph-name="germandbls" unicode="&#xdf;" horiz-adv-x="527" 
d="M26 559q0 45 14.5 84t39.5 67.5t59 45t74 16.5q41 0 75.5 -14.5t59.5 -41.5t39 -66.5t14 -90.5q0 -35 -7.5 -61t-16.5 -44q22 -11 38.5 -31.5t27 -46t16 -55t5.5 -58.5q0 -69 -15 -120.5t-41 -85t-60.5 -50.5t-73.5 -17q-25 0 -46.5 9t-33.5 21l12 148q17 -17 32 -19
t22 -2q18 0 30 11.5t19.5 29t10.5 37.5t3 38q0 35 -17 59.5t-34 30.5q-11 -4 -29.5 -8.5t-38.5 -5.5h-35v-339h-143v559zM169 482h20q20 0 35 7t24.5 18.5t14 26t4.5 28.5q0 10 -2 22.5t-8 23.5t-16.5 18.5t-26.5 7.5q-26 0 -35.5 -20.5t-9.5 -41.5v-90z" />
    <glyph glyph-name="agrave" unicode="&#xe0;" horiz-adv-x="497" 
d="M474 0q-13 -2 -25 -3q-11 -2 -23.5 -2.5t-22.5 -0.5q-11 0 -24.5 2t-26.5 7t-24 14.5t-16 24.5q-14 -25 -42 -40t-57 -15q-35 0 -70.5 9t-64.5 31.5t-47.5 60t-18.5 94.5q0 62 24 99.5t56.5 57.5t66.5 26t55 6q17 0 34 -6t28 -17q3 22 -4.5 37t-19 24.5t-24 13.5t-19.5 4
q-20 0 -58.5 -9t-86.5 -41l-22 119q13 11 35.5 22.5t48 21t50.5 15.5t45 6q38 0 74.5 -8t68.5 -36q35 -32 53.5 -76.5t18.5 -86.5v-173q0 -17 9.5 -21.5t28.5 -2.5v-157zM282 220q-6 11 -20.5 15.5t-22.5 4.5q-19 0 -30 -18t-11 -37q0 -21 10 -36.5t25 -15.5q12 0 26 6
t23 20v61zM185 602l-151 138v20h160l129 -158h-138z" />
    <glyph glyph-name="aacute" unicode="&#xe1;" horiz-adv-x="497" 
d="M474 0q-13 -2 -25 -3q-11 -2 -23.5 -2.5t-22.5 -0.5q-11 0 -24.5 2t-26.5 7t-24 14.5t-16 24.5q-14 -25 -42 -40t-57 -15q-35 0 -70.5 9t-64.5 31.5t-47.5 60t-18.5 94.5q0 62 24 99.5t56.5 57.5t66.5 26t55 6q17 0 34 -6t28 -17q3 22 -4.5 37t-19 24.5t-24 13.5t-19.5 4
q-20 0 -58.5 -9t-86.5 -41l-22 119q13 11 35.5 22.5t48 21t50.5 15.5t45 6q38 0 74.5 -8t68.5 -36q35 -32 53.5 -76.5t18.5 -86.5v-173q0 -17 9.5 -21.5t28.5 -2.5v-157zM282 220q-6 11 -20.5 15.5t-22.5 4.5q-19 0 -30 -18t-11 -37q0 -21 10 -36.5t25 -15.5q12 0 26 6
t23 20v61zM144 602l129 158h160v-20l-151 -138h-138z" />
    <glyph glyph-name="acircumflex" unicode="&#xe2;" horiz-adv-x="497" 
d="M474 0q-13 -2 -25 -3q-11 -2 -23.5 -2.5t-22.5 -0.5q-11 0 -24.5 2t-26.5 7t-24 14.5t-16 24.5q-14 -25 -42 -40t-57 -15q-35 0 -70.5 9t-64.5 31.5t-47.5 60t-18.5 94.5q0 62 24 99.5t56.5 57.5t66.5 26t55 6q17 0 34 -6t28 -17q3 22 -4.5 37t-19 24.5t-24 13.5t-19.5 4
q-20 0 -58.5 -9t-86.5 -41l-22 119q13 11 35.5 22.5t48 21t50.5 15.5t45 6q38 0 74.5 -8t68.5 -36q35 -32 53.5 -76.5t18.5 -86.5v-173q0 -17 9.5 -21.5t28.5 -2.5v-157zM282 220q-6 11 -20.5 15.5t-22.5 4.5q-19 0 -30 -18t-11 -37q0 -21 10 -36.5t25 -15.5q12 0 26 6
t23 20v61zM276 592l-36 63l-39 -63h-132l121 168h101l117 -168h-132z" />
    <glyph glyph-name="atilde" unicode="&#xe3;" horiz-adv-x="497" 
d="M474 0q-13 -2 -25 -3q-11 -2 -23.5 -2.5t-22.5 -0.5q-11 0 -24.5 2t-26.5 7t-24 14.5t-16 24.5q-14 -25 -42 -40t-57 -15q-35 0 -70.5 9t-64.5 31.5t-47.5 60t-18.5 94.5q0 62 24 99.5t56.5 57.5t66.5 26t55 6q17 0 34 -6t28 -17q3 22 -4.5 37t-19 24.5t-24 13.5t-19.5 4
q-20 0 -58.5 -9t-86.5 -41l-22 119q13 11 35.5 22.5t48 21t50.5 15.5t45 6q38 0 74.5 -8t68.5 -36q35 -32 53.5 -76.5t18.5 -86.5v-173q0 -17 9.5 -21.5t28.5 -2.5v-157zM282 220q-6 11 -20.5 15.5t-22.5 4.5q-19 0 -30 -18t-11 -37q0 -21 10 -36.5t25 -15.5q12 0 26 6
t23 20v61zM429 760q-2 -34 -11 -63t-25.5 -50t-39 -33t-50.5 -12q-25 0 -40.5 7t-28 16t-23.5 16t-27 7q-14 0 -21 -13t-11 -30h-92q0 21 4.5 47.5t16.5 50.5t34.5 40.5t58.5 16.5q24 0 40.5 -7t29.5 -15.5t25 -15.5t28 -7q4 0 10.5 3t13.5 9t12.5 14t7.5 19h88z" />
    <glyph glyph-name="adieresis" unicode="&#xe4;" horiz-adv-x="497" 
d="M474 0q-13 -2 -25 -3q-11 -2 -23.5 -2.5t-22.5 -0.5q-11 0 -24.5 2t-26.5 7t-24 14.5t-16 24.5q-14 -25 -42 -40t-57 -15q-35 0 -70.5 9t-64.5 31.5t-47.5 60t-18.5 94.5q0 62 24 99.5t56.5 57.5t66.5 26t55 6q17 0 34 -6t28 -17q3 22 -4.5 37t-19 24.5t-24 13.5t-19.5 4
q-20 0 -58.5 -9t-86.5 -41l-22 119q13 11 35.5 22.5t48 21t50.5 15.5t45 6q38 0 74.5 -8t68.5 -36q35 -32 53.5 -76.5t18.5 -86.5v-173q0 -17 9.5 -21.5t28.5 -2.5v-157zM282 220q-6 11 -20.5 15.5t-22.5 4.5q-19 0 -30 -18t-11 -37q0 -21 10 -36.5t25 -15.5q12 0 26 6
t23 20v61zM216 681q0 -20 -7 -37t-19 -29t-27 -19t-31 -7q-32 0 -57 25.5t-25 66.5q0 19 6.5 35.5t17.5 28.5t26 19t32 7q16 0 31 -7t27 -19t19 -28.5t7 -35.5zM431 681q0 -20 -7 -37t-19 -29t-27 -19t-31 -7q-32 0 -57 25.5t-25 66.5q0 19 6.5 35.5t17.5 28.5t26 19t32 7
q16 0 31 -7t27 -19t19 -28.5t7 -35.5z" />
    <glyph glyph-name="aring" unicode="&#xe5;" horiz-adv-x="497" 
d="M474 0q-13 -2 -25 -3q-11 -2 -23.5 -2.5t-22.5 -0.5q-11 0 -24.5 2t-26.5 7t-24 14.5t-16 24.5q-14 -25 -42 -40t-57 -15q-35 0 -70.5 9t-64.5 31.5t-47.5 60t-18.5 94.5q0 62 24 99.5t56.5 57.5t66.5 26t55 6q17 0 34 -6t28 -17q3 22 -4.5 37t-19 24.5t-24 13.5t-19.5 4
q-20 0 -58.5 -9t-86.5 -41l-22 119q13 11 35.5 22.5t48 21t50.5 15.5t45 6q38 0 74.5 -8t68.5 -36q35 -32 53.5 -76.5t18.5 -86.5v-173q0 -17 9.5 -21.5t28.5 -2.5v-157zM282 220q-6 11 -20.5 15.5t-22.5 4.5q-19 0 -30 -18t-11 -37q0 -21 10 -36.5t25 -15.5q12 0 26 6
t23 20v61zM368 694q0 -48 -30 -80.5t-87 -32.5q-60 0 -91 32.5t-31 80.5q0 49 29.5 81.5t89.5 32.5q58 0 89 -32.5t31 -81.5zM282 694q0 17 -7.5 28.5t-23.5 11.5q-15 0 -22.5 -11.5t-7.5 -28.5t7.5 -28t22.5 -11q16 0 23.5 11t7.5 28z" />
    <glyph glyph-name="ae" unicode="&#xe6;" horiz-adv-x="695" 
d="M424 214q1 -18 8.5 -31t17.5 -22t20.5 -13t16.5 -4q23 0 45 8.5t54 28.5l53 -127q-26 -34 -72 -51.5t-91 -17.5q-63 0 -99.5 18t-56.5 56q-1 -13 -14 -26.5t-31 -24t-36.5 -17t-29.5 -6.5q-35 0 -71 9t-65.5 31t-48.5 58t-19 90q0 39 11 68t29 49.5t40.5 33t45.5 19.5
t44 9.5t36 2.5q12 0 32 -6.5t31 -17.5q3 21 -4.5 35.5t-18.5 23.5t-23.5 13t-18.5 4q-21 0 -63 -9t-90 -39l-13 107q12 10 34 22t47.5 22.5t50.5 17t43 6.5q29 0 68.5 -7.5t71.5 -35.5q23 22 47.5 32.5t62.5 10.5q109 0 162.5 -78t53.5 -242h-260zM274 151q7 28 7 59
q-8 10 -26 14.5t-26 4.5q-20 0 -29 -17.5t-9 -35.5q0 -20 7.5 -34.5t23.5 -14.5q14 0 29 7t23 17zM501 314q-1 14 -6 27.5t-11 24t-12 16.5t-8 6q-23 0 -36 -22.5t-9 -51.5h82z" />
    <glyph glyph-name="ccedilla" unicode="&#xe7;" horiz-adv-x="464" 
d="M373 -130q0 -26 -12.5 -43.5t-30 -28.5t-36.5 -16t-31 -5q-51 0 -96 28l10 60q18 -10 39.5 -14.5t31.5 -4.5q9 0 19 6t10 17q0 8 -7.5 18t-23.5 10q-8 0 -14 -8q-3 -4 -5 -7l-66 19l34 91q-84 17 -132 86t-48 194q0 73 19 126.5t52.5 88t78.5 51.5t98 17q48 0 93 -19
t78 -57l-31 -155q-35 27 -59 42t-54 15t-49 -9.5t-29.5 -25t-14 -35.5t-3.5 -40q0 -39 22.5 -69.5t66.5 -30.5q15 0 27 4t25.5 11.5t30 19t39.5 27.5l45 -150q-33 -35 -77 -60t-92 -33l-16 -38q21 1 40.5 -3t34.5 -14.5t24 -26.5t9 -38z" />
    <glyph glyph-name="egrave" unicode="&#xe8;" horiz-adv-x="472" 
d="M197 225q-1 -19 6 -33t17.5 -23t21.5 -13.5t17 -4.5q21 0 49.5 8.5t60.5 28.5l49 -133q-15 -18 -35.5 -31.5t-43 -22t-46 -13t-44.5 -4.5q-51 0 -94 17.5t-74 53t-48 90.5t-17 130q0 74 18.5 128t49 89t71 52t84.5 17q49 0 87 -19t64.5 -59.5t40.5 -104t14 -153.5h-248z
M281 330q-1 30 -10.5 53.5t-31.5 23.5q-21 0 -35 -23.5t-10 -53.5h87zM192 602l-151 138v20h160l129 -158h-138z" />
    <glyph glyph-name="eacute" unicode="&#xe9;" horiz-adv-x="472" 
d="M197 225q-1 -19 6 -33t17.5 -23t21.5 -13.5t17 -4.5q21 0 49.5 8.5t60.5 28.5l49 -133q-15 -18 -35.5 -31.5t-43 -22t-46 -13t-44.5 -4.5q-51 0 -94 17.5t-74 53t-48 90.5t-17 130q0 74 18.5 128t49 89t71 52t84.5 17q49 0 87 -19t64.5 -59.5t40.5 -104t14 -153.5h-248z
M281 330q-1 30 -10.5 53.5t-31.5 23.5q-21 0 -35 -23.5t-10 -53.5h87zM122 602l129 158h160v-20l-151 -138h-138z" />
    <glyph glyph-name="ecircumflex" unicode="&#xea;" horiz-adv-x="472" 
d="M197 225q-1 -19 6 -33t17.5 -23t21.5 -13.5t17 -4.5q21 0 49.5 8.5t60.5 28.5l49 -133q-15 -18 -35.5 -31.5t-43 -22t-46 -13t-44.5 -4.5q-51 0 -94 17.5t-74 53t-48 90.5t-17 130q0 74 18.5 128t49 89t71 52t84.5 17q49 0 87 -19t64.5 -59.5t40.5 -104t14 -153.5h-248z
M281 330q-1 30 -10.5 53.5t-31.5 23.5q-21 0 -35 -23.5t-10 -53.5h87zM273 592l-36 63l-39 -63h-132l121 168h101l117 -168h-132z" />
    <glyph glyph-name="edieresis" unicode="&#xeb;" horiz-adv-x="472" 
d="M197 225q-1 -19 6 -33t17.5 -23t21.5 -13.5t17 -4.5q21 0 49.5 8.5t60.5 28.5l49 -133q-15 -18 -35.5 -31.5t-43 -22t-46 -13t-44.5 -4.5q-51 0 -94 17.5t-74 53t-48 90.5t-17 130q0 74 18.5 128t49 89t71 52t84.5 17q49 0 87 -19t64.5 -59.5t40.5 -104t14 -153.5h-248z
M281 330q-1 30 -10.5 53.5t-31.5 23.5q-21 0 -35 -23.5t-10 -53.5h87zM212 681q0 -20 -7 -37t-19 -29t-27 -19t-31 -7q-32 0 -57 25.5t-25 66.5q0 19 6.5 35.5t17.5 28.5t26 19t32 7q16 0 31 -7t27 -19t19 -28.5t7 -35.5zM427 681q0 -20 -7 -37t-19 -29t-27 -19t-31 -7
q-32 0 -57 25.5t-25 66.5q0 19 6.5 35.5t17.5 28.5t26 19t32 7q16 0 31 -7t27 -19t19 -28.5t7 -35.5z" />
    <glyph glyph-name="igrave" unicode="&#xec;" horiz-adv-x="280" 
d="M50 0v542h176v-542h-176zM87 602l-151 138v20h160l129 -158h-138z" />
    <glyph glyph-name="iacute" unicode="&#xed;" horiz-adv-x="280" 
d="M50 0v542h176v-542h-176zM46 602l129 158h160v-20l-151 -138h-138z" />
    <glyph glyph-name="icircumflex" unicode="&#xee;" horiz-adv-x="280" 
d="M50 0v542h176v-542h-176zM178 592l-36 63l-39 -63h-132l121 168h101l117 -168h-132z" />
    <glyph glyph-name="idieresis" unicode="&#xef;" horiz-adv-x="280" 
d="M50 0v542h176v-542h-176zM116 681q0 -20 -7 -37t-19 -29t-27 -19t-31 -7q-32 0 -57 25.5t-25 66.5q0 19 6.5 35.5t17.5 28.5t26 19t32 7q16 0 31 -7t27 -19t19 -28.5t7 -35.5zM331 681q0 -20 -7 -37t-19 -29t-27 -19t-31 -7q-32 0 -57 25.5t-25 66.5q0 19 6.5 35.5
t17.5 28.5t26 19t32 7q16 0 31 -7t27 -19t19 -28.5t7 -35.5z" />
    <glyph glyph-name="eth" unicode="&#xf0;" horiz-adv-x="509" 
d="M483 324q0 -80 -11.5 -142t-38.5 -104t-71 -64t-110 -22q-45 0 -86.5 16.5t-74 49.5t-52 82t-19.5 113q0 65 11 111t38 75.5t71.5 43t112.5 13.5l31 -2q-14 30 -30.5 49.5t-32.5 37.5q-5 -14 -11 -26.5t-11 -26.5l-58 22l27 65q-2 2 -13 5t-23.5 5.5t-23.5 4.5t-14 2
l44 135q22 0 43 -4t42 -11l27 63l55 -31l-23 -59q55 -29 93.5 -71.5t62.5 -94.5t34.5 -112t10.5 -123zM304 256q0 40 -12.5 67t-43.5 27q-30 0 -42 -26.5t-12 -67.5q0 -19 3 -36t9 -30t16.5 -21t25.5 -8q31 0 43.5 28t12.5 67z" />
    <glyph glyph-name="ntilde" unicode="&#xf1;" horiz-adv-x="498" 
d="M293 0v308q0 15 -2.5 29.5t-6.5 26t-10.5 18.5t-13.5 7q-15 0 -32 -14.5t-29 -31.5v-343h-179v542h179v-54q9 12 22.5 24t30 21t34.5 15t36 6q39 0 66.5 -15.5t45 -43t25 -65t7.5 -82.5v-348h-173zM433 760q-2 -34 -11 -63t-25.5 -50t-39 -33t-50.5 -12q-25 0 -40.5 7
t-28 16t-23.5 16t-27 7q-14 0 -21 -13t-11 -30h-92q0 21 4.5 47.5t16.5 50.5t34.5 40.5t58.5 16.5q24 0 40.5 -7t29.5 -15.5t25 -15.5t28 -7q4 0 10.5 3t13.5 9t12.5 14t7.5 19h88z" />
    <glyph glyph-name="ograve" unicode="&#xf2;" horiz-adv-x="512" 
d="M477 273q0 -76 -16 -130.5t-45.5 -89t-71.5 -50.5t-93 -16q-47 0 -88 17t-71.5 52.5t-48 89t-17.5 127.5q0 77 17.5 131t48 88.5t71.5 50t88 15.5q104 0 165 -69t61 -216zM307 274q0 42 -14.5 69.5t-41.5 27.5q-25 0 -39.5 -27t-14.5 -70q0 -39 14.5 -68.5t39.5 -29.5
q27 0 41.5 28.5t14.5 69.5zM202 602l-151 138v20h160l129 -158h-138z" />
    <glyph glyph-name="oacute" unicode="&#xf3;" horiz-adv-x="512" 
d="M477 273q0 -76 -16 -130.5t-45.5 -89t-71.5 -50.5t-93 -16q-47 0 -88 17t-71.5 52.5t-48 89t-17.5 127.5q0 77 17.5 131t48 88.5t71.5 50t88 15.5q104 0 165 -69t61 -216zM307 274q0 42 -14.5 69.5t-41.5 27.5q-25 0 -39.5 -27t-14.5 -70q0 -39 14.5 -68.5t39.5 -29.5
q27 0 41.5 28.5t14.5 69.5zM152 602l129 158h160v-20l-151 -138h-138z" />
    <glyph glyph-name="ocircumflex" unicode="&#xf4;" horiz-adv-x="512" 
d="M477 273q0 -76 -16 -130.5t-45.5 -89t-71.5 -50.5t-93 -16q-47 0 -88 17t-71.5 52.5t-48 89t-17.5 127.5q0 77 17.5 131t48 88.5t71.5 50t88 15.5q104 0 165 -69t61 -216zM307 274q0 42 -14.5 69.5t-41.5 27.5q-25 0 -39.5 -27t-14.5 -70q0 -39 14.5 -68.5t39.5 -29.5
q27 0 41.5 28.5t14.5 69.5zM293 592l-36 63l-39 -63h-132l121 168h101l117 -168h-132z" />
    <glyph glyph-name="otilde" unicode="&#xf5;" horiz-adv-x="512" 
d="M477 273q0 -76 -16 -130.5t-45.5 -89t-71.5 -50.5t-93 -16q-47 0 -88 17t-71.5 52.5t-48 89t-17.5 127.5q0 77 17.5 131t48 88.5t71.5 50t88 15.5q104 0 165 -69t61 -216zM307 274q0 42 -14.5 69.5t-41.5 27.5q-25 0 -39.5 -27t-14.5 -70q0 -39 14.5 -68.5t39.5 -29.5
q27 0 41.5 28.5t14.5 69.5zM435 760q-2 -34 -11 -63t-25.5 -50t-39 -33t-50.5 -12q-25 0 -40.5 7t-28 16t-23.5 16t-27 7q-14 0 -21 -13t-11 -30h-92q0 21 4.5 47.5t16.5 50.5t34.5 40.5t58.5 16.5q24 0 40.5 -7t29.5 -15.5t25 -15.5t28 -7q4 0 10.5 3t13.5 9t12.5 14
t7.5 19h88z" />
    <glyph glyph-name="odieresis" unicode="&#xf6;" horiz-adv-x="512" 
d="M477 273q0 -76 -16 -130.5t-45.5 -89t-71.5 -50.5t-93 -16q-47 0 -88 17t-71.5 52.5t-48 89t-17.5 127.5q0 77 17.5 131t48 88.5t71.5 50t88 15.5q104 0 165 -69t61 -216zM307 274q0 42 -14.5 69.5t-41.5 27.5q-25 0 -39.5 -27t-14.5 -70q0 -39 14.5 -68.5t39.5 -29.5
q27 0 41.5 28.5t14.5 69.5zM231 681q0 -20 -7 -37t-19 -29t-27 -19t-31 -7q-32 0 -57 25.5t-25 66.5q0 19 6.5 35.5t17.5 28.5t26 19t32 7q16 0 31 -7t27 -19t19 -28.5t7 -35.5zM446 681q0 -20 -7 -37t-19 -29t-27 -19t-31 -7q-32 0 -57 25.5t-25 66.5q0 19 6.5 35.5
t17.5 28.5t26 19t32 7q16 0 31 -7t27 -19t19 -28.5t7 -35.5z" />
    <glyph glyph-name="divide" unicode="&#xf7;" horiz-adv-x="453" 
d="M307 564q0 -23 -7 -42.5t-19.5 -34.5t-29.5 -23.5t-36 -8.5q-18 0 -34 8.5t-28.5 23.5t-20 34.5t-7.5 42.5q0 22 7.5 42t20 35t28.5 23.5t34 8.5q19 0 36 -8.5t29.5 -23.5t19.5 -35t7 -42zM12 258v163h411v-163h-411zM311 113q0 -23 -7 -42.5t-19 -34.5t-28 -23.5
t-35 -8.5t-35.5 8.5t-29 23.5t-20 34.5t-7.5 42.5t7.5 43t20 34.5t29 23t35.5 8.5q38 0 63.5 -31.5t25.5 -77.5z" />
    <glyph glyph-name="oslash" unicode="&#xf8;" horiz-adv-x="512" 
d="M307 274q0 42 -14.5 69.5t-41.5 27.5q-25 0 -39.5 -27t-14.5 -70q0 -39 14.5 -68.5t39.5 -29.5q27 0 41.5 28.5t14.5 69.5zM409 501q68 -70 68 -228q0 -152 -58 -219t-168 -67h-9l-21 -65h-156l38 116q-37 35 -57 92.5t-20 142.5q0 77 15.5 131t45 88.5t71 50t93.5 15.5
h11t11 -1l22 66h154z" />
    <glyph glyph-name="ugrave" unicode="&#xf9;" 
d="M287 0v54q-9 -12 -22.5 -24t-30.5 -21.5t-35.5 -15.5t-36.5 -6q-39 0 -66 15.5t-43.5 43.5t-23.5 65.5t-7 82.5v348h174v-308q0 -15 2.5 -29.5t6.5 -26t10 -18.5t13 -7q17 0 34 14.5t29 33.5v341h178v-542h-182zM188 602l-151 138v20h160l129 -158h-138z" />
    <glyph glyph-name="uacute" unicode="&#xfa;" 
d="M287 0v54q-9 -12 -22.5 -24t-30.5 -21.5t-35.5 -15.5t-36.5 -6q-39 0 -66 15.5t-43.5 43.5t-23.5 65.5t-7 82.5v348h174v-308q0 -15 2.5 -29.5t6.5 -26t10 -18.5t13 -7q17 0 34 14.5t29 33.5v341h178v-542h-182zM167 602l129 158h160v-20l-151 -138h-138z" />
    <glyph glyph-name="ucircumflex" unicode="&#xfb;" 
d="M287 0v54q-9 -12 -22.5 -24t-30.5 -21.5t-35.5 -15.5t-36.5 -6q-39 0 -66 15.5t-43.5 43.5t-23.5 65.5t-7 82.5v348h174v-308q0 -15 2.5 -29.5t6.5 -26t10 -18.5t13 -7q17 0 34 14.5t29 33.5v341h178v-542h-182zM284 592l-36 63l-39 -63h-132l121 168h101l117 -168h-132z
" />
    <glyph glyph-name="udieresis" unicode="&#xfc;" 
d="M287 0v54q-9 -12 -22.5 -24t-30.5 -21.5t-35.5 -15.5t-36.5 -6q-39 0 -66 15.5t-43.5 43.5t-23.5 65.5t-7 82.5v348h174v-308q0 -15 2.5 -29.5t6.5 -26t10 -18.5t13 -7q17 0 34 14.5t29 33.5v341h178v-542h-182zM227 681q0 -20 -7 -37t-19 -29t-27 -19t-31 -7
q-32 0 -57 25.5t-25 66.5q0 19 6.5 35.5t17.5 28.5t26 19t32 7q16 0 31 -7t27 -19t19 -28.5t7 -35.5zM442 681q0 -20 -7 -37t-19 -29t-27 -19t-31 -7q-32 0 -57 25.5t-25 66.5q0 19 6.5 35.5t17.5 28.5t26 19t32 7q16 0 31 -7t27 -19t19 -28.5t7 -35.5z" />
    <glyph glyph-name="yacute" unicode="&#xfd;" horiz-adv-x="545" 
d="M303 -140q-21 -63 -56 -87.5t-86 -24.5q-24 0 -52.5 12.5t-52.5 25.5l39 169q12 -11 26 -15t21 -4q9 0 18.5 14t14.5 34l25 75l-187 463v20h172l95 -256l73 256h174v-20zM178 603l129 158h160v-20l-151 -138h-138z" />
    <glyph glyph-name="thorn" unicode="&#xfe;" horiz-adv-x="545" 
d="M517 278q0 -67 -12 -121t-36 -91.5t-60.5 -57.5t-84.5 -20q-20 0 -39 6t-35 15t-28 20t-17 21v-281h-182v993h182v-276q9 10 24.5 17.5t34 13t37.5 8.5t36 3q36 0 69 -16.5t57.5 -48t39 -78t14.5 -107.5zM322 261q0 39 -13.5 67.5t-33.5 28.5q-14 0 -36 -9t-34 -24v-132
q7 -6 17 -11.5t19.5 -9t18 -6t13.5 -2.5q21 0 35 29.5t14 68.5z" />
    <glyph glyph-name="ydieresis" unicode="&#xff;" horiz-adv-x="545" 
d="M303 -140q-21 -63 -56 -87.5t-86 -24.5q-24 0 -52.5 12.5t-52.5 25.5l39 169q12 -11 26 -15t21 -4q9 0 18.5 14t14.5 34l25 75l-187 463v20h172l95 -256l73 256h174v-20zM248 681q0 -20 -7 -37t-19 -29t-27 -19t-31 -7q-32 0 -57 25.5t-25 66.5q0 19 6.5 35.5t17.5 28.5
t26 19t32 7q16 0 31 -7t27 -19t19 -28.5t7 -35.5zM463 681q0 -20 -7 -37t-19 -29t-27 -19t-31 -7q-32 0 -57 25.5t-25 66.5q0 19 6.5 35.5t17.5 28.5t26 19t32 7q16 0 31 -7t27 -19t19 -28.5t7 -35.5z" />
    <glyph glyph-name="Amacron" unicode="&#x100;" horiz-adv-x="664" 
d="M254 704h142l251 -674v-30h-203l-25 89h-195l-23 -89h-188v30zM267 247h108l-55 195zM139 749v109h365v-109h-365z" />
    <glyph glyph-name="amacron" unicode="&#x101;" horiz-adv-x="497" 
d="M474 0q-13 -2 -25 -3q-11 -2 -23.5 -2.5t-22.5 -0.5q-11 0 -24.5 2t-26.5 7t-24 14.5t-16 24.5q-14 -25 -42 -40t-57 -15q-35 0 -70.5 9t-64.5 31.5t-47.5 60t-18.5 94.5q0 62 24 99.5t56.5 57.5t66.5 26t55 6q17 0 34 -6t28 -17q3 22 -4.5 37t-19 24.5t-24 13.5t-19.5 4
q-20 0 -58.5 -9t-86.5 -41l-22 119q13 11 35.5 22.5t48 21t50.5 15.5t45 6q38 0 74.5 -8t68.5 -36q35 -32 53.5 -76.5t18.5 -86.5v-173q0 -17 9.5 -21.5t28.5 -2.5v-157zM282 220q-6 11 -20.5 15.5t-22.5 4.5q-19 0 -30 -18t-11 -37q0 -21 10 -36.5t25 -15.5q12 0 26 6
t23 20v61zM66 591v109h365v-109h-365z" />
    <glyph glyph-name="Aogonek" unicode="&#x104;" horiz-adv-x="643" 
d="M608 -193q-3 -5 -11 -9.5t-17 -8.5t-19 -6.5t-18 -1.5q-18 0 -35 8t-30.5 24t-21.5 38t-8 50q0 13 3.5 28t9.5 29t13.5 25t15.5 17h-61l-27 87h-211l-32 -87h-152l240 703h131l230 -703h-34q-17 -15 -26.5 -35t-9.5 -38q0 -21 10.5 -27t22.5 -6q5 0 17.5 7.5t19.5 12.5
v-107zM296 435l-51 -168h104z" />
    <glyph glyph-name="aogonek" unicode="&#x105;" horiz-adv-x="479" 
d="M447 -190q-3 -5 -10.5 -9.5t-16.5 -8.5t-19 -6.5t-18 -1.5q-18 0 -35.5 8t-31 24t-21.5 38t-8 50q0 14 4 30t10.5 30t15 25t17.5 16q-7 5 -15.5 13.5t-14.5 21.5q-16 -25 -42.5 -40t-60.5 -15q-32 0 -65 9t-60 31t-44.5 58t-17.5 90q0 59 20 95t49 55.5t61.5 25.5t58.5 6
q14 0 36 -6.5t34 -17.5q2 21 -5 35.5t-18.5 23.5t-24.5 13t-24 4t-26.5 -2t-33.5 -7t-37.5 -14.5t-38.5 -24.5l-17 107q11 10 30.5 22t42 22.5t46 17t42.5 6.5q32 0 69 -7.5t67 -34.5q35 -31 50 -73t15 -82v-165q0 -16 8 -20t29 -2v-150q-6 -1 -13 -2q-6 -1 -13.5 -2
t-15.5 -1q-14 -14 -21 -31.5t-7 -33.5q0 -21 11 -27t22 -6q6 0 18.5 7.5t18.5 12.5v-107zM277 210q-11 10 -29.5 14.5t-30.5 4.5q-28 0 -40 -17.5t-12 -35.5q0 -20 11 -34.5t34 -14.5q20 0 37.5 7t29.5 17v59z" />
    <glyph glyph-name="Cacute" unicode="&#x106;" horiz-adv-x="579" 
d="M540 72q-17 -18 -43.5 -34t-56.5 -28t-60.5 -19t-55.5 -7q-68 0 -125.5 23.5t-98.5 69.5t-64 115t-23 161q0 85 19.5 153t58.5 115.5t96.5 73t133.5 25.5q30 0 61 -5t59 -14t52.5 -21.5t42.5 -26.5l-80 -170q-12 12 -28.5 21t-34.5 15.5t-36 9.5t-32 3q-22 0 -42 -10.5
t-35 -32t-24 -53.5t-9 -75q0 -42 9 -74.5t24 -54t35 -32.5t41 -11q35 0 69 10.5t66 33.5zM187 760l129 158h160v-20l-151 -138h-138z" />
    <glyph glyph-name="cacute" unicode="&#x107;" horiz-adv-x="464" 
d="M403 324q-35 27 -59 42t-54 15t-49 -9.5t-29.5 -25t-14 -35.5t-3.5 -40q0 -39 22.5 -69.5t66.5 -30.5q15 0 27 4t25.5 11.5t30 19t39.5 27.5l45 -150q-38 -40 -90.5 -68t-109.5 -28q-54 0 -97 17.5t-74 53t-47.5 89t-16.5 125.5q0 73 19 126.5t52.5 88t78.5 51.5t98 17
q48 0 93 -19t78 -57zM141 604l129 158h160v-20l-151 -138h-138z" />
    <glyph glyph-name="Ccaron" unicode="&#x10c;" horiz-adv-x="579" 
d="M540 72q-17 -18 -43.5 -34t-56.5 -28t-60.5 -19t-55.5 -7q-68 0 -125.5 23.5t-98.5 69.5t-64 115t-23 161q0 85 19.5 153t58.5 115.5t96.5 73t133.5 25.5q30 0 61 -5t59 -14t52.5 -21.5t42.5 -26.5l-80 -170q-12 12 -28.5 21t-34.5 15.5t-36 9.5t-32 3q-22 0 -42 -10.5
t-35 -32t-24 -53.5t-9 -75q0 -42 9 -74.5t24 -54t35 -32.5t41 -11q35 0 69 10.5t66 33.5zM273 919l36 -53l39 53h132l-121 -168h-101l-117 168h132z" />
    <glyph glyph-name="ccaron" unicode="&#x10d;" horiz-adv-x="464" 
d="M403 324q-35 27 -59 42t-54 15t-49 -9.5t-29.5 -25t-14 -35.5t-3.5 -40q0 -39 22.5 -69.5t66.5 -30.5q15 0 27 4t25.5 11.5t30 19t39.5 27.5l45 -150q-38 -40 -90.5 -68t-109.5 -28q-54 0 -97 17.5t-74 53t-47.5 89t-16.5 125.5q0 73 19 126.5t52.5 88t78.5 51.5t98 17
q48 0 93 -19t78 -57zM195 760l36 -53l39 53h132l-121 -168h-101l-117 168h132z" />
    <glyph glyph-name="Dcaron" unicode="&#x10e;" horiz-adv-x="594" 
d="M558 351q0 -75 -18.5 -139t-55.5 -111.5t-91.5 -74t-127.5 -26.5h-240v701h264q68 0 118.5 -29t84 -77t50 -111.5t16.5 -132.5zM364 347q0 37 -4.5 69t-17 55t-36 36.5t-61.5 13.5h-26v-340h24q32 0 55 13t37.5 35.5t21.5 52.5t7 65zM215 919l36 -53l39 53h132l-121 -168
h-101l-117 168h132z" />
    <glyph glyph-name="dcaron" unicode="&#x10f;" horiz-adv-x="693" 
d="M326 0v37q-6 -9 -20.5 -17t-31.5 -15t-33 -11t-26 -4q-42 0 -78 16.5t-62.5 50t-41.5 83t-15 115.5q0 70 15.5 121t43 85t65 50.5t81.5 16.5q7 0 22 -2.5t31 -7t30 -11.5t18 -15v270h179v-762h-177zM324 328q-5 6 -14.5 11t-19.5 8.5t-19 5.5t-13 2q-12 0 -24 -7
t-21.5 -19.5t-15 -29.5t-5.5 -36q0 -20 5.5 -37t15 -29.5t21.5 -20t24 -7.5q4 0 13 3t19 7.5t19.5 11t14.5 13.5v124zM638 531l-101 1l23 231h119z" />
    <glyph glyph-name="Dcroat" unicode="&#x110;" horiz-adv-x="639" 
d="M609 351q0 -75 -15.5 -139t-48.5 -111.5t-84.5 -74t-124.5 -26.5h-261v301h-65v109h65v291h285q68 0 115.5 -29t77 -77t43 -111.5t13.5 -132.5zM414 347q0 37 -4 69t-17 55t-36 36.5t-61 13.5h-27v-111h71v-109h-70v-120h23q32 0 55 13t37.5 35.5t21.5 52.5t7 65z" />
    <glyph glyph-name="dcroat" unicode="&#x111;" horiz-adv-x="568" 
d="M326 0v37q-6 -9 -20.5 -17t-31.5 -15t-33 -11t-26 -4q-42 0 -78 16t-62.5 48t-41.5 81t-15 115q0 70 15.5 120.5t43 83.5t65 48.5t81.5 15.5q7 0 22 -2.5t31 -7t30 -11.5t18 -15v99h-60v120h60v61h179v-61h59v-120h-59v-581h-177zM324 323q-5 6 -14.5 11t-19.5 8.5
t-19 5.5t-13 2q-12 0 -24 -7t-21.5 -19.5t-15 -29.5t-5.5 -36q0 -20 5.5 -37t15 -29.5t21.5 -20t24 -7.5q4 0 13 3t19 7.5t19.5 11t14.5 13.5v124z" />
    <glyph glyph-name="Emacron" unicode="&#x112;" horiz-adv-x="506" 
d="M22 0l1 701h433v-172h-240v-99h197v-164h-197v-93h247v-173h-441zM70 749v109h365v-109h-365z" />
    <glyph glyph-name="emacron" unicode="&#x113;" horiz-adv-x="472" 
d="M197 225q-1 -19 6 -33t17.5 -23t21.5 -13.5t17 -4.5q21 0 49.5 8.5t60.5 28.5l49 -133q-15 -18 -35.5 -31.5t-43 -22t-46 -13t-44.5 -4.5q-51 0 -94 17.5t-74 53t-48 90.5t-17 130q0 74 18.5 128t49 89t71 52t84.5 17q49 0 87 -19t64.5 -59.5t40.5 -104t14 -153.5h-248z
M281 330q-1 30 -10.5 53.5t-31.5 23.5q-21 0 -35 -23.5t-10 -53.5h87zM53 591v109h365v-109h-365z" />
    <glyph glyph-name="Edotaccent" unicode="&#x116;" horiz-adv-x="506" 
d="M22 0l1 701h433v-172h-240v-99h197v-164h-197v-93h247v-173h-441zM336 840q0 -20 -7 -37t-19 -29t-27 -19t-31 -7q-32 0 -57 25.5t-25 66.5q0 19 6.5 35.5t17.5 28.5t26 19t32 7q16 0 31 -7t27 -19t19 -28.5t7 -35.5z" />
    <glyph glyph-name="edotaccent" unicode="&#x117;" horiz-adv-x="472" 
d="M197 225q-1 -19 6 -33t17.5 -23t21.5 -13.5t17 -4.5q21 0 49.5 8.5t60.5 28.5l49 -133q-15 -18 -35.5 -31.5t-43 -22t-46 -13t-44.5 -4.5q-51 0 -94 17.5t-74 53t-48 90.5t-17 130q0 74 18.5 128t49 89t71 52t84.5 17q49 0 87 -19t64.5 -59.5t40.5 -104t14 -153.5h-248z
M281 330q-1 30 -10.5 53.5t-31.5 23.5q-21 0 -35 -23.5t-10 -53.5h87zM319 682q0 -20 -7 -37t-19 -29t-27 -19t-31 -7q-32 0 -57 25.5t-25 66.5q0 19 6.5 35.5t17.5 28.5t26 19t32 7q16 0 31 -7t27 -19t19 -28.5t7 -35.5z" />
    <glyph glyph-name="Eogonek" unicode="&#x118;" horiz-adv-x="494" 
d="M450 -190q-3 -5 -10.5 -9.5t-16.5 -8.5t-19 -6.5t-18 -1.5q-18 0 -35.5 8t-31 24t-21.5 38t-8 50q0 25 11.5 53.5t27.5 42.5h-301l1 701h414v-169h-256v-42t-0.5 -27t-0.5 -18.5v-16.5h215v-160h-214v-98h263v-170h-37q-16 -15 -24.5 -34t-8.5 -36q0 -21 11 -27t22 -6
q6 0 18.5 7.5t18.5 12.5v-107z" />
    <glyph glyph-name="eogonek" unicode="&#x119;" horiz-adv-x="466" 
d="M413 -157q-3 -5 -11 -9.5t-17 -8.5t-19 -6.5t-18 -1.5q-18 0 -35 8t-30.5 24t-21.5 38t-8 50q0 24 9 50q-7 -1 -14 -1.5t-14 -0.5q-49 0 -89 16.5t-68.5 50.5t-44.5 86t-16 124q0 70 16 121.5t44.5 85t67 49.5t83.5 16q94 0 146 -78.5t52 -241.5h-258q1 -18 8.5 -31
t18.5 -22t23.5 -13t23.5 -4q27 0 56 8.5t59 28.5l42 -127q-12 -14 -24 -23q-15 -14 -23 -32.5t-8 -35.5q0 -21 10.5 -27t22.5 -6q5 0 17.5 7.5t19.5 12.5v-107zM227 388q-24 0 -40 -22.5t-18 -51.5h113q-1 29 -16 51.5t-39 22.5z" />
    <glyph glyph-name="Ecaron" unicode="&#x11a;" horiz-adv-x="506" 
d="M22 0l1 701h433v-172h-240v-99h197v-164h-197v-93h247v-173h-441zM215 918l36 -53l39 53h132l-121 -168h-101l-117 168h132z" />
    <glyph glyph-name="ecaron" unicode="&#x11b;" horiz-adv-x="472" 
d="M197 225q-1 -19 6 -33t17.5 -23t21.5 -13.5t17 -4.5q21 0 49.5 8.5t60.5 28.5l49 -133q-15 -18 -35.5 -31.5t-43 -22t-46 -13t-44.5 -4.5q-51 0 -94 17.5t-74 53t-48 90.5t-17 130q0 74 18.5 128t49 89t71 52t84.5 17q49 0 87 -19t64.5 -59.5t40.5 -104t14 -153.5h-248z
M281 330q-1 30 -10.5 53.5t-31.5 23.5q-21 0 -35 -23.5t-10 -53.5h87zM199 760l36 -53l39 53h132l-121 -168h-101l-117 168h132z" />
    <glyph glyph-name="Gcommaaccent" unicode="&#x122;" horiz-adv-x="649" 
d="M537 446q-13 15 -30 26t-33 19.5t-29.5 14.5t-19.5 10q-17 8 -45 15t-57 7q-52 0 -84.5 -49t-32.5 -131q0 -43 9.5 -78t25 -59.5t37 -37.5t45.5 -13q27 0 53.5 12.5t49.5 32.5q0 5 0.5 14.5t0.5 24.5h-123v152h301v-286q-20 -21 -48.5 -45t-62.5 -43q-31 -20 -74 -33.5
t-97 -13.5q-67 0 -122.5 23.5t-95 70t-61.5 115.5t-22 160q0 92 27.5 161t71 114.5t97.5 68t107 22.5q20 0 58 -4t77 -19q19 -9 42 -23.5t45 -31t39.5 -32.5t26.5 -28zM413 -150q0 -30 -11 -62.5t-30 -62t-44 -53.5t-53 -37l-58 86q6 6 14 14.5t15 18.5t13 19.5t9 17.5
q-14 11 -20.5 33.5t-6.5 44.5q0 21 8.5 36.5t21 26.5t27.5 16.5t28 5.5q38 0 62.5 -28.5t24.5 -75.5z" />
    <glyph glyph-name="gcommaaccent" unicode="&#x123;" horiz-adv-x="521" 
d="M500 26q0 -62 -17.5 -111t-47.5 -83.5t-69.5 -53t-82.5 -18.5q-49 0 -88.5 17t-62.5 37l9 146q37 -20 70 -26t50 -6q9 0 15 5t11.5 13.5t12 20t17.5 25.5q24 28 23 59q-6 -9 -17 -19.5t-26.5 -19.5t-35.5 -15.5t-44 -6.5q-42 0 -80 18t-66.5 51.5t-45 82t-16.5 109.5
q0 66 14.5 118t41 87.5t63 54t80.5 18.5q40 0 72.5 -18.5t40.5 -44.5v52h179v-492zM321 326q-6 6 -15.5 11t-20 8.5t-20 5.5t-15.5 2q-27 0 -47 -25.5t-20 -63.5q0 -20 5.5 -38t14.5 -31.5t21 -21.5t26 -8q4 0 13.5 4t20.5 10.5t21 14.5t16 16v116zM119 679q0 30 11 62.5
t30 62t44 53.5t53 37l58 -86q-6 -6 -14 -14.5t-15 -18.5t-13 -20t-9 -17q14 -11 20.5 -33.5t6.5 -44.5q0 -21 -8.5 -36.5t-21 -26.5t-27.5 -16.5t-28 -5.5q-38 0 -62.5 28.5t-24.5 75.5z" />
    <glyph glyph-name="Imacron" unicode="&#x12a;" horiz-adv-x="282" 
d="M45 0v701h194v-701h-194zM-17 749v109h324v-109h-324z" />
    <glyph glyph-name="imacron" unicode="&#x12b;" horiz-adv-x="278" 
d="M50 0v518h178v-518h-178zM-17 592v109h324v-109h-324z" />
    <glyph glyph-name="Iogonek" unicode="&#x12e;" horiz-adv-x="264" 
d="M193 -194q-3 -5 -10.5 -9.5t-17 -8.5t-19.5 -6.5t-18 -1.5q-18 0 -35 8t-30.5 24t-21.5 38t-8 50q0 13 3.5 28.5t10 30t14.5 25.5t17 16h-43v701h158v-701h-33q-18 -15 -27.5 -35t-9.5 -39q0 -21 10.5 -27t22.5 -6q6 0 18.5 7.5t18.5 12.5v-107z" />
    <glyph glyph-name="iogonek" unicode="&#x12f;" horiz-adv-x="239" 
d="M182 -190q-3 -5 -10.5 -9.5t-16.5 -8.5t-19 -6.5t-18 -1.5q-18 0 -35 8t-30.5 24t-21.5 38t-8 50q0 25 11 53.5t27 42.5h-35v518h144v-518h-24q-17 -15 -25 -34t-8 -36q0 -21 10.5 -27t22.5 -6q5 0 17.5 7.5t18.5 12.5v-107zM165 677q0 -41 -20 -66.5t-46 -25.5
q-25 0 -44.5 25.5t-19.5 66.5q0 40 19 66t45 26t46 -26t20 -66z" />
    <glyph glyph-name="dotlessi" unicode="&#x131;" horiz-adv-x="280" 
d="M50 0v542h176v-542h-176z" />
    <glyph glyph-name="Kcommaaccent" unicode="&#x136;" horiz-adv-x="611" 
d="M370 0l-128 267l-16 -27v-240h-194l-1 701h195v-208q31 52 63 104t63 104h224v-27l-206 -260l205 -383v-31h-205zM380 -137q0 -30 -11 -62.5t-30 -62t-44 -53.5t-53 -37l-58 86q6 6 14 14.5t15 18.5t13 19.5t9 17.5q-14 11 -20.5 33.5t-6.5 44.5q0 21 8.5 36.5t21 26.5
t27.5 16.5t28 5.5q38 0 62.5 -28.5t24.5 -75.5z" />
    <glyph glyph-name="kcommaaccent" unicode="&#x137;" horiz-adv-x="474" 
d="M268 0l-89 193q5 -16 9 -32t9 -32v-129h-177v762h177v-366l87 146h173v-30l-140 -198q34 -71 65.5 -140.5t65.5 -140.5v-33h-180zM315 -152q0 -30 -11 -62.5t-30 -62t-44 -53.5t-53 -37l-58 86q6 6 14 14.5t15 18.5t13 19.5t9 17.5q-14 11 -20.5 33.5t-6.5 44.5
q0 21 8.5 36.5t21 26.5t27.5 16.5t28 5.5q38 0 62.5 -28.5t24.5 -75.5z" />
    <glyph glyph-name="Lacute" unicode="&#x139;" horiz-adv-x="524" 
d="M30 0l-1 701h195v-500h280v-201h-474zM192 762h-158l116 168h176l2 -25z" />
    <glyph glyph-name="lacute" unicode="&#x13a;" horiz-adv-x="259" 
d="M40 0v762h178v-762h-178zM203 803h-157l116 168h175l3 -25z" />
    <glyph glyph-name="Lcommaaccent" unicode="&#x13b;" horiz-adv-x="524" 
d="M30 0l-1 701h195v-500h280v-201h-474zM330 -140q0 -30 -11 -62.5t-30 -62t-44 -53.5t-53 -37l-58 86q6 6 14 14.5t15 18.5t13 19.5t9 17.5q-14 11 -20.5 33.5t-6.5 44.5q0 21 8.5 36.5t21 26.5t27.5 16.5t28 5.5q38 0 62.5 -28.5t24.5 -75.5z" />
    <glyph glyph-name="lcommaaccent" unicode="&#x13c;" horiz-adv-x="253" 
d="M40 0v762h178v-762h-178zM223 -152q0 -30 -11 -62.5t-30 -62t-44 -53.5t-53 -37l-58 86q6 6 14 14.5t15 18.5t13 19.5t9 17.5q-14 11 -20.5 33.5t-6.5 44.5q0 21 8.5 36.5t21 26.5t27.5 16.5t28 5.5q38 0 62.5 -28.5t24.5 -75.5z" />
    <glyph glyph-name="Lcaron" unicode="&#x13d;" horiz-adv-x="524" 
d="M30 0l-1 701h195v-500h280v-201h-474zM372 469l-111 1l24 231h128z" />
    <glyph glyph-name="lcaron" unicode="&#x13e;" horiz-adv-x="376" 
d="M20 0v762h178v-762h-178zM334 531l-101 1l24 231h118z" />
    <glyph glyph-name="Lslash" unicode="&#x141;" horiz-adv-x="582" 
d="M56 0l-1 287q-46 -16 -48 -19v106l48 24v303h195v-225l61 30v-108q-18 -9 -33 -17t-28 -16v-164h301v-201h-495zM7 266q-2 0 0 2v-2z" />
    <glyph glyph-name="lslash" unicode="&#x142;" horiz-adv-x="288" 
d="M226 385v-385h-177v264l-33 -37v128l33 37v370h177v-249l31 37v-128z" />
    <glyph glyph-name="Nacute" unicode="&#x143;" horiz-adv-x="631" 
d="M467 0l-246 319v-319h-190v701h124l233 -300l1 300h187v-701h-109zM190 736l129 158h160v-20l-151 -138h-138z" />
    <glyph glyph-name="nacute" unicode="&#x144;" horiz-adv-x="498" 
d="M293 0v308q0 15 -2.5 29.5t-6.5 26t-10.5 18.5t-13.5 7q-15 0 -32 -14.5t-29 -31.5v-343h-179v542h179v-54q9 12 22.5 24t30 21t34.5 15t36 6q39 0 66.5 -15.5t45 -43t25 -65t7.5 -82.5v-348h-173zM105 602l129 158h160v-20l-151 -138h-138z" />
    <glyph glyph-name="Ncommaaccent" unicode="&#x145;" horiz-adv-x="631" 
d="M467 0l-246 319v-319h-190v701h124l233 -300l1 300h187v-701h-109zM410 -121q0 -27 -11 -56.5t-29 -56t-42 -48t-51 -32.5l-56 77q13 11 28.5 30t20.5 33q-13 11 -19.5 30.5t-6.5 39.5q0 19 8 33t20 24t26.5 15t27.5 5q37 0 60.5 -26t23.5 -68z" />
    <glyph glyph-name="ncommaaccent" unicode="&#x146;" horiz-adv-x="498" 
d="M293 0v308q0 15 -2.5 29.5t-6.5 26t-10.5 18.5t-13.5 7q-15 0 -32 -14.5t-29 -31.5v-343h-179v542h179v-54q9 12 22.5 24t30 21t34.5 15t36 6q39 0 66.5 -15.5t45 -43t25 -65t7.5 -82.5v-348h-173zM343 -121q0 -27 -11 -56.5t-29 -56t-42 -48t-51 -32.5l-56 77
q13 11 28.5 30t20.5 33q-13 11 -19.5 30.5t-6.5 39.5q0 19 8 33t20 24t26.5 15t27.5 5q37 0 60.5 -26t23.5 -68z" />
    <glyph glyph-name="Ncaron" unicode="&#x147;" horiz-adv-x="631" 
d="M477 0l-246 319v-319h-190v701h124l233 -300l1 300h187v-701h-109zM270 906l36 -53l39 53h132l-121 -168h-101l-117 168h132z" />
    <glyph glyph-name="ncaron" unicode="&#x148;" horiz-adv-x="498" 
d="M293 0v308q0 15 -2.5 29.5t-6.5 26t-10.5 18.5t-13.5 7q-15 0 -32 -14.5t-29 -31.5v-343h-179v542h179v-54q9 12 22.5 24t30 21t34.5 15t36 6q39 0 66.5 -15.5t45 -43t25 -65t7.5 -82.5v-348h-173zM211 760l36 -53l39 53h132l-121 -168h-101l-117 168h132z" />
    <glyph glyph-name="Omacron" unicode="&#x14c;" horiz-adv-x="655" 
d="M626 347q0 -92 -21.5 -160t-61 -114t-96.5 -68.5t-128 -22.5q-69 0 -125 23t-96 69.5t-62 115t-22 160.5q0 190 76.5 280t228.5 90q153 0 230 -95t77 -278zM440 347q0 39 -7 74t-22 61t-38 41t-54 15t-53.5 -15t-37 -40.5t-21.5 -60.5t-7 -75q0 -38 7 -70t21.5 -55.5
t37 -37t53.5 -13.5q32 0 55 13t37.5 36.5t21.5 55.5t7 71zM134 759v109h365v-109h-365z" />
    <glyph glyph-name="omacron" unicode="&#x14d;" horiz-adv-x="512" 
d="M477 273q0 -76 -16 -130.5t-45.5 -89t-71.5 -50.5t-93 -16q-47 0 -88 17t-71.5 52.5t-48 89t-17.5 127.5q0 77 17.5 131t48 88.5t71.5 50t88 15.5q104 0 165 -69t61 -216zM307 274q0 42 -14.5 69.5t-41.5 27.5q-25 0 -39.5 -27t-14.5 -70q0 -39 14.5 -68.5t39.5 -29.5
q27 0 41.5 28.5t14.5 69.5zM73 591v109h365v-109h-365z" />
    <glyph glyph-name="Ohungarumlaut" unicode="&#x150;" horiz-adv-x="655" 
d="M626 347q0 -92 -21.5 -160t-61 -114t-96.5 -68.5t-128 -22.5q-69 0 -125 23t-96 69.5t-62 115t-22 160.5q0 190 76.5 280t228.5 90q153 0 230 -95t77 -278zM440 347q0 39 -7 74t-22 61t-38 41t-54 15t-53.5 -15t-37 -40.5t-21.5 -60.5t-7 -75q0 -38 7 -70t21.5 -55.5
t37 -37t53.5 -13.5q32 0 55 13t37.5 36.5t21.5 55.5t7 71zM133 748l129 138h140v-20l-151 -118h-118zM329 748l129 138h140v-20l-151 -118h-118z" />
    <glyph glyph-name="ohungarumlaut" unicode="&#x151;" horiz-adv-x="512" 
d="M477 273q0 -76 -16 -130.5t-45.5 -89t-71.5 -50.5t-93 -16q-47 0 -88 17t-71.5 52.5t-48 89t-17.5 127.5q0 77 17.5 131t48 88.5t71.5 50t88 15.5q104 0 165 -69t61 -216zM307 274q0 42 -14.5 69.5t-41.5 27.5q-25 0 -39.5 -27t-14.5 -70q0 -39 14.5 -68.5t39.5 -29.5
q27 0 41.5 28.5t14.5 69.5zM54 594l129 138h140v-20l-151 -118h-118zM250 594l129 138h140v-20l-151 -118h-118z" />
    <glyph glyph-name="OE" unicode="&#x152;" horiz-adv-x="933" 
d="M445 0q-26 -9 -52 -13.5t-57 -4.5q-69 0 -126.5 23t-99 69.5t-64.5 115t-23 160.5q0 190 80.5 280t232.5 90q35 0 64 -5t56 -15l432 1v-169h-271q2 -22 6.5 -50t7.5 -54h213v-160h-212q-2 -24 -7 -51t-6 -47h278v-170h-452zM458 347q0 39 -7.5 72.5t-22.5 57.5t-38 37.5
t-54 13.5q-32 0 -55 -13t-38 -37t-22 -57.5t-7 -73.5q0 -38 7 -70t22 -55.5t38 -37t55 -13.5t55 13t38 36.5t22 55.5t7 71z" />
    <glyph glyph-name="oe" unicode="&#x153;" horiz-adv-x="706" 
d="M424 222q-2 -18 5.5 -31.5t18.5 -22.5t22.5 -13t18.5 -4q23 0 47.5 8.5t56.5 28.5l50 -129q-14 -17 -33 -30t-41 -22t-46 -13.5t-47 -4.5q-48 0 -76.5 12.5t-45.5 38.5q-17 -25 -43.5 -36.5t-68.5 -11.5q-109 0 -167 67.5t-58 210.5q0 75 15 127.5t44 86t70.5 49
t95.5 15.5q44 0 72.5 -13t47.5 -39q15 26 40.5 38.5t67.5 12.5q101 0 159 -81t58 -244h-263zM289 271q0 41 -12.5 68.5t-35.5 27.5q-21 0 -33 -27t-12 -69q0 -19 3 -36t9 -30.5t14 -21.5t19 -8q23 0 35.5 28.5t12.5 67.5zM504 323q0 15 -4 28.5t-10 24t-11.5 16.5t-8.5 6
q-24 0 -38 -23t-10 -52h82z" />
    <glyph glyph-name="Racute" unicode="&#x154;" horiz-adv-x="558" 
d="M344 0l-120 254l-6 17v-271h-192l-1 701h283q51 0 90.5 -15.5t67.5 -44.5t42.5 -69.5t14.5 -90.5q0 -76 -35.5 -129.5t-91.5 -78.5l135 -243v-30h-187zM322 480q0 18 -10 38t-30 20h-64v-114h62q18 1 30 19t12 37zM154 751l129 158h160v-20l-151 -138h-138z" />
    <glyph glyph-name="racute" unicode="&#x155;" horiz-adv-x="396" 
d="M369 321h-20q-8 15 -30 23t-42 8q-19 0 -37.5 -12t-33.5 -37v-303h-180v542h180v-62q7 13 18 26t24.5 23.5t30 17t34.5 6.5q3 0 10.5 -1t16.5 -3t17 -5.5t12 -8.5v-214zM72 603l129 158h160v-20l-151 -138h-138z" />
    <glyph glyph-name="Rcommaaccent" unicode="&#x156;" horiz-adv-x="558" 
d="M344 0l-120 254l-6 17v-271h-192l-1 701h283q51 0 90.5 -15.5t67.5 -44.5t42.5 -69.5t14.5 -90.5q0 -76 -35.5 -129.5t-91.5 -78.5l135 -243v-30h-187zM322 480q0 18 -10 38t-30 20h-64v-114h62q18 1 30 19t12 37zM373 -121q0 -27 -11 -56.5t-29 -56t-42 -48t-51 -32.5
l-56 77q13 11 28.5 30t20.5 33q-13 11 -19.5 30.5t-6.5 39.5q0 19 8 33t20 24t26.5 15t27.5 5q37 0 60.5 -26t23.5 -68z" />
    <glyph glyph-name="rcommaaccent" unicode="&#x157;" horiz-adv-x="396" 
d="M369 321h-20q-8 15 -30 23t-42 8q-19 0 -37.5 -12t-33.5 -37v-303h-180v542h180v-62q7 13 18 26t24.5 23.5t30 17t34.5 6.5q3 0 10.5 -1t16.5 -3t17 -5.5t12 -8.5v-214zM292 -121q0 -27 -11 -56.5t-29 -56t-42 -48t-51 -32.5l-56 77q13 11 28.5 30t20.5 33
q-13 11 -19.5 30.5t-6.5 39.5q0 19 8 33t20 24t26.5 15t27.5 5q37 0 60.5 -26t23.5 -68z" />
    <glyph glyph-name="Rcaron" unicode="&#x158;" horiz-adv-x="558" 
d="M344 0l-120 254l-6 17v-271h-192l-1 701h283q51 0 90.5 -15.5t67.5 -44.5t42.5 -69.5t14.5 -90.5q0 -76 -35.5 -129.5t-91.5 -78.5l135 -243v-30h-187zM322 480q0 18 -10 38t-30 20h-64v-114h62q18 1 30 19t12 37zM226 916l36 -53l39 53h132l-121 -168h-101l-117 168h132
z" />
    <glyph glyph-name="rcaron" unicode="&#x159;" horiz-adv-x="396" 
d="M369 321h-20q-8 15 -30 23t-42 8q-19 0 -37.5 -12t-33.5 -37v-303h-180v542h180v-62q7 13 18 26t24.5 23.5t30 17t34.5 6.5q3 0 10.5 -1t16.5 -3t17 -5.5t12 -8.5v-214zM161 761l36 -53l39 53h132l-121 -168h-101l-117 168h132z" />
    <glyph glyph-name="Sacute" unicode="&#x15a;" horiz-adv-x="570" 
d="M529 224q0 -73 -20.5 -119.5t-54.5 -73.5t-79 -37.5t-93 -10.5q-33 0 -63.5 6t-61.5 18.5t-64 33t-72 49.5l58 169q54 -50 104.5 -69t89.5 -19q29 0 53 12t24 40q0 12 -11.5 20t-28.5 12.5t-37.5 7t-38.5 4.5q-35 3 -71.5 16t-66.5 38.5t-49.5 65t-19.5 97.5
q0 73 26 118.5t64.5 71t81.5 34.5t77 9q59 0 118.5 -22t129.5 -76l-47 -159q-58 41 -111 55.5t-90 14.5q-23 0 -36.5 -4t-21 -10t-10 -13t-2.5 -13q0 -10 8.5 -15.5t21 -9t26.5 -4.5t24 -2q36 -3 78 -13.5t79 -36.5t61.5 -70.5t24.5 -114.5zM190 758l129 158h160v-20
l-151 -138h-138z" />
    <glyph glyph-name="sacute" unicode="&#x15b;" horiz-adv-x="443" 
d="M414 175q0 -59 -18 -95t-46.5 -56t-64 -27t-71.5 -7q-51 0 -96 17.5t-87 55.5l20 134q22 -18 46 -30.5t47.5 -20.5t43.5 -11.5t34 -3.5q9 0 17.5 6t8.5 20q0 11 -4.5 15.5t-20.5 4.5q-24 0 -58.5 10t-67 32t-55.5 56t-23 82q0 63 20 101.5t50 59t65 27t65 6.5
q57 0 100 -19.5t78 -56.5l-43 -129q-79 63 -140 63q-20 0 -27.5 -8t-7.5 -22q0 -6 5.5 -10.5t12.5 -7.5t13.5 -5t9.5 -2q24 0 57 -9.5t63.5 -31t52 -55.5t21.5 -83zM117 603l129 158h160v-20l-151 -138h-138z" />
    <glyph glyph-name="Scaron" unicode="&#x160;" horiz-adv-x="570" 
d="M529 224q0 -73 -20.5 -119.5t-54.5 -73.5t-79 -37.5t-93 -10.5q-33 0 -63.5 6t-61.5 18.5t-64 33t-72 49.5l58 169q54 -50 104.5 -69t89.5 -19q29 0 53 12t24 40q0 12 -11.5 20t-28.5 12.5t-37.5 7t-38.5 4.5q-35 3 -71.5 16t-66.5 38.5t-49.5 65t-19.5 97.5
q0 73 26 118.5t64.5 71t81.5 34.5t77 9q59 0 118.5 -22t129.5 -76l-47 -159q-58 41 -111 55.5t-90 14.5q-23 0 -36.5 -4t-21 -10t-10 -13t-2.5 -13q0 -10 8.5 -15.5t21 -9t26.5 -4.5t24 -2q36 -3 78 -13.5t79 -36.5t61.5 -70.5t24.5 -114.5zM247 918l36 -53l39 53h132
l-121 -168h-101l-117 168h132z" />
    <glyph glyph-name="scaron" unicode="&#x161;" horiz-adv-x="448" 
d="M414 175q0 -59 -18 -95t-46.5 -56t-64 -27t-71.5 -7q-51 0 -96 17.5t-87 55.5l20 134q22 -18 46 -30.5t47.5 -20.5t43.5 -11.5t34 -3.5q9 0 17.5 6t8.5 20q0 11 -4.5 15.5t-20.5 4.5q-24 0 -58.5 10t-67 32t-55.5 56t-23 82q0 63 20 101.5t50 59t65 27t65 6.5
q57 0 100 -19.5t78 -56.5l-43 -129q-79 63 -140 63q-20 0 -27.5 -8t-7.5 -22q0 -6 5.5 -10.5t12.5 -7.5t13.5 -5t9.5 -2q24 0 57 -9.5t63.5 -31t52 -55.5t21.5 -83zM180 760l36 -53l39 53h132l-121 -168h-101l-117 168h132z" />
    <glyph glyph-name="Tcaron" unicode="&#x164;" horiz-adv-x="603" 
d="M397 512v-513h-195l-1 513h-178v189h552v-189h-178zM344 749h-101l-115 158h130l38 -73l37 73h135z" />
    <glyph glyph-name="tcaron" unicode="&#x165;" horiz-adv-x="458" 
d="M383 70q-29 -39 -66 -58.5t-73 -19.5q-38 0 -69.5 15.5t-54 42t-35.5 62.5t-13 77v205h-65v147h65v120l189 83v-203h134v-147h-134v-173v-10.5t1.5 -15t5 -13t9.5 -5.5q1 0 9 1.5t18.5 7.5t22.5 16.5t21 28.5zM407 585l-101 1l23 176h119z" />
    <glyph glyph-name="Umacron" unicode="&#x16a;" horiz-adv-x="629" 
d="M598 357q0 -86 -17 -155t-51.5 -117t-87 -74t-124.5 -26q-73 0 -127 25.5t-90 72.5t-53 114.5t-17 150.5v353h193v-327q0 -51 7 -86t19 -56.5t29.5 -31t38.5 -9.5q38 0 63.5 45.5t25.5 140.5v324h191v-344zM132 749v109h365v-109h-365z" />
    <glyph glyph-name="umacron" unicode="&#x16b;" 
d="M287 0v54q-9 -12 -22.5 -24t-30.5 -21.5t-35.5 -15.5t-36.5 -6q-39 0 -66 15.5t-43.5 43.5t-23.5 65.5t-7 82.5v348h174v-308q0 -15 2.5 -29.5t6.5 -26t10 -18.5t13 -7q17 0 34 14.5t29 33.5v341h178v-542h-182zM69 591v109h365v-109h-365z" />
    <glyph glyph-name="Uring" unicode="&#x16e;" horiz-adv-x="629" 
d="M598 357q0 -86 -17 -155t-51.5 -117t-87 -74t-124.5 -26q-73 0 -127 25.5t-90 72.5t-53 114.5t-17 150.5v353h193v-327q0 -51 7 -86t19 -56.5t29.5 -31t38.5 -9.5q38 0 63.5 45.5t25.5 140.5v324h191v-344zM434 852q0 -48 -30 -80.5t-87 -32.5q-60 0 -91 32.5t-31 80.5
q0 49 29.5 81.5t89.5 32.5q58 0 89 -32.5t31 -81.5zM348 852q0 17 -7.5 28.5t-23.5 11.5q-15 0 -22.5 -11.5t-7.5 -28.5t7.5 -28t22.5 -11q16 0 23.5 11t7.5 28z" />
    <glyph glyph-name="uring" unicode="&#x16f;" 
d="M287 0v54q-9 -12 -22.5 -24t-30.5 -21.5t-35.5 -15.5t-36.5 -6q-39 0 -66 15.5t-43.5 43.5t-23.5 65.5t-7 82.5v348h174v-308q0 -15 2.5 -29.5t6.5 -26t10 -18.5t13 -7q17 0 34 14.5t29 33.5v341h178v-542h-182zM371 694q0 -48 -30 -80.5t-87 -32.5q-60 0 -91 32.5
t-31 80.5q0 49 29.5 81.5t89.5 32.5q58 0 89 -32.5t31 -81.5zM285 694q0 17 -7.5 28.5t-23.5 11.5q-15 0 -22.5 -11.5t-7.5 -28.5t7.5 -28t22.5 -11q16 0 23.5 11t7.5 28z" />
    <glyph glyph-name="Uhungarumlaut" unicode="&#x170;" horiz-adv-x="629" 
d="M598 357q0 -86 -17 -155t-51.5 -117t-87 -74t-124.5 -26q-73 0 -127 25.5t-90 72.5t-53 114.5t-17 150.5v353h193v-327q0 -51 7 -86t19 -56.5t29.5 -31t38.5 -9.5q38 0 63.5 45.5t25.5 140.5v324h191v-344zM120 726l129 138h140v-20l-151 -118h-118zM316 726l129 138h140
v-20l-151 -118h-118z" />
    <glyph glyph-name="uhungarumlaut" unicode="&#x171;" 
d="M287 0v54q-9 -12 -22.5 -24t-30.5 -21.5t-35.5 -15.5t-36.5 -6q-39 0 -66 15.5t-43.5 43.5t-23.5 65.5t-7 82.5v348h174v-308q0 -15 2.5 -29.5t6.5 -26t10 -18.5t13 -7q17 0 34 14.5t29 33.5v341h178v-542h-182zM52 562l129 138h140v-20l-151 -118h-118zM248 562l129 138
h140v-20l-151 -118h-118z" />
    <glyph glyph-name="Uogonek" unicode="&#x172;" horiz-adv-x="594" 
d="M454 -171q-3 -5 -10.5 -9.5t-17 -8.5t-19.5 -6.5t-18 -1.5q-18 0 -35 8t-30.5 24t-21.5 38t-8 50q0 15 4 31.5t11 31.5q-5 0 -9.5 -0.5t-9.5 -0.5q-65 0 -114 25.5t-82 72.5t-49.5 114.5t-16.5 150.5v353h157v-327q0 -51 7.5 -86t21.5 -56.5t33 -31t43 -9.5q43 0 72 45.5
t29 140.5v324h156v-344q0 -120 -31.5 -205t-93.5 -128h1q-19 -15 -29 -35.5t-10 -39.5q0 -21 10.5 -27t22.5 -6q6 0 18.5 7.5t18.5 12.5v-107z" />
    <glyph glyph-name="uogonek" unicode="&#x173;" horiz-adv-x="482" 
d="M431 -190q-3 -5 -11 -9.5t-17 -8.5t-19 -6.5t-18 -1.5q-18 0 -35 8t-30.5 24t-21.5 38t-8 50q0 25 11 53.5t27 42.5h-26v51q-17 -23 -47.5 -43t-63.5 -20q-36 0 -63 14.5t-45.5 41t-27.5 62.5t-9 79v356h145v-318q0 -28 10.5 -52.5t27.5 -24.5q15 0 36.5 14t36.5 31v350
h148v-541h-37q-17 -15 -25 -34t-8 -36q0 -21 10.5 -27t22.5 -6q5 0 17.5 7.5t19.5 12.5v-107z" />
    <glyph glyph-name="Ydieresis" unicode="&#x178;" horiz-adv-x="586" 
d="M388 266v-266h-195v271l-178 400v30h199l94 -232l82 232h181v-30zM268 839q0 -20 -7 -37t-19 -29t-27 -19t-31 -7q-32 0 -57 25.5t-25 66.5q0 19 6.5 35.5t17.5 28.5t26 19t32 7q16 0 31 -7t27 -19t19 -28.5t7 -35.5zM483 839q0 -20 -7 -37t-19 -29t-27 -19t-31 -7
q-32 0 -57 25.5t-25 66.5q0 19 6.5 35.5t17.5 28.5t26 19t32 7q16 0 31 -7t27 -19t19 -28.5t7 -35.5z" />
    <glyph glyph-name="Zacute" unicode="&#x179;" horiz-adv-x="579" 
d="M292 184h227v-184h-497l1 110l240 407h-233v184h500v-108zM145 760l129 158h160v-20l-151 -138h-138z" />
    <glyph glyph-name="zacute" unicode="&#x17a;" horiz-adv-x="491" 
d="M24 0v67l171 299h-171v176h429v-70l-163 -294h163v-178h-429zM101 602l129 158h160v-20l-151 -138h-138z" />
    <glyph glyph-name="Zdotaccent" unicode="&#x17b;" horiz-adv-x="562" 
d="M292 184h227v-184h-497l1 110l240 407h-233v184h500v-108zM357 837q0 -20 -7 -37t-19 -29t-27 -19t-31 -7q-32 0 -57 25.5t-25 66.5q0 19 6.5 35.5t17.5 28.5t26 19t32 7q16 0 31 -7t27 -19t19 -28.5t7 -35.5z" />
    <glyph glyph-name="zdotaccent" unicode="&#x17c;" horiz-adv-x="491" 
d="M24 0v67l171 299h-171v176h429v-70l-163 -294h163v-178h-429zM328 682q0 -20 -7 -37t-19 -29t-27 -19t-31 -7q-32 0 -57 25.5t-25 66.5q0 19 6.5 35.5t17.5 28.5t26 19t32 7q16 0 31 -7t27 -19t19 -28.5t7 -35.5z" />
    <glyph glyph-name="Zcaron" unicode="&#x17d;" horiz-adv-x="579" 
d="M292 184h227v-184h-497l1 110l240 407h-233v184h500v-108zM252 918l36 -53l39 53h132l-121 -168h-101l-117 168h132z" />
    <glyph glyph-name="zcaron" unicode="&#x17e;" horiz-adv-x="491" 
d="M24 0v67l171 299h-171v176h429v-70l-163 -294h163v-178h-429zM208 760l36 -53l39 53h132l-121 -168h-101l-117 168h132z" />
    <glyph glyph-name="florin" unicode="&#x192;" horiz-adv-x="344" 
d="M315 595q-10 11 -25 15t-28 2q-4 -1 -10.5 -4t-12 -9.5t-9.5 -17t-3 -25.5v-14h87v-154h-86v-419q0 -43 -8.5 -83.5t-27.5 -72t-49 -51t-73 -19.5q-10 0 -24 3t-29 8t-27.5 10.5t-19.5 10.5l20 178q2 -5 18 -10t28 -5q8 0 13 11.5t5 36.5v402h-54v154h54v28q0 36 10.5 73
t31.5 67t52 49t73 19q9 0 22.5 -1.5t28 -5t28.5 -9t24 -12.5z" />
    <glyph glyph-name="circumflex" unicode="&#x2c6;" horiz-adv-x="446" 
d="M267 592l-36 63l-39 -63h-132l121 168h101l117 -168h-132z" />
    <glyph glyph-name="caron" unicode="&#x2c7;" horiz-adv-x="495" 
d="M205 760l36 -53l39 53h132l-121 -168h-101l-117 168h132z" />
    <glyph glyph-name="breve" unicode="&#x2d8;" horiz-adv-x="460" 
d="M361 700q1 -28 -7 -56.5t-24.5 -52t-42 -38t-59.5 -14.5q-36 0 -61.5 14t-42.5 36.5t-24.5 51.5t-7.5 59h94q3 -29 16 -43t26 -14q14 0 24 12.5t12 44.5h97z" />
    <glyph glyph-name="dotaccent" unicode="&#x2d9;" horiz-adv-x="271" 
d="M213 682q0 -20 -7 -37t-19 -29t-27 -19t-31 -7q-32 0 -57 25.5t-25 66.5q0 19 6.5 35.5t17.5 28.5t26 19t32 7q16 0 31 -7t27 -19t19 -28.5t7 -35.5z" />
    <glyph glyph-name="ring" unicode="&#x2da;" horiz-adv-x="437" 
d="M345 694q0 -48 -30 -80.5t-87 -32.5q-60 0 -91 32.5t-31 80.5q0 49 29.5 81.5t89.5 32.5q58 0 89 -32.5t31 -81.5zM259 694q0 17 -7.5 28.5t-23.5 11.5q-15 0 -22.5 -11.5t-7.5 -28.5t7.5 -28t22.5 -11q16 0 23.5 11t7.5 28z" />
    <glyph glyph-name="ogonek" unicode="&#x2db;" horiz-adv-x="400" 
d="M272 4q-7 -6 -17 -14.5t-19 -19.5t-15 -23t-6 -25q0 -15 10 -20.5t23.5 -5.5t26.5 4t20 7v-106q-11 -8 -30.5 -15.5t-39.5 -7.5q-23 -1 -42.5 8t-33.5 25t-22.5 38.5t-8.5 49.5t17 58t46 47h91z" />
    <glyph glyph-name="tilde" unicode="&#x2dc;" horiz-adv-x="520" 
d="M420 760q-2 -34 -11 -63t-25.5 -50t-39 -33t-50.5 -12q-25 0 -40.5 7t-28 16t-23.5 16t-27 7q-14 0 -21 -13t-11 -30h-92q0 21 4.5 47.5t16.5 50.5t34.5 40.5t58.5 16.5q24 0 40.5 -7t29.5 -15.5t25 -15.5t28 -7q4 0 10.5 3t13.5 9t12.5 14t7.5 19h88z" />
    <glyph glyph-name="hungarumlaut" unicode="&#x2dd;" horiz-adv-x="551" 
d="M54 562l129 138h140v-20l-151 -118h-118zM250 562l129 138h140v-20l-151 -118h-118z" />
    <glyph glyph-name="pi" unicode="&#x3c0;" horiz-adv-x="664" 
d="M646 395h-88v-395h-201v395h-54v-395h-190v395h-86v147h619v-147z" />
    <glyph glyph-name="afii10023" unicode="&#x401;" horiz-adv-x="533" 
d="M39 0l2 701h446v-179h-251q0 -23 -0.5 -45t-0.5 -46h224v-172h-223v-79h262v-180h-459zM421 817q0 -31 -20 -54t-52 -23q-28 0 -46.5 23t-18.5 54q0 32 17.5 55t47.5 23q32 0 52 -23t20 -55zM222 817q0 -31 -18.5 -54t-48.5 -23t-49.5 23t-19.5 54q0 32 19.5 55t49.5 23
t48.5 -23t18.5 -55z" />
    <glyph glyph-name="afii10051" unicode="&#x402;" horiz-adv-x="668" 
d="M357 534v-75q6 6 16 10t20.5 7t19.5 4.5t15 1.5q96 0 143.5 -51.5t46.5 -169.5q0 -68 0.5 -135t0.5 -133q0 -44 -13 -81t-37 -63.5t-58 -41.5t-77 -15q-10 0 -19 1.5t-21 4.5t-30 8.5t-45 13.5l23 138q4 -3 10 -5t11.5 -3.5t8.5 -2.5t2 -1q32 -6 46 6.5t14 38.5v203
q0 47 -5.5 77t-22.5 30q-7 0 -23 -7.5t-26 -22.5v-271h-196v534h-145v167h530v-167h-189z" />
    <glyph glyph-name="afii10052" unicode="&#x403;" horiz-adv-x="507" 
d="M496 699v-182h-250v-516h-198v698h448zM278 742h-92l142 198h198l-29 -21z" />
    <glyph glyph-name="afii10053" unicode="&#x404;" horiz-adv-x="608" 
d="M612 108q-31 -23 -64 -44.5t-68 -38t-71 -26.5t-72 -10q-152 0 -234 92.5t-82 269.5q0 82 23.5 148.5t65.5 114t99 73t124 25.5t133 -29.5t132 -78.5l-83 -153q-48 38 -97.5 56.5t-81.5 18.5q-12 0 -28.5 -4t-32.5 -14t-28 -26t-15 -40h234v-181h-238q7 -23 20 -39.5
t29 -27t32 -16t28 -5.5q16 0 40 7.5t51 19.5t53.5 28t47.5 33z" />
    <glyph glyph-name="afii10054" unicode="&#x405;" horiz-adv-x="630" 
d="M598 224q0 -73 -23 -119.5t-62 -73.5t-90 -37.5t-107 -10.5q-38 0 -73 6t-70.5 18.5t-73.5 33t-82 49.5l69 172q60 -50 118 -70.5t103 -20.5q32 0 57.5 12t25.5 40q0 12 -12.5 20t-32 12.5t-42.5 7t-44 4.5q-40 3 -81.5 13.5t-75.5 34.5t-56 64.5t-22 104.5
q0 73 30 118.5t73.5 71t93 34.5t88.5 9q66 0 134 -25t149 -79l-55 -153q-65 41 -126 55.5t-102 14.5q-25 0 -40 -4t-23.5 -10t-11.5 -13t-3 -13q0 -10 9.5 -16t23.5 -9.5t29 -4.5t27 -1q41 -5 89.5 -14t90.5 -33t70 -68.5t28 -119.5z" />
    <glyph glyph-name="afii10055" unicode="&#x406;" horiz-adv-x="256" 
d="M26 0v701h203v-701h-203z" />
    <glyph glyph-name="afii10056" unicode="&#x407;" horiz-adv-x="263" 
d="M26 0v701h203v-701h-203zM300 841q0 -32 -21 -54.5t-53 -22.5q-29 0 -48.5 22.5t-19.5 54.5t18 54.5t50 22.5t53 -22.5t21 -54.5zM94 841q0 -32 -19 -54.5t-51 -22.5q-31 0 -51.5 22.5t-20.5 54.5t20.5 54.5t51.5 22.5q32 0 51 -22.5t19 -54.5z" />
    <glyph glyph-name="afii10057" unicode="&#x408;" horiz-adv-x="320" 
d="M277 79q0 -62 -19.5 -115t-53 -90.5t-78 -57t-95.5 -16.5q-26 2 -51.5 14t-54.5 34l31 149q23 -10 28 -12.5t10 -8.5q28 -5 45.5 5.5t27.5 31.5t13 50.5t3 61.5v576h194v-622v0z" />
    <glyph glyph-name="afii10058" unicode="&#x409;" horiz-adv-x="913" 
d="M382 0v515h-38q-5 -43 -11 -98t-16 -112.5t-25.5 -112.5t-40 -98t-59.5 -69.5t-83 -26.5h-13t-15.5 1.5t-23.5 4.5t-36 8q0 46 0.5 92t0.5 92q6 -8 30 -11t51 -3q12 0 22 20t17.5 53t13.5 75t10.5 85.5t7.5 85t5 73.5l8 125h393v-261h93q41 0 80.5 -11.5t70.5 -37t50 -67
t19 -101.5q0 -66 -19 -108.5t-49.5 -67.5t-70.5 -35t-82 -10h-290zM697 222q0 28 -18 35t-42 7h-57v-84h60q25 0 41 6.5t16 35.5z" />
    <glyph glyph-name="afii10059" unicode="&#x40a;" horiz-adv-x="844" 
d="M316 0v276h-95v-276h-197v700h197v-239h95v240l200 -1v-242h92q40 0 79.5 -13t70 -41t49.5 -71t19 -103q0 -65 -19 -109t-49.5 -71t-70.5 -38.5t-82 -11.5h-289zM630 231q0 29 -6.5 40t-20.5 11h-87v-100h95q11 0 15 10t4 39z" />
    <glyph glyph-name="afii10060" unicode="&#x40b;" horiz-adv-x="648" 
d="M410 0v257q0 23 -7 38.5t-15 15.5q-3 0 -9.5 -3.5t-14.5 -9t-16 -13t-13 -14.5v-271h-195v529h-140v171h528v-171h-193v-58q14 8 29 13t27 5q49 0 87.5 -12t65 -38t40.5 -67.5t14 -100.5v-271h-188z" />
    <glyph glyph-name="afii10061" unicode="&#x40c;" horiz-adv-x="639" 
d="M371 751h-93l140 198h200l-28 -21zM596 24v-24h-221l-120 262h-22v-262h-193v701h193v-259h14l127 259h221v-26l-181 -312z" />
    <glyph glyph-name="afii10062" unicode="&#x40e;" horiz-adv-x="615" 
d="M481 937q0 -39 -13 -76t-35.5 -65t-53 -45t-66.5 -17q-39 0 -71.5 17.5t-56 46.5t-36 65t-12.5 74h107q1 -18 6.5 -35.5t14 -31.5t21 -22.5t27.5 -8.5q14 0 26 8.5t20 22.5t13 31.5t5 35.5h104zM380 110q-9 -23 -27.5 -43t-41.5 -35t-48.5 -23.5t-48.5 -8.5h-119v176h118
q3 -1 6.5 1t5.5 5.5t2 6.5t-3 5q-65 146 -116.5 268t-83.5 210v28h174l116 -322l115 322h164l1 -24z" />
    <glyph glyph-name="afii10145" unicode="&#x40f;" horiz-adv-x="680" 
d="M246 701v-517h170v517h198v-701h-185v-222h-197v222h-184v701h198z" />
    <glyph glyph-name="afii10017" unicode="&#x410;" horiz-adv-x="667" 
d="M254 704h142l252 -678v-25h-204l-25 88h-195l-23 -88h-189v23zM267 247h108l-55 195z" />
    <glyph glyph-name="afii10018" unicode="&#x411;" horiz-adv-x="547" 
d="M517 222q0 -65 -21.5 -108t-55.5 -68.5t-76 -35.5t-82 -10h-247v700h432v-174h-241v-89h59q40 0 81 -11t74.5 -36.5t55 -66.5t21.5 -101zM325 217q0 20 -9.5 39t-26.5 19h-63v-111h56q20 0 31.5 18t11.5 35z" />
    <glyph glyph-name="afii10019" unicode="&#x412;" horiz-adv-x="529" 
d="M498 209q0 -49 -17.5 -88t-46 -66t-65.5 -41t-76 -14h-258v701h249q47 0 85.5 -16t65.5 -44t41.5 -66.5t14.5 -82.5q0 -22 -7 -43t-18.5 -38.5t-26.5 -30.5t-30 -20q16 -6 32 -22.5t28.5 -38t20.5 -45.5t8 -45zM318 478q0 20 -11 38t-28 18h-74v-111h68q19 0 32 18.5
t13 36.5zM314 218q0 20 -9.5 39t-26.5 19h-73v-111h66q20 0 31.5 18t11.5 35z" />
    <glyph glyph-name="afii10020" unicode="&#x413;" horiz-adv-x="571" 
d="M546 700v-183h-300v-516h-198v699h498z" />
    <glyph glyph-name="afii10021" unicode="&#x414;" horiz-adv-x="704" 
d="M104 184q15 42 29.5 97t26 121t19 141t9.5 157h420v-516h66l-3 -366h-198v182h-243v-182h-198v366h72zM352 515q-3 -44 -10 -93t-15.5 -94.5t-18 -83.5t-16.5 -60h117v331h-57z" />
    <glyph glyph-name="afii10022" unicode="&#x415;" horiz-adv-x="560" 
d="M33 0l1 701h479v-169h-270v-42t-0.5 -27t-0.5 -18.5v-16.5h226v-160h-225v-98h277v-170h-487z" />
    <glyph glyph-name="afii10024" unicode="&#x416;" horiz-adv-x="994" 
d="M950 24v-24h-221l-120 262h-22v-262h-193v262h-18l-124 -262h-217v24l179 339l-180 312v26h221l127 -259h12v259h193v-259h14l127 259h221v-26l-181 -312z" />
    <glyph glyph-name="afii10025" unicode="&#x417;" horiz-adv-x="533" 
d="M400 358q33 -12 53 -27t31 -32.5t15 -37.5t4 -41q0 -57 -18.5 -100.5t-50 -72.5t-74.5 -43.5t-91 -14.5q-44 0 -78.5 8t-66 23t-62 35t-66.5 44l63 157q52 -40 98 -60.5t66 -26.5q24 -3 40 1t26.5 11.5t15 17.5t4.5 18q0 6 -2 14.5t-6.5 17t-13.5 14.5t-22 6h-80v161h80
q12 0 20.5 6.5t13 15t6.5 16.5t2 12q0 6 -2.5 14t-8 15.5t-13 13t-17.5 5.5q-13 0 -29.5 -2t-37.5 -9t-48 -19.5t-61 -34.5l-74 160q21 19 49.5 35t61 28t68.5 18.5t72 6.5q47 0 87 -13.5t69.5 -39t46 -62.5t16.5 -84q0 -58 -26 -94.5t-60 -59.5z" />
    <glyph glyph-name="afii10026" unicode="&#x418;" horiz-adv-x="609" 
d="M42 -1v701h201v-300q48 80 91.5 153.5t84.5 148.5h149v-702h-199v310q-50 -84 -97 -158.5t-90 -152.5h-140z" />
    <glyph glyph-name="afii10027" unicode="&#x419;" horiz-adv-x="621" 
d="M42 -1v701h198v-300q48 80 98 153.5t91 148.5h149v-702h-199v310q-50 -84 -102 -158.5t-95 -152.5h-140zM521 914q0 -39 -14 -75.5t-38 -64.5t-57.5 -45t-72.5 -17q-42 0 -77 17.5t-60 46t-39 64.5t-14 74h142q4 -27 15.5 -51.5t32.5 -24.5q17 0 29 23.5t14 52.5h139z
" />
    <glyph glyph-name="afii10028" unicode="&#x41a;" horiz-adv-x="622" 
d="M596 24v-24h-221l-120 262h-22v-262h-193v701h193v-259h14l127 259h221v-26l-181 -312z" />
    <glyph glyph-name="afii10029" unicode="&#x41b;" horiz-adv-x="667" 
d="M423 0v522h-66q-4 -40 -11.5 -95t-20.5 -114t-32.5 -116.5t-47.5 -102.5t-65.5 -73t-86.5 -28q-8 0 -11 0.5t-8.5 2t-16 4t-32.5 7.5v189q24 -8 39.5 -11t31.5 -3q13 0 26 22.5t25 60.5t22 89t18 108.5t13.5 118.5t8.5 119h415v-700h-201z" />
    <glyph glyph-name="afii10030" unicode="&#x41c;" horiz-adv-x="774" 
d="M559 0l-21 271q-32 -70 -65.5 -135t-62.5 -136h-78l-106 259q-5 -70 -9.5 -129.5t-10.5 -129.5h-178l42 701l163 1l158 -369q25 50 47 95t43.5 89.5t43.5 89.5t47 95l122 -1l43 -701h-178z" />
    <glyph glyph-name="afii10031" unicode="&#x41d;" horiz-adv-x="605" 
d="M358 0v241h-125v-241h-194v701h195v-260h124v260h196v-701h-196z" />
    <glyph glyph-name="afii10032" unicode="&#x41e;" horiz-adv-x="669" 
d="M640 347q0 -92 -21.5 -160t-61 -114t-96.5 -68.5t-128 -22.5q-69 0 -125 23t-96 69.5t-62 115t-22 160.5q0 190 76.5 280t228.5 90q153 0 230 -95t77 -278zM454 347q0 39 -7 74t-22 61t-38 41t-54 15t-53.5 -15t-37 -40.5t-21.5 -60.5t-7 -75q0 -38 7 -70t21.5 -55.5
t37 -37t53.5 -13.5q32 0 55 13t37.5 36.5t21.5 55.5t7 71z" />
    <glyph glyph-name="afii10033" unicode="&#x41f;" horiz-adv-x="600" 
d="M355 0v517h-109v-517h-199v701h505v-701h-197z" />
    <glyph glyph-name="afii10034" unicode="&#x420;" horiz-adv-x="532" 
d="M500 443q0 -61 -16.5 -109t-45 -81t-67.5 -50.5t-85 -17.5h-54v-185h-194v701h250q101 0 156.5 -66.5t55.5 -191.5zM326 441q0 70 -46 70h-48v-145h42q23 0 37.5 21.5t14.5 53.5z" />
    <glyph glyph-name="afii10035" unicode="&#x421;" horiz-adv-x="572" 
d="M540 72q-17 -18 -43.5 -34t-56.5 -28t-60.5 -19t-55.5 -7q-68 0 -125.5 23.5t-98.5 69.5t-64 115t-23 161q0 85 19.5 153t58.5 115.5t96.5 73t133.5 25.5q30 0 61 -5t59 -14t52.5 -21.5t42.5 -26.5l-80 -170q-12 12 -28.5 21t-34.5 15.5t-36 9.5t-32 3q-22 0 -42 -10.5
t-35 -32t-24 -53.5t-9 -75q0 -42 9 -74.5t24 -54t35 -32.5t41 -11q35 0 69 10.5t66 33.5z" />
    <glyph glyph-name="afii10036" unicode="&#x422;" horiz-adv-x="592" 
d="M396 512v-513h-195l-1 513h-178v189h552v-189h-178z" />
    <glyph glyph-name="afii10037" unicode="&#x423;" horiz-adv-x="598" 
d="M370 110q-9 -23 -27.5 -43t-41.5 -35t-48.5 -23.5t-48.5 -8.5h-119v176h118q3 -1 6.5 1t5.5 5.5t2 6.5t-3 5q-65 146 -116.5 268t-83.5 210l-1 28h175l116 -322l115 322h164l1 -24z" />
    <glyph glyph-name="afii10038" unicode="&#x424;" horiz-adv-x="738" 
d="M268 -5v92q-53 4 -98 24.5t-78 55.5t-51.5 83t-18.5 107q0 58 20.5 105.5t54.5 82t78.5 56t92.5 26.5v98h189v-96q51 -2 97 -22.5t80 -56t54 -84.5t20 -109q0 -62 -19.5 -111.5t-53.5 -84t-80 -54t-98 -22.5v-90h-189zM526 357q0 22 -5.5 42.5t-15 36.5t-22 25t-26.5 9
v-228q15 0 28 10t22 26t14 36.5t5 42.5zM200 358q0 -24 7.5 -45t18.5 -36t22.5 -23.5t19.5 -8.5v221q-14 1 -26 -7t-21.5 -23t-15 -35t-5.5 -43z" />
    <glyph glyph-name="afii10039" unicode="&#x425;" horiz-adv-x="626" 
d="M396 0l-91 194q-25 -50 -50 -98t-48 -96h-186v35l178 309q-45 80 -90 160.5t-89 160.5v36h197l96 -193q21 48 42.5 96t42.5 97h187v-35l-172 -308q44 -78 91.5 -160t90.5 -162q-1 -7 0 -18t-1 -18h-198z" />
    <glyph glyph-name="afii10040" unicode="&#x426;" horiz-adv-x="686" 
d="M239 700v-516h108v516h201v-516h123l-1 -366h-193v182h-436v700h198z" />
    <glyph glyph-name="afii10041" unicode="&#x427;" horiz-adv-x="591" 
d="M232 700v-260q0 -55 14 -76t34 -21q14 0 28 6t29 16v335h199v-700h-199v194q-14 -8 -30.5 -13.5t-40.5 -5.5q-31 0 -71.5 11t-77 40t-62 78.5t-25.5 126.5v269h202z" />
    <glyph glyph-name="afii10042" unicode="&#x428;" horiz-adv-x="860" 
d="M237 700v-516h90v516h194v-516h90v516h198v-700h-769v700h197z" />
    <glyph glyph-name="afii10043" unicode="&#x429;" horiz-adv-x="952" 
d="M36 700h197v-516h84v516h195v-516h85v516h197v-516h135l2 -366h-194v182h-701v700z" />
    <glyph glyph-name="afii10044" unicode="&#x42a;" horiz-adv-x="693" 
d="M664 221q0 -66 -18 -108.5t-48 -67.5t-68.5 -35t-79.5 -10h-279v519h-151v181h348v-262h83q40 0 78.5 -11.5t68.5 -37t48 -67t18 -101.5zM469 222q0 14 -5 24t-12 16t-15.5 9t-15.5 3h-53v-104h56q5 0 13 2.5t15 8.5t12 16t5 25z" />
    <glyph glyph-name="afii10045" unicode="&#x42b;" horiz-adv-x="803" 
d="M556 0v700h195v-700h-195zM513 222q0 -66 -18 -109t-47 -68t-67 -35t-78 -10h-258v700h201v-259h58q40 0 77.5 -12t66.5 -38t47 -67.5t18 -101.5zM320 223q0 14 -5.5 24t-13 16.5t-16 9.5t-14.5 3h-25v-104h30q5 0 12.5 2.5t14.5 8.5t12 15.5t5 24.5z" />
    <glyph glyph-name="afii10046" unicode="&#x42c;" horiz-adv-x="538" 
d="M519 223q0 -66 -19 -109t-50 -68.5t-70.5 -35.5t-81.5 -10h-262v699h197v-258h68q40 0 79 -11.5t70 -37.5t50 -67.5t19 -101.5zM323 224q0 14 -4.5 22.5t-11.5 13t-15.5 6t-15.5 1.5h-43v-87h50q6 0 13 1.5t13 6t10 13t4 23.5z" />
    <glyph glyph-name="afii10047" unicode="&#x42d;" horiz-adv-x="608" 
d="M104 258q21 -17 43 -32.5t43.5 -27t41 -18.5t36.5 -7q11 0 27.5 6.5t32 18.5t27 28t13.5 35h-230v181h228q-3 24 -14.5 40t-26 26t-30 14t-27.5 4q-31 0 -74 -23t-91 -61l-94 162q67 62 131 85t130 23q71 0 129 -25.5t99.5 -73t64 -114t22.5 -148.5q0 -177 -80.5 -269.5
t-235.5 -92.5q-75 0 -146 32.5t-123 86.5z" />
    <glyph glyph-name="afii10048" unicode="&#x42e;" horiz-adv-x="905" 
d="M35 0v700h196v-270h56q12 68 39.5 120t65.5 87.5t84.5 53.5t96.5 18q63 0 116.5 -23.5t92 -69.5t60.5 -114.5t22 -157.5q0 -83 -22.5 -148.5t-61.5 -110.5t-92.5 -69t-114.5 -24q-50 0 -95.5 17.5t-82.5 50t-64.5 80t-40.5 107.5h-59v-247h-196zM664 344
q0 88 -26.5 134.5t-64.5 46.5q-40 0 -66.5 -46.5t-26.5 -134.5q0 -80 25.5 -124t67.5 -44t66.5 45t24.5 123z" />
    <glyph glyph-name="afii10049" unicode="&#x42f;" horiz-adv-x="579" 
d="M13 0v43l121 228q-9 8 -22.5 23t-25.5 39.5t-21 61t-9 87.5q0 48 17 88.5t49 69t77.5 44.5t103.5 16h236v-700h-194v223h-25l-99 -223h-208zM251 462q0 -27 11 -45t30 -18h53v120h-54q-18 0 -29 -14t-11 -43z" />
    <glyph glyph-name="afii10065" unicode="&#x430;" 
d="M475 0q-12 -2 -24 -3q-11 -2 -23 -2.5t-22 -0.5q-11 0 -24.5 2t-26.5 7t-24 14.5t-16 24.5q-11 -26 -35.5 -42t-63.5 -16q-35 0 -70.5 9.5t-64.5 32.5t-47.5 61t-18.5 95q0 41 11 71.5t29 52t40.5 34.5t45 20.5t42.5 10t34 2.5q8 0 18 -3t19 -7.5t15.5 -8.5t9.5 -6
q3 22 -4.5 37t-19 24.5t-24 13.5t-19.5 4q-20 0 -58.5 -9t-86.5 -41l-20 112q13 11 35 24t47 23.5t50 17.5t45 7q38 0 74.5 -8t68.5 -36q35 -32 53.5 -76.5t18.5 -86.5v-173q0 -17 8.5 -21.5t27.5 -2.5v-157zM285 220q-3 5 -9.5 9t-14 6.5t-14.5 3.5t-11 1q-19 0 -27 -18
t-8 -37q0 -21 7 -36.5t22 -15.5q12 0 28 7.5t27 18.5v61z" />
    <glyph glyph-name="afii10066" unicode="&#x431;" horiz-adv-x="519" 
d="M288 555q43 0 79.5 -19.5t62.5 -54.5t41 -84.5t15 -110.5q0 -72 -17 -127.5t-47 -94t-71.5 -58t-90.5 -19.5q-123 0 -183.5 88.5t-60.5 256.5q0 38 1.5 84t8.5 94t22.5 95t43 86.5t70 69t104.5 42.5q48 12 96.5 23t98.5 22v-179l-201 -46q-21 -6 -36.5 -13.5t-28 -22
t-23.5 -38.5t-21 -61q21 29 56.5 48t80.5 19zM254 188q28 0 46 25.5t18 73.5q0 19 -5 36.5t-13 30.5t-20 21t-25 8q-30 0 -51 -26.5t-21 -70.5q0 -48 18.5 -73t52.5 -25z" />
    <glyph glyph-name="afii10067" unicode="&#x432;" horiz-adv-x="475" 
d="M440 166q0 -41 -15 -72t-40 -52t-58.5 -31.5t-70.5 -10.5h-228v542h217q39 0 73 -8.5t59 -27.5t39.5 -50.5t14.5 -77.5q0 -12 -5 -26.5t-12.5 -27.5t-16.5 -23.5t-18 -15.5q9 -6 20 -19.5t20 -30.5t15 -35t6 -34zM272 181q0 35 -38 35h-32v-73h34q18 0 27 12t9 26z
M269 360q0 12 -7.5 23.5t-18.5 11.5h-41v-67l42 1q9 0 17 10t8 21z" />
    <glyph glyph-name="afii10068" unicode="&#x433;" horiz-adv-x="406" 
d="M385 544v-186h-184v-357h-169v543h353z" />
    <glyph glyph-name="afii10069" unicode="&#x434;" horiz-adv-x="572" 
d="M83 173q60 113 75 369h336v-369h67v-329h-168v156h-203v-156h-171v329h64zM301 388q-4 -26 -9 -57t-10.5 -60.5t-12 -55.5t-13.5 -42h70v215h-25z" />
    <glyph glyph-name="afii10070" unicode="&#x435;" horiz-adv-x="470" 
d="M196 225q-1 -19 6 -33t17.5 -23t21.5 -13.5t17 -4.5q21 0 48.5 9.5t59.5 29.5l49 -133q-30 -36 -77 -54.5t-90 -18.5q-111 0 -172 70.5t-61 220.5q0 74 17 128t46.5 89t70.5 52t89 17q49 0 87 -19t64.5 -59.5t40.5 -104t14 -153.5h-248zM280 330q-1 30 -10.5 53.5
t-31.5 23.5q-21 0 -35 -23.5t-10 -53.5h87z" />
    <glyph glyph-name="afii10072" unicode="&#x436;" horiz-adv-x="724" 
d="M708 17l1 -17h-194l-62 185h-11v-185h-161v185h-12l-63 -185h-191v17l120 262l-117 252q0 3 0.5 6t0.5 5h197l50 -173h15v173h161v-173h12l52 173h197l-1 -11l-114 -251z" />
    <glyph glyph-name="afii10073" unicode="&#x437;" horiz-adv-x="464" 
d="M445 188q0 -55 -18 -92.5t-47 -60t-66.5 -32.5t-76.5 -10q-45 0 -100 20.5t-120 67.5l55 141q12 -13 23.5 -25.5t25 -23t31.5 -17t44 -6.5q25 0 40 5t23.5 12t11.5 14.5t3 11.5q0 7 1.5 10.5t2 5t-1.5 2t-10 1.5h-67v122h46q10 -1 15 2t7 8t1.5 11t-1.5 11
q-2 11 -11.5 21.5t-35.5 10.5q-20 0 -56 -12.5t-76 -50.5l-63 127q29 38 81.5 63.5t130.5 25.5q40 0 75 -10t60.5 -29t40 -46.5t14.5 -61.5q0 -19 -2 -37.5t-6.5 -34t-11.5 -27t-17 -15.5q32 -12 43.5 -41t11.5 -61z" />
    <glyph glyph-name="afii10074" unicode="&#x438;" horiz-adv-x="553" 
d="M337 0v276l-117 -276h-192v544h174v-280l116 280h192v-544h-173z" />
    <glyph glyph-name="afii10075" unicode="&#x439;" horiz-adv-x="564" 
d="M334 0v276l-114 -276h-192v544h178v-280l112 280h192v-544h-176zM448 827q0 -44 -13.5 -84.5t-37 -71t-56 -49t-69.5 -18.5q-40 0 -73 19t-57 50.5t-37.5 71.5t-13.5 82h136q1 -15 4.5 -30t8.5 -27t13 -19.5t18 -7.5q17 0 28.5 26t13.5 58h135z" />
    <glyph glyph-name="afii10076" unicode="&#x43a;" horiz-adv-x="514" 
d="M487 527l-150 -256l155 -254q0 -5 -0.5 -8.5t-0.5 -8.5h-163l-132 182v-182h-160v542h160v-178l124 178h167v-15z" />
    <glyph glyph-name="afii10077" unicode="&#x43b;" horiz-adv-x="546" 
d="M25 197q3 -4 8.5 -9t29.5 -5q4 0 8 3t9 15t10.5 35t12 63t14 99.5t15.5 143.5h370v-542h-174v361h-55q-12 -98 -26.5 -163t-30.5 -105.5t-32.5 -60.5t-33 -27.5t-31.5 -7t-28 0.5h-5.5t-8.5 1.5t-18 3.5t-34 7v187z" />
    <glyph glyph-name="afii10078" unicode="&#x43c;" horiz-adv-x="656" 
d="M445 0l-18 184l-63 -182h-95l-64 186l-19 -188h-167l67 544h132l102 -258l100 258h129l65 -544h-169z" />
    <glyph glyph-name="afii10079" unicode="&#x43d;" horiz-adv-x="520" 
d="M301 0v185h-99v-185h-175v542h175v-175h99v175h174v-542h-174z" />
    <glyph glyph-name="afii10080" unicode="&#x43e;" horiz-adv-x="521" 
d="M496 268q0 -78 -19.5 -132t-52 -87.5t-74.5 -48.5t-87 -15q-43 0 -85.5 16t-76.5 50.5t-55 88t-21 128.5q0 81 21 136t55 88.5t76.5 48.5t85.5 15q42 0 84 -16.5t75 -51.5t53.5 -89.5t20.5 -130.5zM329 270q0 38 -18 66t-48 28q-34 0 -51.5 -27t-17.5 -67q0 -35 17.5 -61
t51.5 -26q30 0 48 25.5t18 61.5z" />
    <glyph glyph-name="afii10081" unicode="&#x43f;" horiz-adv-x="510" 
d="M303 0v360h-100v-360h-175v542h447v-542h-172z" />
    <glyph glyph-name="afii10082" unicode="&#x440;" horiz-adv-x="544" 
d="M516 292q0 -71 -12.5 -127t-36.5 -96t-59.5 -61t-82.5 -21q-20 0 -39 6t-35 16t-27 21t-15 22v-295h-188v785h188v-34q9 10 24.5 18.5t33.5 14t37 8.5t36 3q34 0 66 -16.5t56.5 -49.5t39 -81.5t14.5 -112.5zM316 274q0 42 -9.5 71.5t-29.5 29.5q-6 0 -15.5 -2.5t-19.5 -7
t-18.5 -11t-14.5 -14.5v-138q13 -13 33.5 -22t28.5 -9q9 0 17.5 8.5t14.5 22.5t9.5 32.5t3.5 39.5z" />
    <glyph glyph-name="afii10083" unicode="&#x441;" horiz-adv-x="485" 
d="M413 321q-18 13 -31 24.5t-25 19t-24.5 12t-30.5 4.5q-32 0 -50 -9.5t-28 -25t-12.5 -35.5t-2.5 -40q0 -39 22.5 -69.5t67.5 -30.5q15 0 27 4t25 12.5t29.5 20.5t40.5 28l49 -153q-40 -40 -94 -68t-113 -28q-122 0 -182.5 69.5t-60.5 213.5q0 73 19 126.5t52.5 89
t79.5 52.5t100 17q104 0 171 -76z" />
    <glyph glyph-name="afii10084" unicode="&#x442;" horiz-adv-x="494" 
d="M330 369v-369h-171v369h-139v173h445v-173h-135z" />
    <glyph glyph-name="afii10085" unicode="&#x443;" horiz-adv-x="533" 
d="M309 -117q-22 -63 -56.5 -87.5t-85.5 -24.5q-24 0 -61.5 3.5t-68.5 12.5v180q11 -2 26 -4.5t29 -4t26 -2t18 -0.5q13 1 26.5 16t18.5 35l14 52q-42 111 -92 229t-93 229v25h170l95 -256l73 256h173l1 -23z" />
    <glyph glyph-name="afii10086" unicode="&#x444;" horiz-adv-x="800" 
d="M784 274q0 -76 -16 -130.5t-44.5 -89t-68 -51t-86.5 -16.5q-12 0 -32 11.5t-52 30.5v-272h-174v272q-27 -13 -49 -27.5t-40 -14.5q-47 0 -85.5 17.5t-66 53.5t-42.5 92t-15 133q0 63 18.5 112.5t49 84t71 53t85.5 18.5q16 0 39 -12.5t35 -33.5v295h174v-292
q19 26 38 34.5t34 8.5q46 0 87.5 -19t72.5 -55t49 -87.5t18 -115.5zM187 270q0 -38 12 -63.5t44 -25.5q14 0 35 6t33 23q0 26 -1 52t-1 54q-11 20 -25 32t-27 12q-31 0 -50.5 -25t-19.5 -65zM611 264q0 42 -20 69.5t-52 27.5q-17 0 -30 -13.5t-24 -34.5v-104
q16 -16 34.5 -22.5t31.5 -6.5q32 0 46 23.5t14 60.5z" />
    <glyph glyph-name="afii10087" unicode="&#x445;" horiz-adv-x="569" 
d="M338 0l-74 128l-76 -128h-175l1 29l155 242q-17 27 -37.5 58t-41.5 63t-40.5 63t-35.5 58l-1 29h207l77 -127q18 34 37.5 64t36.5 63h176l1 -29l-152 -242q16 -27 36 -58.5t40.5 -63t40 -62.5t35.5 -58l-1 -29h-209z" />
    <glyph glyph-name="afii10088" unicode="&#x446;" horiz-adv-x="566" 
d="M202 544v-360h99v360h170v-361h77l1 -339h-169v156h-348v544h170z" />
    <glyph glyph-name="afii10089" unicode="&#x447;" horiz-adv-x="513" 
d="M200 544v-198q0 -16 3 -25t8 -13.5t12 -6t16 -1.5q19 0 33.5 2.5t30.5 6.5v235h170v-544h-170v118q-23 -3 -38 -4t-27 -1q-39 0 -77 7.5t-67.5 31t-47.5 66t-18 113.5v213h172z" />
    <glyph glyph-name="afii10090" unicode="&#x448;" horiz-adv-x="650" 
d="M203 542v-367h34v367h169v-367h36v367h168v-542h-579l-1 542h173z" />
    <glyph glyph-name="afii10091" unicode="&#x449;" horiz-adv-x="695" 
d="M28 542h165v-379h33v379h164v-379h34v379h169v-370h76l-2 -328h-163v156h-476v542z" />
    <glyph glyph-name="afii10092" unicode="&#x44a;" horiz-adv-x="536" 
d="M519 178q0 -51 -14 -85.5t-37.5 -55t-53.5 -29t-62 -8.5h-230v398h-101v144h267v-190h65q33 0 63 -9t53 -30t36.5 -54t13.5 -81zM358 180q0 35 -38 35h-32v-72h34q18 0 27 11.5t9 25.5z" />
    <glyph glyph-name="afii10093" unicode="&#x44b;" horiz-adv-x="669" 
d="M627 542v-542h-170v542h170zM426 178q0 -51 -15 -85.5t-39.5 -55t-55.5 -29t-64 -8.5h-226v542h172v-190h56q32 0 63 -9t55 -30t39 -54t15 -81zM268 180q0 35 -38 35h-32v-72h34q18 0 27 11.5t9 25.5z" />
    <glyph glyph-name="afii10094" unicode="&#x44c;" horiz-adv-x="446" 
d="M425 178q0 -51 -14.5 -85.5t-38.5 -55t-55 -29t-64 -8.5h-228v542h172v-190h58q32 0 62.5 -9t54.5 -30t38.5 -54t14.5 -81zM267 180q0 35 -38 35h-32v-72h34q18 0 27 11.5t9 25.5z" />
    <glyph glyph-name="afii10095" unicode="&#x44d;" horiz-adv-x="499" 
d="M151 210v146h150q-11 27 -29.5 36.5t-45.5 9.5q-38 0 -73.5 -21.5t-60.5 -47.5l-67 146q23 21 49.5 36t53.5 24.5t52.5 14.5t46.5 5q46 0 90.5 -17.5t79.5 -53.5t57 -91.5t22 -130.5q0 -71 -22 -124.5t-57 -88.5t-79.5 -52.5t-90.5 -17.5q-51 0 -107 20.5t-104 66.5
l68 148q10 -14 27.5 -25t36.5 -19t37.5 -12.5t30.5 -4.5q6 0 17 4.5t22.5 12t21 17t12.5 19.5h-138z" />
    <glyph glyph-name="afii10096" unicode="&#x44e;" horiz-adv-x="694" 
d="M29 0v542h165v-192h47q9 47 29 84.5t48 64t62.5 41t72.5 14.5q49 0 90.5 -18.5t71.5 -55t46.5 -90t16.5 -123.5q0 -65 -16.5 -116t-46 -86.5t-71 -54t-91.5 -18.5q-38 0 -72 14t-61 39t-47.5 59.5t-31.5 75.5h-47v-180h-165zM512 267q0 56 -15 86.5t-40 30.5
q-27 0 -44 -30.5t-17 -86.5q0 -51 17 -77.5t44 -26.5q25 0 40 27t15 77z" />
    <glyph glyph-name="afii10097" unicode="&#x44f;" horiz-adv-x="488" 
d="M24 0v30l63 166q-27 13 -41.5 31t-20.5 39t-7 44t-1 47q0 48 14.5 82.5t39.5 57.5t59 34t74 11h245v-542h-169v144h-57l-42 -144h-157zM200 340q0 -14 5 -26.5t19 -12.5h56v76h-56q-14 0 -19 -10.5t-5 -26.5z" />
    <glyph glyph-name="afii10071" unicode="&#x451;" horiz-adv-x="485" 
d="M202 216q12 -23 27.5 -34.5t29.5 -11.5q36 0 69 5t59 30l50 -135q-36 -43 -86 -63t-104 -20q-44 0 -85 16t-72.5 50t-50.5 87.5t-19 129.5q0 71 17 124.5t47 89t71.5 53.5t91.5 18q46 0 85.5 -21t68 -63t44.5 -105.5t15 -149.5h-258zM288 345v11.5t-3.5 15.5t-12 14
t-25.5 6q-10 0 -17 -12.5t-16 -34.5h74zM405 680q0 -35 -18 -60.5t-47 -25.5q-30 0 -47.5 25.5t-17.5 60.5t17 60.5t48 25.5q29 0 47 -25.5t18 -60.5zM216 680q0 -35 -18 -60.5t-47 -25.5q-27 0 -46 25.5t-19 60.5t19 60.5t46 25.5q29 0 47 -25.5t18 -60.5z" />
    <glyph glyph-name="afii10099" unicode="&#x452;" horiz-adv-x="561" 
d="M84 735v65h170v-65h113v-134h-113v-88q16 11 38.5 16t34.5 5q97 0 147 -60t52 -183v-284q0 -53 -14 -99t-39 -75q-22 -26 -47.5 -40t-51.5 -19q-17 -1 -49 1.5t-67 10.5l6 182q33 -2 54.5 -4t27.5 0h6t-1 1q6 9 6 42v273q-1 39 -8.5 57.5t-25.5 18.5q-12 0 -32 -16
t-37 -37v-303h-170v601h-72v134h72z" />
    <glyph glyph-name="afii10100" unicode="&#x453;" horiz-adv-x="401" 
d="M381 541v-185h-182v-356h-171v541h353zM171 612h-93l139 221h191l-29 -26z" />
    <glyph glyph-name="afii10101" unicode="&#x454;" horiz-adv-x="477" 
d="M196 209q2 -10 11.5 -22t21.5 -23t23 -18.5t17 -7.5q53 0 93.5 16.5t59.5 43.5l48 -132q-49 -46 -105 -66.5t-106 -20.5q-46 0 -91 17.5t-80 52.5t-57 88t-22 124q0 76 22 131t57 91t80 53.5t91 17.5q21 0 46 -4.5t52 -14.5t53.5 -24.5t49.5 -35.5l-42 -131
q-12 13 -30.5 24t-39.5 19.5t-42.5 13t-39.5 4.5q-3 0 -13 -3.5t-22.5 -10.5t-25 -17.5t-21.5 -24.5h149v-140h-137z" />
    <glyph glyph-name="afii10102" unicode="&#x455;" horiz-adv-x="479" 
d="M439 175q0 -59 -19 -95.5t-49 -56.5t-68 -27t-77 -7q-52 0 -101.5 16t-92.5 57l21 135q24 -18 50 -30.5t50.5 -20.5t46 -11.5t35.5 -3.5q9 0 17.5 6t8.5 20q0 11 -4 15.5t-21 4.5q-25 0 -61.5 7.5t-71 28t-59 55.5t-24.5 90q0 63 21.5 102t53 60t68.5 28t69 7
q60 0 105.5 -21t82.5 -58l-45 -130q-45 33 -81 47.5t-68 14.5q-17 0 -23 -9.5t-6 -23.5q0 -6 4.5 -9.5t10.5 -6t12 -3.5t9 -1q25 0 60.5 -7t67.5 -26.5t55 -55t23 -91.5z" />
    <glyph glyph-name="afii10103" unicode="&#x456;" horiz-adv-x="225" 
d="M189 711q0 -19 -6.5 -35t-18 -27.5t-25.5 -18t-29 -6.5q-30 0 -54 24.5t-24 62.5t23 62.5t55 24.5q15 0 29 -6.5t25.5 -18t18 -27.5t6.5 -35zM24 0v543h172v-543h-172z" />
    <glyph glyph-name="afii10104" unicode="&#x457;" horiz-adv-x="255" 
d="M294 683q0 -29 -18.5 -51.5t-50.5 -22.5q-29 0 -47 22.5t-18 51.5q0 31 16.5 53.5t48.5 22.5t50.5 -22.5t18.5 -53.5zM98 683q0 -29 -18.5 -51.5t-50.5 -22.5q-29 0 -47.5 22.5t-18.5 51.5q0 31 18.5 53.5t47.5 22.5q32 0 50.5 -22.5t18.5 -53.5zM44 0v542h180v-542h-180
z" />
    <glyph glyph-name="afii10105" unicode="&#x458;" horiz-adv-x="247" 
d="M213 -16q0 -23 -6 -48.5t-16.5 -50t-25 -45t-30.5 -33.5q-31 -25 -55.5 -31.5t-49.5 -4.5q-20 2 -37.5 7t-46.5 19l22 196q19 -8 25.5 -11t13.5 -4q11 -1 18 0t6 1q3 6 5.5 17.5t2.5 26.5v519h173zM204 687q0 -38 -24 -61t-54 -23t-53.5 23t-23.5 61q0 37 22.5 60
t54.5 23q30 0 54 -23t24 -60z" />
    <glyph glyph-name="afii10106" unicode="&#x459;" horiz-adv-x="736" 
d="M16 197q4 -3 15 -5.5t22 -4t19 -2l8 -0.5q25 1 41.5 90.5t18.5 266.5h336v-170h46q33 0 67 -6.5t61.5 -25.5t45 -53.5t17.5 -90.5q0 -60 -18 -98t-45.5 -60t-62 -30t-67.5 -8h-211v370h-26q-7 -66 -17.5 -132.5t-31 -119.5t-54 -86.5t-85.5 -33.5h-9t-10 0.5t-20.5 3
t-39.5 8.5v187zM546 196q0 35 -38 35h-32v-72h34q18 0 27 11.5t9 25.5z" />
    <glyph glyph-name="afii10107" unicode="&#x45a;" horiz-adv-x="729" 
d="M694 201q0 -60 -17.5 -99t-45.5 -61.5t-61.5 -31.5t-65.5 -9h-215v201h-64v-201h-171v542h171v-169h64v169h169v-149h47q33 0 66.5 -9t60.5 -31t44.5 -59t17.5 -93zM528 199q0 35 -38 35h-32v-72h34q18 0 27 11.5t9 25.5z" />
    <glyph glyph-name="afii10108" unicode="&#x45b;" horiz-adv-x="538" 
d="M64 699v63h165v-63h127v-113h-127v-72q18 11 38.5 17.5t35.5 6.5q93 0 145.5 -61t54.5 -184v-293h-174v287q0 37 -7 55t-24 18q-13 0 -32 -15t-37 -35v-310h-165v586h-73v113h73z" />
    <glyph glyph-name="afii10109" unicode="&#x45c;" horiz-adv-x="500" 
d="M253 611h-90l136 221h192l-28 -24zM477 527l-150 -256l155 -254q0 -5 -0.5 -8.5t-0.5 -8.5h-163l-132 182v-182h-160v542h160v-178l124 178h167v-15z" />
    <glyph glyph-name="afii10110" unicode="&#x45e;" horiz-adv-x="533" 
d="M441 838q0 -44 -12.5 -84.5t-34.5 -72t-52 -50.5t-65 -19q-37 0 -68 19.5t-53 51.5t-34.5 72.5t-12.5 82.5h103q2 -20 7 -39.5t13.5 -35t19.5 -25t25 -9.5t26 9.5t20 25t13 35t5 39.5h100zM309 -117q-22 -63 -56.5 -87.5t-85.5 -24.5q-24 0 -61.5 3.5t-68.5 12.5v180
q11 -2 26 -4.5t29 -4t26 -2t18 -0.5q13 1 26.5 16t18.5 35l14 52q-42 111 -87 229t-88 229v25h160l95 -256l73 256h164v-23z" />
    <glyph glyph-name="afii10193" unicode="&#x45f;" horiz-adv-x="530" 
d="M207 541v-366h98v366h181v-541h-141v-215h-176v215h-143v541h181z" />
    <glyph glyph-name="afii10050" unicode="&#x490;" horiz-adv-x="541" 
d="M242 1h-199v700h282v148h192v-331h-275v-517z" />
    <glyph glyph-name="afii10098" unicode="&#x491;" horiz-adv-x="456" 
d="M225 542v164h173v-348h-192v-357h-177v541h196z" />
    <glyph glyph-name="endash" unicode="&#x2013;" horiz-adv-x="394" 
d="M27 248v122h328v-122h-328z" />
    <glyph glyph-name="emdash" unicode="&#x2014;" horiz-adv-x="676" 
d="M27 248v122h610v-122h-610z" />
    <glyph glyph-name="quoteleft" unicode="&#x2018;" horiz-adv-x="210" 
d="M185 468q0 -48 -26.5 -78t-62.5 -30q-23 0 -39.5 10.5t-27 28t-15.5 40t-5 46.5q0 31 11 64.5t29.5 64.5t43 55.5t51.5 37.5l44 -83q-27 -34 -39 -69q17 -10 26.5 -32.5t9.5 -54.5z" />
    <glyph glyph-name="quoteright" unicode="&#x2019;" horiz-adv-x="217" 
d="M195 581q0 -31 -11 -64.5t-29 -64.5t-42.5 -55.5t-51.5 -37.5l-45 83q30 34 39 69q-17 10 -26.5 32.5t-9.5 54.5q0 24 7.5 44t20 34t28.5 22t34 8q23 0 39.5 -10.5t27 -28t15 -40t4.5 -46.5z" />
    <glyph glyph-name="quotesinglbase" unicode="&#x201a;" horiz-adv-x="208" 
d="M189 200q0 -30 -10 -63t-27 -62.5t-40 -53.5t-49 -37l-43 86q11 15 20 31.5t14 29.5q-31 20 -31 85q0 24 7 43.5t19 33.5t27 21.5t32 7.5q21 0 36.5 -10.5t25.5 -28t14.5 -39.5t4.5 -44z" />
    <glyph glyph-name="quotedblleft" unicode="&#x201c;" horiz-adv-x="421" 
d="M402 468q0 -48 -26.5 -78t-62.5 -30q-23 0 -39.5 10.5t-27 28t-15.5 40t-5 46.5q0 31 11 64.5t29.5 64.5t43 55.5t51.5 37.5l44 -83q-27 -34 -39 -69q17 -10 26.5 -32.5t9.5 -54.5zM185 468q0 -48 -26.5 -78t-62.5 -30q-23 0 -39.5 10.5t-27 28t-15.5 40t-5 46.5
q0 31 11 64.5t29.5 64.5t43 55.5t51.5 37.5l44 -83q-27 -34 -39 -69q17 -10 26.5 -32.5t9.5 -54.5z" />
    <glyph glyph-name="quotedblright" unicode="&#x201d;" horiz-adv-x="414" 
d="M397 581q0 -31 -10.5 -64.5t-29 -64.5t-42.5 -55.5t-51 -37.5l-46 83q30 34 39 69q-17 10 -26.5 32.5t-9.5 54.5q0 48 27.5 78t63.5 30q23 0 39 -10.5t26.5 -28t15 -40t4.5 -46.5zM185 581q0 -31 -10.5 -64.5t-29 -64.5t-42.5 -55.5t-51 -37.5l-46 83q30 34 39 69
q-17 10 -26.5 32.5t-9.5 54.5q0 48 27.5 78t63.5 30q23 0 39 -10.5t26.5 -28t15 -40t4.5 -46.5z" />
    <glyph glyph-name="quotedblbase" unicode="&#x201e;" horiz-adv-x="402" 
d="M376 198q0 -31 -10 -63.5t-27.5 -62t-40.5 -53t-49 -36.5l-43 86q13 17 21.5 33t13.5 28q-14 10 -22.5 31.5t-8.5 52.5q0 48 25.5 77t58.5 29q22 0 37.5 -10.5t25.5 -28t14.5 -39.5t4.5 -44zM192 198q0 -31 -10 -63.5t-27.5 -62t-40.5 -53t-49 -36.5l-44 86q14 17 22 32
t13 29q-14 10 -22 31.5t-8 52.5q0 48 25 77t59 29q21 0 36.5 -10.5t25.5 -28t15 -39.5t5 -44z" />
    <glyph glyph-name="dagger" unicode="&#x2020;" horiz-adv-x="335" 
d="M224 460q-8 -95 -15 -194t-15 -193h-62l-38 387h-79v117h89v51q-6 12 -9 23t-3 25q0 35 20 58.5t48 23.5q27 0 47 -23.5t20 -58.5q0 -13 -3.5 -26.5t-7.5 -24.5v-48h83v-117h-75z" />
    <glyph glyph-name="daggerdbl" unicode="&#x2021;" horiz-adv-x="347" 
d="M222 105v-51q7 -12 9.5 -23t2.5 -25q0 -35 -21 -58.5t-50 -23.5q-28 0 -49 23.5t-21 58.5q0 13 4 26.5t9 24.5v48h-82v117h69q2 37 11.5 75t13.5 76q-7 35 -14 68.5t-13 68.5h-75l-1 117h93v51q-8 12 -10 23t-2 25q0 35 20.5 58.5t49.5 23.5q28 0 49 -23.5t21 -58.5
q0 -13 -4 -26.5t-8 -24.5v-48h87v-117h-73q-5 -38 -13 -75.5t-13 -76.5l29 -136h78l2 -117h-99z" />
    <glyph glyph-name="bullet" unicode="&#x2022;" horiz-adv-x="291" 
d="M266 336q0 -30 -10 -55t-26.5 -43.5t-38.5 -29t-46 -10.5t-46 10.5t-38.5 29t-26.5 43.5t-10 55t10 55t26.5 43t38.5 28.5t46 10.5t46 -10.5t38.5 -28.5t26.5 -43t10 -55z" />
    <glyph glyph-name="ellipsis" unicode="&#x2026;" horiz-adv-x="642" 
d="M566 88q0 -39 -21.5 -66.5t-51.5 -27.5q-15 0 -28 7.5t-23 20t-16 29.5t-6 37q0 19 6 36t16 30t23 20.5t28 7.5t28.5 -7.5t23 -20.5t15.5 -30t6 -36zM353 88q0 -39 -21 -66.5t-50 -27.5q-30 0 -51.5 27.5t-21.5 66.5q0 19 6 36t15.5 30t23 20.5t28.5 7.5q14 0 27 -7.5
t22.5 -20.5t15.5 -30t6 -36zM142 88q0 -20 -6 -37t-16 -29.5t-23 -20t-28 -7.5q-14 0 -27 7.5t-22.5 20t-15.5 29.5t-6 37q0 19 6 36.5t15.5 30t22.5 20t27 7.5q15 0 28 -7.5t23 -20t16 -30t6 -36.5z" />
    <glyph glyph-name="perthousand" unicode="&#x2030;" horiz-adv-x="861" 
d="M817 194q0 -35 -8.5 -65t-23.5 -52.5t-35 -35.5t-42 -13t-41.5 13t-34.5 35.5t-23.5 52.5t-8.5 65t8.5 65.5t23.5 53t34.5 35.5t41.5 13t42 -13t35 -35.5t23.5 -53t8.5 -65.5zM576 194q0 -35 -9 -65t-24 -52.5t-35 -35.5t-42 -13t-41.5 13t-34.5 35.5t-23.5 52.5t-8.5 65
t8.5 65.5t23.5 53t34.5 35.5t41.5 13t42 -13t35 -35.5t24 -53t9 -65.5zM188 0h-155l364 701h158zM224 505q0 -35 -8.5 -65.5t-23.5 -53t-35 -35.5t-43 -13t-42.5 13t-34.5 35.5t-23.5 53t-8.5 65.5q0 34 8.5 64.5t23.5 53t34.5 35.5t42.5 13t43 -13t35 -35.5t23.5 -53
t8.5 -64.5zM724 194q0 23 -5.5 39t-10.5 16q-6 0 -11 -16t-5 -39t5 -39t11 -16q5 0 10.5 16t5.5 39zM482 194q0 23 -4.5 39t-11.5 16q-5 0 -10.5 -16t-5.5 -39t5.5 -39t10.5 -16q7 0 11.5 16t4.5 39zM132 505q0 22 -5.5 37.5t-12.5 15.5q-6 0 -11.5 -15.5t-5.5 -37.5
q0 -23 5.5 -38t11.5 -15q7 0 12.5 15t5.5 38z" />
    <glyph glyph-name="guilsinglleft" unicode="&#x2039;" horiz-adv-x="282" 
d="M20 209v112l220 210v-154l-119 -115l119 -117v-156z" />
    <glyph glyph-name="guilsinglright" unicode="&#x203a;" horiz-adv-x="276" 
d="M20 -11v155l121 114q-30 29 -60.5 59t-60.5 59v156l220 -220v-112z" />
    <glyph glyph-name="fraction" unicode="&#x2044;" horiz-adv-x="422" 
d="M132 0h-114l280 700h113z" />
    <glyph glyph-name="swungdash" unicode="&#x2053;" horiz-adv-x="467" 
d="M451 409q0 -7 -3 -25t-9 -41.5t-15.5 -48.5t-21.5 -46.5t-26.5 -35t-31.5 -13.5q-27 0 -55 13.5t-55.5 30t-54.5 30t-53 13.5q-7 0 -13 -9t-10.5 -22.5t-8 -30t-4.5 -30.5l-71 17q0 9 2.5 29t8 45t14 51t21 47.5t28 35.5t35.5 14q29 0 56 -12.5t53 -27t52 -27t54 -12.5
q6 0 12 7.5t10.5 19.5t8 26t5.5 28z" />
    <glyph glyph-name="zerosuperior" unicode="&#x2070;" horiz-adv-x="388" 
d="M357 496q0 -50 -15 -88.5t-39.5 -64t-55.5 -38.5t-62 -13q-32 0 -62.5 13t-55.5 38.5t-40 64t-15 88.5q0 54 15 94t40 66.5t55.5 39.5t62.5 13q31 0 62 -13t55.5 -39.5t39.5 -66.5t15 -94zM236 496q0 44 -14 73t-37 29t-37 -29t-14 -73q0 -42 14 -68t37 -26t37 28t14 66z
" />
    <glyph glyph-name="foursuperior" unicode="&#x2074;" horiz-adv-x="347" 
d="M287 364v-68h-117v68h-151v69l206 269l62 -1v-239h37v-98h-37zM170 529l-42 -67h42v67z" />
    <glyph glyph-name="fivesuperior" unicode="&#x2075;" horiz-adv-x="315" 
d="M293 433q0 -42 -14.5 -69.5t-36.5 -43t-46.5 -22t-43.5 -6.5q-32 0 -65 10.5t-59 31.5l37 98q26 -18 48.5 -28.5t41.5 -10.5q15 0 20.5 15.5t5.5 27.5q0 14 -6.5 28t-18.5 14q-21 0 -40.5 -12t-26.5 -22l-65 41l10 214h246v-98h-151q-2 -9 -1.5 -20t0.5 -19q7 5 17.5 9
t18.5 4q20 0 42.5 -6.5t42 -22.5t32 -43.5t12.5 -69.5z" />
    <glyph glyph-name="sixsuperior" unicode="&#x2076;" horiz-adv-x="347" 
d="M331 437q0 -39 -13 -67t-33 -45.5t-44.5 -25.5t-46.5 -8q-33 0 -64 12t-55 37.5t-38.5 65t-14.5 95.5q0 53 14.5 92t38.5 65t54.5 38.5t62.5 12.5q18 0 37.5 -5t37.5 -12.5t32 -18t22 -20.5l-32 -82q-22 19 -45.5 26.5t-49.5 7.5q-2 0 -8 -3t-14 -9t-16 -15t-14 -22
q5 5 13 9t16.5 7t16.5 5t12 2q57 0 94 -38t37 -104zM227 444q0 19 -15 27t-24 8q-19 0 -31.5 -8t-25.5 -27q4 -9 12 -18t17 -16t17.5 -11t13.5 -4q17 0 26.5 11t9.5 38z" />
    <glyph glyph-name="sevensuperior" unicode="&#x2077;" horiz-adv-x="331" 
d="M159 296h-147l134 296h-127v107h291l1 -88z" />
    <glyph glyph-name="eightsuperior" unicode="&#x2078;" horiz-adv-x="366" 
d="M330 418q0 -29 -12 -52.5t-32.5 -40t-46.5 -25t-53 -8.5q-32 0 -60 8.5t-49 24.5t-33.5 39.5t-12.5 52.5q0 28 8 49.5t21 38.5q-25 31 -25 78q0 61 39 93t106 32t106.5 -33.5t39.5 -93.5q0 -23 -8 -41.5t-20 -31.5q14 -19 23 -43t9 -47zM216 420q0 5 -2.5 12t-7.5 13
t-12 10t-15 4q-12 -1 -16 -15t-4 -26q0 -9 5.5 -17t21.5 -8q15 0 22.5 9t7.5 18zM201 582q0 10 -8 19t-23 9t-22.5 -7.5t-7.5 -17.5q0 -5 2.5 -10.5t7.5 -10.5t12 -8.5t16 -2.5q11 2 17 10.5t6 18.5z" />
    <glyph glyph-name="ninesuperior" unicode="&#x2079;" horiz-adv-x="351" 
d="M331 498q0 -53 -15 -92t-39 -64.5t-55 -38t-62 -12.5q-17 0 -36 4.5t-36 11t-30 14.5t-18 16l4 88q23 -19 56 -27t59 -8q2 0 8.5 3.5t14 10t15.5 16t14 22.5q-5 -5 -13.5 -9t-17.5 -7t-16 -5t-10 -2q-29 0 -53 10t-41.5 28.5t-27.5 45t-10 58.5q0 39 14 67t35 46t44.5 26
t43.5 8q28 0 58.5 -12t56 -37.5t41.5 -65.5t16 -95zM161 520q34 0 60 35q-2 27 -15 38t-47 11q-15 0 -26 -11.5t-11 -37.5q0 -10 4.5 -17t11 -11t13 -5.5t10.5 -1.5z" />
    <glyph glyph-name="zeroinferior" unicode="&#x2080;" horiz-adv-x="393" 
d="M367 204q0 -50 -15 -88.5t-39.5 -64t-55.5 -38.5t-62 -13q-32 0 -62.5 13t-55.5 38.5t-40 64t-15 88.5q0 54 15 94t40 66.5t55.5 39.5t62.5 13q31 0 62 -13t55.5 -39.5t39.5 -66.5t15 -94zM246 204q0 45 -14 73.5t-37 28.5t-37 -28.5t-14 -73.5q0 -41 14 -67.5t37 -26.5
t37 28t14 66z" />
    <glyph glyph-name="oneinferior" unicode="&#x2081;" horiz-adv-x="244" 
d="M66 -1v413h114v-413h-114z" />
    <glyph glyph-name="twoinferior" unicode="&#x2082;" horiz-adv-x="366" 
d="M321 277q0 -30 -7 -50.5t-19 -36.5t-28 -28t-34 -24q-10 -7 -16.5 -15.5t-9.5 -13.5h111v-110h-271l-5 77q5 28 15.5 47.5t23 34t27.5 24.5t29 20q29 25 49 43t20 32q0 13 -4.5 26t-19.5 13q-16 0 -34.5 -11.5t-56.5 -38.5l-25 93q18 29 50.5 44.5t67.5 15.5
q20 0 44 -6.5t44.5 -22.5t34.5 -43.5t14 -69.5z" />
    <glyph glyph-name="threeinferior" unicode="&#x2083;" horiz-adv-x="348" 
d="M310 124q0 -42 -14.5 -67.5t-35.5 -39t-45.5 -17.5t-45.5 -4q-35 0 -65.5 10t-68.5 42l25 92q34 -26 58.5 -33t41.5 -7q15 0 23.5 11t8.5 20q0 23 -10 27.5t-19 4.5h-68l-4 92h72q9 0 19.5 7.5t10.5 24.5q0 4 -1.5 10.5t-5 12.5t-8.5 10.5t-12 4.5q-8 0 -17 -1
t-20.5 -4.5t-25 -11.5t-31.5 -21l-33 87q26 28 60 37t70 9q21 0 45.5 -4.5t45.5 -18t35.5 -39t14.5 -67.5q0 -11 -4 -23t-11 -23.5t-16 -21t-18 -14.5q9 -4 18 -13t15.5 -21t11 -25t4.5 -26z" />
    <glyph glyph-name="fourinferior" unicode="&#x2084;" horiz-adv-x="365" 
d="M287 72v-72h-117v72h-141v70l196 268l62 -1v-238h37v-99h-37zM170 218l-32 -47h32v47z" />
    <glyph glyph-name="fiveinferior" unicode="&#x2085;" horiz-adv-x="329" 
d="M296 138q0 -42 -14.5 -69.5t-36.5 -43t-46.5 -22t-43.5 -6.5q-32 0 -65 10.5t-59 31.5l37 98q26 -18 48.5 -29t41.5 -11q15 0 20.5 16t5.5 28q0 14 -6.5 27.5t-18.5 13.5q-21 0 -39 -5.5t-25 -15.5l-65 45l7 198h246v-99h-151q-2 -10 -1.5 -20t0.5 -18q7 5 17.5 9t18.5 4
q20 0 42.5 -6.5t42 -22.5t32 -43.5t12.5 -69.5z" />
    <glyph glyph-name="sixinferior" unicode="&#x2086;" horiz-adv-x="365" 
d="M337 142q0 -39 -13 -67t-33 -46t-44.5 -26t-46.5 -8q-33 0 -64 12t-55 37.5t-38.5 65t-14.5 95.5q0 53 14.5 92t38.5 65t54.5 38.5t62.5 12.5q18 0 37.5 -4.5t37.5 -12.5t32 -18t22 -20l-32 -82q-22 18 -45.5 25.5t-49.5 7.5q-17 0 -29 -11.5t-23 -36.5q5 5 13 9t16.5 7
t16.5 5t12 2q57 0 94 -38.5t37 -103.5zM233 149q0 19 -15 26.5t-24 7.5q-19 0 -31.5 -8t-25.5 -26q4 -9 12 -18t17 -16t17.5 -11.5t13.5 -4.5q17 0 26.5 11.5t9.5 38.5z" />
    <glyph glyph-name="seveninferior" unicode="&#x2087;" horiz-adv-x="331" 
d="M159 0h-147l134 295h-127v108h291l1 -89z" />
    <glyph glyph-name="eightinferior" unicode="&#x2088;" horiz-adv-x="347" 
d="M320 123q0 -29 -12 -52.5t-32.5 -40t-46.5 -25.5t-53 -9q-32 0 -60 8.5t-49 25t-33.5 40t-12.5 52.5q0 28 8 49t21 38q-25 33 -25 79q0 61 39 92.5t106 31.5t106.5 -33t39.5 -93q0 -23 -8 -42t-20 -32q14 -19 23 -42.5t9 -46.5zM206 125q0 5 -2.5 12t-7.5 13t-12 10
t-15 4q-12 -1 -16 -15t-4 -26q0 -10 5.5 -18t21.5 -8q15 0 22.5 9t7.5 19zM191 287q0 9 -8 18t-23 9t-22.5 -7.5t-7.5 -17.5q0 -4 2.5 -9.5t7.5 -10.5t12 -8.5t16 -2.5q11 2 17 10.5t6 18.5z" />
    <glyph glyph-name="nineinferior" unicode="&#x2089;" horiz-adv-x="357" 
d="M331 202q0 -53 -15 -92t-39 -64.5t-55 -38t-62 -12.5q-17 0 -36 4.5t-36 11.5t-30 15t-18 16l4 88q23 -20 56 -28t59 -8q2 0 8.5 3.5t14 10t15.5 16.5t14 23q-5 -5 -13.5 -9t-17.5 -7t-16 -5t-10 -2q-29 0 -53 10t-41.5 28.5t-27.5 44.5t-10 59q0 39 14 67t35 45.5
t44.5 25.5t43.5 8q28 0 58.5 -12t56 -37.5t41.5 -65.5t16 -95zM161 224q18 0 32 9t28 27q-2 26 -15 37t-47 11q-15 0 -26 -11t-11 -37q0 -10 4.5 -17t11 -11t13 -6t10.5 -2z" />
    <glyph glyph-name="Euro" unicode="&#x20ac;" horiz-adv-x="612" 
d="M595 134q-20 -35 -47 -62.5t-57.5 -46.5t-62.5 -29t-62 -10q-59 0 -105 17.5t-78.5 49t-51.5 76t-25 99.5h-108l44 96h50q-2 7 -1 19t1 19h-95l46 99h59q17 125 80.5 191t182.5 66q60 0 117 -29.5t106 -101.5l-51 -144q-44 50 -80 78t-79 28q-24 0 -47 -23t-39 -65h144
l-47 -99h-119q2 -7 1 -20t-1 -18h166l-46 -96h-90q31 -74 78 -74q21 0 41.5 10t41 27t40 39t39.5 47z" />
    <glyph glyph-name="afii61352" unicode="&#x2116;" horiz-adv-x="873" 
d="M831 368q0 -41 -11.5 -77.5t-31.5 -64t-46.5 -43.5t-57.5 -16q-30 0 -57 16t-47 43.5t-31.5 64t-11.5 77.5q0 42 11.5 79t31.5 64t47 43t57 16q31 0 57.5 -16t46.5 -43t31.5 -64t11.5 -79zM720 368q0 24 -11 41.5t-25 17.5q-16 0 -27 -17.5t-11 -41.5q0 -23 11 -40
t27 -17q14 0 25 17t11 40zM553 0v129h271v-129h-271zM413 0l-214 319v-33.5t-0.5 -47t-0.5 -87v-151.5h-161v701h104l201 -300v300h159v-701h-88z" />
    <glyph glyph-name="trademark" unicode="&#x2122;" horiz-adv-x="705" 
d="M587 278v175q-15 -42 -29.5 -84.5t-28.5 -84.5h-45l-55 165v-171h-85v423h77l92 -250q25 63 50 125t49 125h59v-423h-84zM200 584v-306h-85v306h-95v117h272v-117h-92z" />
    <glyph glyph-name="Omega" unicode="&#x2126;" horiz-adv-x="713" 
d="M408 0l-29 117q28 18 47 46t30 60.5t16 66.5t5 65q0 35 -10.5 67.5t-28 57.5t-40 40t-46.5 15q-23 0 -45 -15t-39 -40t-27.5 -57.5t-10.5 -67.5q0 -30 2.5 -63t12 -64.5t28 -59.5t51.5 -49l-19 -119h-269l-32 171l95 -17q-17 36 -28 87.5t-11 113.5q0 70 21.5 134.5
t60.5 113t92.5 77.5t117.5 29t118 -29t93 -77.5t61 -113t22 -134.5q0 -68 -8 -119.5t-30 -90.5l94 26l-32 -172z" />
    <glyph glyph-name="estimated" unicode="&#x212e;" horiz-adv-x="880" 
d="M728 116q-1 0 2.5 -5t8 -11t8 -11.5l3.5 -5.5q-24 -16 -53 -31t-65 -27t-80.5 -19t-100.5 -7q-71 0 -142 23.5t-127.5 70.5t-91.5 117t-35 162q0 97 34 168.5t89 119t124 71t139 23.5q94 -2 160.5 -32.5t109.5 -81.5t64 -117.5t23 -139.5v-18h-574v-246q21 -15 43 -29.5
t48.5 -25t60 -17t77.5 -6.5q51 0 92.5 6.5t75.5 17t60.5 24t46.5 27.5zM653 402q0 65 -1 115q0 21 -0.5 41.5t-1 37t-0.5 26.5v10q-26 28 -50.5 43.5t-49 23.5t-51.5 10.5t-58 3.5q-32 0 -61.5 -3t-57 -12t-53 -26t-48.5 -46v-224h432z" />
    <glyph glyph-name="onethird" unicode="&#x2153;" horiz-adv-x="695" 
d="M659 123q0 -42 -14.5 -67.5t-35.5 -39t-45.5 -17.5t-45.5 -4q-35 0 -65.5 10t-68.5 42l25 92q34 -26 58.5 -33t41.5 -7q15 0 23.5 11t8.5 20q0 23 -10 27.5t-19 4.5h-68l-4 92h72q9 0 19.5 7.5t10.5 24.5q0 4 -1.5 10.5t-5 12.5t-8.5 10.5t-12 4.5q-8 0 -17 -1
t-20.5 -4.5t-25 -11.5t-31.5 -21l-33 87q26 28 60 37t70 9q21 0 45.5 -4.5t45.5 -18t35.5 -39t14.5 -67.5q0 -11 -4 -23t-11 -23.5t-16 -21t-18 -14.5q9 -4 18 -13t15.5 -21t11 -25t4.5 -26zM191 0h-92l297 700h92zM63 290v411h110v-411h-110z" />
    <glyph glyph-name="twothirds" unicode="&#x2154;" horiz-adv-x="800" 
d="M306 568q0 -29 -7 -50t-19 -37t-28 -28t-35 -24q-13 -9 -17 -14.5t-9 -13.5h112v-110h-270l-5 77q5 28 15 47.5t22.5 33.5t27 24.5t29.5 20.5q68 49 68 74q0 14 -5.5 27t-20.5 13q-16 0 -47 -11t-62 -40l-24 93q9 14 25 25.5t35.5 19.5t39.5 12t37 4q21 0 45 -6.5
t44.5 -23t34.5 -44t14 -69.5zM766 125q0 -42 -14.5 -67.5t-35.5 -39t-45.5 -17.5t-45.5 -4q-35 0 -65.5 10t-68.5 42l25 92q34 -26 58.5 -33t41.5 -7q15 0 23.5 11t8.5 20q0 23 -10 27.5t-19 4.5h-68l-4 92h72q9 0 19.5 7.5t10.5 24.5q0 4 -1.5 10.5t-5 12.5t-8.5 10.5
t-12 4.5q-8 0 -17 -1t-20.5 -4.5t-25 -11.5t-31.5 -21l-33 87q26 28 60 37t70 9q21 0 45.5 -4.5t45.5 -18t35.5 -39t14.5 -67.5q0 -11 -4 -23t-11 -23.5t-16 -21t-18 -14.5q9 -4 18 -13t15.5 -21t11 -25t4.5 -26zM312 0h-92l296 700h93z" />
    <glyph glyph-name="partialdiff" unicode="&#x2202;" horiz-adv-x="502" 
d="M474 324q0 -80 -11.5 -142t-38.5 -104t-71 -64t-110 -22q-45 0 -86.5 16.5t-74 49.5t-52 82t-19.5 113q0 73 11 123.5t38 81.5t71.5 44.5t112.5 13.5q4 0 13 -8.5t19 -20.5q-6 22 -14 38.5t-9 26.5q-23 26 -52 38t-80 12l7 165q92 0 153.5 -29.5t99.5 -85.5
q45 -64 69 -150t24 -178zM299 263q0 40 -14 67t-46 27t-45 -26.5t-13 -67.5q0 -38 13 -66.5t45 -28.5t46 28t14 67z" />
    <glyph glyph-name="Delta" unicode="&#x2206;" horiz-adv-x="745" 
d="M62 0l-40 34l285 669h169l241 -667l-37 -36h-618zM368 467l-96 -292h38t60.5 0.5t60.5 0.5h38z" />
    <glyph glyph-name="product" unicode="&#x220f;" horiz-adv-x="583" 
d="M538 339q0 -78 -20.5 -146.5t-55 -119t-80.5 -79.5t-98 -29q-51 0 -97.5 29t-81 79.5t-55 119t-20.5 146.5t20.5 146t55 119t81 80t97.5 29q52 0 98 -29t80.5 -80t55 -119t20.5 -146zM475 339q0 59 -15 111.5t-40.5 92t-60.5 62.5t-75 23t-75 -23t-60.5 -62.5t-40.5 -92
t-15 -111.5t15 -111t40.5 -91.5t60.5 -62.5t75 -23t75 23t60.5 62.5t40.5 91.5t15 111zM420 399q0 -73 -31.5 -112.5t-78.5 -39.5h-34v-116h-82v422h115q46 0 78.5 -39.5t32.5 -114.5zM345 395q0 21 -7 38t-21 17h-41v-108h19q4 0 7 -0.5t7 -0.5q15 0 25.5 16t10.5 38z" />
    <glyph glyph-name="summation" unicode="&#x2211;" horiz-adv-x="547" 
d="M16 0v97l147 244l-146 266v94h469l1 -203h-140v55h-105l97 -217l-102 -188h117v58h138v-206h-476z" />
    <glyph glyph-name="minus" unicode="&#x2212;" horiz-adv-x="370" 
d="M11 246v147h320v-147h-320z" />
    <glyph glyph-name="radical" unicode="&#x221a;" horiz-adv-x="693" 
d="M388 0h-164l-80 337h-115l-68 132h319h6h10.5h10h4.5l29 -205l168 436h150z" />
    <glyph glyph-name="infinity" unicode="&#x221e;" horiz-adv-x="628" 
d="M615 310q0 -46 -11.5 -95t-34.5 -89.5t-59 -66.5t-85 -26q-39 0 -67 21.5t-48 55.5q-20 -34 -47 -56t-63 -22q-54 0 -91.5 26.5t-61 68t-33.5 91.5t-10 98q0 46 10 93t32.5 85.5t58 62.5t86.5 24q41 0 70.5 -24.5t52.5 -59.5q23 35 50.5 59t65.5 24q49 0 84 -25.5
t57.5 -64.5t33 -87t10.5 -93zM456 310q0 35 -7 61.5t-19 26.5q-2 0 -6 -8t-8.5 -20.5t-10 -29t-10.5 -32.5q4 -17 8.5 -33.5t8.5 -30.5t7.5 -22.5t5.5 -8.5q7 0 13 8t10 21.5t6 31t2 36.5zM225 311q-5 17 -9 33t-8.5 28.5t-8.5 20t-8 7.5q-14 0 -21 -24.5t-7 -59.5
q0 -20 2.5 -39t7 -33t11.5 -22.5t16 -8.5q1 0 4 8.5t6 22.5t7 31.5t8 35.5z" />
    <glyph glyph-name="integral" unicode="&#x222b;" horiz-adv-x="365" 
d="M326 608q-19 6 -28 7.5t-17 1.5q-24 0 -34 -10q-9 -8 -13.5 -22.5t-4.5 -33.5v-598q0 -21 -5.5 -44t-14.5 -44t-21.5 -38.5t-26.5 -29.5q-24 -20 -49 -29t-51 -9q-19 0 -37.5 4t-41.5 15l15 141q17 -6 26 -8t18 -2q25 0 36 10q7 8 12 23t5 33v599q0 22 4.5 44.5
t13.5 43.5t21.5 39t27.5 30q24 21 48.5 28.5t50.5 7.5q19 0 37.5 -4t41.5 -14z" />
    <glyph glyph-name="approxequal" unicode="&#x2248;" horiz-adv-x="451" 
d="M415 150q-6 -22 -22 -45.5t-36 -42.5t-41 -31t-36 -12q-24 0 -47 11.5t-42 25.5q-22 16 -42 37q-2 0 -9 -5t-15.5 -13.5t-15.5 -19.5t-9 -23l-84 87q6 16 19.5 40t31 47t38 39.5t40.5 16.5q16 0 31 -13t31 -28.5t32.5 -28.5t34.5 -13q2 0 14.5 6t27 15.5t27 23t15.5 28.5
zM405 429q-6 -22 -20 -47t-31.5 -46t-36 -34.5t-33.5 -13.5q-24 0 -47 11.5t-42 25.5q-22 16 -42 37q-2 0 -11.5 -5t-20 -13t-20 -18.5t-11.5 -22.5l-70 87q6 16 19.5 40t31 46.5t37.5 38.5t40 16q16 0 31.5 -13t31.5 -28.5t32.5 -28.5t34.5 -13q2 0 8 6t12.5 15.5t12.5 23
t9 28.5z" />
    <glyph glyph-name="notequal" unicode="&#x2260;" horiz-adv-x="322" 
d="M234 490h54v-118h-91l-37 -121h128v-118h-165l-62 -200h-59l61 200h-38v118h75l39 121h-114v118h150l65 211h60z" />
    <glyph glyph-name="lessequal" unicode="&#x2264;" horiz-adv-x="370" 
d="M14 377v113l310 167v-158l-103 -64q26 -16 53.5 -32t49.5 -30v-157zM14 54v139h309v-139h-309z" />
    <glyph glyph-name="greaterequal" unicode="&#x2265;" horiz-adv-x="376" 
d="M14 216v157l102 62q-27 17 -53.5 33.5t-48.5 30.5v158l310 -167v-113zM14 54v139h309v-139h-309z" />
    <glyph glyph-name="lozenge" unicode="&#x25ca;" horiz-adv-x="625" 
d="M601 0h-168l-39 71q-28 -32 -64 -56.5t-83 -24.5q-35 0 -77 9t-78 36t-60 76.5t-24 130.5q0 37 9.5 69.5t25 59.5t36 49t42.5 38q-6 7 -13 22t-13 33t-9.5 36t-3.5 33q0 35 15 68t42 58.5t63.5 41t80.5 15.5q35 0 73.5 -17.5t77.5 -56.5l-81 -137q-26 23 -42 34.5
t-28 11.5q-6 0 -9.5 -8.5t-3.5 -19.5q0 -18 13 -39l106 -184q11 17 19 35.5t14 32.5q7 17 12 33l111 -96q-8 -22 -18 -46q-8 -20 -19 -45t-25 -51l119 -182zM227 315q-12 -16 -24.5 -35.5t-12.5 -41.5q0 -24 5.5 -38t14.5 -22t20 -10.5t23 -2.5q5 0 14 11t20 30z" />
    <glyph glyph-name="I.alt01" horiz-adv-x="390" 
d="M358 543h-66v-384h66v-159h-325v160h75v383h-75v158h325v-158z" />
    <glyph glyph-name="exclam.001" horiz-adv-x="190" 
d="M38 198l-12 399h136l-17 -399h-107zM92 -7q-28 0 -47 23.5t-19 56.5q0 35 19 57.5t47 22.5t46.5 -22.5t18.5 -57.5q0 -33 -18.5 -56.5t-46.5 -23.5z" />
    <glyph glyph-name="dollar.001" horiz-adv-x="404" 
d="M97 -66l13 98q-23 10 -46.5 26t-52.5 42l36 139q94 -73 128 -73q23 0 41 8t18 28q0 7 -7.5 12.5t-19 8.5t-25 5t-24.5 3q-5 1 -9.5 1.5t-6.5 0.5q-23 5 -46.5 15t-42 28.5t-30 48t-11.5 74.5q0 56 17.5 90.5t43 54t54.5 26.5t52 7h6.5t8.5 -1l18 123l69 1l-21 -142
q20 -11 41 -26t43 -35l-31 -125q-40 34 -74.5 46t-59.5 12q-33 0 -43.5 -9.5t-10.5 -17.5q0 -6 7.5 -9.5t17 -6t20 -3t16.5 -0.5q24 -4 52 -11t52.5 -26t40.5 -53t16 -92q0 -56 -15 -91.5t-39.5 -56t-54.5 -28.5t-60 -8l-13 -84h-68z" />
    <glyph glyph-name="percent.001" horiz-adv-x="450" 
d="M343 14q-18 0 -33.5 11t-27 30.5t-18.5 45.5t-7 56t7 56t18.5 45.5t27 30.5t33.5 11q19 0 35.5 -11t28.5 -30.5t19 -45.5t7 -56t-7 -56t-19 -45.5t-28.5 -30.5t-35.5 -11zM32 0l263 598h113l-264 -598h-112zM344 200q-5 0 -8 -13t-3 -30q0 -18 3 -31t8 -13t8 13t3 31
q0 17 -3 30t-8 13zM100 315q-19 0 -35.5 11t-28.5 30.5t-18.5 45.5t-6.5 56t6.5 56t18.5 45.5t28.5 30.5t35.5 11q18 0 34 -11t27.5 -30.5t18 -45.5t6.5 -56t-6.5 -56t-18 -45.5t-27.5 -30.5t-34 -11zM101 500q-5 0 -9 -12.5t-4 -29.5t4 -29t9 -12q4 0 7 12t3 29t-3 29.5
t-7 12.5z" />
    <glyph glyph-name="ampersand.001" horiz-adv-x="488" 
d="M25 177q0 58 22.5 104t52.5 70q-13 20 -20 49.5t-7 55.5q0 31 10 59t28.5 49t44 33t55.5 12q32 0 55.5 -12t39.5 -33t23.5 -48t7.5 -57q0 -25 -5.5 -44.5t-14.5 -35t-20 -29t-21 -25.5l26 -41l38 56l72 -82l-44 -86l92 -154v-18h-135l-36 58q-20 -26 -50 -46t-59 -20
q-24 0 -51.5 6t-50.5 25.5t-38 56t-15 97.5zM178 240q-7 -13 -15 -26.5t-8 -24.5q0 -14 4.5 -23t10 -14t10.5 -6.5t6 -1.5q6 0 17.5 10t13.5 21zM211 493q-12 0 -15.5 -10.5t-2.5 -20.5l15 -30q6 8 12 17t6 19q1 10 -2.5 17.5t-12.5 7.5z" />
    <glyph glyph-name="question.001" horiz-adv-x="376" 
d="M220 271q-9 -4 -13 -15t-4.5 -23t0.5 -23t2 -16l-128 -2v10v17v18.5v14.5q0 34 10.5 55.5t26.5 35.5t35 22t35 16t26.5 17t10.5 24t-4.5 24t-10.5 13.5t-12.5 6t-10.5 1.5q-22 0 -53.5 -19t-66.5 -57l-46 128q36 40 76 61.5t84 21.5q25 0 56 -6.5t58 -25t45.5 -52
t18.5 -86.5q0 -34 -13.5 -59.5t-33.5 -44.5t-43.5 -33t-44.5 -24zM147 -6q-26 0 -46 21.5t-20 55.5q0 33 20 54.5t46 21.5q24 0 43.5 -21.5t19.5 -54.5q0 -34 -19.5 -55.5t-43.5 -21.5z" />
    <glyph glyph-name="space.001" horiz-adv-x="209" 
 />
    <glyph glyph-name="questiondown.001" horiz-adv-x="372" 
d="M146 267q9 4 13 15t4.5 23t-0.5 23t-2 16l128 2v-10v-17v-18.5v-14.5q0 -34 -10.5 -55.5t-26.5 -35.5t-35 -22t-35 -16t-26.5 -17t-10.5 -24t4.5 -24t10.5 -13.5t12.5 -6t10.5 -1.5q22 0 53.5 19t66.5 57l46 -128q-36 -40 -76 -61.5t-84 -21.5q-25 0 -56 6.5t-58 25
t-45.5 52t-18.5 86.5q0 34 13.5 59.5t33.5 44.5t43.5 33t44.5 24zM219 544q26 0 46 -21.5t20 -55.5q0 -33 -20 -54.5t-46 -21.5q-24 0 -43.5 21.5t-19.5 54.5q0 34 19.5 55.5t43.5 21.5z" />
    <glyph glyph-name="exclamdown.001" horiz-adv-x="179" 
d="M145 341l12 -399h-136l17 399h107zM91 546q28 0 47 -23.5t19 -56.5q0 -35 -19 -57.5t-47 -22.5t-46.5 22.5t-18.5 57.5q0 33 18.5 56.5t46.5 23.5z" />
    <glyph glyph-name="numbersign.001" horiz-adv-x="466" 
d="M407 322h-71q-2 -14 -3.5 -28t-3.5 -28h71l-18 -122h-70l-13 -110h-95l13 110h-37q-5 -25 -8.5 -54.5t-6.5 -55.5h-95l14 110h-76l17 122h76q1 9 2 14.5t1 11t0.5 12.5t2.5 18h-74l17 121h76q3 23 6.5 53t5.5 50h96l-14 -103h40q1 26 5.5 51t6.5 52h95l-15 -103h72z
M202 322q-2 -18 -2 -29t-3 -27h36q2 15 4.5 28t3.5 28h-39z" />
    <glyph glyph-name="euro.001" horiz-adv-x="476" 
d="M296 -12q-85 0 -141 52t-70 146h-94l39 72q12 0 23.5 0.5t24.5 0.5q-3 9 -3 19q1 5 2 9.5t1 9.5h-87l42 73h49q10 51 31 90t49.5 65.5t62.5 39.5t71 13q47 0 89 -24.5t76 -75.5l-26 -131q-39 44 -72 65t-65 21q-14 0 -28.5 -4t-27 -12t-20.5 -19.5t-8 -27.5h101l-40 -73
h-64q0 -11 -1 -20.5t1 -18.5h104l-39 -72h-61q-4 -29 19.5 -42.5t61.5 -13.5q32 0 68.5 29.5t73.5 73.5l28 -144q-38 -52 -80 -76.5t-90 -24.5z" />
    <glyph glyph-name="two.sc" horiz-adv-x="409" 
d="M372 377q0 -33 -10 -61t-26.5 -50.5t-36.5 -39.5t-39 -27q-9 -5 -21.5 -9.5t-23.5 -9.5t-18 -11.5t-6 -15.5h180v-153h-326l-12 108q15 69 40 106.5t50 61.5q13 10 35 23t43.5 27t37.5 27.5t16 24.5q0 17 -15.5 23.5t-35.5 6.5q-28 0 -63 -17.5t-74 -47.5l-28 135
q19 19 43 34.5t48 26t47 16.5t40 6q25 0 52 -8t50 -29t38 -56.5t15 -90.5z" />
    <glyph glyph-name="four.sc" horiz-adv-x="442" 
d="M359 117v-117h-125v117h-207v104l241 332h91v-300h58v-136h-58zM173 253h61v88z" />
    <glyph glyph-name="six.sc" horiz-adv-x="458" 
d="M435 190q0 -54 -20.5 -91.5t-51 -61t-65.5 -34.5t-64 -11q-45 0 -84 16.5t-68.5 51t-46 88.5t-16.5 130q0 72 19.5 125t51.5 88.5t73 53t83 17.5q19 0 41 -5t43.5 -14t40 -22.5t31.5 -30.5l-26 -118q-30 29 -59 41t-65 12q-15 0 -32.5 -6.5t-33.5 -19.5t-27.5 -32
t-14.5 -43q9 9 21.5 17t27 14t29.5 9.5t28 3.5q35 0 68.5 -10t59.5 -31.5t41.5 -55t15.5 -81.5zM313 197q0 14 -20 23.5t-46 11.5q-8 0 -20 -2.5t-24.5 -9.5t-23.5 -17t-18 -25q7 -15 29.5 -28t41.5 -13q33 0 57 15t24 45z" />
    <glyph glyph-name="eight.sc" horiz-adv-x="430" 
d="M406 166q0 -40 -16 -72t-42 -54.5t-59.5 -34.5t-69.5 -12q-41 0 -77 11.5t-63 33.5t-43 54t-16 73q0 36 9.5 68t24.5 52q-31 43 -31 107q0 81 51.5 125t135.5 44q42 0 76.5 -11.5t60 -34t39.5 -54.5t14 -72q0 -32 -9 -57t-24 -42q17 -23 28 -55t11 -69zM271 168
q0 7 -6 15.5t-16.5 16t-24 13.5t-28.5 9q-24 -7 -40 -24t-16 -32q0 -14 16 -29.5t49 -15.5t49.5 16.5t16.5 30.5zM271 390q0 14 -17 31t-50 17t-49.5 -15t-16.5 -27q0 -15 23 -27.5t55 -20.5q21 8 38 18t17 24z" />
    <glyph glyph-name="zero.sc" horiz-adv-x="432" 
d="M408 271q0 -68 -16.5 -120t-43 -87t-60.5 -53t-68 -18q-33 0 -66 18t-60 53t-43.5 87t-16.5 120q0 73 16.5 128t43 91t60 54t66.5 18q34 0 68 -18t60.5 -54t43 -91t16.5 -128zM300 272q0 55 -21 91.5t-59 36.5q-37 0 -59 -36t-22 -92q0 -51 21.5 -82.5t59.5 -31.5
q19 0 34 9t25 24.5t15.5 36t5.5 44.5z" />
    <glyph glyph-name="a.001" horiz-adv-x="535" 
d="M313 68h-138l-20 -68h-138l178 565h135q20 -63 39.5 -128t40.5 -134t43.5 -144t49.5 -159h-173zM213 193h69l-30 149z" />
    <glyph glyph-name="b.001" horiz-adv-x="444" 
d="M26 0v564h237q37 0 64 -13t44.5 -36t25.5 -54.5t8 -67.5q0 -35 -14 -61t-30 -45q7 -7 15.5 -20t16 -28.5t12.5 -33t5 -34.5q0 -81 -39.5 -126t-100.5 -45h-244zM170 414v-70h76q13 0 19.5 11.5t6.5 22.5q0 13 -5 24.5t-14 11.5h-83zM170 218v-68h75q13 0 19.5 10t6.5 21
q0 13 -6 25t-16 12h-79z" />
    <glyph glyph-name="c.001" horiz-adv-x="492" 
d="M455 77q-11 -16 -29 -32t-41.5 -29t-51.5 -21t-59 -8q-52 0 -97.5 18.5t-79 56t-53 93.5t-19.5 131q0 69 18.5 124.5t50 93.5t74.5 58.5t91 20.5q21 0 47 -5.5t52.5 -16t50.5 -24.5t42 -31l-27 -173q-42 43 -81.5 59.5t-65.5 16.5q-15 0 -29 -6.5t-25.5 -20.5t-18 -36
t-6.5 -54t6.5 -54.5t17 -36.5t24 -20.5t27.5 -6.5q17 0 37 3.5t39.5 12t38 22.5t33.5 36l34 -171v0z" />
    <glyph glyph-name="d.001" horiz-adv-x="501" 
d="M30 0v564h222q51 0 89.5 -23t64 -62t38 -90t12.5 -106q0 -61 -14 -112.5t-42 -89.5t-69.5 -59.5t-96.5 -21.5h-204zM187 398v-76t-0.5 -50.5t-0.5 -34.5v-27v-43h24q42 0 60.5 30.5t18.5 82.5q0 54 -14 86t-62 32h-26z" />
    <glyph glyph-name="e.001" horiz-adv-x="434" 
d="M33 564h355v-154h-199v-64h167v-123h-166v-57h205v-166h-362v564z" />
    <glyph glyph-name="f.001" horiz-adv-x="417" 
d="M194 413q0 -17 0.5 -34t0.5 -34h158v-129h-158q0 -51 -0.5 -105t-0.5 -111h-156v564h354v-151h-198v0z" />
    <glyph glyph-name="g.001" horiz-adv-x="498" 
d="M386 385q-25 14 -53.5 28t-76.5 14q-17 0 -31 -10.5t-25 -29t-17 -44t-6 -56.5q0 -64 17.5 -101t64.5 -37q41 0 58 33v36h-84l-5 133h219v-253q-18 -19 -35.5 -38.5t-39.5 -35.5t-50.5 -26t-67.5 -10q-104 0 -165 75t-61 221q0 74 19.5 129.5t51 92t71 55t79.5 18.5
q46 0 95 -15.5t86 -47.5l-44 -131v0z" />
    <glyph glyph-name="h.001" horiz-adv-x="482" 
d="M283 189h-88v-189h-158v564h159v-203h87v203h159v-564h-159v189z" />
    <glyph glyph-name="i.001" horiz-adv-x="244" 
d="M46 564h157v-564h-157v564z" />
    <glyph glyph-name="j.001" horiz-adv-x="350" 
d="M137 -10q-20 0 -50.5 9.5t-62.5 28.5l28 152q20 -8 40.5 -14.5t34.5 -6.5q8 0 13 22t5 56v327h157v-359q0 -44 -12.5 -83t-35 -68.5t-52.5 -46.5t-65 -17z" />
    <glyph glyph-name="k.001" horiz-adv-x="482" 
d="M204 162l-18 -25v-137h-157l-1 564h158v-190l119 190h154v-15l-158 -239l161 -297v-13h-173z" />
    <glyph glyph-name="l.001" horiz-adv-x="433" 
d="M34 564h156v-391h219v-173h-373z" />
    <glyph glyph-name="m.001" horiz-adv-x="601" 
d="M411 205l-76 -197h-87l-66 195l-9 -203h-148l29 565h138l107 -289l117 289h120l33 -565h-147z" />
    <glyph glyph-name="n.001" horiz-adv-x="518" 
d="M201 255v-255h-155v564h104l164 -240v14q0 12 0.5 30t1 44.5t1 63.5t0.5 88h151v-564h-91z" />
    <glyph glyph-name="o.001" horiz-adv-x="507" 
d="M254 -14q-43 0 -83.5 18.5t-72.5 56t-51.5 92.5t-19.5 129q0 76 17.5 131.5t48 92.5t72 55t89.5 18q50 0 91.5 -19.5t71.5 -57.5t47 -94t17 -128q0 -74 -18.5 -129t-49.5 -92t-72 -55t-87 -18zM254 408q-41 0 -58.5 -34.5t-17.5 -93.5q0 -56 18 -90.5t58 -34.5t57.5 33.5
t17.5 91.5t-17.5 93t-57.5 35z" />
    <glyph glyph-name="p.001" horiz-adv-x="467" 
d="M190 125v-125h-156v564h225q39 0 71.5 -15.5t56.5 -44.5t37 -70t13 -91q0 -49 -15 -89.5t-40 -69t-57.5 -44t-67.5 -15.5h-67zM190 390v-108h58q12 0 25 17.5t13 38.5q0 23 -11 37.5t-21 14.5h-64z" />
    <glyph glyph-name="q.001" horiz-adv-x="554" 
d="M349 -12q-2 -10 5 -18.5t18 -15t24.5 -10t24.5 -4.5l-22 -136q-91 2 -136 51t-53 136q-90 15 -136 87.5t-46 197.5q0 71 18.5 127t51 94.5t77 59t97.5 20.5q51 0 95.5 -20.5t77 -59.5t51 -95t18.5 -126q0 -51 -11.5 -99.5t-32.5 -87.5t-51.5 -65.5t-69.5 -35.5zM272 412
q-42 0 -67.5 -38t-25.5 -98q0 -57 25.5 -92.5t67.5 -35.5q43 0 67.5 34.5t24.5 93.5q0 60 -24.5 98t-67.5 38z" />
    <glyph glyph-name="r.001" horiz-adv-x="478" 
d="M190 194v-194h-155l1 564h212q40 0 72.5 -13t56 -36.5t36.5 -56.5t13 -74q0 -30 -6 -59t-18.5 -53t-33 -41t-48.5 -24l121 -192v-15h-149zM190 404v-71h41q13 2 22 12.5t9 22.5t-8.5 24t-22.5 12h-41z" />
    <glyph glyph-name="s.001" horiz-adv-x="473" 
d="M246 -14q-53 0 -106.5 20.5t-121.5 68.5l36 146q24 -20 50 -35.5t50.5 -26t46 -15.5t37.5 -5q18 0 35 10.5t17 27.5q0 14 -19.5 20t-48 11.5t-62.5 13.5t-62.5 26.5t-48 51t-19.5 86.5q0 60 21 97t52 58t67.5 28.5t66.5 7.5q25 0 53.5 -4t56.5 -12.5t54.5 -21.5t46.5 -32
l-31 -140q-24 17 -51 29t-51.5 19.5t-46 11t-35.5 3.5q-23 0 -32 -8t-9 -22q0 -8 7.5 -12.5t17.5 -6t20.5 -1.5h16.5q35 -3 70 -13.5t63.5 -33t46 -59t17.5 -91.5q0 -59 -16 -97.5t-44 -60.5t-65 -30.5t-80 -8.5z" />
    <glyph glyph-name="t.001" horiz-adv-x="509" 
d="M333 0h-157l-1 401h-157v163h472v-163h-157v-401z" />
    <glyph glyph-name="u.001" horiz-adv-x="505" 
d="M251 -12q-112 0 -165 74t-52 208l2 295h155v-285q0 -38 4 -60.5t12 -34.5t19 -16t25 -4q11 0 21.5 5t18 18.5t12 36.5t4.5 58v282h153v-288q0 -138 -50.5 -213.5t-158.5 -75.5z" />
    <glyph glyph-name="v.001" horiz-adv-x="525" 
d="M208 -2l-190 534v32h160l90 -311l85 311h153v-32l-184 -534h-114z" />
    <glyph glyph-name="w.001" horiz-adv-x="684" 
d="M411 0l-61 257l-56 -257h-117l-159 531v33h178l43 -228l43 228h133l56 -235l35 235h158l1 -32l-143 -532h-111z" />
    <glyph glyph-name="x.001" horiz-adv-x="570" 
d="M273 148l-80 -148h-174l1 31l152 249l-145 252v32h177l76 -145l73 145h179v-31l-153 -246l156 -256v-31h-183z" />
    <glyph glyph-name="y.001" horiz-adv-x="498" 
d="M330 0h-165v217l-151 320v27h161l76 -166l64 166h156v-26l-141 -325v-213z" />
    <glyph glyph-name="z.001" horiz-adv-x="455" 
d="M412 159v-159h-387l1 105l171 300h-165v159h388v-104l-168 -301h160z" />
    <glyph glyph-name="eth.001" horiz-adv-x="498" 
d="M8 240v98h49v226h221q51 0 88 -23t61 -62t35.5 -90t11.5 -106q0 -61 -12.5 -112.5t-38 -89.5t-66 -59.5t-95.5 -21.5h-205v240h-49zM214 240q-2 -28 -2 -45.5v-37.5h25q42 0 60 35.5t18 87.5q0 27 -3 50.5t-11 40.5t-22.5 27t-38.5 10h-26v-70h49v-98h-49z" />
    <glyph glyph-name="lslash.001" horiz-adv-x="461" 
d="M209 287v-114h224v-173h-380q0 57 -1 112t-1 112l-41 -26v102l41 25v239h158v-172q9 6 22.5 12.5t21.5 11.5v-102z" />
    <glyph glyph-name="scaron.001" horiz-adv-x="495" 
d="M242 -14q-53 0 -106.5 20.5t-121.5 68.5l36 146q24 -20 50 -35.5t50.5 -26t46 -15.5t37.5 -5q18 0 35 10.5t17 27.5q0 14 -19.5 18.5t-48 8.5t-62.5 11t-62.5 25.5t-48 52.5t-19.5 93q0 60 20.5 97t51 58t66.5 28.5t66 7.5q40 0 97.5 -21.5t122.5 -65.5l-31 -130
q-24 17 -51.5 30t-54 22t-48.5 13.5t-36 4.5q-29 0 -35 -8t-6 -22q0 -8 7.5 -12.5t17.5 -6t20.5 -1.5h16.5q35 -3 70 -11t63.5 -28.5t46 -58t17.5 -99.5q0 -59 -16 -97.5t-44 -60.5t-65 -30.5t-80 -8.5zM287 615h-93l-105 178h122l32 -83l33 83h125z" />
    <glyph glyph-name="yacute.001" horiz-adv-x="491" 
d="M330 0h-165v217l-150 314v33h167l78 -176q5 12 9.5 23.5t8.5 22.5l44 130h149v-30l-141 -321v-213zM241 604h-144l124 168h161l3 -25z" />
    <glyph glyph-name="thorn.001" horiz-adv-x="443" 
d="M182 90v-9.5t0.5 -15.5t0.5 -25.5v-39.5h-156l-1 564h156v-72h72q30 0 58.5 -13t51 -39t36 -64t13.5 -87q0 -48 -12 -85t-32.5 -62.5t-48 -38.5t-59.5 -13h-79zM182 334v-13.5t0.5 -13t0.5 -24.5v-48h49q19 0 31.5 10t12.5 39t-13 40t-24 11z" />
    <glyph glyph-name="zcaron.001" horiz-adv-x="472" 
d="M422 159v-159h-387l1 105l171 300h-165v159h388v-104l-168 -301h160zM283 603h-94l-103 158h121l31 -63l34 63h124z" />
    <glyph glyph-name="aacute.001" horiz-adv-x="531" 
d="M311 68h-142l-18 -68h-134l178 565h135q20 -63 39.5 -128t39.5 -134t42 -144t47 -159h-172zM304 620h-145l125 168h162l1 -25zM209 193h69l-36 129z" />
    <glyph glyph-name="agrave.001" horiz-adv-x="527" 
d="M202 613l-137 143l1 25h158l121 -168h-143zM311 68h-142l-18 -68h-134l178 565h135q20 -63 39.5 -128t39.5 -134t42 -144t47 -159h-172zM209 193h69l-36 129z" />
    <glyph glyph-name="acircumflex.001" horiz-adv-x="519" 
d="M297 606l-33 53l-34 -53h-134l111 158h116l106 -158h-132zM311 68h-142l-18 -68h-134l178 565h135q20 -63 39.5 -128t39.5 -134t42 -144t47 -159h-172zM209 193h69l-36 129z" />
    <glyph glyph-name="adieresis.001" horiz-adv-x="521" 
d="M238 703q0 -29 -17.5 -50.5t-40.5 -21.5q-26 0 -43 21.5t-17 50.5t17 50.5t43 21.5q23 0 40.5 -21.5t17.5 -50.5zM391 703q0 -29 -17 -50.5t-41 -21.5t-41 21.5t-17 50.5t17 50t41 21t41 -21t17 -50zM311 68h-142l-18 -68h-134l178 565h135q20 -63 39.5 -128t39.5 -134
t42 -144t47 -159h-172zM209 193h69l-36 129z" />
    <glyph glyph-name="atilde.001" horiz-adv-x="524" 
d="M389 732q-6 -18 -16 -41t-22 -43.5t-24 -34t-22 -13.5q-17 0 -35 9t-32.5 20.5t-23.5 21t-8 10.5q-4 -1 -9.5 -15.5t-6.5 -33.5l-56 55q5 13 13.5 35.5t18 44t19.5 37.5t19 16q10 0 21.5 -11t24 -23.5t25.5 -23.5t25 -11q2 0 6.5 5t10 13t10 19t5.5 23zM311 68h-142
l-18 -68h-134l178 565h135q20 -63 39.5 -128t39.5 -134t42 -144t47 -159h-172zM209 193h69l-36 129z" />
    <glyph glyph-name="aring.001" horiz-adv-x="525" 
d="M379 715q0 -59 -28.5 -93t-90.5 -34q-63 0 -90.5 34t-27.5 93t27.5 93t90.5 34q62 0 90.5 -34t28.5 -93zM273 715q0 20 -2.5 29.5t-11.5 9.5q-15 0 -15 -39t15 -39q9 0 11.5 9.5t2.5 29.5zM311 68h-142l-18 -68h-134l178 565h135q20 -63 39.5 -128t39.5 -134t42 -144
t47 -159h-172zM209 193h69l-36 129z" />
    <glyph glyph-name="ccedilla.001" horiz-adv-x="516" 
d="M465 77q-11 -16 -33 -32.5t-49 -30t-55 -22.5t-50 -9l-11 -33q2 1 4 1t1 0q18 0 33 -3.5t26 -12t17 -23.5t6 -39t-9 -39.5t-23 -24.5t-30.5 -12.5t-31.5 -3.5q-21 0 -43 6.5t-42 20.5l11 56q15 -10 33 -14t29 -4q8 0 12.5 8t4.5 13q0 8 -1.5 16t-7.5 8q-5 0 -11 -8
q-3 -4 -5 -7l-68 21l29 86q-87 24 -131 100.5t-44 190.5q0 69 16.5 124.5t47 93.5t75 58.5t100.5 20.5q22 0 50 -5.5t56 -16t53 -24.5t40 -31l-26 -173q-20 21 -42.5 35.5t-43.5 23.5t-40 13t-32 4q-32 0 -54.5 -26.5t-22.5 -90.5t23 -91t52 -27q18 0 39 3.5t42 12
t40.5 22.5t34.5 36l31 -171v0z" />
    <glyph glyph-name="eacute.001" horiz-adv-x="440" 
d="M27 564h365v-154h-209v-64h147v-123h-146v-57h215v-166h-372v564zM250 610h-148l126 152h161l3 -25z" />
    <glyph glyph-name="egrave.001" horiz-adv-x="441" 
d="M27 564h365v-154h-209v-64h147v-123h-146v-57h215v-166h-372v564zM177 610l-138 127l3 25h157l120 -152h-142z" />
    <glyph glyph-name="ecircumflex.001" horiz-adv-x="440" 
d="M27 564h365v-154h-209v-64h147v-123h-146v-57h215v-166h-372v564zM246 607l-33 49l-33 -49h-134l110 154h115l109 -154h-134z" />
    <glyph glyph-name="edieresis.001" horiz-adv-x="450" 
d="M37 564h365v-154h-209v-64h147v-123h-146v-57h215v-166h-372v564zM358 685q0 -30 -17 -52t-42 -22q-23 0 -41 22t-18 52q0 31 18 52.5t41 21.5q25 0 42 -21.5t17 -52.5zM204 685q0 -30 -17.5 -52t-40.5 -22q-24 0 -42.5 22t-18.5 52q0 31 18.5 53t42.5 22q23 0 40.5 -22
t17.5 -53z" />
    <glyph glyph-name="iacute.001" horiz-adv-x="247" 
d="M154 592h-149l128 168h160l5 -25zM40 0v518h167v-518h-167z" />
    <glyph glyph-name="igrave.001" horiz-adv-x="223" 
d="M59 588l-128 143v25h158l113 -168h-143zM30 0v518h167v-518h-167z" />
    <glyph glyph-name="icircumflex.001" horiz-adv-x="298" 
d="M184 608l-34 53l-33 -53h-135l112 158h115l107 -158h-132zM60 0v518h166v-518h-166z" />
    <glyph glyph-name="idieresis.001" horiz-adv-x="277" 
d="M270 677q0 -32 -17 -54.5t-43 -22.5q-24 0 -41 22.5t-17 54.5t17.5 54.5t40.5 22.5q26 0 43 -22.5t17 -54.5zM118 677q0 -32 -17.5 -54.5t-41.5 -22.5q-25 0 -42.5 22.5t-17.5 54.5t17.5 55t42.5 23q24 0 41.5 -23t17.5 -55zM48 0v518h167v-518h-167z" />
    <glyph glyph-name="ntilde.001" horiz-adv-x="525" 
d="M201 255v-255h-155v564h104l164 -240v14q0 12 0.5 30t1 44.5t1 63.5t0.5 88h151v-564h-91zM388 721q-5 -18 -14.5 -41t-21.5 -43.5t-25 -34t-23 -13.5q-16 0 -33.5 9t-32 20.5t-24 21t-8.5 10.5q-5 -1 -9.5 -15.5t-6.5 -33.5l-56 55q5 13 14 35.5t18.5 44t19.5 37.5
t18 16q9 0 21 -11t24.5 -23.5t25 -23.5t24.5 -11q2 0 7 5t10.5 13t10 19t5.5 23z" />
    <glyph glyph-name="oacute.001" 
d="M246 -14q-49 0 -90.5 18.5t-72 56t-47.5 92.5t-17 129q0 152 59 224.5t168 72.5q107 0 167 -76.5t60 -222.5q0 -74 -16.5 -129t-46.5 -92t-71.5 -55t-92.5 -18zM246 408q-41 0 -58.5 -34.5t-17.5 -93.5q0 -56 18 -90.5t58 -34.5t57.5 33.5t17.5 91.5t-17.5 93t-57.5 35z
M276 605h-145l124 156h165v-25z" />
    <glyph glyph-name="ograve.001" horiz-adv-x="501" 
d="M246 -14q-105 0 -166 74.5t-61 221.5q0 152 55 224.5t172 72.5t172 -77t55 -222q0 -149 -59 -221.5t-168 -72.5zM246 408q-41 0 -58.5 -34.5t-17.5 -93.5q0 -56 18 -90.5t58 -34.5t57.5 33.5t17.5 91.5t-17.5 93t-57.5 35zM185 606l-137 130l2 25h158l120 -155h-143z" />
    <glyph glyph-name="ocircumflex.001" 
d="M246 -14q-105 0 -166 74.5t-61 221.5q0 152 55 224.5t172 72.5t172 -77t55 -222q0 -149 -59 -221.5t-168 -72.5zM246 408q-41 0 -58.5 -34.5t-17.5 -93.5q0 -56 18 -90.5t58 -34.5t57.5 33.5t17.5 91.5t-17.5 93t-57.5 35zM280 597l-32 60l-34 -60h-132l110 165h115
l105 -165h-132z" />
    <glyph glyph-name="odieresis.001" horiz-adv-x="495" 
d="M246 -14q-50 0 -92 18.5t-72 56t-46.5 92.5t-16.5 129q0 152 60 224.5t167 72.5q109 0 168 -76.5t59 -222.5q0 -74 -16 -129t-46 -92t-72 -55t-93 -18zM246 408q-41 0 -58.5 -34.5t-17.5 -93.5q0 -56 18 -90.5t58 -34.5t57.5 33.5t17.5 91.5t-17.5 93t-57.5 35zM383 693
q0 -30 -18 -51.5t-42 -21.5q-23 0 -41 21.5t-18 51.5t18 51.5t41 21.5q24 0 42 -21.5t18 -51.5zM230 693q0 -30 -18 -51.5t-42 -21.5q-25 0 -43 21.5t-18 51.5t18 52t43 22q24 0 42 -22t18 -52z" />
    <glyph glyph-name="otilde.001" 
d="M246 -14q-48 0 -89 18.5t-72 56t-48.5 92.5t-17.5 129q0 152 59.5 224.5t167.5 72.5q109 0 168 -76.5t59 -222.5q0 -74 -17 -129t-47 -92t-72 -55t-91 -18zM246 408q-41 0 -58.5 -34.5t-17.5 -93.5q0 -56 18 -90.5t58 -34.5t57.5 33.5t17.5 91.5t-17.5 93t-57.5 35z
M372 744q-5 -18 -15 -41t-22 -43.5t-24.5 -34t-22.5 -13.5q-17 0 -35 9t-32.5 20.5t-23.5 21t-8 10.5q-4 -1 -9 -15.5t-7 -33.5l-55 55q5 13 13.5 35.5t18.5 44t19.5 37.5t17.5 16q11 0 22.5 -11t23.5 -23.5t24.5 -23.5t25.5 -11q2 0 7 5t10.5 13t10 19t5.5 23z" />
    <glyph glyph-name="uacute.001" 
d="M251 -12q-112 0 -165 74t-52 208l2 295h155v-275q0 -38 4 -62t12 -38t19 -19.5t25 -5.5q22 0 39 28.5t17 99.5v272h153v-288q0 -138 -50.5 -213.5t-158.5 -75.5zM290 606h-146l126 156h161l1 -25z" />
    <glyph glyph-name="ugrave.001" 
d="M251 -12q-112 0 -165 74t-52 208v47q0 30 1 90.5t1 157.5h155v-275q0 -38 4 -62t12 -38t19 -19.5t25 -5.5q22 0 39 28.5t17 99.5v272h153v-288q0 -138 -50.5 -213.5t-158.5 -75.5zM203 606l-138 130l1 25h161l118 -155h-142z" />
    <glyph glyph-name="ucircumflex.001" 
d="M251 -12q-112 0 -165 74t-52 208v47q0 30 1 90.5t1 157.5h155v-275q0 -38 4 -62t12 -38t19 -19.5t25 -5.5q22 0 39 28.5t17 99.5v272h153v-288q0 -138 -50.5 -213.5t-158.5 -75.5zM279 607l-34 53l-33 -53h-132l110 158h115l106 -158h-132z" />
    <glyph glyph-name="udieresis.001" horiz-adv-x="500" 
d="M251 -12q-112 0 -165 74t-52 208v47q0 30 1 90.5t1 157.5h155v-275q0 -38 4 -62t12 -38t19 -19.5t25 -5.5q22 0 39 28.5t17 99.5v272h153v-288q0 -138 -50.5 -213.5t-158.5 -75.5zM233 689q0 -31 -17.5 -53.5t-40.5 -22.5q-26 0 -43 22.5t-17 53.5q0 32 17 55t43 23
q23 0 40.5 -23t17.5 -55zM387 689q0 -31 -17.5 -53.5t-42.5 -22.5q-24 0 -41 22.5t-17 53.5q0 32 17 54.5t41 22.5q25 0 42.5 -22.5t17.5 -54.5z" />
    <glyph glyph-name="ae.001" horiz-adv-x="738" 
d="M268 193h69l1 149zM338 68h-135l-32 -68h-167l292 564h407v-154h-209v-64h147v-123h-146v-57h215v-166h-372v68z" />
    <glyph glyph-name="oslash.001" horiz-adv-x="516" 
d="M409 517q72 -78 72 -237q0 -74 -17 -129t-47 -92t-71.5 -55t-91.5 -18q-40 0 -73 13l-27 -62h-106l52 117q-34 37 -53.5 93.5t-19.5 134.5q0 151 61 224t166 73q38 0 73 -11l31 70h104zM329 280q0 28 -4 47l-75 -172h4q40 0 57.5 33.5t17.5 91.5zM254 408
q-41 0 -58.5 -34.5t-17.5 -93.5q0 -24 3 -43l75 171h-2z" />
    <glyph glyph-name="oe.001" horiz-adv-x="713" 
d="M259 -14q-43 0 -85 18.5t-75 55.5t-53.5 92t-20.5 128q0 75 18.5 130.5t50 92t74 54t91.5 17.5q18 0 38.5 -2.5t39.5 -9.5h204q66 0 138 1v-153h-209l1 -59h184v-146h-184l-1 -55h213v-150h-355q-15 -8 -33 -11t-36 -3zM259 411q-31 0 -51.5 -37.5t-20.5 -96.5
q0 -27 5.5 -51t15 -41.5t23 -27.5t28.5 -10q30 0 47 36.5t17 93.5q0 58 -17 96t-47 38z" />
    <glyph glyph-name="ydieresis.001" horiz-adv-x="492" 
d="M330 0h-165v217l-150 314v33h157l86 -186q2 6 5 14t10 27t18.5 53t30.5 92h149v-30l-141 -321v-213zM383 696q0 -30 -17.5 -51.5t-41.5 -21.5q-23 0 -41 21.5t-18 51.5q0 15 5 28t13 22.5t19 15.5t22 6q24 0 41.5 -21.5t17.5 -50.5zM228 696q0 -30 -18.5 -51.5
t-42.5 -21.5q-23 0 -40.5 21.5t-17.5 51.5q0 15 5 28t13 23t18.5 16t21.5 6q24 0 42.5 -22t18.5 -51z" />
    <glyph glyph-name="emacron.001" horiz-adv-x="437" 
d="M32 564h365v-154h-209v-59h147v-133h-146v-52h215v-166h-372v564zM35 627v119h360v-119h-360z" />
    <glyph glyph-name="zero.osf" horiz-adv-x="439" 
d="M214 -5q-35 0 -69 16t-61 48t-43.5 79.5t-16.5 110.5q0 67 16.5 116.5t43.5 82t61 48.5t69 16t69.5 -16t61.5 -48.5t44 -82t17 -116.5q0 -63 -17 -110.5t-44 -79.5t-61.5 -48t-69.5 -16zM214 372q-29 0 -47 -35t-18 -88q0 -50 17 -81.5t48 -31.5q32 0 50 32.5t18 80.5
q0 52 -18 87.5t-50 35.5z" />
    <glyph glyph-name="one.osf" horiz-adv-x="352" 
d="M43 125h78v157l-45 -66l-57 89l144 198h82v-378h80v-125h-282v125z" />
    <glyph glyph-name="two.osf" horiz-adv-x="402" 
d="M370 374q0 -36 -12 -61.5t-32 -45.5t-45.5 -36.5t-52.5 -35.5q-15 -11 -23 -27.5t-7 -28.5h169v-139h-324l-14 98q23 74 56.5 120.5t73.5 73.5q16 11 31.5 22t28 21.5t20 20t7.5 17.5q0 7 -1.5 15t-6 14.5t-13 11t-21.5 4.5q-47 0 -137 -67l-40 115q51 42 93 63t84 21
q22 0 51 -7.5t54.5 -27t43 -53.5t17.5 -88z" />
    <glyph glyph-name="three.osf" horiz-adv-x="406" 
d="M172 -80q-39 0 -72 13t-76 42l18 145q18 -11 31.5 -20t27 -16t28.5 -11t36 -4q34 0 56 15.5t22 57.5q0 37 -15 49t-37 12q-17 0 -36 -7.5t-51 -30.5l-44 95l93 132h-114q0 38 1 75t1 75h313v-116l-72 -103q40 -13 65.5 -54t25.5 -121q0 -61 -17.5 -104.5t-46 -71
t-64.5 -40t-73 -12.5z" />
    <glyph glyph-name="four.osf" horiz-adv-x="467" 
d="M363 -54h-134v129h-203l-1 106l247 363h91v-327h84v-142h-84v-129zM229 217v86l-52 -86h52z" />
    <glyph glyph-name="five.osf" horiz-adv-x="432" 
d="M190 -62q-16 0 -36.5 4t-41.5 11t-40.5 17.5t-34.5 24.5l16 145q41 -28 74 -38.5t68 -10.5q37 0 51 19t14 40q0 18 -15.5 38t-43.5 20q-39 0 -66.5 -9t-38.5 -21l-66 53l36 311h300v-155h-199l-12 -70q14 9 29.5 16t35.5 7q28 0 59 -6.5t57.5 -27t44 -59t17.5 -102.5
q0 -63 -19 -103t-49 -63.5t-67 -32t-73 -8.5z" />
    <glyph glyph-name="six.osf" horiz-adv-x="473" 
d="M235 -6q-46 0 -84 19.5t-65.5 58.5t-43 96.5t-15.5 133.5q0 78 19.5 136t51.5 96.5t72.5 57.5t82.5 19q16 0 35.5 -3.5t39 -9.5t37 -14.5t28.5 -18.5l-20 -142q-23 20 -57.5 30t-62.5 10q-11 0 -24.5 -7t-25.5 -21t-22 -35t-14 -49q5 9 15 19t22 18.5t25.5 14.5t25.5 6
q39 0 72.5 -12.5t58 -38t38 -63t13.5 -88.5q0 -106 -51.5 -159.5t-150.5 -53.5zM256 276q-20 0 -43 -17t-40 -52q11 -31 30 -49t36 -18q34 0 54 18t20 55q0 33 -17 48t-40 15z" />
    <glyph glyph-name="seven.osf" horiz-adv-x="420" 
d="M25 -55l203 440h-198v157h360l2 -133l-218 -464h-149z" />
    <glyph glyph-name="eight.osf" horiz-adv-x="431" 
d="M222 -6q-40 0 -76 11.5t-63.5 35t-44 57.5t-16.5 79q0 42 15.5 75.5t32.5 56.5q-15 20 -31 49.5t-16 64.5q0 91 52 136.5t137 45.5q87 0 137 -47t50 -137q0 -37 -13.5 -63.5t-30.5 -44.5q21 -24 35.5 -57t14.5 -77t-15.5 -78.5t-41.5 -58t-59 -36t-67 -12.5zM214 466
q-16 0 -26.5 -4t-17 -9.5t-9 -12t-2.5 -11.5q0 -18 17 -33t48 -21q29 10 37.5 23t8.5 27q0 17 -12 29t-44 12zM198 242q-14 -3 -22 -10.5t-13 -17t-6.5 -19.5t-1.5 -19q0 -11 10.5 -24.5t40.5 -13.5q31 0 43.5 13.5t12.5 27.5q0 23 -16 40t-48 23z" />
    <glyph glyph-name="nine.osf" horiz-adv-x="473" 
d="M205 -65q-56 0 -104 14t-77 34l31 140q40 -18 74 -29t73 -11q11 0 25 7t26.5 21t22.5 35t13 49q-18 -23 -37 -37.5t-45 -14.5q-39 0 -73 11.5t-58.5 35.5t-38.5 61t-14 88q0 106 50.5 159.5t157.5 53.5q46 0 85.5 -19.5t68 -58.5t44.5 -96.5t16 -133.5q0 -78 -21 -136
t-55.5 -96.5t-77.5 -57.5t-86 -19zM227 406q-35 0 -54.5 -18t-19.5 -55q0 -33 19 -48t39 -15q41 0 80 69q-9 31 -30 49t-34 18z" />
    <glyph glyph-name="onefifth" horiz-adv-x="626" 
d="M30 290v411h106v-411h-106zM136 0h-83l297 700h82zM595 135q0 -42 -15 -68.5t-36.5 -42.5t-46 -22t-43.5 -6q-33 0 -65.5 10.5t-58.5 30.5l34 93q25 -17 49 -28t44 -11q18 0 26.5 17t8.5 30q0 14 -8.5 29.5t-23.5 15.5q-22 0 -41 -11.5t-27 -21.5l-61 39l9 211h232v-93
h-142q-1 -10 -1.5 -24t-2.5 -23q8 5 21 10t22 5q19 0 41 -6t41 -22t31.5 -43t12.5 -69z" />
    <glyph glyph-name="twofifths" horiz-adv-x="756" 
d="M723 135q0 -42 -14.5 -68.5t-36 -42.5t-45.5 -22t-42 -6q-33 0 -69 10.5t-62 30.5l35 93q24 -17 50.5 -28t46.5 -11q9 0 15.5 5t10 12t5 15.5t1.5 14.5q0 14 -8.5 29.5t-23.5 15.5q-22 0 -41 -11.5t-26 -21.5l-62 39l11 211h237v-93h-149q1 -10 -0.5 -24t-2.5 -23
q8 5 21 10t21 5q20 0 42.5 -6t41.5 -22t31.5 -43t12.5 -69zM290 570q0 -32 -9 -53.5t-24 -37.5t-34.5 -28.5t-40.5 -25.5q-14 -8 -14.5 -15.5t-3.5 -11.5h125v-105h-267l-5 74q4 25 12 43.5t18.5 32.5t22 24t22.5 19q40 29 66 47t26 37q0 14 -6.5 28.5t-24.5 14.5
q-15 0 -34.5 -11.5t-54.5 -37.5l-23 89q16 27 47.5 42.5t67.5 15.5q20 0 43.5 -6.5t43.5 -22.5t33.5 -43t13.5 -69zM263 0h-83l297 700h83z" />
    <glyph glyph-name="threefifths" horiz-adv-x="778" 
d="M305 415q0 -42 -14.5 -67.5t-35.5 -39t-45.5 -17.5t-45.5 -4q-35 0 -65.5 10t-68.5 42l25 92q34 -26 58.5 -33t41.5 -7q15 0 23.5 11t8.5 20q0 23 -10 27.5t-19 4.5h-68l-4 92h72q9 0 19.5 7.5t10.5 24.5q0 4 -1.5 10.5t-5 12.5t-8.5 10.5t-12 4.5q-8 0 -17 -1
t-20.5 -4.5t-25 -11.5t-31.5 -21l-33 87q26 28 60 37t70 9q21 0 45.5 -4.5t45.5 -18t35.5 -39t14.5 -67.5q0 -11 -4 -23t-11 -23.5t-16 -21t-18 -14.5q9 -4 18 -13t15.5 -21t11 -25t4.5 -26zM733 135q0 -42 -14.5 -68.5t-36 -42.5t-45.5 -22t-42 -6q-33 0 -69 10.5t-62 30.5
l35 93q24 -17 50.5 -28t46.5 -11q9 0 15.5 5t10 12t5 15.5t1.5 14.5q0 14 -8.5 29.5t-23.5 15.5q-22 0 -41 -11.5t-26 -21.5l-62 39l11 211h237v-93h-149q1 -10 -0.5 -24t-2.5 -23q8 5 21 10t21 5q20 0 42.5 -6t41.5 -22t31.5 -43t12.5 -69zM277 0h-82l296 700h83z" />
    <glyph glyph-name="fourfifths" horiz-adv-x="794" 
d="M279 367v-68h-110v68h-153v66l206 269l57 -1v-241h38v-93h-38zM289 0h-82l297 700h82zM169 537l-55 -77h55v77zM751 135q0 -42 -14.5 -68.5t-36 -42.5t-45.5 -22t-42 -6q-33 0 -69 10.5t-62 30.5l35 93q24 -17 50.5 -28t46.5 -11q9 0 15.5 5t10 12t5 15.5t1.5 14.5
q0 14 -8.5 29.5t-23.5 15.5q-22 0 -41 -11.5t-26 -21.5l-62 39l11 211h237v-93h-149q1 -10 -0.5 -24t-2.5 -23q8 5 21 10t21 5q20 0 42.5 -6t41.5 -22t31.5 -43t12.5 -69z" />
    <glyph glyph-name="fivefifths" horiz-adv-x="753" 
d="M264 0h-82l297 700h82zM723 135q0 -42 -14.5 -68.5t-36 -42.5t-45.5 -22t-42 -6q-33 0 -69 10.5t-62 30.5l35 93q24 -17 50.5 -28t46.5 -11q9 0 15.5 5t10 12t5 15.5t1.5 14.5q0 14 -8.5 29.5t-23.5 15.5q-22 0 -41 -11.5t-26 -21.5l-62 39l11 211h237v-93h-149
q1 -10 -0.5 -24t-2.5 -23q8 5 21 10t21 5q20 0 42.5 -6t41.5 -22t31.5 -43t12.5 -69zM310 434q0 -42 -14.5 -68.5t-36 -42.5t-45.5 -22t-42 -6q-33 0 -69 10.5t-62 30.5l35 93q24 -17 50.5 -28t46.5 -11q9 0 15.5 5t10 12t5 15.5t1.5 14.5q0 14 -8.5 29.5t-23.5 15.5
q-22 0 -41 -11.5t-26 -21.5l-62 39l11 211h237v-93h-149q1 -10 -0.5 -24t-2.5 -23q8 5 21 10t21 5q20 0 42.5 -6t41.5 -22t31.5 -43t12.5 -69z" />
    <glyph glyph-name="A.alt01" horiz-adv-x="701" 
d="M226 0h-211l251 703h166l260 -703h-207l-131 426zM293 121q0 26 17.5 43.5t43.5 17.5q24 0 42 -17.5t18 -43.5q0 -25 -18 -43.5t-42 -18.5q-26 0 -43.5 18.5t-17.5 43.5z" />
    <glyph glyph-name="one.sc" horiz-adv-x="311" 
d="M50 447q30 25 55 51t33 55h114v-553h-135v318q-10 -16 -28 -30.5t-39 -24.5v184z" />
    <glyph glyph-name="three.sc" horiz-adv-x="423" 
d="M391 180q0 -58 -18.5 -94.5t-45 -57t-57 -28t-54.5 -7.5q-37 0 -88 19.5t-99 53.5l28 136q40 -32 73 -48t65 -16q20 0 31 4.5t16.5 10.5t6.5 12.5t1 9.5q0 22 -16 31.5t-41 9.5l-16 -2t-15 -2q-8 -2 -15 -3q-11 32 -11.5 61.5t6.5 67.5q4 -1 18 -2.5t37 -1.5q6 0 15 3
t17.5 8.5t14.5 13t6 16.5q0 4 0.5 11.5t-3.5 14.5t-13.5 12.5t-30.5 5.5q-31 0 -69 -15t-78 -47l-25 133q20 18 44 31t48.5 22t48.5 13.5t44 4.5q24 0 54 -7.5t57 -27t45 -54t18 -88.5q0 -13 -4 -28t-10 -29t-14 -25.5t-16 -16.5q7 -4 15 -14.5t15 -25t11 -31.5t4 -34z" />
    <glyph glyph-name="five.sc" horiz-adv-x="426" 
d="M393 196q0 -57 -20 -96t-49 -62.5t-61.5 -33.5t-57.5 -10q-45 0 -87 20t-90 50l35 140q46 -32 77.5 -49t65.5 -17q22 0 35.5 6t20.5 14.5t9 18.5t2 19t-3 19t-10 19t-19 14.5t-30 5.5q-42 0 -65 -6t-32 -17l-77 53l16 266h321v-123h-213l-5 -57q17 6 31 8.5t35 2.5
q27 0 57 -7t55.5 -27.5t42 -56.5t16.5 -94z" />
    <glyph glyph-name="A.alt02" horiz-adv-x="696" 
d="M213 0h-208l250 703h167l259 -703h-209l-131 446z" />
    <glyph glyph-name="seven.sc" horiz-adv-x="431" 
d="M185 0h-148l204 406h-212v144h375l3 -123z" />
    <glyph glyph-name="nine.sc" horiz-adv-x="461" 
d="M442 274q0 -71 -19.5 -124t-52 -88t-74.5 -52.5t-88 -17.5q-42 0 -86 15t-76 49l22 118q15 -14 30 -22.5t31.5 -13t34.5 -6t39 -1.5q15 0 33.5 7t35.5 20t29.5 31.5t15.5 41.5q-9 -8 -21 -15.5t-26 -14t-28.5 -10.5t-28.5 -4q-33 0 -66.5 10.5t-60.5 32t-44 55.5t-17 82
q0 53 20.5 90t51 60.5t65 34t61.5 10.5q45 0 84.5 -16.5t69.5 -51.5t47.5 -89.5t17.5 -130.5zM218 324q7 0 20.5 2t27 8t24.5 16.5t13 27.5q-3 9 -11 16.5t-19 13t-24 8.5t-25 3q-35 0 -57.5 -14t-22.5 -44q0 -15 20 -25.5t54 -11.5z" />
    <glyph glyph-name="A.002" horiz-adv-x="644" 
d="M314 426l-135 -426h-167l236 703h131l236 -703h-166zM253 116q0 26 17.5 43.5t43.5 17.5q24 0 42 -17.5t18 -43.5q0 -25 -18 -43.5t-42 -18.5q-26 0 -43.5 18.5t-17.5 43.5z" />
    <glyph glyph-name="E.002" horiz-adv-x="510" 
d="M24 0l1 701h437v-174h-279v-94h142v-170h-142v-88h286v-175h-445z" />
    <glyph glyph-name="caron.alt" horiz-adv-x="168" 
d="M122 469l-102 1l24 231h119z" />
    <glyph glyph-name="commaaccent" horiz-adv-x="276" 
d="M248 -121q0 -27 -11 -56.5t-29 -56t-42 -48t-51 -32.5l-56 77q13 11 28.5 30t20.5 33q-13 11 -19.5 30.5t-6.5 39.5q0 19 8 33t20 24t26.5 15t27.5 5q37 0 60.5 -26t23.5 -68z" />
    <glyph glyph-name="B.002" horiz-adv-x="505" 
d="M24 701h267q43 0 75.5 -16t54 -44t32 -66.5t10.5 -82.5q0 -45 -13.5 -78.5t-33.5 -56.5q23 -27 38 -66.5t15 -81.5q0 -49 -13 -88t-35.5 -66t-54 -41t-67.5 -14h-275v427l148 1h104q29 0 38.5 16t9.5 34q0 20 -7.5 35.5t-33.5 15.5h-259v172zM322 218q0 20 -7.5 36.5
t-33.5 16.5h-109v-100h103q29 0 38 15t9 32z" />
    <glyph glyph-name="C.002" horiz-adv-x="552" 
d="M515 98q-14 -21 -34 -41.5t-47 -36.5t-60.5 -26t-74.5 -10q-59 0 -110.5 23.5t-89.5 69.5t-59.5 115t-21.5 161q0 85 19.5 153t55.5 115.5t86.5 73t111.5 25.5q74 0 128.5 -28.5t83.5 -69.5l-28 -188q-45 50 -87.5 69t-87.5 19q-24 0 -46 -9t-38.5 -28.5t-26.5 -50
t-10 -73.5q0 -42 10 -73t26.5 -50.5t38 -29t45.5 -9.5q50 0 94 17t82 69z" />
    <glyph glyph-name="D.002" horiz-adv-x="589" 
d="M26 701h267q62 0 108.5 -29t77 -77t45.5 -111.5t15 -132.5q0 -75 -17 -139t-50.5 -111.5t-83.5 -74t-117 -26.5h-245v433h159v-252h59q35 0 61 13t43.5 35.5t26.5 52.5t9 65q0 37 -6 69t-22 55t-42.5 36.5t-67.5 13.5l-220 -1v181z" />
    <glyph glyph-name="F.002" horiz-adv-x="488" 
d="M184 527v-104h144v-180h-144v-243h-157v701h435v-174h-278z" />
    <glyph glyph-name="G.002" horiz-adv-x="612" 
d="M504 446q-23 25 -43.5 42.5t-42.5 28.5t-48 16t-59 5q-28 0 -52.5 -13t-42.5 -36.5t-28.5 -56.5t-10.5 -74q0 -43 10 -78t27.5 -59.5t40.5 -37.5t50 -13q15 0 31.5 4t32 10.5t29 15t22.5 16.5v180h143v-276q-17 -21 -42 -45t-56 -43q-29 -20 -70 -33.5t-90 -13.5
q-56 0 -106.5 23.5t-88.5 70t-60.5 115.5t-22.5 160q0 92 25.5 161t65.5 114.5t90 68t98 22.5q39 0 79 -10.5t75.5 -28.5t63.5 -43.5t45 -55.5z" />
    <glyph glyph-name="H.002" horiz-adv-x="588" 
d="M357 0v193h-123v-193h-192v701h193v-318h122v318h195v-701h-195z" />
    <glyph glyph-name="I.002" horiz-adv-x="351" 
d="M322 543h-65v-384h65v-159h-293v160h74v383h-74v158h293v-158z" />
    <glyph glyph-name="J.002" horiz-adv-x="492" 
d="M71 219q9 -12 22.5 -24t30 -22t35 -16t38.5 -6q43 0 66.5 50.5t23.5 145.5v354h161v-344q0 -86 -15.5 -155t-47 -117t-78.5 -74t-110 -26q-68 0 -111 27t-74 69z" />
    <glyph glyph-name="K.002" horiz-adv-x="581" 
d="M384 0l-192 293v-293h-159v701h159v-300l194 300h171v-16l-226 -320l231 -344l1 -21h-179z" />
    <glyph glyph-name="L.002" horiz-adv-x="511" 
d="M32 0v701h169v-528h282v-173h-451z" />
    <glyph glyph-name="M.002" horiz-adv-x="752" 
d="M545 0v291l-136 -281h-78l-129 289v-299h-152v701h141l191 -388l193 388h123v-701h-153z" />
    <glyph glyph-name="N.002" horiz-adv-x="591" 
d="M462 0l-273 369v-41.5t-0.5 -64t-0.5 -104v-159.5h-154v701h100l259 -350q0 16 0.5 38.5t0.5 61.5t0.5 99t0.5 151h152v-701h-85z" />
    <glyph glyph-name="O.002" horiz-adv-x="631" 
d="M602 347q0 -92 -23 -160t-62.5 -114t-92.5 -68.5t-114 -22.5q-59 0 -112 23t-93 69.5t-63 115t-23 160.5q0 95 21.5 164.5t60.5 115.5t92.5 68t116.5 22t116.5 -24.5t92.5 -71.5t61 -116.5t22 -160.5zM450 347q0 39 -9 72.5t-27 57.5t-44 37.5t-60 13.5t-60 -13t-44 -37
t-27 -57.5t-9 -73.5q0 -38 9 -70t27 -55.5t44 -37t60 -13.5t60 13t44 36.5t27 55.5t9 71zM252 347q0 27 16.5 45t40.5 18q23 0 39.5 -18t16.5 -45q0 -26 -16.5 -45t-39.5 -19q-24 0 -40.5 19t-16.5 45z" />
    <glyph glyph-name="P.002" horiz-adv-x="502" 
d="M18 701h261q91 0 144.5 -66.5t53.5 -191.5q0 -61 -16 -109t-43 -81t-63.5 -50.5t-77.5 -17.5h-101v-185h-159l1 366h247q30 0 45.5 21.5t15.5 53.5q0 70 -55 70h-252z" />
    <glyph glyph-name="Q.002" horiz-adv-x="651" 
d="M620 343q0 -65 -15 -124.5t-42.5 -107t-66 -80t-85.5 -42.5l109 -220h-159l-110 218q-51 9 -93 36.5t-73 72.5t-48 107t-17 140q0 89 24 158.5t65 117.5t95.5 73.5t116.5 25.5t116.5 -25.5t95 -74t64 -118t23.5 -157.5zM470 343q0 40 -10.5 73.5t-30 58t-47 38
t-61.5 13.5q-35 0 -62.5 -13.5t-47.5 -37.5t-30.5 -58t-10.5 -74q0 -38 10.5 -70t30.5 -55t47.5 -36t62.5 -13q69 0 109 47.5t40 126.5z" />
    <glyph glyph-name="R.002" horiz-adv-x="548" 
d="M27 424h255q27 1 40.5 19t13.5 37q0 18 -11 37.5t-40 20.5h-258v163h286q91 0 137.5 -60t46.5 -160q0 -38 -9.5 -71t-26.5 -60.5t-39.5 -48t-49.5 -32.5l152 -239v-30h-159l-160 248h-20v-248h-157z" />
    <glyph glyph-name="S.002" horiz-adv-x="539" 
d="M508 224q0 -73 -22 -119.5t-57 -73.5t-78 -37.5t-85 -10.5q-65 0 -123 19.5t-118 65.5l24 180q28 -25 57.5 -40.5t57 -24.5t52 -12t42.5 -3q17 0 34.5 3.5t31 10t22 17t8.5 24.5q0 12 -12.5 20t-30.5 12.5t-38.5 7t-36.5 4.5q-35 3 -72.5 13.5t-68.5 34.5t-51 64.5
t-20 104.5q0 73 25.5 118.5t62 71t78 34.5t74.5 9q59 0 117.5 -18.5t112.5 -62.5l-15 -160q-27 21 -56 33.5t-57.5 19.5t-55 9.5t-46.5 2.5q-27 0 -44 -5t-26.5 -12.5t-13 -15t-3.5 -13.5q0 -12 11.5 -19t27.5 -11t32.5 -5t26.5 -1q23 -3 49 -7.5t52 -14t50 -25t42 -41
t29 -61.5t11 -86z" />
    <glyph glyph-name="T.002" horiz-adv-x="562" 
d="M356 512v-513h-160l-1 513h-181v188h523v-188h-181z" />
    <glyph glyph-name="U.002" horiz-adv-x="587" 
d="M547 357q0 -86 -16.5 -155t-49 -117t-80.5 -74t-111 -26q-65 0 -114 25.5t-82 72.5t-49.5 114.5t-16.5 150.5v352h157v-326q0 -51 7.5 -86t21.5 -56.5t33 -31t43 -9.5q43 0 72 45.5t29 140.5v323h156v-343v0z" />
    <glyph glyph-name="V.002" horiz-adv-x="630" 
d="M375 -2h-118l-241 678l1 25h162l139 -411l135 411h154v-23z" />
    <glyph glyph-name="W.002" horiz-adv-x="901" 
d="M659 -2h-120l-84 238l-80 -238h-118l-241 678v25h163l139 -411l55 177l-74 209v25h162l141 -411l123 411h153v-23z" />
    <glyph glyph-name="X.002" horiz-adv-x="600" 
d="M399 0l-111 195l-115 -195h-165v27l187 321q-22 37 -45 78t-46 83t-46 83t-44 80v29h170l109 -191l108 191h164l1 -28l-180 -316l189 -329v-28h-176z" />
    <glyph glyph-name="Y.002" horiz-adv-x="610" 
d="M370 110q-9 -23 -27.5 -43t-41.5 -35t-48.5 -23.5t-48.5 -8.5h-119v176h118q3 -1 6.5 1t5.5 5.5t2 6.5t-3 5q-65 146 -116.5 268t-83.5 210l-1 28h175l116 -322l115 322h165v-24z" />
    <glyph glyph-name="Z.002" horiz-adv-x="521" 
d="M243 174h244v-174h-465l1 120l257 407h-251v174h468v-118z" />
    <glyph glyph-name="kratka" horiz-adv-x="433" 
d="M351 732q0 -41 -10 -76t-28 -60.5t-42.5 -40.5t-52.5 -15q-31 0 -57 15t-44.5 41t-28.5 61t-10 75h89q1 -44 15 -68.5t34 -24.5q19 0 34.5 26t10.5 67h90v0z" />
    </font>
</defs>
</svg>
