<?xml version="1.0" standalone="no"?>
<!DOCTYPE svg PUBLIC "-//W3C//DTD SVG 1.1//EN" "http://www.w3.org/Graphics/SVG/1.1/DTD/svg11.dtd" >
<svg xmlns="http://www.w3.org/2000/svg" xmlns:xlink="http://www.w3.org/1999/xlink" version="1.1">
<metadata>
Created by FontForge 20170731 at Mon Mar 21 12:26:41 2022
 By Aleksey,,,
Copyright (c) Chank Co, 2007. All rights reserved. Do not redistribute or alter this font without permission.
</metadata>
<defs>
<font id="Adrianna-Bold" horiz-adv-x="1202" >
  <font-face 
    font-family="Adrianna Rg"
    font-weight="700"
    font-stretch="normal"
    units-per-em="2048"
    panose-1="2 0 8 5 6 0 0 2 0 4"
    ascent="1575"
    descent="-473"
    x-height="1010"
    cap-height="1434"
    bbox="-242 -645 2382 2079"
    underline-thickness="20"
    underline-position="-155"
    unicode-range="U+0020-FB02"
  />
<missing-glyph horiz-adv-x="1142" 
d="M1032 1479v-1479h-934v1479h934zM565 682l-372 -614h743zM197 1411l368 -608l369 608h-737zM528 741l-368 609v-1217zM602 741l365 -604v1206z" />
    <glyph glyph-name="fi" unicode="fi" horiz-adv-x="1417" 
d="M780 1483l-30 -283q-18 10 -35 17t-33.5 9.5t-25.5 3t-24 0t-16 -0.5q-56 0 -86 -36t-30 -103v-80h237v-246h-237v-764h-291v764h-121v246h121v127q0 88 40.5 177t104.5 140q97 74 219 74q97 0 207 -45zM1280 1284q0 -66 -44 -110t-103 -44q-57 0 -101.5 44t-44.5 110
q0 65 44 110.5t102 45.5t102.5 -45.5t44.5 -110.5zM1274 0h-287v1010h287v-1010z" />
    <glyph glyph-name="fl" unicode="fl" horiz-adv-x="1368" 
d="M780 1483l-30 -283q-18 10 -35 17t-33.5 9.5t-25.5 3t-24 0t-16 -0.5q-56 0 -86 -36t-30 -103v-80h237v-246h-237v-764h-291v764h-121v246h121v127q0 88 40.5 177t104.5 140q97 74 219 74q97 0 207 -45zM1243 0h-295v1520h295v-1520z" />
    <glyph glyph-name=".notdef" horiz-adv-x="1142" 
d="M1032 1479v-1479h-934v1479h934zM565 682l-372 -614h743zM197 1411l368 -608l369 608h-737zM528 741l-368 609v-1217zM602 741l365 -604v1206z" />
    <glyph glyph-name=".null" horiz-adv-x="0" 
 />
    <glyph glyph-name=".null" horiz-adv-x="0" 
 />
    <glyph glyph-name="nonmarkingreturn" horiz-adv-x="682" 
 />
    <glyph glyph-name="space" unicode=" " horiz-adv-x="657" 
 />
    <glyph glyph-name="exclam" unicode="!" horiz-adv-x="653" 
d="M485 1436l-43 -934h-245l-45 934h333zM475 166q0 -76 -48 -129t-114 -53q-65 0 -112 53t-47 129q0 75 47 128.5t112 53.5q66 0 114 -53.5t48 -128.5z" />
    <glyph glyph-name="quotedbl" unicode="&#x22;" horiz-adv-x="899" 
d="M795 1122l-21 -323h-231l-21 323l-2 314h275v-314zM338 1122l-21 -323h-233l-21 323v314h273z" />
    <glyph glyph-name="numbersign" unicode="#" horiz-adv-x="1363" 
d="M1233 1108l-12 -215h-234q-1 -22 -8.5 -122t-9.5 -155h233l-12 -217h-236l-14 -305h-190l16 305h-254q-2 -49 -8 -152.5t-8 -152.5h-191l19 305h-250l12 217h248l20 277h-250l13 215h250l16 285h192l-20 -285h256q11 172 16 285h191l-21 -285h236zM797 893h-252
q-11 -125 -21 -277h254q2 54 9.5 149.5t9.5 127.5z" />
    <glyph glyph-name="dollar" unicode="$" horiz-adv-x="1222" 
d="M1165 465q0 -73 -20.5 -135t-55 -106t-82 -78.5t-98.5 -55.5t-108.5 -34.5t-108 -19t-100.5 -5.5h-27l-39 -207h-196l47 233q-70 18 -144 55.5t-182 106.5l99 264q13 -7 44.5 -24.5t43.5 -24t37.5 -20.5t37 -19.5t31.5 -15.5t32.5 -15.5t27.5 -11.5t28 -10l45 240
q-69 12 -124 27.5t-115 46.5t-99.5 72.5t-65.5 107.5t-26 149q0 73 20.5 134.5t54 104t80.5 75.5t96 52.5t105.5 32t104 17t94.5 4.5h37l37 192l196 2l-45 -223q153 -45 312 -151l-95 -244q-152 91 -270 119q-7 -40 -22.5 -116t-22.5 -116q48 -7 86.5 -14.5t85.5 -22.5
t83 -34.5t71 -50.5t58.5 -69.5t37.5 -92.5t14 -119zM872 465q0 44 -55 63q-34 12 -72 17l-77 12q-8 -49 -25 -132t-22 -108q66 6 120.5 23t92.5 49.5t38 75.5zM584 1122q-71 -1 -123 -14t-77.5 -33t-36.5 -40t-11 -40q0 -78 203 -104q7 43 23.5 123.5t21.5 107.5z" />
    <glyph glyph-name="percent" unicode="%" horiz-adv-x="1447" 
d="M1362 332q0 -141 -89.5 -240.5t-215.5 -99.5q-125 0 -214 99.5t-89 240.5q0 142 89 242t214 100q126 0 215.5 -100t89.5 -242zM1319 1436l-1043 -1436h-198l1036 1434zM639 1108q0 -142 -88.5 -242t-214.5 -100t-214.5 100t-88.5 242q0 141 88.5 240.5t214.5 99.5
t214.5 -99.5t88.5 -240.5zM1155 332q0 58 -29 96.5t-69 38.5q-39 0 -69 -39t-30 -96q0 -56 30 -95.5t69 -39.5q40 0 69 39.5t29 95.5zM434 1108q0 56 -29.5 95.5t-68.5 39.5q-40 0 -69 -39.5t-29 -95.5q0 -58 29 -96.5t69 -38.5q39 0 68.5 39t29.5 96z" />
    <glyph glyph-name="ampersand" unicode="&#x26;" horiz-adv-x="1449" 
d="M1368 2h-281l-141 162q-180 -184 -368 -184q-50 0 -93 3.5t-97.5 15t-98 31t-87.5 54.5t-73 82.5t-47.5 118t-18.5 157.5q0 76 26.5 143.5t72.5 117.5t95 86.5t108 66.5l-13 14l-61 91q-58 83 -58 174q0 137 120 234t300 97q76 0 139 -19t107 -51.5t74.5 -76.5
t44.5 -93.5t14 -103.5q0 -80 -37.5 -151t-87 -115.5t-119.5 -89.5q18 -21 69 -84t81 -98q38 58 69 109t43 73l11 22l199 -137q-66 -135 -152 -270q43 -50 130 -154.5t130 -154.5v-70zM774 367l-225 272q-95 -50 -145 -96.5t-50 -108.5q0 -57 19.5 -95.5t55 -57t74 -26
t89.5 -7.5q78 0 182 119zM762 1124q0 42 -24 73.5t-81 31.5q-59 0 -92 -29.5t-33 -73.5q0 -36 23 -69l70 -92q48 31 92.5 82.5t44.5 76.5z" />
    <glyph glyph-name="quotesingle" unicode="'" horiz-adv-x="413" 
d="M334 1221l-19 -422h-237l-19 422l2 215h271z" />
    <glyph glyph-name="parenleft" unicode="(" horiz-adv-x="747" 
d="M668 1546q-137 -175 -203 -292t-94.5 -238t-28.5 -295q0 -227 67.5 -402t254.5 -401l-156 -133q-222 191 -346.5 427.5t-124.5 510.5q0 161 39 309t107 264.5t149 206.5t176 158z" />
    <glyph glyph-name="parenright" unicode=")" horiz-adv-x="731" 
d="M664 723q0 -275 -124 -511.5t-345 -426.5l-154 135q186 224 253.5 400t67.5 401q0 258 -70.5 428.5t-262.5 388.5l168 123q94 -68 174.5 -158.5t147.5 -207t106 -264.5t39 -308z" />
    <glyph glyph-name="asterisk" unicode="*" horiz-adv-x="1042" 
d="M991 793l-315 -58q120 -148 215 -260l-215 -172l-162 342q-6 -11 -172 -332l-215 172l229 256l-311 70l82 281l303 -164q-4 59 -10.5 127t-14.5 150t-12 126h266l-51 -405q18 8 301 147z" />
    <glyph glyph-name="plus" unicode="+" horiz-adv-x="972" 
d="M907 561h-313v-371h-221v371h-314v244h314v373h221v-373h313v-244z" />
    <glyph glyph-name="comma" unicode="," horiz-adv-x="444" 
d="M391 141q0 -132 -87.5 -265.5t-199.5 -184.5l-59 164q38 30 79 73.5t52 77.5q-56 0 -89.5 59t-33.5 121q0 76 51 121t121 45q72 0 119 -59t47 -152z" />
    <glyph glyph-name="hyphen" unicode="-" horiz-adv-x="845" 
d="M735 502h-669v252h669v-252z" />
    <glyph glyph-name="period" unicode="." horiz-adv-x="491" 
d="M406 170q0 -78 -48 -133t-114 -55q-65 0 -111.5 55t-46.5 133q0 79 46.5 133.5t111.5 54.5q67 0 114.5 -54.5t47.5 -133.5z" />
    <glyph glyph-name="slash" unicode="/" horiz-adv-x="1032" 
d="M1016 1575l-762 -1704h-258l762 1704h258z" />
    <glyph glyph-name="zero" unicode="0" horiz-adv-x="1529" 
d="M1448 692q0 -135 -39.5 -251.5t-106.5 -199t-155.5 -142t-187.5 -88.5t-201 -29q-130 0 -252.5 47t-222 133.5t-160 224.5t-60.5 305q0 146 39.5 269.5t107 209.5t157 147t188.5 89.5t203 28.5q103 0 201.5 -28.5t187.5 -89.5t155.5 -147t106 -209.5t39.5 -269.5z
M1137 692q0 192 -105 317.5t-274 125.5q-171 0 -275 -125t-104 -318q0 -183 103.5 -296t275.5 -113q170 0 274.5 117.5t104.5 291.5z" />
    <glyph glyph-name="one" unicode="1" horiz-adv-x="956" 
d="M754 0h-303v913l-181 -241l-172 209l398 530h258v-1411z" />
    <glyph glyph-name="two" unicode="2" horiz-adv-x="1329" 
d="M1219 967q0 -47 -9.5 -90.5t-23.5 -78.5t-41 -69.5t-49.5 -59.5t-62 -53.5t-66 -46t-74 -42.5t-73 -37.5t-75.5 -36.5l-63 -29q-172 -69 -229 -135h755v-289h-1099l-33 219q34 90 77.5 159t98.5 119t110 85t132 71q15 7 66.5 31.5t78.5 38.5q151 82 219 135.5t68 106.5
q0 37 -11 65t-38.5 53t-82.5 38.5t-135 13.5q-219 0 -485 -160l-96 260q153 103 292 151t289 48q71 0 142 -12t148.5 -45.5t135.5 -83.5t96 -134.5t38 -191.5z" />
    <glyph glyph-name="three" unicode="3" horiz-adv-x="1329" 
d="M1227 438q0 -108 -41.5 -192t-103.5 -132.5t-145.5 -79.5t-156 -41.5t-145.5 -10.5q-261 0 -537 172l66 282q251 -157 471 -157q80 0 136 14.5t82.5 38.5t37 46.5t10.5 47.5q0 98 -127 139q-82 10 -137 10q-44 0 -88 -4.5t-66 -8.5l-22 -5q-19 53 -19 148q0 89 19 151
q2 -2 24.5 -7t67 -10t88.5 -5q34 0 74.5 8t84 24.5t72.5 49t29 75.5q0 25 -10.5 47.5t-37 46.5t-82.5 38t-136 14q-219 0 -471 -158l-64 283q253 172 535 172q73 0 145.5 -10t155.5 -41t144.5 -79t103 -132t41.5 -193q0 -155 -135 -260q137 -90 137 -281z" />
    <glyph glyph-name="four" unicode="4" horiz-adv-x="1341" 
d="M1257 324h-182v-324h-295v324h-684v198l778 891l201 -2v-836h182v-251zM780 575v369l-329 -369h329z" />
    <glyph glyph-name="five" unicode="5" horiz-adv-x="1341" 
d="M1255 457q0 -91 -29 -166t-79 -125t-111 -86.5t-131 -56t-131.5 -28.5t-120.5 -9q-149 0 -286.5 46.5t-282.5 145.5l96 260q251 -157 473 -157q80 0 140.5 17.5t92.5 46.5t47 59.5t15 62.5q0 36 -11.5 68.5t-37.5 63.5t-77 49t-122 18q-226 0 -346 -109h-241l45 846h1032
v-293h-766q-3 -44 -11.5 -127t-11.5 -127q148 76 308 76q75 0 146 -12t145.5 -45.5t129.5 -84.5t90 -137t35 -196z" />
    <glyph glyph-name="six" unicode="6" horiz-adv-x="1404" 
d="M1325 471q0 -102 -41.5 -187t-107.5 -140t-149.5 -93t-164.5 -54.5t-157 -16.5q-133 0 -246.5 43.5t-203 129.5t-141 229.5t-51.5 330.5q0 176 58 317t155.5 228t219 132.5t254.5 45.5q149 0 277 -42.5t208 -117.5l-92 -244q-91 66 -171.5 90.5t-236.5 24.5
q-157 0 -263.5 -103.5t-119.5 -273.5q160 180 428 180q109 0 208 -34t174 -94.5t119 -151.5t44 -199zM1057 494q0 75 -94 130t-187 46q-49 -4 -99.5 -15t-109 -32t-107.5 -57.5t-75 -84.5q24 -90 118 -147.5t193 -57.5q72 0 133 10.5t114 34t83.5 68t30.5 105.5z" />
    <glyph glyph-name="seven" unicode="7" horiz-adv-x="1273" 
d="M1194 1130l-727 -1130h-338l702 1108h-729v295h1086z" />
    <glyph glyph-name="eight" unicode="8" horiz-adv-x="1302" 
d="M1235 403q0 -126 -81 -223.5t-208 -146.5t-276 -49q-166 0 -303 47.5t-221.5 143t-84.5 222.5q0 110 52.5 198t136.5 136q-83 47 -130.5 122.5t-47.5 168.5q0 196 153.5 304t417.5 108q263 0 418.5 -112t155.5 -308q0 -92 -50.5 -159t-132.5 -107q90 -56 145.5 -148
t55.5 -197zM930 1016q0 63 -72.5 110.5t-208.5 47.5q-137 0 -207.5 -42t-70.5 -102q0 -59 90.5 -108.5t228.5 -71.5q131 32 185.5 70t54.5 96zM903 410q0 60 -90.5 120t-220.5 80q-118 -22 -179 -81t-61 -128q0 -62 68 -104.5t205 -42.5q135 0 206.5 47t71.5 109z" />
    <glyph glyph-name="nine" unicode="9" horiz-adv-x="1398" 
d="M1325 705q0 -142 -36.5 -262t-100.5 -204.5t-150.5 -143.5t-186 -87t-208.5 -28q-291 0 -479 159l82 246q92 -67 171 -92t232 -25q155 0 262.5 105t124.5 272q-180 -203 -436 -203q-145 0 -267.5 62.5t-196 177.5t-73.5 258q0 103 36.5 188t97.5 141t142.5 94.5
t168.5 55.5t178 17q297 0 468 -189t171 -542zM1008 940q-30 87 -128 155t-188 68q-76 0 -137 -12t-110.5 -38.5t-77 -74t-27.5 -112.5q0 -60 45 -111t108 -77.5t123 -26.5q67 0 145 27t148.5 81t98.5 121z" />
    <glyph glyph-name="colon" unicode=":" horiz-adv-x="532" 
d="M397 840q0 -79 -48 -135t-116 -56q-66 0 -113.5 56t-47.5 135q0 78 47.5 134t113.5 56q67 0 115.5 -56t48.5 -134zM397 180q0 -81 -48 -135.5t-116 -54.5q-67 0 -114 54.5t-47 135.5q0 78 47.5 133.5t113.5 55.5q68 0 116 -55.5t48 -133.5z" />
    <glyph glyph-name="semicolon" unicode=";" horiz-adv-x="516" 
d="M395 838q0 -78 -47.5 -134.5t-114.5 -56.5q-66 0 -113.5 56.5t-47.5 134.5q0 79 47.5 135.5t113.5 56.5q67 0 114.5 -56t47.5 -136zM391 98q0 -133 -87.5 -268t-199.5 -186l-59 166q30 23 75.5 78.5t63.5 93.5h-8q-56 0 -84.5 50.5t-28.5 114.5q0 74 51.5 119t110.5 45
q72 0 119 -60t47 -153z" />
    <glyph glyph-name="less" unicode="&#x3c;" horiz-adv-x="1241" 
d="M1114 -35l-1059 627v256l1059 602v-340l-682 -395q127 -75 359 -214.5t323 -193.5v-342z" />
    <glyph glyph-name="equal" unicode="=" horiz-adv-x="878" 
d="M809 752h-741v258h741v-258zM809 268h-741v258h741v-258z" />
    <glyph glyph-name="greater" unicode="&#x3e;" horiz-adv-x="1292" 
d="M1153 592l-1059 -627v342l682 408q-80 46 -316 183.5t-366 211.5v340l1059 -602v-256z" />
    <glyph glyph-name="question" unicode="?" horiz-adv-x="1136" 
d="M1079 1024q0 -84 -23.5 -147.5t-50 -98.5t-85 -65t-87 -38.5t-98.5 -26.5q-6 -2 -9 -2.5t-8 -2t-9 -2.5q-107 -30 -132 -42q-54 -28 -55 -71q0 -31 19 -73h-250q-21 64 -21 129q0 30 4.5 56t14.5 47.5t20.5 39t29.5 32.5t32.5 26t39 21.5t40.5 16.5t44.5 14.5t43.5 12
t45 10.5q40 10 65.5 17.5t56 21t48 29.5t29.5 40.5t12 55.5q0 154 -281 154q-59 0 -106.5 -10t-98.5 -37t-83.5 -49t-100.5 -72l-105 229q118 103 237 150t257 47q50 0 97.5 -4t105.5 -15.5t107.5 -30t97.5 -51t82 -74t54.5 -102.5t20.5 -135zM594 166q0 -77 -47.5 -129.5
t-108.5 -52.5q-62 0 -109.5 52.5t-47.5 129.5t47.5 129.5t109.5 52.5q61 0 108.5 -52.5t47.5 -129.5z" />
    <glyph glyph-name="at" unicode="@" horiz-adv-x="1597" 
d="M1493 776q0 -166 -54.5 -302t-147.5 -213t-204 -77q-68 0 -134 51.5t-101 124.5q-46 -51 -104 -86.5t-105 -35.5q-81 0 -144 43.5t-98 113t-50.5 152t-8.5 166.5v-2q7 88 39.5 168t85.5 142.5t132 100t171 37.5q49 0 94 -34.5t78 -84.5l21 74h229l-150 -524
q-10 -34 -10 -68q0 -53 27.5 -83.5t62.5 -30.5q71 0 131 103t60 263q0 129 -41 231t-111.5 164.5t-159.5 94.5t-190 32q-116 0 -219.5 -33.5t-187.5 -100t-133.5 -177.5t-49.5 -254q0 -280 167 -459.5t423 -179.5q110 0 219 64l43 -185q-138 -69 -262 -69
q-167 0 -307.5 55.5t-242 159t-158 260t-56.5 350.5q0 162 42 292.5t113.5 216.5t170 143.5t207.5 82.5t231 25q137 0 259.5 -48t217 -136.5t150 -225t55.5 -301.5zM883 791q-16 85 -52 126t-77 41q-53 0 -113.5 -78t-73.5 -182q-4 -25 -4 -61q0 -86 29.5 -121t71.5 -35
q39 0 94 30.5t82 80.5z" />
    <glyph glyph-name="A" unicode="A" horiz-adv-x="1499" 
d="M1436 0h-322l-98 268h-570l-108 -268h-313l596 1440h245zM907 559l-174 451l-178 -451h352z" />
    <glyph glyph-name="B" unicode="B" horiz-adv-x="1333" 
d="M1210 412q0 -189 -118 -300.5t-301 -111.5h-678v1436h657q205 0 315.5 -115t110.5 -297q0 -98 -42.5 -172t-111.5 -121q71 -48 119.5 -136t48.5 -183zM922 1001q0 64 -46 107t-143 43h-311v-299h295q98 0 151.5 44t53.5 105zM915 424q0 65 -46 110.5t-140 45.5h-307v-295
h293q99 0 149.5 40.5t50.5 98.5z" />
    <glyph glyph-name="C" unicode="C" horiz-adv-x="1394" 
d="M1178 496l145 -267q-238 -247 -586 -247q-135 0 -255.5 48t-214.5 138t-149 233.5t-55 321.5q0 133 38 252t104 206.5t151 151.5t181.5 96.5t193.5 32.5q346 0 578 -215l-138 -284q-108 98 -204.5 144t-227.5 46q-153 0 -258.5 -119.5t-105.5 -314.5q0 -193 106.5 -315.5
t255.5 -122.5q68 0 128.5 15.5t116 48.5t98 66.5t98.5 84.5z" />
    <glyph glyph-name="D" unicode="D" horiz-adv-x="1447" 
d="M1356 719q0 -204 -87.5 -367.5t-251 -257.5t-376.5 -94h-528v1436h585q147 0 272 -59t208.5 -158t130.5 -229t47 -271zM1061 711q0 92 -24 168.5t-74 138.5t-136.5 96.5t-203.5 34.5h-191q0 -145 -1 -430t-1 -430h186q200 0 322.5 123.5t122.5 298.5z" />
    <glyph glyph-name="E" unicode="E" horiz-adv-x="1271" 
d="M1143 0h-1030l2 1436h1005v-295h-686q0 -47 -1 -142t-1 -143h582v-287h-580v-272h709v-297z" />
    <glyph glyph-name="F" unicode="F" horiz-adv-x="1181" 
d="M1096 1141h-666v-307h539v-297h-539v-537h-317v1436h983v-295z" />
    <glyph glyph-name="G" unicode="G" horiz-adv-x="1507" 
d="M1382 1202l-143 -237q-39 32 -114.5 75t-125.5 66q-110 47 -256 47q-169 0 -276 -115.5t-107 -306.5q0 -197 109.5 -317.5t273.5 -120.5q93 0 185 32t157 85q0 26 1 72t1 71h-395v281h680v-594q-88 -91 -229 -162q-192 -98 -400 -98q-98 0 -194.5 30t-184.5 92
t-155.5 148.5t-107.5 209t-40 263.5q0 144 41 266.5t109 207.5t157 145.5t185 89t192 28.5q180 0 318 -49q85 -32 182.5 -98t136.5 -111z" />
    <glyph glyph-name="H" unicode="H" horiz-adv-x="1394" 
d="M1262 0h-322v543h-506v-543h-321v1436h323v-584h504v584h322v-1436z" />
    <glyph glyph-name="I" unicode="I" horiz-adv-x="638" 
d="M475 0h-319v1436h319v-1436z" />
    <glyph glyph-name="J" unicode="J" horiz-adv-x="688" 
d="M553 139q0 -145 -62.5 -267.5t-169 -193.5t-231.5 -71q-108 0 -225 69l53 263q90 -33 150 -33q50 0 84 25t51 71t23.5 95.5t6.5 113.5v1225h320v-1297z" />
    <glyph glyph-name="K" unicode="K" horiz-adv-x="1343" 
d="M1288 0h-350l-365 623q-13 -14 -62.5 -69t-76.5 -83v-471h-321l2 1436h319v-549q37 40 220 241.5t280 307.5h326v-45l-476 -531q397 -637 504 -811v-49z" />
    <glyph glyph-name="L" unicode="L" horiz-adv-x="1277" 
d="M1182 0h-1067l-2 1436h319v-1127h750v-309z" />
    <glyph glyph-name="M" unicode="M" horiz-adv-x="1857" 
d="M1747 0h-301l-72 758l-438 -735h-129l-373 725l-65 -748h-303l102 1436l252 2l479 -918l541 918l202 -2z" />
    <glyph glyph-name="N" unicode="N" horiz-adv-x="1435" 
d="M1303 0h-154l-725 817q0 -136 -1 -409t-1 -408h-309v1436h192l690 -781l2 781h306v-1436z" />
    <glyph glyph-name="O" unicode="O" horiz-adv-x="1579" 
d="M1501 711q0 -146 -40.5 -270t-110 -211t-161.5 -149t-194.5 -91t-210.5 -29t-210.5 30t-194.5 92t-161 150t-109.5 213t-40.5 271q0 151 40.5 277.5t109.5 214.5t161 149.5t194.5 90t210.5 28.5t211.5 -31.5t195 -95.5t160.5 -153.5t109.5 -215t40.5 -270.5zM1198 711
q0 196 -109.5 325t-304.5 129q-132 0 -227 -61t-140.5 -162.5t-45.5 -230.5q0 -123 45.5 -220.5t140.5 -158t227 -60.5q197 0 305.5 123.5t108.5 315.5z" />
    <glyph glyph-name="P" unicode="P" horiz-adv-x="1306" 
d="M1208 918q0 -118 -42 -216t-112 -161t-160.5 -98t-188.5 -35h-271v-408h-321l2 1436h596q220 0 358.5 -137.5t138.5 -380.5zM901 913q0 94 -57 148.5t-156 54.5h-254v-409h238q101 0 165 59.5t64 146.5z" />
    <glyph glyph-name="Q" unicode="Q" horiz-adv-x="1605" 
d="M1526 700q0 -139 -47 -269t-124.5 -225.5t-179 -158t-208.5 -76.5q49 -77 163 -121q152 -59 281 -38l-84 -312q-237 18 -401 127q-196 127 -264 342q-82 14 -163 51.5t-156.5 101.5t-132.5 146t-91.5 194t-34.5 238q0 139 43 262.5t115.5 213t165.5 155.5t194.5 98.5
t200.5 32.5q132 0 260 -53.5t231.5 -148.5t167.5 -241.5t64 -318.5zM1214 700q0 126 -49.5 229.5t-144 165.5t-217.5 62t-217 -61.5t-142.5 -165t-48.5 -230.5q0 -188 110 -315t298 -127q191 0 301 125.5t110 316.5z" />
    <glyph glyph-name="R" unicode="R" horiz-adv-x="1355" 
d="M1257 0h-305l-420 541h-102v-541h-315l-2 1436h680q210 0 322 -117t112 -318q0 -153 -102.5 -272.5t-247.5 -161.5l380 -495v-72zM918 997q0 63 -40 103.5t-135 40.5h-313v-293l297 -2q96 0 143.5 44t47.5 107z" />
    <glyph glyph-name="S" unicode="S" horiz-adv-x="1294" 
d="M1206 451q0 -109 -40 -194.5t-101 -135.5t-142.5 -83t-154.5 -44.5t-147 -11.5q-149 0 -266 45t-281 159l98 279q160 -95 258 -137.5t170 -42.5q75 0 143 16.5t117 56t49 93.5q0 24 -11.5 44.5t-26.5 34t-44 25.5t-48.5 18t-56 12t-50.5 7.5t-48 5.5q-12 1 -18 2
q-46 6 -80 11t-81.5 14.5t-82 21t-76 29.5t-71 39t-59 51.5t-48 66.5t-29.5 83t-11 102q0 108 39.5 192t98.5 132.5t138 79t148 41t139 10.5q276 0 549 -195l-95 -260q-235 153 -454 153q-63 0 -112 -9.5t-78 -24.5t-48 -34.5t-26 -37t-7 -35.5q0 -36 36.5 -62.5t90.5 -39
t98 -18t74 -5.5q47 -5 76 -8.5t79 -13t83 -19.5t78 -29t74.5 -41.5t62 -56t51 -74t31 -94.5t12.5 -118z" />
    <glyph glyph-name="T" unicode="T" horiz-adv-x="1339" 
d="M1294 1141h-463v-1141h-323v1141h-465v295h1251v-295z" />
    <glyph glyph-name="U" unicode="U" horiz-adv-x="1495" 
d="M1382 735q0 -349 -168 -552t-458 -203q-298 0 -470.5 199.5t-170.5 537.5q0 118 1 359.5t1 359.5h313v-684q0 -232 87 -342.5t239 -110.5q135 0 223 122.5t88 338.5v676h315v-701z" />
    <glyph glyph-name="V" unicode="V" horiz-adv-x="1511" 
d="M1423 1386l-555 -1390h-250l-577 1390l-2 50h315l387 -996l377 996h305v-50z" />
    <glyph glyph-name="W" unicode="W" horiz-adv-x="1974" 
d="M1911 1382l-441 -1382h-208l-271 938q-45 -154 -125 -470t-123 -468h-231l-457 1382v54h326l268 -844q33 129 99.5 413t105.5 431h272l252 -861q42 142 121 430t121 431h291v-54z" />
    <glyph glyph-name="X" unicode="X" horiz-adv-x="1402" 
d="M1300 0h-329l-305 461l-314 -461h-305v53l447 658l-447 669v56h328l301 -455q82 125 295 455h309v-54l-434 -651l452 -676z" />
    <glyph glyph-name="Y" unicode="Y" horiz-adv-x="1363" 
d="M1313 1382l-469 -841v-541h-324v553l-467 827v56h316l336 -594l315 594h293v-54z" />
    <glyph glyph-name="Z" unicode="Z" horiz-adv-x="1284" 
d="M1200 1231l-702 -946h673v-285h-1101v209l710 944h-692v283h1112v-205z" />
    <glyph glyph-name="bracketleft" unicode="[" horiz-adv-x="692" 
d="M592 -186h-498l-2 1806h477v-250h-170q0 -219 -1 -652t-1 -652h195v-252z" />
    <glyph glyph-name="backslash" unicode="\" horiz-adv-x="952" 
d="M975 -135h-234l-759 1704h231z" />
    <glyph glyph-name="bracketright" unicode="]" horiz-adv-x="692" 
d="M604 -186h-498v252h193v1304h-172v250h477v-1806z" />
    <glyph glyph-name="asciicircum" unicode="^" horiz-adv-x="1087" 
d="M991 907h-272l-191 287l-190 -287h-275l379 613h181z" />
    <glyph glyph-name="underscore" unicode="_" horiz-adv-x="681" 
d="M731 -305h-747v162h747v-162z" />
    <glyph glyph-name="grave" unicode="`" horiz-adv-x="1071" 
d="M879 1128h-226l-424 338l35 52h297z" />
    <glyph glyph-name="a" unicode="a" 
d="M1133 0q-42 -6 -99 -6q-159 0 -227 86q-104 -96 -287 -96q-65 0 -126.5 10.5t-121.5 37t-104.5 65t-72 100t-27.5 137.5q0 83 26.5 146.5t69.5 102t104 63t122.5 33.5t133.5 9q122 0 207 -29q2 -2 10 -2q0 89 -34 109q-65 43 -175 43q-117 0 -331 -94l-39 207
q50 37 170 73.5t211 36.5q221 0 338 -80q86 -59 118.5 -127t32.5 -172v-317q0 -64 21.5 -86.5t79.5 -3.5v-246zM741 272v177l-45.5 6.5t-52 7.5t-48 5.5t-48.5 2.5q-95 0 -143 -36.5t-48 -92.5q0 -57 43 -89t129 -32q143 0 213 51z" />
    <glyph glyph-name="b" unicode="b" horiz-adv-x="1191" 
d="M1128 522q0 -126 -37.5 -229t-101.5 -169.5t-147.5 -102t-177.5 -35.5q-53 0 -125 25t-131 61v-72h-295v1520h295v-564q52 33 119 52.5t126 19.5q95 0 181 -35.5t151.5 -99.5t104 -160.5t38.5 -210.5zM834 508q0 103 -53 167t-152 64q-58 0 -120.5 -27t-100.5 -69v-281
q41 -36 104 -61t117 -25q99 0 152 65t53 167z" />
    <glyph glyph-name="c" unicode="c" horiz-adv-x="1116" 
d="M1022 891l-68 -250q-173 113 -352 113q-106 0 -175 -75t-69 -175q0 -93 68 -159t176 -66q173 0 328 92l80 -242q-181 -152 -408 -152q-89 0 -169.5 21t-149 64.5t-119 105t-79 147.5t-28.5 187q0 130 43.5 233t119.5 167.5t173 98t209 33.5q234 0 420 -143z" />
    <glyph glyph-name="d" unicode="d" horiz-adv-x="1183" 
d="M1077 0h-291v84q-45 -43 -105.5 -70.5t-119.5 -27.5q-77 0 -151 20.5t-140.5 63.5t-116 103t-79 145t-29.5 184q0 112 27 201.5t73.5 149.5t112 100t139 57.5t156.5 17.5q119 0 229 -78v570h295v-1520zM782 367v295q-38 39 -92.5 63.5t-111.5 24.5q-101 0 -169.5 -68.5
t-68.5 -167.5q0 -98 69 -169t169 -71q58 0 111.5 25.5t92.5 67.5z" />
    <glyph glyph-name="e" unicode="e" horiz-adv-x="1196" 
d="M1104 424h-715q19 -75 83.5 -123.5t150.5 -48.5q102 0 180.5 17t146.5 63l88 -211q-71 -66 -184 -103.5t-242 -37.5q-111 0 -205.5 32t-167.5 94t-115 164t-42 232q0 256 145 393t377 137q241 0 372 -155.5t128 -452.5zM809 629q-3 26 -12.5 50t-30.5 50t-63 41.5
t-99 15.5q-71 0 -122 -41.5t-76 -115.5h403z" />
    <glyph glyph-name="f" unicode="f" horiz-adv-x="825" 
d="M780 1483l-30 -283q-18 10 -35 17t-33.5 9.5t-25.5 3t-24 0t-16 -0.5q-56 0 -86 -36t-30 -103v-80h237v-246h-237v-764h-291v764h-121v246h121v127q0 88 40.5 177t104.5 140q97 74 219 74q97 0 207 -45z" />
    <glyph glyph-name="g" unicode="g" horiz-adv-x="1185" 
d="M1079 72q0 -106 -33 -192t-85.5 -140.5t-122.5 -91t-139 -51.5t-140 -15q-102 0 -201.5 39t-169.5 90l60 207q62 -37 142 -62.5t140 -25.5q48 0 104.5 21.5t102 68.5t45.5 105v55q-44 -42 -103 -68t-118 -26q-96 0 -185 35t-159 97.5t-112 158.5t-42 210q0 100 29 188
t77 151.5t109.5 109.5t128 69t130.5 23q62 0 134.5 -29.5t110.5 -74.5v86h297v-938zM782 342v307q-38 40 -91.5 64t-110.5 24q-99 0 -160.5 -68.5t-61.5 -166.5q0 -102 62 -178t160 -76q118 0 202 94z" />
    <glyph glyph-name="h" unicode="h" horiz-adv-x="1148" 
d="M1053 0h-295v623q0 60 -25 97.5t-96 37.5q-94 0 -229 -121v-637h-295v1520h295v-609q110 115 251 115q173 0 283.5 -104.5t110.5 -266.5v-655z" />
    <glyph glyph-name="i" unicode="i" horiz-adv-x="591" 
d="M455 1284q0 -66 -44.5 -110t-103.5 -44q-57 0 -101 44t-44 110q0 65 43.5 110.5t101.5 45.5t103 -45.5t45 -110.5zM449 0h-287v1010h287v-1010z" />
    <glyph glyph-name="j" unicode="j" horiz-adv-x="575" 
d="M463 -23q0 -89 -41 -179.5t-105 -139.5q-96 -74 -221 -74q-74 0 -172 35l31 289q66 -19 98 -19q49 0 76 19q39 39 39 117v985h295v-1033zM463 1284q0 -66 -44.5 -110t-103.5 -44q-57 0 -101 44t-44 110q0 65 43.5 110.5t101.5 45.5t103 -45.5t45 -110.5z" />
    <glyph glyph-name="k" unicode="k" horiz-adv-x="1095" 
d="M1051 0h-306l-282 438q-10 -8 -28.5 -25.5t-28.5 -25.5v-387h-291l-2 1520h293v-795l317 285h311v-52l-350 -315q52 -84 178 -293t189 -311v-39z" />
    <glyph glyph-name="l" unicode="l" horiz-adv-x="542" 
d="M418 0h-295v1520h295v-1520z" />
    <glyph glyph-name="m" unicode="m" horiz-adv-x="1759" 
d="M1655 0h-289v627q0 135 -123 135q-87 0 -192 -90v-672h-293v627q0 135 -123 135q-90 0 -229 -121v-641h-293v1010h293v-97q113 117 253 117q97 0 182.5 -41t139.5 -108q64 60 141 104.5t146 44.5q171 0 279 -104.5t108 -266.5v-659z" />
    <glyph glyph-name="n" unicode="n" horiz-adv-x="1148" 
d="M1053 0h-295v627q0 60 -25 97.5t-96 37.5q-94 0 -229 -121v-641h-295v1010h295v-97q113 117 251 117q173 0 283.5 -104.5t110.5 -266.5v-659z" />
    <glyph glyph-name="o" unicode="o" horiz-adv-x="1212" 
d="M1118 502q0 -136 -41.5 -239t-115 -164t-166.5 -91.5t-203 -30.5q-106 0 -200 32t-169.5 94.5t-119.5 165.5t-44 233q0 136 44 241t119.5 167t169 93t200.5 31q106 0 199 -33t167 -96.5t117 -167.5t43 -235zM834 504q0 103 -65.5 173.5t-176.5 70.5q-112 0 -178 -69.5
t-66 -174.5q0 -98 66.5 -166t177.5 -68t176.5 67t65.5 167z" />
    <glyph glyph-name="p" unicode="p" 
d="M1145 514q0 -133 -38.5 -236.5t-106 -167t-155 -96t-190.5 -32.5q-58 0 -125.5 22t-121.5 59v-473h-295v1420h295v-64q43 35 107.5 58.5t121.5 23.5q101 0 192.5 -35t162 -99t112 -162.5t41.5 -217.5zM850 500q0 108 -67.5 173.5t-172.5 65.5q-56 0 -110 -26t-92 -68
v-287q38 -38 100.5 -63t118.5 -25q102 0 162.5 63t60.5 167z" />
    <glyph glyph-name="q" unicode="q" horiz-adv-x="1208" 
d="M1110 -410h-297v461q-106 -69 -221 -69q-96 0 -185 35.5t-159 99t-112 160t-42 210.5q0 125 42 228.5t113 170.5t161.5 103.5t189.5 36.5q59 0 119.5 -30.5t105.5 -80.5v95h285v-1420zM813 365v284q-38 39 -92.5 63.5t-110.5 24.5q-100 0 -160.5 -68t-60.5 -167
q0 -101 60.5 -167.5t160.5 -66.5q57 0 111 26.5t92 70.5z" />
    <glyph glyph-name="r" unicode="r" horiz-adv-x="909" 
d="M801 1008l-8 -324h-25q-12 22 -49 39.5t-70 17.5q-60 0 -118 -48t-93 -115v-578h-295v1010h295v-117q45 54 106.5 95.5t127.5 41.5q87 0 129 -22z" />
    <glyph glyph-name="s" unicode="s" horiz-adv-x="1136" 
d="M1047 317q0 -63 -18.5 -114t-48 -85t-72 -59.5t-85 -39t-94 -22t-90.5 -11t-82 -2.5q-132 0 -238.5 35.5t-240.5 119.5l88 199q188 -121 391 -121q63 0 124.5 20.5t61.5 57.5q0 20 -22 33.5t-55.5 19.5t-57 8t-41.5 2q-43 0 -77.5 1.5t-88.5 8.5t-95 19t-87 36t-76 56.5
t-49.5 83t-19.5 113.5t17.5 115t45.5 87.5t69 63t83.5 43.5t93 26t93.5 13.5t89 3.5q148 0 245 -32.5t191 -114.5l-92 -199q-92 59 -168.5 87t-175.5 28q-21 0 -52 -4.5t-67 -13.5t-61 -27.5t-25 -42.5q0 -27 47.5 -44t89.5 -21.5t70 -4.5q40 0 77 -2.5t87 -10.5t92 -21.5
t84.5 -38t72.5 -57.5t48.5 -82t18.5 -110z" />
    <glyph glyph-name="t" unicode="t" horiz-adv-x="989" 
d="M920 172q-58 -73 -152.5 -122.5t-165.5 -49.5q-121 0 -221 74q-61 47 -103 138.5t-42 176.5v375h-138v246h138v190l292 129v-319h332v-246h-332v-328q0 -79 41 -112q24 -21 76 -21q27 0 88 26.5t107 76.5z" />
    <glyph glyph-name="u" unicode="u" horiz-adv-x="1193" 
d="M1051 0h-283v98q-42 -34 -70.5 -53.5t-79 -40t-98.5 -20.5q-172 0 -287.5 103t-115.5 261v662h293v-619q0 -125 125 -125q86 0 221 109v635h295v-1010z" />
    <glyph glyph-name="v" unicode="v" horiz-adv-x="1181" 
d="M1108 948l-430 -948h-227l-396 950v60h287l238 -582l237 582h291v-62z" />
    <glyph glyph-name="w" unicode="w" horiz-adv-x="1658" 
d="M1602 950l-334 -950h-205l-229 588q-36 -98 -111 -294t-111 -294h-200l-355 950v60h265l192 -523q72 173 223 523h197l221 -545l184 545h263v-60z" />
    <glyph glyph-name="x" unicode="x" horiz-adv-x="1144" 
d="M1075 0h-295l-223 285l-223 -285h-283v51l350 453l-350 452v54h305l219 -289l222 289h278v-54l-348 -452l348 -453v-51z" />
    <glyph glyph-name="y" unicode="y" horiz-adv-x="1179" 
d="M1122 967l-471 -1184q-24 -60 -61.5 -101t-85.5 -61.5t-94.5 -28.5t-102.5 -8q-60 0 -188 13v282l61 -6q112 -10 125 -10q58 0 85 26t48 84l37 105l-436 885v47h297l278 -568q160 430 215 568h293v-43z" />
    <glyph glyph-name="z" unicode="z" horiz-adv-x="1118" 
d="M1036 0h-964v143l481 598h-481v269h964v-154l-458 -586h458v-270z" />
    <glyph glyph-name="braceleft" unicode="{" horiz-adv-x="724" 
d="M680 -51q-115 -109 -234 -109q-77 0 -132.5 29t-87 81.5t-46 117t-14.5 145.5q0 57 10 129q10 68 10 125q0 81 -5 114t-21 44h2q-12 7 -53 10l-78 4v164l114 8q39 4 39 107q0 47 -8 149q-10 122 -10 152q0 84 14.5 148t46.5 114t88 76t134 26q112 0 223 -78l-17 -166
q-78 33 -116 33q-53 0 -66.5 -23t-13.5 -92q0 -63 10 -151q8 -102 8 -158q0 -63 -29 -125.5t-75 -103.5q102 -70 102 -256q0 -20 -1 -42.5t-2.5 -50t-2.5 -42.5q-6 -70 -6 -138q0 -72 15.5 -97t72.5 -25q44 0 104 18z" />
    <glyph glyph-name="bar" unicode="|" horiz-adv-x="460" 
d="M360 -135h-258v1710h258v-1710z" />
    <glyph glyph-name="braceright" unicode="}" horiz-adv-x="724" 
d="M684 639l-123 -10q-33 -2 -33 -162q0 -33 9 -125q10 -68 10 -129q0 -80 -14.5 -145t-46.5 -117.5t-87.5 -81.5t-132.5 -29q-130 0 -235 97l28 149q60 -18 105 -18q57 0 72.5 25t15.5 97q0 68 -6 138q-6 68 -6 135q0 187 100 256q-48 40 -76 101.5t-28 127.5q0 31 10 158
q8 102 8 151q0 69 -13.5 92t-66.5 23q-36 0 -117 -33l-20 166q52 36 114 57t115 21q78 0 134 -26t88 -76t46.5 -114t14.5 -148q0 -74 -10 -152q-9 -115 -9 -149q0 -103 39 -107l115 -8v-164z" />
    <glyph glyph-name="asciitilde" unicode="~" horiz-adv-x="1079" 
d="M1012 1321q-9 -32 -33 -77t-62 -97.5t-94.5 -88.5t-117.5 -36q-49 0 -103.5 23.5t-93.5 51t-80 51t-66 23.5q-57 0 -95.5 -36t-69.5 -107l-140 57q5 32 24.5 84t54 115t91 107.5t121.5 44.5q36 0 76 -17.5t75 -42t69 -49t68.5 -42t61.5 -17.5q53 0 101 36.5t84 96.5z" />
    <glyph glyph-name="uni00A0" unicode="&#xa0;" horiz-adv-x="704" 
 />
    <glyph glyph-name="exclamdown" unicode="&#xa1;" horiz-adv-x="462" 
d="M397 1270q0 -74 -47 -126t-112 -52q-67 0 -114.5 52t-47.5 126q0 77 47.5 129.5t114.5 52.5q65 0 112 -52.5t47 -129.5zM399 0h-333l45 954h245z" />
    <glyph glyph-name="cent" unicode="&#xa2;" horiz-adv-x="946" 
d="M887 449q-64 -82 -165 -140.5t-235 -58.5h-18q-9 -40 -51 -250h-156l60 287q-113 54 -186 168t-73 276q0 106 36 197.5t95 152.5t135 95t156 34h19q4 0 8 -1t8 -1q24 125 47 226h158l-57 -258q115 -44 209 -152l-111 -186q-94 87 -148 108q-15 -73 -47.5 -226t-50.5 -239
q64 5 119 39t129 101l119 -160v-12zM467 975q-78 -8 -127 -74.5t-49 -173.5q0 -63 22.5 -117.5t59.5 -87.5z" />
    <glyph glyph-name="sterling" unicode="&#xa3;" horiz-adv-x="1388" 
d="M1270 0h-1100v555h-125v285h125q4 156 49.5 278.5t119.5 196.5t164 111.5t191 37.5q135 0 242.5 -87t173.5 -240l-203 -176q-53 106 -99 157t-108 51q-186 0 -208 -329h251v-285h-254q0 -44 -1 -130t-1 -130h783v-295z" />
    <glyph glyph-name="currency" unicode="&#xa4;" horiz-adv-x="1509" 
d="M975 647q0 103 -65.5 173.5t-176.5 70.5q-112 0 -178 -69.5t-66 -174.5q0 -98 66 -165.5t178 -67.5q111 0 176.5 66.5t65.5 166.5zM1219 39l-207 199q-116 -64 -277 -64q-132 0 -246 51l-210 -202l-148 141l197 188q-88 126 -88 295q0 161 69 268l-192 189l159 158
l199 -193q116 55 260 55q171 0 301 -88l203 197l143 -141l-213 -205q56 -109 56 -240q0 -144 -56 -250l209 -202z" />
    <glyph glyph-name="yen" unicode="&#xa5;" horiz-adv-x="1314" 
d="M1305 1436l-383 -693h147v-217h-258v-110h258v-215h-258v-201h-313v201h-252v215h250v110h-250v217h151l-366 693h319l316 -627l327 627h312z" />
    <glyph glyph-name="brokenbar" unicode="&#xa6;" horiz-adv-x="411" 
d="M307 825h-203v740h203v-740zM307 -131h-203v754h203v-754z" />
    <glyph glyph-name="section" unicode="&#xa7;" horiz-adv-x="1169" 
d="M1102 809q0 -140 -109 -238q68 -65 68 -182q0 -68 -27 -126.5t-70.5 -99.5t-101 -74.5t-116.5 -53.5t-119 -33.5t-105.5 -19t-79.5 -5.5q-120 0 -333 80l71 224l25 -9q185 -57 291 -57q26 0 72 8.5t100 25t92.5 47.5t38.5 69q0 16 -8 25.5t-25 13t-26 4t-29 0.5h-9
q-57 0 -143 -7q-94 -8 -145 -8q-28 0 -53 1.5t-63 8t-68.5 17t-64 32t-56 50t-37.5 72.5t-15 98q0 140 115 239q-72 59 -72 179q0 68 26.5 126t69 98t99 72t114 51t116.5 32t103.5 17.5t78.5 4.5q145 0 329 -72l-69 -211q-143 49 -273 49q-34 0 -82 -5.5t-110 -19
t-104 -43.5t-42 -71q0 -45 131 -45q67 0 138 6q90 8 139 8q30 0 53.5 -1.5t60.5 -7.5t65.5 -16.5t59.5 -31.5t51.5 -49.5t34 -72.5t13.5 -99zM844 788q-7 9 -15 16t-19.5 12.5t-19.5 9t-24 6t-22.5 4t-25 2t-22.5 0.5h-24h-21q-26 0 -61.5 -2.5t-86 -12t-91.5 -24t-70 -41
t-29 -60.5q0 -25 54.5 -40.5t98.5 -19t71 -3.5q28 0 75 8.5t101 25t92.5 48.5t38.5 71z" />
    <glyph glyph-name="dieresis" unicode="&#xa8;" horiz-adv-x="1366" 
d="M1008 1294q0 -57 -38.5 -97t-92.5 -40q-53 0 -91 40t-38 97q0 59 37.5 99.5t91.5 40.5t92.5 -41t38.5 -99zM612 1294q0 -57 -37.5 -97t-91.5 -40t-92.5 40t-38.5 97q0 58 38.5 99t92.5 41t91.5 -40.5t37.5 -99.5z" />
    <glyph glyph-name="copyright" unicode="&#xa9;" horiz-adv-x="1650" 
d="M1542 694q0 -211 -99 -388t-266.5 -278.5t-363.5 -101.5t-363 101.5t-265.5 278.5t-98.5 388q0 210 98.5 386.5t265.5 278t363 101.5t363.5 -101.5t266.5 -278t99 -386.5zM1415 694q0 166 -79 308.5t-218.5 227.5t-304.5 85q-124 0 -236.5 -50t-192.5 -134t-127.5 -198.5
t-47.5 -238.5t47.5 -238.5t127.5 -198t192.5 -133.5t236.5 -50t236 50t192 134t127 198t47 238zM1151 416q-49 -66 -139.5 -119t-208.5 -53q-67 0 -133 29.5t-120.5 84t-88 142.5t-33.5 194q0 100 31.5 185.5t83.5 142.5t119.5 89t138.5 32q93 0 182.5 -39t155.5 -123
l-78 -139q-63 62 -120.5 93.5t-135.5 31.5q-89 0 -150 -76t-61 -199q0 -122 61 -198t150 -76q74 0 133 33.5t127 95.5l86 -123v-8z" />
    <glyph glyph-name="ordfeminine" unicode="&#xaa;" horiz-adv-x="1028" 
d="M903 537h-229v49q-89 -62 -178 -62q-77 0 -148.5 32.5t-126.5 89t-88 140.5t-33 181q0 108 32.5 198.5t87 148.5t123.5 90t144 32q96 0 195 -82l16 65h205v-882zM674 852v260q-67 80 -164 80q-81 0 -130.5 -61.5t-49.5 -149.5q0 -90 49.5 -151.5t130.5 -61.5
q43 0 88 23.5t76 60.5z" />
    <glyph glyph-name="guillemotleft" unicode="&#xab;" horiz-adv-x="1462" 
d="M1382 162l-632 450v230l632 430v-316l-344 -235l344 -240v-319zM694 162l-633 450v230l633 430v-316l-344 -235l344 -240v-319z" />
    <glyph glyph-name="logicalnot" unicode="&#xac;" horiz-adv-x="1249" 
d="M92 1001h1032l2 -749h-264v500h-770v249z" />
    <glyph glyph-name="registered" unicode="&#xae;" horiz-adv-x="1650" 
d="M1542 694q0 -211 -99 -388t-266.5 -278.5t-363.5 -101.5t-363 101.5t-265.5 278.5t-98.5 388q0 210 98.5 386.5t265.5 278t363 101.5t363.5 -101.5t266.5 -278t99 -386.5zM1415 694q0 166 -79 308.5t-218.5 227.5t-304.5 85q-124 0 -236.5 -50t-192.5 -134t-127.5 -198.5
t-47.5 -238.5t47.5 -238.5t127.5 -198t192.5 -133.5t236.5 -50t236 50t192 134t127 198t47 238zM1174 291h-164q-130 207 -219 323h-68v-323h-180v856h344q126 0 195 -65t69 -189q0 -93 -48 -163t-134 -99q27 -39 96.5 -142.5t108.5 -158.5v-39zM999 889q0 39 -26 62.5
t-82 23.5h-168v-193h158q55 0 86.5 32.5t31.5 74.5z" />
    <glyph glyph-name="macron" unicode="&#xaf;" horiz-adv-x="985" 
d="M909 1194h-835v188h835v-188z" />
    <glyph glyph-name="degree" unicode="&#xb0;" horiz-adv-x="825" 
d="M723 1079q0 -150 -98.5 -254t-235.5 -104t-235.5 104t-98.5 254t98.5 255.5t235.5 105.5t235.5 -105.5t98.5 -255.5zM516 1079q0 63 -38 107.5t-89 44.5q-54 0 -92.5 -44.5t-38.5 -107.5t38.5 -106t92.5 -43q52 0 89.5 43.5t37.5 105.5z" />
    <glyph glyph-name="plusminus" unicode="&#xb1;" horiz-adv-x="800" 
d="M735 670h-241v-283h-185v283h-241v215h241v282h185v-282h241v-215zM733 117h-659v219h659v-219z" />
    <glyph glyph-name="twosuperior" unicode="&#xb2;" horiz-adv-x="956" 
d="M858 1128q0 -60 -33.5 -123t-83.5 -111t-95 -81.5t-79 -50.5q-74 -37 -102 -74h389v-256h-702l-19 184q31 85 115 178.5t192 161.5q172 109 172 160q0 30 -29 54t-87 24q-158 0 -306 -102l-79 217q196 141 385 141q39 0 78.5 -7t80.5 -22t77 -41t64.5 -60t45 -83.5
t16.5 -108.5z" />
    <glyph glyph-name="threesuperior" unicode="&#xb3;" horiz-adv-x="970" 
d="M840 750q0 -71 -26 -128t-66.5 -93t-92.5 -60.5t-101.5 -34.5t-96.5 -10q-173 0 -326 115l64 237q145 -92 262 -92q70 0 99.5 19.5t29.5 46.5q0 81 -146 81l-139 -4q-10 32 -13 107t5 113q100 -3 147 -3q56 0 101 17.5t45 54.5q0 31 -29.5 53.5t-99.5 22.5
q-107 0 -254 -92l-74 229q63 51 156.5 86t171.5 35q48 0 96.5 -8.5t101.5 -32t93 -58t66 -92.5t26 -131q0 -49 -31.5 -98t-71.5 -80q103 -79 103 -200z" />
    <glyph glyph-name="acute" unicode="&#xb4;" horiz-adv-x="1030" 
d="M870 1491l-438 -348h-196l327 377h289z" />
    <glyph glyph-name="mu" unicode="&#xb5;" horiz-adv-x="1099" 
d="M1044 -2h-317q-4 11 -9.5 26.5t-9 27t-6.5 22.5q-122 -101 -231 -101q-59 0 -104 29q0 -64 -1 -206t-1 -204h-281v1418h281v-623q0 -129 120 -129q31 0 72.5 22.5t62.5 39.5t72 59v631h283v-731q0 -65 17.5 -135.5t34.5 -107.5z" />
    <glyph glyph-name="mu" unicode="&#x3bc;" horiz-adv-x="1099" 
d="M1044 -2h-317q-4 11 -9.5 26.5t-9 27t-6.5 22.5q-122 -101 -231 -101q-59 0 -104 29q0 -64 -1 -206t-1 -204h-281v1418h281v-623q0 -129 120 -129q31 0 72.5 22.5t62.5 39.5t72 59v631h283v-731q0 -65 17.5 -135.5t34.5 -107.5z" />
    <glyph glyph-name="paragraph" unicode="&#xb6;" horiz-adv-x="1437" 
d="M1315 0h-207v1143h-86v-1143h-223l-2 410h-209q-148 0 -267 58.5t-190.5 175.5t-71.5 274q0 121 43 220t117 163.5t171.5 99.5t207.5 35h717v-1436zM799 694l-2 447h-234q-97 0 -152 -64.5t-55 -154.5t72.5 -159t175.5 -69h195z" />
    <glyph glyph-name="periodcentered" unicode="&#xb7;" horiz-adv-x="512" 
d="M412 647q0 -79 -47 -135.5t-113 -56.5q-65 0 -111.5 56.5t-46.5 135.5t46.5 135t111.5 56q66 0 113 -56t47 -135z" />
    <glyph glyph-name="cedilla" unicode="&#xb8;" horiz-adv-x="1329" 
d="M956 -303q0 -60 -28 -106.5t-72.5 -73t-92.5 -39.5t-95 -13q-110 0 -219 70l43 150q91 -62 172 -62q30 0 52 10t32 25.5t14 27.5t4 21q0 40 -25 61t-69 21q-31 0 -53 -8.5t-29 -17.5l-6 -9l-146 64l80 256l168 -2l-59 -174q50 24 86 24q30 0 60 -5.5t64 -21.5t59.5 -40
t42.5 -65t17 -93z" />
    <glyph glyph-name="onesuperior" unicode="&#xb9;" horiz-adv-x="663" 
d="M455 426h-246v1010h246v-1010z" />
    <glyph glyph-name="ordmasculine" unicode="&#xba;" horiz-adv-x="1024" 
d="M963 989q0 -110 -38.5 -199.5t-102 -144t-140.5 -84t-158 -29.5t-158 29.5t-140 84.5t-101.5 144.5t-38.5 198.5q0 113 38.5 204t102 146.5t140 85t157.5 29.5q80 0 157.5 -31.5t141 -88.5t102 -147t38.5 -198zM717 991q0 89 -53.5 149t-141.5 60q-87 0 -139.5 -59.5
t-52.5 -149.5q0 -87 52.5 -145t139.5 -58q89 0 142 57.5t53 145.5z" />
    <glyph glyph-name="guillemotright" unicode="&#xbb;" horiz-adv-x="1486" 
d="M1397 594l-633 -432v317l344 234q-56 39 -171.5 120.5t-172.5 120.5v320l633 -451v-229zM717 594l-633 -432v317l344 234q-56 39 -172 120.5t-172 120.5v320l633 -451v-229z" />
    <glyph glyph-name="onequarter" unicode="&#xbc;" horiz-adv-x="2048" 
d="M434 426h-246v1010h246v-1010zM1309 1436l-633 -1436h-258l633 1436h258zM1874 209h-123v-209h-250v209h-438v170l514 639h174v-582h123v-227zM1501 436v176l-137 -176h137z" />
    <glyph glyph-name="onehalf" unicode="&#xbd;" horiz-adv-x="2142" 
d="M414 426h-246v1010h246v-1010zM1300 1436l-632 -1436h-258l632 1436h258zM1960 696q0 -60 -33.5 -123t-83.5 -111t-95 -81.5t-79 -50.5q-74 -37 -102 -74h389v-256h-703l-18 184q31 85 115 178.5t192 161.5q172 109 172 160q0 30 -29.5 54t-87.5 24q-156 0 -305 -103
l-80 218q196 141 385 141q47 0 94.5 -9.5t96.5 -33.5t86.5 -59t61.5 -92t24 -128z" />
    <glyph glyph-name="threequarters" unicode="&#xbe;" horiz-adv-x="2207" 
d="M840 750q0 -71 -26 -128t-66.5 -93t-92.5 -60.5t-101.5 -34.5t-96.5 -10q-173 0 -326 115l64 237q145 -92 262 -92q70 0 99.5 19.5t29.5 46.5q0 81 -146 81l-139 -4q-10 32 -13 107t5 113q100 -3 147 -3q56 0 101 17.5t45 54.5q0 31 -29.5 53.5t-99.5 22.5
q-107 0 -254 -92l-74 229q63 51 156.5 86t171.5 35q48 0 96.5 -8.5t101.5 -32t93 -58t66 -92.5t26 -131q0 -49 -31.5 -98t-71.5 -80q103 -79 103 -200zM1575 1436l-633 -1436h-258l633 1436h258zM2058 209h-123v-209h-249v209h-439v170l514 639h174v-582h123v-227zM1686 436
v176l-138 -176h138z" />
    <glyph glyph-name="questiondown" unicode="&#xbf;" horiz-adv-x="1165" 
d="M838 1253q0 -77 -49 -128.5t-113 -51.5t-113 51.5t-49 128.5q0 79 49 131t113 52t113 -52t49 -131zM1102 188l-2 -12q-118 -101 -238.5 -146.5t-265.5 -45.5q-59 0 -116.5 6.5t-125.5 22t-124.5 46t-104.5 74.5t-75 112t-27 154q0 50 8 93.5t19.5 76t33.5 61.5t40.5 48.5
t50 38t52.5 29t57.5 22t56 17t56.5 14.5q108 29 136 45q44 26 45 67q0 23 -25 88h268q27 -76 27 -143q0 -48 -11 -87.5t-26 -67t-43.5 -51t-51 -37t-62 -27t-62.5 -19.5t-66 -16q-34 -8 -49 -11.5t-44 -12.5t-42.5 -15.5t-33 -19t-28 -25.5t-15.5 -31.5t-7 -40.5
q0 -153 291 -153q49 0 94 9t76 19t77 37t71 43.5t83 57.5z" />
    <glyph glyph-name="Agrave" unicode="&#xc0;" horiz-adv-x="1536" 
d="M1436 0h-322l-98 268h-570l-108 -268h-313l596 1440h245zM907 559l-174 451l-178 -451h352zM1110 1538h-225l-424 338l35 51h297z" />
    <glyph glyph-name="Aacute" unicode="&#xc1;" horiz-adv-x="1495" 
d="M1436 0h-322l-98 268h-570l-108 -268h-313l596 1440h245zM907 559l-174 451l-178 -451h352zM1245 1866l-438 -348h-197l328 376h289z" />
    <glyph glyph-name="Acircumflex" unicode="&#xc2;" horiz-adv-x="1505" 
d="M1436 0h-322l-98 268h-570l-108 -268h-313l596 1440h245zM907 559l-174 451l-178 -451h352zM1124 1597h-223l-141 168l-144 -168h-223l289 338h162z" />
    <glyph glyph-name="Atilde" unicode="&#xc3;" horiz-adv-x="1519" 
d="M1436 0h-322l-98 268h-570l-108 -268h-313l596 1440h245zM907 559l-174 451l-178 -451h352zM1159 1804q-4 -10 -12 -27.5t-33 -61t-51.5 -77t-65.5 -61t-77 -27.5q-75 0 -168 68q-4 3 -23.5 17t-30.5 21.5t-28 15t-29 7.5q-88 0 -135 -123l-100 46q3 11 9.5 29t28 64.5
t46 82.5t63.5 65t80 29q80 0 170 -66q5 -4 19.5 -15t23.5 -17.5t21.5 -14.5t24 -12t21.5 -4q81 0 152 115z" />
    <glyph glyph-name="Adieresis" unicode="&#xc4;" horiz-adv-x="1538" 
d="M1436 0h-322l-98 268h-570l-108 -268h-313l596 1440h245zM907 559l-174 451l-178 -451h352zM1085 1688q0 -57 -38.5 -97.5t-92.5 -40.5q-53 0 -91 40.5t-38 97.5q0 58 37.5 98.5t91.5 40.5t92.5 -40.5t38.5 -98.5zM690 1688q0 -57 -37.5 -97.5t-91.5 -40.5t-92.5 40.5
t-38.5 97.5q0 58 38.5 98.5t92.5 40.5t91.5 -40.5t37.5 -98.5z" />
    <glyph glyph-name="Aring" unicode="&#xc5;" horiz-adv-x="1503" 
d="M1436 0h-322l-98 268h-570l-108 -268h-313l596 1440h245zM907 559l-174 451l-178 -451h352zM1010 1810q0 -113 -79.5 -190.5t-189.5 -77.5q-109 0 -187.5 77.5t-78.5 190.5t78.5 191t187.5 78q110 0 189.5 -78t79.5 -191zM854 1810q0 52 -33 88.5t-82 36.5
q-47 0 -80.5 -37t-33.5 -88q0 -50 33.5 -86t80.5 -36q49 0 82 36t33 86z" />
    <glyph glyph-name="AE" unicode="&#xc6;" horiz-adv-x="2320" 
d="M1167 559v451l-352 -451h352zM2198 0h-1041l6 268h-569l-213 -268h-338v43l1114 1393h1018v-295h-686q0 -47 -1 -142t-1 -143h581v-287h-579v-272h709v-297z" />
    <glyph glyph-name="Ccedilla" unicode="&#xc7;" horiz-adv-x="1429" 
d="M1016 -352q0 -52 -21 -93.5t-52 -65.5t-70 -40t-71 -21.5t-59 -5.5q-106 0 -215 70l43 150q30 -20 62 -30t52.5 -11.5t57.5 -1.5q31 0 53 6t32.5 16t15 18.5t4.5 16.5q0 46 -20 68t-76 22q-31 0 -53 -9t-29 -17l-6 -9l-144 64l70 229q-102 29 -193.5 88t-167 147
t-119.5 213t-44 271q0 133 39 252t106 206.5t154.5 151.5t186 96.5t198.5 32.5q95 0 177 -17.5t150 -52.5t118.5 -71.5t109.5 -89.5l-103 -289q-59 52 -100.5 84.5t-97 64.5t-116 47t-130.5 15q-156 0 -264.5 -119.5t-108.5 -314.5q0 -193 109.5 -315.5t263.5 -122.5
q130 0 230.5 54t219.5 161l123 -250v-15q-41 -41 -71 -68t-86 -65t-111.5 -60.5t-136 -39.5t-170.5 -16h-6l-41 -127q39 20 82 20q38 0 74 -10.5t71.5 -34t57.5 -70.5t22 -112z" />
    <glyph glyph-name="Egrave" unicode="&#xc8;" horiz-adv-x="1216" 
d="M1124 0h-1030l2 1436h1006v-295h-686q0 -47 -1 -142t-1 -143h581v-287h-579v-272h708v-297zM965 1538h-226l-424 338l35 51h297z" />
    <glyph glyph-name="Eacute" unicode="&#xc9;" horiz-adv-x="1222" 
d="M1124 0h-1030l2 1436h1006v-295h-686q0 -47 -1 -142t-1 -143h581v-287h-579v-272h708v-297zM1032 1868l-438 -348h-197l328 376h289z" />
    <glyph glyph-name="Ecircumflex" unicode="&#xca;" horiz-adv-x="1214" 
d="M1124 0h-1030l2 1436h1006v-295h-686q0 -47 -1 -142t-1 -143h581v-287h-579v-272h708v-297zM979 1597h-223l-142 168l-143 -168h-223l289 338h161z" />
    <glyph glyph-name="Edieresis" unicode="&#xcb;" horiz-adv-x="1247" 
d="M1124 0h-1030l2 1436h1006v-295h-686q0 -47 -1 -142t-1 -143h581v-287h-579v-272h708v-297zM932 1704q0 -57 -38.5 -97t-92.5 -40q-53 0 -91 40t-38 97q0 58 37.5 98.5t91.5 40.5t92.5 -40.5t38.5 -98.5zM537 1704q0 -57 -37.5 -97t-91.5 -40t-93 40t-39 97q0 58 39 98.5
t93 40.5t91.5 -40.5t37.5 -98.5z" />
    <glyph glyph-name="Igrave" unicode="&#xcc;" horiz-adv-x="688" 
d="M539 0h-320v1436h320v-1436zM625 1538h-226l-424 338l35 51h297z" />
    <glyph glyph-name="Iacute" unicode="&#xcd;" horiz-adv-x="655" 
d="M492 0h-320v1436h320v-1436zM782 1886l-438 -348h-197l328 377h289z" />
    <glyph glyph-name="Icircumflex" unicode="&#xce;" horiz-adv-x="755" 
d="M492 0h-320v1436h320v-1436zM705 1544h-224l-141 168l-143 -168h-224l289 338h162z" />
    <glyph glyph-name="Idieresis" unicode="&#xcf;" horiz-adv-x="718" 
d="M504 0h-320v1436h320v-1436zM692 1724q0 -57 -38.5 -97t-92.5 -40q-53 0 -91 40t-38 97q0 59 37.5 99.5t91.5 40.5t92.5 -41t38.5 -99zM297 1724q0 -57 -37.5 -97t-91.5 -40t-92.5 40t-38.5 97q0 58 38.5 99t92.5 41t91.5 -40.5t37.5 -99.5z" />
    <glyph glyph-name="Eth" unicode="&#xd0;" horiz-adv-x="1505" 
d="M1452 719q0 -204 -87.5 -367.5t-251 -257.5t-376.5 -94h-551v545h-159v219h159v672h609q146 0 271 -59t208.5 -158t130.5 -229t47 -271zM1157 711q0 92 -24 168.5t-74 138.5t-137 96.5t-205 34.5h-211v-385h180v-219h-182v-256h207q135 0 238 59t155.5 154t52.5 209z" />
    <glyph glyph-name="Ntilde" unicode="&#xd1;" horiz-adv-x="1454" 
d="M1321 0h-154l-725 817q0 -136 -1 -409t-1 -408h-309v1436h193l690 -781l2 781h305v-1436zM1165 1804q-4 -10 -12 -27.5t-33 -61t-51.5 -77t-65.5 -61t-77 -27.5q-75 0 -168 68q-4 3 -23.5 17t-30.5 21.5t-28 15t-29 7.5q-88 0 -135 -123l-100 46q3 11 9.5 29t28 64.5
t46 82.5t63.5 65t80 29q80 0 170 -66q4 -3 19.5 -15t24 -18t21.5 -14t24.5 -12t21.5 -4q80 0 151 115z" />
    <glyph glyph-name="Ograve" unicode="&#xd2;" horiz-adv-x="1603" 
d="M1501 711q0 -146 -40.5 -270t-110 -211t-161.5 -149t-194.5 -91t-210.5 -29t-210.5 30t-194.5 92t-161 150t-109.5 213t-40.5 271q0 151 40.5 277.5t109.5 214.5t161 149.5t194.5 90t210.5 28.5t211.5 -31.5t195 -95.5t160.5 -153.5t109.5 -215t40.5 -270.5zM1198 711
q0 196 -109.5 325t-304.5 129q-132 0 -227 -61t-140.5 -162.5t-45.5 -230.5q0 -123 45.5 -220.5t140.5 -158t227 -60.5q197 0 305.5 123.5t108.5 315.5zM926 1548h-226l-424 338l35 51h297z" />
    <glyph glyph-name="Oacute" unicode="&#xd3;" horiz-adv-x="1579" 
d="M1501 711q0 -146 -40.5 -270t-110 -211t-161.5 -149t-194.5 -91t-210.5 -29t-210.5 30t-194.5 92t-161 150t-109.5 213t-40.5 271q0 151 40.5 277.5t109.5 214.5t161 149.5t194.5 90t210.5 28.5t211.5 -31.5t195 -95.5t160.5 -153.5t109.5 -215t40.5 -270.5zM1198 711
q0 196 -109.5 325t-304.5 129q-132 0 -227 -61t-140.5 -162.5t-45.5 -230.5q0 -123 45.5 -220.5t140.5 -158t227 -60.5q197 0 305.5 123.5t108.5 315.5zM1161 1903l-438 -349h-197l328 377h289z" />
    <glyph glyph-name="Ocircumflex" unicode="&#xd4;" horiz-adv-x="1579" 
d="M1501 711q0 -146 -40.5 -270t-110 -211t-161.5 -149t-194.5 -91t-210.5 -29t-210.5 30t-194.5 92t-161 150t-109.5 213t-40.5 271q0 151 40.5 277.5t109.5 214.5t161 149.5t194.5 90t210.5 28.5t211.5 -31.5t195 -95.5t160.5 -153.5t109.5 -215t40.5 -270.5zM1198 711
q0 196 -109.5 325t-304.5 129q-132 0 -227 -61t-140.5 -162.5t-45.5 -230.5q0 -123 45.5 -220.5t140.5 -158t227 -60.5q197 0 305.5 123.5t108.5 315.5zM1137 1567h-224l-141 168l-143 -168h-223l288 338h162z" />
    <glyph glyph-name="Otilde" unicode="&#xd5;" horiz-adv-x="1589" 
d="M1501 711q0 -146 -40.5 -270t-110 -211t-161.5 -149t-194.5 -91t-210.5 -29t-210.5 30t-194.5 92t-161 150t-109.5 213t-40.5 271q0 151 40.5 277.5t109.5 214.5t161 149.5t194.5 90t210.5 28.5t211.5 -31.5t195 -95.5t160.5 -153.5t109.5 -215t40.5 -270.5zM1198 711
q0 196 -109.5 325t-304.5 129q-132 0 -227 -61t-140.5 -162.5t-45.5 -230.5q0 -123 45.5 -220.5t140.5 -158t227 -60.5q197 0 305.5 123.5t108.5 315.5zM1188 1819q-4 -10 -12 -27.5t-33.5 -61t-52 -77t-65.5 -61t-77 -27.5q-77 0 -168 67q-6 4 -24 17.5t-29.5 21.5
t-28 15.5t-28.5 7.5q-88 0 -135 -123l-101 45q3 11 9.5 29t28.5 64.5t46.5 82.5t63.5 65t80 29q50 0 88.5 -17t80.5 -48q5 -4 19.5 -15t23.5 -17.5t22 -15t24.5 -12.5t21.5 -4q81 0 152 115z" />
    <glyph glyph-name="Odieresis" unicode="&#xd6;" horiz-adv-x="1583" 
d="M1501 711q0 -146 -40.5 -270t-110 -211t-161.5 -149t-194.5 -91t-210.5 -29t-210.5 30t-194.5 92t-161 150t-109.5 213t-40.5 271q0 151 40.5 277.5t109.5 214.5t161 149.5t194.5 90t210.5 28.5t211.5 -31.5t195 -95.5t160.5 -153.5t109.5 -215t40.5 -270.5zM1198 711
q0 196 -109.5 325t-304.5 129q-132 0 -227 -61t-140.5 -162.5t-45.5 -230.5q0 -123 45.5 -220.5t140.5 -158t227 -60.5q197 0 305.5 123.5t108.5 315.5zM1106 1690q0 -57 -38.5 -97.5t-92.5 -40.5q-53 0 -91 40.5t-38 97.5q0 58 37.5 98.5t91.5 40.5t92.5 -40.5t38.5 -98.5z
M711 1690q0 -57 -37.5 -97.5t-91.5 -40.5t-92.5 40.5t-38.5 97.5q0 58 38.5 98.5t92.5 40.5t91.5 -40.5t37.5 -98.5z" />
    <glyph glyph-name="multiply" unicode="&#xd7;" horiz-adv-x="882" 
d="M803 410l-137 -174l-220 272l-217 -272l-143 180l217 272l-217 270l139 172l215 -270l215 264l144 -178l-215 -264z" />
    <glyph glyph-name="Oslash" unicode="&#xd8;" horiz-adv-x="1470" 
d="M1430 713q0 -147 -40 -272.5t-108 -214t-158.5 -151t-190.5 -92.5t-204 -30q-128 0 -244 43q-16 -31 -49 -97l-49 -98h-223l149 291q-133 99 -208.5 255t-75.5 366q0 151 40 279.5t108.5 218t158.5 153t189.5 93.5t203.5 30q143 0 272 -60l113 224l225 2l-172 -332
q121 -101 192 -257.5t71 -350.5zM854 1145q-70 18 -125 18q-189 0 -304.5 -128t-115.5 -322q0 -220 146 -342q72 145 209.5 408t189.5 366zM1151 713q0 97 -33 183.5t-94 150.5l-389 -762q57 -11 94 -11q191 0 306.5 124.5t115.5 314.5z" />
    <glyph glyph-name="Ugrave" unicode="&#xd9;" horiz-adv-x="1495" 
d="M1362 735q0 -349 -168.5 -552t-458.5 -203q-298 0 -470.5 199.5t-170.5 537.5q0 118 1 359.5t1 359.5h314v-684q0 -232 86.5 -342.5t238.5 -110.5q135 0 223.5 122.5t88.5 338.5v676h315v-701zM991 1516h-225l-424 337l35 52h297z" />
    <glyph glyph-name="Uacute" unicode="&#xda;" horiz-adv-x="1490" 
d="M1362 735q0 -349 -168.5 -552t-458.5 -203q-298 0 -470.5 199.5t-170.5 537.5q0 118 1 359.5t1 359.5h314v-684q0 -232 86.5 -342.5t238.5 -110.5q135 0 223.5 122.5t88.5 338.5v676h315v-701zM1153 1866l-438 -348h-197l328 376h289z" />
    <glyph glyph-name="Ucircumflex" unicode="&#xdb;" horiz-adv-x="1490" 
d="M1362 735q0 -349 -168.5 -552t-458.5 -203q-298 0 -470.5 199.5t-170.5 537.5q0 118 1 359.5t1 359.5h314v-684q0 -232 86.5 -342.5t238.5 -110.5q135 0 223.5 122.5t88.5 338.5v676h315v-701zM1108 1518h-223l-142 168l-143 -168h-223l289 337h161z" />
    <glyph glyph-name="Udieresis" unicode="&#xdc;" horiz-adv-x="1484" 
d="M1362 735q0 -349 -168.5 -552t-458.5 -203q-298 0 -470.5 199.5t-170.5 537.5q0 118 1 359.5t1 359.5h314v-684q0 -232 86.5 -342.5t238.5 -110.5q135 0 223.5 122.5t88.5 338.5v676h315v-701zM1044 1638q0 -57 -38.5 -97t-92.5 -40q-53 0 -91 40t-38 97q0 59 37.5 99.5
t91.5 40.5t92.5 -41t38.5 -99zM649 1638q0 -57 -37.5 -97t-91.5 -40t-92.5 40t-38.5 97q0 58 38.5 99t92.5 41t91.5 -40.5t37.5 -99.5z" />
    <glyph glyph-name="Yacute" unicode="&#xdd;" horiz-adv-x="1327" 
d="M1292 1382l-469 -841v-541h-323v553l-467 827v56h315l336 -594l315 594h293v-54zM1180 1849l-439 -348h-196l327 377h289z" />
    <glyph glyph-name="Thorn" unicode="&#xde;" horiz-adv-x="1273" 
d="M1169 748q0 -118 -40.5 -212.5t-111 -154.5t-163.5 -91.5t-201 -31.5h-239q0 -36 1 -129t1 -129h-322l2 1436h320v-224q37 0 113.5 1t113.5 1q110 0 203 -27t166.5 -81t115 -145.5t41.5 -212.5zM879 733q0 85 -53 139.5t-148 53.5l-264 -2q0 -72 1 -190t1 -189
q36 0 110.5 -1t110.5 -1q105 0 173.5 53.5t68.5 136.5z" />
    <glyph glyph-name="germandbls" unicode="&#xdf;" horiz-adv-x="1230" 
d="M104 0v1133q0 172 123.5 287.5t309.5 115.5q193 0 321.5 -123.5t128.5 -300.5q0 -83 -21 -134.5t-59 -94.5q105 -37 175.5 -145.5t70.5 -235.5q0 -130 -42 -229.5t-117 -161.5t-174.5 -93.5t-219.5 -31.5q-45 0 -83 11t-103 38l30 256q70 -47 148 -47q64 0 115.5 16
t83 41.5t52.5 60t29.5 69t8.5 71.5q0 83 -56.5 140t-124.5 69q-12 1 -39 -2t-86.5 -6t-140.5 -3v254h53q129 1 188.5 40t59.5 118q0 30 -8 57t-26.5 54t-56.5 43t-91 16q-89 0 -132.5 -43t-43.5 -106v-1133h-273z" />
    <glyph glyph-name="agrave" unicode="&#xe0;" 
d="M1133 0q-42 -6 -99 -6q-159 0 -227 86q-104 -96 -287 -96q-65 0 -126.5 10.5t-121.5 37t-104.5 65t-72 100t-27.5 137.5q0 83 26.5 146.5t69.5 102t104 63t122.5 33.5t133.5 9q122 0 207 -29q2 -2 10 -2q0 89 -34 109q-65 43 -175 43q-117 0 -331 -94l-39 207
q50 37 170 73.5t211 36.5q221 0 338 -80q86 -59 118.5 -127t32.5 -172v-317q0 -64 21.5 -86.5t79.5 -3.5v-246zM825 1120h-225l-424 338l35 51h297zM741 272v177l-45.5 6.5t-52 7.5t-48 5.5t-48.5 2.5q-95 0 -143 -36.5t-48 -92.5q0 -57 43 -89t129 -32q143 0 213 51z" />
    <glyph glyph-name="aacute" unicode="&#xe1;" 
d="M1133 0q-42 -6 -99 -6q-159 0 -227 86q-104 -96 -287 -96q-65 0 -126.5 10.5t-121.5 37t-104.5 65t-72 100t-27.5 137.5q0 83 26.5 146.5t69.5 102t104 63t122.5 33.5t133.5 9q122 0 207 -29q2 -2 10 -2q0 89 -34 109q-65 43 -175 43q-117 0 -331 -94l-39 207
q50 37 170 73.5t211 36.5q221 0 338 -80q86 -59 118.5 -127t32.5 -172v-317q0 -64 21.5 -86.5t79.5 -3.5v-246zM999 1491l-438 -348h-196l327 377h289zM741 272v177l-45.5 6.5t-52 7.5t-48 5.5t-48.5 2.5q-95 0 -143 -36.5t-48 -92.5q0 -57 43 -89t129 -32q143 0 213 51z
" />
    <glyph glyph-name="acircumflex" unicode="&#xe2;" 
d="M1133 0q-42 -6 -99 -6q-159 0 -227 86q-104 -96 -287 -96q-65 0 -126.5 10.5t-121.5 37t-104.5 65t-72 100t-27.5 137.5q0 83 26.5 146.5t69.5 102t104 63t122.5 33.5t133.5 9q122 0 207 -29q2 -2 10 -2q0 89 -34 109q-65 43 -175 43q-117 0 -331 -94l-39 207
q50 37 170 73.5t211 36.5q221 0 338 -80q86 -59 118.5 -127t32.5 -172v-317q0 -64 21.5 -86.5t79.5 -3.5v-246zM930 1151h-223l-142 168l-143 -168h-223l288 338h162zM741 272v177l-45.5 6.5t-52 7.5t-48 5.5t-48.5 2.5q-95 0 -143 -36.5t-48 -92.5q0 -57 43 -89t129 -32
q143 0 213 51z" />
    <glyph glyph-name="atilde" unicode="&#xe3;" 
d="M1133 0q-42 -6 -99 -6q-159 0 -227 86q-104 -96 -287 -96q-65 0 -126.5 10.5t-121.5 37t-104.5 65t-72 100t-27.5 137.5q0 83 26.5 146.5t69.5 102t104 63t122.5 33.5t133.5 9q122 0 207 -29q2 -2 10 -2q0 89 -34 109q-65 43 -175 43q-117 0 -331 -94l-39 207
q50 37 170 73.5t211 36.5q221 0 338 -80q86 -59 118.5 -127t32.5 -172v-317q0 -64 21.5 -86.5t79.5 -3.5v-246zM952 1438q-4 -10 -12 -27.5t-33 -61t-51.5 -77t-65.5 -61t-77 -27.5q-77 0 -168 67q-5 4 -23.5 17.5t-30.5 21.5t-28.5 15.5t-28.5 7.5q-88 0 -135 -123l-100 45
q3 11 9.5 29t28 64.5t46 82.5t63.5 65t80 29q81 0 170 -65q5 -4 19.5 -15t23.5 -17.5t22 -15t24.5 -12.5t21.5 -4q80 0 151 115zM741 272v177l-45.5 6.5t-52 7.5t-48 5.5t-48.5 2.5q-95 0 -143 -36.5t-48 -92.5q0 -57 43 -89t129 -32q143 0 213 51z" />
    <glyph glyph-name="adieresis" unicode="&#xe4;" 
d="M1133 0q-42 -6 -99 -6q-159 0 -227 86q-104 -96 -287 -96q-65 0 -126.5 10.5t-121.5 37t-104.5 65t-72 100t-27.5 137.5q0 83 26.5 146.5t69.5 102t104 63t122.5 33.5t133.5 9q122 0 207 -29q2 -2 10 -2q0 89 -34 109q-65 43 -175 43q-117 0 -331 -94l-39 207
q50 37 170 73.5t211 36.5q221 0 338 -80q86 -59 118.5 -127t32.5 -172v-317q0 -64 21.5 -86.5t79.5 -3.5v-246zM741 272v177l-45.5 6.5t-52 7.5t-48 5.5t-48.5 2.5q-95 0 -143 -36.5t-48 -92.5q0 -57 43 -89t129 -32q143 0 213 51zM535 1294q0 -57 -37.5 -97t-91.5 -40
t-93 40t-39 97q0 58 39 99t93 41t91.5 -40.5t37.5 -99.5zM930 1294q0 -57 -38.5 -97t-92.5 -40q-53 0 -91 40t-38 97q0 59 37.5 99.5t91.5 40.5t92.5 -41t38.5 -99z" />
    <glyph glyph-name="aring" unicode="&#xe5;" 
d="M1133 0q-42 -6 -99 -6q-159 0 -227 86q-104 -96 -287 -96q-65 0 -126.5 10.5t-121.5 37t-104.5 65t-72 100t-27.5 137.5q0 83 26.5 146.5t69.5 102t104 63t122.5 33.5t133.5 9q122 0 207 -29q2 -2 10 -2q0 89 -34 109q-65 43 -175 43q-117 0 -331 -94l-39 207
q50 37 170 73.5t211 36.5q221 0 338 -80q86 -59 118.5 -127t32.5 -172v-317q0 -64 21.5 -86.5t79.5 -3.5v-246zM868 1401q0 -113 -79 -190.5t-189 -77.5q-109 0 -187.5 77.5t-78.5 190.5t78.5 190.5t187.5 77.5q110 0 189 -77.5t79 -190.5zM741 272v177l-45.5 6.5t-52 7.5
t-48 5.5t-48.5 2.5q-95 0 -143 -36.5t-48 -92.5q0 -57 43 -89t129 -32q143 0 213 51zM713 1401q0 52 -33 88.5t-82 36.5q-47 0 -81 -37t-34 -88q0 -50 34 -86.5t81 -36.5q49 0 82 36.5t33 86.5z" />
    <glyph glyph-name="ae" unicode="&#xe6;" horiz-adv-x="1824" 
d="M1708 526v-75q-55 -15 -127.5 -22.5t-110.5 -8t-129 -0.5h-59q-149 0 -268 14q9 -84 77.5 -140t157.5 -56q90 0 190 29t173 79l76 -192q-86 -72 -207 -120t-238 -48q-247 0 -369 147q-64 -64 -88 -76q-100 -73 -262 -73q-64 0 -127.5 14t-122.5 43t-104.5 69.5
t-72.5 98.5t-27 125q0 76 28 137t73 99.5t105.5 64.5t122.5 36.5t127 10.5q38 0 121.5 -15.5t85.5 -15.5q3 0 5 -1t5 -1q0 84 -36 109q-56 37 -183 37q-126 0 -317 -84l-62 194q55 50 173.5 88.5t224.5 38.5q243 0 362 -139q49 60 139 97.5t181 37.5q214 0 348.5 -142
t134.5 -360zM766 297q-12 36 -16 88q-9 45 -9 80q-117 22 -188 22q-94 0 -139 -38.5t-45 -98.5q0 -61 41.5 -95t126.5 -34q144 0 229 76zM1448 590q-3 29 -12.5 56.5t-31 59t-64.5 51t-101 19.5q-67 0 -122 -50.5t-81 -125.5l185 -12h122q78 0 105 2z" />
    <glyph glyph-name="ccedilla" unicode="&#xe7;" horiz-adv-x="1062" 
d="M762 -348q0 -53 -19 -95.5t-47 -67t-63.5 -40.5t-64.5 -21.5t-54 -5.5q-100 0 -197 72l39 152q28 -21 57 -31.5t47.5 -12t53.5 -1.5q52 0 73 19t21 40q0 46 -18 68t-70 22q-28 0 -48 -9t-26 -17l-6 -9l-131 64l62 229q-148 46 -236 173.5t-88 324.5q0 131 39.5 234.5
t108.5 167.5t157.5 97t190.5 33q105 0 222 -46t206 -126l-105 -221q-149 109 -323 109q-97 0 -160.5 -73t-63.5 -173q0 -94 62.5 -158.5t161.5 -64.5q89 0 159 20t142 68l106 -221q-82 -75 -188.5 -123.5t-218.5 -48.5h-25l-37 -119q36 20 78 20q34 0 66.5 -10.5t65 -34.5
t52 -71.5t19.5 -112.5z" />
    <glyph glyph-name="egrave" unicode="&#xe8;" horiz-adv-x="1150" 
d="M1075 424h-715q19 -75 83.5 -123.5t150.5 -48.5q102 0 181 17t147 63l88 -211q-71 -66 -184 -103.5t-242 -37.5q-111 0 -205.5 32t-168 94t-115.5 164t-42 232q0 256 145 393t377 137q241 0 372 -155.5t128 -452.5zM780 629q-3 26 -12.5 50t-30.5 50t-63 41.5t-99 15.5
q-71 0 -122 -41.5t-76 -115.5h403zM860 1128h-225l-424 338l35 52h297z" />
    <glyph glyph-name="eacute" unicode="&#xe9;" horiz-adv-x="1153" 
d="M1075 424h-715q19 -75 83.5 -123.5t150.5 -48.5q102 0 181 17t147 63l88 -211q-71 -66 -184 -103.5t-242 -37.5q-111 0 -205.5 32t-168 94t-115.5 164t-42 232q0 256 145 393t377 137q241 0 372 -155.5t128 -452.5zM780 629q-3 26 -12.5 50t-30.5 50t-63 41.5t-99 15.5
q-71 0 -122 -41.5t-76 -115.5h403zM977 1495l-438 -348h-197l328 377h288z" />
    <glyph glyph-name="ecircumflex" unicode="&#xea;" horiz-adv-x="1169" 
d="M1075 424h-715q19 -75 83.5 -123.5t150.5 -48.5q102 0 181 17t147 63l88 -211q-71 -66 -184 -103.5t-242 -37.5q-111 0 -205.5 32t-168 94t-115.5 164t-42 232q0 256 145 393t377 137q241 0 372 -155.5t128 -452.5zM780 629q-3 26 -12.5 50t-30.5 50t-63 41.5t-99 15.5
q-71 0 -122 -41.5t-76 -115.5h403zM872 1188h-223l-141 168l-143 -168h-224l289 338h162z" />
    <glyph glyph-name="edieresis" unicode="&#xeb;" horiz-adv-x="1150" 
d="M1075 424h-715q19 -75 83.5 -123.5t150.5 -48.5q102 0 181 17t147 63l88 -211q-71 -66 -184 -103.5t-242 -37.5q-111 0 -205.5 32t-168 94t-115.5 164t-42 232q0 256 145 393t377 137q241 0 372 -155.5t128 -452.5zM780 629q-3 26 -12.5 50t-30.5 50t-63 41.5t-99 15.5
q-71 0 -122 -41.5t-76 -115.5h403zM827 1294q0 -57 -38.5 -97t-92.5 -40q-53 0 -91 40t-38 97q0 59 37.5 99.5t91.5 40.5t92.5 -41t38.5 -99zM432 1294q0 -57 -37.5 -97t-91.5 -40t-92.5 40t-38.5 97q0 58 38.5 99t92.5 41t91.5 -40.5t37.5 -99.5z" />
    <glyph glyph-name="igrave" unicode="&#xec;" horiz-adv-x="704" 
d="M600 1151h-258l-528 373l32 41h371zM553 0h-352v1008h352v-1008z" />
    <glyph glyph-name="iacute" unicode="&#xed;" horiz-adv-x="559" 
d="M369 0h-291v1010h291v-1010zM709 1491l-439 -348h-196l327 377h289z" />
    <glyph glyph-name="icircumflex" unicode="&#xee;" horiz-adv-x="704" 
d="M791 1147h-279l-178 168l-178 -168h-281l363 379h200zM514 0h-352v1008h352v-1008z" />
    <glyph glyph-name="idieresis" unicode="&#xef;" horiz-adv-x="704" 
d="M743 1321q0 -63 -46 -106.5t-111 -43.5q-64 0 -111 44t-47 106q0 61 46.5 105t111.5 44t111 -44t46 -105zM195 1321q0 -63 -46.5 -106.5t-111.5 -43.5t-111.5 43.5t-46.5 106.5q0 61 46.5 105t111.5 44t111.5 -44t46.5 -105zM494 0h-353v1008h353v-1008z" />
    <glyph glyph-name="eth" unicode="&#xf0;" horiz-adv-x="1191" 
d="M1118 662q0 -140 -33 -261t-96.5 -215t-166.5 -148t-234 -54q-104 0 -199 34t-170.5 98t-120.5 165t-45 225q0 127 44 229.5t119 166.5t170.5 98t203.5 34q98 0 229 -73q-25 127 -172 235q-9 -20 -22.5 -44t-22.5 -46l-139 86l41 76q-85 39 -211 39l67 256q140 0 263 -47
q50 123 59 141l129 -98l-53 -119q71 -51 139 -127q221 -277 221 -651zM834 510q0 111 -70.5 177.5t-175.5 66.5t-175.5 -66.5t-70.5 -177.5q0 -105 71 -168t175 -63q105 0 175.5 62t70.5 169z" />
    <glyph glyph-name="ntilde" unicode="&#xf1;" horiz-adv-x="1153" 
d="M1028 0h-295v627q0 60 -25 97.5t-96 37.5q-94 0 -229 -121v-641h-295v1010h295v-97q113 117 252 117q173 0 283 -104.5t110 -266.5v-659zM901 1395q-4 -10 -12 -27.5t-33 -61t-51.5 -77t-65.5 -61t-77 -27.5q-77 0 -168 67q-5 4 -23.5 17.5t-30.5 21.5t-28.5 15.5
t-28.5 7.5q-88 0 -135 -123l-101 45q3 11 9.5 29t28.5 64.5t46.5 82.5t63.5 65t80 29q81 0 170 -65q4 -3 24.5 -19t30.5 -23t26.5 -14.5t28.5 -7.5q81 0 152 115z" />
    <glyph glyph-name="ograve" unicode="&#xf2;" horiz-adv-x="1183" 
d="M1118 502q0 -136 -41.5 -239t-115 -164t-166.5 -91.5t-203 -30.5q-106 0 -200 32t-169.5 94.5t-119.5 165.5t-44 233q0 136 44 241t119.5 167t169 93t200.5 31q106 0 199 -33t167 -96.5t117 -167.5t43 -235zM834 504q0 103 -65.5 173.5t-176.5 70.5q-112 0 -178 -69.5
t-66 -174.5q0 -98 66.5 -166t177.5 -68t176.5 67t65.5 167zM907 1128h-225l-424 338l35 52h297z" />
    <glyph glyph-name="oacute" unicode="&#xf3;" horiz-adv-x="1189" 
d="M1118 502q0 -136 -41.5 -239t-115 -164t-166.5 -91.5t-203 -30.5q-106 0 -200 32t-169.5 94.5t-119.5 165.5t-44 233q0 136 44 241t119.5 167t169 93t200.5 31q106 0 199 -33t167 -96.5t117 -167.5t43 -235zM834 504q0 103 -65.5 173.5t-176.5 70.5q-112 0 -178 -69.5
t-66 -174.5q0 -98 66.5 -166t177.5 -68t176.5 67t65.5 167zM1024 1491l-438 -348h-197l328 377h289z" />
    <glyph glyph-name="ocircumflex" unicode="&#xf4;" horiz-adv-x="1185" 
d="M1118 502q0 -136 -41.5 -239t-115 -164t-166.5 -91.5t-203 -30.5q-106 0 -200 32t-169.5 94.5t-119.5 165.5t-44 233q0 136 44 241t119.5 167t169 93t200.5 31q106 0 199 -33t167 -96.5t117 -167.5t43 -235zM834 504q0 103 -65.5 173.5t-176.5 70.5q-112 0 -178 -69.5
t-66 -174.5q0 -98 66.5 -166t177.5 -68t176.5 67t65.5 167zM963 1182h-224l-141 168l-143 -168h-224l289 338h162z" />
    <glyph glyph-name="otilde" unicode="&#xf5;" horiz-adv-x="1177" 
d="M1118 502q0 -136 -41.5 -239t-115 -164t-166.5 -91.5t-203 -30.5q-106 0 -200 32t-169.5 94.5t-119.5 165.5t-44 233q0 136 44 241t119.5 167t169 93t200.5 31q106 0 199 -33t167 -96.5t117 -167.5t43 -235zM834 504q0 103 -65.5 173.5t-176.5 70.5q-112 0 -178 -69.5
t-66 -174.5q0 -98 66.5 -166t177.5 -68t176.5 67t65.5 167zM963 1415q-4 -10 -12 -27.5t-33.5 -61t-52 -77t-65.5 -61t-77 -27.5q-75 0 -168 68q-4 3 -23.5 17t-30.5 21.5t-28 15t-29 7.5q-88 0 -135 -123l-100 45q2 6 5 15.5t14 37.5t24 54t33 57t41.5 53.5t50.5 38
t59 15.5q80 0 170 -66q4 -3 19.5 -15t24 -18t21.5 -14t24.5 -12t21.5 -4q80 0 151 114z" />
    <glyph glyph-name="odieresis" unicode="&#xf6;" horiz-adv-x="1185" 
d="M1118 502q0 -136 -41.5 -239t-115 -164t-166.5 -91.5t-203 -30.5q-106 0 -200 32t-169.5 94.5t-119.5 165.5t-44 233q0 136 44 241t119.5 167t169 93t200.5 31q106 0 199 -33t167 -96.5t117 -167.5t43 -235zM834 504q0 103 -65.5 173.5t-176.5 70.5q-112 0 -178 -69.5
t-66 -174.5q0 -98 66.5 -166t177.5 -68t176.5 67t65.5 167zM918 1311q0 -57 -39 -97t-93 -40q-53 0 -91 40t-38 97q0 58 37.5 98.5t91.5 40.5t93 -40.5t39 -98.5zM522 1311q0 -57 -37.5 -97t-91.5 -40t-92.5 40t-38.5 97q0 58 38.5 98.5t92.5 40.5t91.5 -40.5t37.5 -98.5z
" />
    <glyph glyph-name="divide" unicode="&#xf7;" horiz-adv-x="1142" 
d="M717 1155q0 -75 -44.5 -128.5t-107.5 -53.5t-107 53.5t-44 128.5t44 128.5t107 53.5t107.5 -53.5t44.5 -128.5zM1022 569h-905v252h905v-252zM731 231q0 -75 -44 -128.5t-107 -53.5t-107.5 53.5t-44.5 128.5q0 76 44.5 129.5t107.5 53.5t107 -53.5t44 -129.5z" />
    <glyph glyph-name="oslash" unicode="&#xf8;" horiz-adv-x="1243" 
d="M1171 502q0 -127 -47 -230t-125.5 -166.5t-176.5 -97t-206 -33.5q-59 0 -129 13q-16 -34 -47.5 -103.5t-48.5 -103.5h-223l135 289q-107 67 -169 176t-62 256q0 130 48 234t128.5 167.5t179 97t205.5 33.5q68 0 117 -10q18 38 64.5 138t72.5 153h225l-174 -373
q108 -67 170.5 -179.5t62.5 -260.5zM877 504q0 46 -18 91.5t-48 76.5q-143 -302 -188 -400q116 0 185 66.5t69 165.5zM639 756q-123 6 -197.5 -55.5t-68.5 -196.5q2 -42 18 -84.5t43 -71.5q29 62 102.5 204.5t102.5 203.5z" />
    <glyph glyph-name="ugrave" unicode="&#xf9;" horiz-adv-x="1183" 
d="M1022 0h-283v98q-42 -34 -70 -53.5t-78.5 -40t-98.5 -20.5q-172 0 -288 103t-116 261v662h293v-619q0 -125 125 -125q86 0 221 109v635h295v-1010zM862 1128h-225l-424 338l35 52h297z" />
    <glyph glyph-name="uacute" unicode="&#xfa;" horiz-adv-x="1138" 
d="M1022 0h-283v98q-42 -34 -70 -53.5t-78.5 -40t-98.5 -20.5q-172 0 -288 103t-116 261v662h293v-619q0 -125 125 -125q86 0 221 109v635h295v-1010zM971 1491l-439 -348h-196l328 377h288z" />
    <glyph glyph-name="ucircumflex" unicode="&#xfb;" horiz-adv-x="1169" 
d="M1022 0h-283v98q-42 -34 -70 -53.5t-78.5 -40t-98.5 -20.5q-172 0 -288 103t-116 261v662h293v-619q0 -125 125 -125q86 0 221 109v635h295v-1010zM874 1188h-223l-141 168l-143 -168h-224l289 338h162z" />
    <glyph glyph-name="udieresis" unicode="&#xfc;" horiz-adv-x="1146" 
d="M1022 0h-283v98q-42 -34 -70 -53.5t-78.5 -40t-98.5 -20.5q-172 0 -288 103t-116 261v662h293v-619q0 -125 125 -125q86 0 221 109v635h295v-1010zM856 1311q0 -57 -38.5 -97t-92.5 -40q-53 0 -91 40t-38 97q0 58 37.5 98.5t91.5 40.5t92.5 -40.5t38.5 -98.5zM461 1311
q0 -57 -37.5 -97t-91.5 -40t-92.5 40t-38.5 97q0 58 38.5 98.5t92.5 40.5t91.5 -40.5t37.5 -98.5z" />
    <glyph glyph-name="yacute" unicode="&#xfd;" horiz-adv-x="1216" 
d="M1122 967l-471 -1184q-24 -60 -61.5 -101t-85.5 -61.5t-94.5 -28.5t-102.5 -8q-60 0 -188 13v282l61 -6q112 -10 125 -10q58 0 85 26t48 84l37 105l-436 885v47h297l278 -568q160 430 215 568h293v-43zM1038 1491l-438 -348h-197l328 377h289z" />
    <glyph glyph-name="thorn" unicode="&#xfe;" horiz-adv-x="1193" 
d="M1110 520q0 -126 -40.5 -230.5t-108.5 -171t-154 -102.5t-180 -36q-119 0 -236 83v-450h-297v1907h297v-557q106 69 219 69q96 0 185.5 -36.5t159.5 -101t112.5 -162.5t42.5 -212zM815 506q0 100 -61 166.5t-160 66.5q-57 0 -111 -26t-92 -68v-285q38 -38 94.5 -62
t112.5 -24q99 0 158 66t59 166z" />
    <glyph glyph-name="ydieresis" unicode="&#xff;" horiz-adv-x="1167" 
d="M1122 967l-471 -1184q-24 -60 -61.5 -101t-85.5 -61.5t-94.5 -28.5t-102.5 -8q-60 0 -188 13v282l61 -6q112 -10 125 -10q58 0 85 26t48 84l37 105l-436 885v47h297l278 -568q160 430 215 568h293v-43zM932 1294q0 -57 -38.5 -97t-92.5 -40q-53 0 -91 40t-38 97
q0 59 37.5 99.5t91.5 40.5t92.5 -41t38.5 -99zM537 1294q0 -57 -37.5 -97t-91.5 -40t-93 40t-39 97q0 58 39 99t93 41t91.5 -40.5t37.5 -99.5z" />
    <glyph glyph-name="Amacron" unicode="&#x100;" horiz-adv-x="1499" 
d="M1436 0h-322l-98 268h-570l-108 -268h-313l596 1440h245zM907 559l-174 451l-178 -451h352zM1151 1554h-836v189h836v-189z" />
    <glyph glyph-name="amacron" unicode="&#x101;" 
d="M1133 0q-42 -6 -99 -6q-159 0 -227 86q-104 -96 -287 -96q-65 0 -126.5 10.5t-121.5 37t-104.5 65t-72 100t-27.5 137.5q0 83 26.5 146.5t69.5 102t104 63t122.5 33.5t133.5 9q122 0 207 -29q2 -2 10 -2q0 89 -34 109q-65 43 -175 43q-117 0 -331 -94l-39 207
q50 37 170 73.5t211 36.5q221 0 338 -80q86 -59 118.5 -127t32.5 -172v-317q0 -64 21.5 -86.5t79.5 -3.5v-246zM1001 1194h-835v188h835v-188zM741 272v177l-45.5 6.5t-52 7.5t-48 5.5t-48.5 2.5q-95 0 -143 -36.5t-48 -92.5q0 -57 43 -89t129 -32q143 0 213 51z" />
    <glyph glyph-name="Aogonek" unicode="&#x104;" horiz-adv-x="1499" 
d="M1436 0h-144q-64 -22 -99 -66t-22 -88q9 -32 54 -32q30 0 89.5 18.5t117.5 56.5l4 -217q-92 -53 -234 -53q-98 0 -160.5 57.5t-62.5 130.5q0 61 36 114.5t95 86.5l-94 260h-570l-108 -268h-313l596 1440h245zM907 559l-174 451l-178 -451h352z" />
    <glyph glyph-name="aogonek" unicode="&#x105;" 
d="M1133 0q-42 -6 -99 -6q-19 0 -55 4q-60 -25 -92 -68t-19 -84q9 -32 54 -32q30 0 89 18.5t117 56.5l5 -217q-92 -53 -234 -53q-98 0 -160.5 57.5t-62.5 130.5q0 74 52.5 136.5t133.5 89.5q-33 20 -55 47q-104 -96 -287 -96q-65 0 -126.5 10.5t-121.5 37t-104.5 65t-72 100
t-27.5 137.5q0 83 26.5 146.5t69.5 102t104 63t122.5 33.5t133.5 9q122 0 207 -29q2 -2 10 -2q0 89 -34 109q-65 43 -175 43q-117 0 -331 -94l-39 207q50 37 170 73.5t211 36.5q221 0 338 -80q86 -59 118.5 -127t32.5 -172v-317q0 -64 21.5 -86.5t79.5 -3.5v-246zM741 272
v177l-45.5 6.5t-52 7.5t-48 5.5t-48.5 2.5q-95 0 -143 -36.5t-48 -92.5q0 -57 43 -89t129 -32q143 0 213 51z" />
    <glyph glyph-name="Cacute" unicode="&#x106;" horiz-adv-x="1394" 
d="M1178 496l145 -267q-238 -247 -586 -247q-135 0 -255.5 48t-214.5 138t-149 233.5t-55 321.5q0 133 38 252t104 206.5t151 151.5t181.5 96.5t193.5 32.5q346 0 578 -215l-138 -284q-108 98 -204.5 144t-227.5 46q-153 0 -258.5 -119.5t-105.5 -314.5q0 -193 106.5 -315.5
t255.5 -122.5q68 0 128.5 15.5t116 48.5t98 66.5t98.5 84.5zM1210 1864l-438 -348h-197l328 376h289z" />
    <glyph glyph-name="cacute" unicode="&#x107;" horiz-adv-x="1116" 
d="M1022 891l-68 -250q-173 113 -352 113q-106 0 -175 -75t-69 -175q0 -93 68 -159t176 -66q173 0 328 92l80 -242q-181 -152 -408 -152q-89 0 -169.5 21t-149 64.5t-119 105t-79 147.5t-28.5 187q0 130 43.5 233t119.5 167.5t173 98t209 33.5q234 0 420 -143zM874 1491
l-438 -348h-196l327 377h289z" />
    <glyph glyph-name="Ccaron" unicode="&#x10c;" horiz-adv-x="1394" 
d="M1178 496l145 -267q-238 -247 -586 -247q-135 0 -255.5 48t-214.5 138t-149 233.5t-55 321.5q0 133 38 252t104 206.5t151 151.5t181.5 96.5t193.5 32.5q346 0 578 -215l-138 -284q-108 98 -204.5 144t-227.5 46q-153 0 -258.5 -119.5t-105.5 -314.5q0 -193 106.5 -315.5
t255.5 -122.5q68 0 128.5 15.5t116 48.5t98 66.5t98.5 84.5zM1098 1870l-281 -320h-162l-288 320h227l141 -148l144 148h219z" />
    <glyph glyph-name="ccaron" unicode="&#x10d;" horiz-adv-x="1116" 
d="M1022 891l-68 -250q-173 113 -352 113q-106 0 -175 -75t-69 -175q0 -93 68 -159t176 -66q173 0 328 92l80 -242q-181 -152 -408 -152q-89 0 -169.5 21t-149 64.5t-119 105t-79 147.5t-28.5 187q0 130 43.5 233t119.5 167.5t173 98t209 33.5q234 0 420 -143zM924 1518
l-281 -320h-162l-288 320h227l141 -148l144 148h219z" />
    <glyph glyph-name="Dcaron" unicode="&#x10e;" horiz-adv-x="1452" 
d="M1360 719q0 -204 -87.5 -367.5t-251 -257.5t-376.5 -94h-528v1436h585q147 0 272 -59t208.5 -158t130.5 -229t47 -271zM1065 711q0 92 -24 168.5t-74 138.5t-136.5 96.5t-203.5 34.5h-191q0 -145 -1 -430t-1 -430h187q134 0 236.5 59t155 154t52.5 209zM1032 1862
l-280 -320h-162l-289 320h227l142 -148l143 148h219z" />
    <glyph glyph-name="dcaron" unicode="&#x10f;" horiz-adv-x="1499" 
d="M1077 0h-291v84q-45 -43 -105.5 -70.5t-119.5 -27.5q-77 0 -151 20.5t-140.5 63.5t-116 103t-79 145t-29.5 184q0 112 27 201.5t73.5 149.5t112 100t139 57.5t156.5 17.5q119 0 229 -78v570h295v-1520zM782 367v295q-38 39 -92.5 63.5t-111.5 24.5q-101 0 -169.5 -68.5
t-68.5 -167.5q0 -98 69 -169t169 -71q58 0 111.5 25.5t92.5 67.5zM1477 1518l-127 -476l-201 2l80 474h248z" />
    <glyph glyph-name="Dcroat" unicode="&#x110;" horiz-adv-x="1503" 
d="M1421 719q0 -153 -51 -285.5t-142.5 -228t-226 -150.5t-294.5 -55h-529v618h-198v230h198v588h586q147 0 272 -59t208.5 -158t130 -229t46.5 -271zM1126 711q0 92 -24 168.5t-74 138.5t-136.5 96.5t-203.5 34.5h-190v-301h297v-230h-299v-329h186q134 0 236.5 59t155 154
t52.5 209z" />
    <glyph glyph-name="dcroat" unicode="&#x111;" horiz-adv-x="1206" 
d="M1077 0h-291v84q-45 -43 -105.5 -70.5t-119.5 -27.5q-77 0 -151 20.5t-140.5 63.5t-116 103t-79 145t-29.5 184q0 112 27 201.5t73.5 149.5t112 100t139 57.5t156.5 17.5q119 0 229 -78v209h-215v232h215v129h295v-129h160v-232h-160v-1159zM782 367v295
q-38 39 -92.5 63.5t-111.5 24.5q-101 0 -169.5 -68.5t-68.5 -167.5q0 -98 69 -169t169 -71q58 0 111.5 25.5t92.5 67.5z" />
    <glyph glyph-name="Emacron" unicode="&#x112;" horiz-adv-x="1185" 
d="M1124 0h-1030l2 1436h1006v-295h-686q0 -47 -1 -142t-1 -143h581v-287h-579v-272h708v-297zM1057 1589h-836v189h836v-189z" />
    <glyph glyph-name="emacron" unicode="&#x113;" horiz-adv-x="1146" 
d="M1075 424h-715q19 -75 83.5 -123.5t150.5 -48.5q102 0 181 17t147 63l88 -211q-71 -66 -184 -103.5t-242 -37.5q-111 0 -205.5 32t-168 94t-115.5 164t-42 232q0 256 145 393t377 137q241 0 372 -155.5t128 -452.5zM780 629q-3 26 -12.5 50t-30.5 50t-63 41.5t-99 15.5
q-71 0 -122 -41.5t-76 -115.5h403zM997 1194h-835v188h835v-188z" />
    <glyph glyph-name="Edotaccent" unicode="&#x116;" horiz-adv-x="1253" 
d="M1124 0h-1030l2 1436h1006v-295h-686q0 -47 -1 -142t-1 -143h581v-287h-579v-272h708v-297zM762 1671q0 -65 -42 -108t-99 -43t-98.5 43t-41.5 108q0 64 42 108t98 44q57 0 99 -44.5t42 -107.5z" />
    <glyph glyph-name="edotaccent" unicode="&#x117;" horiz-adv-x="1134" 
d="M1075 424h-715q19 -75 83.5 -123.5t150.5 -48.5q102 0 181 17t147 63l88 -211q-71 -66 -184 -103.5t-242 -37.5q-111 0 -205.5 32t-168 94t-115.5 164t-42 232q0 256 145 393t377 137q241 0 372 -155.5t128 -452.5zM780 629q-3 26 -12.5 50t-30.5 50t-63 41.5t-99 15.5
q-71 0 -122 -41.5t-76 -115.5h403zM707 1335q0 -64 -42.5 -107.5t-99.5 -43.5t-98 43t-41 108q0 64 41.5 108t97.5 44q57 0 99.5 -44.5t42.5 -107.5z" />
    <glyph glyph-name="Eogonek" unicode="&#x118;" horiz-adv-x="1253" 
d="M1124 0h-149q-61 -24 -94.5 -67t-20.5 -85q9 -32 53 -32q30 0 89.5 18.5t117.5 56.5l4 -217q-92 -53 -233 -53q-98 0 -160.5 58t-62.5 131q0 56 30 106t82 84h-686l2 1436h1006v-295h-686q0 -47 -1 -142t-1 -143h581v-287h-579v-272h708v-297z" />
    <glyph glyph-name="eogonek" unicode="&#x119;" horiz-adv-x="1134" 
d="M1075 424h-715q19 -75 83.5 -123.5t150.5 -48.5q102 0 181 17t147 63l88 -211q-54 -51 -125 -80l6 -2q-65 -22 -102.5 -67t-24.5 -89q9 -33 53 -33q29 0 88.5 19t118.5 57l4 -217q-92 -53 -233 -53q-98 0 -161 57.5t-63 130.5q0 74 54 138q-14 -2 -41 -2
q-111 0 -205.5 32t-168 94t-115.5 164t-42 232q0 256 145 393t377 137q241 0 372 -155.5t128 -452.5zM780 629q-3 26 -12.5 50t-30.5 50t-63 41.5t-99 15.5q-71 0 -122 -41.5t-76 -115.5h403z" />
    <glyph glyph-name="Ecaron" unicode="&#x11a;" horiz-adv-x="1253" 
d="M1124 0h-1030l2 1436h1006v-295h-686q0 -47 -1 -142t-1 -143h581v-287h-579v-272h708v-297zM979 1843l-281 -319h-161l-289 319h227l141 -147l144 147h219z" />
    <glyph glyph-name="ecaron" unicode="&#x11b;" horiz-adv-x="1134" 
d="M1075 424h-715q19 -75 83.5 -123.5t150.5 -48.5q102 0 181 17t147 63l88 -211q-71 -66 -184 -103.5t-242 -37.5q-111 0 -205.5 32t-168 94t-115.5 164t-42 232q0 256 145 393t377 137q241 0 372 -155.5t128 -452.5zM780 629q-3 26 -12.5 50t-30.5 50t-63 41.5t-99 15.5
q-71 0 -122 -41.5t-76 -115.5h403zM934 1518l-281 -320h-161l-289 320h227l141 -148l144 148h219z" />
    <glyph glyph-name="Gcommaaccent" unicode="&#x122;" horiz-adv-x="1507" 
d="M1382 1202l-143 -237q-39 32 -114.5 75t-125.5 66q-110 47 -256 47q-169 0 -276 -115.5t-107 -306.5q0 -197 109.5 -317.5t273.5 -120.5q93 0 185 32t157 85q0 26 1 72t1 71h-395v281h680v-594q-88 -91 -229 -162q-192 -98 -400 -98q-98 0 -194.5 30t-184.5 92
t-155.5 148.5t-107.5 209t-40 263.5q0 144 41 266.5t109 207.5t157 145.5t185 89t192 28.5q180 0 318 -49q85 -32 182.5 -98t136.5 -111zM981 -295q0 -47 -17 -85.5t-44.5 -63.5t-62.5 -42t-69 -24.5t-67 -7.5q-106 0 -197 67l39 144q83 -60 154 -60q27 0 47 10t28.5 24.5
t12.5 26.5t4 21q0 40 -23 63t-61 17q-22 -4 -42 -12.5t-29 -15.5l-9 -7l-53 105q50 35 85.5 50t82.5 15q34 0 69.5 -11t71 -35t58 -70.5t22.5 -108.5z" />
    <glyph glyph-name="gcommaaccent" unicode="&#x123;" horiz-adv-x="1185" 
d="M299 1309q0 47 17 85.5t44.5 63.5t62.5 42t69 24.5t67 7.5q105 0 197 -68l-39 -143q-82 59 -154 59q-27 0 -47 -10t-28.5 -24.5t-12.5 -26.5t-4 -21q0 -40 23 -62.5t61 -16.5q22 4 42 12.5t29 14.5l9 7l53 -104q-51 -36 -86.5 -51t-81.5 -15q-34 0 -69.5 11t-71 35
t-58 71t-22.5 109zM1079 72q0 -106 -33 -192t-85.5 -140.5t-122.5 -91t-139 -51.5t-140 -15q-102 0 -201.5 39t-169.5 90l60 207q62 -37 142 -62.5t140 -25.5q48 0 104.5 21.5t102 68.5t45.5 105v55q-44 -42 -103 -68t-118 -26q-96 0 -185 35t-159 97.5t-112 158.5t-42 210
q0 100 29 188t77 151.5t109.5 109.5t128 69t130.5 23q62 0 134.5 -29.5t110.5 -74.5v86h297v-938zM782 342v307q-38 40 -91.5 64t-110.5 24q-99 0 -160.5 -68.5t-61.5 -166.5q0 -102 62 -178t160 -76q118 0 202 94z" />
    <glyph glyph-name="Imacron" unicode="&#x12a;" horiz-adv-x="589" 
d="M442 0h-319v1436h319v-1436zM705 1579h-836v188h836v-188z" />
    <glyph glyph-name="imacron" unicode="&#x12b;" horiz-adv-x="495" 
d="M369 0h-291v1010h291v-1010zM643 1186h-836v188h836v-188z" />
    <glyph glyph-name="Iogonek" unicode="&#x12e;" horiz-adv-x="589" 
d="M442 0h-155q-58 -24 -90 -66.5t-19 -83.5q9 -32 53 -32q29 0 88.5 19t118.5 57l4 -218q-92 -53 -233 -53q-98 0 -160.5 58t-62.5 131q0 62 37.5 116.5t99.5 85.5v1422h319v-1436z" />
    <glyph glyph-name="iogonek" unicode="&#x12f;" horiz-adv-x="446" 
d="M358 0h-139q-65 -22 -102.5 -67t-24.5 -89q9 -32 53 -32q30 0 89.5 18.5t117.5 56.5l4 -217q-92 -53 -233 -53q-98 0 -160.5 57.5t-62.5 130.5q0 71 48.5 131.5t123.5 88.5v985h286v-1010zM365 1284q0 -66 -44.5 -110t-103.5 -44q-57 0 -101 44t-44 110q0 65 43.5 110.5
t101.5 45.5t103 -45.5t45 -110.5z" />
    <glyph glyph-name="dotlessi" unicode="&#x131;" horiz-adv-x="495" 
d="M369 0h-291v1010h291v-1010z" />
    <glyph glyph-name="Kcommaaccent" unicode="&#x136;" horiz-adv-x="1325" 
d="M1270 0h-350l-365 623q-13 -14 -62.5 -69t-76.5 -83v-471h-322l2 1436h320v-549q54 60 229 253t270 296h326v-45l-475 -531q397 -637 504 -811v-49zM887 -236q0 -47 -17 -85.5t-44.5 -63.5t-62.5 -42t-69 -24.5t-67 -7.5q-105 0 -197 68l39 143q82 -59 154 -59
q27 0 47 10t28.5 24.5t12.5 26.5t4 21q0 40 -23 63t-61 17q-22 -4 -42 -12.5t-29 -15.5l-9 -7l-53 104q51 36 86.5 51t81.5 15q34 0 69.5 -11t71 -35t58 -71t22.5 -109z" />
    <glyph glyph-name="kcommaaccent" unicode="&#x137;" horiz-adv-x="1071" 
d="M1026 0h-305l-283 438q-10 -8 -28.5 -25.5t-28.5 -25.5v-387h-291l-2 1520h293v-795l317 285h312v-52l-351 -315q52 -84 178 -293t189 -311v-39zM764 -295q0 -47 -17 -85.5t-44.5 -63.5t-62.5 -42t-69 -24.5t-67 -7.5q-106 0 -197 67l39 144q83 -60 154 -60q27 0 47 10
t28.5 24.5t12.5 26.5t4 21q0 40 -23 63t-61 17q-22 -4 -42 -12.5t-29 -15.5l-9 -7l-53 105q50 35 85.5 50t82.5 15q34 0 69.5 -11t71 -35t58 -70.5t22.5 -108.5z" />
    <glyph glyph-name="Lacute" unicode="&#x139;" horiz-adv-x="1259" 
d="M1163 0h-1067l-2 1436h320v-1127h749v-309zM756 1866l-439 -348h-196l328 376h288z" />
    <glyph glyph-name="lacute" unicode="&#x13a;" horiz-adv-x="516" 
d="M391 0h-295v1520h295v-1520zM729 1952l-438 -348h-197l328 376h289z" />
    <glyph glyph-name="Lcommaaccent" unicode="&#x13b;" horiz-adv-x="1259" 
d="M1163 0h-1067l-2 1436h320v-1127h749v-309zM858 -295q0 -47 -17 -85.5t-44.5 -63.5t-62.5 -42t-69 -24.5t-67 -7.5q-106 0 -197 67l39 144q83 -60 154 -60q27 0 47 10t28.5 24.5t12.5 26.5t4 21q0 40 -23 63t-61 17q-22 -4 -42 -12.5t-29 -15.5l-9 -7l-53 105
q50 35 85.5 50t82.5 15q34 0 69.5 -11t71 -35t58 -70.5t22.5 -108.5z" />
    <glyph glyph-name="lcommaaccent" unicode="&#x13c;" horiz-adv-x="516" 
d="M391 0h-295v1520h295v-1520zM487 -295q0 -47 -17 -85.5t-44.5 -63.5t-62.5 -42t-69 -24.5t-67 -7.5q-105 0 -196 67l39 144q83 -60 153 -60q27 0 47 10t28.5 24.5t12.5 26.5t4 21q0 40 -23 63t-61 17q-22 -4 -41.5 -12.5t-28.5 -15.5l-9 -7l-54 105q50 35 85.5 50
t82.5 15q34 0 69.5 -11t71 -35t58 -70.5t22.5 -108.5z" />
    <glyph glyph-name="Lcaron" unicode="&#x13d;" horiz-adv-x="1259" 
d="M1163 0h-1067l-2 1436h320v-1127h749v-309zM838 1434l-127 -476l-201 3l80 473h248z" />
    <glyph glyph-name="lcaron" unicode="&#x13e;" horiz-adv-x="761" 
d="M391 0h-295v1520h295v-1520zM768 1518l-127 -476l-201 2l80 474h248z" />
    <glyph glyph-name="Lslash" unicode="&#x141;" horiz-adv-x="1308" 
d="M1239 0h-1089v598q-14 -5 -62 -25t-70 -28v221l132 51v619h319v-490q103 45 170 70v-221l-170 -68v-418h770v-309z" />
    <glyph glyph-name="lslash" unicode="&#x142;" horiz-adv-x="591" 
d="M606 788l-162 -63v-725h-294v610l-160 -65v221l160 61v693h294v-576l162 64v-220z" />
    <glyph glyph-name="Nacute" unicode="&#x143;" horiz-adv-x="1507" 
d="M1321 0h-154l-725 817q0 -136 -1 -409t-1 -408h-309v1436h193l690 -781l2 781h305v-1436zM1135 1880l-439 -348h-196l327 377h289z" />
    <glyph glyph-name="nacute" unicode="&#x144;" horiz-adv-x="1124" 
d="M1028 0h-295v627q0 60 -25 97.5t-96 37.5q-94 0 -229 -121v-641h-295v1010h295v-97q113 117 252 117q173 0 283 -104.5t110 -266.5v-659zM985 1491l-438 -348h-197l328 377h289z" />
    <glyph glyph-name="Ncommaaccent" unicode="&#x145;" horiz-adv-x="1490" 
d="M1321 0h-154l-725 817q0 -136 -1 -409t-1 -408h-309v1436h193l690 -781l2 781h305v-1436zM1030 -258q0 -47 -17 -85.5t-44.5 -63.5t-62.5 -42t-69 -24.5t-67 -7.5q-106 0 -197 67l39 144q83 -60 154 -60q27 0 47 10t28.5 24.5t12.5 26.5t4 21q0 40 -23 63t-61 17
q-22 -4 -42 -12.5t-29 -15.5l-9 -7l-53 105q50 35 85.5 50t82.5 15q34 0 69.5 -11t71 -35t58 -70.5t22.5 -108.5z" />
    <glyph glyph-name="ncommaaccent" unicode="&#x146;" horiz-adv-x="1124" 
d="M1028 0h-295v627q0 60 -25 97.5t-96 37.5q-94 0 -229 -121v-641h-295v1010h295v-97q113 117 252 117q173 0 283 -104.5t110 -266.5v-659zM791 -295q0 -47 -17 -85.5t-44.5 -63.5t-62.5 -42t-69.5 -24.5t-67.5 -7.5q-105 0 -196 67l39 144q83 -60 153 -60q27 0 47 10
t28.5 24.5t12.5 26.5t4 21q0 41 -22.5 63.5t-60.5 16.5q-22 -4 -42 -12.5t-29 -15.5l-9 -7l-54 105q50 35 85.5 50t82.5 15q34 0 69.5 -11t71.5 -35t58.5 -70.5t22.5 -108.5z" />
    <glyph glyph-name="Ncaron" unicode="&#x147;" horiz-adv-x="1507" 
d="M1321 0h-154l-725 817q0 -136 -1 -409t-1 -408h-309v1436h193l690 -781l2 781h305v-1436zM1075 1839l-280 -319h-162l-289 319h227l142 -147l143 147h219z" />
    <glyph glyph-name="ncaron" unicode="&#x148;" horiz-adv-x="1124" 
d="M1028 0h-295v627q0 60 -25 97.5t-96 37.5q-94 0 -229 -121v-641h-295v1010h295v-97q113 117 252 117q173 0 283 -104.5t110 -266.5v-659zM928 1518l-281 -320h-162l-288 320h227l141 -148l144 148h219z" />
    <glyph glyph-name="Omacron" unicode="&#x14c;" horiz-adv-x="1579" 
d="M1501 711q0 -146 -40.5 -270t-110 -211t-161.5 -149t-194.5 -91t-210.5 -29t-210.5 30t-194.5 92t-161 150t-109.5 213t-40.5 271q0 151 40.5 277.5t109.5 214.5t161 149.5t194.5 90t210.5 28.5t211.5 -31.5t195 -95.5t160.5 -153.5t109.5 -215t40.5 -270.5zM1198 711
q0 196 -109.5 325t-304.5 129q-132 0 -227 -61t-140.5 -162.5t-45.5 -230.5q0 -123 45.5 -220.5t140.5 -158t227 -60.5q197 0 305.5 123.5t108.5 315.5zM1206 1618h-835v188h835v-188z" />
    <glyph glyph-name="omacron" unicode="&#x14d;" horiz-adv-x="1212" 
d="M1118 502q0 -136 -41.5 -239t-115 -164t-166.5 -91.5t-203 -30.5q-106 0 -200 32t-169.5 94.5t-119.5 165.5t-44 233q0 136 44 241t119.5 167t169 93t200.5 31q106 0 199 -33t167 -96.5t117 -167.5t43 -235zM834 504q0 103 -65.5 173.5t-176.5 70.5q-112 0 -178 -69.5
t-66 -174.5q0 -98 66.5 -166t177.5 -68t176.5 67t65.5 167zM1016 1212h-836v189h836v-189z" />
    <glyph glyph-name="Ohungarumlaut" unicode="&#x150;" horiz-adv-x="1579" 
d="M1501 711q0 -146 -40.5 -270t-110 -211t-161.5 -149t-194.5 -91t-210.5 -29t-210.5 30t-194.5 92t-161 150t-109.5 213t-40.5 271q0 151 40.5 277.5t109.5 214.5t161 149.5t194.5 90t210.5 28.5t211.5 -31.5t195 -95.5t160.5 -153.5t109.5 -215t40.5 -270.5zM1198 711
q0 196 -109.5 325t-304.5 129q-132 0 -227 -61t-140.5 -162.5t-45.5 -230.5q0 -123 45.5 -220.5t140.5 -158t227 -60.5q197 0 305.5 123.5t108.5 315.5zM1446 1884l-363 -350h-221l297 350h287zM995 1884l-348 -350h-215l275 350h288z" />
    <glyph glyph-name="ohungarumlaut" unicode="&#x151;" horiz-adv-x="1212" 
d="M1118 502q0 -136 -41.5 -239t-115 -164t-166.5 -91.5t-203 -30.5q-106 0 -200 32t-169.5 94.5t-119.5 165.5t-44 233q0 136 44 241t119.5 167t169 93t200.5 31q106 0 199 -33t167 -96.5t117 -167.5t43 -235zM834 504q0 103 -65.5 173.5t-176.5 70.5q-112 0 -178 -69.5
t-66 -174.5q0 -98 66.5 -166t177.5 -68t176.5 67t65.5 167zM1221 1516l-363 -351h-221l297 351h287zM770 1516l-348 -351h-215l274 351h289z" />
    <glyph glyph-name="OE" unicode="&#x152;" horiz-adv-x="2273" 
d="M2185 -2h-1171q-125 -41 -250 -41q-108 0 -211.5 30t-197 92.5t-164.5 150.5t-112.5 212t-41.5 269q0 151 41.5 278.5t112 217t164 152t197 92.5t212.5 30q127 0 248 -43h1155v-295h-791q88 -142 107 -301h575v-289h-579q-21 -131 -95 -258h801v-297zM1202 711
q0 192 -120.5 321t-317.5 129t-317.5 -128t-120.5 -322q0 -185 121 -310t317 -125q199 0 318.5 123t119.5 312z" />
    <glyph glyph-name="oe" unicode="&#x153;" horiz-adv-x="1916" 
d="M1847 485v-96h-696q27 -51 91.5 -94t139.5 -43q206 0 353 100l92 -198q-81 -72 -203.5 -120t-241.5 -48q-106 0 -206 39t-175 114q-149 -155 -397 -155q-84 0 -164 20t-152 62.5t-126 102.5t-85.5 145.5t-31.5 185.5q0 129 47.5 231.5t127.5 165.5t178.5 96t205.5 33
q236 0 387 -154q72 76 170.5 116t202.5 40q180 0 302.5 -108.5t166.5 -276.5q14 -55 14 -158zM883 504q0 109 -76.5 184.5t-200.5 75.5q-126 0 -201 -74.5t-75 -185.5q0 -106 75.5 -179t200.5 -73t201 72t76 180zM1577 614q-3 22 -10 41.5t-23 42.5t-38 39.5t-59 27.5
t-83 11q-68 0 -120 -43t-79 -119h412z" />
    <glyph glyph-name="Racute" unicode="&#x154;" horiz-adv-x="1337" 
d="M1239 0h-305l-420 541h-102v-541h-316l-2 1436h680q210 0 322 -117t112 -318q0 -153 -102.5 -272.5t-247.5 -161.5l381 -495v-72zM899 997q0 144 -174 144h-313v-293l297 -2q96 0 143 44t47 107zM1032 1886l-438 -348h-197l328 377h289z" />
    <glyph glyph-name="racute" unicode="&#x155;" horiz-adv-x="831" 
d="M743 1008l-8 -324h-24q-12 22 -49 39.5t-70 17.5q-60 0 -118 -48t-93 -115v-578h-295v1010h295v-117q45 54 106 95.5t127 41.5q87 0 129 -22zM733 1491l-438 -348h-197l328 377h289z" />
    <glyph glyph-name="Rcommaaccent" unicode="&#x156;" horiz-adv-x="1337" 
d="M1239 0h-305l-420 541h-102v-541h-316l-2 1436h680q210 0 322 -117t112 -318q0 -153 -102.5 -272.5t-247.5 -161.5l381 -495v-72zM899 997q0 144 -174 144h-313v-293l297 -2q96 0 143 44t47 107zM897 -295q0 -47 -17 -85.5t-44.5 -63.5t-62.5 -42t-69 -24.5t-67 -7.5
q-106 0 -197 67l39 144q83 -60 154 -60q27 0 47 10t28.5 24.5t12.5 26.5t4 21q0 40 -23 63t-61 17q-22 -4 -42 -12.5t-29 -15.5l-9 -7l-53 105q50 35 85.5 50t82.5 15q34 0 69.5 -11t71 -35t58 -70.5t22.5 -108.5z" />
    <glyph glyph-name="rcommaaccent" unicode="&#x157;" horiz-adv-x="831" 
d="M743 1008l-8 -324h-24q-12 22 -49 39.5t-70 17.5q-60 0 -118 -48t-93 -115v-578h-295v1010h295v-117q45 54 106 95.5t127 41.5q87 0 129 -22zM502 -283q0 -47 -17 -85.5t-44.5 -63.5t-62.5 -42t-69 -24.5t-67 -7.5q-105 0 -197 68l39 143q82 -59 154 -59q27 0 47 10
t28.5 24.5t12.5 26.5t4 21q0 40 -23 62.5t-61 16.5q-22 -4 -42 -12.5t-29 -14.5l-9 -7l-53 104q51 36 86.5 51t81.5 15q34 0 69.5 -11t71 -35t58 -71t22.5 -109z" />
    <glyph glyph-name="Rcaron" unicode="&#x158;" horiz-adv-x="1312" 
d="M1239 0h-305l-420 541h-102v-541h-316l-2 1436h680q210 0 322 -117t112 -318q0 -153 -102.5 -272.5t-247.5 -161.5l381 -495v-72zM899 997q0 144 -174 144h-313v-293l297 -2q96 0 143 44t47 107zM983 1862l-281 -320h-161l-289 320h227l142 -148l143 148h219z" />
    <glyph glyph-name="rcaron" unicode="&#x159;" horiz-adv-x="831" 
d="M743 1008l-8 -324h-24q-12 22 -49 39.5t-70 17.5q-60 0 -118 -48t-93 -115v-578h-295v1010h295v-117q45 54 106 95.5t127 41.5q87 0 129 -22zM782 1518l-280 -320h-162l-289 320h228l141 -148l143 148h219z" />
    <glyph glyph-name="Sacute" unicode="&#x15a;" horiz-adv-x="1329" 
d="M1206 451q0 -109 -40 -194.5t-101 -135.5t-142.5 -83t-154.5 -44.5t-147 -11.5q-149 0 -266 45t-281 159l98 279q160 -95 258 -137.5t170 -42.5q75 0 143 16.5t117 56t49 93.5q0 24 -11.5 44.5t-26.5 34t-44 25.5t-48.5 18t-56 12t-50.5 7.5t-48 5.5q-12 1 -18 2
q-46 6 -80 11t-81.5 14.5t-82 21t-76 29.5t-71 39t-59 51.5t-48 66.5t-29.5 83t-11 102q0 108 39.5 192t98.5 132.5t138 79t148 41t139 10.5q276 0 549 -195l-95 -260q-235 153 -454 153q-63 0 -112 -9.5t-78 -24.5t-48 -34.5t-26 -37t-7 -35.5q0 -36 36.5 -62.5t90.5 -39
t98 -18t74 -5.5q47 -5 76 -8.5t79 -13t83 -19.5t78 -29t74.5 -41.5t62 -56t51 -74t31 -94.5t12.5 -118zM1104 1880l-438 -348h-197l328 377h288z" />
    <glyph glyph-name="sacute" unicode="&#x15b;" horiz-adv-x="1091" 
d="M1018 317q0 -63 -18.5 -114t-48 -85t-72 -59.5t-85 -39t-94 -22t-90.5 -11t-82 -2.5q-132 0 -238.5 35.5t-240.5 119.5l88 199q188 -121 391 -121q63 0 125 20.5t62 57.5q0 20 -22 33.5t-55.5 19.5t-57 8t-41.5 2q-43 0 -77.5 1.5t-88.5 8.5t-95.5 19t-87 36t-75.5 56.5
t-50 83t-20 113.5q0 87 33.5 152.5t83 102.5t119 60t129.5 30t127 7q148 0 245 -32.5t191 -114.5l-92 -199q-92 59 -168.5 87t-175.5 28q-21 0 -52 -4.5t-67 -13.5t-61 -27.5t-25 -42.5q0 -27 47.5 -44t89.5 -21.5t70 -4.5q40 0 77 -2.5t87 -10.5t91.5 -21.5t84.5 -38
t72.5 -57.5t48 -82t18.5 -110zM956 1491l-438 -348h-196l327 377h289z" />
    <glyph glyph-name="Scaron" unicode="&#x160;" horiz-adv-x="1337" 
d="M1206 451q0 -109 -40 -194.5t-101 -135.5t-142.5 -83t-154.5 -44.5t-147 -11.5q-149 0 -266 45t-281 159l98 279q160 -95 258 -137.5t170 -42.5q75 0 143 16.5t117 56t49 93.5q0 24 -11.5 44.5t-26.5 34t-44 25.5t-48.5 18t-56 12t-50.5 7.5t-48 5.5q-12 1 -18 2
q-46 6 -80 11t-81.5 14.5t-82 21t-76 29.5t-71 39t-59 51.5t-48 66.5t-29.5 83t-11 102q0 108 39.5 192t98.5 132.5t138 79t148 41t139 10.5q276 0 549 -195l-95 -260q-235 153 -454 153q-63 0 -112 -9.5t-78 -24.5t-48 -34.5t-26 -37t-7 -35.5q0 -36 36.5 -62.5t90.5 -39
t98 -18t74 -5.5q47 -5 76 -8.5t79 -13t83 -19.5t78 -29t74.5 -41.5t62 -56t51 -74t31 -94.5t12.5 -118zM1028 1876l-280 -320h-162l-289 320h227l142 -147l143 147h219z" />
    <glyph glyph-name="scaron" unicode="&#x161;" horiz-adv-x="1087" 
d="M1018 317q0 -63 -18.5 -114t-48 -85t-72 -59.5t-85 -39t-94 -22t-90.5 -11t-82 -2.5q-132 0 -238.5 35.5t-240.5 119.5l88 199q188 -121 391 -121q63 0 125 20.5t62 57.5q0 20 -22 33.5t-55.5 19.5t-57 8t-41.5 2q-43 0 -77.5 1.5t-88.5 8.5t-95.5 19t-87 36t-75.5 56.5
t-50 83t-20 113.5q0 87 33.5 152.5t83 102.5t119 60t129.5 30t127 7q148 0 245 -32.5t191 -114.5l-92 -199q-92 59 -168.5 87t-175.5 28q-21 0 -52 -4.5t-67 -13.5t-61 -27.5t-25 -42.5q0 -27 47.5 -44t89.5 -21.5t70 -4.5q40 0 77 -2.5t87 -10.5t91.5 -21.5t84.5 -38
t72.5 -57.5t48 -82t18.5 -110zM909 1513l-280 -319h-162l-289 319h228l141 -147l143 147h219z" />
    <glyph glyph-name="Tcaron" unicode="&#x164;" horiz-adv-x="1339" 
d="M1294 1141h-463v-1141h-323v1141h-465v295h1251v-295zM1028 1874l-280 -320h-162l-289 320h227l142 -148l143 148h219z" />
    <glyph glyph-name="tcaron" unicode="&#x165;" horiz-adv-x="923" 
d="M862 172q-58 -73 -152 -122.5t-165 -49.5q-121 0 -221 74q-61 47 -103.5 138.5t-42.5 176.5v375h-137v246h137v190l293 129v-319h332v-246h-332v-328q0 -79 41 -112q24 -21 76 -21q27 0 87.5 26.5t106.5 76.5zM946 1518l-127 -476l-201 2l80 474h248z" />
    <glyph glyph-name="Umacron" unicode="&#x16a;" horiz-adv-x="1474" 
d="M1362 735q0 -349 -168.5 -552t-458.5 -203q-298 0 -470.5 199.5t-170.5 537.5q0 118 1 359.5t1 359.5h314v-684q0 -232 86.5 -342.5t238.5 -110.5q135 0 223.5 122.5t88.5 338.5v676h315v-701zM1155 1618h-836v188h836v-188z" />
    <glyph glyph-name="umacron" unicode="&#x16b;" horiz-adv-x="1138" 
d="M1022 0h-283v98q-42 -34 -70 -53.5t-78.5 -40t-98.5 -20.5q-172 0 -288 103t-116 261v662h293v-619q0 -125 125 -125q86 0 221 109v635h295v-1010zM979 1245h-836v189h836v-189z" />
    <glyph glyph-name="Uring" unicode="&#x16e;" horiz-adv-x="1474" 
d="M1362 735q0 -349 -168.5 -552t-458.5 -203q-298 0 -470.5 199.5t-170.5 537.5q0 118 1 359.5t1 359.5h314v-684q0 -232 86.5 -342.5t238.5 -110.5q135 0 223.5 122.5t88.5 338.5v676h315v-701zM1008 1747q0 -113 -79.5 -190.5t-189.5 -77.5q-109 0 -187.5 77.5
t-78.5 190.5t78.5 190.5t187.5 77.5q110 0 189.5 -77.5t79.5 -190.5zM852 1747q0 52 -33 88.5t-82 36.5q-47 0 -80.5 -37t-33.5 -88q0 -50 33.5 -86.5t80.5 -36.5q49 0 82 36.5t33 86.5z" />
    <glyph glyph-name="uring" unicode="&#x16f;" horiz-adv-x="1138" 
d="M1022 0h-283v98q-42 -34 -70 -53.5t-78.5 -40t-98.5 -20.5q-172 0 -288 103t-116 261v662h293v-619q0 -125 125 -125q86 0 221 109v635h295v-1010zM838 1401q0 -113 -79.5 -190.5t-189.5 -77.5q-109 0 -187.5 77.5t-78.5 190.5t78.5 190.5t187.5 77.5q110 0 189.5 -77.5
t79.5 -190.5zM682 1401q0 52 -33 88.5t-82 36.5q-47 0 -80.5 -37t-33.5 -88q0 -50 33.5 -86.5t80.5 -36.5q49 0 82 36.5t33 86.5z" />
    <glyph glyph-name="Uhungarumlaut" unicode="&#x170;" horiz-adv-x="1474" 
d="M1362 735q0 -349 -168.5 -552t-458.5 -203q-298 0 -470.5 199.5t-170.5 537.5q0 118 1 359.5t1 359.5h314v-684q0 -232 86.5 -342.5t238.5 -110.5q135 0 223.5 122.5t88.5 338.5v676h315v-701zM1403 1913l-363 -350h-221l297 350h287zM952 1913l-348 -350h-215l275 350
h288z" />
    <glyph glyph-name="uhungarumlaut" unicode="&#x171;" horiz-adv-x="1138" 
d="M1022 0h-283v98q-42 -34 -70 -53.5t-78.5 -40t-98.5 -20.5q-172 0 -288 103t-116 261v662h293v-619q0 -125 125 -125q86 0 221 109v635h295v-1010zM1149 1520l-363 -351h-221l297 351h287zM698 1520l-348 -351h-215l275 351h288z" />
    <glyph glyph-name="Uogonek" unicode="&#x172;" horiz-adv-x="1474" 
d="M1362 735q0 -256 -93 -437t-263 -261h2q-1 0 -2 -1t-2 -1l-31 -12q-52 -25 -78 -64.5t-14 -77.5q9 -33 53 -33q29 0 88.5 19t118.5 57l4 -217q-92 -53 -234 -53q-98 0 -160.5 57.5t-62.5 130.5q0 75 53 138h-6q-298 0 -470.5 199.5t-170.5 537.5q0 118 1 359.5t1 359.5
h314v-684q0 -232 86.5 -342.5t238.5 -110.5q135 0 223.5 122.5t88.5 338.5v676h315v-701z" />
    <glyph glyph-name="uogonek" unicode="&#x173;" horiz-adv-x="1138" 
d="M1022 0h-137q-65 -22 -102.5 -67t-24.5 -89q9 -32 53 -32q30 0 89.5 18.5t117.5 56.5l4 -217q-92 -53 -234 -53q-98 0 -160.5 57.5t-62.5 130.5q0 71 49 131.5t125 88.5v73q-42 -34 -70 -53.5t-78.5 -40t-98.5 -20.5q-172 0 -288 103t-116 261v662h293v-619
q0 -125 125 -125q86 0 221 109v635h295v-1010z" />
    <glyph glyph-name="Ydieresis" unicode="&#x178;" horiz-adv-x="1376" 
d="M1313 1382l-469 -841v-541h-324v553l-467 827v56h316l336 -594l315 594h293v-54zM653 1704q0 -57 -37.5 -97t-91.5 -40t-92.5 40t-38.5 97q0 58 38.5 98.5t92.5 40.5t91.5 -40.5t37.5 -98.5zM1049 1704q0 -57 -38.5 -97t-92.5 -40q-53 0 -91.5 40t-38.5 97q0 58 38 98.5
t92 40.5t92.5 -40.5t38.5 -98.5z" />
    <glyph glyph-name="Zacute" unicode="&#x179;" horiz-adv-x="1284" 
d="M1200 1231l-702 -946h673v-285h-1101v209l710 944h-692v283h1112v-205zM958 1915l-438 -348h-196l327 377h289z" />
    <glyph glyph-name="zacute" unicode="&#x17a;" horiz-adv-x="1118" 
d="M1036 0h-964v143l481 598h-481v269h964v-154l-458 -586h458v-270zM877 1491l-439 -348h-196l327 377h289z" />
    <glyph glyph-name="Zdotaccent" unicode="&#x17b;" horiz-adv-x="1284" 
d="M1200 1231l-702 -946h673v-285h-1101v209l710 944h-692v283h1112v-205zM782 1739q0 -65 -42 -108.5t-99 -43.5t-98 43.5t-41 108.5q0 64 41.5 107.5t97.5 43.5q57 0 99 -44t42 -107z" />
    <glyph glyph-name="zdotaccent" unicode="&#x17c;" horiz-adv-x="1118" 
d="M1036 0h-964v143l481 598h-481v269h964v-154l-458 -586h458v-270zM698 1315q0 -65 -42 -108.5t-99 -43.5t-98 43.5t-41 108.5q0 64 41.5 107.5t97.5 43.5q57 0 99 -44t42 -107z" />
    <glyph glyph-name="Zcaron" unicode="&#x17d;" horiz-adv-x="1292" 
d="M1200 1231l-702 -946h673v-285h-1101v209l710 944h-692v283h1112v-205zM1006 1880l-281 -319h-162l-289 319h228l141 -147l143 147h220z" />
    <glyph glyph-name="zcaron" unicode="&#x17e;" horiz-adv-x="1122" 
d="M1036 0h-964v143l481 598h-481v269h964v-154l-458 -586h458v-270zM944 1520l-280 -320h-162l-289 320h227l142 -148l143 148h219z" />
    <glyph glyph-name="florin" unicode="&#x192;" horiz-adv-x="692" 
d="M647 1513l-31 -288q-55 18 -96 18q-58 0 -78 -20q-39 -31 -39 -115v-98h220v-252h-220v-854q0 -88 -42 -180.5t-103 -139.5q-102 -78 -221 -78q-83 0 -172 39l33 289q61 -20 96 -20q53 0 76 20q41 38 41 115v809h-97v252h97v145q0 91 40 182t103 140q95 73 221 73
q76 0 172 -37z" />
    <glyph glyph-name="circumflex" unicode="&#x2c6;" horiz-adv-x="1503" 
d="M1096 1188h-224l-141 168l-143 -168h-223l288 338h162z" />
    <glyph glyph-name="caron" unicode="&#x2c7;" horiz-adv-x="1503" 
d="M1071 1518l-280 -320h-162l-289 320h227l142 -148l143 148h219z" />
    <glyph glyph-name="breve" unicode="&#x2d8;" horiz-adv-x="1099" 
d="M872 1595q-12 -51 -41.5 -101.5t-71 -92t-98 -67t-116.5 -25.5q-119 0 -208 86t-118 200l115 27q20 -54 85 -98.5t126 -44.5q57 0 123 41.5t84 93.5z" />
    <glyph glyph-name="dotaccent" unicode="&#x2d9;" horiz-adv-x="446" 
d="M358 1315q0 -65 -42 -108.5t-99 -43.5t-98 43.5t-41 108.5q0 64 41.5 107.5t97.5 43.5q57 0 99 -44t42 -107z" />
    <glyph glyph-name="ring" unicode="&#x2da;" horiz-adv-x="1394" 
d="M979 1401q0 -113 -79 -190.5t-189 -77.5q-109 0 -188 77.5t-79 190.5t79 190.5t188 77.5q110 0 189 -77.5t79 -190.5zM823 1401q0 52 -32.5 88.5t-81.5 36.5q-47 0 -81 -37t-34 -88q0 -50 34 -86.5t81 -36.5q49 0 81.5 36.5t32.5 86.5z" />
    <glyph glyph-name="ogonek" unicode="&#x2db;" horiz-adv-x="860" 
d="M422 51l119 -35q-65 -22 -102.5 -66.5t-24.5 -88.5q9 -33 53 -33q29 0 88.5 19t118.5 57l4 -217q-94 -54 -234 -54q-98 0 -160.5 58t-62.5 131q0 77 57.5 141t143.5 88z" />
    <glyph glyph-name="tilde" unicode="&#x2dc;" horiz-adv-x="1470" 
d="M1087 1395q-4 -10 -12 -27.5t-33 -61t-51.5 -77t-65.5 -61t-77 -27.5q-77 0 -168 67q-5 4 -23.5 17.5t-30.5 21.5t-28.5 15.5t-28.5 7.5q-88 0 -135 -123l-100 45q3 11 9.5 29t28 64.5t46 82.5t63.5 65t80 29q81 0 170 -65q5 -4 19.5 -15t23.5 -17.5t22 -15t24.5 -12.5
t21.5 -4q80 0 151 115z" />
    <glyph glyph-name="hungarumlaut" unicode="&#x2dd;" horiz-adv-x="1306" 
d="M1165 1837l-362 -350h-221l297 350h286zM715 1837l-348 -350h-215l274 350h289z" />
    <glyph glyph-name="Delta" unicode="&#x394;" horiz-adv-x="1411" 
d="M1364 0h-1321l565 1440h215zM1022 221l-317 869h-3l-327 -869h647z" />
    <glyph glyph-name="Delta" unicode="&#x2206;" horiz-adv-x="1411" 
d="M1364 0h-1321l565 1440h215zM1022 221l-317 869h-3l-327 -869h647z" />
    <glyph glyph-name="Omega" unicode="&#x3a9;" horiz-adv-x="1697" 
d="M1612 -2h-631v176q159 142 216.5 267.5t57.5 285.5q0 92 -29 175.5t-80.5 147.5t-129 102t-168.5 38q-121 0 -215.5 -65.5t-143.5 -170.5t-49 -227q0 -156 58 -283.5t209 -265.5v-178h-619v258h217q-151 205 -151 469q0 143 52.5 275.5t143 232.5t221 159.5t277.5 59.5
t277.5 -59.5t221 -159.5t143 -232.5t52.5 -275.5q0 -265 -147 -469h217v-260z" />
    <glyph glyph-name="Omega" unicode="&#x2126;" horiz-adv-x="1697" 
d="M1612 -2h-631v176q159 142 216.5 267.5t57.5 285.5q0 92 -29 175.5t-80.5 147.5t-129 102t-168.5 38q-121 0 -215.5 -65.5t-143.5 -170.5t-49 -227q0 -156 58 -283.5t209 -265.5v-178h-619v258h217q-151 205 -151 469q0 143 52.5 275.5t143 232.5t221 159.5t277.5 59.5
t277.5 -59.5t221 -159.5t143 -232.5t52.5 -275.5q0 -265 -147 -469h217v-260z" />
    <glyph glyph-name="pi" unicode="&#x3c0;" horiz-adv-x="1292" 
d="M463 0h-230v821h-196v183h1198v-183h-193v-821h-229v821h-350v-821z" />
    <glyph glyph-name="afii10023" unicode="&#x401;" horiz-adv-x="1253" 
d="M1124 0h-1030l2 1436h1006v-295h-686q0 -47 -1 -142t-1 -143h581v-287h-579v-272h708v-297zM928 1673q0 -57 -38.5 -97t-92.5 -40q-53 0 -91 40t-38 97q0 58 37.5 98.5t91.5 40.5t92.5 -40.5t38.5 -98.5zM532 1673q0 -57 -37.5 -97t-91.5 -40t-92.5 40t-38.5 97
q0 58 38.5 98.5t92.5 40.5t91.5 -40.5t37.5 -98.5z" />
    <glyph glyph-name="afii10051" unicode="&#x402;" horiz-adv-x="1492" 
d="M1198 1159h-493v-225q50 36 122 60t131 24q211 0 316 -104t104 -332q0 -99 1 -302t1 -300q0 -116 -57.5 -208t-150.5 -140t-203 -48q-69 0 -226 47l39 267q149 -37 170 -37q52 0 81 34t32 89v567q0 81 -29 125.5t-106 44.5q-90 0 -225 -117v-604h-316v1159h-369v277h1178
v-277z" />
    <glyph glyph-name="afii10052" unicode="&#x403;" horiz-adv-x="1181" 
d="M104 1434h1049v-301h-725v-1131h-324v1432zM1032 1868l-438 -348h-197l328 376h289z" />
    <glyph glyph-name="afii10053" unicode="&#x404;" horiz-adv-x="1380" 
d="M1206 451l144 -252q-293 -222 -578 -222q-148 0 -277.5 49t-227.5 141t-155 235t-57 319q0 164 58 304t156 234.5t226.5 147.5t268.5 53q274 0 555 -200l-137 -256q-99 72 -206 110.5t-206 38.5q-82 0 -160.5 -30t-140.5 -96.5t-76 -156.5h615v-299h-617
q18 -90 82 -158.5t143 -100t158 -31.5q97 0 215.5 49t216.5 121z" />
    <glyph glyph-name="afii10054" unicode="&#x405;" horiz-adv-x="1294" 
d="M1206 451q0 -109 -40 -194.5t-101 -135.5t-142.5 -83t-154.5 -44.5t-147 -11.5q-149 0 -266 45t-281 159l98 279q160 -95 258 -137.5t170 -42.5q75 0 143 16.5t117 56t49 93.5q0 24 -11.5 44.5t-26.5 34t-44 25.5t-48.5 18t-56 12t-50.5 7.5t-48 5.5q-12 1 -18 2
q-46 6 -80 11t-81.5 14.5t-82 21t-76 29.5t-71 39t-59 51.5t-48 66.5t-29.5 83t-11 102q0 108 39.5 192t98.5 132.5t138 79t148 41t139 10.5q276 0 549 -195l-95 -260q-235 153 -454 153q-63 0 -112 -9.5t-78 -24.5t-48 -34.5t-26 -37t-7 -35.5q0 -36 36.5 -62.5t90.5 -39
t98 -18t74 -5.5q47 -5 76 -8.5t79 -13t83 -19.5t78 -29t74.5 -41.5t62 -56t51 -74t31 -94.5t12.5 -118z" />
    <glyph glyph-name="afii10055" unicode="&#x406;" horiz-adv-x="589" 
d="M442 0h-319v1436h319v-1436z" />
    <glyph glyph-name="afii10056" unicode="&#x407;" horiz-adv-x="755" 
d="M442 0h-319v1436h319v-1436zM610 1724q0 -57 -38.5 -97t-92.5 -40q-53 0 -91 40t-38 97q0 59 37.5 99.5t91.5 40.5t92.5 -41t38.5 -99zM215 1724q0 -57 -37.5 -97t-91.5 -40t-92.5 40t-38.5 97q0 58 38.5 99t92.5 41t91.5 -40.5t37.5 -99.5z" />
    <glyph glyph-name="afii10057" unicode="&#x408;" horiz-adv-x="620" 
d="M504 139q0 -145 -62.5 -267.5t-169 -193.5t-231.5 -71q-108 0 -225 69l53 263q90 -33 149 -33q50 0 84.5 25t51 71t23.5 95.5t7 113.5v1225h320v-1297z" />
    <glyph glyph-name="afii10058" unicode="&#x409;" horiz-adv-x="2082" 
d="M1540 0h-555v1128h-256q-23 -316 -61 -516q-19 -99 -44.5 -183.5t-66 -166.5t-91 -139t-121.5 -92t-155 -35q-51 0 -131 20l2 303q132 -27 132 -22q1 2 2 2q52 0 96.5 115.5t70.5 281.5q38 236 52 582l10 156h883v-529h237q72 0 139.5 -16t129 -51.5t107.5 -86.5
t73.5 -127t27.5 -167q0 -101 -27.5 -181t-73.5 -130.5t-109 -84.5t-130 -47.5t-141 -13.5zM1706 459q0 79 -49 117t-121 38h-229v-313h243q156 0 156 158z" />
    <glyph glyph-name="afii10059" unicode="&#x40a;" horiz-adv-x="1976" 
d="M1436 0h-557v604h-426v-604h-324v1434h324v-525h426v525h323v-529h238q72 0 139.5 -16t129 -51.5t107.5 -86.5t73.5 -127t27.5 -167q0 -101 -27.5 -181t-73.5 -130.5t-109 -84.5t-130 -47.5t-141 -13.5zM1602 459q0 79 -49 117t-121 38h-230v-313h244q156 0 156 158z" />
    <glyph glyph-name="afii10060" unicode="&#x40b;" horiz-adv-x="1468" 
d="M1356 0h-309v551q0 170 -140 170q-44 0 -107.5 -34.5t-119.5 -82.5v-604h-315v1151h-365v283h1176v-283h-496v-201q106 64 235 64q214 0 328 -103.5t113 -328.5v-582z" />
    <glyph glyph-name="afii10061" unicode="&#x40c;" horiz-adv-x="1347" 
d="M100 0v1434h316v-564h82l456 564h334v-68l-510 -643l504 -655v-68h-324l-466 571h-76v-571h-316zM1161 1868l-438 -348h-197l328 376h289z" />
    <glyph glyph-name="afii10062" unicode="&#x40e;" horiz-adv-x="1411" 
d="M1368 1378l-557 -1169q-48 -97 -152.5 -153t-220.5 -56h-207v293h189q34 -3 69 14.5t41 42.5q-88 188 -284 597.5t-205 428.5v58h326l338 -721l333 721h330v-56zM1061 1868q0 -150 -101.5 -261.5t-248.5 -111.5q-157 0 -262 113t-105 260h188q11 -78 59.5 -133.5
t119.5 -55.5q65 0 110 55t53 134h187z" />
    <glyph glyph-name="afii10145" unicode="&#x40f;" horiz-adv-x="1363" 
d="M102 1436h324v-1131h479v1131h326v-1436h-404v-410h-321v410h-404v1436z" />
    <glyph glyph-name="afii10017" unicode="&#x410;" horiz-adv-x="1499" 
d="M1436 0h-322l-98 268h-570l-108 -268h-313l596 1440h245zM907 559l-174 451l-178 -451h352z" />
    <glyph glyph-name="afii10018" unicode="&#x411;" horiz-adv-x="1257" 
d="M1180 467q0 -101 -31 -182t-81 -133t-118 -87.5t-137.5 -50t-142.5 -14.5h-566v1434h973v-289h-659v-225h256q72 0 142.5 -16.5t136.5 -52.5t116 -88t80.5 -128.5t30.5 -167.5zM864 469q0 78 -57 120t-131 42h-258v-336h262q74 0 129 44.5t55 129.5z" />
    <glyph glyph-name="afii10019" unicode="&#x412;" horiz-adv-x="1290" 
d="M1178 412q0 -190 -116.5 -301t-299.5 -111h-658v1436h637q137 0 234 -55t142.5 -146.5t45.5 -210.5q0 -99 -40.5 -173t-108.5 -120q70 -47 117 -135.5t47 -183.5zM862 1001q0 150 -172 150h-276v-299h260q97 0 142.5 43t45.5 106zM883 424q0 66 -44.5 111t-138.5 45h-286
v-295h272q99 0 148 40.5t49 98.5z" />
    <glyph glyph-name="afii10020" unicode="&#x413;" horiz-adv-x="1181" 
d="M104 1434h1049v-301h-725v-1131h-324v1432z" />
    <glyph glyph-name="afii10021" unicode="&#x414;" horiz-adv-x="1562" 
d="M70 303h141q174 322 188 1131h922v-1131h164v-631h-320v328h-776v-328h-319v631zM995 1128h-284q-34 -532 -154 -825h438v825z" />
    <glyph glyph-name="afii10022" unicode="&#x415;" horiz-adv-x="1263" 
d="M1135 0h-1031l2 1436h1006v-295h-686q0 -47 -1 -142t-1 -143h582v-287h-580v-272h709v-297z" />
    <glyph glyph-name="afii10024" unicode="&#x416;" horiz-adv-x="2150" 
d="M1569 737l463 -669v-68h-332l-387 573h-94v-573h-316v573h-94l-387 -573h-332v68l463 669l-461 631v68h334l391 -564h86v564h316v-564h86l391 564h334v-68z" />
    <glyph glyph-name="afii10025" unicode="&#x417;" horiz-adv-x="1206" 
d="M889 727q119 -40 180 -119t61 -180q0 -110 -40.5 -196.5t-111.5 -141t-163.5 -82.5t-200.5 -28q-78 0 -147 11t-118 25.5t-111 46t-98.5 54t-108.5 69.5l104 260q130 -82 256 -123.5t223 -41.5q89 0 141 42.5t52 100.5q0 60 -53.5 104.5t-145.5 44.5h-202v285h202
q77 0 121.5 43t44.5 100q0 61 -44.5 106.5t-121.5 45.5q-203 0 -434 -141l-121 264q255 178 557 178q213 0 350.5 -108t137.5 -297q0 -104 -46.5 -184t-162.5 -138z" />
    <glyph glyph-name="afii10026" unicode="&#x418;" horiz-adv-x="1421" 
d="M324 -2h-222v1436h324v-795l621 795h241v-1434h-323v817q-105 -135 -321 -410t-320 -409z" />
    <glyph glyph-name="afii10027" unicode="&#x419;" horiz-adv-x="1421" 
d="M324 -2h-222v1436h320v-795q68 87 289.5 368t335.5 427h241v-1434h-323v817q-105 -135 -321 -410t-320 -409zM1108 1835q0 -150 -106.5 -261.5t-260.5 -111.5q-110 0 -199 54t-136.5 139t-47.5 180h232q10 -66 49.5 -112t99.5 -46q55 0 93.5 45.5t46.5 112.5h229z" />
    <glyph glyph-name="afii10028" unicode="&#x41a;" horiz-adv-x="1327" 
d="M100 0v1434h316v-564h82l456 564h334v-68l-510 -643l504 -655v-68h-324l-466 571h-76v-571h-316z" />
    <glyph glyph-name="afii10029" unicode="&#x41b;" horiz-adv-x="1421" 
d="M1296 0h-325v1139h-301q-4 -63 -9 -124.5t-16 -149.5t-26 -167.5t-39 -170t-53.5 -165t-71.5 -145.5t-91.5 -119.5t-114.5 -78t-140 -29.5q-24 0 -35 2t-74 18v309q61 -20 111 -20q52 0 96.5 77t75.5 197.5t54.5 275t36 301t17.5 284.5h905v-1434z" />
    <glyph glyph-name="afii10030" unicode="&#x41c;" horiz-adv-x="1857" 
d="M1747 0h-301l-72 758l-438 -735h-129l-373 725l-65 -748h-303l102 1436l252 2l479 -918l541 918l202 -2z" />
    <glyph glyph-name="afii10031" unicode="&#x41d;" horiz-adv-x="1384" 
d="M1251 0h-321v543h-506v-543h-322v1436h324v-584h504v584h321v-1436z" />
    <glyph glyph-name="afii10032" unicode="&#x41e;" horiz-adv-x="1579" 
d="M1501 711q0 -146 -40.5 -270t-110 -211t-161.5 -149t-194.5 -91t-210.5 -29t-210.5 30t-194.5 92t-161 150t-109.5 213t-40.5 271q0 151 40.5 277.5t109.5 214.5t161 149.5t194.5 90t210.5 28.5t211.5 -31.5t195 -95.5t160.5 -153.5t109.5 -215t40.5 -270.5zM1198 711
q0 196 -109.5 325t-304.5 129q-132 0 -227 -61t-140.5 -162.5t-45.5 -230.5q0 -123 45.5 -220.5t140.5 -158t227 -60.5q197 0 305.5 123.5t108.5 315.5z" />
    <glyph glyph-name="afii10033" unicode="&#x41f;" horiz-adv-x="1380" 
d="M1247 0h-325v1128h-488v-1128h-328v1434h1141v-1434z" />
    <glyph glyph-name="afii10034" unicode="&#x420;" horiz-adv-x="1298" 
d="M1200 918q0 -118 -42 -216t-112.5 -161t-161 -98t-188.5 -35h-270v-408h-322l2 1436h596q220 0 359 -137.5t139 -380.5zM893 913q0 94 -57 148.5t-156 54.5h-254v-409h238q101 0 165 59.5t64 146.5z" />
    <glyph glyph-name="afii10035" unicode="&#x421;" horiz-adv-x="1394" 
d="M1178 496l145 -267q-238 -247 -586 -247q-135 0 -255.5 48t-214.5 138t-149 233.5t-55 321.5q0 133 38 252t104 206.5t151 151.5t181.5 96.5t193.5 32.5q346 0 578 -215l-138 -284q-108 98 -204.5 144t-227.5 46q-153 0 -258.5 -119.5t-105.5 -314.5q0 -193 106.5 -315.5
t255.5 -122.5q68 0 128.5 15.5t116 48.5t98 66.5t98.5 84.5z" />
    <glyph glyph-name="afii10036" unicode="&#x422;" horiz-adv-x="1339" 
d="M1294 1141h-463v-1141h-323v1141h-465v295h1251v-295z" />
    <glyph glyph-name="afii10037" unicode="&#x423;" horiz-adv-x="1411" 
d="M1368 1378l-557 -1169q-48 -97 -152.5 -153t-220.5 -56h-207v293h189q34 -3 69 14.5t41 42.5q-88 188 -284 597.5t-205 428.5v58h326l338 -721l333 721h330v-56z" />
    <glyph glyph-name="afii10038" unicode="&#x424;" horiz-adv-x="1562" 
d="M924 0h-312v178q-250 12 -408.5 160t-158.5 389q0 158 78.5 282t206 191.5t282.5 77.5v201h312v-197q120 -4 225 -44.5t184 -110.5t124.5 -173.5t45.5 -226.5q0 -168 -78 -293t-207.5 -189t-293.5 -69v-176zM1188 727q0 113 -70.5 189t-193.5 77v-530q123 -4 193.5 71.5
t70.5 192.5zM358 727q0 -105 72 -179.5t182 -80.5v520q-80 2 -139 -35t-87 -96t-28 -129z" />
    <glyph glyph-name="afii10039" unicode="&#x425;" horiz-adv-x="1384" 
d="M1300 0h-329l-305 461l-314 -461h-305v53l447 658l-447 669v56h328l301 -455q82 125 295 455h309v-54l-434 -651l452 -676z" />
    <glyph glyph-name="afii10040" unicode="&#x426;" horiz-adv-x="1501" 
d="M102 1434h324v-1131h489v1131h326v-1131h225v-631h-311v328h-1053v1434z" />
    <glyph glyph-name="afii10041" unicode="&#x427;" horiz-adv-x="1304" 
d="M66 1434h327v-545q0 -74 36.5 -124t93 -68.5t120 -19t121 17.5t92.5 48v691h322v-1434h-322v453q-35 -17 -86 -29.5t-114 -20t-130 -2.5t-133 20t-125 50t-104 85.5t-71.5 129.5t-26.5 178v570z" />
    <glyph glyph-name="afii10042" unicode="&#x428;" horiz-adv-x="1941" 
d="M106 1434h324v-1129h369v1129h317v-1129h369v1129h325v-1434h-1704v1434z" />
    <glyph glyph-name="afii10043" unicode="&#x429;" horiz-adv-x="2072" 
d="M102 0v1434h322v-1131h354v1131h316v-1131h356v1131h322v-1131h256l2 -631h-316v328h-1612z" />
    <glyph glyph-name="afii10044" unicode="&#x42a;" horiz-adv-x="1558" 
d="M1475 457q0 -101 -28 -181t-73.5 -130.5t-109 -84.5t-130.5 -47.5t-141 -13.5h-577v1135h-383v299h706v-529h258q91 0 173.5 -26.5t152 -78.5t111 -141t41.5 -202zM1159 459q0 79 -49 117t-121 38h-250v-313h265q155 0 155 158z" />
    <glyph glyph-name="afii10045" unicode="&#x42b;" horiz-adv-x="1736" 
d="M1604 0h-318v1434h318v-1434zM1139 457q0 -101 -28 -181t-73.5 -130.5t-109 -84.5t-130.5 -47.5t-141 -13.5h-557v1434h324v-529h238q72 0 139.5 -16t129 -51.5t107.5 -86.5t73.5 -127t27.5 -167zM823 459q0 79 -49 117t-121 38h-229v-313h244q155 0 155 158z" />
    <glyph glyph-name="afii10046" unicode="&#x42c;" horiz-adv-x="1210" 
d="M1161 457q0 -101 -27.5 -181t-73.5 -130.5t-109 -84.5t-130 -47.5t-141 -13.5h-578v1434h324v-529h258q72 0 139.5 -16t129 -51.5t107.5 -86.5t73.5 -127t27.5 -167zM846 459q0 79 -49 117t-121 38h-250v-313h264q156 0 156 158z" />
    <glyph glyph-name="afii10047" unicode="&#x42d;" horiz-adv-x="1380" 
d="M29 199l170 247q231 -165 397 -165q78 0 160 34.5t144 103t71 152.5h-609v299h607q-11 68 -48.5 123.5t-89.5 89.5t-111.5 52t-119.5 18q-171 0 -395 -162l-152 269q126 105 261 152.5t292 47.5q145 0 275 -53t226.5 -147.5t153 -234.5t56.5 -304q0 -177 -56 -319.5
t-153.5 -234.5t-228 -141t-281.5 -49q-163 0 -311.5 60.5t-257.5 161.5z" />
    <glyph glyph-name="afii10048" unicode="&#x42e;" horiz-adv-x="1994" 
d="M428 0h-317v1434h317v-590h176q17 146 76 263t146.5 192t196 115t228.5 40q143 0 263 -49t208 -141.5t137.5 -235.5t49.5 -323q0 -166 -50.5 -303t-138.5 -228t-208.5 -140.5t-260.5 -49.5q-160 0 -295.5 65.5t-228.5 193.5t-121 300h-178v-543zM1581 705
q0 209 -92 327.5t-238 118.5t-238.5 -118.5t-92.5 -327.5q0 -194 90.5 -306t240.5 -112q149 0 239.5 113t90.5 305z" />
    <glyph glyph-name="afii10049" unicode="&#x42f;" horiz-adv-x="1257" 
d="M356 0h-344v66l336 469q-47 13 -94.5 44.5t-91.5 83.5t-71.5 134t-27.5 180q0 201 146.5 329t378.5 128h565v-1434h-319v467h-164zM385 950q0 -78 57 -135t140 -57h252v379h-252q-91 0 -144 -50.5t-53 -136.5z" />
    <glyph glyph-name="afii10065" unicode="&#x430;" 
d="M1133 0q-42 -6 -99 -6q-159 0 -227 86q-104 -96 -287 -96q-65 0 -126.5 10.5t-121.5 37t-104.5 65t-72 100t-27.5 137.5q0 83 26.5 146.5t69.5 102t104 63t122.5 33.5t133.5 9q122 0 207 -29q2 -2 10 -2q0 89 -34 109q-65 43 -175 43q-117 0 -331 -94l-39 207
q50 37 170 73.5t211 36.5q221 0 338 -80q86 -59 118.5 -127t32.5 -172v-317q0 -64 21.5 -86.5t79.5 -3.5v-246zM741 272v177l-45.5 6.5t-52 7.5t-48 5.5t-48.5 2.5q-95 0 -143 -36.5t-48 -92.5q0 -57 43 -89t129 -32q143 0 213 51z" />
    <glyph glyph-name="afii10066" unicode="&#x431;" horiz-adv-x="1193" 
d="M639 1030q202 0 340.5 -145t138.5 -365q0 -248 -146 -395.5t-374 -147.5q-273 0 -412 162t-139 473q0 115 15.5 220t52.5 206.5t93 180t143.5 136t197.5 79.5l479 96v-295l-473 -92q-120 -28 -180 -83t-86 -181q76 83 155.5 117t194.5 34zM594 272q107 0 172 68t65 182
q0 97 -66 167.5t-161 70.5q-115 0 -193.5 -67.5t-78.5 -172.5q0 -111 73.5 -179.5t188.5 -68.5z" />
    <glyph glyph-name="afii10067" unicode="&#x432;" horiz-adv-x="1120" 
d="M1030 299q0 -75 -35 -133.5t-94.5 -94t-133 -53.5t-155.5 -18h-530v1010h496q432 0 432 -295q0 -58 -40.5 -114t-99.5 -79q58 -35 109 -95t51 -128zM733 324q0 45 -32 66.5t-105 21.5h-217v-166h211q74 0 108.5 19t34.5 59zM721 686q0 86 -141 86h-201q0 -16 -1 -75
t-1 -93h213q64 0 97.5 22t33.5 60z" />
    <glyph glyph-name="afii10068" unicode="&#x433;" horiz-adv-x="958" 
d="M84 1010h786v-277h-495v-731h-291v1008z" />
    <glyph glyph-name="afii10069" unicode="&#x434;" horiz-adv-x="1316" 
d="M49 272h129q86 134 130.5 308.5t62.5 429.5h743v-738h172v-559h-287v287h-661v-287h-289v559zM817 733h-176q-30 -266 -127 -461h303v461z" />
    <glyph glyph-name="afii10070" unicode="&#x435;" horiz-adv-x="1134" 
d="M1075 424h-715q19 -75 83.5 -123.5t150.5 -48.5q102 0 181 17t147 63l88 -211q-71 -66 -184 -103.5t-242 -37.5q-111 0 -205.5 32t-168 94t-115.5 164t-42 232q0 256 145 393t377 137q241 0 372 -155.5t128 -452.5zM780 629q-3 26 -12.5 50t-30.5 50t-63 41.5t-99 15.5
q-71 0 -122 -41.5t-76 -115.5h403z" />
    <glyph glyph-name="afii10072" unicode="&#x436;" horiz-adv-x="1701" 
d="M1229 516l340 -487v-29h-322l-250 375h-63v-375h-281v375h-63l-250 -375h-322v29l340 487l-325 471v23h325l228 -361h67v361h281v-361h67l228 361h325v-23z" />
    <glyph glyph-name="afii10073" unicode="&#x437;" horiz-adv-x="1042" 
d="M977 328q0 -92 -39 -160.5t-106 -107t-145 -56.5t-167 -18q-235 0 -479 149l98 221q103 -61 208.5 -94t172.5 -33q75 0 120.5 34.5t45.5 68.5q0 74 -82 84h-248v192h211q64 0 95 46q29 44 0 86q-40 57 -162 57q-67 0 -158.5 -32t-177.5 -95l-109 209q180 149 465 149
q117 0 214 -31t158.5 -95.5t61.5 -153.5q0 -73 -33.5 -135t-86.5 -83q70 -24 106.5 -78t36.5 -124z" />
    <glyph glyph-name="afii10074" unicode="&#x438;" horiz-adv-x="1224" 
d="M1114 0h-299v602l-418 -602h-319v1010h299v-598l418 598h319v-1010z" />
    <glyph glyph-name="afii10075" unicode="&#x439;" horiz-adv-x="1155" 
d="M1114 0h-299v602l-418 -602h-319v1010h299v-598l418 598h319v-1010zM971 1481q0 -150 -106.5 -261.5t-260.5 -111.5q-110 0 -199 54t-136.5 139t-47.5 180h232q10 -66 49.5 -112t99.5 -46q55 0 93 45.5t46 112.5h230z" />
    <glyph glyph-name="afii10076" unicode="&#x43a;" horiz-adv-x="1099" 
d="M1020 987l-371 -477l385 -481v-29h-321l-312 375h-63v-375h-281v1010h281v-361h68l288 361h326v-23z" />
    <glyph glyph-name="afii10077" unicode="&#x43b;" horiz-adv-x="1257" 
d="M43 12v281q30 -12 80 -12q150 0 205 729h790v-1010h-295v735h-227q-21 -177 -52 -307t-69 -212.5t-88.5 -132t-103.5 -68.5t-121 -19q-33 0 -119 16z" />
    <glyph glyph-name="afii10078" unicode="&#x43c;" horiz-adv-x="1507" 
d="M1423 0h-286l-76 459l-244 -457h-158l-249 471l-74 -473h-281l148 1012h235l310 -572l307 572h221z" />
    <glyph glyph-name="afii10079" unicode="&#x43d;" horiz-adv-x="1193" 
d="M1075 0h-299v381h-393v-381h-299v1010h299v-353h393v353h299v-1010z" />
    <glyph glyph-name="afii10080" unicode="&#x43e;" horiz-adv-x="1212" 
d="M1118 502q0 -136 -41.5 -239t-115 -164t-166.5 -91.5t-203 -30.5q-106 0 -200 32t-169.5 94.5t-119.5 165.5t-44 233q0 136 44 241t119.5 167t169 93t200.5 31q106 0 199 -33t167 -96.5t117 -167.5t43 -235zM834 504q0 103 -65.5 173.5t-176.5 70.5q-112 0 -178 -69.5
t-66 -174.5q0 -98 66.5 -166t177.5 -68t176.5 67t65.5 167z" />
    <glyph glyph-name="afii10081" unicode="&#x43f;" horiz-adv-x="1183" 
d="M1077 0h-297v735h-399v-735h-299v1010h993z" />
    <glyph glyph-name="afii10082" unicode="&#x440;" horiz-adv-x="1177" 
d="M1120 514q0 -133 -38 -236.5t-105.5 -167t-155 -96t-190.5 -32.5q-59 0 -126.5 22t-121.5 59v-473h-295v1420h295v-64q43 35 107.5 58.5t121.5 23.5q101 0 192.5 -35t162 -99t112 -162.5t41.5 -217.5zM825 500q0 108 -67 173.5t-172 65.5q-56 0 -110.5 -26t-92.5 -68
v-287q38 -38 100.5 -63t118.5 -25q102 0 162.5 63t60.5 167z" />
    <glyph glyph-name="afii10083" unicode="&#x441;" horiz-adv-x="1116" 
d="M1022 891l-68 -250q-173 113 -352 113q-106 0 -175 -75t-69 -175q0 -93 68 -159t176 -66q173 0 328 92l80 -242q-181 -152 -408 -152q-89 0 -169.5 21t-149 64.5t-119 105t-79 147.5t-28.5 187q0 130 43.5 233t119.5 167.5t173 98t209 33.5q234 0 420 -143z" />
    <glyph glyph-name="afii10084" unicode="&#x442;" horiz-adv-x="1085" 
d="M1051 745h-355v-745h-293v745h-360v265h1008v-265z" />
    <glyph glyph-name="afii10085" unicode="&#x443;" horiz-adv-x="1179" 
d="M1122 967l-471 -1184q-24 -60 -61.5 -101t-85.5 -61.5t-94.5 -28.5t-102.5 -8q-60 0 -188 13v282l61 -6q112 -10 125 -10q58 0 85 26t48 84l37 105l-436 885v47h297l278 -568q160 430 215 568h293v-43z" />
    <glyph glyph-name="afii10086" unicode="&#x444;" horiz-adv-x="1839" 
d="M1788 514q0 -133 -37.5 -236.5t-104 -167t-153.5 -96t-190 -32.5q-56 0 -121.5 24.5t-122.5 63.5v-480h-297v480q-129 -88 -242 -88q-103 0 -190 32.5t-153.5 96t-104 167t-37.5 236.5q0 119 41 217.5t110.5 162.5t160.5 99t192 35q60 0 126 -25t97 -63v578h297v-578
q42 43 103 65.5t122 22.5q101 0 192 -35t160.5 -99t110.5 -162.5t41 -217.5zM330 500q0 -104 59 -169t160 -65q55 0 115 25t98 63v295q-84 94 -197 94q-104 0 -169.5 -67t-65.5 -176zM1493 500q0 109 -66 176t-170 67q-55 0 -107.5 -25.5t-90.5 -68.5v-295q38 -38 99 -63
t116 -25q101 0 160 65t59 169z" />
    <glyph glyph-name="afii10087" unicode="&#x445;" horiz-adv-x="1136" 
d="M1067 0h-295l-223 285l-223 -285h-283v51l350 453l-350 452v54h305l219 -289l221 289h279v-54l-348 -452l348 -453v-51z" />
    <glyph glyph-name="afii10088" unicode="&#x446;" horiz-adv-x="1265" 
d="M84 1010h295v-736h389v736h297v-738h172l2 -559h-287v287h-866z" />
    <glyph glyph-name="afii10089" unicode="&#x447;" horiz-adv-x="1155" 
d="M57 1010h291v-340q0 -45 12.5 -74t39 -42t54.5 -17.5t72 -4.5q120 0 232 33v445h291v-1010h-291v279q-118 -25 -234 -25q-79 0 -140 7.5t-125.5 32t-106 65.5t-68.5 112t-27 168v371z" />
    <glyph glyph-name="afii10090" unicode="&#x448;" horiz-adv-x="1546" 
d="M96 1010h293v-736h232v736h288v-736h234v736h291v-1010h-1336z" />
    <glyph glyph-name="afii10091" unicode="&#x449;" horiz-adv-x="1624" 
d="M82 0v1010h280v-750h234v750h281v-750h231v750h289v-750h176v-547h-283v287h-1208z" />
    <glyph glyph-name="afii10092" unicode="&#x44a;" horiz-adv-x="1232" 
d="M1180 326q0 -73 -23 -130.5t-61 -93.5t-90.5 -59.5t-106 -33t-113.5 -9.5h-503v782h-260v228h548v-369h220q59 0 113 -10t105 -34t88.5 -59.5t60 -89.5t22.5 -122zM885 326q0 40 -31.5 65t-83.5 25h-199v-183h201q47 0 80 26.5t33 66.5z" />
    <glyph glyph-name="afii10093" unicode="&#x44b;" horiz-adv-x="1486" 
d="M1081 1010h289v-1010h-289v1010zM979 326q0 -73 -23 -130.5t-61 -93.5t-90 -59.5t-105.5 -33t-113.5 -9.5h-504v1010h289v-369h219q59 0 113 -10t105 -34t88.5 -59.5t60 -89.5t22.5 -122zM684 326q0 40 -31.5 65t-83.5 25h-198v-183h200q47 0 80 26.5t33 66.5z" />
    <glyph glyph-name="afii10094" unicode="&#x44c;" horiz-adv-x="1056" 
d="M981 326q0 -73 -23 -130.5t-61 -93.5t-90 -59.5t-105.5 -33t-113.5 -9.5h-508v1010h293v-369h219q59 0 113 -10t105 -34t88.5 -59.5t60 -89.5t22.5 -122zM686 326q0 40 -31.5 65t-83.5 25h-198v-183h200q47 0 80 26.5t33 66.5z" />
    <glyph glyph-name="afii10095" unicode="&#x44d;" horiz-adv-x="1122" 
d="M750 401h-412v246h385q-37 125 -256 125q-67 0 -145 -31t-148 -82l-117 232q83 65 210.5 103t234.5 38q84 0 163.5 -20.5t152 -64t127 -105.5t86.5 -152.5t32 -197.5q0 -101 -32 -187.5t-86.5 -147.5t-126.5 -104t-152.5 -63.5t-163.5 -20.5q-119 0 -237.5 39t-215.5 113
l131 233q61 -51 147 -81.5t158 -30.5q57 0 114 19t100 56t51 84z" />
    <glyph glyph-name="afii10096" unicode="&#x44e;" horiz-adv-x="1519" 
d="M360 0h-278v1010h278v-389h68q26 186 164 297.5t330 111.5q232 0 373 -138.5t141 -393.5q0 -240 -141 -377t-373 -137q-189 0 -326 107t-168 271h-68v-362zM1151 498q0 133 -61.5 206.5t-161.5 73.5q-102 0 -166 -73.5t-64 -206.5q0 -123 63 -190.5t167 -67.5
q101 0 162 68.5t61 189.5z" />
    <glyph glyph-name="afii10097" unicode="&#x44f;" horiz-adv-x="1128" 
d="M375 0h-312v43l226 315q-121 32 -180.5 115t-59.5 195q0 163 116.5 252.5t297.5 89.5h553v-1010h-291v293h-172zM365 647q0 -45 39.5 -75.5t95.5 -30.5h225v215h-225q-57 0 -96 -30.5t-39 -78.5z" />
    <glyph glyph-name="afii10071" unicode="&#x451;" horiz-adv-x="1134" 
d="M1075 424h-715q19 -75 83.5 -123.5t150.5 -48.5q102 0 181 17t147 63l88 -211q-71 -66 -184 -103.5t-242 -37.5q-111 0 -205.5 32t-168 94t-115.5 164t-42 232q0 256 145 393t377 137q241 0 372 -155.5t128 -452.5zM780 629q-3 26 -12.5 50t-30.5 50t-63 41.5t-99 15.5
q-71 0 -122 -41.5t-76 -115.5h403zM907 1276q0 -57 -38.5 -97t-92.5 -40q-53 0 -91 40t-38 97q0 58 37.5 98.5t91.5 40.5t92.5 -40.5t38.5 -98.5zM512 1276q0 -57 -37.5 -97t-91.5 -40t-92.5 40t-38.5 97q0 58 38.5 98.5t92.5 40.5t91.5 -40.5t37.5 -98.5z" />
    <glyph glyph-name="afii10099" unicode="&#x452;" horiz-adv-x="1290" 
d="M-6 1391h205v131h288v-131h326v-248h-326v-215q137 82 258 82q211 0 323 -110.5t116 -328.5v-569q0 -97 -30.5 -180t-86.5 -137q-88 -85 -213 -101q-75 -7 -213 17l14 274q122 -10 150 -6q41 3 53 18q33 30 33 115v537q-2 100 -36 146t-118 46q-90 0 -250 -129v-602h-288
v1143h-205v248z" />
    <glyph glyph-name="afii10100" unicode="&#x453;" horiz-adv-x="958" 
d="M82 1010h827v-277h-536v-731h-291v1008zM797 1491l-439 -348h-196l327 377h289z" />
    <glyph glyph-name="afii10101" unicode="&#x454;" horiz-adv-x="1097" 
d="M762 401h-412q8 -47 50.5 -84t99.5 -56t114 -19q72 0 158.5 30.5t147.5 81.5l131 -233q-97 -74 -215.5 -113t-237.5 -39q-83 0 -163.5 20.5t-152.5 63.5t-126.5 104t-86.5 147.5t-32 187.5q0 107 32 197.5t86.5 152.5t127 105.5t152 64t163.5 20.5q107 0 234 -38
t210 -103l-116 -232q-70 51 -148 82t-145 31q-219 0 -256 -125h385v-246z" />
    <glyph glyph-name="afii10102" unicode="&#x455;" horiz-adv-x="1091" 
d="M1018 317q0 -63 -18.5 -114t-48 -85t-72 -59.5t-85 -39t-94 -22t-90.5 -11t-82 -2.5q-132 0 -238.5 35.5t-240.5 119.5l88 199q188 -121 391 -121q63 0 125 20.5t62 57.5q0 20 -22 33.5t-55.5 19.5t-57 8t-41.5 2q-43 0 -77.5 1.5t-88.5 8.5t-95.5 19t-87 36t-75.5 56.5
t-50 83t-20 113.5q0 87 33.5 152.5t83 102.5t119 60t129.5 30t127 7q148 0 245 -32.5t191 -114.5l-92 -199q-92 59 -168.5 87t-175.5 28q-21 0 -52 -4.5t-67 -13.5t-61 -27.5t-25 -42.5q0 -27 47.5 -44t89.5 -21.5t70 -4.5q40 0 77 -2.5t87 -10.5t91.5 -21.5t84.5 -38
t72.5 -57.5t48 -82t18.5 -110z" />
    <glyph glyph-name="afii10103" unicode="&#x456;" horiz-adv-x="446" 
d="M365 1284q0 -66 -44.5 -110t-103.5 -44q-57 0 -101 44t-44 110q0 65 43.5 110.5t101.5 45.5t103 -45.5t45 -110.5zM358 0h-286v1010h286v-1010z" />
    <glyph glyph-name="afii10104" unicode="&#x457;" horiz-adv-x="542" 
d="M602 1294q0 -57 -38.5 -97t-92.5 -40q-53 0 -91 40t-38 97q0 59 37.5 99.5t91.5 40.5t92.5 -41t38.5 -99zM207 1294q0 -57 -37.5 -97t-91.5 -40t-92.5 40t-38.5 97q0 58 38.5 99t92.5 41t91.5 -40.5t37.5 -99.5zM420 0h-291v1010h291v-1010z" />
    <glyph glyph-name="afii10105" unicode="&#x458;" horiz-adv-x="464" 
d="M373 -23q0 -89 -41 -179.5t-105 -139.5q-96 -74 -221 -74q-74 0 -172 35l31 289q67 -19 98 -19q49 0 76 19q39 39 39 117v985h295v-1033zM373 1284q0 -66 -44.5 -110t-103.5 -44q-57 0 -101 44t-44 110q0 65 43.5 110.5t101.5 45.5t103 -45.5t45 -110.5z" />
    <glyph glyph-name="afii10106" unicode="&#x459;" horiz-adv-x="1822" 
d="M61 12v289q46 -14 72.5 -20.5t32 -7t8.5 1t4 1.5h12q49 1 94 111t74 289.5t33 378.5h742v-365h188q60 0 116 -10t111.5 -34.5t96.5 -62t66.5 -97t25.5 -134.5q0 -80 -26 -143t-67.5 -101.5t-98 -63.5t-112 -34.5t-116.5 -9.5h-473v774h-176q-8 -76 -20 -149t-32 -152
t-46.5 -146.5t-64 -129.5t-82 -105.5t-103 -69.5t-125.5 -26h-15q-33 0 -119 16zM1442 352q0 36 -39.5 52t-99.5 16h-170v-139h182q127 0 127 71z" />
    <glyph glyph-name="afii10107" unicode="&#x45a;" horiz-adv-x="1677" 
d="M1602 352q0 -81 -25 -143.5t-65.5 -101t-96 -63.5t-110.5 -34.5t-115 -9.5h-473v406h-307v-406h-295v1010h295v-344h307v344h289v-320h188q76 0 144 -17t129.5 -54t98 -105.5t36.5 -161.5zM1305 352q0 37 -36.5 57.5t-90.5 20.5h-172v-162h182q49 0 83 22.5t34 61.5z" />
    <glyph glyph-name="afii10108" unicode="&#x45b;" horiz-adv-x="1261" 
d="M-10 1391h184v129h283v-129h325v-248h-325v-209q137 82 258 82q211 0 322.5 -110t115.5 -328v-578h-293v545q-2 100 -35.5 146t-117.5 46q-90 0 -250 -129v-608h-283v1143h-184v248z" />
    <glyph glyph-name="afii10109" unicode="&#x45c;" horiz-adv-x="1099" 
d="M1020 987l-371 -477l385 -481v-29h-321l-312 375h-63v-375h-281v1010h281v-361h68l288 361h326v-23zM967 1470l-439 -348h-196l327 377h289z" />
    <glyph glyph-name="afii10110" unicode="&#x45e;" horiz-adv-x="1179" 
d="M1122 967l-471 -1184q-24 -60 -61.5 -101t-85.5 -61.5t-94.5 -28.5t-102.5 -8q-60 0 -188 13v282l61 -6q112 -10 125 -10q58 0 85 26t48 84l37 105l-436 885v47h297l278 -568q160 430 215 568h293v-43zM973 1495q0 -150 -101.5 -261.5t-248.5 -111.5q-157 0 -262 113
t-105 260h188q11 -78 59 -133t120 -55q66 0 110.5 54.5t52.5 133.5h187z" />
    <glyph glyph-name="afii10193" unicode="&#x45f;" horiz-adv-x="1171" 
d="M78 1010h295v-736h387v736h297v-1010h-346v-410h-289v410h-344v1010z" />
    <glyph glyph-name="afii10050" unicode="&#x490;" horiz-adv-x="1181" 
d="M428 1133v-1131h-324v1434h740v309h311v-612h-727z" />
    <glyph glyph-name="afii10098" unicode="&#x491;" horiz-adv-x="958" 
d="M82 1010h491v295h295v-572h-495v-731h-291v1008z" />
    <glyph glyph-name="endash" unicode="&#x2013;" horiz-adv-x="1105" 
d="M1016 528h-938v271h938v-271z" />
    <glyph glyph-name="emdash" unicode="&#x2014;" horiz-adv-x="1912" 
d="M1823 528h-1745v271h1745v-271z" />
    <glyph glyph-name="quoteleft" unicode="&#x2018;" horiz-adv-x="468" 
d="M410 1020q0 -78 -49 -129t-115 -51q-77 0 -115.5 62.5t-38.5 152.5q0 119 73.5 238.5t174.5 160.5l59 -108q-92 -76 -110 -179q55 -3 88 -42.5t33 -104.5z" />
    <glyph glyph-name="quoteright" unicode="&#x2019;" horiz-adv-x="442" 
d="M379 1231q0 -120 -74 -239.5t-176 -160.5l-59 109q93 76 110 178q-54 3 -86.5 42.5t-32.5 105.5q0 80 47.5 130t116.5 50q75 0 114.5 -63t39.5 -152z" />
    <glyph glyph-name="quotesinglbase" unicode="&#x201a;" horiz-adv-x="442" 
d="M385 391q0 -123 -76 -245t-182 -166l-66 122q90 74 111 168q-53 6 -86 48t-33 108q0 82 51 135t121 53q79 0 119.5 -65.5t40.5 -157.5z" />
    <glyph glyph-name="quotedblleft" unicode="&#x201c;" horiz-adv-x="962" 
d="M852 1020q0 -78 -49 -129t-115 -51q-76 0 -114.5 62.5t-38.5 152.5q0 119 73 238.5t174 160.5l60 -108q-94 -77 -111 -179q55 -3 88 -42.5t33 -104.5zM410 1020q0 -78 -49 -129t-115 -51q-77 0 -115.5 62.5t-38.5 152.5q0 119 73.5 238.5t174.5 160.5l59 -108
q-92 -76 -110 -179q55 -3 88 -42.5t33 -104.5z" />
    <glyph glyph-name="quotedblright" unicode="&#x201d;" horiz-adv-x="935" 
d="M868 1231q0 -119 -74.5 -239t-175.5 -161l-57 109q92 79 109 178q-54 3 -86.5 42.5t-32.5 105.5q0 79 47.5 129.5t114.5 50.5q77 0 116 -62.5t39 -152.5zM410 1231q0 -119 -74.5 -239t-175.5 -161l-58 109q92 79 109 178q-54 3 -86.5 42.5t-32.5 105.5q0 79 47.5 129.5
t114.5 50.5q77 0 116.5 -62.5t39.5 -152.5z" />
    <glyph glyph-name="quotedblbase" unicode="&#x201e;" horiz-adv-x="937" 
d="M842 387q0 -122 -76.5 -245t-181.5 -165l-68 121q90 74 111 168q-53 6 -85 47.5t-32 108.5q0 84 50 136t120 52q79 0 120.5 -65.5t41.5 -157.5zM416 387q0 -122 -76.5 -245t-181.5 -165l-68 121q93 77 111 168q-53 6 -85 47.5t-32 108.5q0 84 50 136t120 52
q79 0 120.5 -65.5t41.5 -157.5z" />
    <glyph glyph-name="dagger" unicode="&#x2020;" horiz-adv-x="937" 
d="M840 969h-222q-29 -232 -96 -815h-63l-119 815h-229l-2 248h270v88q-35 41 -35 98q0 65 40.5 109t98.5 44t100 -44t42 -109q0 -61 -39 -103v-83h254v-248z" />
    <glyph glyph-name="daggerdbl" unicode="&#x2021;" horiz-adv-x="903" 
d="M803 219h-242v-94q35 -51 35 -105q0 -65 -38 -109t-93 -44t-93 44t-38 109q0 48 33 101v98h-258v244l241 2q15 106 33 256q-14 117 -33 256q-38 0 -120.5 1t-120.5 1v242h258v100q-33 49 -33 102q0 63 38.5 108.5t92.5 45.5t92.5 -45.5t38.5 -108.5t-35 -104v-98h242
v-242h-230q-4 -44 -14 -131.5t-14 -126.5q4 -45 14 -130.5t14 -127.5h230v-244z" />
    <glyph glyph-name="bullet" unicode="&#x2022;" horiz-adv-x="811" 
d="M725 711q0 -130 -99.5 -220t-236.5 -90q-135 0 -233.5 90t-98.5 220t98 218.5t234 88.5q137 0 236.5 -88.5t99.5 -218.5z" />
    <glyph glyph-name="ellipsis" unicode="&#x2026;" horiz-adv-x="1527" 
d="M1413 152q0 -72 -47 -124.5t-111 -52.5q-66 0 -111.5 52t-45.5 125q0 74 45.5 125t111.5 51q65 0 111.5 -51.5t46.5 -124.5zM915 152q0 -73 -45.5 -125t-111.5 -52t-112 52.5t-46 124.5q0 74 46 125t112 51t111.5 -51t45.5 -125zM418 152q0 -72 -46 -124.5t-112 -52.5
q-64 0 -111 52.5t-47 124.5q0 73 46.5 124.5t111.5 51.5q66 0 112 -51t46 -125z" />
    <glyph glyph-name="perthousand" unicode="&#x2030;" horiz-adv-x="1910" 
d="M1868 381q0 -141 -87 -241.5t-210 -100.5q-122 0 -208.5 100.5t-86.5 241.5t86.5 241.5t208.5 100.5q123 0 210 -100.5t87 -241.5zM1233 381q0 -141 -86 -241.5t-209 -100.5q-122 0 -208.5 100.5t-86.5 241.5t86.5 241.5t208.5 100.5q123 0 209 -100.5t86 -241.5z
M1217 1425l-1016 -1445l-144 30l1008 1446zM614 1049q0 -141 -86.5 -240.5t-208.5 -99.5t-208 99.5t-86 240.5q0 142 86 242t208 100t208.5 -100t86.5 -242zM1683 381q0 67 -33 112.5t-79 45.5q-45 0 -79 -46t-34 -112t34 -112t79 -46q46 0 79 45.5t33 112.5zM1053 381
q0 66 -34 112t-81 46q-45 0 -79 -46t-34 -112t34 -112t79 -46q47 0 81 46t34 112zM432 1051q0 65 -33.5 111t-79.5 46t-80 -46t-34 -111q0 -67 34 -113.5t80 -46.5t79.5 46.5t33.5 113.5z" />
    <glyph glyph-name="guilsinglleft" unicode="&#x2039;" horiz-adv-x="788" 
d="M690 162l-631 450v230l631 430v-316l-344 -235l344 -240v-319z" />
    <glyph glyph-name="guilsinglright" unicode="&#x203a;" horiz-adv-x="772" 
d="M690 594l-631 -432v317l344 234q-57 39 -172 120.5t-172 120.5v320l631 -451v-229z" />
    <glyph glyph-name="fraction" unicode="&#x2044;" horiz-adv-x="1007" 
d="M1022 1436l-633 -1436h-258l633 1436h258z" />
    <glyph glyph-name="swungdash" unicode="&#x2053;" horiz-adv-x="1314" 
d="M1032 825l154 -47q-1 -14 -8 -48t-27 -94.5t-47 -112t-73 -90t-101 -38.5q-70 0 -159 30t-159.5 65.5t-156 65.5t-150.5 30q-36 0 -59.5 -50t-32.5 -118l-152 45q1 15 2.5 30.5t8.5 54.5t16.5 71.5t29 72.5t43.5 67.5t62 46.5t84 19q63 0 130 -19t126 -46.5t117.5 -55
t122.5 -46.5t121 -19q32 0 61.5 58.5t46.5 127.5z" />
    <glyph glyph-name="zerosuperior" unicode="&#x2070;" horiz-adv-x="1134" 
d="M1010 922q0 -118 -38 -215.5t-102 -159.5t-144.5 -95.5t-168.5 -33.5t-168.5 33.5t-144.5 95.5t-102 159.5t-38 215.5q0 125 38 226.5t102 165.5t144.5 98t168.5 34t168.5 -34t144.5 -98t102 -165.5t38 -226.5zM748 922q0 114 -50 189t-141 75q-92 0 -142 -75t-50 -189
q0 -110 49.5 -181t142.5 -71q91 0 141 73.5t50 178.5z" />
    <glyph glyph-name="foursuperior" unicode="&#x2074;" horiz-adv-x="1038" 
d="M930 633h-123v-209h-250v209h-438v170l514 639h174v-582h123v-227zM557 860v176l-137 -176h137z" />
    <glyph glyph-name="fivesuperior" unicode="&#x2075;" horiz-adv-x="1034" 
d="M915 778q0 -79 -29 -142.5t-73.5 -102.5t-102 -65t-109.5 -36t-101 -10q-163 0 -369 119l47 235q83 -47 171 -75.5t151 -28.5q81 0 119 32t38 70q0 41 -32.5 73t-100.5 32q-147 0 -207 -48l-190 78l27 529h718v-254h-495l-8 -109q74 31 166 31q53 0 101.5 -8t101 -30.5
t90.5 -58t62.5 -95t24.5 -136.5z" />
    <glyph glyph-name="sixsuperior" unicode="&#x2076;" horiz-adv-x="1077" 
d="M967 782q0 -75 -27.5 -138t-71 -105t-99.5 -71.5t-111 -42.5t-107 -13q-90 0 -169 31.5t-143 93t-101.5 164.5t-37.5 235q0 126 39 226.5t105.5 162.5t149 94.5t173.5 32.5q104 0 205 -25.5t152 -68.5l-33 -240q-78 47 -149 68.5t-164 21.5q-81 0 -150.5 -59.5
t-83.5 -134.5q25 27 99.5 54.5t138.5 27.5q163 0 274 -83t111 -231zM723 786q0 41 -45.5 64.5t-106.5 23.5q-65 0 -123.5 -23.5t-87.5 -70.5q18 -47 72 -77.5t107 -30.5q78 0 131 29.5t53 84.5z" />
    <glyph glyph-name="sevensuperior" unicode="&#x2077;" horiz-adv-x="935" 
d="M858 1225l-455 -801h-301l439 756h-441v256h752z" />
    <glyph glyph-name="eightsuperior" unicode="&#x2078;" horiz-adv-x="1026" 
d="M905 731q0 -95 -56.5 -167t-145 -108t-191.5 -36q-114 0 -208.5 35.5t-153 106t-58.5 163.5q0 128 113 223q-105 62 -105 193q0 149 106 229t290 80q183 0 290 -83t107 -230q0 -101 -105 -181q50 -34 83.5 -95t33.5 -130zM631 735q0 31 -52.5 60t-125.5 41
q-57 -11 -84 -41t-27 -64q0 -33 35.5 -57.5t107.5 -24.5q68 0 107 26.5t39 59.5zM645 1139q0 33 -37.5 61.5t-107.5 28.5t-109 -25t-39 -53q0 -27 54 -52.5t131 -37.5q108 32 108 78z" />
    <glyph glyph-name="ninesuperior" unicode="&#x2079;" horiz-adv-x="1077" 
d="M109 1083q0 75 27.5 138t71 104.5t99 71t110.5 42.5t107 13q90 0 169 -31t143 -92.5t101.5 -164t37.5 -234.5q0 -126 -39 -227t-105.5 -163.5t-149 -95t-173.5 -32.5q-103 0 -204 26.5t-152 69.5l32 237q76 -46 148 -67t166 -21q82 0 150.5 59t82.5 136q-25 -28 -99 -56
t-138 -28q-105 0 -191 34.5t-140 107.5t-54 173zM352 1079q0 -41 45.5 -64.5t106.5 -23.5q65 0 123.5 23.5t87.5 70.5q-18 47 -71.5 78t-106.5 31q-78 0 -131.5 -30t-53.5 -85z" />
    <glyph glyph-name="zeroinferior" unicode="&#x2080;" horiz-adv-x="1134" 
d="M1010 487q0 -118 -38 -215.5t-102 -159t-144.5 -95t-168.5 -33.5t-168.5 33.5t-144.5 95t-102 159t-38 215.5q0 125 38 226.5t102 165.5t144.5 98.5t168.5 34.5t168.5 -34.5t144.5 -98.5t102 -165.5t38 -226.5zM748 487q0 115 -50 190t-141 75t-141.5 -75.5t-50.5 -189.5
q0 -110 49.5 -180.5t142.5 -70.5q91 0 141 73t50 178z" />
    <glyph glyph-name="oneinferior" unicode="&#x2081;" horiz-adv-x="663" 
d="M455 0h-246v1010h246v-1010z" />
    <glyph glyph-name="twoinferior" unicode="&#x2082;" horiz-adv-x="956" 
d="M858 696q0 -60 -33.5 -123t-83.5 -111t-95 -81.5t-79 -50.5q-74 -37 -102 -74h389v-256h-702l-19 184q31 85 115 178.5t192 161.5q172 109 172 160q0 30 -29 54t-87 24q-157 0 -306 -103l-79 218q196 141 385 141q47 0 94.5 -9.5t96.5 -33.5t86 -59t61 -92t24 -128z" />
    <glyph glyph-name="threeinferior" unicode="&#x2083;" horiz-adv-x="970" 
d="M840 319q0 -71 -26 -128t-66.5 -93t-92.5 -60t-101.5 -34t-96.5 -10q-173 0 -326 115l64 237q60 -38 131.5 -64t130.5 -26q70 0 99.5 19.5t29.5 46.5q0 81 -146 81l-139 -6q-10 33 -13 108t5 111q100 -2 147 -2q55 0 100.5 18.5t45.5 55.5q0 31 -29.5 53.5t-99.5 22.5
q-107 0 -254 -92l-74 227q63 51 156.5 86t171.5 35q48 0 96.5 -8.5t101.5 -31.5t93 -58t66 -93t26 -131q0 -49 -31.5 -97t-71.5 -79q103 -79 103 -203z" />
    <glyph glyph-name="fourinferior" unicode="&#x2084;" horiz-adv-x="1067" 
d="M930 209h-123v-209h-250v209h-438v170l514 639h174v-582h123v-227zM557 436v176l-137 -176h137z" />
    <glyph glyph-name="fiveinferior" unicode="&#x2085;" horiz-adv-x="1034" 
d="M915 350q0 -79 -29 -142.5t-73.5 -102.5t-102 -65t-109.5 -36t-101 -10q-163 0 -369 119l47 235q83 -47 171 -75.5t151 -28.5q81 0 119 32t38 70q0 41 -32.5 73t-100.5 32q-137 0 -207 -45l-190 75l27 529h718v-254h-495l-8 -109q74 31 166 31q53 0 101.5 -8t101 -30.5
t90.5 -58t62.5 -95t24.5 -136.5z" />
    <glyph glyph-name="sixinferior" unicode="&#x2086;" horiz-adv-x="1077" 
d="M967 356q0 -75 -27.5 -138t-71 -105t-99.5 -71.5t-111 -42.5t-107 -13q-90 0 -169 31.5t-143 93t-101.5 164.5t-37.5 235q0 126 39 226.5t105.5 162.5t149 94.5t173.5 32.5q104 0 205 -25.5t152 -68.5l-33 -240q-78 47 -149 68.5t-164 21.5q-81 0 -150.5 -59.5
t-83.5 -134.5q25 27 99.5 54.5t138.5 27.5q163 0 274 -83t111 -231zM723 360q0 41 -45.5 65t-106.5 24q-65 0 -123.5 -24t-87.5 -71q18 -47 72 -77.5t107 -30.5q78 0 131 29.5t53 84.5z" />
    <glyph glyph-name="seveninferior" unicode="&#x2087;" horiz-adv-x="935" 
d="M858 801l-455 -801h-301l439 756h-441v256h752z" />
    <glyph glyph-name="eightinferior" unicode="&#x2088;" horiz-adv-x="1026" 
d="M905 301q0 -95 -56.5 -167t-145 -108t-191.5 -36q-114 0 -208.5 35.5t-153 106t-58.5 163.5q0 128 113 223q-105 62 -105 193q0 149 106 229t290 80q183 0 290 -83t107 -230q0 -101 -105 -181q50 -34 83.5 -95t33.5 -130zM631 305q0 31 -52.5 60t-125.5 41
q-57 -11 -84 -41t-27 -64q0 -33 35.5 -57.5t107.5 -24.5q68 0 107 26.5t39 59.5zM645 709q0 33 -37.5 61.5t-107.5 28.5t-109 -25t-39 -53q0 -27 54 -52.5t131 -37.5q108 32 108 78z" />
    <glyph glyph-name="nineinferior" unicode="&#x2089;" horiz-adv-x="1077" 
d="M109 659q0 75 27.5 138t71 104.5t99 71t110.5 42.5t107 13q90 0 169 -31t143 -92.5t101.5 -164t37.5 -234.5q0 -126 -39 -227t-105.5 -163.5t-149 -95t-173.5 -32.5q-103 0 -204 26.5t-152 69.5l32 238q77 -46 149 -67.5t165 -21.5q82 0 150.5 59t82.5 136
q-25 -28 -99 -56t-138 -28q-105 0 -191 34.5t-140 107.5t-54 173zM352 655q0 -41 45.5 -64.5t106.5 -23.5q65 0 123.5 24t87.5 71q-18 47 -71.5 77.5t-106.5 30.5q-78 0 -131.5 -30t-53.5 -85z" />
    <glyph glyph-name="Euro" unicode="&#x20ac;" horiz-adv-x="1505" 
d="M1300 514l127 -260q-67 -94 -168 -157t-203.5 -89t-209.5 -26q-201 0 -367.5 136t-226.5 374h-197l72 153h100q0 3 -1 9.5t-1 9.5q-4 70 -2 102h-168l74 162h113q51 246 222.5 391t379.5 145q368 0 567 -243l-119 -250q-102 99 -209 146.5t-233 47.5q-108 0 -192.5 -60
t-122.5 -177h442l-74 -162h-397q-4 -42 0 -121h471l-72 -153h-356q42 -102 122.5 -157.5t176.5 -55.5q228 0 452 235z" />
    <glyph glyph-name="afii61352" unicode="&#x2116;" horiz-adv-x="2236" 
d="M1260 -2h-191l-668 821v-819h-301v1405h213l650 -811v811h297v-1407zM2077 0h-682v248h188q-117 36 -184.5 132t-67.5 243q0 188 111 295.5t284 107.5q172 0 285 -107.5t113 -295.5q0 -145 -69 -241.5t-183 -133.5h205v-248zM1860 625q0 65 -36.5 109t-97.5 44
q-62 0 -98.5 -44t-36.5 -109q0 -63 36.5 -105.5t98.5 -42.5q61 0 97.5 43t36.5 105z" />
    <glyph glyph-name="trademark" unicode="&#x2122;" horiz-adv-x="1845" 
d="M1741 582h-189v411q-43 -77 -123.5 -218.5t-101.5 -178.5h-65l-215 393q0 -68 -1.5 -205t-1.5 -202h-188v854h148l299 -541q234 404 315 541h123v-854zM801 1223h-279v-641h-190v641h-281v213h750v-213z" />
    <glyph glyph-name="estimated" unicode="&#x212e;" horiz-adv-x="1863" 
d="M1491 238q-2 0 10 -16.5t24 -33.5t11 -18q-79 -51 -151 -84.5t-194.5 -60.5t-266.5 -27q-118 0 -233.5 30.5t-220 94t-184 152.5t-126.5 215t-47 272q0 153 45.5 283.5t122.5 220.5t178.5 154t214 94t229.5 30q149 -2 271 -44t205 -112.5t140.5 -167t84.5 -205.5t30 -231
v-36h-1175v-504q54 -39 90 -61.5t94 -48.5t128 -38t157 -12q338 0 563 154zM453 823h884q-4 469 -6 471q-52 55 -100.5 88.5t-105.5 49.5t-100 20.5t-122 7.5q-74 0 -127.5 -6t-113.5 -23.5t-111.5 -54.5t-97.5 -94v-459z" />
    <glyph glyph-name="onethird" unicode="&#x2153;" horiz-adv-x="2080" 
d="M1286 1436l-633 -1436h-258l633 1436h258zM455 426h-246v1010h246v-1010zM1892 319q0 -71 -26 -128t-66.5 -93t-92.5 -60t-101.5 -34t-96.5 -10q-172 0 -325 115l63 237q60 -38 131.5 -64t130.5 -26q70 0 99.5 19.5t29.5 46.5q0 81 -145 81l-139 -6q-10 33 -13 108t5 111
q100 -2 147 -2q55 0 100 18.5t45 55.5q0 31 -29.5 53.5t-99.5 22.5q-107 0 -254 -92l-73 227q63 51 156 86t171 35q48 0 96.5 -8.5t101.5 -31.5t93 -58t66 -93t26 -131q0 -49 -31 -97t-71 -79q102 -78 102 -203z" />
    <glyph glyph-name="twothirds" unicode="&#x2154;" horiz-adv-x="2390" 
d="M1669 1436l-633 -1436h-258l633 1436h258zM858 1128q0 -60 -33.5 -123t-83.5 -111t-95 -81.5t-79 -50.5q-74 -37 -102 -74h389v-256h-702l-19 184q31 85 115 178.5t192 161.5q172 109 172 160q0 30 -29 54t-87 24q-158 0 -306 -102l-79 217q196 141 385 141q39 0 78.5 -7
t80.5 -22t77 -41t64.5 -60t45 -83.5t16.5 -108.5zM2234 319q0 -71 -26 -128t-66.5 -93t-92.5 -60t-101.5 -34t-96.5 -10q-172 0 -325 115l63 237q60 -38 131.5 -64t130.5 -26q70 0 99.5 19.5t29.5 46.5q0 81 -145 81l-139 -6q-10 33 -13 108t5 111q100 -2 147 -2
q55 0 100 18.5t45 55.5q0 31 -29.5 53.5t-99.5 22.5q-107 0 -254 -92l-73 227q63 51 156 86t171 35q48 0 96.5 -8.5t101.5 -31.5t93 -58t66 -93t26 -131q0 -49 -31 -97t-71 -79q102 -78 102 -203z" />
    <glyph glyph-name="oneeighth" unicode="&#x215b;" horiz-adv-x="2152" 
d="M1350 1436l-633 -1436h-258l633 1436h258zM455 426h-246v1010h246v-1010zM2015 301q0 -95 -56.5 -167t-145 -108t-191.5 -36q-114 0 -208.5 35.5t-153 106t-58.5 163.5q0 128 113 223q-105 62 -105 193q0 149 106 229t290 80q183 0 290 -83t107 -230q0 -101 -105 -181
q50 -34 83.5 -95t33.5 -130zM1741 305q0 31 -52.5 60t-125.5 41q-57 -11 -84 -41t-27 -64q0 -33 35.5 -57.5t107.5 -24.5q68 0 107 26.5t39 59.5zM1755 709q0 33 -37.5 61.5t-107.5 28.5t-109 -25t-39 -53q0 -27 54 -52.5t131 -37.5q108 32 108 78z" />
    <glyph glyph-name="threeeighths" unicode="&#x215c;" horiz-adv-x="2349" 
d="M1575 1436l-633 -1436h-258l633 1436h258zM840 750q0 -71 -26 -128t-66.5 -93t-92.5 -60.5t-101.5 -34.5t-96.5 -10q-173 0 -326 115l64 237q145 -92 262 -92q70 0 99.5 19.5t29.5 46.5q0 81 -146 81l-139 -4q-10 32 -13 107t5 113q100 -3 147 -3q56 0 101 17.5t45 54.5
q0 31 -29.5 53.5t-99.5 22.5q-107 0 -254 -92l-74 229q63 51 156.5 86t171.5 35q48 0 96.5 -8.5t101.5 -32t93 -58t66 -92.5t26 -131q0 -49 -31.5 -98t-71.5 -80q103 -79 103 -200zM2224 301q0 -95 -56.5 -167t-145 -108t-191.5 -36q-114 0 -208.5 35.5t-153 106
t-58.5 163.5q0 128 113 223q-105 62 -105 193q0 149 106 229t290 80q183 0 290 -83t107 -230q0 -101 -105 -181q50 -34 83.5 -95t33.5 -130zM1950 305q0 31 -52.5 60t-125.5 41q-57 -11 -84 -41t-27 -64q0 -33 35.5 -57.5t107.5 -24.5q68 0 107 26.5t39 59.5zM1964 709
q0 33 -37.5 61.5t-107.5 28.5t-109 -25t-39 -53q0 -27 53.5 -52.5t130.5 -37.5q109 32 109 78z" />
    <glyph glyph-name="fiveeighths" unicode="&#x215d;" horiz-adv-x="2402" 
d="M1636 1436l-632 -1436h-259l633 1436h258zM915 778q0 -79 -29 -142.5t-73.5 -102.5t-102 -65t-109.5 -36t-101 -10q-163 0 -369 119l47 235q83 -47 171 -75.5t151 -28.5q81 0 119 32t38 70q0 41 -32.5 73t-100.5 32q-147 0 -207 -48l-190 78l27 529h718v-254h-495
l-8 -109q74 31 166 31q53 0 101.5 -8t101 -30.5t90.5 -58t62.5 -95t24.5 -136.5zM2302 301q0 -95 -56.5 -167t-145 -108t-191.5 -36q-114 0 -208.5 35.5t-153 106t-58.5 163.5q0 128 113 223q-105 62 -105 193q0 150 105.5 229.5t289.5 79.5q183 0 290.5 -83t107.5 -230
q0 -101 -105 -181q50 -34 83.5 -95t33.5 -130zM2028 305q0 31 -53 60t-126 41q-57 -11 -83.5 -41t-26.5 -64q0 -33 35.5 -57.5t107.5 -24.5q68 0 107 26.5t39 59.5zM2042 709q0 33 -38 61.5t-108 28.5t-108.5 -25t-38.5 -53q0 -27 53.5 -52.5t130.5 -37.5q109 32 109 78z
" />
    <glyph glyph-name="seveneighths" unicode="&#x215e;" horiz-adv-x="2209" 
d="M1432 1436l-633 -1436h-258l633 1436h258zM858 1225l-455 -801h-301l439 756h-441v256h752zM2093 301q0 -95 -56.5 -167t-145 -108t-191.5 -36q-114 0 -208.5 35.5t-153 106t-58.5 163.5q0 128 113 223q-105 62 -105 193q0 150 105.5 229.5t289.5 79.5q183 0 290.5 -83
t107.5 -230q0 -101 -105 -181q50 -34 83.5 -95t33.5 -130zM1819 305q0 31 -53 60t-126 41q-57 -11 -83.5 -41t-26.5 -64q0 -33 35.5 -57.5t107.5 -24.5q68 0 107 26.5t39 59.5zM1833 709q0 33 -37.5 61.5t-107.5 28.5t-109 -25t-39 -53q0 -27 53.5 -52.5t130.5 -37.5
q109 32 109 78z" />
    <glyph glyph-name="partialdiff" unicode="&#x2202;" horiz-adv-x="1191" 
d="M1118 662q0 -140 -33 -261t-96.5 -215t-166.5 -148t-234 -54q-104 0 -199 34t-170.5 98t-120.5 165t-45 225q0 127 44 229.5t119 166.5t170.5 98t203.5 34q98 0 229 -73q-62 145 -160 229q-70 61 -140 87t-171 26l17 276q339 0 534 -240q105 -128 162 -306.5t57 -370.5z
M821 510q0 110 -66.5 176t-166.5 66q-98 0 -165 -66.5t-67 -175.5q0 -104 67.5 -166.5t164.5 -62.5q100 0 166.5 61.5t66.5 167.5z" />
    <glyph glyph-name="product" unicode="&#x220f;" horiz-adv-x="1650" 
d="M1542 694q0 -211 -99 -388t-266.5 -278.5t-363.5 -101.5t-363 101.5t-265.5 278.5t-98.5 388q0 210 98.5 386.5t265.5 278t363 101.5t363.5 -101.5t266.5 -278t99 -386.5zM1415 694q0 166 -79 308.5t-218.5 227.5t-304.5 85q-124 0 -236.5 -50t-192.5 -134t-127.5 -198.5
t-47.5 -238.5t47.5 -238.5t127.5 -198t192.5 -133.5t236.5 -50t236 50t192 134t127 198t47 238zM1190 819q0 -140 -84 -220.5t-213 -80.5h-135v-244h-187v852h318q128 0 214.5 -82t86.5 -225zM1030 811q0 54 -31.5 92.5t-87.5 38.5h-153v-258q20 0 64.5 -1t66.5 -1
q58 0 99.5 38t41.5 91z" />
    <glyph glyph-name="summation" unicode="&#x2211;" horiz-adv-x="1243" 
d="M1161 0h-1083v199l422 499l-117 150q-15 22 -45 61.5t-39 51.5q-187 241 -221 282v193h1065v-457h-258v195h-391l163 -216l207 -270l-356 -426h397v201h256v-463z" />
    <glyph glyph-name="minus" unicode="&#x2212;" horiz-adv-x="866" 
d="M795 545h-764v260h764v-260z" />
    <glyph glyph-name="radical" unicode="&#x221a;" horiz-adv-x="1173" 
d="M1133 1436l-451 -1436h-147l-189 623h-2l-76 -252h-217l213 630h160l186 -514h2l271 949h250z" />
    <glyph glyph-name="infinity" unicode="&#x221e;" horiz-adv-x="1624" 
d="M1524 635q0 -71 -15 -143.5t-48 -141.5t-80 -122.5t-117 -86t-152 -32.5q-71 0 -129.5 27t-98.5 68.5t-75 102.5q-116 -201 -285 -201q-92 0 -166.5 33.5t-122.5 87t-80.5 125.5t-46.5 145.5t-14 149.5q0 72 14 141.5t46 135.5t78 115.5t116.5 79.5t155.5 30
q97 0 176 -58.5t135 -148.5q143 205 309 205q82 0 150 -31.5t113.5 -83t77 -119t45.5 -138t14 -140.5zM1276 635q0 94 -40.5 157.5t-111.5 63.5q-43 0 -93.5 -68t-84.5 -155q12 -35 19 -54t20.5 -52t25.5 -52t28 -40t34.5 -30.5t38.5 -9.5q75 0 119.5 71t44.5 169zM676 637
q-27 91 -74.5 157t-97.5 66q-79 0 -120.5 -60t-41.5 -153q0 -108 46 -180t136 -72q40 0 80.5 71.5t71.5 170.5z" />
    <glyph glyph-name="integral" unicode="&#x222b;" horiz-adv-x="815" 
d="M780 1534l-30 -289q-61 19 -97 19q-54 0 -75 -21q-41 -33 -41 -115v-1224q0 -88 -42 -180.5t-104 -139.5q-99 -78 -219 -78q-83 0 -172 39l29 289q64 -20 98 -20q55 0 78 20q39 39 39 115v1227q0 90 40.5 181t104.5 140q96 74 221 74q80 0 170 -37z" />
    <glyph glyph-name="approxequal" unicode="&#x2248;" horiz-adv-x="1136" 
d="M1061 436q-5 -12 -14.5 -32t-40.5 -71.5t-63.5 -90.5t-81.5 -71t-97 -32q-59 0 -118 26.5t-98 58.5t-82 58.5t-75 26.5q-125 0 -190 -155l-101 45q4 13 11.5 34t34 75t56 95t77.5 75t100 34q62 0 122 -26t97.5 -57t81 -57t76.5 -26q64 0 119 41t90 100zM1049 848
q-5 -12 -14.5 -32t-40.5 -71.5t-63.5 -90.5t-81.5 -71t-97 -32q-59 0 -118 26.5t-98 58.5t-82 58.5t-75 26.5q-126 0 -191 -156l-100 45q4 13 11.5 34t34 75t56 95.5t77.5 75.5t100 34q62 0 121.5 -26t97.5 -57t81 -57t76 -26q64 0 119 41t90 100z" />
    <glyph glyph-name="notequal" unicode="&#x2260;" horiz-adv-x="901" 
d="M856 1436l-186 -432h155v-242h-260l-108 -248h368v-242h-473l-178 -409h-170l180 409h-112v242h217l108 248h-325v242h430l184 432h170z" />
    <glyph glyph-name="lessequal" unicode="&#x2264;" horiz-adv-x="800" 
d="M735 391l-661 307v195l661 319v-249l-383 -164l383 -162v-246zM733 117h-659v219h659v-219z" />
    <glyph glyph-name="greaterequal" unicode="&#x2265;" horiz-adv-x="800" 
d="M735 698l-661 -307v246l383 162l-383 164v249l661 -319v-195zM733 117h-659v219h659v-219z" />
    <glyph glyph-name="lozenge" unicode="&#x25ca;" horiz-adv-x="1470" 
d="M1364 72l-2 -72h-275l-137 166q-170 -186 -358 -186q-48 0 -92.5 4.5t-96 18t-95.5 35t-85.5 57.5t-70.5 83t-46.5 115.5t-17.5 150.5q0 138 87 245.5t210 172.5l-35 51q-59 85 -59 191q0 142 107 244t280 102q156 0 276 -117l-123 -205q-75 66 -151 66
q-52 0 -84.5 -28.5t-32.5 -67.5q0 -31 21 -58l80 -110q52 -73 157 -198.5t121 -145.5l129 211l195 -138q-72 -141 -156 -278q176 -209 254 -309zM784 371l-223 270q-90 -47 -139 -95.5t-49 -109.5q0 -46 13 -80.5t34 -54.5t52.5 -31.5t62 -15.5t69.5 -4q80 0 180 121z" />
    <glyph glyph-name="I.alt01" horiz-adv-x="907" 
d="M797 1434v-301h-179v-828h179v-305h-703v307h201v826h-201v301h703z" />
    <glyph glyph-name="exclam.001" horiz-adv-x="393" 
d="M307 438h-217l-39 711h293zM193 -12q-57 0 -98.5 43t-41.5 106q0 61 42 105.5t98 44.5q58 0 99.5 -44t41.5 -106q0 -64 -41 -106.5t-100 -42.5z" />
    <glyph glyph-name="dollar.001" horiz-adv-x="1067" 
d="M516 23h-20q-3 -13 -15 -72t-18 -92h-180l41 186q-73 17 -117.5 34t-128.5 66l51 250q70 -38 145 -71q65 -32 101 -41q23 117 37 178q-60 10 -108 22.5t-100 38t-87 58.5t-57.5 86t-22.5 120q0 59 18 108.5t47.5 84t71 61t84.5 42t92.5 25.5t91 13.5t82.5 3.5h29
q14 57 33 154l180 2l-41 -178q69 -19 115 -38t116 -60l-43 -228q-128 72 -237 96q-2 -11 -35 -174q60 -8 105.5 -18.5t100 -34t90 -56.5t59.5 -88.5t24 -127.5q0 -82 -35 -146t-88 -101.5t-123.5 -61.5t-133 -32.5t-124.5 -8.5zM711 420l-60 12l-65 8q-11 -57 -39 -178
q94 -2 152.5 27.5t58.5 83.5q0 32 -47 47zM297 795q0 -57 170 -78q6 34 20.5 100.5t16.5 73.5q-61 -1 -104.5 -11.5t-64 -26t-29.5 -30t-9 -28.5z" />
    <glyph glyph-name="percent.001" horiz-adv-x="1304" 
d="M975 2q-100 0 -172 79.5t-72 194.5t72 196t172 81q102 0 174 -81t72 -196t-72 -194.5t-174 -79.5zM266 0h-168l879 1149l174 -2zM973 379q-30 0 -54 -30.5t-24 -72.5t24 -72t54 -30q33 0 56.5 30t23.5 72t-24 72.5t-56 30.5zM270 596q-100 0 -171.5 80t-71.5 194
q0 116 71.5 196.5t171.5 80.5q102 0 174 -80.5t72 -196.5q0 -114 -72 -194t-174 -80zM268 973q-31 0 -54.5 -30t-23.5 -73q0 -41 23.5 -70.5t54.5 -29.5q33 0 56.5 29t23.5 71q0 44 -23.5 73.5t-56.5 29.5z" />
    <glyph glyph-name="ampersand.001" horiz-adv-x="1265" 
d="M53 356q0 61 22 114.5t60.5 93.5t80 69.5t91.5 52.5q-2 2 -4 6l-53 72q-49 66 -49 141q0 112 105 190.5t263 78.5q162 0 249 -81.5t87 -197.5q0 -164 -211 -285l123 -135l131 180l154 -131q-57 -111 -131 -217q39 -41 114.5 -131.5t110.5 -128.5l2 -45h-252l-123 127
q-153 -145 -319 -145q-44 0 -81.5 2.5t-85.5 12t-86 25t-76.5 43.5t-64 66t-41.5 95.5t-16 127.5zM479 506q-82 -38 -124 -74t-42 -82q0 -35 11.5 -61t29.5 -41.5t45 -25t54.5 -12.5t62.5 -3q64 0 152 88zM571 975q-50 0 -76 -22t-26 -54q0 -29 18 -53l58 -70
q41 24 77.5 63.5t36.5 57.5q0 31 -20 54.5t-68 23.5z" />
    <glyph glyph-name="question.001" horiz-adv-x="989" 
d="M834 590q-29 -19 -71.5 -34.5t-67.5 -21.5t-77 -18q-165 -34 -165 -84q0 -28 18 -63h-221q-19 59 -19 106q0 48 18 85t42.5 58.5t64 38.5t68 24t69.5 16l15 3q89 18 135.5 44.5t46.5 80.5q0 39 -23 65.5t-62 38t-71.5 15.5t-68.5 4q-101 0 -190 -37.5t-185 -107.5
l-49 209q92 74 190 109.5t218 35.5q43 0 84 -3t91.5 -12.5t94 -24t86 -40.5t72.5 -59.5t48.5 -83t18.5 -109.5q0 -160 -110 -235zM381 -12q-55 0 -98 42.5t-43 106.5t43 107t98 43t98 -43t43 -107t-43 -106.5t-98 -42.5z" />
    <glyph glyph-name="space.001" horiz-adv-x="937" 
 />
    <glyph glyph-name="questiondown.001" horiz-adv-x="989" 
d="M152 553q11 7 22 13t24 12t22 10t25.5 8.5t23 7t25.5 7t23 5.5t25 6t23 5q3 1 23 5.5t35 8t37 11.5t36.5 15.5t25 19t10.5 24.5q0 28 -18 63h219q21 -49 21 -106q0 -34 -9.5 -62.5t-21.5 -48t-37.5 -37.5t-41 -27t-50.5 -20.5t-47 -14.5t-49 -11q-3 -1 -5 -1.5t-5 -1
l-6 -1t-5 -1.5q-89 -18 -135.5 -44.5t-46.5 -80.5q0 -122 225 -122q101 0 190 37.5t185 107.5l49 -207q-92 -75 -189 -110t-218 -35q-43 0 -84.5 3t-92.5 12t-94.5 24t-86 40.5t-72 59t-48 82.5t-18.5 108q0 167 111 236zM602 1157q57 0 100 -42.5t43 -106.5t-43 -107
t-100 -43q-53 0 -96 43t-43 107t42.5 106.5t96.5 42.5z" />
    <glyph glyph-name="exclamdown.001" horiz-adv-x="393" 
d="M90 696h217l37 -708h-293zM201 1149q58 0 99.5 -44t41.5 -106t-41.5 -105.5t-99.5 -43.5t-99 43.5t-41 105.5q0 63 41.5 106.5t98.5 43.5z" />
    <glyph glyph-name="numbersign.001" horiz-adv-x="1175" 
d="M1073 874l-12 -186h-201q-1 -30 -7 -110.5t-7 -126.5h201l-11 -187h-202q-1 -13 -6.5 -112.5t-6.5 -149.5h-166l15 262h-215q-14 -190 -17 -262h-164l17 262h-215l10 187h213q12 154 16 237h-213l9 186h217q9 177 14 244h164l-17 -244h220q5 45 9.5 130.5t6.5 113.5h162
l-17 -244h203zM696 688h-217q-4 -87 -16 -237h219z" />
    <glyph glyph-name="euro.001" horiz-adv-x="1343" 
d="M780 -25q-176 0 -322.5 109t-201.5 297h-178l72 141h81v4q-4 46 -2 72h-153l76 147h96q46 195 197.5 313t332.5 118q135 0 252.5 -48.5t200.5 -144.5l-60 -229q-98 85 -190 126.5t-199 41.5q-86 0 -156 -46.5t-106 -130.5h387l-73 -147h-345q-1 -20 3 -76h415l-69 -141
h-301q36 -71 102.5 -111.5t142.5 -40.5q190 0 396 195l65 -254q-181 -195 -463 -195z" />
    <glyph glyph-name="one.sc" horiz-adv-x="692" 
d="M182 1161l314 2v-1163h-316z" />
    <glyph glyph-name="two.sc" horiz-adv-x="1159" 
d="M1061 791q0 -37 -7.5 -71.5t-17.5 -62t-31.5 -55t-37.5 -46.5t-48 -42.5t-51 -36.5t-58.5 -34.5t-58 -31t-61.5 -30.5q-10 -5 -65 -27q-128 -58 -162 -86h590v-268h-938l-27 193q54 143 136.5 221.5t215.5 140.5q312 149 312 233q0 54 -35.5 85.5t-130.5 31.5
q-157 0 -404 -151l-90 254q131 90 249 131t245 41q61 0 122 -10t126 -37.5t114 -69.5t81 -112.5t32 -159.5z" />
    <glyph glyph-name="three.sc" horiz-adv-x="1144" 
d="M1036 369q0 -91 -35 -161.5t-87.5 -111.5t-122.5 -67t-131.5 -34.5t-124.5 -8.5q-111 0 -212 38.5t-231 112.5l51 273q236 -148 392 -148q95 0 139.5 30t44.5 66q0 37 -19 70.5t-49 42.5h2q-56 6 -100 6q-31 0 -76.5 -5t-75.5 -10l-30 -5q-24 53 -27 115.5t21 115.5
q131 -24 182 -24q11 0 47 4q51 7 88 41.5t37 99.5q0 35 -44.5 65.5t-139.5 30.5q-156 0 -392 -151l-57 272q127 86 226.5 120t222.5 34q63 0 124.5 -8.5t131.5 -34.5t122.5 -66.5t87.5 -110.5t35 -161q0 -113 -114 -205q114 -88 114 -225z" />
    <glyph glyph-name="four.sc" horiz-adv-x="1181" 
d="M1090 258h-144v-258h-315v258h-555v178l649 729h221v-680h144v-227zM631 676l-187 -191h187v191z" />
    <glyph glyph-name="five.sc" horiz-adv-x="1171" 
d="M1069 383q0 -90 -35.5 -161t-89.5 -113t-124.5 -69.5t-133.5 -37.5t-125 -10q-128 0 -246 37.5t-204 111.5l57 248q90 -58 200.5 -92.5t190.5 -34.5q99 0 144 39.5t45 89.5q0 52 -33.5 87.5t-118.5 51.5q-171 32 -289 -61l-211 90l31 606h885v-272h-598
q-1 -26 -5.5 -69.5t-5.5 -80.5q94 37 199 37q64 0 124.5 -10t124.5 -38t111 -71t77 -114.5t30 -163.5z" />
    <glyph glyph-name="six.sc" horiz-adv-x="1208" 
d="M1104 395q0 -85 -35.5 -155.5t-91 -117t-126.5 -78.5t-140 -46t-133 -14q-77 0 -151 24.5t-138.5 75t-113.5 121t-77 169t-28 212.5q0 146 44 261.5t120.5 187.5t174 109.5t209.5 37.5q143 0 245 -43.5t200 -124.5l-94 -213q-5 3 -39 24.5t-41 24.5q-61 44 -118 65
t-153 21q-62 0 -120 -27.5t-100.5 -86.5t-47.5 -138q136 100 293 100q126 0 230 -45.5t167.5 -135.5t63.5 -208zM831 401q0 73 -46 105t-150 43q-73 0 -145 -38.5t-115 -113.5q31 -69 83.5 -105t112.5 -36q260 0 260 145z" />
    <glyph glyph-name="seven.sc" horiz-adv-x="1134" 
d="M1028 928l-582 -928h-319l545 891h-582v272h932z" />
    <glyph glyph-name="eight.sc" horiz-adv-x="1171" 
d="M1077 340q0 -106 -66 -188t-173 -124t-234 -42q-141 0 -256 41t-184.5 122t-69.5 187q0 82 43.5 152t112.5 114q-67 41 -107.5 102.5t-40.5 129.5q0 165 128 255.5t354 90.5q224 0 350.5 -93.5t126.5 -257.5q0 -133 -148 -217q75 -50 119.5 -120t44.5 -152zM739 340
q0 43 -53.5 84.5t-140.5 54.5q-73 -12 -107.5 -53.5t-34.5 -91.5q0 -39 41 -70t123 -31q85 0 128.5 32.5t43.5 74.5zM758 836q0 42 -42 74t-126 32q-87 0 -131.5 -29.5t-44.5 -68.5q0 -36 58 -72t144 -49q79 18 110.5 45t31.5 68z" />
    <glyph glyph-name="nine.sc" horiz-adv-x="1226" 
d="M1133 580q0 -145 -46 -261t-123 -186.5t-171.5 -107.5t-198.5 -37q-138 0 -270.5 55t-200.5 135l104 176q91 -78 169 -107.5t198 -29.5q86 0 160 80t86 182q-134 -100 -295 -100q-207 0 -328 101t-121 288q0 85 31.5 155.5t83 116t119 77.5t137 45.5t139.5 13.5
q99 0 191.5 -39t168.5 -111t121.5 -188t45.5 -258zM545 612q76 0 153.5 39t118.5 107q-78 162 -203 162q-103 0 -174 -37.5t-71 -120.5q0 -67 50 -108.5t126 -41.5z" />
    <glyph glyph-name="zero.sc" horiz-adv-x="1323" 
d="M1227 571q0 -111 -33 -207.5t-89.5 -164.5t-131.5 -117t-158.5 -72.5t-169.5 -23.5q-110 0 -213.5 38.5t-186.5 109.5t-133.5 185t-50.5 252q0 119 33 220.5t89.5 172.5t131.5 121t158.5 73.5t171.5 23.5q109 0 211.5 -39t186 -112t134 -192.5t50.5 -267.5zM903 571
q0 145 -71.5 239.5t-186.5 94.5q-114 0 -185 -94t-71 -240q0 -137 70.5 -223t185.5 -86t186.5 88.5t71.5 220.5z" />
    <glyph glyph-name="a.001" horiz-adv-x="1370" 
d="M1010 0l-80 195h-496l-86 -195h-289l-2 25l523 1126h227l500 -1126l2 -25h-299zM684 770l-139 -319h276z" />
    <glyph glyph-name="b.001" horiz-adv-x="1208" 
d="M745 0h-641v1149h623q183 0 283 -93t100 -243q0 -143 -119 -229q56 -41 92.5 -108.5t36.5 -139.5q0 -156 -106.5 -246t-268.5 -90zM694 897h-295v-203h281q143 0 143 101q0 46 -25.5 74t-103.5 28zM692 453h-293v-201h279q141 0 141 94q0 48 -26 77.5t-101 29.5z" />
    <glyph glyph-name="c.001" horiz-adv-x="1232" 
d="M1167 125q-189 -150 -491 -150q-93 0 -181.5 23.5t-167.5 73t-138.5 119t-94.5 168.5t-35 214q0 109 34.5 205t94.5 167t139 122.5t170 77.5t185 26q303 0 469 -129l-68 -276q-95 68 -190 100.5t-213 32.5q-133 0 -224 -90.5t-91 -237.5q0 -144 94 -232.5t225 -88.5
q126 0 221 31.5t189 105.5z" />
    <glyph glyph-name="d.001" horiz-adv-x="1271" 
d="M598 0h-489v1149h538q130 0 241 -47t186 -126t117 -183.5t42 -217.5q0 -252 -175.5 -413.5t-459.5 -161.5zM582 895h-170v-641h166q171 0 272.5 92.5t101.5 222.5q0 68 -19.5 124t-61.5 103t-115.5 73t-173.5 26z" />
    <glyph glyph-name="e.001" horiz-adv-x="1146" 
d="M109 0v1149h940v-260h-637v-193h542v-252h-540v-182h653v-262h-958z" />
    <glyph glyph-name="f.001" horiz-adv-x="1048" 
d="M371 889q0 -36 -1 -104.5t-1 -104.5h524v-262h-524q0 -64 1 -204t1 -214h-301v1149h934v-260h-633z" />
    <glyph glyph-name="g.001" horiz-adv-x="1314" 
d="M1122 782q-72 54 -213 91.5t-239 37.5q-146 0 -244 -92t-98 -233q0 -148 92 -240t231 -92q78 0 156 23.5t135 62.5v111h-348l16 229h592v-490q-87 -87 -192 -135q-167 -78 -359 -78q-87 0 -173 24t-165.5 74t-140 119.5t-97 169t-36.5 214.5q0 117 39 217.5t103 169
t147 117.5t170.5 71.5t173.5 22.5q142 0 279 -44.5t237 -119.5z" />
    <glyph glyph-name="h.001" horiz-adv-x="1265" 
d="M860 0v422h-450v-422h-306v1149h306v-455h450v455h307v-1149h-307z" />
    <glyph glyph-name="i.001" horiz-adv-x="544" 
d="M127 0v1149h305v-1149h-305z" />
    <glyph glyph-name="j.001" horiz-adv-x="618" 
d="M82 -315q-95 0 -211 61l51 234q92 -31 139 -31q76 0 104 60t28 165v975h303v-1032q0 -180 -122 -306t-292 -126z" />
    <glyph glyph-name="k.001" horiz-adv-x="1220" 
d="M825 0l-313 479q-88 -87 -106 -104v-375h-306l2 1149h304v-412q81 79 231.5 228.5t185.5 183.5h334l2 -25l-442 -440q72 -104 220.5 -323.5t229.5 -337.5v-23h-342z" />
    <glyph glyph-name="l.001" horiz-adv-x="1142" 
d="M86 0v1149h303v-879h672v-270h-975z" />
    <glyph glyph-name="m.001" horiz-adv-x="1650" 
d="M1282 0l-65 569l-367 -569h-107l-327 573l-60 -573h-278l104 1149h224l411 -723l465 723h188l99 -1149h-287z" />
    <glyph glyph-name="n.001" horiz-adv-x="1314" 
d="M1067 0l-670 627v-627h-295v1149h183l641 -600v600h291v-1149h-150z" />
    <glyph glyph-name="o.001" horiz-adv-x="1406" 
d="M715 -31q-119 0 -231 38.5t-203.5 111.5t-147 191t-55.5 263q0 121 36.5 223t98 172.5t144 119.5t173 71.5t185.5 22.5t186.5 -25t173 -76.5t143.5 -123t98 -172t36 -216.5q0 -118 -36.5 -218t-98 -169t-144 -118t-173 -72t-185.5 -23zM715 909q-166 0 -258 -96.5
t-92 -243.5q0 -140 91.5 -233.5t258.5 -93.5t257.5 92t90.5 235q0 146 -91 243t-257 97z" />
    <glyph glyph-name="p.001" horiz-adv-x="1124" 
d="M649 317h-260v-317h-303v1149h569q191 0 306.5 -110.5t115.5 -309.5q0 -128 -59.5 -223t-155.5 -142t-213 -47zM635 870h-246v-290h232q83 0 126.5 42.5t43.5 104.5q0 143 -156 143z" />
    <glyph glyph-name="q.001" horiz-adv-x="1398" 
d="M901 -14q67 -54 184 -90.5t238 -42.5l-160 -254q-195 35 -357 129t-237 241q-102 19 -193 64t-166.5 116t-120 176.5t-44.5 231.5q0 140 58.5 258.5t153 194t210 117.5t233.5 42q122 0 239 -42.5t210.5 -118.5t151 -194t57.5 -257q0 -216 -127.5 -367t-329.5 -204z
M700 897q-168 0 -270 -97.5t-102 -242.5q0 -138 102.5 -234t269.5 -96q169 0 272 95t103 235q0 144 -103 242t-272 98z" />
    <glyph glyph-name="r.001" horiz-adv-x="1208" 
d="M856 0l-364 422h-89v-422h-301l-2 1149h625q184 0 286.5 -98.5t102.5 -264.5q0 -119 -84 -208t-209 -129l350 -410v-39h-315zM682 889h-279v-201h263q80 1 116.5 32t36.5 73q0 96 -137 96z" />
    <glyph glyph-name="s.001" horiz-adv-x="1204" 
d="M586 -16q-143 0 -240 29t-250 120l64 252q119 -73 228 -105t187 -32q106 0 186.5 31.5t80.5 82.5q0 48 -101 70q-37 9 -80 14.5t-97.5 11t-84.5 9.5q-64 9 -114 21t-106.5 37.5t-93.5 60t-62 91t-25 128.5q0 64 21 117.5t54.5 90.5t81 65t96 44.5t103.5 27t99.5 14
t87.5 3.5q148 0 248 -28t227 -95l-52 -245q-215 123 -419 123q-72 0 -124.5 -10t-78.5 -26.5t-37.5 -33t-11.5 -33.5q0 -68 237 -82q46 -2 81 -5t93.5 -13.5t102 -25.5t93.5 -43.5t82 -66t53.5 -94.5t21.5 -127q0 -76 -26.5 -137t-72.5 -101t-101 -68.5t-120 -43.5
t-120.5 -21.5t-110.5 -6.5z" />
    <glyph glyph-name="t.001" horiz-adv-x="1212" 
d="M764 889v-891h-307l-2 891h-414v260h1137v-260h-414z" />
    <glyph glyph-name="u.001" horiz-adv-x="1300" 
d="M655 -16q-268 0 -419 141t-150 407v617h297l2 -606q1 -87 19.5 -144.5t57 -86.5t83 -39.5t110.5 -10.5q260 0 260 287v600h299v-602q0 -275 -148 -419t-411 -144z" />
    <glyph glyph-name="v.001" horiz-adv-x="1372" 
d="M815 -4h-231l-531 1116v37h297l348 -760q183 410 338 760h287v-37z" />
    <glyph glyph-name="w.001" horiz-adv-x="1789" 
d="M1331 0h-196l-244 707q-24 -76 -101 -323.5t-120 -383.5h-215l-394 1110v39h304l213 -633q31 110 98 322t96 311h254l217 -647q25 73 104.5 297t120.5 350h273v-39z" />
    <glyph glyph-name="x.001" horiz-adv-x="1265" 
d="M907 0l-272 352q-75 -94 -279 -352h-290v41l399 528q-59 75 -159 209t-170 231l-70 97v43h309l268 -348l264 348h295l-2 -45l-385 -520l406 -541l2 -43h-316z" />
    <glyph glyph-name="y.001" horiz-adv-x="1234" 
d="M748 432v-432h-306v449l-409 657v43h295l286 -453l285 453h291v-41z" />
    <glyph glyph-name="z.001" horiz-adv-x="1181" 
d="M512 252h586v-252h-1004v184l619 715h-602v250h1011v-182z" />
    <glyph glyph-name="eth.001" horiz-adv-x="1312" 
d="M139 502h-121v190h121v457h539q131 0 242.5 -47t186.5 -126.5t117 -183.5t42 -217q0 -251 -176 -413t-461 -162h-490v502zM596 502h-154v-248h166q171 0 274 93t103 222q0 67 -20 124t-62.5 103t-116.5 72.5t-174 26.5h-170v-203h154v-190z" />
    <glyph glyph-name="lslash.001" horiz-adv-x="1214" 
d="M647 717l-160 -109v-338h656v-270h-959v406l-129 -87v252l129 86v492h303v-289l160 109v-252z" />
    <glyph glyph-name="scaron.001" horiz-adv-x="1183" 
d="M586 -16q-143 0 -240 29t-250 120l64 252q119 -73 228 -105t187 -32q106 0 186.5 31.5t80.5 82.5q0 48 -101 70q-37 9 -80 14.5t-97.5 11t-84.5 9.5q-64 9 -114 21t-106.5 37.5t-93.5 60t-62 91t-25 128.5q0 64 21 117.5t54.5 90.5t81 65t96 44.5t103.5 27t99.5 14
t87.5 3.5q148 0 248 -28t227 -95l-52 -245q-215 123 -419 123q-72 0 -124.5 -10t-78.5 -26.5t-37.5 -33t-11.5 -33.5q0 -68 237 -82q46 -2 81 -5t93.5 -13.5t102 -25.5t93.5 -43.5t82 -66t53.5 -94.5t21.5 -127q0 -76 -26.5 -137t-72.5 -101t-101 -68.5t-120 -43.5
t-120.5 -21.5t-110.5 -6.5zM934 1645l-283 -379h-159l-291 379h229l141 -187l144 187h219z" />
    <glyph glyph-name="yacute.001" horiz-adv-x="1232" 
d="M748 432v-432h-306v449l-409 657v43h295l286 -453l285 453h291v-41zM963 1583l-377 -369h-197l264 398h291z" />
    <glyph glyph-name="thorn.001" horiz-adv-x="1124" 
d="M635 174h-260v-174h-305l2 1149h307v-184h260q195 0 308.5 -101.5t113.5 -298.5q0 -96 -34 -172t-93.5 -123t-135.5 -71.5t-163 -24.5zM618 686h-243v-250h231q84 0 127 34t43 93q0 65 -37 94t-121 29z" />
    <glyph glyph-name="zcaron.001" horiz-adv-x="1159" 
d="M512 252h586v-252h-1004v184l619 715h-602v250h1011v-182zM944 1614l-282 -379h-160l-291 379h227l144 -187l143 187h219z" />
    <glyph glyph-name="aacute.001" horiz-adv-x="1374" 
d="M1010 0l-80 195h-496l-86 -195h-289l-2 25l523 1126h227l500 -1126l2 -25h-299zM684 770l-139 -319h276zM985 1612l-377 -369h-196l264 397h291z" />
    <glyph glyph-name="agrave.001" horiz-adv-x="1370" 
d="M1010 0l-80 195h-496l-86 -195h-289l-2 25l523 1126h227l500 -1126l2 -25h-299zM684 770l-139 -319h276zM926 1262h-209l-391 335l18 52h299z" />
    <glyph glyph-name="acircumflex.001" horiz-adv-x="1355" 
d="M1010 0l-80 195h-496l-86 -195h-289l-2 25l523 1126h227l500 -1126l2 -25h-299zM684 770l-139 -319h276zM1061 1245h-223l-144 168l-141 -168h-225l290 379h160z" />
    <glyph glyph-name="adieresis.001" horiz-adv-x="1359" 
d="M1010 0l-80 195h-496l-86 -195h-289l-2 25l523 1126h227l500 -1126l2 -25h-299zM684 770l-139 -319h276zM1020 1401q0 -64 -37.5 -109t-91.5 -45q-53 0 -91 45t-38 109q0 65 37.5 110t91.5 45t91.5 -45t37.5 -110zM586 1401q0 -65 -38 -109.5t-93 -44.5q-53 0 -91 45
t-38 109t38 109.5t91 45.5q55 0 93 -45t38 -110z" />
    <glyph glyph-name="atilde.001" horiz-adv-x="1355" 
d="M1010 0l-80 195h-496l-86 -195h-289l-2 25l523 1126h227l500 -1126l2 -25h-299zM684 770l-139 -319h276zM1073 1513q-4 -10 -12 -27t-33.5 -61t-52 -77t-66.5 -60.5t-78 -27.5q-78 0 -165 67q-6 4 -32 23.5t-44.5 29t-34.5 9.5q-88 0 -135 -123l-101 45q3 11 9.5 29
t28.5 64.5t46 82.5t62.5 65t79.5 29q83 0 172 -65q5 -4 24 -19t29.5 -22.5t27 -15t29.5 -7.5q81 0 152 115z" />
    <glyph glyph-name="aring.001" horiz-adv-x="1345" 
d="M1010 0l-80 195h-496l-86 -195h-289l-2 25l523 1126h227l500 -1126l2 -25h-299zM684 770l-139 -319h276zM963 1493q0 -113 -79 -190.5t-188 -77.5t-187.5 77.5t-78.5 190.5t78.5 190.5t187.5 77.5t188 -77.5t79 -190.5zM809 1493q0 52 -33 88.5t-82 36.5q-47 0 -80.5 -37
t-33.5 -88q0 -50 33.5 -86.5t80.5 -36.5q49 0 82 36.5t33 86.5z" />
    <glyph glyph-name="ccedilla.001" horiz-adv-x="1183" 
d="M1128 166q-43 -40 -79.5 -66.5t-94 -55.5t-134.5 -43.5t-173 -14.5q-44 0 -67 4l-39 -111q43 19 80 19q29 0 57 -5.5t58 -19.5t52.5 -36t37 -58t14.5 -82t-20.5 -82.5t-50.5 -57t-68 -34.5t-69 -18.5t-57 -4.5q-107 0 -210 62l41 131q31 -18 62.5 -27t51 -10.5t55.5 -1.5
q38 0 62.5 10t31.5 20.5t7 20.5q0 40 -19 59t-73 19q-31 0 -53 -7.5t-29 -14.5l-6 -7l-140 56l74 217q-78 30 -145 79t-120.5 116.5t-84.5 159t-31 196.5q0 133 52.5 247t137.5 187.5t190 115t214 41.5q157 0 261 -43.5t200 -126.5l-72 -251q-99 81 -183 116t-198 35
q-130 0 -218.5 -89t-88.5 -235q0 -144 89 -235.5t216 -91.5q111 0 202 41.5t193 124.5z" />
    <glyph glyph-name="eacute.001" horiz-adv-x="1167" 
d="M109 0v1149h940v-260h-637v-193h542v-252h-540v-182h653v-262h-958zM866 1585l-377 -368h-196l266 397h289z" />
    <glyph glyph-name="egrave.001" horiz-adv-x="1163" 
d="M109 0v1149h940v-260h-637v-193h542v-252h-540v-182h653v-262h-958zM862 1243h-209l-391 336l19 51h297z" />
    <glyph glyph-name="ecircumflex.001" horiz-adv-x="1167" 
d="M109 0v1149h940v-260h-637v-193h542v-252h-540v-182h653v-262h-958zM938 1233h-221l-144 168l-143 -168h-223l289 379h161z" />
    <glyph glyph-name="edieresis.001" horiz-adv-x="1134" 
d="M109 0v1149h940v-260h-637v-193h542v-252h-540v-182h653v-262h-958zM922 1423q0 -64 -37.5 -108.5t-91.5 -44.5q-53 0 -91 44.5t-38 108.5q0 65 37.5 110.5t91.5 45.5t91.5 -45.5t37.5 -110.5zM487 1423q0 -65 -38 -109t-93 -44q-53 0 -91 44.5t-38 108.5t38 110t91 46
q55 0 93 -45.5t38 -110.5z" />
    <glyph glyph-name="iacute.001" horiz-adv-x="462" 
d="M594 1520l-373 -289h-186l258 309h289zM356 0h-282v1147h282v-1147z" />
    <glyph glyph-name="igrave.001" horiz-adv-x="454" 
d="M387 1253h-207l-422 373l25 41h297zM356 0h-282v1147h282v-1147z" />
    <glyph glyph-name="icircumflex.001" horiz-adv-x="563" 
d="M629 1253h-223l-142 168l-143 -168h-223l288 379h162zM422 0h-283v1147h283v-1147z" />
    <glyph glyph-name="idieresis.001" horiz-adv-x="669" 
d="M676 1403q0 -63 -37 -106.5t-88 -43.5q-52 0 -89.5 44t-37.5 106t37.5 105.5t89.5 43.5q51 0 88 -44t37 -105zM238 1403q0 -63 -37 -106.5t-90 -43.5q-51 0 -88 43.5t-37 106.5q0 61 37 105t88 44q52 0 89.5 -43.5t37.5 -105.5zM481 0h-280v1147h280v-1147z" />
    <glyph glyph-name="ntilde.001" horiz-adv-x="1323" 
d="M1067 0l-670 627v-627h-295v1149h183l641 -600v600h291v-1149h-150zM1036 1497q-4 -10 -12 -27.5t-33.5 -61t-52.5 -77t-66 -61t-77 -27.5q-75 0 -168 68q-6 4 -24 17.5t-29 21t-27.5 15t-28.5 7.5q-87 0 -137 -123l-98 45q3 11 9.5 29.5t28 65t45.5 82t62.5 65
t79.5 29.5q84 0 170 -66q4 -3 19.5 -15t24 -17.5t22 -14t25 -12.5t22.5 -4q82 0 149 114z" />
    <glyph glyph-name="oacute.001" horiz-adv-x="1421" 
d="M715 -31q-119 0 -231 38.5t-203.5 111.5t-147 191t-55.5 263q0 121 36.5 223t98 172.5t144 119.5t173 71.5t185.5 22.5t186.5 -25t173 -76.5t143.5 -123t98 -172t36 -216.5q0 -118 -36.5 -218t-98 -169t-144 -118t-173 -72t-185.5 -23zM715 909q-166 0 -258 -96.5
t-92 -243.5q0 -140 91.5 -233.5t258.5 -93.5t257.5 92t90.5 235q0 146 -91 243t-257 97zM1022 1645l-377 -369h-196l266 397h289z" />
    <glyph glyph-name="ograve.001" horiz-adv-x="1425" 
d="M715 -31q-119 0 -231 38.5t-203.5 111.5t-147 191t-55.5 263q0 121 36.5 223t98 172.5t144 119.5t173 71.5t185.5 22.5t186.5 -25t173 -76.5t143.5 -123t98 -172t36 -216.5q0 -118 -36.5 -218t-98 -169t-144 -118t-173 -72t-185.5 -23zM715 909q-166 0 -258 -96.5
t-92 -243.5q0 -140 91.5 -233.5t258.5 -93.5t257.5 92t90.5 235q0 146 -91 243t-257 97zM979 1274h-209l-391 336l18 51h297z" />
    <glyph glyph-name="ocircumflex.001" horiz-adv-x="1400" 
d="M715 -31q-119 0 -231 38.5t-203.5 111.5t-147 191t-55.5 263q0 121 36.5 223t98 172.5t144 119.5t173 71.5t185.5 22.5t186.5 -25t173 -76.5t143.5 -123t98 -172t36 -216.5q0 -118 -36.5 -218t-98 -169t-144 -118t-173 -72t-185.5 -23zM715 909q-166 0 -258 -96.5
t-92 -243.5q0 -140 91.5 -233.5t258.5 -93.5t257.5 92t90.5 235q0 146 -91 243t-257 97zM1073 1282h-223l-141 168l-144 -168h-225l291 379h160z" />
    <glyph glyph-name="odieresis.001" horiz-adv-x="1404" 
d="M715 -31q-119 0 -231 38.5t-203.5 111.5t-147 191t-55.5 263q0 121 36.5 223t98 172.5t144 119.5t173 71.5t185.5 22.5t186.5 -25t173 -76.5t143.5 -123t98 -172t36 -216.5q0 -118 -36.5 -218t-98 -169t-144 -118t-173 -72t-185.5 -23zM715 909q-166 0 -258 -96.5
t-92 -243.5q0 -140 91.5 -233.5t258.5 -93.5t257.5 92t90.5 235q0 146 -91 243t-257 97zM1047 1438q0 -64 -38 -109t-91 -45t-91.5 45t-38.5 109t38 109.5t92 45.5q53 0 91 -45.5t38 -109.5zM610 1438q0 -64 -37.5 -109t-91.5 -45q-53 0 -91 45t-38 109t38 109.5t91 45.5
q54 0 91.5 -45t37.5 -110z" />
    <glyph glyph-name="otilde.001" horiz-adv-x="1421" 
d="M715 -31q-119 0 -231 38.5t-203.5 111.5t-147 191t-55.5 263q0 121 36.5 223t98 172.5t144 119.5t173 71.5t185.5 22.5t186.5 -25t173 -76.5t143.5 -123t98 -172t36 -216.5q0 -118 -36.5 -218t-98 -169t-144 -118t-173 -72t-185.5 -23zM715 909q-166 0 -258 -96.5
t-92 -243.5q0 -140 91.5 -233.5t258.5 -93.5t257.5 92t90.5 235q0 146 -91 243t-257 97zM1092 1544q-4 -10 -12 -27.5t-33.5 -61t-52 -77t-66.5 -61t-78 -27.5q-77 0 -166 68q-4 3 -31.5 22.5t-45.5 29t-34 9.5q-88 0 -135 -123l-100 45q3 11 9.5 29.5t28 65t45.5 82
t62.5 65t79.5 29.5q84 0 170 -66q6 -4 25.5 -18.5t30.5 -22t27.5 -15t29.5 -7.5q82 0 149 114z" />
    <glyph glyph-name="uacute.001" horiz-adv-x="1284" 
d="M655 -16q-268 0 -419 141t-150 407v617h297l2 -606q1 -87 19.5 -144.5t57 -86.5t83 -39.5t110.5 -10.5q260 0 260 287v600h299v-602q0 -275 -148 -419t-411 -144zM930 1587l-377 -368h-197l265 397h290z" />
    <glyph glyph-name="ugrave.001" horiz-adv-x="1275" 
d="M655 -16q-268 0 -419 141t-150 407v617h297l2 -606q1 -87 19.5 -144.5t57 -86.5t83 -39.5t110.5 -10.5q260 0 260 287v600h299v-602q0 -275 -148 -419t-411 -144zM903 1229h-209l-391 336l19 51h296z" />
    <glyph glyph-name="ucircumflex.001" horiz-adv-x="1275" 
d="M655 -16q-268 0 -419 141t-150 407v617h297l2 -606q1 -87 19.5 -144.5t57 -86.5t83 -39.5t110.5 -10.5q260 0 260 287v600h299v-602q0 -275 -148 -419t-411 -144zM999 1262h-223l-141 168l-143 -168h-226l291 378h160z" />
    <glyph glyph-name="udieresis.001" horiz-adv-x="1284" 
d="M655 -16q-268 0 -419 141t-150 407v617h297l2 -606q1 -87 19.5 -144.5t57 -86.5t83 -39.5t110.5 -10.5q260 0 260 287v600h299v-602q0 -275 -148 -419t-411 -144zM975 1409q0 -64 -38 -109t-91 -45q-54 0 -91.5 45t-37.5 109q0 65 37.5 110.5t91.5 45.5q53 0 91 -46
t38 -110zM539 1409q0 -64 -37.5 -109t-91.5 -45q-53 0 -91 45t-38 109t38 110t91 46q54 0 91.5 -45.5t37.5 -110.5z" />
    <glyph glyph-name="ae.001" horiz-adv-x="1918" 
d="M815 842l-229 -391h229v391zM821 0v195h-354l-119 -195h-338l2 25l713 1126l1036 -2v-260h-637v-193h543v-252h-541v-182h654v-262h-959z" />
    <glyph glyph-name="oslash.001" horiz-adv-x="1378" 
d="M463 305l268 602q-7 0 -23 1t-24 1q-166 0 -257 -96.5t-91 -243.5q0 -174 127 -264zM913 836l-266 -592q12 -2 37 -2q167 0 257.5 92t90.5 235q0 82 -30.5 152t-88.5 115zM1182 1436l-154 -344q134 -78 214.5 -211.5t80.5 -311.5q0 -118 -36.5 -218t-98.5 -169
t-144.5 -118t-173.5 -72t-186 -23q-83 0 -152 17l-112 -254h-215l143 319q-138 75 -220.5 208t-82.5 314q0 121 36.5 223t98.5 172.5t144.5 119.5t173.5 71.5t186 22.5q75 0 162 -19l121 271z" />
    <glyph glyph-name="oe.001" horiz-adv-x="1982" 
d="M715 -31q-119 0 -231 38.5t-203.5 111.5t-147 191t-55.5 263q0 121 36.5 223t98 172.5t144 119.5t173 71.5t185.5 22.5t211 -33h934v-260h-594q52 -85 73 -193h426v-252h-426q-17 -100 -65 -182h604v-262h-952q-108 -31 -211 -31zM715 909q-166 0 -258 -96.5t-92 -243.5
q0 -140 91.5 -233.5t258.5 -93.5t257.5 92t90.5 235q0 146 -91 243t-257 97z" />
    <glyph glyph-name="ydieresis.001" horiz-adv-x="1232" 
d="M748 432v-432h-306v449l-409 657v43h295l286 -453l285 453h291v-41zM954 1386q0 -64 -38.5 -108.5t-92.5 -44.5q-53 0 -91 44.5t-38 108.5q0 65 37.5 110.5t91.5 45.5t92.5 -46t38.5 -110zM518 1386q0 -64 -37.5 -108.5t-91.5 -44.5t-92.5 44.5t-38.5 108.5t38.5 110
t92.5 46t91.5 -45.5t37.5 -110.5z" />
    <glyph glyph-name="emacron.001" horiz-adv-x="1146" 
d="M109 0v1149h940v-260h-637v-193h542v-252h-540v-182h653v-262h-958zM901 1317h-655v209h655v-209z" />
    <glyph glyph-name="zero.osf" horiz-adv-x="1083" 
d="M530 -14q-71 0 -140 19.5t-131.5 60t-110 97t-75.5 136t-28 172.5q0 100 28 184.5t75 143t109.5 99.5t131.5 60t141 19q91 0 176 -31.5t155 -91.5t112.5 -159.5t42.5 -223.5q0 -115 -43 -209.5t-113 -153.5t-155.5 -90.5t-174.5 -31.5zM530 752q-111 0 -178 -79t-67 -202
q0 -117 66 -187.5t179 -70.5q112 0 179 73.5t67 184.5q0 122 -67.5 201.5t-178.5 79.5z" />
    <glyph glyph-name="one.osf" horiz-adv-x="952" 
d="M143 -2v213h226v410l-154 -162l-117 182l324 317h178v-747h229v-213h-686z" />
    <glyph glyph-name="two.osf" horiz-adv-x="970" 
d="M805 457q-31 -30 -82.5 -58.5t-90 -44.5t-103 -39.5t-83.5 -31.5q-85 -28 -131 -62h557v-221h-809l-24 164q15 37 36 70t39.5 57t50 49t50 39t58 34.5t56 28.5t62 28t58.5 26q106 49 151 84.5t45 66.5q0 121 -176 121q-151 0 -358 -121l-74 178q122 78 223.5 115
t208.5 37q50 0 101 -8t108.5 -31t101 -58t72.5 -95t29 -136q0 -116 -76 -192z" />
    <glyph glyph-name="three.osf" horiz-adv-x="995" 
d="M420 -246q-100 0 -179 21.5t-180 74.5l33 234q23 -10 72 -33t70.5 -30.5t66.5 -16t100 -8.5q275 0 275 178q0 88 -53.5 122t-153.5 34q-111 0 -223 -66l-74 146l342 303h-414v243h772v-188l-280 -242q68 -9 125.5 -32.5t106.5 -63t76.5 -102t27.5 -142.5
q0 -89 -29 -162.5t-78 -122.5t-115 -83t-138 -49t-150 -15z" />
    <glyph glyph-name="four.osf" horiz-adv-x="1153" 
d="M930 66v-261h-266v261h-578l-2 174l666 718h180v-663h147v-229h-147zM377 295h287v299z" />
    <glyph glyph-name="five.osf" horiz-adv-x="1118" 
d="M496 -207q-213 0 -418 117l65 215q142 -82 367 -82q65 0 115.5 17t77 42t40 49.5t13.5 45.5q0 26 -8 50t-27.5 48.5t-60 39.5t-97.5 15q-110 0 -193 -25t-120 -55l-172 66l28 622h861v-253h-627l-8 -189q112 57 237 57q62 0 119.5 -8.5t121 -33t109.5 -64.5t76.5 -109.5
t30.5 -160.5q0 -92 -32 -163.5t-83 -116t-122 -73.5t-142.5 -40t-150.5 -11z" />
    <glyph glyph-name="six.osf" horiz-adv-x="1157" 
d="M567 -10q-97 0 -190 39t-170 111.5t-124.5 188.5t-47.5 257q0 145 49.5 261t132 186.5t183 107.5t210.5 37q125 0 212 -31t177 -96l-110 -195q-61 34 -77 42.5t-52.5 22t-66 15.5t-81.5 2q-124 0 -216 -81.5t-107 -219.5q162 166 350 166q201 0 323.5 -105t122.5 -305
q0 -77 -30 -143.5t-81 -113.5t-117.5 -80.5t-140.5 -49.5t-149 -16zM627 563q-83 0 -167.5 -44.5t-133.5 -123.5q34 -76 96.5 -114.5t138.5 -38.5q83 0 144 14.5t101 52.5t40 97q0 80 -60.5 118.5t-158.5 38.5z" />
    <glyph glyph-name="seven.osf" horiz-adv-x="1060" 
d="M387 -193h-276l569 895h-610v256h909v-231z" />
    <glyph glyph-name="eight.osf" horiz-adv-x="1112" 
d="M580 -16q-135 0 -247 37.5t-183.5 117t-71.5 187.5q0 85 44 156t111 110q-69 41 -110 100.5t-41 132.5q0 165 129 252.5t348 87.5q218 0 343.5 -90t125.5 -254q0 -135 -149 -217q75 -46 122.5 -117t47.5 -157q0 -106 -68 -186.5t-173 -120t-228 -39.5zM565 938
q-114 0 -166.5 -31t-52.5 -69q0 -50 66 -87.5t184 -54.5q57 13 94 28t54.5 33t23.5 34t6 38q0 109 -209 109zM518 489q-97 -16 -139.5 -64t-42.5 -101q0 -41 48 -72t161 -31q109 0 161 31t52 78q0 57 -62.5 100.5t-177.5 58.5z" />
    <glyph glyph-name="nine.osf" horiz-adv-x="1167" 
d="M561 -203q-121 0 -239 35l51 205q116 -19 192 -19q120 0 203 81t98 212q-174 -178 -356 -178q-202 0 -317 103.5t-115 314.5q0 91 31.5 165t82 121t117 79t133 45.5t133.5 13.5q76 0 149.5 -23.5t140 -72.5t116.5 -117.5t79.5 -166.5t29.5 -212q0 -116 -29.5 -213
t-80.5 -165t-119 -115.5t-143.5 -70t-156.5 -22.5zM582 735q-269 0 -269 -190q0 -86 50 -131t149 -45q87 0 178.5 50t134.5 126q-37 102 -96 146t-147 44z" />
    <glyph glyph-name="onefifth" horiz-adv-x="2107" 
d="M455 426h-246v1010h246v-1010zM1274 1436l-633 -1436h-258l633 1436h258zM1956 350q0 -79 -29 -142.5t-74 -102.5t-102.5 -65t-109.5 -36t-101 -10q-163 0 -369 119l48 235q83 -47 170.5 -75.5t150.5 -28.5q81 0 119.5 32t38.5 70q0 41 -32.5 73t-100.5 32
q-137 0 -207 -45l-191 75l27 529h719v-254h-496l-8 -109q74 31 166 31q53 0 101.5 -8t101 -30.5t91 -58t63 -95t24.5 -136.5z" />
    <glyph glyph-name="twofifths" horiz-adv-x="2486" 
d="M858 1128q0 -60 -33.5 -123t-83.5 -111t-95 -81.5t-79 -50.5q-74 -37 -102 -74h389v-256h-702l-19 184q31 85 115 178.5t192 161.5q172 109 172 160q0 30 -29 54t-87 24q-158 0 -306 -102l-79 217q196 141 385 141q39 0 78.5 -7t80.5 -22t77 -41t64.5 -60t45 -83.5
t16.5 -108.5zM2343 350q0 -79 -29 -142.5t-74 -102.5t-102.5 -65t-109.5 -36t-101 -10q-162 0 -368 119l47 235q83 -47 170.5 -75.5t150.5 -28.5q81 0 119.5 32t38.5 70q0 41 -32.5 73t-100.5 32q-137 0 -207 -45l-191 75l27 529h719v-254h-496l-8 -109q74 31 166 31
q53 0 101.5 -8t101 -30.5t91 -58t63 -95t24.5 -136.5zM1661 1436l-633 -1436h-258l633 1436h258z" />
    <glyph glyph-name="threefifths" horiz-adv-x="2361" 
d="M840 750q0 -71 -26 -128t-66.5 -93t-92.5 -60.5t-101.5 -34.5t-96.5 -10q-173 0 -326 115l64 237q145 -92 262 -92q70 0 99.5 19.5t29.5 46.5q0 81 -146 81l-139 -4q-10 32 -13 107t5 113q100 -3 147 -3q56 0 101 17.5t45 54.5q0 31 -29.5 53.5t-99.5 22.5
q-107 0 -254 -92l-74 229q63 51 156.5 86t171.5 35q48 0 96.5 -8.5t101.5 -32t93 -58t66 -92.5t26 -131q0 -49 -31.5 -98t-71.5 -80q103 -79 103 -200zM2230 350q0 -79 -29 -142.5t-73.5 -102.5t-102 -65t-109.5 -36t-101 -10q-163 0 -369 119l47 235q83 -47 171 -75.5
t151 -28.5q81 0 119 32t38 70q0 41 -32.5 73t-100.5 32q-137 0 -207 -45l-190 75l26 529h719v-254h-495l-9 -109q74 31 166 31q53 0 101.5 -8t101 -30.5t91 -58t63 -95t24.5 -136.5zM1548 1436l-633 -1436h-258l633 1436h258z" />
    <glyph glyph-name="fourfifths" horiz-adv-x="2529" 
d="M930 633h-123v-209h-250v209h-438v170l514 639h174v-582h123v-227zM557 860v176l-137 -176h137zM2370 350q0 -79 -29 -142.5t-74 -102.5t-102.5 -65t-109.5 -36t-101 -10q-163 0 -369 119l47 235q83 -47 171 -75.5t151 -28.5q81 0 119 32t38 70q0 41 -32.5 73t-100.5 32
q-136 0 -206 -45l-191 75l27 529h719v-254h-496l-8 -109q74 31 166 31q53 0 101.5 -8t101 -30.5t91 -58t63 -95t24.5 -136.5zM1688 1436l-633 -1436h-258l633 1436h258z" />
    <glyph glyph-name="fivefifths" horiz-adv-x="2394" 
d="M915 778q0 -79 -29 -142.5t-73.5 -102.5t-102 -65t-109.5 -36t-101 -10q-163 0 -369 119l47 235q83 -47 171 -75.5t151 -28.5q81 0 119 32t38 70q0 41 -32.5 73t-100.5 32q-147 0 -207 -48l-190 78l27 529h718v-254h-495l-8 -109q74 31 166 31q53 0 101.5 -8t101 -30.5
t90.5 -58t62.5 -95t24.5 -136.5zM2284 350q0 -79 -29 -142.5t-74 -102.5t-102.5 -65t-109.5 -36t-101 -10q-163 0 -369 119l47 235q83 -47 171 -75.5t151 -28.5q81 0 119 32t38 70q0 41 -32.5 73t-100.5 32q-136 0 -206 -45l-191 75l27 529h719v-254h-496l-8 -109
q74 31 166 31q53 0 101.5 -8t101 -30.5t91 -58t63 -95t24.5 -136.5zM1602 1436l-633 -1436h-258l632 1436h259z" />
    <glyph glyph-name="A.alt01" horiz-adv-x="1499" 
d="M733 1010l-395 -1010h-313l596 1440h245l570 -1440h-322zM879 330q0 -63 -43.5 -107.5t-104.5 -44.5q-59 0 -102 44.5t-43 107.5q0 62 43 105.5t102 43.5q62 0 105 -43t43 -106z" />
    <glyph glyph-name="A.alt02" horiz-adv-x="1499" 
d="M733 1010l-395 -1010h-313l596 1440h245l570 -1440h-322z" />
    <glyph glyph-name="A.001" horiz-adv-x="1499" 
d="M733 1010l-395 -1010h-313l596 1440h245l570 -1440h-322zM881 330q0 -63 -43.5 -107.5t-104.5 -44.5q-59 0 -102 44.5t-43 107.5q0 62 43 105.5t102 43.5q62 0 105 -43t43 -106z" />
    <glyph glyph-name="B.001" horiz-adv-x="1284" 
d="M84 1151l-2 285h657q137 0 234 -55t142.5 -146.5t45.5 -210.5q0 -99 -40.5 -173t-108.5 -120q70 -47 117 -135.5t47 -183.5q0 -190 -116.5 -301t-299.5 -111h-678l2 852h602q98 0 149.5 44t51.5 105q0 64 -44 107t-141 43h-618zM881 424q0 66 -44.5 111t-138.5 45h-307
v-295h293q99 0 148 40.5t49 98.5z" />
    <glyph glyph-name="D.001" horiz-adv-x="1452" 
d="M627 1149h-510v287h585q147 0 272 -59t208.5 -158t130.5 -229t47 -271q0 -204 -87.5 -367.5t-251 -257.5t-376.5 -94h-528v1012h319l-2 -723h187q134 0 236.5 59t155 154t52.5 209q0 92 -24 168.5t-74 138.5t-136.5 96.5t-203.5 34.5z" />
    <glyph glyph-name="E.001" horiz-adv-x="1271" 
d="M1165 0h-1071l2 1436h1047v-295h-727v-844h749v-297zM813 719q0 -63 -43 -107.5t-104 -44.5q-59 0 -102.5 44.5t-43.5 107.5q0 62 43.5 105.5t102.5 43.5q62 0 104.5 -43t42.5 -106z" />
    <glyph glyph-name="F.001" 
d="M1075 1141h-665v-307h667v-297h-667v-537h-318v1436h983v-295z" />
    <glyph glyph-name="G.001" horiz-adv-x="1507" 
d="M1382 1202l-143 -237q-39 32 -114.5 75t-125.5 66q-110 47 -256 47q-169 0 -276 -115.5t-107 -306.5q0 -197 109.5 -317.5t273.5 -120.5q93 0 185 32t157 85v362h287v-532q-88 -91 -229 -162q-192 -98 -400 -98q-98 0 -194.5 30t-184.5 92t-155.5 148.5t-107.5 209
t-40 263.5q0 144 41 266.5t109 207.5t157 145.5t185 89t192 28.5q180 0 318 -49q85 -32 182.5 -98t136.5 -111z" />
    <glyph glyph-name="O.001" horiz-adv-x="1579" 
d="M1501 711q0 -146 -40.5 -270t-110 -211t-161.5 -149t-194.5 -91t-210.5 -29t-210.5 30t-194.5 92t-161 150t-109.5 213t-40.5 271q0 151 40.5 277.5t109.5 214.5t161 149.5t194.5 90t210.5 28.5t211.5 -31.5t195 -95.5t160.5 -153.5t109.5 -215t40.5 -270.5zM1198 711
q0 196 -109.5 325t-304.5 129q-132 0 -227 -61t-140.5 -162.5t-45.5 -230.5q0 -123 45.5 -220.5t140.5 -158t227 -60.5q197 0 305.5 123.5t108.5 315.5zM936 711q0 -63 -43.5 -107.5t-104.5 -44.5q-59 0 -102 44.5t-43 107.5q0 62 43 105.5t102 43.5q62 0 105 -43t43 -106z
" />
    <glyph glyph-name="P.001" horiz-adv-x="1265" 
d="M94 1116l2 320h617q217 0 343 -136t126 -382q0 -118 -37.5 -215.5t-102.5 -161.5t-151 -98.5t-184 -34.5h-291v-408h-322v707h559q101 0 165.5 60t64.5 146q0 94 -57 148.5t-156 54.5h-576z" />
    <glyph glyph-name="Q.001" horiz-adv-x="1605" 
d="M1542 700q0 -186 -77.5 -343.5t-207.5 -256.5t-290 -129q49 -77 163 -121q152 -59 281 -38l-84 -312q-237 18 -401 127q-196 127 -264 342q-93 18 -178 56.5t-162 101.5t-133.5 144.5t-89.5 192t-33 236.5q0 139 42.5 262.5t115 213.5t167 155.5t200 98t212.5 32.5
q111 0 218.5 -33t201.5 -99t165 -156t112.5 -213t41.5 -261zM1245 700q0 193 -122 323t-320 130q-197 0 -319 -129.5t-122 -323.5q0 -186 122 -312t319 -126q199 0 320.5 124t121.5 314zM952 700q0 -63 -43 -107t-104 -44q-59 0 -102.5 44.5t-43.5 106.5t43.5 106t102.5 44
q62 0 104.5 -43.5t42.5 -106.5z" />
    <glyph glyph-name="R.001" horiz-adv-x="1349" 
d="M94 1141v295h701q210 0 322 -117t112 -318q0 -153 -102.5 -272.5t-247.5 -161.5l381 -495v-72h-306l-419 541h-123v-541h-316l-2 848l635 -2q96 0 143.5 44t47.5 107t-40 103.5t-135 40.5h-651z" />
    <glyph glyph-name="I.001" horiz-adv-x="907" 
d="M797 1438v-305h-179v-828h179v-305h-703v307h201v826h-201v303z" />
    <glyph glyph-name="A.002" horiz-adv-x="1499" 
d="M733 1010l-395 -1010h-313l596 1440h245l570 -1440h-322z" />
    <glyph glyph-name="E.002" horiz-adv-x="1198" 
d="M96 1141v295h989v-295h-989zM94 0l2 297h987v-297h-989zM94 569v287h991v-287h-991z" />
    <glyph glyph-name="caron.alt" horiz-adv-x="419" 
d="M383 1518l-127 -476l-201 2l80 474h248z" />
    <glyph glyph-name="commaaccent" horiz-adv-x="755" 
d="M639 -250q0 -116 -90 -233.5t-203 -161.5l-61 143q32 22 78.5 69t64.5 79h-8q-57 0 -86 44.5t-29 98.5q0 66 52 105.5t112 39.5q74 0 122 -51.5t48 -132.5z" />
    <glyph glyph-name="kratka" horiz-adv-x="1136" 
d="M922 1479q0 -150 -102 -261.5t-249 -111.5q-157 0 -261.5 113t-104.5 260h188q11 -79 59 -134t119 -55q66 0 111 55t53 134h187z" />
    <glyph glyph-name="afii10017.salt" horiz-adv-x="1499" 
d="M733 1010l-395 -1010h-313l596 1440h245l570 -1440h-322zM879 330q0 -63 -43.5 -107.5t-104.5 -44.5q-59 0 -102 44.5t-43 107.5q0 62 43 105.5t102 43.5q62 0 105 -43t43 -106z" />
    <glyph glyph-name="afii10019.salt" horiz-adv-x="1284" 
d="M84 1151l-2 285h657q137 0 234 -55t142.5 -146.5t45.5 -210.5q0 -99 -40.5 -173t-108.5 -120q70 -47 117 -135.5t47 -183.5q0 -190 -116.5 -301t-299.5 -111h-678l2 852h602q98 0 149.5 44t51.5 105q0 64 -44 107t-141 43h-618zM881 424q0 66 -44.5 111t-138.5 45h-307
v-295h293q99 0 148 40.5t49 98.5z" />
    <glyph glyph-name="afii10022.salt" horiz-adv-x="1271" 
d="M1165 0h-1071l2 1436h1047v-295h-727v-844h749v-297zM772 717q0 -63 -43 -107.5t-104 -44.5q-59 0 -102.5 44.5t-43.5 107.5q0 62 43.5 105.5t102.5 43.5q62 0 104.5 -43t42.5 -106zM1135 717q0 -63 -43.5 -107.5t-104.5 -44.5q-59 0 -102 44.5t-43 107.5q0 62 43 105.5
t102 43.5q62 0 105 -43t43 -106z" />
    <glyph glyph-name="afii10032.salt" horiz-adv-x="1579" 
d="M1501 711q0 -146 -40.5 -270t-110 -211t-161.5 -149t-194.5 -91t-210.5 -29t-210.5 30t-194.5 92t-161 150t-109.5 213t-40.5 271q0 151 40.5 277.5t109.5 214.5t161 149.5t194.5 90t210.5 28.5t211.5 -31.5t195 -95.5t160.5 -153.5t109.5 -215t40.5 -270.5zM1198 711
q0 196 -109.5 325t-304.5 129q-132 0 -227 -61t-140.5 -162.5t-45.5 -230.5q0 -123 45.5 -220.5t140.5 -158t227 -60.5q197 0 305.5 123.5t108.5 315.5zM936 711q0 -63 -43.5 -107.5t-104.5 -44.5q-59 0 -102 44.5t-43 107.5q0 62 43 105.5t102 43.5q62 0 105 -43t43 -106z
" />
    <glyph glyph-name="afii10034.salt" horiz-adv-x="1265" 
d="M94 1116l2 320h617q217 0 343 -136t126 -382q0 -118 -37.5 -215.5t-102.5 -161.5t-151 -98.5t-184 -34.5h-291v-408h-322v707h559q101 0 165.5 60t64.5 146q0 94 -57 148.5t-156 54.5h-576z" />
    <glyph glyph-name="afii10049.salt" horiz-adv-x="1349" 
d="M1255 1436v-295h-651q-174 0 -174 -144q0 -63 47.5 -107t143.5 -44q528 2 634 2l-2 -848h-315v541h-123l-420 -541h-305v72l381 495q-145 42 -247.5 161.5t-102.5 272.5q0 201 112 318t322 117h700z" />
    <glyph glyph-name="afii10022.salt2" horiz-adv-x="1198" 
d="M96 1141v295h989v-295h-989zM94 0l2 297h987v-297h-989zM94 569v287h991v-287h-991z" />
    <glyph glyph-name="afii10047.salt" horiz-adv-x="1394" 
d="M72 229l145 267q56 -52 98.5 -85t97.5 -66t115.5 -48.5t128.5 -15.5q149 0 256 122.5t107 315.5q0 195 -106 314.5t-259 119.5q-131 0 -227.5 -46t-204.5 -144l-137 284q232 215 578 215q97 0 193.5 -32.5t181.5 -96.5t150.5 -151.5t103.5 -206.5t38 -252
q0 -178 -55 -321.5t-149 -233.5t-214.5 -138t-255.5 -48q-347 0 -585 247zM631 731q0 63 42.5 106.5t104.5 43.5q59 0 102.5 -44t43.5 -106t-43.5 -106.5t-102.5 -44.5q-61 0 -104 44t-43 107zM268 731q0 63 43 106.5t105 43.5q59 0 102 -44t43 -106q0 -63 -43 -107
t-102 -44q-62 0 -105 44t-43 107z" />
    <glyph glyph-name="afii10018.salt" horiz-adv-x="1257" 
d="M1180 467q0 -101 -31 -182t-81 -133t-118 -87.5t-137.5 -50t-142.5 -14.5h-566v920h570q72 0 142.5 -16.5t136.5 -52.5t116 -88t80.5 -128.5t30.5 -167.5zM1077 1145h-973v289h973v-289zM864 469q0 78 -57 120t-131 42h-258v-336h262q74 0 129 44.5t55 129.5z" />
    <glyph glyph-name="afii10042.salt" horiz-adv-x="1941" 
d="M106 1434h324v-1129h1055v1129h325v-1434h-1704v1434zM1116 1434v-830h-317v830h317z" />
    <glyph glyph-name="afii10043.salt" horiz-adv-x="2072" 
d="M102 0v1434h322v-1131h1026v1131h322v-1131h256l2 -631h-316v328h-1612zM1094 1434v-828h-316v828h316z" />
    <glyph glyph-name="afii10053.salt" horiz-adv-x="1394" 
d="M1186 496l145 -267q-238 -247 -586 -247q-135 0 -255.5 48t-214 138.5t-148.5 233.5t-55 321q0 133 38 252t103.5 206.5t150.5 151.5t181.5 96.5t193.5 32.5q346 0 578 -215l-137 -284q-108 98 -204.5 144t-227.5 46q-153 0 -259 -119.5t-106 -314.5q0 -193 106.5 -315.5
t255.5 -122.5q68 0 128.5 15.5t116 48.5t98 66.5t98.5 84.5zM772 731q0 -63 -43 -107t-104 -44q-59 0 -102.5 44.5t-43.5 106.5t43.5 106t102.5 44q62 0 104.5 -43.5t42.5 -106.5zM1135 731q0 -63 -43 -107t-105 -44q-59 0 -102 44t-43 107q0 62 43 106t102 44
q62 0 105 -43.5t43 -106.5z" />
    <glyph glyph-name="afii10027.salt" horiz-adv-x="1421" 
d="M324 -2h-222v1436h320v-795q68 87 289.5 368t335.5 427h241v-1434h-323v817q-105 -135 -321 -410t-320 -409zM864 1528q0 -63 -43 -107.5t-104 -44.5q-59 0 -102.5 44.5t-43.5 107.5q0 62 43.5 105.5t102.5 43.5q62 0 104.5 -43t42.5 -106z" />
    <glyph glyph-name="afii10037.salt" horiz-adv-x="1363" 
d="M1313 1382l-469 -841v-541h-324v553l-467 827v56h316l336 -594l315 594h293v-54z" />
    <glyph glyph-name="afii10048.salt" horiz-adv-x="1994" 
d="M428 0h-317v1434h317v-590h176q17 146 76 263t146.5 192t196 115t228.5 40q143 0 263 -49t208 -141.5t137.5 -235.5t49.5 -323q0 -166 -50.5 -303t-138.5 -228t-208.5 -140.5t-260.5 -49.5q-160 0 -295.5 65.5t-228.5 193.5t-121 300h-178v-543zM1581 705
q0 209 -92 327.5t-238 118.5t-238.5 -118.5t-92.5 -327.5q0 -194 90.5 -306t240.5 -112q149 0 239.5 113t90.5 305zM1399 711q0 -63 -43.5 -107.5t-104.5 -44.5q-59 0 -102 44.5t-43 107.5q0 62 43 105.5t102 43.5q62 0 105 -43t43 -106z" />
    <glyph glyph-name="afii10055.salt2" horiz-adv-x="907" 
d="M797 1438v-305h-179v-828h179v-305h-703v307h201v826h-201v303z" />
    <glyph glyph-name="afii10056.salt2" horiz-adv-x="907" 
d="M797 1436v-303h-179v-828h179v-305h-703v307h201v826h-201v303h703zM782 1718q0 -57 -38.5 -97t-92.5 -40q-53 0 -91 40t-38 97q0 59 37.5 99.5t91.5 40.5t92.5 -41t38.5 -99zM387 1718q0 -57 -37.5 -97t-91.5 -40t-92.5 40t-38.5 97q0 58 38.5 99t92.5 41t91.5 -40.5
t37.5 -99.5z" />
    <glyph glyph-name="afii10028.salt2" horiz-adv-x="1327" 
d="M100 0v1434h316v-564h88q36 0 59 29l391 535h334v-68q-367 -491 -385 -514q-25 -32 -71 -74.5t-87 -54.5q19 -6 34.5 -13.5t30.5 -18.5t23.5 -16.5t22.5 -21t17.5 -19t19 -23.5t16.5 -21q18 -23 111.5 -153.5t177.5 -249.5l84 -119v-68h-342l-352 543q-22 28 -60 28h-112
v-571h-316z" />
    <glyph glyph-name="afii10024.salt2" horiz-adv-x="2150" 
d="M1665 852q-25 -32 -71 -74.5t-87 -54.5q19 -6 34.5 -13.5t30.5 -18.5t23.5 -16.5t22.5 -21t17.5 -19t19 -23.5t16.5 -21q18 -23 111.5 -153.5t177.5 -249.5l84 -119v-68h-342l-332 543q-22 28 -59 28h-92v-571h-316v571h-92q-37 0 -59 -28l-332 -543h-342v68
q332 471 373 522q3 4 16.5 21t18.5 22.5t17.5 20t22 21t23.5 17t30 18t35 13.5q-41 12 -86 54t-71 75l-385 514v68h334l370 -535q23 -29 60 -29h67v564h316v-564h67q37 0 60 29l370 535h334v-68q-367 -491 -385 -514z" />
    <glyph glyph-name="afii10076.salt2" horiz-adv-x="1099" 
d="M760 629q-32 -44 -71.5 -77.5t-67.5 -37.5q32 -4 63.5 -33t73.5 -84l266 -368v-29h-322l-235 344q-24 31 -61 31h-66v-375h-281v1010h281v-361h84q38 0 61 33l199 328h326v-23z" />
    <glyph glyph-name="afii10072.salt2" horiz-adv-x="1701" 
d="M1321 397l258 -368v-29h-322l-215 344q-24 31 -51 31h-55v-375h-281v375h-55q-27 0 -51 -31l-215 -344h-322v29l258 368q28 37 44.5 57.5t40 38.5t44.5 21q-50 8 -123 115l-249 358v23h325l176 -328q23 -33 62 -33h65v361h281v-361h65q39 0 62 33l176 328h326v-23
l-250 -358q-77 -108 -125 -115q21 -3 45 -21.5t40 -37.5t46 -58z" />
    <glyph glyph-name="threethirds" horiz-adv-x="2287" 
d="M840 750q0 -71 -26 -128t-66.5 -93t-92.5 -60.5t-101.5 -34.5t-96.5 -10q-173 0 -326 115l64 237q145 -92 262 -92q70 0 99.5 19.5t29.5 46.5q0 81 -146 81l-139 -4q-10 32 -13 107t5 113q100 -3 147 -3q56 0 101 17.5t45 54.5q0 31 -29.5 53.5t-99.5 22.5
q-107 0 -254 -92l-74 229q63 51 156.5 86t171.5 35q48 0 96.5 -8.5t101.5 -32t93 -58t66 -92.5t26 -131q0 -49 -31.5 -98t-71.5 -80q103 -79 103 -200zM1548 1436l-633 -1436h-258l633 1436h258zM2152 319q0 -71 -26 -128t-66.5 -93t-92.5 -60t-101.5 -34t-96.5 -10
q-172 0 -325 115l63 237q60 -38 131.5 -64t130.5 -26q70 0 99.5 19.5t29.5 46.5q0 81 -145 81l-139 -6q-10 33 -13 108t5 111q100 -2 147 -2q55 0 100 18.5t45 55.5q0 31 -29.5 53.5t-99.5 22.5q-106 0 -253 -92l-74 227q63 51 156 86t171 35q48 0 96.5 -8.5t101.5 -31.5
t93 -58t66 -93t26 -131q0 -49 -31 -97t-71 -79q102 -78 102 -203z" />
    <glyph glyph-name="onesixth" horiz-adv-x="2183" 
d="M455 426h-246v1010h246v-1010zM1321 1436l-633 -1436h-258l633 1436h258zM2034 356q0 -75 -27.5 -138t-71 -105t-99.5 -71.5t-111 -42.5t-107 -13q-90 0 -169 31.5t-143 93t-101.5 164.5t-37.5 235q0 126 39 226.5t105.5 162.5t149 94.5t173.5 32.5q104 0 205 -25.5
t152 -68.5l-33 -240q-78 47 -149 68.5t-164 21.5q-81 0 -150.5 -59.5t-83.5 -134.5q25 27 99.5 54.5t138.5 27.5q163 0 274 -83t111 -231zM1790 360q0 41 -45.5 65t-106.5 24q-65 0 -123.5 -24t-87.5 -71q18 -47 72 -77.5t107 -30.5q78 0 131 29.5t53 84.5z" />
    <glyph glyph-name="fivesixths" horiz-adv-x="2504" 
d="M915 778q0 -79 -29 -142.5t-73.5 -102.5t-102 -65t-109.5 -36t-101 -10q-163 0 -369 119l47 235q83 -47 171 -75.5t151 -28.5q81 0 119 32t38 70q0 41 -32.5 73t-100.5 32q-147 0 -207 -48l-190 78l27 529h718v-254h-495l-8 -109q74 31 166 31q53 0 101.5 -8t101 -30.5
t90.5 -58t62.5 -95t24.5 -136.5zM1669 1436l-633 -1436h-258l633 1436h258zM2382 356q0 -75 -27.5 -138t-71 -105t-99.5 -71.5t-111 -42.5t-107 -13q-90 0 -169 31.5t-143 93t-101 164.5t-37 235q0 126 39 226.5t105 162.5t148.5 94.5t173.5 32.5q104 0 205 -25.5t152 -68.5
l-33 -240q-78 47 -149 68.5t-164 21.5q-81 0 -150.5 -59.5t-83.5 -134.5q25 27 99.5 54.5t138.5 27.5q163 0 274 -83t111 -231zM2138 360q0 41 -45 65t-106 24q-65 0 -123.5 -24t-87.5 -71q18 -47 71.5 -77.5t106.5 -30.5q78 0 131 29.5t53 84.5z" />
    </font>
</defs>
</svg>
